<?xml version="1.0" encoding="utf-8"?>
<svg version="1.1" xmlns="http://www.w3.org/2000/svg" xmlns:xlink="http://www.w3.org/1999/xlink" x="0px" y="0px"
	 width="522px" height="522px" viewBox="0 0 522 522" enable-background="new 0 0 522 522" xml:space="preserve">
<path id="path3275" fill="#666666" d="M121.419,50.901l64.925,1.929l1.286,12.213l54.64-0.643l2.571,119.565h12.856l-4.5-124.708
	l25.071-16.714v-20.57l-158.779,1.929L121.419,50.901L121.419,50.901z"/>
<path id="path2390" fill="#008000" d="M153.941,258.585l76.331,29.585l160.498,0.74l47.348-71.41c0,0,12.086-41.537-0.659-66.798
	c-4.354-8.627-11.914-11.35-21.507-12.505c-22.01-2.651-80.063-6.934-130.271-6.687c1.087,17.412,4.327,51.377,4.408,77.87
	c-16.262,0.774-43.049,1.236-49.858,0.904c-11.707-23.742-36.172-71.233-51.297-83.264c-22.55-3.223-67.78-8.503-89.95-7.739
	c-20.303,0.7-55.9-4.568-66.804,11.087c-5.976,8.581-0.867,15.105-5.136,24.65c-4.195,9.38-22.827,25.539-22.827,25.539
	l39.857,21.434L153.941,258.585z"/>
<path id="path3312" fill="#FFFF00" stroke="#000000" d="M289.638,152.989l149.735,3.564c0,0,1.125,1.975,1.753,6.942
	c-6.777,0-151.089-0.938-151.089-0.938L289.638,152.989z"/>
<path id="path2400" fill="#1A1A1A" d="M222.554,3.908c-41.865-0.079-85.704,1.614-98.406,5.219
	c-8.459,2.4-11.674,17.168-11.674,17.168l-8.669,94.245c31.252,2.493,81.677,5.262,86.969,9.618
	c18.847,15.515,50.031,83.344,50.031,83.344h53.406l-8.906-173.438l9.875-7.688l2.938-10.795c0,0-13.202-13.068-18.757-13.496
	C262.82,6.813,247.673,3.956,222.554,3.908z M126.085,31.908l57.781,0.656c0,0,0.52,8.125,1.438,92.625
	c-5.781-2.494-34.516-5.1-62.813-7.594L126.085,31.908z M275.804,32.346l10.719,175.906l-47.313,0.063
	c0,0-22.497-52.981-47.188-79.75l-1.719-95.625L275.804,32.346z"/>
<path id="path3314" fill="none" stroke="#000000" d="M290.436,165.148H441.73"/>
<path id="path3318" fill="#008000" d="M112.658,27.571l186.219-4.9c0,0-5.418-8.523-8.167-10.89
	c-4.318-3.718-11.187-8.46-16.88-8.712c-36.052-1.593-86.667-2.753-123.601,0.544c-9.416,0.84-23.822-0.664-31.037,5.445
	C114.697,12.864,112.658,27.571,112.658,27.571z"/>
<path id="path2437" fill="#18181A" stroke="#000000" d="M86.44,119.762l7.334-76.358l20.708-15.962l0.863-12.942l-16.394-0.863
	l-0.863,12.511l1.726-1.294l-9.491,5.608l-4.746,0.216l-0.431,10.785l4.746,0.647"/>
<linearGradient id="path2451_1_" gradientUnits="userSpaceOnUse" x1="95.8755" y1="432.5693" x2="94.0409" y2="432.5701" gradientTransform="matrix(14.3934 0 0 -103.226 -1066.0073 44735.293)">
	<stop  offset="0" style="stop-color:#1A1C1A"/>
	<stop  offset="1" style="stop-color:#C3C6C6"/>
</linearGradient>
<path id="path2451" fill="url(#path2451_1_)" d="M303.668,40.82l-1.894,2.552l-2.651,87.916c0,0,0.881,2.036,2.272,2.552
	c1.946,0.721,5.648,0.973,7.575,0.232c1.206-0.464,2.273-2.552,2.273-2.552l2.271-87.684l-1.515-2.552v-8.583
	c0,0-2.198-1.263-3.409-1.392c-1.385-0.147-4.545,0.696-4.545,0.696L303.668,40.82z"/>
<polygon id="svg_1" opacity="0.5" fill="#FFFFFF" stroke="#000000" points="115.5,30.5 186.5,30.5 187.5,126.75 115.5,119.75 "/>
<rect id="svg_3" x="189" y="30.5" opacity="0.5" fill="#FFFFFF" stroke="#000000" width="93.25" height="97"/>
<path id="svg_9" stroke="#000000" d="M282,127.75l5.5,80.25l-48.25,0.5L205,146.25l-15.5-18L282,127.75z"/>
</svg>
