<svg xmlns="http://www.w3.org/2000/svg" xml:space="preserve" viewBox="0 0 232.2 143.6"><path d="M-.4.1h233v23H-.4zM42.5 143.6H11.1c0-38.3.2-76.2.2-115h211.9c0 38.1-.2 76.1-.2 114.8h-31.1c0-29.3.4-58 .4-87.8H42.9c0 29.5-.4 58.3-.4 88" style="fill:#ff9100"/><path d="M152.3 86.1 150 99.5c-.3 1.9-2.1 5.4-6.5 5.4H92.4c-1.9 0-5.7-1.1-6.5-5.4l-2.4-13.3-12.9 1.4v8.1h6.7v5.3h-1.9s-4.8-.3-4.8 4.5V139s0 4.5 4.8 4.5H82s4.8.3 4.8-4.5v-12.9h33.8s2.9 2.7 6.2 2.8c5.2.2 7.7-3.9 7.7-3.9l14.5.1.2 14s.7 4.5 5.5 4.5h5.8s4.8.3 4.8-4.5v-33.5s0-4.5-4.8-4.5h-1.9l.1-5.3h6.7v-8.1z" style="fill:#ff9100"/><path d="M156.5 82.7v-9.9h-6.1v-9c0-3.3-2.7-6-6-6H91.8c-3.3 0-6 2.7-6 6v9h-5.9v10h5.4c0 .6 2.8 16 2.8 16 .7 4.1 4.7 4.1 4.9 4.1h49.9c4.1 0 4.9-3.9 4.9-4.1 0 0 2.8-15.7 2.8-16zM130 77.6c.6-1.8 2.3-3.1 4.3-3.1s3.7 1.3 4.3 3.1zM89.6 63.7c0-1.2 1-2.2 2.2-2.2h52.6c1.2 0 2.2 1 2.2 2.2v13.9h-3.8c-.7-4.1-4.2-7.2-8.5-7.2s-7.8 3.1-8.5 7.2H112v-3.3s0-1.6-1.6-1.6h-11s-1.6 0-1.6 1.6v3.3h-8.2zM96 93.5c-2.6 0-4.8-2.1-4.8-4.8 0-2.6 2.1-4.8 4.8-4.8 2.6 0 4.8 2.1 4.8 4.8 0 2.6-2.2 4.8-4.8 4.8m43.7 0c-2.6 0-4.8-2.1-4.8-4.8 0-2.6 2.1-4.8 4.8-4.8 2.6 0 4.8 2.1 4.8 4.8 0 2.6-2.2 4.8-4.8 4.8m-32 5.7h-3.5V84.5h3.5zm6 0h-3.5V84.5h3.5zm6 0h-3.5V84.5h3.5zm5.9 0h-3.5V84.5h3.5zm6.1 0h-3.5V84.5h3.5z" style="fill:#ff9100"/></svg>