<svg xmlns="http://www.w3.org/2000/svg" width="822.086" height="424.201" viewBox="0 0 217.51 112.237"><path d="m-272.264 108.163-2.617-.385c-.976.553-3.593 1.203-6.71 1.351l-1.986 1.624c-.53 2.1-3.008 8.969-5.525 15.947-.727 2.017-1.337 3.809-1.95 5.606.25-.827.445-1.675.52-2.565.155-1.753-.244-3.467-1.236-4.809-.994-1.343-2.558-2.227-4.295-2.486-3.473-.519-7.56 1.1-11.924 5.041l-.004.004c-4.595 4.168-7.53 8.767-9.11 13.197l-.081.053a76 76 0 0 1-3.239 4.68c-.23.304-.364.37-.597.658.188-.813.343-1.637.343-2.482 0-1.025-.24-2.098-.71-3.089 3.267-1.97 6.79-5.026 7.8-9.583.422-1.84.303-3.587-.435-5.014-.74-1.43-2.058-2.399-3.455-2.862-2.397-.793-5.043-.235-7.485.993 1.922-4.853 4.258-10.825 4.903-12.34l-.46-2.365-1.208-1.207-2.612-.337c-.725.426-4.114 1.29-8.182 1.44l-2.044 1.797c-1.007 6.044-4.962 16.922-10.17 30.35a55 55 0 0 1-1.48 2.11c2.806-7.417 5.47-13.638 6.788-16.91l-.44-2.292-1.157-1.207-2.617-.385c-.959.543-3.648 1.201-6.712 1.35l-1.98 1.617a67 67 0 0 1-2.029 6.545c-2.621 6.893-4.53 11.65-6.402 13.666.7-2.122 2.34-5.199 3.94-8.662 1.637-3.542 3.212-7.5 3.42-11.643l-1.413-2.13-1.735-.632-1.796.15c-1.354.768-1.935.936-5.133 1.089l-2.047 2.02c-.38 6.226-3.575 11.028-6.943 17.284-1.794 3.32-2.362 6.815-1.418 9.793.74 2.341 2.69 4.198 5.228 4.907-.882.024-2.053-.005-2.857.033-4.616.219-8.037.928-10.881 1.865 2.414-3.412 4.527-7.117 6.412-10.983 6.288-12.896 10.682-27.22 17.4-35.136l-.201-2.995c-.19-.17-.373-.454-.484-.818l-2.363-1.498a13 13 0 0 0-1.32.252l.2-.041c-3.469.521-6.578-.39-10.318-1.531s-8.056-2.477-13.438-2.164c-14.284.829-23.296 8.501-26.368 16.726-1.536 4.112-1.617 8.4-.008 11.986 1.608 3.585 5.01 6.325 9.639 7.125 5.962 1.04 10.61-2.043 12.431-6.018.912-1.987 1.195-4.197.69-6.285a7.95 7.95 0 0 0-4.03-5.171l-3.15 1.802c-.021.44-.99 1.875-3.138 1.08-1.104-.411-1.465-.914-1.688-1.689s-.152-1.929.328-3.16c.96-2.461 3.466-4.926 6.217-5.4 5.146-.862 7.697-.149 10.474.968 2.093.842 4.626 1.893 7.72 2.668-4.496 7.513-7.339 17.137-10.616 25.715-3.657 9.575-7.853 17.27-14.502 19.307l-.004.002c-3.62 1.116-6.13.714-7.848-.223a6.15 6.15 0 0 1-3.09-4.125c-.351-1.626.008-3.213.885-4.222.878-1.01 2.31-1.723 5.092-1.272l2.49-2.3c-.327-4.003-2.97-7.048-6.296-8.196s-7.318-.548-10.606 1.986l-.002.002-.004.002c-6.353 4.866-7.708 12.846-4.758 19.139 2.95 6.294 10.196 10.918 19.957 9.867 6.51-.695 11.844-3.212 16.29-6.754a7.1 7.1 0 0 0 2.026 3.957c1.672 1.646 4.053 2.748 6.85 3.201l2.455-2.547c.117.586-.21 1.244-.365 1.407-.154.162-.112.079.111-.02.447-.198 1.543-.522 3.211-.804 3.336-.566 9.014-1.055 17.676-1.264h.002c13.663-.342 38.887.81 63.923 1.812-2.506 3.752-4.717 7.966-6.9 11.875-2.24 4.014-4.418 7.71-6.5 10.133-2.078 2.42-3.723 3.337-5.319 3.086-.901-.151-1.185-.436-1.313-.624-.128-.19-.181-.419-.09-.79.182-.743.992-1.73 2.574-1.717l1.421-3.785c-2.374-2.043-5.517-3.039-8.604-2.645s-6.108 2.352-7.703 5.786c-4.195 8.946 4.519 20.218 16.402 17.968 4.685-.882 8.417-4.233 11.663-8.38 3.246-4.15 6.076-9.224 8.801-14.13 2.724-4.908 5.35-9.652 7.96-13.016 1.015-1.308 1.998-2.36 2.952-3.168 11.295.395 22.08.695 31.035.695 18.142 0 29.67-8.264 35.252-15.313v-.002c4.39-5.537 5.02-11.288 2.883-15.397-2.099-4.034-6.78-6.16-11.588-5.123-.034.005-.05-.02-.085-.015l-.038.025c-.047.01-.092-.002-.139.01l-.107.15-1.197.774c-1.152 1.78-3.226 4.843-4.797 6.21-1.005.863-1.218.71-1.574.48-.357-.232-1.018-1.155-1.121-2.865l-.004-.051c-.062-.738-.019-1.498 0-2.255 5.77-2.39 11.782-5.993 14.677-13.552l-.086-1.732c-.752-1.506-1.96-2.27-3.24-3.026s-2.694-1.381-3.965-1.861l-2.814 1.365c-.323 1.022-.694 1.913-1.06 2.82l-.407-2.011-1.207-1.21-2.584-.349c-.976.553-3.594 1.201-6.711 1.35l-1.986 1.628c-.323 1.292-.568 2.926-.848 4.44-.902.381-1.832.568-2.822.838-.022-1.465-.171-2.834-.588-4.02-.695-1.975-2.085-3.566-3.881-4.336-3.64-1.595-7.767-.232-11.326 2.393l-.008.006a27 27 0 0 0-4.338 4.084c-.762.16-1.594.161-2.494.197-.007-.358.056-.696.016-1.058l-.004-.033c-.48-3.774-3.501-6.2-6.553-6.248-.677-.01-1.35.127-2.006.328a2620 2620 0 0 1 4.219-10.602l-.442-2.29zm17.032 25.65c-.055.872.003 1.765.303 2.664.305.916.93 1.761 1.709 2.51-.917 2.593-1.923 4.784-2.868 6.177-1.064 1.57-1.953 1.864-1.781 1.896-.081-.13-.224-.378-.326-.908-.236-1.22-.17-3.303.303-5.523.493-2.318 1.455-4.751 2.66-6.817m13.224 4.677c-.074.838-.192 1.687-.238 2.5a40 40 0 0 0-4.424 3.274c.724-1.689 1.197-3.245 1.631-4.737 1.047-.29 2.068-.61 3.031-1.037m-37.045-4.9a8 8 0 0 0 1.211 1.722c-.588 4.197-2.003 8.557-4.376 12.05-.457.671-.866.953-1.1 1.08-.027-.046-.03.024-.084-.368-.087-.62-.037-1.711.367-3.19.796-2.846 2.51-7.261 3.983-11.294m59.94 12.685c1.18.407 2.008 1.305 2.265 2.52.379 1.784-.4 4.705-5.017 7.814l-.004.002c-5.01 3.389-12.784 6.617-29.732 6.617-13.091 0-36.759-1.585-60.247-3.023-14.676-.899-28.962-1.686-40.994-2.043a9.76 9.76 0 0 0 4.336-1.844l.729 1.078h9.35l2.07-1.562c.378-1.324 1.102-3.29 1.597-4.846.003.238-.107.434-.084.678v.004c.317 3.294 2.706 5.67 5.416 6.412 2.712.742 5.765.18 8.239-1.625l.025-.02c1.429-1.077 2.672-2.446 3.828-3.879.387.89.734 1.806 1.36 2.541 1.805 2.123 4.61 3.348 7.857 3.348 3.823 0 8.642-2.137 13.043-6.176.203.698.257 1.486.597 2.096 1.4 2.51 4.069 4.027 6.95 4.027 4.917 0 8.894-3.052 11.923-6.306l.024-.026c1.741-1.931 3.375-4.36 4.791-6.998-.34 3.187-.1 6.195 1.113 8.654 1.285 2.605 3.936 4.518 7.153 4.518 3.994 0 7.294-1.954 9.898-4.623-.11.418-.318.722-.404 1.168l2.113 2.562h8.405l2.146-2.314c-.022-.287.08-.826.086-1.201 1.354 2.457 3.936 4.566 7.379 4.566 4.118 0 7.22-3.173 9.771-6.302 1.702-2.088 2.985-4.1 4.018-5.817m-72.34-12.819a326 326 0 0 0-2.343 7.203l-.097.053a18.8 18.8 0 0 1-4.957 5.023c-1.75 1.188-3.486 1.736-4.174 1.736-1.177 0-1.669-.309-2.131-.879-.221-.273-.282-.94-.441-1.406 2.77-.828 5.687-2.183 8.35-4.334 2.43-1.964 4.601-4.46 5.793-7.396m64.49 40.285c-.786.253-3.114.357-5.653-.04l-2.269 1.19c-.985 2.033-5.11 8.686-9.134 15.004-.295.04-.582.025-.88.052.177-1.1.232-2.146.098-3.129-.248-1.83-1.18-3.488-2.615-4.488-2.886-2.044-6.672-1.581-10.137.016l-.009.004c-1.823.851-3.445 1.968-4.942 3.204-.768.17-1.479.204-2.32.28.179-1.1.233-2.145.1-3.127-.249-1.83-1.18-3.488-2.616-4.489-2.886-2.044-6.672-1.58-10.136.017l-.01.004c-6.456 3.012-10.951 8.883-12.873 14.463-.961 2.79-1.313 5.542-.67 8.016.645 2.474 2.635 4.642 5.414 5.215 4.587.947 8.714-1.33 11.815-4.239 1.178-1.105 2.128-2.355 3.072-3.588-.642 2.338-.92 4.637-.376 6.723.644 2.474 2.636 4.642 5.415 5.216 4.587.946 8.712-1.331 11.814-4.24.44-.414.741-.904 1.15-1.344-.248.738-.567 1.445-.682 2.224-.2 1.352-.166 2.82.557 4.192.722 1.371 2.195 2.405 3.92 2.76 2.528.523 4.754-.532 6.832-1.876.953 2.06 2.84 3.782 5.439 4.407l.03.008c2.91.654 6.308.145 9.315-1.77 3.79-.727 7.59-3.205 10.839-6.666l.425-2.281c-.416-1.027-1.155-2.21-2.98-2.452l-1.75.556q-.008.005-.015.012c.667-4.026.169-8.188-.852-12.147.88-1.07 2.045-2.402 3.111-4.015.641-.97 1.213-1.956 1.542-3.082s.378-2.732-.665-3.92a4.4 4.4 0 0 0-3.171-1.458c-1.167-.019-2.274.398-3.24 1.078-1.933 1.36-3.405 3.78-4.1 7.147-.137.665-.147 1.21-.186 1.784-2.545 3.2-6.155 7.228-9.179 10.425 5.214-8.13 12.29-18.967 13.776-21.204l.032-2.335-.752-1.2zm-132.611-18.54c.092.176.104.372.215.543.814 1.258 2.309 2.01 3.976 2.344-3.217-.079-6.11-.1-8.86-.09 1.72-.482 3.265-1.474 4.669-2.797m83.773 32.668c-.015.34-.083.666-.04 1.02.094.798.428 1.606.907 2.363-1.152 1.878-2.3 3.444-3.26 4.377a5.3 5.3 0 0 1-1.328.957c-.014-.115-.035-.095-.033-.258.013-.984.41-2.673 1.169-4.406.623-1.421 1.596-2.784 2.585-4.053m19.924 4.11c-.014.342-.083.667-.041 1.021.095.798.431 1.606.91 2.364-1.152 1.877-2.302 3.443-3.262 4.376a5.3 5.3 0 0 1-1.328.957c-.014-.115-.034-.095-.032-.258.012-.984.41-2.672 1.17-4.405.623-1.422 1.595-2.785 2.583-4.054m26.13 8.268c-.149.36-.21.711-.375 1.065-.413.884-.933 1.618-1.417 2.43-.121-.285-.326-.47-.49-.725.726-.878 1.517-1.812 2.283-2.77" style="color:#000;-inkscape-font-specification:&quot;Alameda Script PERSONAL USE&quot;;display:inline;fill:#fff;stroke-linecap:round;stroke-linejoin:bevel;stroke-miterlimit:0;-inkscape-stroke:none;paint-order:markers stroke fill" transform="rotate(-11.658 -594.505 -1978.535)"/><path d="M-273.82 109.65c-1.575.893-4.36 1.47-7.669 1.629-1.1 4.358-7.73 21.496-10.615 30.63-3.1 4.67-8.033 7.714-10.92 7.714-3.414 0-4.99-2.521-5.2-5.83 5.568-.84 14.917-6.724 15.547-14.235.473-5.305-5.725-7.827-13.866-.473-4.53 4.11-7.392 8.642-8.783 12.819-.014.002-.028-.004-.042-.002-1.68 2.626-4.885 7.301-6.986 8.772-1.523 1.103-2.889.472-1.68-2.311 1.418-3.152 1.995-6.724-.578-8.51 3.361-1.628 7.931-4.885 8.93-9.402 1.365-5.936-4.833-6.986-9.35-4.097-2.522 1.628-3.782 2.889-4.833 4.202 3.467-9.14 6.776-17.229 7.826-19.697l-1.208-1.208c-1.523.892-4.937 1.576-9.192 1.733-1.095 6.573-4.652 16.663-10.09 30.6-1.165 1.796-3.275 4.876-5.195 6.588-1.786 1.629-3.256 1.576-2.048-1.838 3.414-9.56 6.828-17.176 8.351-20.958l-1.155-1.208c-1.576.893-4.412 1.47-7.67 1.628a69 69 0 0 1-2.1 6.776c-2.837 7.459-4.623 12.817-7.564 15.18-1.891 1.576-4.097.736-2.994-2.731 1.576-4.99 6.986-12.659 7.354-19.96l-1.734-.63c-1.576.893-2.784 1.208-6.093 1.366-.42 6.88-3.887 12.028-7.196 18.173-3.152 5.83-1.576 11.871 4.097 11.871 2.942 0 5.673-2.258 8.09-5.62-.106 3.047.892 5.62 4.306 5.62 2.797 0 5.67-2.538 8.073-5.468-.613 1.54-1.12 2.85-1.77 4.47h9.35c1.156-4.044 2.89-9.244 4.833-14.654 1.733-.316 3.414-.316 3.992.42.998 1.313-3.52 6.145-3.1 10.452.473 4.938 6.356 6.094 10.243 3.257 2.365-1.782 4.437-4.655 6.138-7.343-.039 5.188 2.803 8.919 8.202 8.919 3.794 0 9.816-2.724 14.627-8.728-.59 5.428 2.065 8.675 5.963 8.675 3.992 0 7.511-2.574 10.348-5.62 3.361-3.73 6.566-9.77 7.984-15.39 1.463-.099 2.877-.411 4.22-.81-5.678 9.66-5.181 21.663 2.45 21.663 8.825 0 14.077-11.608 15.81-18.28 2.632-.537 5.11-1.784 7.217-3.146-.346 2.558-.607 5.17-.703 7.56-4.937 3.098-9.35 5.934-10.715 12.973h8.404c-.157-2.101.105-6.04 2.364-9.298.315 4.518 1.89 10.348 7.249 10.348 5.212 0 10.552-8.606 12.703-12.357 5.779.274 9.134 8.046-.465 14.511-5.357 3.624-13.71 6.986-30.938 6.986-26.525 0-94.547-6.356-119.812-5.148-22.114 1.05-19.487 11.819-9.77 13.395-.262-1.314 5.253-2.837 22.691-3.257 14.607-.365 41.873.935 68.164 1.967-8.598 10.747-14.659 30.581-23.247 29.22-5.407-.89-3.508-7.452 1.53-7.412-3.822-3.289-10.336-3.224-12.954 2.418-3.405 7.252 3.599 16.924 14.053 14.945 13.46-2.532 20.872-31.128 31.066-38.767 11.564.411 22.623.728 31.746.728 17.491 0 28.364-7.932 33.564-14.497 8.037-10.138 1.313-19.015-6.776-17.071-1.155 1.786-3.204 4.937-5.2 6.67-2.994 2.574-5.988.473-6.25-3.887a23.4 23.4 0 0 1 0-3.834c5.988-2.311 11.976-5.515 14.812-12.921-.735-1.47-3.677-2.942-6.04-3.835-1.944 6.146-4.728 10.506-8.405 13.395.735-4.885 2.311-9.14 3.362-11.714l-1.208-1.208c-1.576.893-4.36 1.47-7.669 1.628-.401 1.605-.764 3.505-1.096 5.477-2.057.988-4.517 1.818-6.94 2.087.683-5.095-.579-8.142-3.047-9.192-2.627-1.156-5.988-.21-9.192 2.154-1.686 1.255-3.158 2.742-4.451 4.35-1.744.472-3.815.63-5.845.43.106-1.05.159-2.102.053-3.047-.735-5.778-8.036-5.778-9.297-.263-.578 2.522.263 4.99 2.259 6.46-.525 4.78-2.154 9.823-4.938 13.92-2.679 3.94-6.513 2.47-4.675-4.254 2.732-9.77 10.926-29.678 12.45-33.46zm23.153 17.47c.862.115 1.404.927 1.535 2.438-1.838.367-3.257 1.628-3.782 3.204-.578 1.786-.105 4.465 2.258 5.515-2.153 6.881-5.147 11.03-7.3 11.03-5.043 0-2.206-17.123 5.41-21.64.729-.433 1.361-.616 1.879-.547m-110.662-16.472a10 10 0 0 0-1.102.21c-8.037 1.208-14.025-4.254-23.952-3.676-27.156 1.576-32.619 28.784-16.493 31.568 10.242 1.786 14.129-10.085 7.72-13.447-.104 2.154-2.783 4.202-6.04 2.994-6.618-2.469-2.1-13.131 5.253-14.392 10.978-1.839 12.764 3.31 21.851 4.36-10.295 14.497-12.186 43.702-27.786 48.481-16.179 4.99-18.542-16.178-5.253-14.024-.525-6.408-7.932-8.93-13.447-4.675-11.188 8.562-4.36 27.104 13.657 25.16 29.52-3.151 32.25-43.754 46.696-60.773-.526-.473-.893-1.103-1.104-1.786m60.851 18.366c2.188.32-1.949 10.845-7.694 12.362.473-4.412 2.89-9.402 6.356-11.818.584-.427 1.026-.59 1.338-.544m-24.189 1.643q.174.054.317.161c1.576 1.103-.84 7.406-8.3 7.564 2.315-4.727 6.246-8.254 7.983-7.725m98.364 45.134c-1.461.47-3.914.464-6.645.038-1.197 2.473-5.712 9.807-9.773 16.145-1.592.294-3.335.419-4.977.266 1.44-4.112.915-6.857-.954-8.152-1.982-1.408-4.934-1.2-7.999.214-1.854.865-3.523 2.033-5.023 3.358-1.832.435-3.966.654-5.948.47 1.439-4.113.915-6.858-.955-8.153-1.982-1.409-4.934-1.2-7.998.214-11.619 5.42-16.844 21.934-8.604 23.634 7.325 1.511 13.672-7.225 16.254-12.465 1.461.002 2.936-.244 4.33-.623-5.504 6.936-6.64 15.965-.66 17.199 7.325 1.511 13.673-7.225 16.254-12.465 1.507.003 3.03-.257 4.461-.655-1.665 2.556-3.15 4.782-4.074 6.053-2.246 3.173-4.896 9.626.118 10.66 2.394.495 5.311-1.24 7.858-3.35-.12 2.593 1.334 5.14 4.48 5.897 2.433.547 5.43.12 8.025-1.662 3.19-.479 6.941-2.796 10.087-6.147-.18-.446-.648-1.043-1.268-1.125-1.8 1.674-3.597 2.894-5.4 3.477 3.089-5.272 2.446-11.632.746-17.71 1.786-2.268 6.347-7.19 4.691-9.078s-5.56-.147-6.784 5.783c-.18.872-.246 1.63-.24 2.268-3.142 3.988-8.391 10.042-11.755 13.348-.314.242-.59.513-.847.795-.978.854-2.04 1.67-3.004 2.228-1.805 1.037-3.017.741-1.43-1.886 4.472-7.35 15.874-24.498 17.786-27.376zm-44.072 6.025c.696.243 1.006 1.01.857 2.285-1.59-.01-2.983.794-3.688 2.012-.786 1.384-.852 3.688.93 4.965-2.966 5.342-6.162 8.274-7.95 7.905-4.185-.863 1.102-14.59 8.197-17.036.68-.235 1.236-.277 1.654-.131m19.924 4.11c.697.244 1.007 1.01.857 2.286-1.589-.01-2.982.794-3.688 2.012-.785 1.384-.852 3.688.93 4.965-2.966 5.342-6.161 8.274-7.949 7.905-4.185-.863 1.102-14.59 8.197-17.036.68-.235 1.236-.277 1.653-.131m24.59 6.228c.778 5.48-4.25 15.306-8.074 18.199-2.158 1.645-3.84-.11-2.873-1.275 1.578.28 3.12-.356 3.543-2.633.29-1.622-.463-2.822-1.568-3.414 2.63-3.049 5.851-7.43 8.971-10.877" style="display:inline;color:#000;-inkscape-font-specification:&quot;Alameda Script PERSONAL USE&quot;;fill:#e03a3e;fill-opacity:1;stroke-linecap:round;stroke-linejoin:bevel;stroke-miterlimit:0;-inkscape-stroke:none;paint-order:markers stroke fill" transform="rotate(-11.658 -594.505 -1978.535)"/></svg>