<?xml version="1.0" encoding="UTF-8" standalone="no"?>
<svg
   width="115.87355mm"
   height="47.657543mm"
   viewBox="0 0 115.87355 47.657543"
   version="1.1"
   id="svg539"
   inkscape:version="1.2 (dc2aedaf03, 2022-05-15)"
   sodipodi:docname="cut.svg"
   xmlns:inkscape="http://www.inkscape.org/namespaces/inkscape"
   xmlns:sodipodi="http://sodipodi.sourceforge.net/DTD/sodipodi-0.dtd"
   xmlns="http://www.w3.org/2000/svg"
   xmlns:svg="http://www.w3.org/2000/svg">
  <sodipodi:namedview
     id="namedview541"
     pagecolor="#ffffff"
     bordercolor="#000000"
     borderopacity="0.25"
     inkscape:showpageshadow="2"
     inkscape:pageopacity="0.0"
     inkscape:pagecheckerboard="0"
     inkscape:deskcolor="#d1d1d1"
     inkscape:document-units="mm"
     showgrid="false"
     inkscape:zoom="0.76880612"
     inkscape:cx="107.30924"
     inkscape:cy="342.08885"
     inkscape:window-width="1920"
     inkscape:window-height="1017"
     inkscape:window-x="-8"
     inkscape:window-y="406"
     inkscape:window-maximized="1"
     inkscape:current-layer="layer1" />
  <defs
     id="defs536" />
  <g
     inkscape:label="Layer 1"
     inkscape:groupmode="layer"
     id="layer1"
     transform="translate(-16.055111,-57.734377)">
    <path
       id="rect507-6-6-3-1-8-8"
       style="font-size:7.80635px;font-family:'The Bold Font';-inkscape-font-specification:'The Bold Font';text-align:center;text-anchor:middle;fill:#000;stroke-width:0.856189;stroke-linecap:square;stroke-miterlimit:0;paint-order:markers fill stroke"
       d="M 22.620085,57.734377 V 74.188666 L 16.055111,74.026907 V 105.39192 L 131.92866,95.618353 V 76.880995 l -3.63957,-0.08991 V 68.93058 l 1.20817,0.08373 v -2.424143 l -3.9155,-0.326068 v 2.478398 l 1.23715,0.08581 v 7.926648 l -1.73635,-0.0428 V 66.266799 l -1.526,-0.127133 v 4.245222 l -1.95079,-0.116283 v -4.290694 l -1.5844,-0.131758 v 10.741463 l -0.59893,-0.01426 v -5.907132 l -3.06854,-0.173646 v 2.592087 l 1.43609,0.06151 v 0.563272 c -0.18761,0.205765 -0.39251,0.348287 -0.6134,0.431501 -0.22142,0.08347 -0.44638,0.110361 -0.67541,0.08166 -0.22302,-0.0389 -0.44399,-0.134179 -0.66146,-0.285779 -0.21139,-0.161845 -0.4022,-0.379541 -0.57465,-0.65371 -0.19271,-0.306356 -0.33925,-0.651963 -0.43924,-1.03766 -0.10012,-0.386111 -0.15091,-0.775573 -0.15091,-1.167373 0,-0.391861 0.0507,-0.775863 0.15091,-1.15135 0.10007,-0.375088 0.24653,-0.704679 0.43924,-0.990636 0.19232,-0.285347 0.4105,-0.49266 0.65475,-0.619603 0.24363,-0.136989 0.49008,-0.195563 0.73897,-0.178272 0.24821,0.01729 0.49234,0.109497 0.73277,0.278518 0.23983,0.158387 0.45265,0.392077 0.63975,0.698148 l 1.1529,-1.73736 c -0.34439,-0.570159 -0.73519,-1.010491 -1.17253,-1.318784 -0.43942,-0.309728 -0.88963,-0.484412 -1.35289,-0.522967 -0.46556,-0.0389 -0.92435,0.06134 -1.3746,0.301774 -0.45242,0.241515 -0.86079,0.628521 -1.22318,1.159105 -0.36376,0.532615 -0.63614,1.146719 -0.81907,1.840713 -0.1765,0.695757 -0.26563,1.412108 -0.26563,2.150774 0,0.738639 0.0892,1.466783 0.26563,2.181262 0.18294,0.703024 0.4553,1.339209 0.81907,1.910475 0.36238,0.569043 0.77076,0.998724 1.22318,1.288295 0.064,0.04107 0.12848,0.07262 0.19276,0.108026 l -4.78782,-0.117839 c 0.0328,-0.01859 0.067,-0.03415 0.0997,-0.05529 0.35416,-0.232739 0.65934,-0.545 0.91467,-0.935858 0.26153,-0.389569 0.46327,-0.84814 0.60719,-1.375628 0.15052,-0.526399 0.22232,-1.087904 0.21549,-1.682581 V 65.208855 L 110.779,65.063653 v 7.18251 c 0,0.242033 -0.0272,0.46521 -0.0832,0.673344 -0.0556,0.208228 -0.13617,0.388705 -0.24082,0.542601 -0.10487,0.154107 -0.22686,0.278776 -0.36692,0.368431 -0.14023,0.08991 -0.28915,0.130246 -0.4439,0.12454 -0.31734,-0.01167 -0.59176,-0.18614 -0.82579,-0.524515 -0.2346,-0.360477 -0.35244,-0.774298 -0.35244,-1.242819 v -7.316348 l -1.8247,-0.151946 v 7.400582 c 0.007,0.613019 0.0881,1.190397 0.24031,1.733227 0.15921,0.542211 0.38317,1.031028 0.67128,1.468127 0.28011,0.414253 0.5987,0.739751 0.95549,0.97255 0.007,0.0048 0.013,0.0069 0.0203,0.01124 l -5.24722,-0.129208 c 0.10811,-0.04963 0.21497,-0.102623 0.31988,-0.166384 0.50025,-0.302984 0.93476,-0.715577 1.30483,-1.236102 0.36874,-0.529425 0.65918,-1.151267 0.87178,-1.86655 0.21212,-0.713779 0.31885,-1.479907 0.31885,-2.299085 0,-0.819169 -0.1066,-1.596869 -0.31885,-2.333191 -0.21263,-0.737853 -0.50306,-1.385796 -0.87178,-1.943552 -0.37007,-0.570643 -0.80458,-1.033951 -1.30483,-1.390097 -0.50275,-0.357884 -1.04206,-0.560312 -1.6185,-0.60823 -0.57976,-0.0482 -1.12871,0.06558 -1.64538,0.344699 -0.519293,0.280593 -0.974798,0.684151 -1.365808,1.212331 -0.384641,0.51963 -0.691875,1.147779 -0.920875,1.883604 -0.22954,0.737516 -0.343662,1.534565 -0.343662,2.388484 0,0.853924 0.114165,1.663271 0.343662,2.425176 0.228978,0.760184 0.536242,1.42563 0.920875,1.997293 0.390997,0.558604 0.846515,1.005767 1.365808,1.341522 0.10829,0.07003 0.21808,0.129597 0.32918,0.185534 l -3.37654,-0.08321 V 63.958658 L 95.250401,63.78968 v 4.910811 L 92.635056,68.544957 V 63.572136 L 90.503407,63.39542 v 12.465907 l -2.526978,-0.06255 v -9.66556 l 1.824174,0.126615 V 63.283785 L 83.866601,62.78976 v 3.058209 l 1.881023,0.130721 v 9.765295 l -5.09685,-0.125577 v -13.04158 l -2.381767,-0.197941 v 7.911147 L 74.811337,62.13084 72.076105,61.90398 V 75.40755 L 70.56302,75.370374 V 61.721078 L 67.957493,61.50455 v 13.801225 l -6.122104,-0.15039 V 64.319356 l 2.292363,0.159165 v -3.333126 l -7.467244,-0.621669 v 3.436484 l 2.372469,0.164353 v 10.961601 l -5.204851,-0.128171 c 0.605437,-0.379843 1.095944,-0.889388 1.457273,-1.543573 0.437431,-0.770831 0.655257,-1.626601 0.655257,-2.572453 0,-0.959366 -0.217869,-1.84233 -0.655257,-2.649451 -0.427438,-0.809339 -1.024402,-1.441841 -1.794205,-1.895492 -0.210865,-0.1216 -0.423114,-0.22967 -0.634585,-0.324512 -0.199972,-0.09424 -0.400852,-0.181082 -0.601516,-0.262004 -0.224742,-0.09614 -0.436498,-0.189727 -0.638204,-0.284742 -0.201961,-0.108848 -0.389181,-0.225866 -0.556036,-0.346731 -0.17918,-0.14918 -0.296328,-0.343446 -0.356069,-0.581878 -0.0597,-0.252451 -0.0415,-0.485925 0.05425,-0.700214 0.07171,-0.160678 0.165346,-0.271299 0.284742,-0.331774 0.119265,-0.07465 0.23343,-0.115073 0.340549,-0.120909 0.11892,-0.02032 0.220246,-0.01297 0.30333,0.02118 0.09506,0.02075 0.154454,0.03069 0.178272,0.03199 0.130203,0.05032 0.277394,0.144511 0.442866,0.279555 0.177104,0.135649 0.264079,0.359916 0.264079,0.674896 l 2.954342,0.196903 c 0,-0.500735 -0.07064,-0.983841 -0.208791,-1.454174 -0.138502,-0.470838 -0.339988,-0.899858 -0.606163,-1.286743 -0.255132,-0.400333 -0.564751,-0.745547 -0.926041,-1.033527 -0.362337,-0.302422 -0.766323,-0.53252 -1.213364,-0.692982 -0.345218,-0.131716 -0.686399,-0.215275 -1.02681,-0.246486 v -10e-4 c -0.113689,-0.01038 -0.226946,-0.0134 -0.340031,-0.01167 -0.453517,0.0031 -0.879886,0.09078 -1.276407,0.265117 -0.397783,0.161067 -0.758926,0.400982 -1.086239,0.721919 -0.328143,0.321788 -0.604534,0.710636 -0.82424,1.167888 -0.232393,0.498958 -0.371155,1.033839 -0.420132,1.603003 -0.03674,0.556231 0.0052,1.104408 0.12869,1.642794 0.134525,0.538507 0.348071,1.046906 0.640788,1.523421 0.292091,0.475442 0.649288,0.876584 1.0728,1.204061 0.325766,0.252191 0.651535,0.455855 0.975654,0.6103 0.323258,0.153978 0.632813,0.292566 0.930692,0.41702 0.166471,0.0766 0.322178,0.147147 0.464571,0.20879 0.154021,0.06238 0.295808,0.128733 0.425794,0.203604 0.165304,0.103617 0.294339,0.219641 0.388619,0.347249 0.106038,0.114468 0.182984,0.234339 0.229973,0.359657 0.05888,0.12549 0.09475,0.243416 0.10647,0.353474 0.0121,0.110058 0.01686,0.199454 0.01686,0.267667 0,0.06826 -0.0048,0.157869 -0.01686,0.26663 -0.0121,0.109107 -0.04759,0.220765 -0.10647,0.341587 -0.04721,0.107464 -0.124237,0.220721 -0.229973,0.34003 -0.09415,0.119785 -0.223315,0.219814 -0.388619,0.296112 -0.236543,0.114424 -0.479272,0.159424 -0.728636,0.137464 -0.249814,-0.02291 -0.483729,-0.121168 -0.698667,-0.294555 -0.119568,-0.08723 -0.255606,-0.242206 -0.411356,-0.469226 -0.155967,-0.240909 -0.23408,-0.570167 -0.23408,-0.984952 l -3.084051,-0.130721 c 0,0.923642 0.185232,1.785105 0.553456,2.580204 0.367048,0.778868 0.880379,1.419341 1.535822,1.922877 0.06186,0.04699 0.127263,0.08027 0.19016,0.123502 L 41.9523,74.664696 c 0.184324,-0.06372 0.366486,-0.132277 0.545186,-0.214453 0.851408,-0.390089 1.589732,-0.922557 2.217954,-1.596286 0.625162,-0.684565 1.116529,-1.489616 1.476397,-2.416906 0.358835,-0.924736 0.539502,-1.919258 0.539502,-2.984316 0,-1.065058 -0.18052,-2.078795 -0.539502,-3.041675 -0.359872,-0.965508 -0.851235,-1.816981 -1.476397,-2.553848 -0.628222,-0.754539 -1.366546,-1.371552 -2.217954,-1.852082 -0.857011,-0.483638 -1.778318,-0.76605 -2.764169,-0.848011 -0.993269,-0.08257 -1.931868,0.04811 -2.819985,0.396876 -0.894092,0.35114 -1.6824,0.866408 -2.357477,1.548224 -0.664906,0.671576 -1.193981,1.489539 -1.590601,2.451528 -0.39774,0.964886 -0.598931,2.011174 -0.598931,3.135726 0,1.124556 0.200966,2.19213 0.598931,3.199288 0.396659,1.00418 0.925695,1.884291 1.590601,2.641182 0.675077,0.738933 1.463385,1.332037 2.357477,1.778188 0.186269,0.09294 0.375607,0.172004 0.566376,0.246485 L 31.972549,74.418669 V 71.091227 L 26.311916,70.882436 V 58.04136 Z m 16.914212,5.061706 c 0.06588,9.21e-4 0.132105,0.0036 0.198978,0.0082 0.532776,0.03674 1.032322,0.187523 1.49655,0.448554 0.462625,0.245967 0.864917,0.571322 1.209742,0.978749 0.343921,0.406386 0.613278,0.870169 0.803572,1.393197 0.202695,0.523005 0.301774,1.076582 0.301774,1.6583 0,0.5817 -0.09921,1.12118 -0.301774,1.622637 -0.190376,0.502805 -0.459612,0.940686 -0.803572,1.310514 -0.344829,0.370809 -0.747117,0.660336 -1.209742,0.871267 -0.464198,0.197465 -0.963792,0.288373 -1.49655,0.268705 -0.534928,-0.01989 -1.03775,-0.149007 -1.511018,-0.383951 -0.474966,-0.250246 -0.893676,-0.57679 -1.252122,-0.983919 -0.35944,-0.408244 -0.644441,-0.882022 -0.858346,-1.416967 -0.20101,-0.535153 -0.30333,-1.100664 -0.30333,-1.699639 0,-0.598987 0.102407,-1.157422 0.30333,-1.671212 0.213935,-0.512207 0.498919,-0.951809 0.858346,-1.321883 0.358446,-0.36908 0.777164,-0.64519 1.252122,-0.830443 0.414123,-0.174165 0.851028,-0.258632 1.312062,-0.252191 z m 62.332113,4.320149 c 0.0385,-1.17e-4 0.0772,9.07e-4 0.11628,0.0036 0.31137,0.02161 0.60358,0.130462 0.8754,0.324512 0.27108,0.182681 0.50716,0.427307 0.70951,0.735358 0.20196,0.30748 0.35841,0.659394 0.47026,1.058331 0.11918,0.398908 0.17931,0.822515 0.17931,1.268657 0,0.446134 -0.0601,0.861221 -0.17931,1.247471 -0.11187,0.387063 -0.26831,0.724776 -0.47026,1.010789 -0.20239,0.286601 -0.43841,0.510729 -0.70951,0.67541 -0.27182,0.154237 -0.56402,0.227552 -0.8754,0.21601 -0.31236,-0.01167 -0.60574,-0.107032 -0.8816,-0.283186 -0.27662,-0.187652 -0.52019,-0.433749 -0.72864,-0.741557 -0.20887,-0.308475 -0.37448,-0.666989 -0.498674,-1.072804 -0.116629,-0.405954 -0.176197,-0.835699 -0.176197,-1.291909 0,-0.456232 0.05965,-0.882874 0.176197,-1.276408 0.124194,-0.392596 0.289804,-0.730716 0.498674,-1.016992 0.20845,-0.285694 0.45203,-0.501362 0.72864,-0.64854 0.24134,-0.138113 0.49617,-0.207969 0.76533,-0.208791 z m -27.276888,0.690397 3.323313,7.743197 -3.323313,-0.08166 z m 18.045409,3.657141 2.615344,0.119871 v 4.393532 l -2.615344,-0.06458 z m 28.970839,1.323949 1.95079,0.0894 v 3.797187 l -1.95079,-0.04807 z m -10.50892,7.919931 c 0.20153,4.28e-4 0.40237,0.03545 0.60307,0.103358 0.20027,0.05663 0.39756,0.152248 0.58963,0.287335 0.48581,0.336616 0.86304,0.827408 1.13326,1.474846 0.2767,0.645526 0.41546,1.358886 0.41546,2.139923 0,0.792208 -0.13867,1.516474 -0.41546,2.172475 -0.27022,0.65769 -0.64745,1.162644 -1.13326,1.51774 -0.13297,0.09523 -0.26564,0.179439 -0.39895,0.252191 -0.1261,0.0728 -0.25345,0.141139 -0.37985,0.202566 -0.14148,0.0737 -0.27562,0.146067 -0.40258,0.219123 -0.12713,0.08468 -0.24285,0.175289 -0.34777,0.27026 -0.11261,0.118185 -0.18821,0.274584 -0.22582,0.469222 -0.0376,0.206111 -0.0251,0.397437 0.035,0.576193 0.045,0.134136 0.10427,0.229195 0.17931,0.282149 0.0749,0.06406 0.14655,0.09929 0.21394,0.107464 0.0747,0.01902 0.13785,0.01556 0.19016,-0.0099 0.0597,-0.01383 0.0972,-0.02248 0.11213,-0.02291 0.0821,-0.03804 0.17594,-0.109583 0.28008,-0.216528 0.11152,-0.106946 0.16638,-0.290319 0.16638,-0.549838 l 1.86397,-0.08576 c 0,0.413389 -0.0428,0.811241 -0.1302,1.195792 -0.0876,0.384944 -0.21679,0.734511 -0.38499,1.046448 -0.1612,0.323258 -0.35542,0.596861 -0.58343,0.824239 -0.22859,0.239094 -0.48363,0.419916 -0.76533,0.539502 -0.21744,0.09865 -0.43383,0.155966 -0.64802,0.17209 -0.0715,0.0052 -0.14226,0.0052 -0.21342,0.001 -0.28508,-0.01556 -0.55153,-0.100505 -0.80046,-0.255304 -0.24956,-0.143733 -0.4775,-0.350837 -0.68265,-0.623735 -0.20559,-0.273503 -0.37716,-0.600846 -0.51469,-0.982367 -0.14542,-0.415982 -0.23391,-0.859505 -0.2646,-1.328087 -0.0229,-0.457606 0.004,-0.90626 0.0817,-1.345135 0.0843,-0.438819 0.21773,-0.849839 0.40102,-1.234036 0.18294,-0.383474 0.40729,-0.705211 0.67283,-0.96428 0.20438,-0.19954 0.40781,-0.359051 0.61133,-0.478524 0.20309,-0.119007 0.3977,-0.226255 0.58498,-0.321962 0.10474,-0.05931 0.20291,-0.112738 0.29248,-0.160202 0.097,-0.04794 0.18523,-0.100246 0.26715,-0.158647 0.10414,-0.08148 0.18713,-0.172954 0.24648,-0.275967 0.0667,-0.09169 0.11503,-0.190289 0.14469,-0.29248 0.0372,-0.102363 0.0582,-0.198156 0.0656,-0.288373 0.007,-0.09043 0.0108,-0.163272 0.0108,-0.219641 0,-0.05628 -0.004,-0.129122 -0.0108,-0.219122 -0.007,-0.08996 -0.0285,-0.184929 -0.0656,-0.28578 -0.0294,-0.08965 -0.0779,-0.186225 -0.14469,-0.286817 -0.0593,-0.100807 -0.14243,-0.182811 -0.24648,-0.249079 -0.14892,-0.0999 -0.30048,-0.144986 -0.45734,-0.13124 -0.15709,0.01254 -0.30419,0.09091 -0.43925,0.228935 -0.0751,0.06908 -0.16158,0.195001 -0.25941,0.378287 -0.098,0.194915 -0.14676,0.461411 -0.14676,0.802535 l -1.93166,0.03804 c 0,-0.757997 0.1165,-1.459863 0.34673,-2.10478 0.22967,-0.631961 0.54992,-1.148064 0.96067,-1.548743 0.23503,-0.228114 0.48095,-0.391861 0.73742,-0.494026 0.2633,-0.1133 0.52516,-0.16954 0.78703,-0.168978 z m -88.476765,0.160202 3.972367,0.0036 v 17.946711 l -3.972367,0.253748 z m 10.096541,0.0086 3.694348,0.0031 V 87.5934 l 4.600754,-0.111614 v 3.910357 l -4.600754,0.179828 v 2.616377 l 5.785176,-0.282667 v 3.895884 l -9.479524,0.604616 z m 30.099972,0.0268 h 0.05425 c 0.663799,0.01383 1.282507,0.177494 1.8588,0.486275 0.584973,0.321443 1.088655,0.744908 1.50947,1.273308 0.43068,0.526455 0.76379,1.144135 1.000454,1.850016 0.247393,0.704286 0.364671,1.451243 0.353474,2.24224 v 9.445417 l -2.880962,0.183978 v -9.582359 c 0,-0.322999 -0.04578,-0.62581 -0.137983,-0.904855 -0.09208,-0.279295 -0.224785,-0.521648 -0.397913,-0.72967 -0.173474,-0.208142 -0.375175,-0.375175 -0.607201,-0.498681 -0.232436,-0.123848 -0.477629,-0.183935 -0.734321,-0.180347 -0.526827,0.0073 -0.985842,0.237062 -1.37511,0.684198 -0.39052,0.476994 -0.584462,1.029507 -0.584462,1.657263 v 9.799402 l -3.048393,0.194828 v -9.944613 c 0.01167,-0.823677 0.145505,-1.601002 0.400507,-2.326469 0.266629,-0.724098 0.643196,-1.375032 1.124997,-1.95337 0.467916,-0.547382 0.998997,-0.971508 1.5937,-1.272275 0.591808,-0.285088 1.214674,-0.424844 1.870688,-0.424282 z m 6.465238,0.0052 2.770373,0.0026 v 8.736934 l 3.825608,-8.73383 2.833935,0.0026 v 14.556217 l -2.614311,0.166903 v -8.608063 l -3.801838,8.808766 -3.013767,0.191197 z m -19.332152,0.0031 c 0.981416,7.87e-4 1.899576,0.21722 2.752286,0.644921 0.846955,0.424758 1.581393,0.994722 2.206066,1.70739 0.621553,0.723704 1.111502,1.568516 1.469161,2.536795 0.35663,0.96549 0.533303,1.997012 0.533303,3.099034 0,1.102035 -0.176716,2.147752 -0.533303,3.135726 -0.357668,0.9908 -0.847608,1.85934 -1.469161,2.607593 -0.624673,0.766668 -1.359111,1.390477 -2.206066,1.868621 -0.85271,0.481408 -1.77087,0.752801 -2.752286,0.815456 -0.989063,0.06316 -1.925341,-0.09303 -2.810164,-0.474392 -0.890979,-0.38408 -1.673615,-0.938318 -2.346626,-1.660362 -0.662974,-0.711255 -1.193479,-1.56913 -1.589054,-2.575553 -0.396789,-1.009527 -0.59686,-2.100093 -0.59686,-3.26595 0,-1.165856 0.200015,-2.266028 0.59686,-3.300575 0.395579,-1.031401 0.92608,-1.930805 1.589054,-2.69906 0.673011,-0.74923 1.455647,-1.344651 2.346626,-1.784906 0.884823,-0.437207 1.821101,-0.655533 2.810164,-0.654738 z m 29.826084,0.0069 2.531629,0.0021 c 0.737796,0.05231 1.416224,0.264079 2.038117,0.637689 0.618371,0.384339 1.153299,0.8904 1.603003,1.514632 0.45736,0.62154 0.812062,1.337177 1.067634,2.148193 0.255002,0.821815 0.382394,1.701632 0.382394,2.642215 0,0.953283 -0.130289,1.854862 -0.3948,2.705777 -0.25565,0.852549 -0.612803,1.611709 -1.070219,2.274799 -0.44976,0.665329 -0.987766,1.21636 -1.61592,1.653126 -0.622053,0.438733 -1.292025,0.706797 -2.010214,0.804605 v 0.02032 l -2.531629,0.162277 z m 9.861412,0.0082 2.326474,0.0021 0.271298,5.815666 1.448489,-5.814118 2.228805,0.0021 1.32085,5.459096 0.231528,-5.457548 2.149741,0.0016 -0.541572,13.25552 -2.225701,0.14209 -2.048972,-8.338511 -2.145604,8.606195 -2.366265,0.150909 z m 12.03286,0.01081 2.23087,0.0021 3.56619,12.802319 -2.15336,0.138502 -1.5446,-5.521625 -1.84123,5.739182 -2.326997,0.149353 3.111437,-9.624217 z m 12.81834,0.01124 4.96093,0.0041 v 2.743501 l -3.15019,0.04444 v 1.91771 l 2.56418,-0.06199 v 2.751771 l -2.56418,0.100245 v 1.835033 l 3.15019,-0.153977 v 2.746082 l -4.96093,0.299224 z m 5.84977,0.0052 4.33513,0.0036 v 2.66599 l -2.63394,0.03674 v 9.064048 l -1.70119,0.109021 z m 4.99969,0.0041 1.61023,0.0015 v 4.441074 l 2.02523,-0.04911 v 2.601395 l -2.02523,0.07958 v 1.730647 l 2.54919,-0.12454 v 2.59622 l -4.15942,0.265117 z m -43.030443,3.278352 v 7.76645 c 0.384253,-0.07059 0.737329,-0.230361 1.060402,-0.479039 0.322134,-0.235073 0.604196,-0.538511 0.846977,-0.910539 0.242249,-0.358316 0.432192,-0.771242 0.567405,-1.23972 0.135087,-0.455038 0.202566,-0.934349 0.202566,-1.435568 0,-0.488389 -0.06748,-0.948611 -0.202566,-1.382346 -0.13526,-0.434311 -0.325117,-0.817488 -0.567405,-1.147731 C 83.981691,85.08966 83.699672,84.825512 83.367799,84.611006 83.044713,84.408613 82.691654,84.28282 82.307397,84.23635 Z m -32.357713,0.455787 c -0.532598,0.0073 -1.034465,0.127868 -1.505853,0.359656 -0.473081,0.247782 -0.888264,0.576396 -1.2454,0.989603 -0.358143,0.414383 -0.642578,0.895673 -0.855761,1.444871 -0.200275,0.54969 -0.301255,1.135778 -0.301255,1.756484 0,0.620657 0.10111,1.199742 0.301255,1.736845 0.213243,0.535758 0.497601,0.999373 0.855761,1.39113 0.357149,0.390693 0.772293,0.688028 1.2454,0.890901 0.471388,0.217177 0.973242,0.314396 1.505853,0.28833 0.530428,-0.02594 1.026727,-0.17075 1.488799,-0.430464 0.460407,-0.243935 0.861489,-0.573664 1.204576,-0.987537 0.342192,-0.412696 0.608579,-0.887205 0.797883,-1.424203 0.201658,-0.536601 0.303849,-1.105774 0.303849,-1.707904 0,-0.602178 -0.102364,-1.164854 -0.303849,-1.688785 -0.189381,-0.525089 -0.455713,-0.982916 -0.797883,-1.374076 -0.343057,-0.392207 -0.744169,-0.701585 -1.204576,-0.931211 -0.462093,-0.215708 -0.958388,-0.32114 -1.488799,-0.313662 z" />
  </g>
</svg>
