<svg xmlns="http://www.w3.org/2000/svg" width="437.947" height="180.123" viewBox="0 0 115.874 47.658"><path d="M22.62 57.734V74.19l-6.565-.162v31.365l115.874-9.774V76.881l-3.64-.09v-7.86l1.208.083V66.59l-3.915-.326v2.478l1.237.086v7.927l-1.736-.043V66.267l-1.526-.127v4.245l-1.951-.116v-4.291l-1.585-.132v10.742l-.599-.015v-5.907l-3.068-.173v2.592l1.436.061v.563a1.6 1.6 0 0 1-.613.432q-.333.124-.676.082a1.66 1.66 0 0 1-.661-.286 2.5 2.5 0 0 1-.575-.654 3.7 3.7 0 0 1-.44-1.038q-.15-.579-.15-1.167t.15-1.151q.15-.563.44-.99.288-.43.655-.62.365-.205.739-.179.372.026.733.279.359.238.64.698l1.152-1.737q-.516-.856-1.172-1.32-.66-.464-1.353-.522a2.44 2.44 0 0 0-1.375.302q-.678.362-1.223 1.159a5.9 5.9 0 0 0-.82 1.84 8.7 8.7 0 0 0-.265 2.151q.001 1.11.266 2.181.274 1.055.819 1.91.543.855 1.223 1.29c.064.04.129.072.193.107l-4.788-.118q.05-.025.1-.055.532-.35.915-.936a4.6 4.6 0 0 0 .607-1.375 5.9 5.9 0 0 0 .215-1.683v-7.1l-1.747-.145v7.182q0 .362-.083.674a1.8 1.8 0 0 1-.241.542 1.3 1.3 0 0 1-.367.369q-.211.134-.444.124-.475-.018-.826-.524a2.23 2.23 0 0 1-.352-1.243V64.87l-1.825-.152v7.401q.011.919.24 1.733.24.813.672 1.468.42.623.955.973.01.006.02.011l-5.247-.129q.162-.073.32-.166.75-.455 1.305-1.237a6.5 6.5 0 0 0 .872-1.866q.319-1.07.319-2.3 0-1.228-.32-2.332a7 7 0 0 0-.87-1.944 5.1 5.1 0 0 0-1.306-1.39 3.2 3.2 0 0 0-1.618-.608 2.9 2.9 0 0 0-1.646.344 4.2 4.2 0 0 0-1.365 1.213q-.578.78-.921 1.883a8 8 0 0 0-.344 2.389q0 1.281.344 2.425.344 1.14.92 1.997a5 5 0 0 0 1.366 1.342q.163.104.33.185l-3.377-.083v-12.07l-2.04-.168v4.91l-2.615-.155v-4.973l-2.132-.177v12.466l-2.527-.062v-9.666l1.825.127v-2.976l-5.934-.494v3.058l1.88.13v9.766l-5.096-.126V62.577l-2.382-.198v7.911l-3.458-8.16-2.735-.226v13.504l-1.513-.038V61.721l-2.606-.216v13.8l-6.122-.15V64.32l2.293.16v-3.334l-7.467-.621v3.436l2.372.165v10.961l-5.205-.128a4.2 4.2 0 0 0 1.457-1.544q.657-1.154.656-2.572a5.5 5.5 0 0 0-.656-2.65 4.7 4.7 0 0 0-1.794-1.895 7 7 0 0 0-.634-.324q-.3-.142-.602-.262-.336-.144-.638-.285a5 5 0 0 1-.556-.347 1.07 1.07 0 0 1-.356-.582 1.07 1.07 0 0 1 .054-.7q.107-.24.285-.332a.7.7 0 0 1 .34-.12.55.55 0 0 1 .304.02q.142.031.178.032.195.076.443.28.265.203.264.675l2.954.197q0-.75-.209-1.454-.207-.706-.606-1.287a4.2 4.2 0 0 0-.926-1.034 4 4 0 0 0-1.213-.693 3.9 3.9 0 0 0-1.027-.246v-.001a3 3 0 0 0-.34-.012q-.681.004-1.276.265a3.3 3.3 0 0 0-1.087.722q-.493.482-.824 1.168a4.7 4.7 0 0 0-.42 1.603 5.7 5.7 0 0 0 .129 1.643q.201.808.64 1.523t1.073 1.204q.49.38.976.61.485.232.93.418.251.115.465.209.231.092.426.203.247.156.389.347.16.172.23.36.088.189.106.353.018.166.017.268t-.017.267q-.018.162-.106.341-.072.162-.23.34-.142.18-.389.297-.355.17-.729.137a1.3 1.3 0 0 1-.698-.295q-.179-.13-.412-.469-.234-.361-.234-.985l-3.084-.13q0 1.386.554 2.58.552 1.168 1.535 1.923c.062.047.128.08.19.123l-7.408-.182q.278-.094.545-.215a7 7 0 0 0 2.218-1.596 7.6 7.6 0 0 0 1.477-2.417q.54-1.388.54-2.984 0-1.598-.54-3.042a8.5 8.5 0 0 0-1.477-2.554 8 8 0 0 0-2.218-1.852 6.7 6.7 0 0 0-2.764-.848 6.2 6.2 0 0 0-2.82.397 6.8 6.8 0 0 0-2.357 1.548q-.997 1.008-1.59 2.452a8.2 8.2 0 0 0-.6 3.135q0 1.688.6 3.2a8.9 8.9 0 0 0 1.59 2.64 8 8 0 0 0 2.357 1.78c.187.092.376.171.567.246l-5.507-.136V71.09l-5.661-.209v-12.84Zm16.914 5.062q.099.002.2.008a3.5 3.5 0 0 1 1.496.449 4.1 4.1 0 0 1 1.21.979q.516.609.803 1.393a4.6 4.6 0 0 1 .302 1.658q0 .871-.302 1.623-.287.755-.803 1.31-.517.555-1.21.872a3.45 3.45 0 0 1-1.497.268 3.7 3.7 0 0 1-1.51-.384 4.4 4.4 0 0 1-1.253-.984 4.9 4.9 0 0 1-.858-1.417 4.8 4.8 0 0 1-.304-1.7q.001-.899.304-1.67.32-.768.858-1.322.539-.555 1.252-.83a3.2 3.2 0 0 1 1.312-.253m62.332 4.32q.059 0 .117.004.467.032.875.324.406.274.71.736.303.46.47 1.058.18.6.18 1.269t-.18 1.247a3.4 3.4 0 0 1-.47 1.011q-.304.429-.71.675a1.6 1.6 0 0 1-.875.216 1.74 1.74 0 0 1-.882-.283 2.7 2.7 0 0 1-.729-.741 4 4 0 0 1-.498-1.073 4.7 4.7 0 0 1-.176-1.292q.001-.685.176-1.276a3.5 3.5 0 0 1 .498-1.017q.313-.429.73-.649.36-.207.764-.209m-27.276.69 3.323 7.744-3.323-.082zm18.045 3.658 2.615.12v4.393l-2.615-.064zm28.97 1.324 1.952.09v3.796l-1.951-.048zm-10.508 7.92q.302 0 .603.103.3.085.59.287.728.505 1.133 1.475.415.97.415 2.14 0 1.189-.415 2.173-.405.985-1.133 1.517-.2.144-.4.253a6 6 0 0 1-.38.202 11 11 0 0 0-.402.22 3 3 0 0 0-.348.27.9.9 0 0 0-.225.469q-.057.308.035.576.067.203.179.282.112.096.214.107a.27.27 0 0 0 .19-.01 1 1 0 0 1 .112-.022 1 1 0 0 0 .28-.217q.167-.16.167-.55l1.864-.085q0 .619-.13 1.195a4.1 4.1 0 0 1-.386 1.047 3.1 3.1 0 0 1-.583.824q-.344.36-.765.54a1.9 1.9 0 0 1-.648.172 1.665 1.665 0 0 1-1.014-.254 2.3 2.3 0 0 1-.683-.624 3.7 3.7 0 0 1-.515-.983 5 5 0 0 1-.264-1.328 6 6 0 0 1 .081-1.345q.127-.658.401-1.234a3.3 3.3 0 0 1 .673-.964q.307-.3.612-.479.304-.178.585-.322.157-.09.292-.16.145-.071.267-.159a1 1 0 0 0 .247-.276 1 1 0 0 0 .144-.292q.056-.153.066-.288.01-.136.01-.22t-.01-.22a1 1 0 0 0-.066-.285 1.2 1.2 0 0 0-.144-.287.74.74 0 0 0-.247-.249.7.7 0 0 0-.457-.131.7.7 0 0 0-.44.229q-.11.104-.259.378-.147.291-.147.803l-1.931.038q0-1.137.347-2.105.345-.948.96-1.549a2.3 2.3 0 0 1 .738-.494q.394-.17.787-.169zm-88.477.16 3.972.003v17.947l-3.972.254zm10.097.008 3.694.004v6.713l4.6-.111v3.91l-4.6.18v2.616l5.785-.282v3.896l-9.48.604zm30.1.027h.054a4.06 4.06 0 0 1 1.859.487 5 5 0 0 1 1.51 1.273q.645.79 1 1.85.37 1.056.353 2.242v9.446l-2.88.183v-9.582q0-.486-.139-.905a2.2 2.2 0 0 0-.398-.73 2 2 0 0 0-.607-.498 1.5 1.5 0 0 0-.734-.18q-.791.012-1.375.684a2.54 2.54 0 0 0-.585 1.657v9.8l-3.048.194V86.88a7.3 7.3 0 0 1 .4-2.327 6.6 6.6 0 0 1 1.125-1.953 5.15 5.15 0 0 1 1.594-1.272 4.24 4.24 0 0 1 1.87-.425m6.465.005 2.77.003v8.737l3.826-8.734 2.834.003v14.556l-2.615.167v-8.608l-3.801 8.809-3.014.19zm-19.332.004q1.473.002 2.752.644a7.2 7.2 0 0 1 2.206 1.708 8.2 8.2 0 0 1 1.47 2.537q.533 1.447.532 3.099a9.2 9.2 0 0 1-.533 3.135 8.6 8.6 0 0 1-1.469 2.608 7.7 7.7 0 0 1-2.206 1.869 6.35 6.35 0 0 1-2.752.815 6 6 0 0 1-2.81-.474 6.9 6.9 0 0 1-2.347-1.66q-.995-1.067-1.59-2.576a8.9 8.9 0 0 1-.596-3.266q0-1.749.597-3.3a9 9 0 0 1 1.589-2.7 7.7 7.7 0 0 1 2.347-1.785 6.25 6.25 0 0 1 2.81-.654m29.826.006 2.531.003a4.5 4.5 0 0 1 2.039.637 5.6 5.6 0 0 1 1.603 1.515 7.3 7.3 0 0 1 1.067 2.148q.383 1.233.383 2.642.001 1.43-.395 2.706a8 8 0 0 1-1.07 2.275 6.3 6.3 0 0 1-1.616 1.653 4.5 4.5 0 0 1-2.01.805v.02l-2.532.162zm9.861.009 2.327.002.271 5.815 1.448-5.814 2.23.002 1.32 5.46.232-5.458 2.15.002-.542 13.255-2.226.142-2.049-8.338-2.145 8.606-2.367.15zm12.033.01 2.23.003 3.567 12.802-2.153.138-1.545-5.521-1.841 5.739-2.327.15 3.111-9.625zm12.818.012 4.961.004v2.743l-3.15.045v1.917l2.564-.062v2.752l-2.564.1v1.836l3.15-.154v2.746l-4.96.299zm5.85.005 4.335.004v2.665l-2.634.037v9.064l-1.7.11zm5 .004 1.61.002v4.44l2.025-.049v2.602l-2.025.08v1.73l2.55-.124v2.596l-4.16.265zm-43.03 3.278v7.767q.576-.105 1.06-.48.483-.351.847-.91a4.4 4.4 0 0 0 .567-1.24q.203-.683.203-1.435a4.6 4.6 0 0 0-.203-1.382 3.9 3.9 0 0 0-.567-1.148 3.2 3.2 0 0 0-.847-.797 2.55 2.55 0 0 0-1.06-.375m-32.358.456a3.5 3.5 0 0 0-1.506.36 4.2 4.2 0 0 0-1.246.99 4.9 4.9 0 0 0-.855 1.444q-.301.825-.302 1.757.001.93.302 1.737.319.803.855 1.39.537.587 1.246.892.706.326 1.506.288a3.3 3.3 0 0 0 1.488-.43q.69-.366 1.205-.988.514-.619.798-1.424A4.8 4.8 0 0 0 53.745 89q-.001-.903-.304-1.689a4.3 4.3 0 0 0-.798-1.374 3.9 3.9 0 0 0-1.205-.931 3.4 3.4 0 0 0-1.488-.314" style="font-size:7.80635px;font-family:&quot;The Bold Font&quot;;-inkscape-font-specification:&quot;The Bold Font&quot;;text-align:center;text-anchor:middle;fill:#000;stroke-width:.856189;stroke-linecap:square;stroke-miterlimit:0;paint-order:markers fill stroke" transform="translate(-16.055 -57.734)"/></svg>