<svg xmlns="http://www.w3.org/2000/svg" xmlns:xlink="http://www.w3.org/1999/xlink" version="1.1"  x="0px" y="0px" width="100px" height="100px" viewBox="0 0 100 100" enable-background="new 0 0 100 100" xml:space="preserve">
<path d="M55.107,42.652c0.219,0,0.436-0.011,0.649-0.033c0.427-0.043,0.842-0.129,1.24-0.253c2.587-0.805,4.468-3.22,4.468-6.067  c0-3.512-2.85-6.359-6.357-6.359c-3.507,0-6.357,2.849-6.357,6.359C48.75,39.804,51.6,42.652,55.107,42.652z"/>
<path d="M64.506,87.589c0.073,1.902,1.647,3.386,3.549,3.313s3.357-1.591,3.284-3.493L70.695,70h0.002l-6.036-10.092l1.565-7.66  c0,0,0.782-5.49-1.366-7.444c-1.089-0.99-2.227-2.24-3.085-3.223c-1.559,1.966-3.967,3.225-6.666,3.225  c-4.69,0-8.506-3.816-8.506-8.504c0-0.672,0.081-1.326,0.228-1.953l-9.247-6.417c-0.833-0.578-1.824-0.733-2.735-0.526l-3.648-8.33  c0.164-0.104-1.07-1.938-0.476-3.399l3.728-7.618c0.159-0.401,0.586-1.107-0.26-2.084L33.149,5.07  c-0.401-0.159-0.855,0.037-1.014,0.438L27.69,16.026c-0.092,0.233,0.121,0.811,0.392,1.289L33,28.544  c-0.065,0.078-0.139,0.146-0.198,0.232c-1.085,1.564-0.851,3.688,0.713,4.773l2.424,1.707l8.468,19.335L33.307,73.615l-6.959,10.942  c-1.03,1.601-0.55,3.718,1.05,4.748c1.601,1.03,3.73,0.552,4.76-1.049l9.059-14.063l13.283-7.727l9.502,7.34L64.506,87.589z   M45,41.636v8.953l-5.669-12.945L45,41.636z"/>
<path d="M74.072,90.56c-0.316,1.654-1.926,2.722-3.566,2.401l-9.776-1.838l-0.375,2.013l9.758,1.851  c2.761,0.529,5.429-1.265,5.963-4.035L74.072,90.56z"/>
<polygon points="23.925,92.454 25.777,93.544 27.461,91.073 25.609,89.983 "/>
<path d="M48.419,89.996c-1.4,0-2.563,0.261-2.808,0.605c0,0-0.05,1.891-0.05,1.908c0,0.408,1.28,0.739,2.858,0.739  s2.858-0.331,2.858-0.739c0-0.017-0.05-1.908-0.05-1.908C50.982,90.257,49.819,89.996,48.419,89.996z"/>
</svg>