<?xml version="1.0" encoding="utf-8"?>
<!-- Generator: Adobe Illustrator 15.0.0, SVG Export Plug-In . SVG Version: 6.00 Build 0)  -->
<!DOCTYPE svg PUBLIC "-//W3C//DTD SVG 1.1//EN" "http://www.w3.org/Graphics/SVG/1.1/DTD/svg11.dtd">
<svg version="1.1" id="Layer_1" xmlns="http://www.w3.org/2000/svg" xmlns:xlink="http://www.w3.org/1999/xlink" x="0px" y="0px"
	 width="200px" height="200px" viewBox="0 0 200 200" enable-background="new 0 0 200 200" xml:space="preserve">
<g>
	<path fill="#C6C6C6" d="M114.228,100c0,7.854-6.373,14.228-14.229,14.228c-7.862,0-14.227-6.374-14.227-14.228
		c0-7.854,6.364-14.228,14.227-14.228C107.854,85.773,114.228,92.146,114.228,100z"/>
	<path fill="#C6C6C6" d="M158.898,129.123l-46.445-26.799c0.559-4.9-1.764-9.883-6.309-12.507c-0.068-0.038-0.138-0.075-0.205-0.105
		l-0.028-53.303c-0.009-21.105-9.56-33.754-9.56-33.754l0.015,33.758l0.023,52.162c-3.136,0.852-5.948,2.895-7.697,5.933
		c-1.688,2.932-2.088,6.249-1.372,9.311L41.621,130.24c-18.266,10.545-23.498,24.598-23.498,24.598l28.036-16.329
		c0,0,40.09-25.284,45.496-28.247c5.594,2.383,9.89,4.049,13.562,0.965c3.664-3.09,2.557-1.229,2.79-1.478l46.324,26.454
		c18.288,10.538,32.619,9.227,32.619,9.227L158.898,129.123z"/>
</g>
</svg>
