<?xml version="1.0" encoding="utf-8"?> <!DOCTYPE svg PUBLIC "-//W3C//DTD SVG 1.1//EN" "http://www.w3.org/Graphics/SVG/1.1/DTD/svg11.dtd" [ ]> <svg version="1.1" xmlns="http://www.w3.org/2000/svg" xmlns:xlink="http://www.w3.org/1999/xlink" xmlns:a="http://ns.adobe.com/AdobeSVGViewerExtensions/3.0/" x="0px" y="0px" width="381px" height="231px" viewBox="0 -6.801 381 231" enable-background="new 0 -6.801 381 231" xml:space="preserve"> <path fill-rule="evenodd" clip-rule="evenodd" d="M380.282,21.65c0-1,0-2,0-3c-9.038-12.083-31.868-7.439-42.967-1 c-9.72-24.365-54.985-23.007-64.947,1c-8.623-8.531-28.266-10.183-39.969-3c-24.421-1.823-54.213-2.961-83.933-4 c-30.653-1.072-62.923-5.513-85.932-2c-11.837,1.808-15.214,9.11-22.981,16.998c-5.923,6.014-11.747,9.565-14.988,15.998 c-9.693,19.233-1.428,56.693-12.99,81.989c-3.041,6.654-8.534,9.742-9.993,14.998c-2.323,8.381-2.898,16.496,3.998,21.998 c9.594-2.064,11.964-11.357,16.986-17.998c3.74-23.92,11.689-43.629,10.991-71.991c0.129,20.088,10.542,38.157,8.993,57.993 c-0.417,5.348-3.917,10.391-3.996,15.998c-0.149,10.508,3.723,21.855,4.995,32.996c1.309,11.451,0.644,23.285,4.996,33.996 c7.004-0.658,16.642,1.32,21.983-1c-5.194-16.311-8.253-37.762-3.997-57.992c9.54,4.352,21.901,13.523,38.969,9.998 c6.932-1.432,19.563-8.963,22.981-23.998c35.088,14.316,62.806-19.129,91.927-4.998c13.075,22.578,22.295,49.014,28.978,77.99 c7.003-0.658,16.641,1.32,21.981-1c-9.134-15.709-9.822-40.371-11.991-63.992c8.623-11.369,16.173-23.813,23.981-35.996 c15.063-1.707,38.58,8.5,48.961-2c5.663-5.727,3.175-20.769,3.997-29.996c1.071-12.009,3.401-22.67,3.997-32.996 c6.995,0,13.989,0,20.983,0C369.66,40.352,374.925,30.954,380.282,21.65z M320.329,105.64c1.581-1.446-0.102-2.233,0-6 c-8.619-1.563-22.355-1.563-30.976,0c-1.376,1.289-0.988,4.343-0.999,7c-3.07-0.261-4.493-2.17-6.994-3 c-1.501-9.168,6.225-9.104,8.993-13.998c6.803-15.359,15.006-39.659,5.996-58.993c-5.772-3.033-12.598-5.77-12.991-11.999 c-1.301-20.591,48.835-18.914,42.967,3c-1.298,4.846-6.481,4.87-11.991,8.999c-11.489,25.178,1.975,54.382,13.989,70.992 C327.594,104.292,321.737,106.982,320.329,105.64z M230.4,21.65c8.017,14.283,14.575,30.827,38.97,25.997 c3.666,18.664,3.311,46.679,7.993,60.992c-4.205-5.457-5.462-13.864-5.995-22.996c-4.932-5.655-15.087-10.547-25.979-7 c-5.488,5.518-3.772,11.955-6.995,17.998c-5.405,10.137-20.511,14.337-17.985,31.996c-23.613-15.811-49.657,12.885-78.937,8 c-9.223-1.539-14.012-8.291-23.981-11c-2.162,5.504-0.201,10.775-1.999,14.998c-8.518,20.002-34.896,4.35-51.958,1 c-5.066,15.516-7.636,39.111-2.998,55.994c-3.289,0.041-4.974,1.688-8.993,1c0.514-18.381-8.358-36.432-6.995-53.994 c0.316-4.066,3.528-8.166,3.996-11.998c2.394-19.533-6.406-37.304-7.992-56.993c5.154,2.188,15.072,9.136,22.981,6.999 c8.666-2.341,6.437-11.895,10.991-19.997c5.078-9.037,15.089-11.757,14.988-17.998c1.195-2.803,1.099-6.899,0.999-10.999 c12.938,1.88,21.475-8.302,14.988-16.998C147.634,18.081,186.987,19.861,230.4,21.65z M29.561,51.646 c-9.866,23.845,1.045,64.287-13.989,82.99c-0.022,2.355,1.72,2.943,1,5.998c-2.684,4.648-5.452,9.211-8.993,13 c-1.972-12.307,2.771-17.891,7.994-22.998c15.183-22.469,0.95-79.705,21.982-92.988C36.504,42.86,31.805,46.221,29.561,51.646z M320.329,49.646C330.381,38.694,327.583,62.647,320.329,49.646L320.329,49.646z M287.355,53.646c-1.665,0-3.33,0-4.996,0 c-1.15-1.182-1.131-3.534-0.999-6C286.419,43.991,291.744,50.142,287.355,53.646z M258.379,196.628c-2.331,0-4.663,0-6.994,0 c-1.932-20.732-11.091-34.23-17.986-49.994c6.428,2.395,15.153,0.336,19.984-2C254.668,162.345,254.354,181.658,258.379,196.628z"/> <path fill-rule="evenodd" clip-rule="evenodd" fill="#FFFFFF" d="M105.5,16.65c6.487,8.696-2.05,18.878-14.988,16.998 c0.1,4.099,0.196,8.196-0.999,10.999c0.101,6.241-9.91,8.961-14.988,17.998c-4.554,8.102-2.325,17.656-10.991,19.997 c-7.91,2.137-17.828-4.811-22.981-6.999c1.586,19.689,10.386,37.46,7.992,56.993c-0.468,3.832-3.68,7.932-3.996,11.998 c-1.363,17.563,7.509,35.613,6.995,53.994c4.019,0.688,5.704-0.959,8.993-1c-4.638-16.883-3.067-35.479,1.999-50.994 c21.446,3.27,42.182,23.996,55.956-2c2.149-4.055,3.834-6.494,5.996-11.998c9.969,2.709,7.763,2.461,16.986,4 c29.28,4.885,55.324-23.811,78.937-8c-2.525-17.658,12.58-21.859,17.985-31.996c3.223-6.043,1.507-12.48,6.995-17.998 c10.892-3.547,21.047,1.345,25.979,7c0.533,9.132,1.79,17.54,5.995,22.996c-4.683-14.313-4.327-42.328-7.993-60.992 c-24.395,4.83-30.953-11.714-38.97-25.997C186.987,19.861,147.634,18.081,105.5,16.65z M202.424,97.641 c-5.912,5.752-21.765,14.626-32.974,13.998c-12.071-0.676-20.719-11.234-34.972-16.998c-11.031-4.459-29.204-5.792-30.977-15.998 c-2.679-15.434,19.444-28.555,40.968-29.996c10.594-0.709,21.868,2.497,30.975,1c12.316-2.024,23.928-16.224,32.974-8.999 C219.729,58.474,215.177,85.231,202.424,97.641z"/> <path fill-rule="evenodd" clip-rule="evenodd" d="M208.418,40.647c-9.046-7.225-20.657,6.975-32.974,8.999 c-9.107,1.497-20.381-1.709-30.975-1c-21.523,1.441-43.646,14.563-40.968,29.996c1.772,10.206,19.946,11.539,30.977,15.998 c14.253,5.763,22.9,16.322,34.972,16.998c11.209,0.629,27.062-8.246,32.974-13.998C215.177,85.231,219.729,58.474,208.418,40.647z" /> <path fill-rule="evenodd" clip-rule="evenodd" fill="#FFFFFF" d="M320.329,49.646C327.583,62.647,330.381,38.694,320.329,49.646 L320.329,49.646z"/> <path fill-rule="evenodd" clip-rule="evenodd" fill="#FFFFFF" d="M281.36,47.646c-0.132,2.465-0.151,4.818,0.999,6 c1.666,0,3.331,0,4.996,0C291.744,50.142,286.419,43.991,281.36,47.646z"/> <path fill-rule="evenodd" clip-rule="evenodd" fill="#FFFFFF" d="M253.383,144.634c-4.831,2.336-13.557,4.395-19.984,2 c6.896,15.764,16.055,29.262,17.986,49.994c2.331,0,4.663,0,6.994,0C254.354,181.658,254.668,162.345,253.383,144.634z"/> <path fill-rule="evenodd" clip-rule="evenodd" fill="#FFFFFF" d="M328.323,101.64c-12.015-16.609-25.479-45.813-13.989-70.991 c5.51-4.129,10.693-4.153,11.991-8.999c5.868-21.914-44.268-23.591-42.967-3c0.394,6.229,7.219,8.965,12.991,11.999 c9.01,19.334,0.807,43.633-5.996,58.993c-2.769,4.895-10.494,4.83-8.993,13.998c2.501,0.83,3.924,2.739,6.994,3 c0.011-2.656-0.377-5.711,0.999-7c8.62-1.563,22.356-1.563,30.976,0c-0.102,3.766,1.581,4.553,0,6 C321.737,106.982,327.594,104.292,328.323,101.64z"/> <path fill-rule="evenodd" clip-rule="evenodd" fill="#FFFFFF" d="M37.555,37.648c-21.033,13.283-6.799,70.52-21.982,92.988 c-5.222,5.107-9.966,10.691-7.994,22.998c3.542-3.789,6.309-8.352,8.993-13c0.721-3.055-1.022-3.643-1-5.998 c15.034-18.703,4.123-59.145,13.989-82.99C31.805,46.221,36.504,42.86,37.555,37.648z"/> </svg> 