<?xml version="1.0" encoding="UTF-8" standalone="no"?>
<!-- Created with Inkscape (http://www.inkscape.org/) -->

<svg
   width="1500"
   height="1500"
   viewBox="0 0 396.87499 396.875"
   version="1.1"
   id="svg5"
   inkscape:version="1.2 (dc2aedaf03, 2022-05-15)"
   sodipodi:docname="sky.prod.svg"
   xmlns:inkscape="http://www.inkscape.org/namespaces/inkscape"
   xmlns:sodipodi="http://sodipodi.sourceforge.net/DTD/sodipodi-0.dtd"
   xmlns="http://www.w3.org/2000/svg"
   xmlns:svg="http://www.w3.org/2000/svg">
  <sodipodi:namedview
     id="namedview7"
     pagecolor="#ffffff"
     bordercolor="#000000"
     borderopacity="0.25"
     inkscape:showpageshadow="2"
     inkscape:pageopacity="0.0"
     inkscape:pagecheckerboard="0"
     inkscape:deskcolor="#d1d1d1"
     inkscape:document-units="px"
     showgrid="false"
     inkscape:zoom="0.35355339"
     inkscape:cx="1342.0887"
     inkscape:cy="1173.7973"
     inkscape:window-width="1920"
     inkscape:window-height="1017"
     inkscape:window-x="-8"
     inkscape:window-y="406"
     inkscape:window-maximized="1"
     inkscape:current-layer="layer2" />
  <defs
     id="defs2">
    <filter
       style="color-interpolation-filters:sRGB;"
       inkscape:label="Blur"
       id="filter3058"
       x="-0.93732284"
       y="-0.93732284"
       width="2.8746457"
       height="2.8746457">
      <feGaussianBlur
         stdDeviation="0.31 0.31"
         result="fbSourceGraphic"
         id="feGaussianBlur3056" />
      <feColorMatrix
         result="fbSourceGraphicAlpha"
         in="fbSourceGraphic"
         values="0 0 0 -1 0 0 0 0 -1 0 0 0 0 -1 0 0 0 0 1 0"
         id="feColorMatrix3080" />
      <feGaussianBlur
         id="feGaussianBlur3082"
         stdDeviation="0.31 0.31"
         result="blur"
         in="fbSourceGraphic" />
    </filter>
    <filter
       style="color-interpolation-filters:sRGB;"
       inkscape:label="Blur"
       id="filter3062"
       x="-0.93732284"
       y="-0.93732284"
       width="2.8746457"
       height="2.8746457">
      <feGaussianBlur
         stdDeviation="0.31 0.31"
         result="fbSourceGraphic"
         id="feGaussianBlur3060" />
      <feColorMatrix
         result="fbSourceGraphicAlpha"
         in="fbSourceGraphic"
         values="0 0 0 -1 0 0 0 0 -1 0 0 0 0 -1 0 0 0 0 1 0"
         id="feColorMatrix3140" />
      <feGaussianBlur
         id="feGaussianBlur3142"
         stdDeviation="0.31 0.31"
         result="blur"
         in="fbSourceGraphic" />
    </filter>
    <filter
       style="color-interpolation-filters:sRGB;"
       inkscape:label="Blur"
       id="filter3066"
       x="-0.93732284"
       y="-0.93732284"
       width="2.8746457"
       height="2.8746457">
      <feGaussianBlur
         stdDeviation="0.31 0.31"
         result="fbSourceGraphic"
         id="feGaussianBlur3064" />
      <feColorMatrix
         result="fbSourceGraphicAlpha"
         in="fbSourceGraphic"
         values="0 0 0 -1 0 0 0 0 -1 0 0 0 0 -1 0 0 0 0 1 0"
         id="feColorMatrix3092" />
      <feGaussianBlur
         id="feGaussianBlur3094"
         stdDeviation="0.31 0.31"
         result="blur"
         in="fbSourceGraphic" />
    </filter>
    <filter
       style="color-interpolation-filters:sRGB;"
       inkscape:label="Blur"
       id="filter3070"
       x="-0.93732284"
       y="-0.93732284"
       width="2.8746457"
       height="2.8746457">
      <feGaussianBlur
         stdDeviation="0.31 0.31"
         result="fbSourceGraphic"
         id="feGaussianBlur3068" />
      <feColorMatrix
         result="fbSourceGraphicAlpha"
         in="fbSourceGraphic"
         values="0 0 0 -1 0 0 0 0 -1 0 0 0 0 -1 0 0 0 0 1 0"
         id="feColorMatrix3088" />
      <feGaussianBlur
         id="feGaussianBlur3090"
         stdDeviation="0.31 0.31"
         result="blur"
         in="fbSourceGraphic" />
    </filter>
    <filter
       style="color-interpolation-filters:sRGB;"
       inkscape:label="Blur"
       id="filter3074"
       x="-0.93732284"
       y="-0.93732284"
       width="2.8746457"
       height="2.8746457">
      <feGaussianBlur
         stdDeviation="0.31 0.31"
         result="fbSourceGraphic"
         id="feGaussianBlur3072" />
      <feColorMatrix
         result="fbSourceGraphicAlpha"
         in="fbSourceGraphic"
         values="0 0 0 -1 0 0 0 0 -1 0 0 0 0 -1 0 0 0 0 1 0"
         id="feColorMatrix3212" />
      <feGaussianBlur
         id="feGaussianBlur3214"
         stdDeviation="0.31 0.31"
         result="blur"
         in="fbSourceGraphic" />
    </filter>
    <filter
       style="color-interpolation-filters:sRGB;"
       inkscape:label="Blur"
       id="filter3078"
       x="-0.46866142"
       y="-0.46866142"
       width="1.9373228"
       height="1.9373228">
      <feGaussianBlur
         stdDeviation="0.31 0.31"
         result="blur"
         id="feGaussianBlur3076" />
    </filter>
    <filter
       style="color-interpolation-filters:sRGB;"
       inkscape:label="Blur"
       id="filter3086"
       x="-0.46866142"
       y="-0.46866142"
       width="1.9373228"
       height="1.9373228">
      <feGaussianBlur
         stdDeviation="0.31 0.31"
         result="blur"
         id="feGaussianBlur3084" />
    </filter>
    <filter
       style="color-interpolation-filters:sRGB;"
       inkscape:label="Blur"
       id="filter3098"
       x="-1.2781748"
       y="-1.2781748"
       width="3.5563497"
       height="3.5563497">
      <feGaussianBlur
         stdDeviation="0.31 0.31"
         result="blur"
         id="feGaussianBlur3096" />
    </filter>
    <filter
       style="color-interpolation-filters:sRGB;"
       inkscape:label="Blur"
       id="filter3102"
       x="-1.2781748"
       y="-1.2781529"
       width="3.5563497"
       height="3.5563057">
      <feGaussianBlur
         stdDeviation="0.31 0.31"
         result="blur"
         id="feGaussianBlur3100" />
    </filter>
    <filter
       style="color-interpolation-filters:sRGB;"
       inkscape:label="Blur"
       id="filter3106"
       x="-1.2781748"
       y="-1.2781748"
       width="3.5563497"
       height="3.5563497">
      <feGaussianBlur
         stdDeviation="0.31 0.31"
         result="blur"
         id="feGaussianBlur3104" />
    </filter>
    <filter
       style="color-interpolation-filters:sRGB;"
       inkscape:label="Blur"
       id="filter3110"
       x="-0.80342102"
       y="-0.80342102"
       width="2.606842"
       height="2.606842">
      <feGaussianBlur
         stdDeviation="0.31 0.31"
         result="blur"
         id="feGaussianBlur3108" />
    </filter>
    <filter
       style="color-interpolation-filters:sRGB;"
       inkscape:label="Blur"
       id="filter3114"
       x="-0.80342102"
       y="-0.80342102"
       width="2.606842"
       height="2.606842">
      <feGaussianBlur
         stdDeviation="0.31 0.31"
         result="blur"
         id="feGaussianBlur3112" />
    </filter>
    <filter
       style="color-interpolation-filters:sRGB;"
       inkscape:label="Blur"
       id="filter3118"
       x="-0.80342102"
       y="-0.80342102"
       width="2.606842"
       height="2.606842">
      <feGaussianBlur
         stdDeviation="0.31 0.31"
         result="blur"
         id="feGaussianBlur3116" />
    </filter>
    <filter
       style="color-interpolation-filters:sRGB;"
       inkscape:label="Blur"
       id="filter3122"
       x="-0.80342102"
       y="-0.80342102"
       width="2.606842"
       height="2.606842">
      <feGaussianBlur
         stdDeviation="0.31 0.31"
         result="blur"
         id="feGaussianBlur3120" />
    </filter>
    <filter
       style="color-interpolation-filters:sRGB;"
       inkscape:label="Blur"
       id="filter3126"
       x="-1.2781529"
       y="-1.2781748"
       width="3.5563057"
       height="3.5563497">
      <feGaussianBlur
         stdDeviation="0.31 0.31"
         result="blur"
         id="feGaussianBlur3124" />
    </filter>
    <filter
       style="color-interpolation-filters:sRGB;"
       inkscape:label="Blur"
       id="filter3130"
       x="-0.80341235"
       y="-0.80341235"
       width="2.6068247"
       height="2.6068247">
      <feGaussianBlur
         stdDeviation="0.31 0.31"
         result="blur"
         id="feGaussianBlur3128" />
    </filter>
    <filter
       style="color-interpolation-filters:sRGB;"
       inkscape:label="Blur"
       id="filter3134"
       x="-0.80342102"
       y="-0.80342102"
       width="2.606842"
       height="2.606842">
      <feGaussianBlur
         stdDeviation="0.31 0.31"
         result="blur"
         id="feGaussianBlur3132" />
    </filter>
    <filter
       style="color-interpolation-filters:sRGB;"
       inkscape:label="Blur"
       id="filter3138"
       x="-0.46866142"
       y="-0.46866142"
       width="1.9373228"
       height="1.9373228">
      <feGaussianBlur
         stdDeviation="0.31 0.31"
         result="blur"
         id="feGaussianBlur3136" />
    </filter>
    <filter
       style="color-interpolation-filters:sRGB;"
       inkscape:label="Blur"
       id="filter3146"
       x="-0.46866142"
       y="-0.46866142"
       width="1.9373228"
       height="1.9373228">
      <feGaussianBlur
         stdDeviation="0.31 0.31"
         result="blur"
         id="feGaussianBlur3144" />
    </filter>
    <filter
       style="color-interpolation-filters:sRGB;"
       inkscape:label="Blur"
       id="filter3150"
       x="-0.46866142"
       y="-0.46866142"
       width="1.9373228"
       height="1.9373228">
      <feGaussianBlur
         stdDeviation="0.31 0.31"
         result="blur"
         id="feGaussianBlur3148" />
    </filter>
    <filter
       style="color-interpolation-filters:sRGB;"
       inkscape:label="Blur"
       id="filter3154"
       x="-0.46866142"
       y="-0.46866142"
       width="1.9373228"
       height="1.9373228">
      <feGaussianBlur
         stdDeviation="0.31 0.31"
         result="blur"
         id="feGaussianBlur3152" />
    </filter>
    <filter
       style="color-interpolation-filters:sRGB;"
       inkscape:label="Blur"
       id="filter3158"
       x="-0.46866142"
       y="-0.46866142"
       width="1.9373228"
       height="1.9373228">
      <feGaussianBlur
         stdDeviation="0.31 0.31"
         result="blur"
         id="feGaussianBlur3156" />
    </filter>
    <filter
       style="color-interpolation-filters:sRGB;"
       inkscape:label="Blur"
       id="filter3162"
       x="-0.46866142"
       y="-0.46866142"
       width="1.9373228"
       height="1.9373228">
      <feGaussianBlur
         stdDeviation="0.31 0.31"
         result="blur"
         id="feGaussianBlur3160" />
    </filter>
    <filter
       style="color-interpolation-filters:sRGB;"
       inkscape:label="Blur"
       id="filter3166"
       x="-0.46866142"
       y="-0.46866142"
       width="1.9373228"
       height="1.9373228">
      <feGaussianBlur
         stdDeviation="0.31 0.31"
         result="blur"
         id="feGaussianBlur3164" />
    </filter>
    <filter
       style="color-interpolation-filters:sRGB;"
       inkscape:label="Blur"
       id="filter3170"
       x="-1.2781682"
       y="-1.2781748"
       width="3.5563365"
       height="3.5563497">
      <feGaussianBlur
         stdDeviation="0.31 0.31"
         result="blur"
         id="feGaussianBlur3168" />
    </filter>
    <filter
       style="color-interpolation-filters:sRGB;"
       inkscape:label="Blur"
       id="filter3174"
       x="-1.2781748"
       y="-1.2781748"
       width="3.5563497"
       height="3.5563497">
      <feGaussianBlur
         stdDeviation="0.31 0.31"
         result="blur"
         id="feGaussianBlur3172" />
    </filter>
    <filter
       style="color-interpolation-filters:sRGB;"
       inkscape:label="Blur"
       id="filter3178"
       x="-1.2781682"
       y="-1.2781748"
       width="3.5563365"
       height="3.5563497">
      <feGaussianBlur
         stdDeviation="0.31 0.31"
         result="blur"
         id="feGaussianBlur3176" />
    </filter>
    <filter
       style="color-interpolation-filters:sRGB;"
       inkscape:label="Blur"
       id="filter3182"
       x="-0.80341929"
       y="-0.80342102"
       width="2.6068386"
       height="2.606842">
      <feGaussianBlur
         stdDeviation="0.31 0.31"
         result="blur"
         id="feGaussianBlur3180" />
    </filter>
    <filter
       style="color-interpolation-filters:sRGB;"
       inkscape:label="Blur"
       id="filter3186"
       x="-0.80342102"
       y="-0.80342102"
       width="2.606842"
       height="2.606842">
      <feGaussianBlur
         stdDeviation="0.31 0.31"
         result="blur"
         id="feGaussianBlur3184" />
    </filter>
    <filter
       style="color-interpolation-filters:sRGB;"
       inkscape:label="Blur"
       id="filter3190"
       x="-0.80341929"
       y="-0.80342102"
       width="2.6068386"
       height="2.606842">
      <feGaussianBlur
         stdDeviation="0.31 0.31"
         result="blur"
         id="feGaussianBlur3188" />
    </filter>
    <filter
       style="color-interpolation-filters:sRGB;"
       inkscape:label="Blur"
       id="filter3194"
       x="-0.80342102"
       y="-0.80342102"
       width="2.606842"
       height="2.606842">
      <feGaussianBlur
         stdDeviation="0.31 0.31"
         result="blur"
         id="feGaussianBlur3192" />
    </filter>
    <filter
       style="color-interpolation-filters:sRGB;"
       inkscape:label="Blur"
       id="filter3198"
       x="-1.2781748"
       y="-1.2781529"
       width="3.5563497"
       height="3.5563057">
      <feGaussianBlur
         stdDeviation="0.31 0.31"
         result="blur"
         id="feGaussianBlur3196" />
    </filter>
    <filter
       style="color-interpolation-filters:sRGB;"
       inkscape:label="Blur"
       id="filter3202"
       x="-0.80341929"
       y="-0.80341235"
       width="2.6068386"
       height="2.6068247">
      <feGaussianBlur
         stdDeviation="0.31 0.31"
         result="blur"
         id="feGaussianBlur3200" />
    </filter>
    <filter
       style="color-interpolation-filters:sRGB;"
       inkscape:label="Blur"
       id="filter3206"
       x="-0.80341929"
       y="-0.80342102"
       width="2.6068386"
       height="2.606842">
      <feGaussianBlur
         stdDeviation="0.31 0.31"
         result="blur"
         id="feGaussianBlur3204" />
    </filter>
    <filter
       style="color-interpolation-filters:sRGB;"
       inkscape:label="Blur"
       id="filter3210"
       x="-0.46866142"
       y="-0.46866142"
       width="1.9373228"
       height="1.9373228">
      <feGaussianBlur
         stdDeviation="0.31 0.31"
         result="blur"
         id="feGaussianBlur3208" />
    </filter>
    <filter
       style="color-interpolation-filters:sRGB;"
       inkscape:label="Blur"
       id="filter3218"
       x="-0.46866142"
       y="-0.46866142"
       width="1.9373228"
       height="1.9373228">
      <feGaussianBlur
         stdDeviation="0.31 0.31"
         result="blur"
         id="feGaussianBlur3216" />
    </filter>
    <filter
       style="color-interpolation-filters:sRGB;"
       inkscape:label="Blur"
       id="filter3222"
       x="-0.46866142"
       y="-0.46866142"
       width="1.9373228"
       height="1.9373228">
      <feGaussianBlur
         stdDeviation="0.31 0.31"
         result="blur"
         id="feGaussianBlur3220" />
    </filter>
    <filter
       style="color-interpolation-filters:sRGB;"
       inkscape:label="Blur"
       id="filter3226"
       x="-0.46866142"
       y="-0.46866142"
       width="1.9373228"
       height="1.9373228">
      <feGaussianBlur
         stdDeviation="0.31 0.31"
         result="blur"
         id="feGaussianBlur3224" />
    </filter>
    <filter
       style="color-interpolation-filters:sRGB;"
       inkscape:label="Blur"
       id="filter3230"
       x="-0.46866142"
       y="-0.46866142"
       width="1.9373228"
       height="1.9373228">
      <feGaussianBlur
         stdDeviation="0.31 0.31"
         result="blur"
         id="feGaussianBlur3228" />
    </filter>
  </defs>
  <g
     inkscape:groupmode="layer"
     id="layer2"
     inkscape:label="1px white"
     sodipodi:insensitive="true">
    <path
       id="path340"
       style="fill:#ffffff;stroke-width:1.25095;stroke-linecap:square;stroke-miterlimit:0;paint-order:markers fill stroke"
       d="m 194.79328,9.8846678 c -0.16086,-2.312e-4 -0.2914,0.1300772 -0.29146,0.2909382 -2.3e-4,0.161063 0.1304,0.291687 0.29146,0.291455 0.16086,-6.2e-5 0.29116,-0.130599 0.29093,-0.291455 -6e-5,-0.160654 -0.13028,-0.2908766 -0.29093,-0.2909382 z m 92.57471,16.2625732 c -0.43838,0 -0.79375,0.355374 -0.79375,0.79375 0,0.438376 0.35537,0.79375 0.79375,0.79375 0.43838,0 0.79375,-0.355374 0.79375,-0.79375 0,-0.438376 -0.35537,-0.79375 -0.79375,-0.79375 z m -203.463552,4.90306 c -0.255719,0 -0.463021,0.207302 -0.463021,0.463021 0,0.255719 0.207302,0.46302 0.463021,0.46302 0.255719,0 0.463021,-0.207301 0.463021,-0.46302 0,-0.255719 -0.207302,-0.463021 -0.463021,-0.463021 z m -67.036217,1.892391 c -0.160657,5.7e-5 -0.290881,0.130281 -0.290938,0.290938 5.7e-5,0.160657 0.130281,0.290881 0.290938,0.290938 0.160657,-5.7e-5 0.290881,-0.130281 0.290938,-0.290938 -5.7e-5,-0.160657 -0.130281,-0.290881 -0.290938,-0.290938 z m 49.901863,19.616373 c -0.160859,-2.28e-4 -0.291398,0.130079 -0.291455,0.290938 -2.29e-4,0.161061 0.130394,0.291684 0.291455,0.291455 0.160859,-5.7e-5 0.291166,-0.130596 0.290938,-0.291455 -5.7e-5,-0.160657 -0.130281,-0.290881 -0.290938,-0.290938 z m 124.149006,8.842871 c -0.43838,0 -0.79375,0.355374 -0.79375,0.79375 0,0.438376 0.35537,0.79375 0.79375,0.79375 0.43838,0 0.79375,-0.355374 0.79375,-0.79375 0,-0.438376 -0.35537,-0.79375 -0.79375,-0.79375 z m -94.381315,4.738729 c -0.255719,0 -0.46302,0.207302 -0.46302,0.463021 0,0.255719 0.207301,0.463021 0.46302,0.463021 0.255719,0 0.463021,-0.207302 0.463021,-0.463021 0,-0.255719 -0.207302,-0.463021 -0.463021,-0.463021 z M 339.00463,84.518871 c -0.43838,0 -0.79375,0.355374 -0.79375,0.79375 0,0.438376 0.35537,0.79375 0.79375,0.79375 0.43838,0 0.79375,-0.355374 0.79375,-0.79375 0,-0.438376 -0.35537,-0.79375 -0.79375,-0.79375 z M 63.667431,88.400805 c -0.137958,-6.3e-5 -0.249892,0.111639 -0.250114,0.249597 -6.3e-5,0.13816 0.111954,0.250177 0.250114,0.250114 0.13816,6.3e-5 0.250177,-0.111954 0.250114,-0.250114 -2.22e-4,-0.137958 -0.112156,-0.24966 -0.250114,-0.249597 z m 22.823929,0.249597 c -0.137958,2.22e-4 -0.24966,0.112156 -0.249597,0.250114 -6.3e-5,0.137958 0.111639,0.249892 0.249597,0.250114 0.13816,6.3e-5 0.250177,-0.111954 0.250114,-0.250114 6.3e-5,-0.13816 -0.111954,-0.250177 -0.250114,-0.250114 z m 113.80804,4.51807 c -0.16066,5.6e-5 -0.29088,0.13028 -0.29094,0.290938 -2.3e-4,0.16086 0.13008,0.2914 0.29094,0.291456 0.16086,-5.6e-5 0.29117,-0.130596 0.29094,-0.291456 -6e-5,-0.160658 -0.13028,-0.290882 -0.29094,-0.290938 z m 62.19879,2.888196 c -0.13796,-6.6e-5 -0.2499,0.111636 -0.25012,0.249597 -6e-5,0.138163 0.11196,0.25018 0.25012,0.250114 0.13816,6.1e-5 0.25017,-0.111955 0.25011,-0.250114 -2.2e-4,-0.137957 -0.11215,-0.249658 -0.25011,-0.249597 z m -81.06586,0.01809 c -0.43838,0 -0.79375,0.355374 -0.79375,0.79375 0,0.438376 0.35537,0.79375 0.79375,0.79375 0.43838,0 0.79375,-0.355374 0.79375,-0.79375 0,-0.438376 -0.35537,-0.79375 -0.79375,-0.79375 z m 134.26829,1.967321 c -0.13816,-6.1e-5 -0.25017,0.111955 -0.25011,0.250114 -6e-5,0.138159 0.11195,0.250175 0.25011,0.250114 0.13796,-2.21e-4 0.24966,-0.112154 0.2496,-0.250114 6e-5,-0.13796 -0.11164,-0.249893 -0.2496,-0.250114 z m -173.42455,1.856735 c -0.25572,0 -0.46302,0.207299 -0.46302,0.463019 0,0.25572 0.2073,0.46302 0.46302,0.46302 0.25572,0 0.46302,-0.2073 0.46302,-0.46302 0,-0.25572 -0.2073,-0.463019 -0.46302,-0.463019 z m 134.39024,1.050579 c -0.13816,-6e-5 -0.25018,0.11196 -0.25011,0.25012 -6e-5,0.13816 0.11195,0.25017 0.25011,0.25011 0.13796,-2.2e-4 0.24966,-0.11215 0.2496,-0.25011 7e-5,-0.13796 -0.11164,-0.2499 -0.2496,-0.25012 z m 62.29077,8.60413 c -0.13796,-6e-5 -0.24989,0.11164 -0.25011,0.2496 -6e-5,0.13816 0.11195,0.25017 0.25011,0.25011 0.13816,7e-5 0.25018,-0.11195 0.25012,-0.25011 -2.2e-4,-0.13796 -0.11216,-0.24967 -0.25012,-0.2496 z m -44.97296,10.54871 c -0.13816,-6e-5 -0.25017,0.11195 -0.25011,0.25011 -7e-5,0.13816 0.11195,0.25018 0.25011,0.25012 0.13796,-2.2e-4 0.24967,-0.11216 0.2496,-0.25012 6e-5,-0.13796 -0.11164,-0.24989 -0.2496,-0.25011 z m -22.82445,0.25011 c -0.13816,-6e-5 -0.25018,0.11196 -0.25011,0.25012 -6e-5,0.13816 0.11195,0.25017 0.25011,0.25011 0.13816,7e-5 0.25018,-0.11195 0.25012,-0.25011 7e-5,-0.13816 -0.11196,-0.25019 -0.25012,-0.25012 z m -226.6027,8.40724 c -0.255719,0 -0.463021,0.2073 -0.463021,0.46302 0,0.25572 0.207302,0.46302 0.463021,0.46302 0.255719,0 0.46302,-0.2073 0.46302,-0.46302 0,-0.25572 -0.207301,-0.46302 -0.46302,-0.46302 z m 101.49406,1.42575 c -0.16086,-2.3e-4 -0.29139,0.13008 -0.29145,0.29094 -2.3e-4,0.16106 0.13039,0.29169 0.29145,0.29146 0.16086,-6e-5 0.29117,-0.1306 0.29094,-0.29146 -6e-5,-0.16066 -0.13028,-0.29088 -0.29094,-0.29094 z m -23.23217,8.29717 c -0.43838,0 -0.79375,0.35537 -0.79375,0.79375 0,0.43838 0.35537,0.79375 0.79375,0.79375 0.43838,0 0.79375,-0.35537 0.79375,-0.79375 0,-0.43838 -0.35537,-0.79375 -0.79375,-0.79375 z m 149.40741,1.49035 c -0.16065,6e-5 -0.29087,0.13029 -0.29093,0.29094 6e-5,0.16065 0.13028,0.29088 0.29093,0.29094 0.16066,-6e-5 0.29088,-0.13028 0.29094,-0.29094 -6e-5,-0.16066 -0.13028,-0.29088 -0.29094,-0.29094 z m -245.726596,0.87798 c -0.138163,-6e-5 -0.25018,0.11196 -0.250114,0.25012 -6.1e-5,0.13816 0.111955,0.25017 0.250114,0.25011 0.137957,-2.2e-4 0.249658,-0.11215 0.249597,-0.25011 6.6e-5,-0.13796 -0.111636,-0.2499 -0.249597,-0.25012 z m 178.549306,0.87333 c -0.25572,0 -0.46302,0.2073 -0.46302,0.46302 -1e-5,0.25572 0.2073,0.46303 0.46302,0.46303 0.25572,0 0.46303,-0.20731 0.46302,-0.46303 0,-0.25572 -0.2073,-0.46302 -0.46302,-0.46302 z m 38.57904,0.1788 c -0.13816,-6e-5 -0.25018,0.11196 -0.25011,0.25012 -6e-5,0.13816 0.11195,0.25017 0.25011,0.25011 0.13816,6e-5 0.25017,-0.11195 0.25011,-0.25011 7e-5,-0.13816 -0.11195,-0.25018 -0.25011,-0.25012 z m 62.78015,2.94349 c -0.13796,2.2e-4 -0.24967,0.11216 -0.2496,0.25012 2.2e-4,0.13776 0.11184,0.24938 0.2496,0.2496 0.13796,6e-5 0.24989,-0.11164 0.25011,-0.2496 7e-5,-0.13816 -0.11195,-0.25018 -0.25011,-0.25012 z m 26.35394,6.00481 c -0.13775,2.3e-4 -0.24936,0.11184 -0.24959,0.24959 -7e-5,0.13796 0.11163,0.24989 0.24959,0.25012 0.13816,7e-5 0.25019,-0.11196 0.25012,-0.25012 -2.3e-4,-0.13796 -0.11216,-0.24966 -0.25012,-0.24959 z m -212.61286,5.65495 c -0.13816,-6e-5 -0.25017,0.11195 -0.25011,0.25011 2.2e-4,0.13796 0.11215,0.24966 0.25011,0.2496 0.13796,7e-5 0.2499,-0.11164 0.25012,-0.2496 6e-5,-0.13816 -0.11196,-0.25018 -0.25012,-0.25011 z m -1.82056,2.51302 c -0.25572,0 -0.46302,0.2073 -0.46302,0.46302 0,0.25572 0.2073,0.46302 0.46302,0.46302 0.25572,0 0.46302,-0.2073 0.46302,-0.46302 0,-0.25572 -0.2073,-0.46302 -0.46302,-0.46302 z m -37.213746,0.39429 c -0.137961,2.2e-4 -0.249663,0.11216 -0.249597,0.25012 -6.1e-5,0.13796 0.11164,0.24989 0.249597,0.25011 0.138159,6e-5 0.250175,-0.11195 0.250114,-0.25011 6.6e-5,-0.13816 -0.111951,-0.25018 -0.250114,-0.25012 z m 277.831616,1.70119 c -0.16066,6e-5 -0.29088,0.13028 -0.29094,0.29094 6e-5,0.16066 0.13028,0.29088 0.29094,0.29094 0.16066,-6e-5 0.29088,-0.13028 0.29094,-0.29094 -6e-5,-0.16066 -0.13028,-0.29088 -0.29094,-0.29094 z m -149.40741,0.48473 c -0.43838,0 -0.79375,0.35537 -0.79375,0.79375 0,0.43838 0.35537,0.79375 0.79375,0.79375 0.43838,0 0.79375,-0.35537 0.79375,-0.79375 0,-0.43838 -0.35537,-0.79375 -0.79375,-0.79375 z m -66.13343,6.41769 c -0.13796,2.2e-4 -0.24967,0.11216 -0.2496,0.25012 -6e-5,0.13796 0.11164,0.24989 0.2496,0.25011 0.13816,6e-5 0.25017,-0.11195 0.25011,-0.25011 7e-5,-0.13816 -0.11195,-0.25018 -0.25011,-0.25012 z m -84.074975,2.88458 c -0.161063,-2.3e-4 -0.291687,0.1304 -0.291455,0.29146 6.2e-5,0.16086 0.130599,0.29116 0.291455,0.29093 0.160654,-6e-5 0.290876,-0.13028 0.290938,-0.29093 2.31e-4,-0.16086 -0.130077,-0.2914 -0.290938,-0.29146 z m 71.946515,1.08211 c -0.25572,0 -0.46302,0.2073 -0.46302,0.46302 0,0.25572 0.2073,0.46302 0.46302,0.46302 0.25572,0 0.46302,-0.2073 0.46302,-0.46302 0,-0.25572 -0.2073,-0.46302 -0.46302,-0.46302 z m -32.84451,6.58254 c -0.138159,-6e-5 -0.250175,0.11195 -0.250114,0.25011 -6.6e-5,0.13816 0.111951,0.25018 0.250114,0.25012 0.138163,6e-5 0.25018,-0.11196 0.250114,-0.25012 6.1e-5,-0.13816 -0.111955,-0.25017 -0.250114,-0.25011 z m -22.823929,0.25011 c -0.138163,-6e-5 -0.25018,0.11196 -0.250114,0.25012 2.26e-4,0.13796 0.112158,0.24965 0.250114,0.24959 0.137956,6e-5 0.249888,-0.11163 0.250114,-0.24959 6.6e-5,-0.13816 -0.111951,-0.25018 -0.250114,-0.25012 z m -36.720239,6.04408 c -0.160857,6e-5 -0.291164,0.13059 -0.290938,0.29145 5.6e-5,0.16066 0.13028,0.29088 0.290938,0.29094 0.16086,2.3e-4 0.291399,-0.13008 0.291455,-0.29094 2.26e-4,-0.16106 -0.130396,-0.29168 -0.291455,-0.29145 z m 307.751758,5.23689 c -0.13816,-7e-5 -0.25018,0.11195 -0.25012,0.25011 -7e-5,0.13816 0.11196,0.25019 0.25012,0.25012 0.13816,6e-5 0.25018,-0.11196 0.25011,-0.25012 6e-5,-0.13816 -0.11195,-0.25017 -0.25011,-0.25011 z m -240.66283,7.29619 c -0.16106,-2.3e-4 -0.29169,0.1304 -0.29146,0.29146 6e-5,0.16086 0.1306,0.29117 0.29146,0.29094 0.16066,-6e-5 0.29088,-0.13028 0.29094,-0.29094 2.3e-4,-0.16086 -0.13008,-0.2914 -0.29094,-0.29146 z m 123.01885,3.45096 c -0.25572,-1e-5 -0.46303,0.2073 -0.46303,0.46302 0,0.25572 0.20731,0.46303 0.46303,0.46302 0.25572,0 0.46302,-0.2073 0.46302,-0.46302 0,-0.25572 -0.2073,-0.46302 -0.46302,-0.46302 z m 74.61611,1.11414 c -0.43838,0 -0.79375,0.35537 -0.79375,0.79375 0,0.43838 0.35537,0.79375 0.79375,0.79375 0.43838,0 0.79375,-0.35537 0.79375,-0.79375 0,-0.43838 -0.35537,-0.79375 -0.79375,-0.79375 z m -208.900423,2.04845 c -0.438376,0 -0.79375,0.35537 -0.79375,0.79375 0,0.43838 0.355374,0.79375 0.79375,0.79375 0.438376,0 0.79375,-0.35537 0.79375,-0.79375 0,-0.43838 -0.355374,-0.79375 -0.79375,-0.79375 z m 303.282263,2.68976 c -0.25572,0 -0.46302,0.2073 -0.46302,0.46302 0,0.25572 0.2073,0.46302 0.46302,0.46302 0.6573,-0.0782 0.48957,-0.91116 0,-0.92604 z m -110.97462,1.22163 c -0.16066,6e-5 -0.29088,0.13028 -0.29094,0.29094 -2.3e-4,0.16086 0.13008,0.2914 0.29094,0.29146 0.16086,-6e-5 0.29116,-0.1306 0.29093,-0.29146 -6e-5,-0.16065 -0.13028,-0.29088 -0.29093,-0.29094 z m 59.62065,5.04104 c -0.13816,-7e-5 -0.25018,0.11195 -0.25012,0.25011 2.2e-4,0.13796 0.11216,0.24967 0.25012,0.2496 0.13796,6e-5 0.24989,-0.11164 0.25011,-0.2496 6e-5,-0.13816 -0.11195,-0.25017 -0.25011,-0.25011 z m -264.389031,0.12144 c -0.160658,6e-5 -0.290882,0.13028 -0.290938,0.29094 6.2e-5,0.16065 0.130284,0.29087 0.290938,0.29093 0.160654,-6e-5 0.290876,-0.13028 0.290938,-0.29093 -5.6e-5,-0.16066 -0.13028,-0.29088 -0.290938,-0.29094 z m 170.033031,2.48202 c -0.43838,0 -0.79375,0.35537 -0.79375,0.79375 0,0.43838 0.35537,0.79375 0.79375,0.79375 0.43838,0 0.79375,-0.35537 0.79375,-0.79375 0,-0.43838 -0.35537,-0.79375 -0.79375,-0.79375 z m -19.52852,13.33045 c -0.13796,2.2e-4 -0.24966,0.11215 -0.2496,0.25011 2.2e-4,0.13776 0.11184,0.24938 0.2496,0.2496 0.13796,6e-5 0.24989,-0.11164 0.25011,-0.2496 6e-5,-0.13816 -0.11195,-0.25017 -0.25011,-0.25011 z m -27.98434,0.45992 c -0.43838,0 -0.79375,0.35537 -0.79375,0.79375 0,0.43838 0.35537,0.79375 0.79375,0.79375 0.43838,0 0.79375,-0.35537 0.79375,-0.79375 0,-0.43838 -0.35537,-0.79375 -0.79375,-0.79375 z m 41.71993,1.22938 c -0.13816,-6e-5 -0.25018,0.11196 -0.25011,0.25012 -6e-5,0.13816 0.11195,0.25017 0.25011,0.25011 0.13816,7e-5 0.25018,-0.11195 0.25012,-0.25011 7e-5,-0.13816 -0.11196,-0.25019 -0.25012,-0.25012 z m -22.82393,0.25012 c -0.13816,-6e-5 -0.25017,0.11195 -0.25011,0.25011 -6e-5,0.13816 0.11195,0.25017 0.25011,0.25011 0.13796,-2.2e-4 0.24966,-0.11215 0.2496,-0.25011 6e-5,-0.13796 -0.11164,-0.24989 -0.2496,-0.25011 z m -188.929032,2.00814 c -0.160658,6e-5 -0.290883,0.13028 -0.290939,0.29094 -2.31e-4,0.16086 0.130078,0.2914 0.290939,0.29146 0.161063,2.3e-4 0.291687,-0.1304 0.291455,-0.29146 -5.6e-5,-0.16086 -0.130595,-0.29117 -0.291455,-0.29094 z m 259.494232,0.88419 c -0.16065,6e-5 -0.29088,0.13028 -0.29094,0.29093 6e-5,0.16066 0.13028,0.29088 0.29094,0.29094 0.16066,-6e-5 0.29088,-0.13028 0.29094,-0.29094 -6e-5,-0.16065 -0.13029,-0.29087 -0.29094,-0.29093 z M 9.8174885,234.60273 c -0.255719,0 -0.4630203,0.2073 -0.4630208,0.46302 5e-7,0.25572 0.2073018,0.46302 0.4630208,0.46302 0.2557185,0 0.4630205,-0.2073 0.4630205,-0.46302 0,-0.25572 -0.207302,-0.46302 -0.4630205,-0.46302 z m 35.6102295,0.20051 c -0.138159,-6e-5 -0.250175,0.11195 -0.250114,0.25011 -6.1e-5,0.13816 0.111955,0.25017 0.250114,0.25011 0.138158,6e-5 0.250174,-0.11195 0.250113,-0.25011 6.1e-5,-0.13816 -0.111955,-0.25017 -0.250113,-0.25011 z m 267.671512,1.82831 c -0.43838,0 -0.79375,0.35537 -0.79375,0.79375 0,0.43838 0.35537,0.79375 0.79375,0.79375 0.43838,0 0.79375,-0.35537 0.79375,-0.79375 0,-0.43838 -0.35537,-0.79375 -0.79375,-0.79375 z M 277.63938,238.68 c -0.43838,0 -0.79375,0.35537 -0.79375,0.79375 0,0.43838 0.35537,0.79375 0.79375,0.79375 0.43838,0 0.79375,-0.35537 0.79375,-0.79375 0,-0.43838 -0.35537,-0.79375 -0.79375,-0.79375 z m 74.61663,1.7756 c -0.25572,0 -0.46302,0.2073 -0.46302,0.46302 -10e-6,0.25572 0.2073,0.46303 0.46302,0.46303 0.25572,0 0.46303,-0.20731 0.46302,-0.46303 0,-0.25572 -0.2073,-0.46302 -0.46302,-0.46302 z m -305.056308,0.45372 c -0.438376,0 -0.79375,0.35537 -0.79375,0.79375 0,0.43838 0.355374,0.79375 0.79375,0.79375 0.438376,0 0.79375,-0.35537 0.79375,-0.79375 0,-0.43838 -0.355374,-0.79375 -0.79375,-0.79375 z m -35.722367,0.8692 c -0.138158,-6e-5 -0.250174,0.11195 -0.250113,0.25011 -6.6e-5,0.13816 0.111951,0.25018 0.250113,0.25012 0.137961,-2.2e-4 0.249664,-0.11216 0.249598,-0.25012 6.1e-5,-0.13796 -0.111641,-0.24989 -0.249598,-0.25011 z m 170.006155,2.95538 c -0.25572,0 -0.46302,0.2073 -0.46302,0.46302 0,0.25572 0.2073,0.46302 0.46302,0.46302 0.25572,0 0.46302,-0.2073 0.46302,-0.46302 0,-0.25572 -0.2073,-0.46302 -0.46302,-0.46302 z m -27.99312,3.79408 c -0.16106,-2.3e-4 -0.29168,0.13039 -0.29145,0.29145 6e-5,0.16086 0.13059,0.29117 0.29145,0.29094 0.16066,-6e-5 0.29088,-0.13028 0.29094,-0.29094 2.3e-4,-0.16086 -0.13008,-0.29139 -0.29094,-0.29145 z m -95.867015,9.60923 c -0.438376,0 -0.79375,0.35537 -0.79375,0.79375 0,0.43838 0.355374,0.79375 0.79375,0.79375 0.438376,0 0.79375,-0.35537 0.79375,-0.79375 0,-0.43838 -0.355374,-0.79375 -0.79375,-0.79375 z m 279.725045,1.62678 c -0.13796,-7e-5 -0.24989,0.11163 -0.25012,0.24959 -7e-5,0.13816 0.11196,0.25019 0.25012,0.25012 0.13816,6e-5 0.25018,-0.11196 0.25011,-0.25012 -2.3e-4,-0.13795 -0.11216,-0.24965 -0.25011,-0.24959 z m -233.75989,8.38088 c -0.16066,6e-5 -0.29088,0.13028 -0.29094,0.29094 6e-5,0.16066 0.13028,0.29088 0.29094,0.29094 0.16066,-6e-5 0.29088,-0.13028 0.29094,-0.29094 -6e-5,-0.16066 -0.13028,-0.29088 -0.29094,-0.29094 z m 67.03622,1.54823 c -0.25572,-1e-5 -0.46303,0.2073 -0.46303,0.46302 0,0.25572 0.20731,0.46303 0.46303,0.46302 0.25572,0 0.46302,-0.2073 0.46302,-0.46302 0,-0.25572 -0.2073,-0.46302 -0.46302,-0.46302 z m 177.85632,1.04903 c -0.16066,6e-5 -0.29088,0.13028 -0.29094,0.29094 6e-5,0.16065 0.13029,0.29087 0.29094,0.29093 0.16065,-6e-5 0.29088,-0.13028 0.29094,-0.29093 -6e-5,-0.16066 -0.13028,-0.29088 -0.29094,-0.29094 z m -264.716655,2.85254 c -0.255719,0 -0.463021,0.2073 -0.463021,0.46302 0,0.25572 0.207302,0.46302 0.463021,0.46302 0.255719,0 0.463021,-0.2073 0.463021,-0.46302 0,-0.25572 -0.207302,-0.46302 -0.463021,-0.46302 z m 287.948825,5.44462 c -0.43838,0 -0.79375,0.35537 -0.79375,0.79375 0,0.43838 0.35537,0.79375 0.79375,0.79375 0.43838,0 0.79375,-0.35537 0.79375,-0.79375 0,-0.43838 -0.35537,-0.79375 -0.79375,-0.79375 z m -82.23063,3.24167 c -0.25572,-10e-6 -0.46303,0.2073 -0.46303,0.46302 0,0.25572 0.20731,0.46303 0.46303,0.46302 0.25572,0 0.46302,-0.2073 0.46302,-0.46302 0,-0.25572 -0.2073,-0.46302 -0.46302,-0.46302 z m -127.45631,1.03663 c -0.43838,0 -0.79375,0.35537 -0.79375,0.79375 0,0.43838 0.35537,0.79375 0.79375,0.79375 0.43838,0 0.79375,-0.35537 0.79375,-0.79375 0,-0.43838 -0.35537,-0.79375 -0.79375,-0.79375 z m -115.707144,0.6196 c -0.138159,-6e-5 -0.250175,0.11195 -0.250114,0.25011 -6.6e-5,0.13816 0.111951,0.25018 0.250114,0.25012 0.138163,6e-5 0.25018,-0.11196 0.250114,-0.25012 6.1e-5,-0.13816 -0.111955,-0.25017 -0.250114,-0.25011 z m 177.488904,1.05265 c -0.13795,-6e-5 -0.24988,0.11164 -0.25011,0.24959 -7e-5,0.13816 0.11195,0.25018 0.25011,0.25012 0.13816,7e-5 0.25019,-0.11196 0.25012,-0.25012 -2.3e-4,-0.13796 -0.11216,-0.24966 -0.25012,-0.24959 z m -180.324907,1.1839 c -0.138163,-6e-5 -0.25018,0.11196 -0.250114,0.25012 2.26e-4,0.13796 0.112158,0.24965 0.250114,0.24959 0.137754,-2.2e-4 0.249372,-0.11184 0.249598,-0.24959 6.6e-5,-0.13796 -0.111637,-0.2499 -0.249598,-0.25012 z m 27.332699,0.38551 c -0.255719,0 -0.463021,0.2073 -0.463021,0.46302 0,0.25572 0.207302,0.46302 0.463021,0.46302 0.255719,0 0.46302,-0.2073 0.46302,-0.46302 0,-0.25572 -0.207301,-0.46302 -0.46302,-0.46302 z m 210.697728,4.64313 c -0.16106,-2.3e-4 -0.29168,0.13039 -0.29145,0.29145 6e-5,0.16086 0.13059,0.29117 0.29145,0.29094 0.16066,-6e-5 0.29088,-0.13028 0.29094,-0.29094 2.3e-4,-0.16086 -0.13008,-0.29139 -0.29094,-0.29145 z m 94.68931,8.37313 c -0.25572,0 -0.46302,0.2073 -0.46302,0.46302 0,0.25572 0.2073,0.46302 0.46302,0.46302 0.25572,0 0.46302,-0.2073 0.46302,-0.46302 0,-0.25572 -0.2073,-0.46302 -0.46302,-0.46302 z m -91.20993,2.5802 c -0.43838,0 -0.79375,0.35537 -0.79375,0.79375 0,0.43838 0.35537,0.79375 0.79375,0.79375 0.43838,0 0.79375,-0.35537 0.79375,-0.79375 0,-0.43838 -0.35537,-0.79375 -0.79375,-0.79375 z m -127.45682,1.69809 c -0.25572,0 -0.46302,0.2073 -0.46302,0.46302 0,0.25572 0.2073,0.46302 0.46302,0.46302 0.25572,0 0.46302,-0.2073 0.46302,-0.46302 0,-0.25572 -0.2073,-0.46302 -0.46302,-0.46302 z m 211.81807,0.30489 c -0.13816,-6e-5 -0.25018,0.11196 -0.25011,0.25012 -6e-5,0.13816 0.11195,0.25017 0.25011,0.25011 0.13816,7e-5 0.25018,-0.11195 0.25012,-0.25011 7e-5,-0.13816 -0.11196,-0.25019 -0.25012,-0.25012 z M 75.305997,306.434 c -0.438376,0 -0.79375,0.35537 -0.79375,0.79375 0,0.43838 0.355374,0.79375 0.79375,0.79375 0.438376,0 0.79375,-0.35537 0.79375,-0.79375 0,-0.43838 -0.355374,-0.79375 -0.79375,-0.79375 z m 83.690493,0.94362 c -0.16065,6e-5 -0.29087,0.13028 -0.29093,0.29093 6e-5,0.16065 0.13028,0.29088 0.29093,0.29094 0.16066,-6e-5 0.29088,-0.13028 0.29094,-0.29094 -6e-5,-0.16065 -0.13029,-0.29087 -0.29094,-0.29093 z m 204.25834,5.16247 c -0.25572,-1e-5 -0.46303,0.2073 -0.46303,0.46302 0,0.25572 0.20731,0.46303 0.46303,0.46302 0.25572,0 0.46302,-0.2073 0.46302,-0.46302 0,-0.25572 -0.2073,-0.46302 -0.46302,-0.46302 z m -83.03525,0.56638 c -0.13795,2.3e-4 -0.24965,0.11216 -0.24959,0.25011 -6e-5,0.13795 0.11164,0.24988 0.24959,0.25011 0.13816,7e-5 0.25018,-0.11195 0.25012,-0.25011 6e-5,-0.13816 -0.11196,-0.25018 -0.25012,-0.25011 z M 98.53817,315.7368 c -0.160856,-2.3e-4 -0.291393,0.13007 -0.291455,0.29093 5.6e-5,0.16086 0.130595,0.29117 0.291455,0.29094 0.160658,-6e-5 0.290882,-0.13028 0.290938,-0.29094 -6.2e-5,-0.16065 -0.130284,-0.29087 -0.290938,-0.29093 z m 177.60466,9.33431 c -0.25572,0 -0.46302,0.2073 -0.46302,0.46302 0,0.25572 0.2073,0.46302 0.46302,0.46302 0.25572,0 0.46302,-0.2073 0.46302,-0.46302 0,-0.25572 -0.2073,-0.46302 -0.46302,-0.46302 z m -226.465243,2.40037 c -0.138159,-6e-5 -0.250175,0.11195 -0.250114,0.25011 2.21e-4,0.13796 0.112154,0.24966 0.250114,0.2496 0.13796,6e-5 0.249893,-0.11164 0.250114,-0.2496 6.1e-5,-0.13816 -0.111955,-0.25017 -0.250114,-0.25011 z m 107.476643,6.24923 c -0.43838,0 -0.79375,0.35537 -0.79375,0.79375 0,0.43838 0.35537,0.79375 0.79375,0.79375 0.43838,0 0.79375,-0.35537 0.79375,-0.79375 0,-0.43838 -0.35537,-0.79375 -0.79375,-0.79375 z m 108.38098,7.68015 c -0.25572,0 -0.46302,0.2073 -0.46302,0.46302 0,0.25572 0.2073,0.46302 0.46302,0.46302 0.25572,0 0.46302,-0.2073 0.46302,-0.46302 0,-0.25572 -0.2073,-0.46302 -0.46302,-0.46302 z m 110.01344,4.05557 c -0.13796,2.2e-4 -0.24966,0.11215 -0.2496,0.25011 -7e-5,0.13796 0.11164,0.2499 0.2496,0.25012 0.13816,6e-5 0.25018,-0.11196 0.25011,-0.25012 6e-5,-0.13816 -0.11195,-0.25017 -0.25011,-0.25011 z m -280.785443,0.22272 c -0.255723,0 -0.463026,0.20731 -0.463021,0.46303 0,0.25572 0.207302,0.46302 0.463021,0.46302 0.255719,0 0.463021,-0.2073 0.463021,-0.46302 5e-6,-0.25572 -0.207298,-0.46303 -0.463021,-0.46303 z m 91.577353,2.59106 c -0.25572,0 -0.46302,0.2073 -0.46302,0.46302 0,0.25572 0.2073,0.46302 0.46302,0.46302 0.25572,0 0.46302,-0.2073 0.46302,-0.46302 0,-0.25572 -0.2073,-0.46302 -0.46302,-0.46302 z m -52.42057,0.57154 c -0.43838,0 -0.79375,0.35537 -0.79375,0.79375 0,0.43838 0.35537,0.79375 0.79375,0.79375 0.43838,0 0.79375,-0.35537 0.79375,-0.79375 0,-0.43838 -0.35537,-0.79375 -0.79375,-0.79375 z m 18.86655,3.91191 c -0.16066,6e-5 -0.29088,0.13028 -0.29094,0.29094 6e-5,0.16065 0.13029,0.29087 0.29094,0.29093 0.16065,-6e-5 0.29088,-0.13028 0.29094,-0.29093 -6e-5,-0.16066 -0.13028,-0.29088 -0.29094,-0.29094 z m 160.47134,1.30689 c -0.13776,2.2e-4 -0.24938,0.11184 -0.2496,0.2496 -7e-5,0.13796 0.11164,0.2499 0.2496,0.25012 0.13816,6e-5 0.25018,-0.11196 0.25011,-0.25012 -2.2e-4,-0.13796 -0.11215,-0.24966 -0.25011,-0.2496 z m -71.01014,2.05931 c -0.43838,0 -0.79375,0.35537 -0.79375,0.79375 0,0.43838 0.35537,0.79375 0.79375,0.79375 0.43838,0 0.79375,-0.35537 0.79375,-0.79375 0,-0.43838 -0.35537,-0.79375 -0.79375,-0.79375 z m 46.92014,13.08292 c -0.13816,-7e-5 -0.25019,0.11196 -0.25012,0.25012 -6e-5,0.13816 0.11196,0.25018 0.25012,0.25011 0.13795,-2.3e-4 0.24965,-0.11216 0.24959,-0.25011 7e-5,-0.13796 -0.11163,-0.24989 -0.24959,-0.25012 z m -47.14855,1.37666 c -0.13816,-6e-5 -0.25018,0.11196 -0.25011,0.25012 -6e-5,0.13816 0.11195,0.25017 0.25011,0.25011 0.13816,7e-5 0.25018,-0.11195 0.25012,-0.25011 7e-5,-0.13816 -0.11196,-0.25019 -0.25012,-0.25012 z m -129.62361,5.93349 c -0.13816,-6e-5 -0.25017,0.11195 -0.25011,0.25011 -7e-5,0.13816 0.11195,0.25018 0.25011,0.25012 0.13816,7e-5 0.25019,-0.11196 0.25012,-0.25012 6e-5,-0.13816 -0.11196,-0.25018 -0.25012,-0.25011 z m -47.148541,1.37666 c -0.137957,2.2e-4 -0.249658,0.11215 -0.249597,0.25011 -6.6e-5,0.13796 0.111636,0.2499 0.249597,0.25012 0.138163,6e-5 0.25018,-0.11196 0.250114,-0.25012 6.1e-5,-0.13816 -0.111955,-0.25017 -0.250114,-0.25011 z m -16.222265,1.54771 c -0.255719,0 -0.463021,0.2073 -0.463021,0.46302 0,0.25572 0.207302,0.46302 0.463021,0.46302 0.255719,0 0.463021,-0.2073 0.463021,-0.46302 0,-0.25572 -0.207302,-0.46302 -0.463021,-0.46302 z m 94.381316,4.07727 c -0.43838,0 -0.79375,0.35537 -0.79375,0.79375 0,0.43838 0.35537,0.79375 0.79375,0.79375 0.43838,0 0.79375,-0.35537 0.79375,-0.79375 0,-0.43838 -0.35537,-0.79375 -0.79375,-0.79375 z m 197.63548,5.5702 c -0.16066,6e-5 -0.29088,0.13028 -0.29094,0.29094 6e-5,0.16066 0.13028,0.29088 0.29094,0.29094 0.16066,-6e-5 0.29088,-0.13028 0.29094,-0.29094 -6e-5,-0.16066 -0.13028,-0.29088 -0.29094,-0.29094 z m -247.229866,5.33301 c -0.138159,-6e-5 -0.250175,0.11195 -0.250114,0.25011 -6.6e-5,0.13816 0.111951,0.25018 0.250114,0.25012 0.137961,-2.2e-4 0.249663,-0.11216 0.249597,-0.25012 6.1e-5,-0.13796 -0.11164,-0.24989 -0.249597,-0.25011 z"
       inkscape:label="path340"
       sodipodi:nodetypes="cccccssssssssssccccccccccsssssssssssssssccccccccccccccccccccssssscccccsssssccccccccccccccccccccssssscccccsssssccccccccccsssssccccccccccccccccccccsssssccccccccccsssssccccccccccssssscccccccccccccccccccccccccssssssssssssssscscccccccccccccccccssssscccccsssssccccccccccccccccccccssssscccccsssssssssssssssssssscccccssssscccccsssssccccccccccssssscccccsssssssssssssssssssscccccccccccccccssssscccccssssssssssssssscccccssssscccccsssssccccccccccssssscccccsssssssssscccccsssssssssssssssccccccccccsssssccccccccccccccccccccsssssssssscccccccccc" />
  </g>
</svg>
