<svg xmlns="http://www.w3.org/2000/svg" xmlns:xlink="http://www.w3.org/1999/xlink" version="1.1" x="0px" y="0px" viewBox="0 0 100 125" style="enable-background:new 0 0 100 100;" xml:space="preserve"><g><path d="M76.338,27.31V2.515c0-1.386-1.124-2.51-2.51-2.51H54.857c-1.387,0-2.51,1.124-2.51,2.51V27.31   c0,1.386,7.266,14.877,7.266,14.877v24.227c-1.225,0.594-2.069,1.848-2.069,3.299v26.619c0,2.021,1.64,3.662,3.662,3.662h6.272   c2.022,0,3.662-1.641,3.662-3.662V69.713c0-1.479-0.877-2.752-2.139-3.33V42.187C69.002,42.187,76.338,28.696,76.338,27.31z    M69.241,5.414c0-0.896,0.728-1.624,1.624-1.624s1.623,0.728,1.623,1.624V25.68c0,0.896-0.727,1.623-1.623,1.623   s-1.624-0.728-1.624-1.623V5.414z M59.443,25.68c0,0.896-0.728,1.623-1.624,1.623c-0.897,0-1.624-0.728-1.624-1.623V5.414   c0-0.896,0.727-1.624,1.624-1.624c0.896,0,1.624,0.728,1.624,1.624V25.68z M65.966,25.68c0,0.896-0.728,1.623-1.624,1.623   s-1.623-0.728-1.623-1.623V5.414c0-0.896,0.727-1.624,1.623-1.624s1.624,0.728,1.624,1.624V25.68z M41.473,61.076   c0-49.575-15.742-61.071-15.742-61.071v66.409c-1.224,0.594-2.068,1.848-2.068,3.299v26.619c0,2.021,1.639,3.662,3.661,3.662h6.273   c2.022,0,3.661-1.641,3.661-3.662V69.713c0-1.479-0.876-2.752-2.138-3.33v-5.445L41.473,61.076z"/></g></svg>