<svg xmlns="http://www.w3.org/2000/svg" xmlns:xlink="http://www.w3.org/1999/xlink" version="1.1" x="0px" y="0px" width="1280px" height="855px" viewBox="0 0 1280 855" enable-background="new 0 0 1280 855" xml:space="preserve"> <path d="M80.7,613.8c1.2-0.9,2.5-2.6,3.7-2.6c11.1-0.2,16.3-6.6,14-18.2c-3.5,0.5-7.1,1-10.6,1.6c-22.1,3.8-44.1,5.6-66-2.3 c-6.3-2.3-13.3-2.6-20.3-4c0-13.4,0-26.8,0-41.1c1.9,0.1,4-0.1,5.9,0.4c6,1.4,11.9,3.2,17.8,4.5c1.3,0.3,2.9-0.6,4.3-1 c2.6-0.7,5.2-2.2,7.6-1.9c12.6,1.2,24.3-0.4,34.8-8.1c2.5-1.8,5.7-2.6,8.1-4.4c1.9-1.4,3.4-3.6,4.7-5.6c0.7-1,0.2-3,1-3.7 c6.5-6,6-16.7,15-21.4c2.6-1.4,3.7-6,5.1-9.3c0.4-1,0.3-3-0.4-3.7c-6.1-6.7-12.1-13.6-20.2-17.9c-1.3-0.7-3.7-0.8-5-0.1 c-10.5,6-21,12.2-31.2,18.7c-3.3,2.1-5.6,5.5-8.6,8c-1.9,1.7-4,3.5-6.4,4.2c-13.4,4.1-23.4,12.4-29.9,24.8c-0.5,0.9-0.9,1.7-1.4,2.5 c-0.4-0.2-0.9-0.5-1.3-0.7c-0.1-1.7-0.3-3.5-0.3-5.2c0-13,0-26-0.1-39c0-2.9,0.6-4.9,3.7-6.2c9.4-4,18.9-8,28-12.7 c6.1-3.2,11.7-7.5,17.5-11.3c1.1-0.7,2.1-1.7,3.3-2.2c11.4-4.4,20.9-11.6,28.9-20.6c4.8-5.3,8.5-11.8,13.5-16.9 c12.6-12.7,25.7-25,38.9-37.7c-0.2-0.4-0.6-1.6-1.3-2c-9.7-5.5-14.4-15.9-23.1-22.5c-4.7-3.5-8.3-8.5-12.1-13.1 c-9.2-11-21-16.3-35.2-17.2c-6.6-0.4-13.1-1.5-19.6-2.8c-4.2-0.9-7.7-0.6-11.1,2.3c-9.4,8-18.6,16.1-24.3,27.4 c-1.5,2.9-3.6,5.4-5.4,8.1c-0.5-0.1-1-0.3-1.6-0.4c0-6,0.3-12.1-0.1-18c-0.5-7.6,0.7-14.2,7.1-19.1c1-0.8,1.2-2.7,2.1-3.8 c2.1-2.8,4.3-5.7,6.7-8.3c3.3-3.4,6.9-6.6,10.3-9.9c2.3-2.3,4.5-2.1,7-0.2c7.2,5.4,14.8,5.4,22.3,1c10.9-6.3,21.8-12.6,32.3-19.6 c8.1-5.4,16.7-10.9,22.9-18.2c6.6-7.8,15.4-11.6,23.2-17.1c5.2-3.7,9-9.9,16.4-10.3c1-0.1,2-1.1,3-1.7 c17.2-10.5,34.3-20.9,51.5-31.4c3.1-1.9,6-4.1,7.5-5.1c0-7.3,0-13.3,0-19.2c0.3-0.1,0.5-0.1,0.8-0.2c0.2,0.9,0.6,1.9,0.7,2.9 c0.5,5.3,1.8,6,7.1,5c7.1-1.4,9.7-6.7,11.8-12.7c0.9-2.7,1.7-5.4,3.2-7.8c8.5-13.8,14.5-28.6,18.3-44.4c0.3-1.4,0.9-2.8,1.5-4.2 c3.4-7.7,7.2-15.2,10.2-23.1c1.1-2.9,0.5-6.5,0.3-9.8c-0.1-2.6-1-5.2-1.2-7.9c-0.7-8.3,3.2-13.6,11.4-15.4c6-1.3,12-2.9,18.1-3.2 c8.1-0.3,11.9-6,15.7-11.5c1.9-2.8,4.1-4,7.1-4.6c3.7-0.8,7.5-1.4,11.1-2.6c1.3-0.5,2.7-2.1,3.2-3.5c2.1-5.9,3.8-12,5.7-18 c0.5-1.6,1.2-3.1,2.5-3.9c2,7.7,0.6,14.5-3.1,21.5c0.3,0.3,0.6,0.6,0.9,0.9c5.5-5.6,11.6-10.8,16.3-17c4.7-6.3,8-13.6,11.9-20.5 c0.6,0.3,1.1,0.5,1.7,0.8c-0.6,1.7-1.1,3.5-2,5c-3.7,6.1-7.5,12.2-11.3,18.2c-0.9,1.3-1.9,2.6-3.1,3.7c-5.4,4.8-10.9,9.5-16.2,14.5 c-0.8,0.7-0.7,2.5-0.7,3.8c0.1,3,0.3,5.9,0.5,9c-10.3,2.8-20.4,4.8-29.9,8.3c-5.4,2-6.4,8.3-8,13.6c6.2,3.5,12,6.9,17.8,10.2 c-0.1,0.2-0.3,0.4-0.4,0.6c-2.6-0.8-5.3-1.6-8.4-2.6c-0.7,3.1-1.3,5.9-1.9,8.7c-0.1,0-0.3,0-0.4-0.1c0.1-1.8-0.2-3.7,0.4-5.4 c1.4-4.2-0.2-6.5-4-8.2c-3.6-1.6-5.7-0.8-8.6,2.1c-3.1,3.1-7.6,4.8-11.8,7.3c2.3,8.1,4.9,17,7.5,25.9c2,6.9,2.4,13.6,1.8,21 c-1.3,15-0.4,30.2-0.4,45.1c8.1,1.5,13.9-0.8,16-7.1c2.8-8.3,9.4-13.4,14.7-19.6c3.9-4.7,8.1-9.1,12-13.8 c4.2-5.1,8.3-10.4,12.2-15.7c5-6.9,4.5-15,4.6-23c0.2-11.1-0.8-22.6,1.8-33.2c1.9-7.7,4.6-16.8,13.2-21.2c1.4-0.7,2.6-2.1,4.5-2.4 c-2.3,2-4.5,4-7.1,6.2c2.4,0.9,4.4,1.7,6.9,2.6c-0.8,0.6-1,1-1.2,0.9c-8.1-1.9-7.9-1.8-10.5,6.4c-4.6,14.1-3.6,28.6-4.2,43 c-0.4,10-0.9,20.1-8.7,28.2c-3.9,4-6.3,9.5-9.5,14.2c-0.8,1.2-2,2.3-3,3.3c-9,9.1-18.7,17.8-23.5,30.5c17.1,2.7,31,13.8,46.7,19 c2.3-14.8,1-29.3,6.4-43.4c3.2-8.3,4-17.8,4.6-26.8c0.5-6.4,1.9-12.1,5.5-17.3c7-10.3,13.9-20.6,21-30.8c5.7-8.3,3.6-16.9,1.2-25.5 c-0.6-2-1.4-4-2.1-6.1c14.4,0.2,12.4,11.7,14.2,21.5c3-2.2,5.4-3.5,7.3-5.4c8.1-8.1,15.9-16.4,23.9-24.5c4.5-4.5,7.9-9.2,6.9-16.2 c-0.4-2.7,0-5.9,4.2-5.5c0.3,0.3,0.6,0.6,0.6,0.8c0.7,9.6,0.7,9.9,10.5,9.7c11.3-0.3,22.6-1.2,33.8-2.1c5.5-0.4,7.5-2.7,7.9-8.4 c0.3-4.6,0.1-9.2,0.3-13.9c2.5,6.9,4.8,13.9-0.4,22.1c5-0.3,8.5-0.6,12.1-0.7c1.9-0.1,4.2-0.7,5.8,0c7.6,3.9,15.6,1.8,23.4,2.2 c3.3,0.2,6.7,1.2,10,2c1.8,0.4,3.5,1.1,5.2,1.8c6.7,2.6,13.5,5.3,20.2,7.9c1.8,0.7,3.5,1.3,5.1,1.9c0.9,1.3,1.6,3.4,2.8,3.8 c1.6,0.5,4.5,0.4,5.3-0.7c4.6-5.9,10.9-10.9,7.8-20.4c-2-6-1-12.3,5.8-16.2c3.4-1.9,6.2-5,10.1-8.1c-3.8,4.1-6.8,7.7-10.3,10.8 c-5.3,4.7-5.9,11.2-1,16.9c9.7-7,11.4-19.9,19.6-27.9c0.4,0.3,0.9,0.6,1.3,0.8c-6.4,10-12.9,19.9-19,30.1c-1.4,2.4-1.7,5.8-1.8,8.7 c-0.1,3.6,0.5,7.2,1,12.3c13.9-5.8,27.7-2.2,40.9,0c-1.4,0.4-3.6,1.1-7,2.2c2.3,6.4,4.7,12.8,7.1,19.3c0.5-0.2,1.1-0.3,1.6-0.5 c-0.6-3.3-1.3-6.5-1.9-9.8c0.5-0.2,1-0.3,1.5-0.5c1.2,2.7,2.4,5.3,4.1,9c3.8-3.4,7.1-6.4,10.7-9.6c-4.3,6.2,1.3,6.1,4.4,7.3 c6.3,2.3,7.9,1,11.1-9c2.3,3.1,2.6,5.2-0.6,8.9c-2.5,3-1.5,4.5,0.8,6.5c2.1,1.9,3.9,4,5.8,6.1c1.6,1.7,2.9,3.8,4.7,5.1 c4.9,3.5,10.2,2.6,13.6-2.4c3.1-4.8,6.9-8.2,12.4-10.2c2.4-0.9,4.3-3.2,5.8-4.3c8.8-0.8,15.8-6.4,25.1-8c-6.8,3.3-12.5,6.1-18,8.9 c-0.1,0.1,0.4,1.4,0.4,1.6c-9.2,1.5-17.4,4.8-22.8,13c-5.1,7.8-15,9.1-20.6,1.5c-5.2-7-12.2-10.5-19.5-13.9c-6.2-2.9-9-1.4-11.4,5 c-0.9,2.5-2.8,5-5,6.6c-3.8,2.7-4.9,6-4.3,10.3c0.8,5.9,1.6,11.8,2.2,17.8c0.6,5.4,0.9,10.9,1.5,17c5.6-1.6,9.9-4.9,13.3-9.6 c-13.5-13.1-13.5-13.1-13.8-18.1c1.4,2,1.9,3.4,2.9,4.2c4.1,3.8,8.1,7.7,12.7,10.9c1.1,0.8,4.4-0.9,6.3-2.1c2.3-1.4,4.2-3.4,6.3-5.2 c0.4,0.4,0.7,0.8,1,1.2c-2.6,2.3-5,5-7.8,6.9c-3.6,2.4-2.9,5.1-1.3,8.1c2,3.9,0.1,11.1-3.8,13.4c-3.6,2.2-7.3,4.2-10.8,6.5 c-0.8,0.6-1.5,2.2-1.3,3.2c1,6.2,2.1,12.5,3.5,18.6c0.3,1.2,2.1,2.9,3.3,3c7.2,0.2,11.6,4.6,15.2,10c2.1,3.2,4.7,4.8,8.4,5.4 c7.7,1.2,15.4,2.6,23.1,3.8c4.4,0.7,6.9-1.2,7.6-5.7c0.4-2.6,1.1-5.2,1.8-7.8c1-3.6,3.6-5.8,7.2-5.9c7-0.2,14.1-0.1,20.6-0.1 c-1.4,0.4-3.5,1.1-6.8,2.2c3.4,1.6,5.9,2.8,8.7,4.1c1.8-5.1,3.4-9.7,5-14.2c0.3,0.1,0.6,0.2,0.9,0.3c-1.3,4.3-2.6,8.7-3.8,13 c-2.8,9.6,0.4,17.9,5.6,25.7c0.7,1,2.9,1.5,4.3,1.3c6.5-0.8,13-1.9,19.5-2.9c0.1,0.5,0.2,1,0.3,1.5c-1.2,0.2-2.3,0.6-3.5,0.6 c-5.1,0.2-10.5-1.6-15,3.1c-1.9,2-9.4-3.6-10.4-7.6c-1.4-5.3-2.9-10.6-3.8-16c-0.8-4.9-5.3-5.5-8.4-6.7c-3.8-1.5-8.5-1.4-12.7-1.1 c-4.2,0.3-5.7,3.7-5.2,7.8c0.2,1.9-0.5,4.2-1.5,5.9c-1.3,2.3-3.3,4.1-5.6,6.7c14.4,11.6,22.8,27.2,30.2,45c3.8-2.9,7-5.9,10.7-8 c7.2-4.1,14.6-7.8,22-11.7c1.3-0.7,3-0.9,4-1.8c11.9-11,23.3-22.2,23.5-40.3c0.1-8.5-1.3-16.4-4.4-24.3c-1.9-4.8-2.3-10.2-3.4-15.7 c8.9,1.8,15.1-3,15.5-11.3c0.4-8.9,1.2-9.8,10-10.9c6.5-0.8,13.2-0.8,19.6-2c5.3-1,10.4-2.9,15.4-5c3.7-1.5,7.2-3.5,10.4-5.8 c7.6-5.4,14.9-4.2,21.3,1.4c6.2,5.4,11.5,11.9,11,20.8c-0.2,3.2-2.3,6.3-4,10.8c2.7-1.4,4.5-2.3,6.2-3.4c1.4-0.9,2.4-2.3,3.8-3.2 c9.7-6,8.3-4.4,4.1-14.2c-5.1-12.2-11.6-23.7-14.2-37.1c-2-10.5-4.6-21.2-9.3-30.6c-3.4-6.9-3.5-13.2-3.4-20.1 c0-0.9,0.5-1.8,0.7-2.8c0.6,0.3,1,0.4,1,0.5c-2.6,16.3,8.9,28.3,13.3,42.4c0.3,0.8,1.9,1.3,2.4,1.6c0,2.2-0.6,4.8,0.1,7 c2.8,8.9,5.6,17.7,9.1,26.3c2.5,6.1,6,11.7,9.1,17.8c6.7-1.3,11.2-6.1,11.1-13.1c-0.2-8.2,1.1-15.6,6.5-22.4c3.2-4,4.3-9.7,2.3-15.2 c-0.6-1.9-0.6-4,0-6.1c0.8,3.4,1.7,6.8,2.5,10.2c0,3.2-3.5,6.6-0.2,10.9c-6.5,2.9-9.7,8.5-9.5,16.2c0.1,2.7,0.1,5.4-0.2,8 c-0.5,3.6,1.3,5.6,4.4,4.8c7.7-2,14.2,1.4,21.1,3.5c1.8,0.5,3.9,0.3,5.2,0.4c-2.7,1.7-5.6,1.7-10.7-0.4c-9.3-3.9-18-3.2-26.3,2.9 c-1.7,1.3-3.6,2.3-6.2,4c2.4,3.5,4.8,7,7.1,10.5c6,9,7.3,18.3,1.7,28c-4,6.9-7.6,14-8.2,23c2.9,0.2,5.6,0.2,8.3,0.5 c7,0.8,14.1,1.2,21.1,2.6c7.9,1.5,10.8,0.6,15.4-6.3c6.2-9.4,12.5-18.8,18.8-28.1c1.6-2.3,3.2-4.9,5.3-6.6 c8.6-6.7,8.4-15.6,6.6-24.9c-2.4-12.6-4.7-25.1-3.6-38.1c0.4-5.2-0.8-9.5-5.8-12.2c-1.4-0.8-2.2-2.6-4-4.7c5.7,0,10.4,0.6,14.9-0.2 c3-0.5,6.6-2.4,8.1-4.7c2-3.2-0.9-6.1-2.8-9.2c-6.2-9.9-13.1-19.6-14-32c-0.3-3.9-2-7.7-3.1-11.5c-0.6-2-1.3-3.9-1.9-5.8 c0.6-0.2,1.2-0.3,1.8-0.5c1.6,6.3,3.7,12.5,4.5,18.9c1.3,10.4,7.4,18.4,12.9,26.5c4.7,7,5.3,6.6,6.7,14.5c10.1-1.6,19.1-6,27.8-11.1 c0.5-0.3,0.7-1.4,1-2.2c1.4-3.7,1.9-8.1,4.4-10.8c7-7.9,3.9-15.7,1.2-23.8c-1.4-4.1-2.2-8.4-2.3-12.9c1.7,5.7,3.5,11.5,5,16.5 c6.3-2.7,12.2-4.8,17.5-7.7c2.7-1.5,4.5-4.6,6.5-6.6c0.3,3.2-3.9,7.4-8.3,8.9c-3.8,1.2-7.5,3.3-10.8,5.6c-1.5,1.1-2.6,4-2.3,5.8 c0.2,1.3,2.9,2.3,4.6,3.3c0.8,0.5,1.8,0.6,2.8,1.4c-5.6-1.3-7.3,2.3-9.1,6.2c-1.3,2.8-3.2,5.4-4.9,8.1c-2.1,3.3-3.3,6.2,4,7.4 c-3.6,1.6-5.6,2.4-8.3,3.6c5.7,4.8,6.6,11.3,6.9,17.9c-0.5,0.1-0.9,0.3-1.4,0.4c-0.3-1.1-0.5-2.1-0.8-3.2c-0.9-3.4-1.5-6.8-2.7-10 c-1.1-3-3.4-3.5-6.5-2.4c-12.8,5-25.6,9.9-39.3,15.1c1.4,2.8,2.9,5.8,4.6,9.3c-2.5,3.9-2.5,3.9,0.3,29.6c2.1-0.9,4.2-1.9,6.3-2.8 c0.6,0.4,1.2,0.8,1.7,1.3c-9.8,3.1-5.9,10.1-5.9,16c0,2.2,0.3,4.3,0.2,6.5c-0.3,3.9,1.4,6.3,5.1,7.1c-10.7,6-17.1,15.6-23.1,26 c-5.4,9.3-12,17.8-18.2,26.6c-3.6,5-8.6,4.8-13.9,3.4c-8-2.1-16-3.9-24.5-3.4c-6.6,0.3-11.3,3.2-15.7,7.5c-1,1-2.2,2.1-3,3.3 c-6.3,9.8-16.1,14.3-26.6,17.9c-2.1,0.7-4,2.2-6.8,3.8c4.9,2.8,9.1,5,13.2,7.4c8.4,5,16.9,9.9,25.1,15.2c7.3,4.7,15.5,5.6,23,3.6 c13.4-3.5,26.4-1,39.6-0.3c2.5,0.1,5.4-0.2,7.6-1.3c8-4.3,15.9-8.9,23.7-13.6c2.9-1.7,5.4-2.1,8.9-1.4c7.8,1.5,15.7,2.5,23.6,2.9 c9,0.5,18,0,26.9,0c4.5,0,8.3-1,11-5.3c1.6-2.5,4.4-4.6,7-6.2c8.7-5.3,13.3-13.2,10.4-22.6c-3.4-11.2-7.8-22.3-13.4-32.6 c-2.7-4.9-8.9-7.9-13.8-11.6c-2-1.5-4.5-2-6.7-3.2c-3.5-1.9-6.6-3.3-9.8,0.9c-1.7,2.2-6,3-6.6,5.1c-0.6,2.3,1.8,5.4,2.7,8.2 c0.3,1,0.2,2.1,0.4,4.3c-2.6-5-2.7-10.4-8.7-11.4c3.1-2.7,6.4-5,9-7.9c1.3-1.6,2.1-4.4,1.8-6.5c-0.6-3.5-2-7-3.5-10.3 c-6-13.2-4.6-26.4-1-40c1.2-4.4-0.3-9.5-0.5-13.3c1.2,2.2,3.1,5.7,4.9,9c-0.9,2-2.6,4.7-3.4,7.5c-4.3,15.4-1.8,30,5.3,44 c0.6,1.2,3.5,2.6,4.2,2.2c1.8-1.2,4.1-3.2,4.3-5.2c0.6-5.6,0.3-11.3,0.4-17c0-2.2,0.2-4.4,0.4-6.9c3-0.6,2.9-3.5,0.8-16 c1,1.3,1.7,2.2,2.5,3.4c6.8-5.5,3.9-12.9,4.6-19.7c2.7,5.3,1.7,14.9-1.8,18.7c-0.9,1-2.2,2.1-2.2,3.2c0.2,11.5-4,22.8-2.4,34.4 c0.2,1.2,1.2,3,2.2,3.3c5.3,1.8,10.6,3.6,16,4.6c4.4,0.8,13.5-6.8,15-11.7c0.5-1.7,0.9-3.3,2.2-4.9c0.1,1,0.5,2.1,0.3,3 c-1.8,8.5-10.3,14.6-17.2,15.3c-4.6,0.4-9.4-2-14.2-3c-2.4-0.5-4.9-0.7-7.4-1c-0.2,0.6-0.4,1.2-0.5,1.8c2.8,1.5,5.5,3.2,8.5,4.3 c11.1,4.5,20,11.1,23.7,23.2c1.4,4.4,3.5,8.6,5.2,13c2.2,5.7,4.2,11.4,6.4,17.6c4.1-2.6,6.4-7.1,7.8-11.9c1.8-6.4,2.8-13,4.2-19.5 c2.6-11.7,5.7-23.1,14.1-32.3c2.8-3,5.5-5.3,10.3-4.7c2.2,0.3,5.4-1.3,6.9-3.1c4.7-5.7,9.1-11.8,13.2-18c1.2-1.8,1.2-4.4,1.3-6.7 c0.3-7.8,0.1-15.7,0.8-23.5c0.4-5.5-0.7-9.1-5.5-12.7c-6.8-5.1-13.7-9.5-21.8-12.5c3.1,0.9,6.2,1.7,10,2.7c-0.9-5.8-1.6-11-2.4-16.2 c0.4-0.1,0.7-0.1,1.1-0.2c0.3,1.7,0.8,3.3,0.9,5c0.1,8.1,4.3,13.8,10.8,18c5.2,3.4,10.9,6.3,9.1,14.5c0.6-0.1,1.2-0.2,1.8-0.3 c1.4-6.8,2.9-13.7,4.5-21.3c0,3.6,0,6.5,0,10c5.6-1.6,10.6-2.8,15.3-4.6c1.2-0.4,1.7-2.6,2.4-3.8c0.1,1.1,0.3,2.6,0.4,4.1 c-4.2,1.4-8.3,3.2-12.6,4c-6.2,1.2-7.6,5.4-8.5,10.7c-0.4,2.2-1.8,4.2-2.7,6.3c-0.5,1.2-1.1,2.4-1.2,3.6c-0.2,3.5-0.1,7-0.1,10.5 c0,4.5,0,9.1,0,14.6c1.3-1.2,2.4-2.4,3.7-3.4c2.3-1.6,4.6-4.5,7-4.5c14.1,0.1,24.3-6.7,32.8-17c0.5-0.6,1.1-1.2,1.7-1.8 c0.1-0.1,0.2,0,0.8,0.1c-1,1.5-1.9,2.9-2.7,4.1c9.1,0,18.1,0,27.1,0c0,0.3,0,0.5,0.1,0.8c-6.1,0.2-12.2,0.8-18.4,0.7 c-6.5-0.1-12.2,1.5-16.7,6.2c-6.2,6.5-14.3,7.9-22.7,8.6c-3.1,0.2-5.5,0.9-6,4.6c-0.1,1-1.5,2.5-2.5,2.6c-8.5,0.9-10.5,8.8-16,14.2 c2.9,1.1,5.2,1.6,7.1,2.8c3.6,2.2,6.8,5,10.4,7.1c3.3,1.9,6.8,3.8,10.5,4.9c6.6,2.1,13.5,3.6,20.2,5.4c-0.2,0.8-0.3,1.5-0.5,2.3 c-1.8-0.4-3.7-0.7-5.5-1.2c-5.3-1.5-10.6-3.3-15.9-4.7c-2.5-0.7-4.2,0.4-5.1,3.3c-1.2,3.9-2.3,4.1-6,3.4c1.3-1.8,3.8-3.8,3.6-5.5 c-0.3-2.3-2.3-4.7-4.2-6.4c-2.4-2.2-5.2-4.2-8.2-5.6c-3.9-1.8-7.9-3.2-12.3-0.8c-4.9,2.7-11.9,2-14.9,7.9 c-3.5,7.1-6.5,14.4-9.1,21.9c-1.2,3.3,6.8,11.5,11,11.9c1.5,0.2,3,0,4.6,1c-2.3,0.2-4.7,0.4-7,0.5c-0.6,1.8-1.2,3.6-1.8,5.5 c1.1-5.6-0.4-8.9-7.4-13.5c-1.6,7.4-3.1,14.7-4.9,22.8c8.3-1.8,16.8,3,23.8-3.4c2.1-1.9,3.5-4.5,5.3-6.6c2-2.3,4-4.6,6.1-6.9 c0.5,0.5,1.1,1,1.6,1.6c-1.2,0.6-2.4,1.1-3.8,1.8c2.2,2,3.6,3.3,5,4.7c-0.1,0.2-0.3,0.5-0.4,0.7c-1.9-1.3-3.7-2.5-5.8-4 c-3.9,15.3-15.3,15.3-27.8,13.3c-0.2,0.5-0.4,1-0.6,1.5c2.1,2.5,4.1,4.9,6.2,7.4c-0.1,0.2-0.2,0.3-0.3,0.5c-2.8-2.4-5.7-4.9-9.2-7.9 c-11.3,13.1-23,26.7-35.6,41.2c5.2,3,10.6,6.9,16.5,9.4c6.1,2.5,12.7,5.1,19.1,5.2c7.1,0.1,14.4-2.1,21.3-4.2 c8.5-2.6,16.7-6.3,25-9.5c6.7-2.5,8.5-6.2,8.5-12.9c0-11.5,0.7-23,1.5-34.4c0.2-2.2,2.2-4.4,3.6-6.4c3.6-5.1,4.3-10.6,2.5-16.6 c-0.4-1.2,0.4-2.8,0.7-4.1c0.4,0.1,0.8,0.1,1.2,0.2c0.3,5.3,0.6,10.7,1,16.8c7.1-1.4,13.5-2.6,19.9-3.9l0.3,0.3 c-1.1,0.8-2,2-3.2,2.2c-5,1.1-10.1,1.5-15,2.8c-5.8,1.6-7.9,4.9-8,11.1c-0.3,11-0.7,21.9-0.8,32.9c-0.1,7,1,8.1,7.8,9.7 c1.4,0.3,2.8,0.5,4.2,1.6c-1.4,0.5-2.7,1-4.4,1.6c1.8,7.3,3.8,15,12.1,16.8c5,1.1,8.9,3.1,13.1,5.7c4.3,2.7,8.4-0.9,11.9-3.8 l0.3,0.3c-2.3,2.5-4.6,4.9-7.1,7.7c5.3,5.4,13.4,5.7,18.7,3.5c12-5,22.3-13.1,21.1-28.8c0,3.5,0,7.1,0,11.1c3.1-1.1,5.8-2.1,7.3-2.6 c-8.4,7.2-17.5,15-27.1,23.3c4.9,12,10.1,24.6,15.3,37.2c-0.4,0.2-0.8,0.4-1.2,0.5c-0.5-1-0.9-1.9-1.4-2.9c-4.2-9-8.4-18-12.7-26.9 c-0.3-0.6-0.5-1.2-0.7-1.9c-1.7-5.8-5.4-8.1-11.2-6.5c-1.1,0.3-2.4,1.9-2.5,3c-0.4,3.4-0.3,7-0.2,10.4c0,2.1,0.5,4.1,0.7,6.2 c-0.5,0-1.1,0.1-1.6,0.1c-0.2-4.9-0.9-9.8-0.5-14.6c0.3-4.3-0.5-6.9-5-8.2c-1.9-0.6-3.5-2.3-4.3-2.9c-2.8,1-4.9,1.5-6.8,2.5 c-5.6,2.7-9.9,6.5-11.7,12.7c-0.5,1.6-1.3,3.2-2.6,4.8c1.3-4.7,4.3-9.3-2-12.8c-3.9-2.1-5.4-8.4-11.7-6.3c0-0.6,0.1-1.2,0.1-1.8 c1.8,0,4-0.6,5.4,0.1c2.7,1.5,5.3,3.5,7.5,5.7c2.7,2.7,5,2.4,7.7,0.1c2.1-1.9,4.4-3.5,7.6-6c-1.4-1.5-2.5-3.7-4.2-4.2 c-9.1-2.9-15.2-8.4-17.7-17.9c-0.5-2.1-2.8-4.9-4.6-5.2c-1.7-0.3-3.9,2.2-4.2,3.8c1.5,4.2,3.5,8.3,4.2,12.6c0.7,4.7,2.2,6.4,6.8,4.3 c0.5-0.2,1.3,0,2.1,0c-4.4,3.6-7,3.4-10.4-0.2c-0.9-1-2.8-1.2-4.5-1.8c4.3-1.4,3.8-4.5,2.1-7.7c-1.9-3.7-5.3-5.4-9.2-4 c-8.2,2.8-16.1,6.2-24.2,9.2c-5.7,2.1-11.5,3.7-17.8,5.7c-0.1,0.5-0.2,2-0.4,3.4c-1.3-0.7-2.6-1.5-3.9-2.2c-3.1-1.4-6.3-3-9.5-4.1 c-4.5-1.6-9.1-3-14-4.6c-0.4,0.9-0.9,1.8-1.3,2.6c-2,4.1-1.6,9.6-9,9.8c-5,0.1-9,0.5-13.3-2.9c-4.9-3.9-10.6-6.8-16.1-9.7 c-1.6-0.9-3.8-0.7-5.9-1c-0.5,2.2-0.9,3.8-1.2,5.5c-0.2,0-0.5,0-0.7,0c-0.3-1.9,0.1-4.1-0.9-5.5c-1.2-1.6-3.5-2.4-5.2-3.5 c0.5-0.4,1-0.9,1.4-1.3c5.9,1.8,11.9,3.1,17.5,5.4c3.9,1.6,7.6,4.1,10.8,6.9c3.8,3.3,7.8,3.9,12.5,3.1c3.9-0.6,5.6-2.9,6.6-6.5 c0.9-3.4-0.4-5.7-3-7.8c-6.8-5.5-14.2-8-23.3-7.6c-13.2,0.6-26.5-0.5-39.7-1.1c-4.8-0.2-9.1,0-13.2,3c-9.5,7-19.8,12.3-31.9,12.7 c-0.6,0-1.3,0.2-1.9,0.6c-3.9,2.3-7.8,3.6-12.3,0c3.3,12.1-1.7,23.2-2,34.5c-0.2,5.7-0.3,11.4,5.4,15.7c2.1,1.6,2.3,6,3.2,9.1 c0.9,3.1,1.6,6.3,1.4,9.8c-1.7-5.5-3.4-10.9-5-16.2c-7.5-0.1-8.6,5.6-10.5,10.9c-2.8-7.2,3.7-9.3,6.7-13.6 c-5.2-5.9-2.9-12.8-2.8-19.5c0.2-9.5,0.4-18.9,0.6-28.4c0.1-2.7-1.2-3.6-3.9-4c-7.3-1-12.8,1.3-16.4,7.8c-2.7,4.9-5.4,9.3-11.5,10.5 c-1.9,0.4-3.5,2.4-5.1,3.7c-1.1-0.6-2.3-1.9-3.3-1.8c-4.7,0.7-7.3-2.1-10.2-5c-7.3-7.3-12.8-8.1-21.9-3.4c-3.3,1.7-6.4,3.6-9.7,5.2 c-5.5,2.6-7.2,7.2-9,12.7c-2.4,7.3-3.6,15.9-11.5,20.5c-4.1,2.4-8.3,5.3-8,10.3c-2.9,1.2-5.5,2.4-8.5,3.7c-1-4.5-3.3-7.5-8.9-4.8 c0.1-0.5,0.1-1,0.2-1.4c2.3-0.5,4.6-1.1,6.9-1.6c2.9,6.2,4.8,6.1,9,0.6c2.4-3.1,5.5-5.6,8.1-8.5c2.2-2.6,4.6-5.2,5.7-8.3 c1.9-5,2.5-10.5,4.3-15.6c1.1-2.9,2.9-6.1,5.4-7.9c5.8-4.1,12.2-7.5,18.4-11c4.7-2.6,17.2,0.3,20.5,4.6c4.4,5.8,15.6,6.8,20.8,1.5 c1.3-1.3,1.8-3.9,1.7-5.8c-0.1-0.9-2.6-2.1-4.1-2.2c-13.4-1.4-24.2-8.1-34.9-15.6c-5.8-4.1-11.9-8-18.4-11c-3-1.4-7.1-0.5-10.7-0.3 c-16.1,1-32.1,2.7-48.2,3.1c-5.6,0.2-11.4-1.8-16.8-3.8c-7.4-2.8-13.8-2.3-20.2,2.2c-6.7,4.7-13.1,9.8-20.4,13.4 c-7,3.6-14.7,6.7-22.4,7.9c-15.1,2.3-28.3,8.1-40.2,17.4c-3.7,2.9-7.4,5.9-11.1,8.8c7.5,8.7,11.9,9.7,22.3,5.6c2-0.8,4.1-1.5,6.1-2 c11.2-2.9,18.7,4.7,15.9,16c-1,4-1.5,8.1-1.9,12.2c-0.3,3.1,1.6,4,4.1,2.4c6.4-4,13.9-6.7,17.7-14c1.9-3.7,5.2-4.8,8.1-3.9 c3,7.4,5.7,14.1,8.4,20.6c6.1-1.4,8.9-4.8,10.5-9.8c2.1-6.8,4.4-13.4,3.3-20.8c-0.7-4.7-0.2-9.7,0.2-14.5c0.3-4,1.2-8-3.2-10.6 c-0.6-0.3-1-1.4-1-2.2c-0.5-6.2-1-12.5-1.5-19.4c5.1,6.7,0,15.7,6.6,21.3c0.1-1.5,0.2-2.9,0.4-4.6c9.8,9.6,15.3,0.1,22.5-4.1 c-1,1.7-2,3.3-3,5c5.5,1.1,9.8-1,11.3-5.8c0.4,1.4,0.7,2.4,1.3,4.7c6.2-3.4,12-6.5,18.2-9.9c-1.7,1.8-3.1,3.3-5.3,5.6 c5.8,0,10.8,0,15.8,0c0,0.4,0,0.9,0,1.3c-5.8,0-11.6,0-17.4,0c-0.1,0.5-0.1,0.9-0.2,1.4c7.7,1.9,15.4,3.8,23.1,5.6 c-0.1,0.3-0.1,0.7-0.2,1c-4.9-1.1-9.9-1.9-14.8-3.3c-7.7-2.2-14.8-2.7-22.5,0.8c-5.7,2.5-12.6,2.5-19,3.7c-2.3,0.4-4.5,0.8-7.4,1.3 c0,9.7,0.2,19.2-0.1,28.6c-0.4,11.4-2.9,21.7-12.9,29.4c-3.9,3-5.8,8.8-8.1,13.5c-4.6,9.5-9.6,18.5-17.5,25.7 c-0.5,0.5-1.4,0.6-3.2,0.1c2.3-3.4,4.8-6.7,7-10.2c5-8,10-16,14.9-24c0.5-0.8,0.5-2.3,0.1-3.1c-3.2-6-6.5-11.8-9.6-17.3 c-6.3,4.7-12.7,9.8-19.4,14.4c-7.3,5-12.7,2.6-13.4-6c-0.5-5.8-0.1-11.6,0.3-17.4c0.3-4.4-1.7-6-5.6-5.2c-3.2,0.6-6.3,2-9.5,2.7 c-4.5,1.1-9,2.3-13.6,2.7c-1.7,0.1-3.9-1.6-5.4-2.9c-11.8-10.8-11-10.4-22.9,1.1c-3.5,3.3-8.9,5-11.5,8.8c-3.7,5.4-11.5,6-13.3,13.4 c-1,3.9-3.8,7.6-9.2,6.5c-0.6-0.1-1.4,0-1.9,0.3c-6.7,3.5-13.4,7.2-20.1,10.7c-3.8,2-7.7,3.8-11.6,5.6c-0.3,0.1-0.8,0-1,0.2 c-6,6.3-14.1,8.9-21.8,12.1c-3.3,1.4-4.3,4.5-3.3,8c1.4,5,3.2,9.8,4.1,14.9c1,5.6,1.2,11.4,1.8,17.1c0.5,5.1,0.8,10.2,1.3,15.3 c1,10-3.3,18.3-9.8,27.1c17.6-1.9,34.2,2.3,50.6-4.5c16.4-6.9,33-14.1,51.3-15.3c13.8-0.9,27.5-2.8,41.2,2.5c7.4,2.9,16,3.5,24,3.6 c19.6,0.2,39.1-1,58.7-0.7c9,0.2,18.1,2.1,26.9,4.4c11.8,3.2,23.3,7.5,34.9,11.5c8.8,3.1,17.8,3.5,27,2.3c1.9-0.2,3.9-0.1,5.8,0.4 c9.4,2.7,18.8,5.4,28.1,8.3c5.5,1.7,11.1,3.5,16.3,5.9c7,3.2,13.7,7.1,20.6,10.7c1.1,0.6,2.4,0.9,4.8,1.8 c-1.9-6.4-3.6-11.9-5.3-17.4c0.5-0.2,1-0.4,1.6-0.6c2.3,4.4,5,8.7,6.9,13.3c2.9,7.1,7.4,10.8,15.1,11.4c1.8,0.1,3.6,0.3,5.3,0.8 c8.9,2.9,16.6-0.4,24.1-4.5c4.3-2.4,8.3-5.1,13-6.9c-5.9,7.7-14.2,11.9-22.6,16.2c0,0.6,0,1.1,0,1.7c3.6,0.5,7.3,1.9,10.7,1.4 c8.9-1.5,16.6,2.3,24.7,4.3c16.9,4.2,33.6,9.5,50.6,13c10.1,2.1,20.7,1.6,31.1,1.9c1.9,0.1,4.1-1.3,5.8-2.5c5.1-3.4,10-7,15-10.6 c4.7-3.3,5.3-9.5,2.1-11.9c2.9-3.7,5.8-7.4,8.5-10.9c-1.5-1.7-2.7-3-3.8-4.3c3.9,2.8,6.6,0.8,9.3-1.7c8-7.5,16.3-14.6,23.7-22.6 c2.9-3.1,4-8.2,5.3-12.6c0.5-1.8-0.6-4-1-6c-2,0.4-4.2,0.6-6.1,1.3c-1.5,0.5-2.9,1.6-4.3,2.5c-0.2-0.4-0.5-0.8-0.7-1.2 c3.2-1.8,6.4-3.5,10.4-5.7c-2.1-3.5-4.2-7-6.2-10.7c-1-1.8-1.8-3.8-2.5-5.8c-2.7-7.5-6.4-8.5-12.3-3.3c-0.7,0.6-1.5,1.1-2.6,1.2 c2.9-2.3,2.4-8,8.1-7.6c5.7,0.4,8.2,4.1,10.1,8.9c1,2.5,3.1,4.6,5.4,8c3.8-6.5,6.7-11.5,10-17.2c3,5.5,0.8,9.2-1.8,12.6 c-4.1,5.5-3.7,10.6,1.3,17.2c2.4-3,4.3-6,6.9-8.4c4.7-4.3,10.3-7.9,14.7-12.5c12.5-13,24.7-26.4,37-39.7c0.5-0.6,1.2-1.5,1.8-1.6 c6.1-0.5,12.1-1,18.2-1.2c1.1,0,2.2,1.2,2.9,3c-4.1,0.3-8.2,0.7-12.4,0.9c-4.7,0.2-8.6,1.7-11.7,5.6c-6.4,7.8-12.8,15.6-19.6,23.1 c-4,4.4-9.4,7.8-12.9,12.5c-3.2,4.4-7.5,6.7-11.6,9.8c-6,4.5-11.8,9.7-14.2,17.5c-3.1,10.5-8.6,19.5-17.8,25.8 c-5.6,3.9-9.7,9.3-15.1,13.5c-6.7,5.2-8.1,13.5-8.7,21.6c-0.1,1.1,0.8,2.5,1.7,3.3c8.4,8,18,14.5,28.8,18.1 c11.4,3.8,23.5,5.5,35.4,7.6c1.9,0.3,4.3-1.8,6.7-3c-0.3,0.9-0.5,1.6-1.2,3.4c6.8-1.9,12.9-4.1,19.2-5.1c7.5-1.2,11-5.5,13.9-12.2 c2.2-5.2,6.1-9.9,9.9-14.1c5.8-6.3,10.2-13.1,13.6-21.2c3.8-9.1,10-17.2,15.1-25.7c0.5,0.3,1,0.6,1.5,0.8 c-7,13.6-14.1,27.2-21.2,41.1c2.3,1.3,4,2.4,5.8,3.4c-9.2-4.4-12.9,3.1-16.3,8.4c-4,6.3-6.2,13.8-9.5,20.6c-0.8,1.7-2.8,3.7-4.5,4.1 c-8,2-16.2,3.4-24.3,5.1c-1.9,0.4-3.8,1-5.8,1.6c2.4,6.8,4.4,13.2,6.9,19.5c2.2,5.3,5.1,10.3,7.3,15.6c1,2.3,1.3,5,1.3,7.6 c0.1,5.1-0.6,10.3-0.3,15.4c0.2,2.5,1,6.3,5.4,3.9c-0.5,5.4,1.2,8.1,6.5,10c5.7,2.1,10.8,1.1,13.3-2.8c2.9-4.5,5.7-9,8.4-13.6 c0.4-0.6,0.2-1.6,0.4-3.1c4.9-2.4,8.9-13.5,6.6-22.1c2.6,3.8,4.6,6.8,6.7,9.8c-0.8,0-2.4,0-4.6,0c0.4,13.6-11,21-15.9,31.8 c0.2,0.2,0.3,0.7,0.6,0.7c6.3,1.9,10.8,5.5,13.3,12c2.7,7.2,8.6,11.2,15.9,13c3,0.8,4.4,2.7,3.4,6.4c-5.5-2.6-10.8-5.1-16.8-8 c-0.3,3.3-0.6,6-0.9,8.7c0.7-8.7-2.9-15.9-7.8-22.6c-6.3-8.5-15.3-3.6-23.9-5.6c0.3,5.7-0.2,10.8,1,15.5c1.7,6.7,2.3,12.9-2.7,20.1 c0.4-3,0.8-4.7,0.8-6.4c0-3.7-0.3-7.4-0.5-11.1c-0.1-2.1-0.4-4.3-0.4-6.4c0.1-7.1-1.6-13.4-6.6-18.7c-6.1-6.4-9.3-14.1-9-23.1 c0.2-4.5-4-4.2-6.6-5.3c-1-0.4-2.7,0.8-4.9,1.5c2.7,2.4,4.3,3.9,6,5.4c-0.2,0.2-0.3,0.4-0.5,0.6c-1.5-1-3.1-2-5.4-3.4 c-2.4,11.4-10.3,15-19.7,15.7c4.4-2.2,10.2-3.5,13.7-7.2c3.6-3.7,4.8-9.7,7.2-14.9c-2.2-3.2-4.5-6.6-6.9-10.1 c-5.9,2.1-13.5,1.2-15.3-2.4c5,1.7,9.8,3.7,14.6,0.2c-3.1-11.9-10-20.5-21.5-25.2c6.7-1,11.2,2.6,15.4,6.9c1.5-2.2,2.4-3.6,3.4-5 c0.3,0.1,0.6,0.3,0.9,0.4c-0.5,1.2-1.4,2.5-1.4,3.7c0,1.7,0.3,4.5,1.3,5c2.4,1.1,5.3,1.2,8,1.7c-0.4-2.4-0.3-5-1.2-7.2 c-1.5-3.8-4.9-5.5-8.9-6.4c-13.6-3.2-27.7-4.8-39.6-13.1c-1.2-0.8-2.7-1.2-4.3-1.9c-1.3,6.3-2.5,12.2-3.9,19.6 c3.3-2.5,5.6-4.2,7.9-6c-2.2,3.2-2.2,8.5-8,8.1c-0.6,0-2,2.7-1.9,4c0.2,2.1,1,4.4,2.3,5.9c4.2,4.8,8.7,9.4,13.3,13.7 c3,2.8,6.6,5.1,9.8,7.6c3.7,2.8,7.3,5.6,10.8,8.3c-2.8,0.8-6.2,1.9-9.6,2.9c1.7-6.9-4.7-9.3-9.5-12.9c-5.9-4.5-12-8.7-17.4-13.7 c-2.1-1.9-2.5-5.7-3.8-8.5c-1-2.1-1.7-4.5-3.3-6c-4.9-4.9-9.8-10.2-15.5-14c-4.3-2.8-9.9-4.4-15.2-5.1c-15.8-2.1-31.7-2.9-47.4-5.6 c-10.5-1.8-20.6-5.9-32-9.3c-1.9,5-3.2,9.7-5.5,13.8c-3,5.3-7,10.1-10.2,15.3c-2.7,4.4-4.9,9-6.9,13.7c-0.4,1,0.6,3.4,1.7,4.2 c2.5,2,5.5,3.4,8.2,5.1c-0.1,0.5-0.2,0.9-0.4,1.4c-1.8-0.1-4,0.4-5.4-0.5c-5.6-3.5-10.5-1.7-16.1,0.4c-8.6,3.3-17.6,5.7-26.4,8.6 c-4.1,1.3-8,3-12.9,4.8c5.7,7.4,10.1,14.8,16.1,20.5c3.3,3.2,8.6,5.8,14.2,3.3c2.9-1.3,5.8-2.2,8.9-3.4c-5.7,8-11.1,9.3-22.7,5.2 c-3.8,9.6-7.7,19.1-11.4,28.8c-0.4,1,0.5,3,1.4,3.8c0.5,0.4,2.4-0.5,3.6-1.2c1-0.5,1.7-1.5,3.4-3.1c0,2.9-0.5,4.9,0.1,6.6 c1.6,5.1,3.5,10.2,5.7,15.1c0.4,0.8,2.6,1.2,4,1.2c3.1-0.2,6.3-0.6,9.4-1.2c9.9-2,18.1,2.1,22.5,11.1c1.5,3.1,3.1,6.2,4.8,9.9 c4-2.8,7.5-5.4,11-7.9c0.2,0.3,0.4,0.6,0.6,0.9c-3.8,2.9-7.6,5.9-11.7,9.1c-0.6-0.4-1.6-1.1-2.9-1.9c-0.2,2.5-0.4,4.7-0.6,7 c-0.5,0-1,0-1.5,0c-0.2-2.7-0.7-5.4-0.6-8.1c0.2-10.5-6.5-17.6-17-17.7c-1.5,0-3,0-4.5,0.2c-8.2,0.9-8.7,1.5-10,9.7 c-0.5,2.9-1.4,5.8-2.6,8.5c-0.6,1.3-2.3,2.1-4.1,2.3c1.2-3.4,2.7-6.7,3.6-10.1c1.9-7.3-0.1-9.9-7.8-10.7c2.1-5.3-1.2-12.9-6.5-14.7 c-4.7-1.6-6.3-7.2-4.1-12.4c3.4-7.9,6.4-16,9.5-24c0.2-0.5-0.2-1.2-0.5-2.2c-2.5,1.8-4.7,3.4-6.9,5c1-1.1,1.9-2.3,2.9-3.3 c3.6-3.9,3.3-4.8-1.2-7.2c-9.2-5-18-1.7-26.7,1.2c-1.3,0.4-1.9,4.2-2,6.4c-0.1,2,0.8,4.2,1.6,6.1c1.1,2.6,2.6,6.9,4,7 c2.7,0.1,6.6-1.6,8.1-3.8c3.3-4.8,7.3-6.3,12.6-6c-5.4,2-10,5-13.8,9.6c-1.4,1.8-5.6,3.2-7.4,2.3c-2.3-1.1-3.6-4.5-5-7.1 c-0.8-1.7-0.8-3.8-1.4-6.6c-2,1.6-3.4,2.6-4.7,3.8c-0.7,0.7-1,1.8-1.8,2.4c-9.8,6.6-8.1,16.3-7.1,25.9c0.7,6.9,1.2,13.9,2,20.8 c0.2,1.9,0.9,3.8,1.3,5.1c4.1,2.1,7.1-6.3,10.8-0.2l-0.3,0.3c-6.6-0.8-10.1,3.1-8.7,9.4c1.1,4.9,2.3,9.8,2.5,14.7 c0.2,5.4,2.4,9.1,6.6,12.2c6.2,4.5,6.7,7.3,2.1,13.5c-1.7,2.3-1.5,4.1,0.8,5.4c5.2,2.9,10.5,5.7,15.9,8.3c1,0.5,3-0.1,3.9-0.9 c4.8-4.2,4.3-11.3-0.8-15.2c1.5,0.3,3.4,0,4.4,0.9c2.7,2.4,1.7,11.4-1.4,16.5c2.9,4,9.2,4.7,12.7,1.4c2.2-2.1,4.5-4,6.3-6.4 c1.4-1.9,2.1-4.3,2.8-6.5c1.1-3.3,1.9-6.7,3-10c2.3-6.7,4.6-13.4,7.2-19.9c1.9-4.6,4.3-9,6.5-13.5c0.4,0.2,0.7,0.3,1.1,0.5 c-0.3,1.2-0.2,2.9-1,3.7c-5.9,6.2-5.5,14.7-8.3,22c-1.4,3.7-3.9,7-5.1,10.7c-1,2.8-0.8,6-1.1,9.1c5.3,0.4,9.5,0.8,13.8,1.2 c0,0.4,0.1,0.8,0.1,1.2c-1.6,0.1-3.3,0.7-4.8,0.3c-7.8-1.9-12.7,1.6-16.1,7.5c4.6,7,11.5,4.9,18,5c3.4,0.1,6.8,1.1,10.3,1.8 c6,1.1,12.1,2.1,18,3.5c12.2,2.9,23.8,7.2,33.7,15.4c4.9,4.1,12.4,2.8,16.9-1.8c1.1-1.1,3.3-1.1,6.4-2.1c-1.6-1.9-3.3-3.6-4.5-5.5 c-0.8-1.2-1.1-2.8-1.7-4.2c1.6,0.1,3.7-0.4,4.7,0.4c2.9,2.6,5.4,5.7,8.8,9.5c-4.9,3.4-9.8,6.7-15.6,10.8c4.4,2.6,8.5,4.9,12.6,7.2 c1.6-3.6,2.9-6.5,4.2-9.4c0.4,0.1,0.8,0.2,1.3,0.4c0.1,0.5,0.3,1.1,0.2,1.6c-1.9,8.4-1.8,8.3,6,12.5c9.5,5,18.4,10.7,26,18.5 c1.5,1.5,3.3,3.1,5.2,3.7c1.8,0.5,4.6,0.4,6-0.7c2.5-1.9,4.4-2.4,7.2-0.8c5.3,3.1,17.1-1.5,19.8-7.4c1.6-3.5,3.1-7.1,5.5-10 c3.9-4.7,6.2-9.8,5.9-15.9c-0.1-2.4-0.6-4.8-0.9-6.7c2.5-5.6,5.1-11.1,8-17.6c5.3,3.5,11,7.4,15.6-0.6c0,0.9,0,1.8,0,2.9 c3.5-1.2,9.6,2,8.6-5.6c-0.6-0.2-0.9-0.5-1.2-0.4c-1.6,0.1-3.3,0.3-4.9,0.5c1.7-1.6,3.5-3.1,5.2-4.7c1,0.3,2.7,0.8,4.4,1.3 c-3.2,4-3,8.6-0.6,13.6c2.9,6.1,5.1,12.5,6.5,19.2c-1.3-3.3-2.5-6.6-4-9.8c-1.2-2.7-2.4-5.5-4.2-7.9c-3.9-5.3-7.3-5.5-12.4-1.3 c-1.4,1.1-2.9,2.2-4,3.1c-1.9-1.8-3.9-3.5-5.8-5.2c-5.8,5.3-9.1,24.5-6.2,27.8c-3.2,5.4-6.2,10.4-9,15.5c-1.2,2.2-3.2,5-2.6,7 c0.5,2.2,3.5,3.8,5.5,5.5c2.9,2.4,5.8,5.1,9,7c1.9,1.1,4.5,1,7.1,1.5c0.1-0.2-0.2,0.6-0.7,2.2c2.7,0.5,5.4,0.9,8,1.4 c0,0.4-0.1,0.7-0.1,1.1c-3.2-0.3-6.5-0.6-10.8-1c-0.3,2-1.1,4.6-0.6,6.9c0.1,0.8,3.6,0.9,5.5,1.3c1.1,0.2,2.3,0.1,3.4,0.4 c7.6,1.9,15.1,3.9,22.7,5.6c2.4,0.5,3.8,1.2,4.1,3.9c0.5,4.1,3,6.1,7.3,5.5c0.8-0.1,1.7,0,2.5,0c12.8,0.2,17-3.7,17.9-16.7 c0.3-3.6,0.5-7.3,1.1-10.9c0.5-2.5,1.7-4.9,2.8-7.1c-1.6,10.1-3.1,20.2-4.8,30.6c4.4,2.9,8-0.6,11.9-2.4c0.2,0.5,0.4,0.9,0.5,1.4 c-2.9,1.1-5.8,3.2-8.6,3.1c-5.2-0.2-9.4,0.9-12.7,5.2c-0.4,5.5,5.8,10.9,1.2,17.1c0-2.4,0.3-4.8-0.1-7c-2-10.8-2-10.8-13.1-11.2 c-3.8-0.1-7.3-0.5-8.4-5.2c-0.3-1.2-1.8-2.8-2.9-3.1c-8.7-2-17.5-3.9-26.2-5.6c-1.5-0.3-3.1,0.3-4.7,0.5c-0.2,0.6-0.5,1.1-0.7,1.7 c2.3,1.6,4.5,3.3,6.3,4.6c0,1.9-0.1,4,0,6c0.4,5-0.9,6-5.6,6.6c-2.1,0.2-4,2.8-5.8,4.5c-1.9,1.7-3.3,4.5-5.4,5.1 c-8.3,2.3-10,1.1-11-7.4c-1.1-9.2-4.6-17.5-9.2-25.3c-2.4-4.1-4.7-8.3-7.4-12.2c-0.7-1.1-2.7-1.8-4.1-1.8c-5,0-10.1,0.4-15.3,0.7 c-2.4,5.2-5.1,11.2-7.9,17.1c-0.3,0.6-0.7,1.3-0.6,1.9c0.9,7,2.7,13.8,5.6,19.8c-6.2,3.1,0.2,9.2-2.3,13.5 c-4.9-3.9-1.5-9.7-3.5-15.3c-5.6,2.3-11,4.5-17.2,7.1c2.1,2.5,4.4,5.2,6.6,7.9c-1.4,0-2.7,0-4.5,0c-3.6-7.1-8.7-9.9-17-8.7 c-1.4,0.2-2.7,1.6-5.3,3.3c-4.3-0.5-7.7-4.9-11.3-9.2c-6.9-8.3-15.5-8.9-22.6-1.4c-1.9,2-2.7,5.5-3.3,8.4c-0.5,3-0.1,6.1-1,9.3 c-0.5-4.9-1.1-9.8-1.7-15.3c-5.8,0-10.7-6-18.1-3.4c-0.2-0.3-1.1-1.4-2.1-2.5c-4.5-5.2-7.4-5.6-13.5-2.2c-1.4,0.8-3.4,1.4-4.8,1 c-11-3.1-22.2-5.9-32.9-10c-6.2-2.4-11.6-6.8-17.4-10.4c-8-5-19.3-3.2-27.6,0.9c-8.2,4-16.8,9.3-27.1,6.8c-1.6-0.4-3.7,1.5-6,2.6 c1.1-1.4,2.1-2.7,3.5-4.5c-4.6-3.1-8.8-7.4-13.8-9.2c-15.7-5.8-27.8-16.9-41.3-26.1c-4.6-3.1-10.6-4.1-16.1-5.6 c-1.1-0.3-3.2,1.3-4,2.5c-1,1.6-1.1,3.7-2.3,5.5c0.1-2.3,0.2-4.7,0.4-8.1c-5.6,0-11,0.1-16.4,0c-8.9-0.3-17.6-1.3-26.4-3.8 c-8.6-2.4-18.1-1.3-27.1-2.2c-4.7-0.5-9.9-0.9-13.8-3.2c-15.3-9.3-31.6-10.9-48.4-6.8c-8.9,2.2-15.9,0.1-22.3-5.8 c-7.9-7.3-17.2-8.6-27.4-6.2c-4.6,1.1-9.4,1.4-14.3,2.8c9.6,7.5,18,16.9,30,19.6c6,1.4,12.8,0.2,19.2-0.5c7.7-0.9,15.3-3.2,23.1-3.6 c6-0.3,12,1.8,18,2.3c14,1.2,28.2,1.4,42.1,3.2c7.8,1,15.2,4.4,22.8,6.7c2,0.6,4.1,1.3,6.1,1.9c0.6,0.2,1.9,0.2,1.9,0.3 c0.1,5.1,4.3,3.2,6.8,4.2c0.7,0.3,1.5,0.6,3,1.1c-2.1,0.4-3.3,0.6-5.1,1c3.8,10.7,5.2,22.1,13.1,31c2,2.3,3.6,2.7,6.4,1.7 c3.4-1.3,6.8-3.8,11.8-0.9c-6.2,2.1-11.5,3.8-16.7,5.6c-1,0.4-2.4,1.2-2.5,2c-0.5,4.4-0.4,8.9-0.9,13.3c-0.2,2-1.2,3.9-2.1,5.7 c-1.6,3-3.4,5.9-5.4,9.2c-0.3-0.9-0.6-1.5-0.5-1.7c6.2-8.8,6.6-19,6.8-29.1c0.1-2.7-1.3-5.8-2.9-8.1c-3.7-5.5-6.4-10.9-6.6-17.9 c-0.1-5.4-3-10-8.6-12.3c-5.4-2.2-10.3-6.1-15.8-7.2c-11.3-2.2-22.9-3-34.4-4.2c-4.6-0.5-9.2-0.6-13.8-0.8 c-8.9-0.3-17.9-0.7-26.8-0.5c-6.8,0.2-13.6,1.2-20.5,2.4c6.9,4.7,16.3,5.9,20.1,15.9c-10-11.3-21.6-15.7-36-14.3 c1.1,5.9,1.3,11.6,3.2,16.5c2.2,5.8-2.2,9.9-1.8,15c-0.6,0.1-1.1,0.2-1.7,0.3c-0.4-1.8-1.2-3.5-1.3-5.3c-0.3-5.9-0.4-11.9-0.6-17.8 c-0.2-5.8-4.9-10.7-13.2-12.8c-3.7-0.9-6.2-2.9-9-5.3c-5.9-5.1-12.3-9.6-18.7-14.1c-1.4-1-3.7-0.9-5.6-0.9 c-9.6,0.2-19.2,0.9-28.7,0.6c-8.7-0.3-14.3,4.4-19.7,9.9c-0.9,0.9-1.1,2.8-0.9,4.1c1.3,9,2.7,18,4.3,26.9c0.2,1,1.4,2.1,2.4,2.6 c4.8,2.3,9.6,4.6,14.5,6.5c1,0.4,2.8,0,3.8-0.7c11.8-7.8,24.6-13.1,38.7-15.4c-5.9,2.1-11.7,4.1-17.6,6.1 c11.5,4.4,22.7,8.3,34.8,2.3c-1,1.7-1.7,2.9-2.3,3.9c-2.3,0-5.3-0.7-7.9,0.1c-8.6,2.7-16.2-2-24.2-3.2c-7.6-1.1-11.9,2.3-16.3,6.9 c-1.1,1.2-2.1,2.6-3.4,4.3c7.2,8,14.9,15.8,24.9,20.7c5.6,2.8,10,6.8,13.3,12.2c-3.1,4.2-6.3,2.8-9.2,0.7c-7.7-5.4-15-11.5-23-16.3 c-8.9-5.3-18.4-9.7-27.9-14.1c-4.4-2-9.5-1.4-13.3,1.6c-4.8,3.8-8.8,8.7-13.5,12.9c-1.5,1.3-3.9,1.6-5.8,2.3c-0.2-1.7-1.2-3.8-0.5-5 c2.7-5.5,6-10.8,8.7-15.6c-4.8-1.5-10.2-3.1-15.4-5c-2.6-1-5.5-2.2-7.1-4.3c-4.8-6.4-11.7-8-18.8-9c-9.2-1.3-18.4-2.2-26.4-3.2 c-3.3,4.9-6.4,9.5-9.5,14.2c-4,6-8.1,12.1-12.1,18.1c-2.8,4.2-4.6,4.3-7,1.1c7.4-10.9,14.7-21.5,21.8-32.2c2-3,1.4-4.7-2.3-6.3 c-7.3-3.2-14.1-7.3-21.4-10.6c-6.7-3-13.7-5.8-20.7-8.1c-10.9-3.4-22.2-5.7-32.9-9.6c-17.3-6.2-33.7-14.4-48.8-24.9 c-3.3,4.4-3.2,25.9,0.5,31.5c3-1.7,6.1-3.4,9.2-5.1c4.3-2.4,8.3-5.2,13.9-2.8c1.9,0.9,4.8-0.4,7.2-0.7c1.9-0.3,3.8-0.7,6.2-0.2 c-1.4,1.1-2.8,2.3-4.8,3.9c3.3,0.7,6.1,1.3,8.9,1.9c-0.1,0.3-0.1,0.7-0.2,1c-1.5-0.1-3-0.2-4.5-0.4c-10.9-1.4-21.2,2-31.8,3.8 c-3,0.5-4.5,2.1-4.5,5.4c0,6-1.8,12.3-0.4,17.9c1.6,6.3,5.7,12.1,9.3,17.7c1.6,2.6,4.7,4.3,7.5,6.8c-2.5,4.1,8.7,6,3.8,11.5 c-1.2-2-1.8-4.9-3.6-5.9c-4-2.2-6.8,1.2-9.6,3.5c-2.2,1.7-2.7,3.6-1.5,6.9c1.2,3.3,0.5,7.5,0,11.3c-0.6,5.6-1.8,11.2-2.7,16.8 c-0.5,0-1.1,0-1.6,0c-0.1-1.5-0.5-3-0.3-4.4c0.9-6.2,2.1-12.5,2.9-18.7c0.3-1.9-0.3-3.9-0.5-6.6c-5.2,2.4-6.3,6.2-7.4,9.9 c-1.6,5.4-3.1,10.9-4.7,16.2c-0.3,1.1-1.3,2-2,3c-0.5-0.2-1-0.4-1.5-0.6c2.1-7.6,3.1-15.6,6.5-22.5c3.3-6.8,9-12.5,14.3-19.4 c-2-2.7-5-6.2-7.5-10.1c-2.5-3.9-4.5-8.1-7.4-13.3c-3.7,3.3-7.2,6.4-10.8,9.5c-0.2-0.1-0.4-0.3-0.6-0.4c1.1-1.3,2.1-2.8,3.4-4 c9.6-8.9,11.2-13.8,8.6-26.7c-2.7-0.6-5.4-1.2-8.4-1.9c-0.9,1.2-1.8,2.5-3.2,4.3c0.3-2,0.5-3.3,0.7-4.9c-6.3,0-12.4,0.3-18.4-0.2 c-2.4-0.2-4.8-2-6.9-3.5c-4.8-3.6-9.4-7.3-14-11.2c-1.8-1.6-3.1-3.8-4.9-5.4c-1.2-1.1-3-1.7-4.5-2.4c-3.3-1.4-7.7-1.2-8.4-6.4 c-0.1-0.8-3.3-1.7-5.1-1.8c-14.4-0.2-28.8-0.2-43.2-0.1c-2.4,0-5,0.6-7.2,1.6c-10.6,4.7-21.4,4.7-32.6,2.9 c-9.5-1.6-19.1-2.3-28.8-2.9c-23.2-1.3-46.3-2.7-69.6-0.7c-12,1-23.4,3.9-34.7,7.6c-8.6,2.8-17.3,6.3-26.7,3.7 c-0.3-0.1-0.6-0.2-1.2-0.4c0-24.5,0-49.1,0-73.2c9.2-1.6,18.1-3.4,27.1-4.5c5.5-0.6,11.2,0.6,16.7-0.2c4.2-0.6,8.4-2.8,12.2-4.9 c6.8-3.7,13.5-7.6,20-11.8c3.4-2.2,6.1-5.3,9.3-7.8c2.5-1.9,5-4.4,7.8-5c8.1-1.5,12.9-7.9,19.4-11.8c10.1-6,15.1-16.6,22.5-25.1 c0.5-0.6,1.2-1.2,1.7-1.8c1.1-1.4,2.3-2.8,3.4-4.3c-1.8-0.5-3.6-1.4-5.5-1.4c-8.8-0.2-17.6-0.5-26.4,0c-7.8,0.4-8.4,1.7-6.9,9.4 c0.7,3.6,1,7.2,0.8,11c-0.5-1.2-0.9-2.4-1.3-3.5c-0.6,0-1-0.1-1.2,0c-6,3.8-12,7.7-18,11.4c-7,4.3-11.3,10.5-13.6,18.3 c-1.1,3.8-2.5,7.6-3.7,11.3c-1.1,3.5-3.5,4.3-7,3.4c5.6-3.3,7-7.5,7.7-13.8c0.7-5.8,6.3-11.1,10.3-16.2c2.5-3.2,5.9-5.5,8.9-8.3 c-0.2-0.4-0.4-0.8-0.6-1.2C83.5,612.7,82.1,613.2,80.7,613.8L80.7,613.8z M897.7,726.1c2.9,3.9,6.7,5.7,11.6,4.8 c-1.2-7-1.7-7.3-8.3-6.2c-0.8,0.1-1.6,0.2-2.4,0.4c2.7-1.3,5.5-2.5,9.3-4.3c-0.4-1.7-0.2-5.6-1.8-6.5c-11-6.4-22.2-12.6-33.7-18 c-8.7-4.1-17.8-7.4-26.8-10.5c-7.3-2.5-14.8-5-22.5-6.4c-11.9-2.1-24-3.4-36-4.9c-4.6-0.6-10-2.4-13.7-0.7c-4.3,2-7.1,7.1-10.9,11.2 c11.3,6.8,22.6,10.2,34.4,12.4c4.8,0.9,9.8,1.5,14.3,3.3c4.5,1.9,8.5,5.1,12.7,7.7c0.4,0.2,0.9,0.1,1.5,0.1c0.6-1.3,1.1-2.6,1.7-3.8 c-0.3,0.3-0.7,0.6-1,0.8c1.9,3.3,3.2,7,5.7,9.6c4,4.1,9.1,7.1,13.2,11.1c7,6.8,14.9,7.9,23.8,5.4c6.2-1.8,12.5-3.5,18.8-4.9 C890.8,726.1,894.3,726.3,897.7,726.1z M859.6,479l0.1-0.1c-3.4-5.8-5.3-12.8-14-16.2c1.8,6.2,3.3,11.4,5,17.5 c-2.6,7.3-6.3,15.7-8.8,24.4c-2.6,8.9-3.8,18.1-6.1,27.1c-2.5,9.7-5.6,19.1-8.1,28.8c-2.5,9.5-4.5,19.2-6.7,28.8 c12.5-2.4,26.1-3.4,37.6-11.4c3.1-2.2,7.1-5.5,7.6-8.8c1-7.3,3.2-15.4-3-21.9c-0.1-0.1,0-0.5,0.1-1.3c1.3,0.7,2.6,1.1,3.5,1.9 c2.6,2.5,5.3,2.6,8,0.5c11.1-8.5,24.4-12.5,36.7-18.6c2.1-1.1,5.2-1.4,6.3-3.1c4.2-6.3,7.7-13.2,11.8-19.7c3.8-6.1,8.1-12,12.2-17.9 c0.8-1.2,1.8-2.2,2.9-3.6c-3.9-2.2-7.3-4.4-10.9-6.1c-9.7-4.5-18.5-11.2-29.7-12.2c-5.4-0.5-11-0.7-16-2.4 c-10.7-3.7-21.6-4.8-32.8-4.7c-2.2,0-4.3,0-6.5,0C854.3,465.8,859.4,470.9,859.6,479z M723.7,711.1c3.1-3.2,6-6.9,9.5-9.6 c4.6-3.4,9.7-6,15.7-9.5c-3.2-1.3-5-2.2-6.8-2.7c-5.3-1.4-10.8-2.3-15.8-4.2c-4.7-1.8-7.7-0.8-10.5,3.1c-4,5.7-9.1,10-16.2,11.1 c7-4.3,14.4-8.1,18.2-16.1c-12.5-8.1-32-16.2-40.4-13.9c3,1.6,5.7,2.5,7.8,4.1c1.7,1.3,5.8,2.1,2.5,6.5 c-11.6-13-26.5-15.8-43.1-16.2c-16.6-0.4-33.4-0.1-49.7-5c-7.5-2.2-15.8-1.9-23.7-2.8c-4.9-0.5-10.1-0.4-14.7-2 c-6.1-2.1-12-2.3-18.1-0.8c-2.7,0.7-5.4,1.4-8.1,2.1c1.3,2.9,2.3,5.9,3.9,8.6c4.7,7.9,8.4,16.2,18.1,20.1c7.7,3.1,14.7,6.9,23.6,5.6 c4.2-0.6,8.8,1.3,13.2,2.2c0.8,0.2,1.4,1.5,2.1,2.3c-0.9,0.3-1.8,0.9-2.7,0.8c-3.3-0.3-6.6-1.4-9.8-1c-12.7,1.4-23.3-3.7-33.3-10.6 c-2.4-1.7-5.1-3.4-6.7-5.8c-3.3-5-6.2-10.3-8.6-15.7c-1.5-3.4-3.7-5.4-6.9-5.5c-6.4-0.1-13-0.5-19.2,0.8 c-20.4,4.3-40.9,8.4-60.9,14.2c-17.4,5.1-34.2,12.3-51.3,18.6c-3.3,1.2-6.1,5.6-4.9,8.4c1.5,3.7,4.5,4.7,8.2,3.4 c7-2.5,14-5.2,21-7.6c1.9-0.6,4.1-0.5,6.1-0.7c0.1,2.2,0.8,4.6,0.2,6.6c-2.5,9.2-2.6,19.1-7.3,27.8c-0.9,1.7,0,4.4,0.1,6.6 c2.3-0.4,4.7-0.8,7-1.3c0.4-0.1,0.8-0.5,1.2-0.9c6.4-5.7,13-11.3,19.3-17.2c3.6-3.4,7.5-5.4,12.5-4.9c7.7,0.9,15.5,1.7,22.1,6.4 c1.4,1,2.4,2.3,3.6,3.5c-2.1,1.3-4.3,3.7-6.2,3.6c-5.6-0.5-11-2.1-16.6-3.1c-1.7-0.3-4.1-0.4-5.2,0.5c-8.3,7.2-16.3,14.8-24.4,22.2 c-0.1,0.1,0,0.3,0,0.9c3,1.9,6.2,3.9,9.4,5.9c16.8,10.5,35.3,15.9,55,17.1c5.7,0.3,11.3-0.8,14.6-6.6c0.9-1.5,2.6-2.6,4-3.7 c11.9-9.4,26.7-12.4,40.1-18.3c0.7-0.3,1.7-0.4,2.4-0.1c4.8,1.8,8.4-0.7,11.9-3.2c6.3-4.5,12.7-7.7,20.8-6.7c1,0.1,2.5-1.6,3.1-2.8 c0.6-1.1,0.5-2.6,0.7-4.4c4,4.4,3.2,8.9-1.2,10.7c2,4.6,5.6,6.8,10.3,5.1c11.4-4.2,22.7-8.9,34-13.5c4.4-1.8,8.5-4.5,13-5.9 c4.9-1.5,10.1-1.8,15-3.1c6.2-1.6,12.3-3.6,18.4-5.4c-3,1.9-5.8,4.6-9,5.5c-5.5,1.5-11.7,0.9-17,2.8c-10.5,3.8-20.7,8.8-30.9,13.3 c-2.5,1.1-4.8,2.4-7.2,3.6c2.8,0.7,5.3,0.5,7.7,0.2c12.5-1.5,24.4-0.4,33.9,9c4.2,4.2,9.1,5.1,14.6,4.4c5.3-0.7,10.5-1.5,15.8-2 c2.6-0.2,4-1,4.2-3.7c0.3-3,1-6,1.5-8.9c0.6,0.1,1.2,0.2,1.8,0.2c-0.4,2.2-0.6,4.5-1.1,6.7c-0.7,3.1-0.9,5.9,3.4,5.9 c10.3,0.1,18.1,6.7,27.3,9.8c3.9,1.3,7.8,2.6,11.8,3c8.7,1,17.5,1.2,26.2,2.2c9.9,1.1,19.7,2.8,29.6,4.1c3.1,0.4,5.7-0.5,5.4-3.9 c0.8,0.8,1.8,2.5,2.9,2.7c3.2,0.4,10.3-4.7,11.1-6.7c1.4,0.2,2.8,0.8,3.5,0.4c2.6-1.8,4.9-3.9,7.4-5.8c-4.3,4.3-8.7,8.6-12.8,12.7 c14.4,3.9,16.4,3.6,30.8,0.2c6.9-1.6,14.2-1.8,21.2-2.6c-1,1.5-2.1,1.9-3.3,2.1c-7.6,1.6-15.3,3-22.9,4.7c-1.2,0.3-2.2,1.6-3.3,2.4 c0.9,1.1,1.7,2.4,2.8,3.2c1.7,1.2,3.8,1.9,5.5,3c7.2,4.9,14.3,10.2,21.6,15c7.4,4.9,14.9,9.6,22.6,13.9c3.1,1.8,7.1,3.5,10.4,3.1 c5.3-0.7,10.3-3.1,15.5-4.9c13.1-4.5,25.8-6.2,37.1,4.5c2.3,2.1,5,3.9,7.9,5.1c7.2,2.9,14.4,5.7,21.8,7.9c7.8,2.3,15.9,5.8,23.7-0.5 c0.7-0.5,2.7-0.3,3.4,0.3c3,2.8,3.9,0.7,4.6-1.8c1-4.2,2-8.4,2.7-12.7c0.8-4.6,1.8-8.8,6.6-11.1c0.2,0.6,0.5,1,0.4,1.4 c-2.3,9-4.7,17.9-6.9,26.9c-0.3,1.3,0.2,3.7,1,4.2c3.9,2.1,7.9,4.3,12.2,5.2c2.5,0.6,6.4-0.2,8.2-1.9c3.7-3.5,3.1-8.3,2.1-13 c-10.7,0.7-10.7,0.7-11.3-5.8c1.7,1.4,3.4,2.8,5.1,4.1c-0.4,0.5-0.8,1.1-1.2,1.6c2.1-1,4.1-1.9,6.7-3.1c1.3,1.9,3.1,3.7,3.6,5.7 c0.5,2.2-0.3,4.7-0.5,7.4c2.8-0.3,5.3-1,7.4-0.6c3.4,0.7,7.1,1.7,9.8,3.7c3.4,2.5,5.7,6.4,8.7,9.5c2.4,2.4,4.8,1.6,7.6,0 c2.9-1.6,6.4-2.1,9.6-3c1.2-0.3,2.9-0.3,3.4-1.1c7.2-11.1,17.9-19.7,23-32.4c1.7-4.2,1.5-8-1.3-11.2c-8.2-9.2-18.6-15.4-29.5-20.7 c-5.8-2.8-9.5-1.3-13.4,4.4c-0.9-1.4-2-3.3-1.6-4.6c1.3-3.8,0.1-5.5-3.5-7.2c-6-2.8-11.9-6-17.1-10c-6.7-5.1-13.4-6.2-21.4-4.2 c-8.5,2.1-16.9,4.5-26.2,1.6c-6.5-2-12.3-4-16.1-9.7c-2.6-3.9-6.1-4-10.1-3.5c-3.2,0.3-4.4,2.1-3.3,5.1c1.6,4.7,3.3,9.4,5,14 c0.9,2.4,1.9,4.8,3,7.6c-1.6,0.5-2.8,0.9-3.7,1.2c-3.1-8.5-5.7-16.6-8.9-24.4c-2-4.9-8.7-9-12.7-7.8c-11.4,3.5-22.8,6-34.1,4.5 c-1.7,4.2-3.2,7.9-4.7,11.6c-0.4-0.2-0.8-0.3-1.1-0.5c0.6-1.6,1.4-3.3,1.9-4.9c2.1-5.9,1.3-6.9-4.7-8.8c-7-2.3-13.4-4.4-21.1-1.6 c-7.3,2.6-15.4,3.1-23.7,4.6c1,2,1.6,3.1,2.2,4.2c3.9,7.1,7.6,14.2,11.7,21.1c2.8,4.6,6.2,8.9,9.3,13.3c4.3,6,8.9,11.9,13,18.1 c0.9,1.4,0.3,3.9,0.3,5.9c-1.7-0.6-3.9-0.8-5.1-1.9c-3.5-3.6-6.8-7.5-10-11.5c-5.9-7.4-12.4-14.1-15.3-23.7 c-3.7-12.1-12.4-20.8-22.4-28.3c-2.1-1.6-4.2-3-6.3-0.1c-0.4-1.7-0.3-4.1-1.3-5c-9.1-7.4-18.1-15.2-28-21.4c-5.7-3.5-13-5.3-19.8-6 c-8.6-0.9-16.7-2.3-24.2-7c-3.3-2.1-7-3.7-10.7-5.2c-1.2-0.5-3.1-0.5-4.1,0.2c-8.5,5.8-16.9,11.8-25.4,17.7L723.7,711.1z M823,473.8 c-0.8,13.9-2.3,27.7-2.2,41.5c0.1,14,1.9,28,2.9,42c0.5,0,1.1,0,1.7-0.1c4.4-10.9,8.7-21.8,8.6-34c0-2.7,0.8-5.6,1.7-8.2 c1.7-5.2,4.3-10.2,5.6-15.5c2.4-9.3,7.4-18.3,4.3-28.6c-0.8-2.5-1-5.2-1.1-7.9c-0.1-3.6-1.8-5.9-5.1-7.1c-5.5-1.9-10.8-4.2-16.4-5.6 c-10.8-2.8-21.6-6-32.6-7.2c-10-1.2-20.2-0.1-30.4,0.1c-7,0.1-13.9,0.6-20.9,0.5c-11.6-0.2-23-2.2-33.8,5.7 c-9.7,7-20.9,11.9-32.7,18.4c3.9-3.5,6.7-6.7,10.1-8.8c7.3-4.6,14.9-8.5,22.4-12.9c1.2-0.7,1.9-2,3.2-3.4c-1.6-0.7-2.6-1.2-3.7-1.5 c-12.5-2.8-25-5.1-37.9-3.3c-13.7,1.9-27.2,3.7-39.5,11.1c-10.8,6.6-22.4,10.6-35.5,9.1c-5.9-0.7-12,0.7-17.9,0.5 c-9.4-0.3-18.9-0.9-28.3-1.8c-5-0.5-9.9-2.3-14.9-2.8c-5.2-0.5-10.5-0.2-15.7,0.2c-0.8,0.1-1.9,2.3-2,3.5c-0.1,7,0,14,0.1,21 c0,0.7,0.3,1.5,0.6,2.8c1.6-0.8,2.7-1.4,3.8-2c1.2-0.6,2.3-1.3,3.5-1.9c21.7-10,44.7-9.5,67.5-7.1c16.4,1.7,32.5,5.9,48.7,9 c0.1,0,0.2,0.2,0.7,1c-4.4,0-8.4,0-13.2,0c2,1.9,3.2,3,4.4,4.1c-4.6-2.2-8.5-5.7-13.1-6.9c-19.2-5-38.9-6.5-58.8-5.7 c-2,0.1-4.1,0.7-7.7,1.4c6.3,11.8,11.7,22.9,18,33.5c8.2,13.8,18.1,26.6,23.6,41.9c1.8,5.1,4.7,9.8,9.4,11.9 c4.8,2.2,10.4,2.7,14.8,3.7c-0.8,0.4-2.8,1.5-3.8,2c-5.3-1.8-10.4-3.6-15.2-5.2c0.9,6.6,2,12.3,2.4,18c0.2,3.4-2.4,7.4,3.4,8.6 c0.4,0.1,0.7,1.4,0.8,2.2c0.7,3.7,2.6,5.9,6.4,7.1c2.5,0.8,5.2,3,6.6,5.3c3,5.1,5.1,10.7,7.6,16.1c2.6,5.6,5.5,7.3,11.7,7 c9.3-0.5,18.6-1.5,27.9-1.1c9.1,0.4,15.2-3.9,21-9.7c0.6-0.6,1.5-1,2.3-1.5c0.4,0.5,0.8,0.9,1.2,1.4c-3.1,2.5-6.3,5-9.4,7.6 c0.4,0.5,0.8,0.9,1.2,1.4c0.8-0.1,1.6,0,2.4-0.2c15.5-3.6,31-7.2,46.5-10.8c21-4.9,41.9-10.2,63-14.4c11.7-2.4,20.9-7.1,26.1-18.2 c0.6-1.3,1.8-2.5,2.3-3.9c1.1-3.4,2.9-7,2.8-10.5c-0.5-13.2-1.4-26.5-2.5-39.7c-0.9-11.1-2.3-22.2,0.8-33.3c0.2-0.8,0.2-1.7-0.1-2.5 C818.1,484.1,821.7,479.1,823,473.8z M409.7,297.9c2.9-3.2,5.2-6.4,8.2-8.9c3.1-2.6,6.9-4.4,10.1-6.8c1.7-1.2,3.1-3,4.1-4.8 c2-3.8,3.7-7.8,5.4-11.7c2.4-5.3,0.9-8.8-4.5-11.2c-1.1-0.5-2.7-1-3.1-2c-1.8-3.7-3.5-7.5-4.9-11.4c-3.5-9.5-4.4-9.6-14.5-8.9 c-11.9,0.8-23.9,1-35.9,0.6c-7.6-0.2-8.3-0.6-11,6.6c-2.8,7.4-4.9,14.7-10.7,21.2c-6.5,7.2-11.4,15.8-19.3,21.9 c-4.1,3.2-7.2,7.6-11.1,10.9c-4.3,3.6-9,6.7-13.6,9.8c-3.6,2.4-7.4,4.8-11.3,6.7c-5.3,2.4-11,4.3-16.1,6.3c0.4,4.4,0.9,8.5,1.3,12.6 c0.6,5.8,2.1,7.7,7.7,7.2c8.8-0.7,18-0.4,26.1-5.1c1.2-0.7,2.9-0.9,4.3-0.6c16.7,3.7,32.8-1.2,48.9-3.7c14.7-2.2,29-7,43.5-10.6 c10.8-2.7,21.7-5,32.4-7.9c3.1-0.8,5.9-2.9,9.4-4.7c1,0,2.9,0.4,4.7-0.1c8.1-2.3,16.1-4.8,24.1-7.5c1.6-0.5,3.1-1.9,4.3-3.2 c6.1-6,12.8-11.5,14.7-20.6c0.7-3.3,1.8-6.6,2.8-9.8c0.6-1.7,1.5-3.3,2.2-5c0.7,0.2,1.3,0.4,2,0.6c-0.2,4,0.8,8.7-0.9,12 c-2.7,5.1,0.6,6.2,3.5,7.7c2.9,1.5,6.1,2.3,9.2,3.4c-1.8,4-1.8,4-6.5,2.8c-8.7-2.2-13.4-0.4-18.1,7.4c-1.4,2.3-2.2,4.8-3.4,7.2 c-0.6,1.1-1.4,2.9-2.2,3c-5.4,0.5-6.5,5-8.6,8.6c-2.7,4.9-5.6,9.7-8.5,14.7c4.1,1.6,7.1,1.9,9.8-1.5c5.4-6.8,11.1-13.4,16.6-20.2 c5.8-7.1,12.3-10.5,21.8-7c8.8,3.2,13,1.2,19-6.3c4.4-5.4,7.6-11.8,14.1-15.6c5.5-3.2,10.1-8,15.3-11.8c4.7-3.4,9.2-7.8,14.5-9.4 c4.8-1.5,6.5-3.9,8-8.6c-18.3-7.1-38.8-9.2-52.9-24.4c-1.6,1.2-2.5,1.9-3.8,2.8c0.3-7.1-5.1-5.6-8.7-6.2c-7.3-1.3-14.8-1.7-22.1-3.5 c-9-2.2-17.8-5.3-26.3-7.8c4.8,8.3,5.7,12.5,3.1,19.7c2-10.6-5.4-17.5-9.3-26.3c-1.9,1-3.5,2-5.3,2.8c-5.8,2.6-11.5,5.3-17.3,7.7 c-3.8,1.6-8.2,2.1-11.7,4.2c-4.4,2.7-8.3,6.4-12.2,9.8c-0.5,0.5-0.8,1.8-0.5,2.6c1.3,4.4,3.2,8.7,4.3,13.2c1.3,5.4,5,9.8,9.6,10 c5.1,0.2,7.4-5.2,8.4-10.3c0.3-1.7,1.8-3.2,2.8-4.7c0.7,0.3,1.4,0.7,2.1,1c-0.8,2.5-1.5,4.9-2.3,7.4c-2.2,7.4-4.3,14.8-6.5,22.1 c-0.6,2-1.5,3.9-2.6,5.7c-1,1.5-3,2.5-3.5,4.1c-2.4,7.9-8.3,12.6-14.6,17.1c-2.4,1.7-5,3.5-6.6,5.9 C415.2,300.4,413.1,300.1,409.7,297.9z M307.9,670.6c-8.8-17.1-23.9-17.1-40.6-14.5c6.6-1.5,10.6-4.9,8.5-12.2 c0-0.1,0.5-0.3,1.1-0.6c0.7,2.7,0.5,6.3,2.2,7.8c1.9,1.7,5.5,1.8,8.3,2c7.3,0.4,12.9,3.2,17.4,9.1c5.4,7.1,5.4,6.2,14.1,3.5 c12.7-4,16.4-14.8,21-25.2c0.4-1,0.1-2.3,0.2-3.4c0.1-2.6-0.4-5.5,0.6-7.8c3.3-8.1,6.6-16.3,10.9-23.9c6.4-11.5,4.8-23.7,4.8-36.3 c-1.7,0.1-3.1-0.1-4.3,0.2c-5.5,1.3-10.4,1.9-16.5-0.3c-11-3.9-19-11.1-28.4-19.2c-3.3,5.1-6.8,10.4-10.1,15.8 c-3,4.8-5.3,10.1-10.8,13c-3.1,1.7-5.5,4.6-8.3,6.8c-1.4,1-3.4,2.7-4.5,2.3c-4.8-1.6-9.5-3.4-13.8-5.9c-3.5-2.1-6.1-5.7-9.5-8 c-1.8-1.2-5.1-2-6.7-1.1c-6.7,4-13.8,7.8-19.1,13.3c-7.2,7.4-16.3,10.9-25.1,14.6c-15.5,6.5-29.1,15-39.9,27.9 c-7.8,9.3-15.6,18.6-25.7,25.6c-4.4,3-8.2,7.1-12.3,10.8c6.5,6.6,16.8,9.8,16.1,21.3c22.5,0.6,44.8,1.2,67,1.6 c13.7,0.3,27.4,1.1,41.2-1c13.7-2.1,27.8-1.7,41.7-2.5c3.1-0.2,6.1-1.6,9.2-1.9C303.6,681.8,308.2,678.8,307.9,670.6z M313.7,408.2 c0.2-1.5,0.2-2.3,0.4-3c2.3-7.8,4.6-15.6,6.8-23.4c0.8-2.9,1.6-5.7-1.3-8.2c-6.4-5.5-13-10.7-18.8-16.8c-8.1-8.5-17.2-11.7-28.6-8.6 c-1.8,0.5-3.9,0.2-5.8,0.3c-7.1,0.4-14.5-0.3-21.2,1.6c-5.5,1.6-10.2,1.8-15.4,0.3c-1.3-0.4-3.1-0.6-4.2,0c-4.5,2.4-9,5-13.2,7.9 c-13.1,9-26.3,17.9-39.1,27.3c-6.9,5.1-13,11.3-19.5,17c-2.8,2.5-2.4,4.8-0.2,7.8c10.1,13.5,18.1,28.2,21.9,44.9 c0.8,3.4,0.7,7.5-0.4,10.8c-2.5,7.7-5.9,15-11.6,21.2c-3.6,3.8-7.2,5.9-12.4,6.1c-11.3,0.3-19.8,7.3-29.1,12.6 c-0.5,0.3-0.6,1.1-0.8,1.6c2.4,3.6,5,2,7.4,0.6c5.2-2.9,10.1-6.3,15.4-8.8c4-1.9,8.7-2.4,12.7-4.2c4.2-1.8,8.3-4.1,11.9-6.8 c4.6-3.4,8.7-7.6,13.1-11.3c0.9-0.7,2.4-0.7,3.7-1c0.1,0.3,0.2,0.6,0.3,0.8c-4.1,3.1-8.2,6.1-12.3,9.2c0.3,0.4,0.6,0.9,0.9,1.3 c1.7-0.1,3.3-0.3,5-0.3c8.1,0.1,16.6-1.3,24.3,0.6c13.2,3.3,26.5,5,39.9,4.3c13.9-0.7,27.7-2.6,41.5-4.3c1.3-0.2,3.3-1.9,3.6-3.2 c2.7-13.6,7.5-26.4,13.6-38.8c2-4.1,2.8-8.9,5.4-12.5c4.2-5.8,10-10.5,14.1-16.4c7.3-10.2,16.2-17.9,28.3-21.6 c0.7-0.2,1.2-0.9,1.7-1.4c-1.7-5.3-4-9.1-9.7-10.6c-3.9-1-7.5-3.4-11.1-5.4c-2.5-1.4-4.5-1.4-5.6,1.5c-2.7,6.7-6.8,12.9-6.2,20.8 C319.6,403.3,319,407.2,313.7,408.2z M477.9,35.5c0.7,2.1,1.1,3,1.4,3.9c2.3,6.3,4.8,12.6,6.9,19c0.3,0.9-0.5,2.3-0.9,3.4 c-0.9-0.8-2.2-1.3-2.6-2.3c-2.6-6.2-5.6-12.3-7.4-18.8c-1-3.4-2.5-4.9-5.7-4.8c-5.3,0.2-10.6,0.4-15.8,1.4c-2.6,0.5-5.2,2.5-7.3,4.3 c-2.1,1.8-3.5,4.4-5.4,6.4c-5.3,5.5-10.7,10.9-16.1,16.3c-4,3.9-8.2,7.7-12.2,11.6c-4.5,4.4-9.3,8.6-13.1,13.5 c-5.8,7.4-11,15.2-16.2,23c-3.2,4.8-6.2,9.8-5.3,16.2c0.4,2.5-0.3,5.2-0.8,7.8c-2.5,13.9-5.9,27.6-7.5,41.6 c-1.5,12.3-1.1,24.9-1.5,37.3c0,1.5,0.1,2.9,0.2,4.6c1.7,0.3,3.1,0.8,4.5,0.8c9,0.3,17.9,0.2,26.9,0.8c8.8,0.7,16-1.7,21.6-8.6 c2.9-3.7,6-6.9,10.9-8.1c4.2-1,8.2-2.5,12.3-3.7c17.5-5.1,32.6-13.2,39.4-31.8c0.2-0.7,1.1-1.1,1.6-1.7c4.3-5.7,7.8-11.7,6.5-19.2 c-1.2-7-3.3-14-4.1-21.1c-1.7-14.2-2.3-28.4,0-42.7c0.5-3.1,1-6.2,1-9.2c0-5,1.6-6.3,6.6-5.3c4.4,0.8,8.9,1.9,13.3,1.6 c12.7-0.9,25.4-2.2,38.1-3.7c13.2-1.5,24.5-7.7,35.7-14.2c1.4-0.8,2.3-2.4,3.3-3.4c-5.3-3.8-9.6-8.4-14.8-10.2 c-11.5-3.9-23-8.5-35.7-7.8c-11.3,0.7-22.6,0.9-33.8,1.4c-7.8,0.4-8,0.7-9.9,8.3c-0.3,1.3-1.4,2.5-2.1,3.8c-0.5-0.2-1-0.4-1.5-0.6 c0-1.8-0.4-3.7,0.1-5.4c0.5-1.8,1.8-3.3,3.2-5.8C486.8,34.8,482.8,35.1,477.9,35.5z M597.9,54.7c-3-0.6-5.9-4.4-10.6-0.7 c-11.9,9.3-25.4,16.2-40.2,18.6c-14.7,2.4-29.7,2.9-44.5,3.9c-3.6,0.2-5.4,0.8-6.5,4.9c-4,14.9-2.7,29.8-1,44.7 c0.6,5.6,3.4,10.9,5.6,17.7c19.1-19.6,37.2-38,39.9-66c-0.3,5.2-0.6,10.4-0.9,15.2c2.3,1.6,4.3,3,7.3,5c-6.7-1.7-11.8,1.5-13.2,7.2 c-0.2,0.8,0.8,2.1,0.5,2.6c-1.2,1.6-3.4,2.7-4.1,4.5c-2.7,7.4-8.6,12.5-13.4,18.3c-4.1,4.8-8.6,9.3-12.5,14.2 c-2.3,2.9-5.5,6.7-0.2,8.1c-1.6,1.9-3.7,3.8-4.9,6c-1.3,2.3-1.6,5.1-2.8,7.4c-4.2,7.9-5.7,17.7-13.6,23.2c-4.5,3.1-3.6,6.3-1.1,9.6 c1.5,2,3.8,3.9,6.1,4.7c7.4,2.4,15,4,22.4,6.4c10,3.2,20.1,3.2,30.6,3.5c-0.3,0.8-0.7,1.9-0.9,2.6c16.2,13.5,34.8,20.8,55.7,25.7 c3.1-7.1,6.8-14.2,9.3-21.8c3.5-10.9,6.3-22,9.1-33.1c0.7-2.8,1.2-6,0.4-8.7c-2.5-8.5-5-17.1-8.8-25c-4.6-9.6-6-19.7-7.5-29.8 c-2-13.9-2.8-28-7.4-41.4c-0.5-1.5,0.9-4.5,2.3-5.7c3.9-3.4,5.6-7,4.3-12.3C596.6,61.4,597.6,58.3,597.9,54.7z M586.1,562.7 c5.5,0.3,6.9-3.3,5-9.3c-4.6-14-14.1-25.2-21.1-37.9c-3.6-6.5-8.6-12.2-12.3-18.7c-2.7-4.7-4.5-9.9-6.4-14.9c-2.7-7-5.1-8.7-12-6.3 c-9.2,3.3-18.3,7.1-27.3,10.7c-0.9,0.4-2.1,1-2.3,1.7c-2.4,7.9-4.8,15.8-4.5,24.1c8.8,1,9.7-8,15.6-11.8c-2.6,9.7-7.7,15.3-17,16.3 c-0.5,4.7-0.9,9.1-1.4,13.5c-0.6,0-1.3,0-1.9,0c-0.2-1.2-0.9-2.5-0.7-3.6c1.3-7.7,0-13.7-8.8-15.6c-0.3-0.1-0.6-0.5-0.9-0.5 c-2.8-0.1-5.9-1.2-8.2-0.1c-5.9,2.6-11.3,6.2-16.9,9.4c-3.1,1.7-3.7,3.9-3,7.5c0.8,4.3,0.6,8.8,0.3,13.1c-0.7,8.4-1.3,16.6,5.7,23.2 c5.4,5.1,11.5,9.9,15.4,16c4,6.3,8.5,9.7,15.7,10c1,0,2,1.1,2.9,1.8c6.1,4.8,12.1,9.8,18.4,14.5c3.4,2.6,7.2,5.5,10.8,1.6 c3.6,1.4,6.6,2.5,9.6,3.7c-0.1,0.3-0.1,0.6-0.2,0.9c-2.5-0.1-4.9-0.3-7.4-0.4c-0.2,0.3-0.4,0.7-0.7,1c1.8,1.7,3.4,3.9,5.5,5.1 c8.4,5,17.1,8,27.3,6.4c9.4-1.4,12.3-3.6,14.6-13c1.1-4.8,3.4-10.2,6.9-13.2c5.6-4.7,9.8-9.1,9.3-16.8c-0.3-3.6-0.5-7.2-0.4-10.8 c0.1-5.5-4.5-4.7-7.6-6.1C587.3,564.1,586.8,563.4,586.1,562.7z M787.6,217.2c0.3,0.6,0.7,1.3,1,1.9c2.4,1.3,4.7,3.2,7.3,3.8 c6.4,1.5,12.9,3,19.4,3.6c14.7,1.4,30.1,1.6,42.8-5.6c13.5-7.6,30.5-10.5,39.5-25.4c0.2-0.3,0.6-0.4,0.8-0.6 c3.5-4.7,10.1-6.9,10.4-13.9c0.3-7.8,4-14.3,7.8-20.7c4.5-7.6,3.4-15-0.7-22.2c-1.5-2.7-3.5-5.3-5.5-7.7c-0.7-0.8-2.5-1.5-3.3-1.1 c-2.9,1.4-6.2,2.7-8.3,5c-5.4,5.9-12.2,5-18.9,4.8c-3.9-0.1-5.1-2.3-4.1-6.1c1.5,0,2.8-0.1,4.1,0c3.5,0.2,7.3,1.7,9.2-3.2 c1.9-4.7,2-9-1.3-13.1c-2-2.5-3.7-5.2-6-7.3c-3.3-3.1-6.9-6.9-12.1-4.6c-7.9,3.4-15.8,6.9-23.3,11.1c-3.1,1.8-5.8,2.1-9.2,2.2 c-3.8,0.1-7.7,1.1-11.3,2.3c-3.8,1.2-7.3,3-11.7,4.9c0,0-0.3,1.2-0.4,2.3c-0.9,7.1-3.1,13.2-10.3,16.4c-1.2,0.5-2.2,3.3-1.9,4.8 c0.5,3.2,1.4,6.6,2.9,9.5c3.7,7.2,3.6,14.9,2.8,22.5c-0.7,6.4-2.2,12.8-4.1,19c-1.1,3.4-3.5,6.6-5.9,9.3 C794.5,212,790.9,214.4,787.6,217.2z M236.9,214.4c0.5,0.3,1.1,0.6,1.6,0.9c-4.7,12.5-9.4,25.1-14.2,37.6c-6.9,17.8-14,35.4-21,53.1 c8.1,3.6,12.3,2.3,15.3-1.8c2.2-3,3.9-6.4,5.7-9.6c3.1-5.5,7-10.7,9-16.6c3.9-11.4,11.2-22.4,6.6-35.4c-0.1-0.3-0.1-0.7,0-1 c2.7-8.5,2.6-17,0.8-25.6c-0.2-0.9,1-2.1,1.6-3.2c0.3,0.2,0.6,0.4,0.9,0.6c0.3,3,0.6,6,0.9,8.9c1,0,1.2,0.1,1.4,0 c11.2-6.2,18.8-24.8,15-37c-0.3-1.1-2.6-1.9-4-2.3c-2.9-0.8-5.9-1.2-8.7-1.7c-6,4.3-12.4,8.9-18.7,13.6c-0.9,0.6-1.7,1.4-2.3,2.2 c-2,2.6-3.6,5.8-6.1,7.8c-3.8,3-8.2,5.3-12.5,7.8c-6.3,3.7-12.7,7.2-19.7,11.2c2.2,0.7,3.5,1.1,5.8,1.8c-3,0.9-4.9,1.5-7,2.1 c2.7,7.1,5.3,14,8,20.8c-0.3,0.1-0.7,0.3-1,0.4c-3.9-7-7.7-14-12.1-21.8c-6.1,4.7-11.4,8.9-16.8,13c-4.3,3.3-8.6,6.6-13.2,9.6 c-9.9,6.6-20,12.9-29.9,19.5c-2,1.3-3.3,3.7-5.2,5.2c-3.9,3-8,5.7-11.9,8.7c-3.8,2.9-7.1,6.5-11.1,9.1 c-10.2,6.5-20.6,12.7-31.3,19.1c5.3,2.4,10,4.6,14.7,6.5c1.6,0.7,3.6,1.3,5.3,1.1c14.1-1.7,28.3-3.6,42.4-5.4 c16.8-2.1,33.5-4.4,50.4-6.1c7.7-0.8,7.8-0.2,9.5-8c0.4-1.9,0.5-3.9,0.7-5.9c0.1-1.1-0.1-2.6,0.6-3.3c3.9-4.2,3.5-9.4,3.6-14.5 c0.1-1.6,1-3.1,1.5-4.7c0.6,0.1,1.2,0.2,1.8,0.3c2,11.9-0.3,23.6-4.1,35.3c5,1.5,8.4-0.2,10.3-4.5c1.9-4.4,3.1-9.1,5-13.5 c4.1-9.6,8.6-19,12.6-28.6c5.5-13.3,10.7-26.7,16.1-40C234.1,217.9,235.7,216.2,236.9,214.4z M420.1,401.7c5,3.6,9.5,7,14.2,10 c1.1,0.7,3.4,0.9,4.6,0.3c15.7-8.2,33.2-12.2,47.9-22.8c11.5-8.3,24.5-14.5,36.5-22.3c8-5.2,14.9-12.2,23.1-17 c9.8-5.8,20.5-10,30.8-15.1c9.2-4.6,18.7-8.7,27.2-14.4c7.9-5.3,14.3-12.7,21.7-18.7c6.3-5.1,13.2-9.6,19.8-14.5 c2.5-1.9,4.7-4.4,7.4-6.9c-2.7-1.9-5.8-4-8.7-6.3c-8.3-6.4-16.2-13.6-27.9-12c-1.1,0.1-2.2-0.6-3.3-0.9c-9.5-2.4-14.9-0.1-20.2,7.7 c-1.5,2.2-4.4,3.8-6.9,4.8c-5.4,2.3-12.4,2.6-16.4,6.2c-7.9,7.1-14.7,15.7-21.2,24.3c-6,8-13.4,11.4-23.1,9.1 c-4.5-1.1-9.2-1.5-12.4,2.6c-3.5,4.4-6.6,9.2-9.5,14c-3.1,5.3-5.1,11.4-8.9,16c-5.2,6.2-11.6,11.2-17.7,16.6 c-2.1,1.8-4.4,3.7-6.9,4.7c-6.8,2.7-13.8,5-20.7,7.4c0,0.1,0.4,0.9,0.9,2c-1-0.3-1.5-0.3-1.9-0.5c-6.4-4-9.9-2.9-13,3.9 C431.6,388,427.7,395.7,420.1,401.7z M785.5,615.3c-20.4,5.6-41.5,11.4-62.9,17.2c2.5,5.7,4.5,10.3,6.5,15c-0.5,0.2-1,0.4-1.4,0.7 c-1.1-2.3-1.9-4.7-3.3-6.8c-1.4-2.1-3.1-5.2-5-5.5c-7.3-1.2-14.5-0.6-21.5,3.2c3,1.9,5.6,3.7,8.3,5.2c13.5,7.4,28.7,9.1,43.4,11.9 c17.1,3.2,34.5,4.9,51.8,7.1c4.5,0.6,9.1,0.4,13.6,0.6c2.1,0.1,4.4,1.2,6.2,0.6c7.8-2.3,15.6-4.5,23-7.8c10-4.4,19.7-9.5,29.3-14.7 c3.1-1.7,5.5-4.5,8.6-7.1c-6.1-2.9-0.9-6.6-2.2-9.6c0.6,0.5,1,1.1,1,1.8c0.1,1.4,0,2.9,0,5.6c3-0.8,5.8-1,7.8-2.4 c5.6-3.8,10.9-8.2,16.2-12.4c1.1-0.9,2.2-2.2,2.5-3.5c1.8-7.1-5.6-16.4-13-16c-6.4,0.3-12.8,1.5-19.2,1.9c-3.2,0.2-6.6-0.8-9.2,2.3 c-0.5,0.7-3.2,0.8-3.6,0.2c-2.6-3.5-5-1-7.4,0c-1.5,0.6-2.7,2.1-4.2,2.3c-5.5,0.9-11.2,1.4-16.7,2.3c-12.1,1.9-25.1-0.9-36.3,6.6 c-0.8,0.6-2.3,0.4-3.4,0.3c-2.7,0-4.1,1.3-3.9,4c0.6,5.4,1,10.9,2.1,16.2c1.1,5.2,3,10.3,4.9,16.7c-3.2-2.5-5.4-4.2-7-5.4 C788.8,635.6,787.3,626,785.5,615.3z M255.4,301.8c0.4,0.5,0.7,0.9,1.1,1.4c9.1-2.8,18.6-4.8,27.1-8.8c7.2-3.3,14.8-5.6,21.5-10.8 c5.9-4.5,12-8.7,16.5-14.6c8.5-11,17-22,25.4-33.2c1.4-1.9,2.3-4.4,3-6.8c1.5-5.1,2.8-10.3,4.2-15.4c1-3.5,0-5.6-3-8 c-10-8-22.5-11.1-33.2-17.5c-2.3-1.4-5.4-2.2-8.1-2.1c-6,0.2-11.9,1-17.8,1.7c-1,0.1-2.3,1.2-2.7,2.2c-3,6.7-6.3,13.2-8.5,20.1 c-4.1,12.8-7.6,25.8-11.1,38.8c-3.8,14.3-7.3,28.7-11,43C257.8,295.2,256.5,298.5,255.4,301.8z M399.5,648.3c0.5,0.5,1.1,1,1.6,1.5 c3.5-0.7,7-1.4,10.5-2.2c7.4-1.6,14.9-3.3,22.3-4.9c12.1-2.7,24.7-1.8,36.5-6.5c7.8-3.1,16.2-5.3,24.5-6.6 c9.5-1.5,19.3-1.5,28.9-2.2c2.1-0.2,4.2-0.6,6.3-1c-9.3-6.8-17.9-13.4-27-19.5c-4-2.7-8.5-5.2-13.1-6c-6.6-1.3-11-4.9-15.1-9.6 c-2.6-3-5.4-5.9-8.4-8.5c-9.2-8.3-15.7-18.3-18.2-30.5c-1.2-6.1-1.3-12.4-1.8-18.7c-3.1-1.5-4.6,0.2-6.1,2.8 c-2.9,4.7-5.8,9.4-9.3,13.5c-3.7,4.3-8.4,7.6-12.1,11.8c-1.8,2-3.2,5.2-3.2,7.9c0.1,16-3.3,31.4-7.9,46.6c-1.5,5-0.4,8.1,3.4,10.7 c3.3,2.2,7,4,10.4,6c-0.2,0.4-0.4,0.7-0.6,1.1c-5-2.8-10-5.7-16-9C403.3,633,401.4,640.7,399.5,648.3z M477.4,330.8 c-3.8-0.3-7.4-1-10.9-0.9c-9.7,0.3-19.2-0.5-28.3-4.5c-8.5-3.7-17-3.1-25.7-0.2c-7.5,2.6-15.1,4.9-22.8,6.6 c-10.1,2.1-20.3,3.5-30.4,5.2c-5.9,0.9-12.3,0.6-17.6,2.9c-5.4,2.4-10,2.6-15.8,2.4c-10.4-0.4-20.9,2-32.5,3.4 c8,7,14.5,13.2,21.5,18.9c3.7,3,7.9,5.5,12.1,7.6c6.6,3.3,13.5,6.2,20.3,9.3c3.3,1.5,6.5,3.1,10.4,1.5c4.6-1.9,9.3-3.4,14-5 c1.6-0.5,3.2-0.9,4.9-1.3c0.2,0.7,0.4,1.4,0.7,2.2c-8,3.3-16,6.6-24,9.9c-0.1,0.4-0.1,0.9-0.2,1.3c1.7,0.3,3.5,1.2,5,0.8 c2.7-0.7,5.2-2.1,7.7-3.4c11.1-5.6,22.1-11.3,33.2-16.8c7.1-3.5,15.1-5.6,21.4-10.1c9.6-6.9,19.9-9.8,31.3-10.7 c1.5-0.1,3.1-1.1,4.5-1.8c3.2-1.6,6.6-3.1,9.6-5.1C470.2,339.8,475.6,337.5,477.4,330.8z M657.6,179.5c4,8,5.6,16.3,4.1,25.2 c-2.2,0.3-4.3,0.1-6.1,0.8c-2.6,1-7.2,3-7,3.9c0.5,3.1,2.1,6.6,4.5,8.7c3,2.7,4.5,5.2,3.4,9c-1.2,4.1-3.9,6.5-8.2,6.8 c-3,0.2-5.9,0-8.9,0c-1.5,6.4-3.1,12.1-4.1,18c-0.3,1.7,0.5,4.5,1.9,5.5c6.8,5.5,14,10.6,21,15.9c2.6,2,4.8,1,7.2-0.5 c5.2-3.4,7.7-10,14.4-11.7c1-0.2,2.1-2.5,2-3.8c-0.1-3.5-0.8-6.9-1.5-11.3c2.1,3.4,3.9,6.5,6.1,10.2c7.5-9.4,19.1-7.6,29.3-10 c7-1.7,14-3.7,21-5.6c-0.1-1.2-0.1-1.7-0.3-2.1c-6-12.7-11.3-25.8-22.2-35.5c-1.5-1.3-3.1-2.7-4.1-4.3c-2.7-4.4-6.9-5.5-11.6-5.4 c-3.5,0-6.9,0.4-10.6,0.6c0.4,1.4,0.8,2.5,1.3,4.2c-3.9-2.1-4.2-8.8-10.5-6.5c0.4,1.4,0.5,2.8,1.2,3.9c2.9,4.7,3.4,9.5,2.2,14.8 c-0.4,1.7-0.4,3.8,0.1,5.4c0.5,1.3,2.1,2.2,3.2,3.3c0.9-1.1,2.1-2.1,2.7-3.4c0.6-1.4,0.5-3,0.8-5.2c4.5,3.3,2.4,6.7,1.4,9.4 c-0.5,1.3-3.1,2.8-4.5,2.6c-2.8-0.5-6-1.4-6-5.5c0-3.5,0.6-7.1-0.2-10.4c-1.2-5.4-2.1-11.7-5.4-15.5 C669.8,186.1,663.2,183.2,657.6,179.5z M1012.7,503.1c-0.3,1.4-0.7,2.7-1.4,5.4c-5.6-10.8-13.4-6.8-21.1-5.6 c0.2,1.5,0.6,2.5,0.5,3.4c-0.3,1.7-0.9,3.4-1.4,5.1c-1.3-0.9-2.7-1.7-3.9-2.7c-2-1.9-3.5-4.7-5.9-5.9c-8.9-4.4-18.1-8.3-27-12.6 c-2.7-1.3-4.4-0.8-5.7,1.5c-6.1,10.3-12.1,20.5-18.1,30.9c-0.6,1-0.6,2.4-1.2,4.9c4.3-1.3,7.9-2,11.1-3.5 c10.1-4.6,19.8-10.2,31.6-8.3c1.8,0.3,3.6-0.1,5.5-0.3c5.2-0.4,9,2,9.6,7c0.8,5.9,1.5,12,1.2,17.9c-0.2,4.5-0.6,9.6-5.4,12.6 c-0.3-0.6-0.4-0.7-0.4-0.9c0.1-0.8,0.2-1.6,0.5-2.4c2.8-7.8,3.2-15.9,2.3-24.1c-0.2-1.8-1.7-5-2.6-5.1c-8.2-0.2-16.8-1.1-24.7,0.8 c-9.2,2.2-17.8,6.9-26.6,10.7c-2,0.9-4.2,2.2-5.3,4c-3.1,5.1-5.7,10.6-8.1,15.3c4.8,5,9,9.3,13.2,13.6c0.8,0.8,1.6,2,2.6,2.1 c7.8,1.3,15.4,4,23.2-0.5c4.3-2.4,9.1-3.9,13.8-5.5c9.2-3.2,18.4-6.2,27.6-9.6c1.2-0.4,2.2-2,2.9-3.2c2.6-4.6,5-9.4,7.7-14 c5.5-9.5,11-19,16.9-29.1C1019.7,504.5,1016.4,503.8,1012.7,503.1z M646.1,79.9c-3.4-8.6-6.3-15.9-9.3-23.2 c-0.6-1.4-1.7-3.6-2.7-3.7c-6.5-0.6-13.1-0.9-19.6-1c-2.5,0-5.2,0.6-7.6,1.6c-2.5,1.1-4.9,2.8-6.9,4.7c-0.7,0.7,0,2.8-0.1,4.3 c-0.3,4.7,1.6,10.1-3,13.5c-3.1,2.3-2.9,4.6-2.1,7.7c1.6,6.2,3.3,12.5,4.2,18.9c1.2,9.3,1.5,18.8,2.7,28.1 c0.7,5.5,1.9,11.2,3.9,16.4c3.7,9.9,8.1,19.5,12,28.7c2.8-5.6,5.6-12,9-17.9c3.1-5.3,7-10.1,10.6-15.1c2.7-3.8,4-7.7,3.5-12.6 c-0.9-8.2-1.5-16.5-1.7-24.8c-0.1-5.2-2.2-7.7-7.3-7.7c-0.7,0-1.3-0.3-1.9-0.5c0.1-0.3,0.1-0.6,0.2-0.9c2.5,0.3,4.9,0.7,8.2,1.1 C636.5,89.1,639.9,83,646.1,79.9z M147.9,505.2c2.7,2.6,4.7,4.4,6.7,6.3c3.1,2.9,6.2,5.9,9.3,8.8c1.7,1.6,3.3,3.2,5,4.7 c5.1,4.4,10.2,8.7,17.1,10.4c2.2,0.5,4.1,2.4,6.2,3.6c-0.3,0.4-0.6,0.8-0.8,1.3c-5.9-2.9-12.5-5-17.7-8.9c-8-5.9-15-13-22.4-19.6 c-4-3.5-8.4-3.8-13.2-1.3c-5.6,2.8-11.5,5-17.1,7.8c-1.7,0.8-3.8,2.6-4.1,4.2c-1.5,8.2-2.5,16.5-3.8,25.1c4.6,0.4,9.2,0.9,14,1.3 c1-1.5,2.1-3,2.7-3.9c0.4,2.2,0,6.5,1.3,7.1c5.7,2.6,10.7,6.9,17.8,6.6c9-0.3,16.9-4,25.4-5.9c9.2-2,15.8-8.1,23.3-13 c0.6-0.4,1.2-1.2,1.4-2c4.6-14.1,3-27.1-6.5-38.9c-3.7-4.6-8.2-6.6-13.5-4.9C168.5,497.3,158.3,501.4,147.9,505.2z M509.2,430.5 c9.7-1.1,19.2,2.9,28.5,6.4c11.1,4.1,16.3,4.7,21.9-2.2c2.6-3.2,4-8,4.4-12.3c0.7-8.3,0.6-16.7,0.1-24.9c-0.4-6.7-1.6-13.5-3.1-20.1 c-1.1-4.8-6.5-6.9-10.9-4.6c-4.7,2.4-9.4,4.8-13.9,7.6c-13.5,8.4-26.9,17-40.3,25.5c-2,1.3-2.7,2.4-0.9,4.8 C499.8,416.9,504.2,423.4,509.2,430.5z M500.6,510.9c1.6-7.5,3.7-14.5,4.5-21.5c1.2-10.5,2-21.1,2-31.7c0-6-1-6.2-7-4 c-24.9,8.9-48.2,21.4-70.8,35c-2.4,1.5-5,2.7-7.3,4.2c-1.2,0.8-3.3,2.2-3.1,2.9c0.4,1.5,1.7,3.4,3.1,3.8c6.4,2,12.9,4.1,19.6,5.1 c6.6,1,12.9,2.1,17.3,7.5c3.7,4.4,7.4,3.4,11.4,0.9c4.5-2.9,8.8-6,13.3-8.8c1.2-0.8,2.8-0.9,4.9-1.6c-0.7,1.6-1,2.3-1.4,3.2 C491.3,507.4,495.8,509.1,500.6,510.9z M139.9,414.9c-16.3,18.5-32.3,36.4-48.3,54.6c8.1,6.6,18.7,11.6,23.2,23.2 c13-6.5,25.7-12.6,38.1-19.2c6.5-3.4,10.4-11.7,8.7-18.9C157.9,439.5,150.9,426,139.9,414.9z M831.1,667.1c1.2,0.6,1.9,1,2.6,1.3 c9.7,3.8,19.6,7.3,29.2,11.3c11.5,4.7,22,4.6,31.7-4.1c1.7-1.5,4.3-2.6,6.7-2.9c7.8-1,11.8-5.9,10.8-13.8 c-0.7-5.9-1.1-11.9-1.7-17.8c-0.7-7.1-1.6-14.1-2.5-22.1c-12.8,9.6-24.1,19.3-36.6,27.1C858.6,653.9,844.9,660,831.1,667.1z M94.3,325.7c15.9,11.6,24.9,30.7,44.3,38.7c2.2-5.3,4.2-10.4,6.5-15.4c1.7-3.7,3.6-7.3,5.9-10.6c0.9-1.3,3.4-2.3,4.9-2.1 c2.9,0.4,5.7,1.7,8.4,2.9c4.1,1.8,5.7,1.2,6.7-3.2c0.5-2.1,0.7-4.3,0.9-6.4c0.5-3.8,2-6.4,6.3-7.2c9.4-1.7,18.8-3.7,28.1-5.6 c0.9-0.2,1.6-0.9,2.4-1.4C169.8,310.4,132.4,319.4,94.3,325.7z M406.3,547.5c0.1-0.9,0.2-1.4,0.1-1.9c-4.2-13.6-13.5-23.8-22-34.7 c-0.5-0.6-2.1-0.8-3-0.5c-3.9,1.3-7.8,2.7-11.6,4.5c-13.2,6.2-26.3,12.5-39.5,18.7c-5,2.3-6.6,8.9-2.7,12.9 c5.6,5.6,12.4,8.1,20.3,6.9c8.1-1.2,15.4-5.7,24.5-2.8C383.6,554.2,395,550.7,406.3,547.5z M245.4,498.5c1.3,3,2.3,5,3,7 c0.7,1.9,1.2,3.9,1.8,5.8c-0.5,0.1-0.9,0.3-1.4,0.4c-0.5-1.2-0.9-2.4-1.4-3.6c-4.3-9.9-6.2-11-17-10.8c-2.6,0.1-5.3-0.5-7.9-0.8 c-1.6-0.1-3.2-0.2-4.8-0.3c0,0.5-0.1,0.9-0.1,1.4c2,0.5,4.1,0.8,6,1.6c1.8,0.8,3.4,2.1,5,3.1c1.4,0.8,2.8,1.6,4.2,2.3 c-0.4,0.7-0.9,1.4-1.3,2.1c-4.9-7.2-14-4.3-20.2-10.4c-4.5-4.4-12.7-4.8-20-3.8c3.8,7.5,8.8,14.1,10.6,21.6 c1.8,7.3,0.5,15.4,0.6,23.4c0.8-0.3,1.9-0.8,3.1-1.4c7.1-3.6,14.1-7.2,21.2-10.8c2.5-1.2,5.4-1.9,7.6-3.4c12-8,25.6-11.7,39.2-15.6 c3-0.9,6.5-0.1,7.8-4.5c0.9-2.9,3.3-5.3,5.5-8.8C272.3,493.4,258.7,493.5,245.4,498.5z M376,433.1c-0.3,0.2-0.6,0.3-0.9,0.5 c-2-1.4-3.9-2.7-5.9-4.1c-1,2.5-2.1,5-2.9,7.5c-0.9,2.6-1.5,5.2-2.2,7.9c-0.4-0.1-0.7-0.2-1.1-0.3c1.6-6.9,3.2-13.9,4.9-21.5 c-3.6,0-5.9,0-8.2,0c0-0.2,0-0.5,0-0.7c2-0.2,4-0.4,6.7-0.6c-1.2-2.6-2.2-4.6-3.1-6.5c-16.8,3.9-42.9,39.6-44.3,66 c3.5-3.3,6.6-7.3,10.7-9.9c9.9-6.1,18.6-14.5,29.9-18.3c1.5-0.5,2.9-1.7,4.4-2.4c7-3.4,11.1-10.5,17.1-14.7c8.6-6,7.6-15.4,2.2-21.8 c-3.5,2.5-6.8,5.5-10.6,7.4c-3.9,2-4.5,3-1.5,6.4C372.9,429.6,374.4,431.3,376,433.1z M410.9,571.5c-1.3,1-1.9,1.3-2.2,1.7 c-7.3,9.9-14.8,19.7-21.6,29.9c-4.4,6.7-8.4,14-11,21.5c-1.8,4.9-1.1,10.8-1.1,16.2c0,4.1,0.2,8.3,1.1,12.2c0.3,1.4,3.2,3.1,4.9,3.1 c9.3-0.2,14.5-4.9,16.4-13.9c0.3-1.3,0.4-2.6,0.7-3.9c2.3-10.2,4.7-20.3,6.9-30.5c1.8-8.1,3.7-16.1,5.2-24.2 C410.9,579.8,410.7,576,410.9,571.5z M397.1,478.1c0.5,0.7,1,1.5,1.5,2.2c28.4-8.2,50.8-28.9,79.7-37.8c-7.8-5.1-14.1-9.6-20.9-13.4 c-1.6-0.9-5-0.7-6.7,0.5c-8.5,6-17.2,11.8-24.8,18.8C415.9,457.7,406.7,468.1,397.1,478.1z M276.1,178.8c0.2-3.7,0.4-7.3,0.5-10.9 c0.4-12.6,1.1-25.2,1.2-37.8c0.1-10.2-2.5-19.8-6.7-28.7c-3.5,6.7-6.9,13.1-10.3,19.6c-0.2,0.4-0.2,1-0.4,1.4 c-3.8,11.1-7.6,22.2-11.6,33.2c-1.5,4-3.5,7.8-5.4,11.8c6.2,1,6.1,1.1,9.7,6.1c1,1.4,3.1,1.9,4.7,2.9c0.4-0.4,0.9-0.7,1.3-1.1 c-0.4-4.4-0.4-8.9-1.2-13.3c-1.9-10.5-3.7-20.8,3.6-30.3c1.5-1.9,1.5-5,2.3-7.5c0.8-2.6,1.8-5.2,2.6-7.8c0.5,0.2,1,0.3,1.4,0.5 c-1.5,5.6-2.1,11.5-4.6,16.6c-3.3,6.8-3.2,13.8-3.2,20.8c0,1.2,0.9,2.4,1.3,3.7c0.7,2.6,1.7,5.2,1.9,7.9c0.2,2.9-0.5,5.9-0.7,8.3 C267.1,175.7,271,177,276.1,178.8z M257.3,730.4c4.1,1.9,7.3,2.6,9.3,4.5c5.7,5.5,10.7,11.7,16.4,17.1c2.9,2.7,6.6,5.2,10.4,6 c4.3,1,9.2-0.1,13.7,0.2c3.8,0.3,5.5-2,6-4.7c1.7-9.7,2.8-19.4,4.1-29c-1.2-0.5-1.7-1-2-0.9c-8.7,2.2-18.6-1.2-26.5,5.3 c-0.6,0.5-1.9,0.4-2.8,0.4c-7.2,0-14.5,0-21.7,0.1C262.3,729.4,260.4,729.9,257.3,730.4z M870,594.9c2.3-0.1,4.2-0.1,6.1-0.3 c4.8-0.6,9.5-1.7,14.3-1.9c16.5-0.6,32.7-2.9,48.3-8.1c5.6-1.9,10-1.8,14.1,2.5c0.4,0.4,1.3,0.4,2.5,0.8 c-7.5-11.4-12-14.3-19.9-12.9c0.7,1.9,1.4,3.7,2,5.6c-2.9-2.3-4.4-6.7-6.9-7.3c-7.1-1.7-14.9-3.5-21.9-2.3c-8.1,1.3-15.7,5.7-23.4,9 c-2.9,1.2-5.5,3.4-8.5,4.2C871.1,585.4,870.6,589.7,870,594.9z M644.8,183.7c-1.1,1.4-1.7,2.3-2.5,3.1c-2.8,2.8-4.9,5.7-10.1,3.7 c-2.8-1.1-9.3,0.3-10,2.1c-3.3,9.3-8.5,18.1-7.3,28.7c0.3,2.8-1.1,6-2.4,8.7c-2.3,4.9-5.2,9.5-8.2,14.9c2.8,0.9,4.8,1.7,6.8,2.3 c3,0.9,6.2,1.5,9.2,2.4c4.6,1.4,7.4-0.1,8-5c0.4-3.2-0.6-6.7,0.2-9.9c2.6-11,5.7-21.8,8.7-32.7c0.3-1.2,1.5-2.2,2.1-3.3 C641.6,194.2,646.5,190.6,644.8,183.7z M420.1,696c-3.4,1.3-6.2,2.2-8.9,3.5c-7.1,3.4-14.1,6.7-22.3,5.8c-1.4-0.1-3.4,1.2-4.4,2.5 c-2.5,2.8-4.4,6.3-7,8.9c-4.2,4.1-4.3,5.5,1.1,8c6.1,2.8,12.5,5.2,18.9,7.5c4.9,1.8,12.2-1.7,14.8-6 C417.8,717.3,418.5,707.3,420.1,696z M389,505.5c8.1,12.5,15.6,23.9,23.8,36.4c6.5-7.6,12.7-14.8,18.3-21.3c-3.7-9-10.9-11.9-18-16 C403.9,499.5,397.5,506.5,389,505.5z M237.6,283.5c10.2-4.5,10.3-4.5,12.8-12.9c1.1-3.8,2.1-7.7,3-11.6c2.5-11,4.9-21.9,7.4-32.9 c0.6-2.7,1-5.5,2-8c3.5-8.8,7.3-17.4,10.8-26.2c2.1-5.3,0.1-8.4-5.5-8.7c-1-0.1-3.3,2.3-3.1,2.8c2.9,7.4-1.3,14-1.9,21 c-0.3,4.3-2.4,7.2-5.7,9.9c-7.8,6.6-14,14.5-11.7,25.7c1.8,8.6-0.4,16.4-3.2,24.3C240.7,271.8,239.5,277.1,237.6,283.5z M882.7,687.6c13.3,9.2,26.6,16,41,20.7c2.6,0.9,6.4-4.5,4.6-6.9c-3.5-4.5-7.7-8.5-11.3-12.2c-0.6-6.4-1.3-13.1-1.9-19.8 c-0.7-0.4-1.3-0.9-2-1.3c-1,8.1-6.5,6.5-11.1,7c-1.1,0.1-2.4,0.3-3.3,0.9C893.5,679.6,888.4,683.4,882.7,687.6z M387.8,444.7 c-3.7,2.2-6.8,3.8-9.6,5.6c-1.7,1.1-3.1,2.5-4.6,3.7c-1.3,1-2.5,2.2-3.9,2.9c-8.1,3.7-17.4,5.7-22.4,14.3c-0.3,0.6-1.5,0.6-2.2,1 c-2.4,1.4-5,2.6-7.2,4.2c-2.3,1.7-4.3,3.9-6.6,5.5c-2.1,1.6-4.6,2.8-6.9,4.1c0.4,0.6,0.8,1.3,1.1,1.9c16,1.9,25.8-9.2,36.4-18.6 c-0.7,5.4,1.3,8.1,5.7,9c7-7.8,13.4-15.3,20.2-22.6C391.3,452.1,391.1,447.3,387.8,444.7z M582.9,625.3c0.6,0.3,1.3,0.9,2.1,0.9 c10.2,0,20.5,0.1,30.7-0.2c3.4-0.1,3.6-2.9,2.5-5.5c-1.6-4-4.2-7.7-5.2-11.8c-1.8-7.6-10.3-6.5-13.9-11.5c-0.1-0.2-1.1,0-1.3,0.3 c-3.3,3.5-7.5,6.7-9.6,10.8C585.6,613.3,584.7,619.2,582.9,625.3z M459.5,424.6c-0.2,0.5-0.3,1-0.5,1.5c5.5,3.6,11,7.2,16.6,10.7 c1.5,0.9,3.9,0.9,4.7,2.1c1.9,2.9,3.7,2.5,6.2,1.1c2-1.1,4.3-1.8,6.4-2.6c3.5-1.3,6.9-2.6,11.2-4.2c-4.7-7.1-8.6-13.6-13-19.7 c-1.7-2.3-3.8-2.4-6.7-0.6c-5.9,3.6-12.2,6.3-18.4,9.3C463.9,423.1,461.7,423.8,459.5,424.6z M433.4,415.9c-5.2-3.6-9.8-7.1-14.6-10 c-0.9-0.6-3.5,0.2-4.3,1.2c-5.4,6.4-10.2,13.4-16,19.5c-5.5,5.9-4.7,12-2.3,19.6c2.9-2.2,6-3.6,7.6-6c4.8-7.4,12.1-11.6,18.9-16.6 C426.3,421,429.9,418.4,433.4,415.9z M620.9,183.1c4.8,0,9.1,0.2,13.4-0.1c1.7-0.1,4-1.2,4.8-2.6c2.4-4.1,5.8-8.5,5.9-12.9 c0.3-7.7-1.5-15.6-2.4-23.4c0-0.1-0.6-0.2-1-0.4C630.2,154.2,624.1,167.5,620.9,183.1z M872.8,572.8c3.8-0.9,6.6-0.8,8.5-2.1 c7.4-4.9,14.6-10.2,21.7-15.6c1.2-0.9,2.2-2.7,2.4-4.2c0.1-1.2-0.8-3.2-1.9-3.7c-8-3.7-15.8-4.9-23.1,1.7c-1.8,1.6-5,2.8-5.3,4.6 C873.7,559.4,873.5,565.6,872.8,572.8z M1175.9,834.9c3.2-7.9-5.3-10.8-5.6-16.4c-1.7-0.4-3.2-0.9-4.8-1c-1.7-0.1-3.4,0.3-5,0.5 c-0.1-3.5-7.4-7.6-12.7-7.3c2.5,10,4.9,20,7.7,30c0.4,1.3,2.6,3,4,3c1.6,0,4-1.4,4.6-2.8C1166.4,835.7,1169.6,832.8,1175.9,834.9z M1114.9,516.1c5.8,4.8,11.5,9.6,17.2,14.3c1.7,1.4,3.1,3.2,5,4.1c1.3,0.6,4.5,0.2,4.6-0.2c1.3-5.6,2.9-11.3,2.9-17 c0-2.1-4-4.2-6.2-6.3c-0.6-0.6-1.4-1-1.8-1.6c-3-4.8-7-3.9-10.7-1.6C1121.8,510.2,1118.2,513.5,1114.9,516.1z M230.8,314.9 c-0.3-0.7-0.6-1.5-0.9-2.2c-3.6,0.6-7.2,1.1-10.8,1.8c-0.7,0.2-1.6,1.2-1.9,2c-2.5,7.1-4.2,8-11.6,8.5c-6.2,0.4-12.4,1.6-18.6,2.7 c-1.5,0.3-3.5,1.3-3.9,2.5c-2.2,6.2-3.9,12.6-5.7,19c0.5,0.4,1,0.7,1.5,1.1C196.3,338.5,213.6,326.7,230.8,314.9z M70.7,560.1 c0.1,0.3,0.1,0.6,0.2,0.9c9.7-1.2,19.4-2.9,29.2-3.6c9.8-0.6,19.8-0.1,29.6-0.1c0.1-0.5,0.3-0.9,0.4-1.4c-2-0.9-3.9-2.4-5.9-2.6 c-4.7-0.4-9.5-0.4-14.3-0.2c-4.6,0.2-5.7-1.1-4.4-5.5c0.3-1.1,1.1-2.1,1.3-3.2c2-8.8,4-17.7,6-26.6c-0.5-0.2-1.1-0.3-1.6-0.5 c-0.5,0.8-1.1,1.5-1.5,2.3c-4.7,8.4-9.4,16.8-13.9,25.2c-3.6,6.7-9,10.8-16.4,12.6C76.4,558.1,73.6,559.2,70.7,560.1z M428.8,381.2 c-13.9,7.4-26.8,14.3-39.7,21.2c-0.6,0.3-1.2,0.6-1.6,1.1c-0.5,0.6-1.2,1.5-1,2c1.8,5.7,3.7,11.3,6,18c6.5-8.2,12.4-15,17.5-22.3 C415.1,394,425.6,391.7,428.8,381.2z M438,317.2c9.5,7.9,20.3,7.5,31.1,7.5c0.7,0,1.6-0.6,1.9-1.2c3.2-6.5,6.4-13,9.5-19.5 c-2.9,0.4-5.3,1.7-7.8,3.1c-1.5,0.8-3,2-4.6,2.5c-3.2,1-6.6,1.3-9.7,2.4c-3.3,1.1-6.3,3-9.6,3.8C445.3,316.8,441.6,316.8,438,317.2z M1138.4,797.9c8.8,9.4,20,13.5,31.9,16.7c1.5-6.5,3-12.3-4.5-15.1c-3.3-1.2-5.6-3.4-7.9-5.9c-1.4-1.5-4.9-2.3-6.9-1.7 C1147,793.1,1143.2,795.5,1138.4,797.9z M768.4,673.8c-2.6-0.7-4.3-1.4-6.2-1.7c-11.3-1.8-22.8-3-33.9-5.6c-5-1.2-8.9-0.5-13.3,2.9 c15,4.7,29.9,9.4,44.9,14.2C762.4,680.8,765,677.9,768.4,673.8z M369.1,593.8c8.2-10.8,16.9-22.4,25.8-34.2 c-6.6,0.8-13.7,1.6-20.8,2.5c-0.4,0.1-0.9,0.4-1.2,0.8c-3.6,3.5-4.1,7.9-3.9,12.7C369.3,581.7,369.1,587.9,369.1,593.8z M382.5,693.6c-9.5,4.2-19.4,8.5-29.3,12.8c9.1,0.6,9.1,12,15.7,13.8c5.5-6.5,10.5-12.5,14.8-17.6 C383.2,699.1,382.8,696.4,382.5,693.6z M243.1,336.8c10.1,2.2,20,2.5,29.9,0c1-0.3,2.4-1.8,2.5-2.8c0.3-4.5,0.1-9,0.1-13.6 c-0.6-0.3-1.2-0.6-1.8-0.9C264.3,326.7,252,328.4,243.1,336.8z M638.7,651.9c3.1-0.2,6.3-0.9,9.4-0.5c9,1.1,18,2.5,27,4 c11.9,2,23.9,3.5,34.9,9.3c2.4,1.3,5.8,0.8,9.1,1.2c-10.9-5.3-20.8-10.4-31-14.9c-3.8-1.6-8.3-1.7-12.5-2.1c-2.6-0.3-5.4,0.6-8,0.2 C657.7,647.7,648,647.1,638.7,651.9z M96.1,682.6c0.3,0.6,0.5,1.3,0.8,1.9c7.9,0.3,15.8,0.3,23.6,1.1c4.7,0.5,6.7-1.2,7.2-5 c-3.8-3.4-7.3-6.6-11-9.6c-0.9-0.7-2.8-1.1-3.6-0.6C107.4,674.3,101.8,678.5,96.1,682.6z M638.7,226.5c3.1,0.3,5.4,0.6,7.7,0.6 c1.5,0,3-0.4,4.5-0.6c-0.7-1.5-1-3.4-2.1-4.5c-8.5-8.3-6.8-17.1,4.1-20.9c1.6-0.5,3.6-1.5,4.1-2.8c1.7-4.1-1.8-13.2-4.7-15.5 c-1.8,4.9-2.8,10.8-5.9,15.3C640.6,206.7,640.3,216.4,638.7,226.5z M298.7,62.6c-6.2,1.3-11.7,2.4-17.1,3.8 c-1.1,0.3-2.7,1.8-2.8,2.9c-0.3,4.6-0.1,9.2-0.1,13.9C287.6,82.6,296.6,73.6,298.7,62.6z M938.7,730.8c-4.1-2.4-7.8-4.5-11.5-6.6 c-4.6-2.7-9.3-5.4-14.1-0.3c-0.6,0.6-1.8,0.6-3.4,1.1c1.5,2.8,2.4,7.2,4.1,7.5C921.9,733.9,930.2,734.6,938.7,730.8z M266.5,556 c6.9,5.9,13.1,3.6,15-4.4c0.7-2.7,2.5-5.1,4.2-7.5c1.7-2.4,3.8-4.6,5.7-6.8c-0.4-0.4-0.8-0.8-1.2-1.2 C280,539.7,272.6,546.7,266.5,556z M336.5,499.6c-5-8-8.8-9.3-16.7-6.6c-3.9,1.3-7.4,7.8-7,13C320.6,504,328.3,501.9,336.5,499.6z M335.8,493.2c1.3,3.2,4.1,4.5,8.6,2.1c7.3-4,14.3-8.6,21.7-13.2c-5.5-4.8-5.6-4.9-10.5-1.8C349,484.5,342.5,488.8,335.8,493.2z M1017.8,745.9c-4.5-3.1-28.2-7-34.1-5.6C987.9,748.7,1003.8,751.3,1017.8,745.9z M925.6,594.8c-0.4-0.7-0.8-1.4-1.1-2.1 c-7,1.4-14,2.8-21.4,4.2c3.1,4.8,5.8,8.8,8.9,13.7C916.6,605.2,921.1,600,925.6,594.8z M1103.4,823.3c-8.2,3.7-12,11.1-16.4,18 c0.4,0.6,0.7,1.2,1.1,1.7c6.2-2.5,12.5-5,18.9-7.6C1106,831.7,1104.8,827.7,1103.4,823.3z M537.8,792.6c-0.6-6.2-1.1-11.6-1.7-16.9 c-8.8,0-11.8,2.2-12.7,9.6c-0.2,1.3,0.7,3.6,1.6,4C529.3,790.7,533.8,791.6,537.8,792.6z M355.1,631.1c-0.5-0.1-1-0.2-1.5-0.3 c-3.2,12-6.5,23.9-9.9,36.3c7-1.6,9.2-3.9,9.4-8.5c0.4-7.6,1-15.2,1.6-22.8C354.9,634.2,355,632.6,355.1,631.1z M1214,570.5 c-3.9-7.8-7.4-14.8-10.9-21.7c-2.2,0-4.6,0-7.3,0C1200.4,557.2,1201.9,567.6,1214,570.5z M309.1,56.4c6.1-1.7,11.4-3.4,16.8-4.6 c4.7-1.1,5.7-3.7,4-8C321.1,44.2,313.8,46.9,309.1,56.4z M226.7,306.3c4.3,1,7.4-0.1,9-4.4c1.4-3.9,2.8-7.9,7.7-8.9 c0.7-0.1,1.2-1.7,1.5-2.7c0.1-0.2-1.1-1.1-1.8-1.2c-3.7-0.6-10.9,3.6-12.2,7C229.7,299.3,228.3,302.5,226.7,306.3z M915.2,533.9 c-0.5-0.4-1-0.8-1.5-1.2c-5.9,2.5-11.7,5.1-17.6,7.6c0.1,0.5,0.1,1,0.2,1.5c3.7,1.5,7.5,3.1,11.3,4.5c0.5,0.2,1.8-0.3,2.1-0.8 C911.6,541.7,913.4,537.8,915.2,533.9z M364.7,413.7c1.8,3,2.8,6.2,4.4,6.7c2.1,0.5,5.5-0.6,7.1-2.2c2.6-2.6,4.1-6.1,6.1-9.3 c-0.5-0.3-0.9-0.6-1.4-0.9C375.9,409.8,370.9,411.6,364.7,413.7z M171.3,356.2c-0.1-0.7-0.3-1.4-0.4-2.1c-4-0.8-8-1.6-12-2.4 c-0.5,4-1,8-1.5,12c0.7,0.3,1.4,0.7,2.1,1C163.4,361.9,167.4,359,171.3,356.2z M451,515.5c-7.6-1.9-14.7-3.7-22.1-5.5 c1.2,9.8,9.7,6,14.4,8.9c1.4,0.9,4.2-0.6,6.4-1.1C450,517.7,450.2,517,451,515.5z M926.2,565.2c0.2-0.4,0.4-0.8,0.7-1.2 c-3.9-3-7.8-6-11.9-9.2c-4,8.3-3,10.1,4.9,10.4C922,565.3,924.1,565.2,926.2,565.2z M601.4,52.3c-0.6-4.7-1.1-8.4-1.5-12.2 c-0.6-0.1-1.2-0.1-1.9-0.2c-2.1,3.2-4.1,6.4-6.6,10.3C595,50.9,597.7,51.5,601.4,52.3z M338.5,669.4c-0.3-0.5-0.6-0.9-0.9-1.4 c-6,2.9-12,5.9-18,8.8c0.2,0.4,0.4,0.9,0.7,1.3C326.8,676.2,333.8,675.1,338.5,669.4z M661.8,136.7c-0.2-0.5-0.5-0.9-0.7-1.4 c-7-0.7-10.1,1.6-10.1,9.1C655.1,141.4,658.4,139,661.8,136.7z M656,129.1c0.2,0.5,0.3,1.1,0.5,1.6c2.2-0.1,5.2,0.5,6.3-0.7 c1-1.2,0-4.1-0.2-6.3c-0.5-0.1-1-0.2-1.5-0.2C659.3,125.4,657.7,127.2,656,129.1z M412.2,728.7c-2.6,2.1-4.7,3.8-7.4,6 C412.8,736.2,413.7,735.4,412.2,728.7z M909.1,721.9c0.4,0.4,0.9,0.8,1.3,1.1c1.9-1.2,3.8-2.3,5.8-3.5c-0.1-0.5-0.2-0.9-0.2-1.4 c-1.8-0.7-3.7-1.3-6-2.1C909.6,718.5,909.4,720.2,909.1,721.9z"/> </svg>