<svg xmlns="http://www.w3.org/2000/svg" width="72.178" height="119.99"><path fill="#fff" d="M53.162 93.68c-.028 0 .062-.069.11-.1-.007-.048 0-.117.014-.117a3.548 3.548 0 0 0-.56-1.12.907.907 0 0 1-.152-.678 1.991 1.991 0 0 0-1 .36 5.093 5.093 0 0 0-.49.456c.138.207.27.422.407.63a.913.913 0 0 1 .353.552l.111.173a3.317 3.317 0 0 0 .656-.035 2.946 2.946 0 0 0 .551-.12zm-5.455-57.726.014-.007c.007-.014.021-.02.034-.035a3.523 3.523 0 0 0 .284-.29 1.061 1.061 0 0 1 .263-.318.966.966 0 0 1 .477-.809 6.366 6.366 0 0 1 3.346-.933.751.751 0 0 1-.042-.18c-1.279-1.016-3.028-1.334-4.556-1.8a1.133 1.133 0 0 1-.207-.083 1.166 1.166 0 0 1-.138-.028c-3.264-1.023-6.589-1.7-9.575-3.45-.007 0-.014-.007-.02-.013-2.607 1.756-4.854 3.664-6.064 6.657a1.114 1.114 0 0 1-.228.346 1.134 1.134 0 0 1-.1.36c-.083.165-.173.331-.256.49a4.7 4.7 0 0 1 .927.263 1.482 1.482 0 0 1 .193.09c4.21-2 8.946-2.109 13.53-2.116.02 0 .034.007.055.007a1.159 1.159 0 0 1 1.016.505c.083.11.173.221.256.332a.771.771 0 0 1 .187.152 3.755 3.755 0 0 1 .6.864zM19.35 103.36c-.083-.028.248-.042.248-.02a1.077 1.077 0 0 0 .332-.112 2.517 2.517 0 0 0 .768-.58 2.659 2.659 0 0 0 .5-3.333c-.7.8-1.41 1.59-2.177 2.316-.028.021-.063.042-.09.063a1.114 1.114 0 0 1-.436.338 2.757 2.757 0 0 0 .443 1.072.535.535 0 0 0 .412.256zm52.3-9.824c.54 2.13.961 4.791-.277 6.761a1.054 1.054 0 0 1-.13.166 7.538 7.538 0 0 1 .02 4.321 4.631 4.631 0 0 1-1.155 4.086.67.67 0 0 1-.014.166 7.72 7.72 0 0 1-2.654 3.892 6.672 6.672 0 0 1-3.976 2.046 1.658 1.658 0 0 1-.228.055c-10.294 1.48-14.843-9.872-15.658-18.113a1.385 1.385 0 0 1 0-.24v-.015c-.049-.6-.049-1.2-.042-1.812a101.909 101.909 0 0 1-12.153.118 16.057 16.057 0 0 1 .27 4.348 4.431 4.431 0 0 1 .435 2.531 1.328 1.328 0 0 1-.208.594.752.752 0 0 1 .028.18c.117 1.694-.595 3.222-.47 4.93a4.334 4.334 0 0 1-.892 3.324 3.523 3.523 0 0 1-1.092 2.932 6.279 6.279 0 0 1-3.326 4.39c-.02.013-.04.007-.062.013-1.479 1.84-4.383 2.13-6.526 1.438h-.007c-2.095.692-4.058-1.037-4.756-3.028a6.434 6.434 0 0 1-3.4-4.818c-.014-.069-.02-.138-.027-.2a9.708 9.708 0 0 1-1.355-4.12c-.007-.014 0-.028-.007-.048a9.443 9.443 0 0 1-1.653-5.358.905.905 0 0 1-.069-.215 16.335 16.335 0 0 1-.643-3.58 5.252 5.252 0 0 1-.774-3.437 1.031 1.031 0 0 1 .014-.145 6.719 6.719 0 0 1-.36-2.62 1.026 1.026 0 0 1 .1-.408.538.538 0 0 1-.02-.1 5.861 5.861 0 0 1 .3-2.787.771.771 0 0 1 .054-.117 3.839 3.839 0 0 1 .7-3.4 1.6 1.6 0 0 1-.02-.263 4.614 4.614 0 0 1 1.126-2.738 1.16 1.16 0 0 1 .035-.3 4.192 4.192 0 0 1 1.341-2.24 3.157 3.157 0 0 1 1.327-.622c-.67-1.853-.172-3.844-.767-5.662a5.63 5.63 0 0 0-.159-.429 1 1 0 0 1-.49-.159c-4.018-2.565-6.63-6.775-4.59-11.344-.644-.07-1.287-.11-1.889-.187a1.059 1.059 0 0 1-.753-.429.844.844 0 0 1-.629-.954c.318-3.132 3.18-4.48 6-4.383a14.371 14.371 0 0 1-2.57-2.7 25.209 25.209 0 0 1-3.216-6.035.922.922 0 0 1-.028-.54.18.18 0 0 1-.007-.083c.021-3.214.25-6.864 1.715-9.8-2.143-2.772-3.56-6.049-5.939-8.648a.946.946 0 0 1-.193-.31.975.975 0 0 1-.083-.133 20.452 20.452 0 0 0-1.61-3.456.833.833 0 0 1-.146-.609.985.985 0 0 1 .193-1.106c4.771-5.2 11.96-7.21 18.542-9.022a.8.8 0 0 1 .117-.02 8.694 8.694 0 0 1 4.784-1.4c-.373-4.162 1.418-7.522 4.211-10.646a.878.878 0 0 1 .905-.3c8.573-3.207 15.32 4.536 19.04 11.345a.993.993 0 0 1-.256 1.293 1.286 1.286 0 0 1-.2.442 1.208 1.208 0 0 1-.912.512.993.993 0 0 1-.678.235h-1.995c-.636 1.431-1.949 2.344-2.827 3.6a1.146 1.146 0 0 1 .263.16c4.078 3.276 9.533 4.168 13.211 8.018a1.076 1.076 0 0 1 .387.277c2.074 2.323 4.964 3.7 6.734 6.32a.948.948 0 0 1 .172.6 3.211 3.211 0 0 1-.47 3.746 4.518 4.518 0 0 1-3.989.975.436.436 0 0 1-.089-.028 1.078 1.078 0 0 1-.67.263c-1.073.062-2.144.035-3.216.021a4.594 4.594 0 0 1-.207.594.787.787 0 0 1-.367.367 2.157 2.157 0 0 1-1.474 1.147c.54 1.984.657 4.024 1.023 6.035a.963.963 0 0 1 .484.63 14.322 14.322 0 0 1 .726 3.3.151.151 0 0 1 0 .056 20.815 20.815 0 0 1 5.945 3.062c2.088 1.528 3.257 3.823 4.46 6.042a.985.985 0 0 1-.187 1.224 1.018 1.018 0 0 1-.235.29A8.326 8.326 0 0 1 59.86 63.1a.985.985 0 0 1-.7-.083.619.619 0 0 1-.11-.007c-.67-.11-1.369-.208-2.067-.318a69.642 69.642 0 0 1 2.918 6.571 2.938 2.938 0 0 1 .712.671 4.028 4.028 0 0 1 3.32 1.936 10.951 10.951 0 0 1 2.543 2.04 6.145 6.145 0 0 1 1.216 3.165 5.43 5.43 0 0 1 1.231 4.065 6.732 6.732 0 0 1 1.01 3.132.7.7 0 0 1 .227.283 11.453 11.453 0 0 1 .79 3.678 1.859 1.859 0 0 1 .1.2 10.48 10.48 0 0 1 .463 4.6.524.524 0 0 1-.028.145 1.034 1.034 0 0 1 .164.358zm-2.067 5.71c.926-1.465.47-3.588.07-5.164a1.019 1.019 0 0 1-.029-.38.858.858 0 0 1-.186-.67 9.389 9.389 0 0 0-.27-3.623.974.974 0 0 1-.242-.609 9.806 9.806 0 0 0-.553-3.194 1.473 1.473 0 0 1-.1-.332 1.186 1.186 0 0 1-.387-.8 4.778 4.778 0 0 0-.9-2.495.827.827 0 0 1-.145-.622 1.2 1.2 0 0 1 .007-.159 3.494 3.494 0 0 0-.913-2.987.947.947 0 0 1-.269-.857 1.034 1.034 0 0 1-.035-.138c-.214-1.9-1.486-2.655-2.938-3.678a1.944 1.944 0 0 1-.207-.187 1.425 1.425 0 0 1-.36-.525c-.283-.754-1.43-.823-2.108-.878a1.008 1.008 0 0 1-.809-.477 1.283 1.283 0 0 1-.173-.208 1.6 1.6 0 0 0-1.68-.477 1.023 1.023 0 0 1-.207 0 1 1 0 0 1-.519 0 3.122 3.122 0 0 0-2.053.07 1.277 1.277 0 0 1-.463.117.966.966 0 0 1-.313.018c-1.556-.132-2.669 2.191-3.146 3.387a1.134 1.134 0 0 1-.415.52c.291.621.581 1.25.857 1.886 6.077-9.43 12.735 8.814 13.634 14.09.871 5.1 2.544 17.31-5.289 18.43-7.833 1.12-8.5-9.395-9.54-14.836-.09-.138-.18-.283-.27-.422a21.712 21.712 0 0 0 .021 2.614.873.873 0 0 1-.007.235c0 .007.007.014.007.02.663 6.706 4.251 17.381 13.031 16.115a.52.52 0 0 1 .1-.007 1.008 1.008 0 0 1 .518-.117c1.065.035 2.171-.947 2.883-1.645a5.8 5.8 0 0 0 1.908-2.78.227.227 0 0 1 .021-.062 1.062 1.062 0 0 1 .242-.657 2.721 2.721 0 0 0 .857-2.62.963.963 0 0 1-.02-.539.84.84 0 0 1 .02-.18 5.094 5.094 0 0 0 .023-3.432 1.05 1.05 0 0 1 .187-1.2.983.983 0 0 1 .16-.545zm-6.015-.1a25.618 25.618 0 0 0-.2-4.23 2.892 2.892 0 0 1-.74.63 4.525 4.525 0 0 1-3.927.145.426.426 0 0 1 .09.145l.007.007c1.14 1.548 3.082 2.36 4.77 3.306zm-.933 4.577a12.427 12.427 0 0 0 .85-3.422c-1.2-.726-2.523-1.34-3.692-2.136a61.7 61.7 0 0 1 2.841 5.561zm-2.683-9.81c1.266.263 2.386-.31 2.275-1.908a2.761 2.761 0 0 0-.85-1.922c-.5-.47-.65-.477-.87.194a1.026 1.026 0 0 1-.5.6 3.543 3.543 0 0 1 .248 2.268 3.327 3.327 0 0 1-.304.771zm1.376 11.967a7.352 7.352 0 0 0 .622-.843c-1.147-2.365-2.385-4.68-3.422-7.093a.053.053 0 0 0-.014-.028 68.8 68.8 0 0 0 1.4 8.413 3.163 3.163 0 0 0 .366.007.427.427 0 0 1 .394.194 5.694 5.694 0 0 0 .653-.647zm-2.4-17.048a2.153 2.153 0 0 1 2.987-.9 41.1 41.1 0 0 0-1.957-5.5 39.516 39.516 0 0 0-1.03 6.403zm2.814-28.8c-1-1.853-2.053-3.768-3.865-4.936A17.7 17.7 0 0 0 50.6 52.07a1.129 1.129 0 0 1-.166-.035.938.938 0 0 1-.7.291 36.153 36.153 0 0 0-5.766.92 1.018 1.018 0 0 1-.055.483c-.042.1-.07.214-.1.325 6.077-1.279 11.752 1.1 14.6 6.79.421.054.83.1 1.2.165h.014a6.193 6.193 0 0 0 2.114-.975zm-1.894-24.209c.45-.477.25-1.085-.035-1.61a1.07 1.07 0 0 1-.117-.387 12.672 12.672 0 0 0-2.379-2.413 3.36 3.36 0 0 0-2.806 1.4c1.79.81 3.5 1.55 4 3.491a1.845 1.845 0 0 0 1.337-.48zm-.6 45.131c-.1-.18-.186-.367-.283-.547a17.186 17.186 0 0 0-1.784-2.9 3.387 3.387 0 0 0-.428.2c.477 2.78 1.01 5.545 1.444 8.324.261-1.704.634-3.39 1.05-5.077zm-.117 26.408c-.007-.027-.007-.048-.014-.069-4.66-.829-5.109-7.729-5.144-11.71a4.566 4.566 0 0 1-1.728.317 39.606 39.606 0 0 0 1.175 5.856c.8 2.6 3.061 6.194 5.71 5.606zm-.922-14.57a1.864 1.864 0 0 0-.809-1.964 1.437 1.437 0 0 0-.815-.31c.055 0-.042.047-.056.04a1.013 1.013 0 0 0-.09.242.947.947 0 0 1-.352.56 1.047 1.047 0 0 1-.56.484v1.277a1.036 1.036 0 0 1 .083.43c.007 1.603 2.371.192 2.6-.76zm.574 13.335c-.74-2.938-.933-5.98-1.424-8.967a12.465 12.465 0 0 0-.9 6.451.549.549 0 0 1-.048.324 4.246 4.246 0 0 0 2.372 2.19zm-1.72-37.368c.1-.014.206-.028.31-.035a28.9 28.9 0 0 1-2.337-6.416 9.305 9.305 0 0 1-3-1.2 43.263 43.263 0 0 1 2.675 7.28 1.15 1.15 0 0 1 .05.291 5.625 5.625 0 0 1 2.301.08zM54.67 89.644a2.274 2.274 0 0 1 2.343-1.153 23.934 23.934 0 0 1-3.138-5.64c-.1.421-.173.828-.228 1.21a35.891 35.891 0 0 1 1.023 5.583zm1.95 6.574a3.089 3.089 0 0 1-1.6-.138 29.6 29.6 0 0 0 .38 4.666 17.961 17.961 0 0 1 1.22-4.528zm.7-9.042c-.415-2.91-.975-5.8-1.48-8.7a8.4 8.4 0 0 0-1.53 2.815.462.462 0 0 1 .076.111 28.915 28.915 0 0 0 2.931 5.774zm-.919-10.44a3.4 3.4 0 0 0-.567-.38c-1.846-.954-2.938 1.328-3.643 2.683a1.454 1.454 0 0 1-.11.166c.352.905.67 1.818.96 2.737.578-2.122 1.65-4.293 3.36-5.206zm-3.035-40.29c.595.007 1.2.02 1.791.014-.152-.215-.325-.429-.484-.637a9.713 9.713 0 0 0-1.48.118 4.3 4.3 0 0 1 .17.505zm-1.59 21.313c.8 2.061 3.166 2.621 5.385 2.925-2.82-4.936-7.977-6.865-13.563-5.524a14.733 14.733 0 0 0-.02 2.005 1.8 1.8 0 0 0 .137.09 7.123 7.123 0 0 1 7.328-.29 1.028 1.028 0 0 1 .284.255 1.017 1.017 0 0 1 .446.54zm4.4-27.245a21.667 21.667 0 0 1-2.62-2.274 1.038 1.038 0 0 1-.374-.27c-.1-.1-.193-.187-.29-.29a.209.209 0 0 1-.042.034c-1.05.54-1.444 1.763-2.163 2.67a8.511 8.511 0 0 1 3.07 1.707 4.4 4.4 0 0 1 2.42-1.577zm-2.868 63.091v-.035c0 .021-.007.028-.007.042a.007.007 0 0 1 .007-.007zm-.56-24.59a.346.346 0 0 1-.035-.077 43.383 43.383 0 0 0-2.4-6.637c-1.362 2.946-1.617 6.3-1.7 9.562 0 .013-.007.02-.007.034.076.09.152.173.221.263a1.5 1.5 0 0 1 .145.221 1.851 1.851 0 0 1 .1.166c.027.048.048.1.076.152.78-1.569 1.968-3.256 3.6-3.685zm-.159 20.576c-.58-5.606-2.752-11.033-5.3-16-.02-.035-.027-.069-.04-.1a7.233 7.233 0 0 0-.907-.975 9.068 9.068 0 0 0-1.949.892c-.07.823-.042 1.64-.187 2.461 2.316 4.805 3.81 9.914 5.7 14.878a4.009 4.009 0 0 1 .865-.664 4.258 4.258 0 0 1 1.818-.492Zm-2.98-59.565c.982-.919 1.341-2.337 2.51-3.076a16.817 16.817 0 0 0-2.6-1.825 5.936 5.936 0 0 0-1.306 2.537 12.763 12.763 0 0 1-.733 1.721c.083.028.173.05.256.076a1.532 1.532 0 0 1 .207.09.965.965 0 0 1 .138.028c.505.156 1.02.301 1.528.453zm1.2 7.2c-.04-.2-.076-.408-.11-.615l-.768.228c.293.146.584.277.881.395zm-.353 10.515a1.228 1.228 0 0 1-.082-.242c-.332-1.728-.353-3.609-.775-5.344-3.539.567-7.072 1.1-10.626 1.55-1.45.213-2.9.42-4.362.58a.465.465 0 0 1-.263-.049c-.027 0-.055.007-.076.007a2.453 2.453 0 0 0 .166.394 38.168 38.168 0 0 0 2.544 3.595 34.13 34.13 0 0 1 6.056 3.076 58.794 58.794 0 0 1 5.997-1.017 6.179 6.179 0 0 1 1.424-2.542zM49.34 59.743a2.966 2.966 0 0 1 .594-1.017 5.042 5.042 0 0 0-5.08.215l-.05.027a.6.6 0 0 1-.048.1 1.056 1.056 0 0 1-.906.512c.954 2.986 1.514 6.166 2.862 8.994a19.023 19.023 0 0 1 2.628-8.829zm-.09-18.7a7.253 7.253 0 0 0-1.68-1.936 31.931 31.931 0 0 0-8.359.567 23.166 23.166 0 0 1-4.41 1.072 9.927 9.927 0 0 0-.67 2.49c1.6-.16 3.2-.354 4.8-.555 3.44-.512 6.87-1.127 10.32-1.639zM47.68 90.95a1 1 0 0 1 .035-.138c-1.486-3.989-2.738-8.068-4.425-11.974a.988.988 0 0 1-.207.021h-1.34c-.52 4.507-.976 9.374-2.608 13.557a3.088 3.088 0 0 1-.324.622c2.772.035 5.544-.083 8.33-.235a1.963 1.963 0 0 0 .263-1.154 1.053 1.053 0 0 1 .276-.7zm-1.2-61.86c.858-1.34 1.01-3.332 2.1-4.487-2.64-1.41-5.517-2.482-7.97-4.21a11.246 11.246 0 0 1-1.778 4.321c.132-.049.256-.1.394-.145a22.356 22.356 0 0 0 2.461-1.162c.616-.387 1.051-.615 1.162-.49.111.123-.11.545-.622 1.112a7.514 7.514 0 0 1-2.538 1.6c.166 0 .325-.007.491 0a12.663 12.663 0 0 1 2.3.3c.581.125.941.277.941.436 0 .16-.374.3-.975.387a15.454 15.454 0 0 1-2.316.042l-.449-.02a40.519 40.519 0 0 0 6.803 2.316zm-.567 7.95a19.05 19.05 0 0 0-.656-.87c-4.03.006-8.255.054-11.974 1.748a3.323 3.323 0 0 0 .988.726.126.126 0 0 1 .05.035c2.2-.007 4.382-1.155 6.58-1.4 1.677-.178 3.343-.226 5.016-.24zM45.3 11.723a35.41 35.41 0 0 0-2.2-3.27 7.273 7.273 0 0 1-3.775-2.2 1.622 1.622 0 0 1-1.742 1.2A7.638 7.638 0 0 1 32.536 5.4a1.779 1.779 0 0 1-.67 1.32 1.991 1.991 0 0 1-1.024.422c3.008 1.77 6.305 2.945 9.458 4.445h.491a20.177 20.177 0 0 1-2.323-1.839c-.58-.539-.954-.919-.864-1.057.09-.138.587-.007 1.334.38.747.387 1.673 1.023 2.675 1.666a14.053 14.053 0 0 0 1.48.843 17.958 17.958 0 0 1 2.207.143zm-2.15 60.014a11.122 11.122 0 0 1 2.281-1.12c-1.928-3.373-2.516-7.335-3.747-10.992a10.645 10.645 0 0 1-2.1.138 4.187 4.187 0 0 1-.415.892 69.836 69.836 0 0 0 3.906 11.1zm-.8 5.047c-.028-.055-.048-.11-.076-.166a1.082 1.082 0 0 1-.1-.588 1 1 0 0 1 0-.47 8.033 8.033 0 0 0 .146-1.348 1.039 1.039 0 0 1-.256-.207.958.958 0 0 1-.394-.415 30.267 30.267 0 0 1-.609-1.258 11.6 11.6 0 0 0 .325 4.452zm-.256-63.568a.934.934 0 0 1 .491-.608c-.8 0-1.6.027-2.4.013a.58.58 0 0 1-.283-.1.207.207 0 0 1-.062-.02c-1.749-.83-3.54-1.564-5.3-2.352a.373.373 0 0 1-.13.07 2.229 2.229 0 0 0-1.024.746c2.59 1.608 5.728 1.898 8.707 2.251zm-.186 39.96c.014-.036.034-.063.048-.1a35.781 35.781 0 0 0-6.222-3.14.035.035 0 0 1-.02-.013 1.948 1.948 0 0 0 .041.29 1.067 1.067 0 0 1 .29.456 39.542 39.542 0 0 0 3.035 7 8.983 8.983 0 0 0 2.434-.125 11.485 11.485 0 0 1 .393-4.369zm-.125-46.313a19.385 19.385 0 0 0-2.15-2.067 4.345 4.345 0 0 0 2.15 2.067zm-2.227 72.714c.042-.325.09-.65.132-.975-2.068.228-3.81 1.535-5.98 1.632a23.822 23.822 0 0 1-5.24-.47c-.056.124-.11.255-.167.38a16.889 16.889 0 0 1 3.81 1.445.966.966 0 0 1 .394.311.846.846 0 0 1 .228.318c2.302.02 4.943-1.48 6.823-2.64zm-.31-62.455a33.229 33.229 0 0 0 2.474-2.917 24.615 24.615 0 0 1-7.784-1.743.735.735 0 0 1-.076.14 4.115 4.115 0 0 0-1.12 1.914 6.91 6.91 0 0 0 1.61 2.174 6.616 6.616 0 0 1 4.895.432zm.154 51.18c-.083-.229-.166-.45-.249-.678-.263 1.68-.608 3.346-.843 5.04.207-.007.415-.02.622-.028h.028a8.6 8.6 0 0 1 .252-1.346 1.011 1.011 0 0 1-.276-.726V69.18a.965.965 0 0 1 .466-.878Zm-.18 8.3a16.325 16.325 0 0 1-.269-1.888h-.02c-.644.034-1.287.055-1.93.09.007.027.021.048.028.083a6.525 6.525 0 0 1-.118 2.461 11.889 11.889 0 0 1 2.313-.75zm-.5 8.33q.25-1.359.456-2.73a14.581 14.581 0 0 1-6.409 2.045c0 .657-.014 1.362-.069 2.054 2.074.03 4.667-.094 6.022-1.373zm-.083-66.63a1.138 1.138 0 0 1 .076-.284 5.573 5.573 0 0 0-4.356-.242.387.387 0 0 1-.228.041.473.473 0 0 1-.1-.014.381.381 0 0 1-.055-.02.481.481 0 0 1-.193-.159 8.566 8.566 0 0 1-2.08-2.963.457.457 0 0 1 .04-.387v-.02a5.043 5.043 0 0 1 1.293-2.276 5.003 5.003 0 0 1-.2-.124 2.4 2.4 0 0 0-.3.131 8.613 8.613 0 0 0-1.175 2.413.532.532 0 0 1-.29.332 1.755 1.755 0 0 1-.083.491c.864 1.223 1.977 2.24 2.938 3.387a15.438 15.438 0 0 1 2.724-.67.657.657 0 0 1 .117.007c.021 0 .035-.007.055-.007a4.93 4.93 0 0 1 1.817.36zm-.069 1.811c.048-.236.1-.457.131-.678a4.453 4.453 0 0 0-1.88-.456.511.511 0 0 1-.11-.02.207.207 0 0 0-.063.02 11.456 11.456 0 0 0-2.247.574 2.037 2.037 0 0 0 .67.5 5.028 5.028 0 0 1 3.5.056zM35.588 6.1c.567.187 2.9.885 2.862-.5a11.02 11.02 0 0 0-.235-1.783c0-.014.007-.028.007-.042a9.5 9.5 0 0 0-8.918-1 1.378 1.378 0 0 1-.159.041c-.277.318-.54.643-.788.968a12.348 12.348 0 0 0 .72 2.4h.005A7.362 7.362 0 0 0 31 6.04c.982-.394.388-1.48-.027-2.06a.78.78 0 0 1-.055-.118c-.457-.477.276-1.21.74-.726a10.637 10.637 0 0 0 3.93 2.96zm2.717 15.037-.042-.02c-.767-.609-2.28-.264-3.124 0a.456.456 0 0 1-.429-.07c-.02-.007-.035-.014-.055-.02-.152-.112-.31-.215-.464-.319.146 1.217 2.15 2.447 3.3 2.378a8.161 8.161 0 0 0 .814-1.953zm-.284 67.474c.16-.76.305-1.52.45-2.289a12.575 12.575 0 0 1-5.9 1.01 6.094 6.094 0 0 1-.374 1.334 95.23 95.23 0 0 1 4.847.54 1.687 1.687 0 0 1 .325-.263.951.951 0 0 1 .608-.139c.017-.066.031-.135.044-.197zm.388-23.257c-.312-.988-.609-1.977-.9-2.966-.346 3.457-.3 7.066-1.23 10.391.324-.027.656-.04.988-.055.34-2.472.92-4.899 1.142-7.374zm-1.03-5.738a1.835 1.835 0 0 0 .172-.3.917.917 0 0 1-.249-.567 38.124 38.124 0 0 1-2.5-5.385 5.132 5.132 0 0 0 1.498 5.833 1.191 1.191 0 0 1 .16.16.528.528 0 0 1 .317.041c.152.076.311.138.47.2.042.007.09.007.131.014zm-.056 31.656a1.47 1.47 0 0 1-.3 0c-2.378-.352-4.763-.539-7.155-.739a7.769 7.769 0 0 1 1.583 1.8 1.5 1.5 0 0 1 .062.145 16.354 16.354 0 0 0 3.471.208 2.666 2.666 0 0 0 2.34-1.418zm-.615-30.764a1.747 1.747 0 0 1-.166-.076 1.394 1.394 0 0 1-.083.27c-1.756 3.878-1.473 8.123-1.97 12.264.228-.035.456-.062.684-.09 1.203-3.938.933-8.307 1.535-12.372zM35.65 77.814a4.724 4.724 0 0 0 .346-2.93v-.022c-.629.055-1.258.124-1.888.242a.556.556 0 0 1-.152.014.357.357 0 0 1-.055.055 5.559 5.559 0 0 1-.588 3.028 8.317 8.317 0 0 0 2.337-.387zM34.53 24.63a2.468 2.468 0 0 0 2.178-.6 4.772 4.772 0 0 1-3.519-2.959.468.468 0 0 1-.263-.1 22.246 22.246 0 0 1-3.3-3.678 8.955 8.955 0 0 1-2.213-3.72.534.534 0 0 1 .028-.3.541.541 0 0 1 .014-.1 4.291 4.291 0 0 0 .263-.905.275.275 0 0 1 .055-.125 10.481 10.481 0 0 1-1.894-2.917 8.818 8.818 0 0 0 1.044 5.5c.843 1.6 1.631 3.228 2.592 4.763 1.085 1.746 2.761 4.733 5.015 5.141zm-.546 3.505c.263-.22.532-.449.816-.664a6.823 6.823 0 0 1-1.21.07 20.779 20.779 0 0 1-2.855-.346c-.733-.118-1.189-.256-1.189-.415 0-.159.45-.31 1.19-.408a18.152 18.152 0 0 1 2.4-.02 11.416 11.416 0 0 1-4.066-3.789c-.36-.5-.747-1.058-1.148-1.639-2.876 1.314-5.62 2.89-8.559 3.934a6.818 6.818 0 0 0 .52 2.032 7.482 7.482 0 0 0 .538 1.051 6.6 6.6 0 0 0 .567.864c.76 1.024 1.39 1.514 1.293 1.66-.056.11-.87-.18-1.867-1.155a5.824 5.824 0 0 1-.753-.857 7.551 7.551 0 0 1-.712-1.12 7.436 7.436 0 0 1-.706-2.1c-.235.07-.739.14-.739.2l-.007.11h.027l.014.021.007.035.014.076a4.309 4.309 0 0 0 .09.58c.18.768.491 1.494.684 2.157a4.775 4.775 0 0 1 .222 1.64c-.049.372-.118.58-.194.586-.076.006-.18-.193-.27-.559a11.8 11.8 0 0 0-.567-1.376 14.153 14.153 0 0 1-.988-2.178 4.09 4.09 0 0 1-.242-.733l-.173-.1c0 .042-.263.077-.477.111 0 .3.124.56.1.726a4.5 4.5 0 0 0 .11 1.065 10.818 10.818 0 0 0 .643 1.756 7.281 7.281 0 0 1 .436 1.244c.055.3.055.477-.007.5-.062.023-.18-.11-.346-.367-.166-.256-.408-.608-.7-1.057a7.746 7.746 0 0 1-.94-1.819 4.578 4.578 0 0 1-.24-1.25c0-.174.007-.312.007-.45a.1.1 0 0 1-.028.027 39.33 39.33 0 0 0-1.81 1.383c1.181 2.344 1.077 5.22 3.538 6.734a.981.981 0 0 1 .436.511 4.176 4.176 0 0 1 3.14 2.344c.144.117.282.235.413.36a1.048 1.048 0 0 1 .643-.3 39.343 39.343 0 0 0 4.134-.312 1.023 1.023 0 0 1 .7.09 5.077 5.077 0 0 1 2.71-.138c.007-.028.007-.049.014-.076a1.092 1.092 0 0 1 .041-.3.976.976 0 0 1 .062-.884 13.168 13.168 0 0 0 .692-1.265 1.113 1.113 0 0 1 .117-.173c.007-.013.007-.027.014-.04a14.152 14.152 0 0 1 2.357-3.886c-1.182.387-2.253.636-3.055.822-.954.208-1.583.325-1.646.166-.063-.159.443-.525 1.383-.947.92-.428 2.233-.864 3.623-1.376a17.8 17.8 0 0 0 1.8-.756zm.028 73.71a2.491 2.491 0 0 0-.3-1.722.922.922 0 0 1-.124-.657.741.741 0 0 1-.014-.13 12.709 12.709 0 0 0-.31-4.218 1.153 1.153 0 0 1-.049-.332 48.242 48.242 0 0 1-2.634-.318 7.8 7.8 0 0 1-4.542.975c.961 2.841.822 5.76.926 8.766a17.467 17.467 0 0 1-.449 6.022 5.063 5.063 0 0 1-.2.525 1.059 1.059 0 0 1 .173.594 1.036 1.036 0 0 1-.083.43.825.825 0 0 1 .3 1.057 11.466 11.466 0 0 1-2.095 4.086 4.24 4.24 0 0 1-.94.7l.09.021a1.028 1.028 0 0 1 .318.048c1.238.373 3.526.484 4.362-.733a1.046 1.046 0 0 1 .353-.325.989.989 0 0 1 .277-.22 4.256 4.256 0 0 0 2.336-2.822 1.128 1.128 0 0 1 .18-.5.894.894 0 0 1 .3-.67 1.528 1.528 0 0 0 .6-1.494 1.158 1.158 0 0 1 .311-1.037 1.008 1.008 0 0 1 .214-.408c.768-.927.228-2.482.3-3.588.07-1.134.595-2.116.512-3.277a.933.933 0 0 1 .18-.643.908.908 0 0 1 .008-.13zm-.194-51.062c-.1-.615-.124-1.23-.173-1.86a6.644 6.644 0 0 1-2.682.215 1.056 1.056 0 0 1-.76-.063c-2.123-.988-5.766-3.726-8.2-2.4.027.111.055.215.09.325a.341.341 0 0 0 .02.05.1.1 0 0 1 .014.04.007.007 0 0 0 .007.007v.007a.113.113 0 0 0 .013.042l.056.076c.622 1.216 1.251 2.426 1.832 3.657a1.21 1.21 0 0 1 .221.014 22.683 22.683 0 0 1 6.084 1.928l.394-.352a7.452 7.452 0 0 1 3.084-1.686zm-.78-31.075c.061-.1.13-.208.2-.312-1.05-1.272-2.282-2.385-3.222-3.747a.451.451 0 0 1-.076-.373.51.51 0 0 1 .027-.242 1.261 1.261 0 0 0 .063-.6.523.523 0 0 1 .027-.145c-.5-.408-.988-.83-1.445-1.273-.04.146-.1.291-.152.436a9.165 9.165 0 0 0 2.171 3.438 26.824 26.824 0 0 0 2.406 2.818zm-.672 53.62c.692-4.432.346-8.808 2.04-13.032a7.063 7.063 0 0 1-2-5.579c-2.966 2.91-4.356 7.2-7.985 9.43-.249.615-.512 1.23-.767 1.845.124.1.248.187.373.291a.957.957 0 0 1 .29.788.922.922 0 0 1 .1.38c.118 1.86.38 3.7.595 5.551 1.673-2.765 1.832-6.325 3.263-9.27a.861.861 0 0 1 1.023-.505 1.277 1.277 0 0 1 .318.028c3.61.836 2.917 5.482 1.39 10.072zm-.014 4.493a4.453 4.453 0 0 0 .526-2.42h-2.62c-.318.837-.65 1.653-.968 2.42a23.733 23.733 0 0 0 3.007.38.509.509 0 0 1 .055-.38zm.388-37.36c.027-.09.055-.173.076-.262a4.082 4.082 0 0 1-1.749-2.164 3.8 3.8 0 0 0-.484-.132c-.042.436-.1.871-.152 1.307-.007.028-.02.055-.028.09a5.63 5.63 0 0 0 2.337 1.161zM32.283 10.7a5.156 5.156 0 0 1 1.072-1.085 34.7 34.7 0 0 1-3.533-1.887 10.78 10.78 0 0 0 2.461 2.972zm1.044 36.171a6 6 0 0 1-1.189-2.544 5.244 5.244 0 0 1 .055-1.867 9.256 9.256 0 0 1-2.758-1.269 5.068 5.068 0 0 1-3.118.678.842.842 0 0 1-.186-.02 1 1 0 0 1-.678.282c-1.894.056-3.7.768-5.448-.124a3.72 3.72 0 0 1-3.422.276 4.367 4.367 0 0 1-3.159.471.9.9 0 0 1-.726-1.086 7.21 7.21 0 0 0-.532-1.486 11.017 11.017 0 0 0-3.436 1.12 33.741 33.741 0 0 0-.3 4.452 4.481 4.481 0 0 1 .844-.94 4.361 4.361 0 0 1 2.378-1c.712-.04 1.058.152 1.065.3.013.166-.4.291-.878.512a7.8 7.8 0 0 0-1.825 1.085 4.92 4.92 0 0 0-1.272 1.514 16.348 16.348 0 0 0 3.29 5.358c.187.18.38.353.574.533a13.9 13.9 0 0 1 7.847-4.764.561.561 0 0 0-.049-.083c-.014-.034-.02-.069-.034-.1a.687.687 0 0 1-.049-.069 6.4 6.4 0 0 1-.449-1.459.918.918 0 0 1-.007-.138c-.007-.014-.007-.028-.014-.042a11.412 11.412 0 0 1-2.454.774 3.445 3.445 0 0 1-1.106.014c-.256-.048-.394-.11-.4-.193-.006-.083.117-.166.36-.263.248-.076.56-.214.933-.353.408-.159.891-.4 1.445-.67a9.185 9.185 0 0 1-1.936-.429 3.509 3.509 0 0 1-1.528-.995 1.213 1.213 0 0 1-.249-.429c-.034-.11-.04-.18-.007-.2.034-.02.1-.006.194.056a3.913 3.913 0 0 0 .373.25 4.7 4.7 0 0 0 1.445.538 14.117 14.117 0 0 0 2.392.235c.47.014.968.048 1.48.062.09 0 .193.055.3.055l.213.07a3.847 3.847 0 0 1 3-.477c1.231-.3 2.365-.8 3.284-1.01 1.417-.338 2.344-.325 2.358-.186.027.18-.8.442-2.109.974-.47.173-1 .4-1.576.63a44.76 44.76 0 0 1 4.337 2.054 1.053 1.053 0 0 1 .318.041 4.337 4.337 0 0 0 2.41-.138zm-1.853-35.127a.428.428 0 0 1 .05-.352 13.141 13.141 0 0 1-3.969-6.443A12.007 12.007 0 0 0 26.38 7.29c.422 2.551 2.24 4.508 4.211 6.1a12.41 12.41 0 0 1 .884-1.647zm-.732 74.61a22.242 22.242 0 0 0-.02-3.126 8.937 8.937 0 0 0-2.932-1.085l-.118-.02c-.069.02-.18.054-.159.034-.007 0-.014.006-.027.013-.028.083-.056.173-.083.25a1.021 1.021 0 0 1-.38.538c0 .007-.008.014-.008.028a.026.026 0 0 1-.007.021v.021a1.433 1.433 0 0 1-.145.463c.09.18.187.36.277.532.594-.055 1.19-.062 2.115-.062a.454.454 0 0 1 .1.014.468.468 0 0 1 .491.366 21.568 21.568 0 0 0 .896 2.012zM25.73 80.99c1.355-3.422 5.731-13.2 3.954-15.347-1.452 3.581-1.535 7.521-4.418 10.383a22.966 22.966 0 0 1 .014 2.406 1.045 1.045 0 0 1-.076.34 8.616 8.616 0 0 0 .52 2.218.007.007 0 0 0 .006 0zm3.131 7.3c.775-.38 1.293-.788.851-1.687a15.932 15.932 0 0 1-.747-1.6c-.546 0-.954 0-1.314.021a13.07 13.07 0 0 1 1.21 3.266zm-3.74-25.939c2.1-1.8 3.43-4.369 5.116-6.616a6.908 6.908 0 0 1-3.858 1.583 1.046 1.046 0 0 1-.083.615c0 .062-.006.132-.013.2a23.9 23.9 0 0 1-1.162 4.216zm2.973-22.738c.021-.014.055-.04.09-.069a2.285 2.285 0 0 0-.125-.69 2.836 2.836 0 0 0-1.182.012c.014.3.028.63.028.927.193-.007.387-.014.574-.035a3.877 3.877 0 0 0 .615-.147zm1.182 53.212c-.615-.775-1.438-1.39-2.088-2.143a12.306 12.306 0 0 1-4.03.871c.38 2.113 4.258 2.224 6.118 1.27zm-2.433-4.252a9.543 9.543 0 0 0-.464-1.707 3.649 3.649 0 0 1-1.438.988 8.12 8.12 0 0 1-5.053.346 7.372 7.372 0 0 0 .463.981 9.529 9.529 0 0 0 6.492-.61zm-.96-33.3a4.491 4.491 0 0 0 2.736-.96 20.1 20.1 0 0 0-3.574-1.142c.284.691.54 1.39.767 2.11a.263.263 0 0 1 .07-.01zm-.45 31.082a2.026 2.026 0 0 0 .4-.774c-.45-.94-.962-1.86-1.425-2.793-1.472 1.133-4.756.72-5.455 2.274.187.615.34 1.231.512 1.846a5.944 5.944 0 0 0 3.754.353 3.821 3.821 0 0 0 2.213-.909zm-.492 17.94a60.86 60.86 0 0 0-.04-3.166 1.4 1.4 0 0 1-.243-.007 3.489 3.489 0 0 0-1.037-.049 4.9 4.9 0 0 1-.463 1.666 6.533 6.533 0 0 0 1.783 1.551zm-.013 1.97c0-.249 0-.51.006-.767a9.845 9.845 0 0 1-2.35-1.839 5.088 5.088 0 0 1-.622.65 18.963 18.963 0 0 1 2.9 3.228c.052-.563.066-1.033.066-1.275zm-.083-66.153c0-.443-.007-.768-.02-1.072-1.169.138-2.345.118-3.52.221 0 .021.007.042.007.07a2.372 2.372 0 0 1-.11.94c1.12.398 2.44-.01 3.643-.162zm-1.473 58.915a6.742 6.742 0 0 1 1.348.014 15.362 15.362 0 0 0-.546-2.655 14.556 14.556 0 0 0-1.535 1.376 4.412 4.412 0 0 1 .733 1.262zm3.4-79.842a22.875 22.875 0 0 1-2.654-5.468.948.948 0 0 1-.277.041 6.79 6.79 0 0 0-3.857 1.127 1.021 1.021 0 0 1-.477.18l-.118.041c-4.32 1.19-8.932 2.434-12.866 4.722a7.778 7.778 0 0 1 4.522 3.982l-.18-.878c-.214-.94-.463-1.77-.629-2.4-.166-.63-.249-1.044-.11-1.127.137-.083.47.215.856.782a7.857 7.857 0 0 1 1.024 2.488 9.216 9.216 0 0 1 .207 2.11c.221-.195.442-.38.657-.568a15.438 15.438 0 0 0 1.134-1.078 8.375 8.375 0 0 0 .9-1.079 9.9 9.9 0 0 0 .622-1.058c.353-.684.636-1.272.892-1.659s.436-.546.512-.51c.076.034.021.282-.1.711-.12.43-.283 1.023-.553 1.79a7.122 7.122 0 0 1-1.466 2.5c-.007.007-.013.021-.02.027a14.244 14.244 0 0 0 1.548-.242 18.421 18.421 0 0 0 3.08-1.529 14.762 14.762 0 0 0 3.09-3.008c.663-.96 1.126-1.54 1.271-1.458.145.083-.062.781-.553 1.86a11.522 11.522 0 0 1-1.6 2.232c1.731-.819 3.425-1.739 5.146-2.534zM24.278 57.59c.007-.028.014-.042.02-.063a24.972 24.972 0 0 0-1.05-3.263 7.647 7.647 0 0 0-5.91 1.445c1.88.857 1.61 3.858.662 5.517 1.791.408 3.637 1.037 5.3.055a22.169 22.169 0 0 0 .978-3.69Zm-1.348 54.141c.988-.076 1.493-1.4 1.75-2.766a25.423 25.423 0 0 0-3.016-3.58 21.083 21.083 0 0 0 1.266 6.346zm.995-29.99c-.048-.125-.1-.249-.152-.38-1.479 1.085-3.878 1.092-5.759.857.166.574.367 1.14.574 1.728.048-.048.083-.1.138-.145.961-.754 4.404-.892 5.2-2.06zm-.532 33.42a11.165 11.165 0 0 0 .947-1.93c-1.279.8-2.855.712-4.335-.844-2.634-2.758-4.244-8.669-5.012-12.284-1.07-5.113-1.376-10.713 1.528-15.286a1.134 1.134 0 0 1 .111-.145l-.042-.118a17.348 17.348 0 0 1-.968-3.346 2.09 2.09 0 0 0-.836 1.293 1.047 1.047 0 0 1-.145.318 1.247 1.247 0 0 1-.29.747 2.434 2.434 0 0 0-.65 1.431 1.016 1.016 0 0 1-.229.63 1 1 0 0 1-.249.967 1.728 1.728 0 0 0-.249 1.666 1.036 1.036 0 0 1-.04.657.786.786 0 0 1-.049.415 4.6 4.6 0 0 0-.222 2.233.776.776 0 0 1-.09.435c0 .028.007.055.007.076a5.3 5.3 0 0 0 .3 2.15.946.946 0 0 1 .027.533.336.336 0 0 1 .014.082c-.007.567-.173 1.55.214 2.033a1.772 1.772 0 0 1 .215.38.894.894 0 0 1 .345.788 12.251 12.251 0 0 0 .567 3.263 1.013 1.013 0 0 1 .125.45c.083 1.514.221 3.256 1.251 4.452a1.328 1.328 0 0 1 .173.29.873.873 0 0 1 .18.43 7.285 7.285 0 0 0 1.12 3.6 1.092 1.092 0 0 1 .242.656l.02.062a4.657 4.657 0 0 0 2.123 3.422.881.881 0 0 1 1.078.726 3.587 3.587 0 0 0 .166.567.129.129 0 0 1 .055.007 2.293 2.293 0 0 0 2.598-.807zm-.18-36.98c.007-.346.021-.685.014-1.03a2.959 2.959 0 0 1-1.459 1.251 7.266 7.266 0 0 1-4.21.3 1.025 1.025 0 0 1 .028.332c-.007.214-.007.421-.007.622a1.147 1.147 0 0 1 .062.691.036.036 0 0 0-.014.028c.028.263.062.518.111.767 1.763.27 4.438.4 5.676-.843a8.718 8.718 0 0 1-.3-1.61.961.961 0 0 1 .1-.509zm-.18-4.218a8.322 8.322 0 0 0-.048-.463c-1.514.857-4.4.74-6.11.52.144 1.16.1 2.321.3 3.462a5.375 5.375 0 0 0 4.43-.145 4.05 4.05 0 0 0 1.428-3.374zm-.193-1.773c-.09-.7-.173-1.4-.256-2.109a9.14 9.14 0 0 0-2.088.54 16.289 16.289 0 0 1-3.208.621 4.442 4.442 0 0 1-1.4-.152 9.644 9.644 0 0 1 .781 1.867c1.414.211 5.531.585 6.171-.767zm-.367-3.139a77.51 77.51 0 0 1-.11-1.32.359.359 0 0 1-.09.034 35.986 35.986 0 0 1-3.809.871 6.674 6.674 0 0 1-2.655-.29 1.017 1.017 0 0 1-.49.338c-.16 3.281 4.755.433 7.154.364zm-7.03-13.19a9.8 9.8 0 0 1 7.341-2.718 63.48 63.48 0 0 0-1.838-3.823 12.864 12.864 0 0 0-7.577 4.48.007.007 0 0 1-.007.007 19.677 19.677 0 0 1 2.081 2.05zm6.057 9.951c.442-1.064.891-2.115 1.306-3.18-1.742.52-3.588-.117-5.406-.484a.9.9 0 0 1-.159.035 4.393 4.393 0 0 0-.9.062.489.489 0 0 1-.518-.186 17.008 17.008 0 0 0 .214 4.2c1.894.66 3.563-.018 5.463-.447zm1.59 28.8a3.962 3.962 0 0 1-1.69-1.722c-1.563 1.811-3.588 3.643-4.4 5.9a1.657 1.657 0 0 0 .864 1.058c1.775-1.73 3.254-3.728 5.225-5.235zm-1.419 16.628a21.58 21.58 0 0 1-1.05-6.063 2.738 2.738 0 0 1-1.736.2q.26.7.52 1.39c.441 1.154 1.133 3.47 2.266 4.473zm-1.583-19.987c-.207-.055-.415-.1-.615-.159a1.076 1.076 0 0 1-.484-.324 1.1 1.1 0 0 1-.31-.325 12.313 12.313 0 0 1-1.218-3.008c-.152.34-.29.685-.415 1.03a.449.449 0 0 1 .09.194c.4 1.555.671 3.146 1.106 4.694.623-.712 1.258-1.403 1.846-2.102zm-1.244-51.15c.491-.409.54-.838-.02-1.252a1.5 1.5 0 0 1-.236-.229c-.705-.822-1.472-2.46-2.668-2.654-1.03-.173-2.946.352-3.015 1.617a1.4 1.4 0 0 1 .311.3A9.088 9.088 0 0 1 14.6 40.79a2.305 2.305 0 0 0 1-.325.98.98 0 0 1 1.6-.242 1.23 1.23 0 0 0 1.432.166.852.852 0 0 1 .212-.287zM17.475 94.24a.475.475 0 0 1-.124-.207c-.353-1.162-.595-2.35-.85-3.54a17.829 17.829 0 0 0-.16 5.22 20.91 20.91 0 0 1 1.134-1.473zm-.512-33.295c.8-1.009 1.335-4.009-.373-4.4a.48.48 0 0 1-.22-.11l-.3.248a1.16 1.16 0 0 1 .047.318c-.007 1.01-.09 2.012-.173 3.021a1.086 1.086 0 0 1-.1.387 1.075 1.075 0 0 1 .014.215c0 .248-.007.5-.014.74a.544.544 0 0 1 .23-.11 4.319 4.319 0 0 1 .787-.1.585.585 0 0 1 .102-.209zm-3.09-.926c.055-.684.1-1.369.138-2.053-1.645-.712-4.86-.56-5.606 1.37a12.513 12.513 0 0 1 5.378 1.347v-.062a1.121 1.121 0 0 1 .09-.422 1.544 1.544 0 0 1 0-.18zm.18 6.858a15.576 15.576 0 0 1-.318-3.712c-.8-.256-1.6-.588-2.42-.775a5.828 5.828 0 0 0 1.185 6.471.846.846 0 0 1 .381-1.009 2.039 2.039 0 0 1 .166-.27 2.307 2.307 0 0 1 1.006-.705zm-.7-32.569a6.463 6.463 0 0 1-1.028-1.918 18.292 18.292 0 0 0-1.6-4.4.934.934 0 0 1-.146-.7 10.224 10.224 0 0 0-6.173-.049c2.164 2.731 3.567 5.98 5.876 8.6a.994.994 0 0 1 .16.235.75.75 0 0 0 .207.063.4.4 0 0 0 .09.02h.082c-.013 0 .346-.034.18-.007a1.1 1.1 0 0 1 .152 0 3.794 3.794 0 0 1 2.195-1.844zm-1.729 4.93c-.062-.1-.124-.2-.2-.3a.878.878 0 0 1-.145-.387.972.972 0 0 1-.325-.345 3.063 3.063 0 0 1-1.334-.256 13.022 13.022 0 0 0-.65 2.088 12.166 12.166 0 0 1 2.65-.8zM9.83 24.69a6.7 6.7 0 0 1 .76.436c-1.092-2.247-2.634-4.238-5.337-4.494a19.819 19.819 0 0 0-3.014 2.475 28.616 28.616 0 0 1 1.41 3.152c.021.042.028.083.05.118a11.46 11.46 0 0 1 6.138-.36c-.18-.1-.36-.2-.553-.3a21.153 21.153 0 0 0-3.519-1.427 6.836 6.836 0 0 1-.629-.193c-.194-.049-.374-.083-.512-.125-.276-.083-.428-.166-.428-.249 0-.083.165-.152.45-.207a4.048 4.048 0 0 1 .524-.069c.208.007.457.013.726.034a10.836 10.836 0 0 1 3.934 1.21z"/><path d="M71.078 89.048c.6.083 1.037.415.968.733-.069.318-.505.512-.982.436-.539-.014-.981-.284-.974-.609.007-.325.442-.573.988-.56zm-.117 2.067c.38.07.719.36.684.685-.035.325-.415.546-.905.463-.6-.124-.754-.518-.65-.809.103-.311.594-.373.871-.339zm-.007 3.678c.007.325-.45.581-1.023.567-.519-.055-.92-.359-.878-.684.042-.325.49-.532 1.009-.477.484.007.885.269.892.594z" style="fill:#fff" transform="translate(-28.1 -4.01)"/></svg>