<svg xmlns="http://www.w3.org/2000/svg" xml:space="preserve" width="72.178" height="119.99"><g style="fill:#fff"><path d="M382.003 278.6h-20.676c2.3-.453 5.31-2.206 5.5-5.769a.918.918 0 0 0-1.413-.82 5.285 5.285 0 0 1-3.429.75 8.098 8.098 0 0 0 1.897-1.842c.857-1.176 1.708-3.076.894-5.454a.918.918 0 0 0-1.618-.232 5.294 5.294 0 0 1-3.24 2.057c1.365-1.918 2.372-5.4-.079-8.13a.918.918 0 0 0-1.58.42 5.288 5.288 0 0 1-1.893 2.955 8.102 8.102 0 0 0 .038-2.643c-.225-1.437-.967-3.383-3.225-4.49a.918.918 0 0 0-1.307.982 5.293 5.293 0 0 1-.836 3.744c-.393-2.32-2.142-5.495-5.805-5.692a.918.918 0 0 0-.82 1.414 5.288 5.288 0 0 1 .752 3.415c-1.326-1.915-4.017-3.9-7.298-2.777a.918.918 0 0 0-.232 1.618 5.294 5.294 0 0 1 2.058 3.24c-1.92-1.364-5.401-2.371-8.13.08a.918.918 0 0 0 .42 1.58 5.288 5.288 0 0 1 2.954 1.893 8.09 8.09 0 0 0-2.643-.038c-1.438.225-3.384.967-4.49 3.224a.918.918 0 0 0 .981 1.308 5.29 5.29 0 0 1 3.745.836c-2.321.393-5.496 2.142-5.692 5.805a.918.918 0 0 0 1.414.82 5.285 5.285 0 0 1 3.428-.75 7.814 7.814 0 0 0-2.32 2.497h-17.697a.918.918 0 0 0-.918.917v4.222a.918.918 0 0 0 .918.918h2.728v32.475a.918.918 0 0 0 .918.918h4.874a.918.918 0 0 0 .917-.918v-4.896l25.734-3.442 25.734 3.442v4.896a.918.918 0 0 0 .917.918h4.874a.918.918 0 0 0 .918-.918v-32.475h2.728a.918.918 0 0 0 .918-.918v-4.222a.918.918 0 0 0-.918-.917zm-48.334-1.5a.918.918 0 0 0 .62-.897l-.02-.608a.918.918 0 0 0-.536-.806c-1.392-.635-3.086-.721-4.624-.298 1.054-2 3.673-2.554 4.518-2.51a.92.92 0 0 0 .914-.612l.284-.808a.918.918 0 0 0-.188-.924c-1.034-1.13-2.56-1.872-4.142-2.083a4.266 4.266 0 0 1 2.08-.88c1.321-.207 2.555.088 3.063.337a.918.918 0 0 0 1.072-.196l.417-.444a.918.918 0 0 0 .19-.95c-.535-1.432-1.671-2.691-3.058-3.48 2.159-.668 4.404.79 4.97 1.42a.918.918 0 0 0 1.08.214l.771-.37a.918.918 0 0 0 .52-.787c.068-1.528-.485-3.131-1.454-4.4 2.25.23 3.745 2.45 4.02 3.25a.918.918 0 0 0 .896.62l.608-.019a.918.918 0 0 0 .806-.536c.635-1.392.722-3.086.298-4.624 2 1.055 2.556 3.673 2.51 4.518a.918.918 0 0 0 .612.914l.808.284a.918.918 0 0 0 .924-.188c1.13-1.034 1.872-2.56 2.083-4.142a4.264 4.264 0 0 1 .88 2.08c.206 1.321-.088 2.554-.337 3.062a.918.918 0 0 0 .196 1.072l.444.417a.916.916 0 0 0 .95.191c1.432-.535 2.69-1.672 3.48-3.058.668 2.16-.79 4.404-1.42 4.97a.918.918 0 0 0-.214 1.079l.37.772a.918.918 0 0 0 .787.52c1.531.067 3.134-.486 4.402-1.456a4.268 4.268 0 0 1-.85 2.094c-.787 1.08-1.868 1.743-2.402 1.926a.918.918 0 0 0-.62.897l.019.608a.918.918 0 0 0 .536.807c1.392.634 3.086.721 4.624.298-1.054 2-3.672 2.555-4.518 2.51a.921.921 0 0 0-.914.612l-.285.808a.912.912 0 0 0-.05.297h-1.577a11.185 11.185 0 1 0-20.76 0h-4.843c.687-.777 1.515-1.315 2.06-1.501zm22.513-2.668a9.359 9.359 0 0 1-.979 4.169h-16.742a9.35 9.35 0 1 1 17.721-4.169zm-36.919 41.784h-3.039v-31.558h3.04zm1.835-5.831v-5.032l18.813 2.516zm51.468 0-18.813-2.516 18.813-2.516zm0-6.884-25.734 3.442-25.734-3.442v-18.843h6.392v15.779a.918.918 0 0 0 .918.917h36.848a.918.918 0 0 0 .917-.917v-15.78h6.392zm-43.24-3.982v-14.861h35.012v14.861zm48.114 16.697h-3.04v-31.558h3.04zm3.646-33.393h-68.508v-2.387h68.508z" style="stroke-width:.152919;fill:#fff" transform="translate(-310.743 -226.248)"/><path d="M360.828 286.847H347.08a.918.918 0 0 0-.917.918v8.647a.918.918 0 0 0 .917.918h13.748a.918.918 0 0 0 .917-.918v-8.647a.918.918 0 0 0-.917-.918zm-.918 8.648h-11.912v-6.813h11.912z" style="stroke-width:.152919;fill:#fff" transform="translate(-310.743 -226.248)"/><path d="M352.213 294.704a2.615 2.615 0 1 0-2.615-2.615 2.618 2.618 0 0 0 2.615 2.615zm0-3.395a.78.78 0 1 1-.78.78.781.781 0 0 1 .78-.78zm4.887 3.395a.918.918 0 0 0 .917-.918v-3.394a.918.918 0 0 0-1.835 0v3.394a.918.918 0 0 0 .917.918z" style="stroke-width:.152919;fill:#fff" transform="translate(-310.743 -226.248)"/></g></svg>