<svg xmlns="http://www.w3.org/2000/svg" width="72.178" height="119.99"><g style="fill:#fff"><path d="M57.32 24.66c1.25-1.52 2.58-3.6 2-5.12-.26-.67-.96-1.48-2.84-1.56-1.37-.06-2.79.32-4.1 1.08l-2.37 1.38c-4.2 2.45-8.79 3.68-13.24 3.58-5.06-.13-9.05-1.91-11.85-5.31-1.26-1.52-2.22-3.38-2.87-5.52-.71-2.37-1.78-4.24-3.11-5.52 2.26-1.26 3.33-3.02 2.87-4.91-.4-1.59-1.24-2.18-1.88-2.4-1.07-.37-2.17.06-2.84.44-1.15-.78-2.2-.99-3.13-.63-.79.31-1.28.97-1.57 1.59-1.73-.79-3.39-.02-4.21.85-.06.05-.09.09-.12.14-1.37 2.13-1.17 4.4.51 6.31-.11.28-.2.57-.28.89-.07.29-.12.65-.13 1.05-1.97 1.46-3.14 3.71-3.58 5.43-.1.38.04.77.35 1.01.17.13.38.2.59.2.16 0 .33-.04.48-.13.94-.53 2.18-.95 3.37-1.17-.83.98-1.67 2.38-1.8 4.09-.1 1.38.71 2.64 1.99 3.07.18.06.5.14.91.14.28 0 .6-.05.95-.15-1.01 5.43-.91 15.25 10.07 22.23.27 1.45 1.35 5.82 4.62 7.19.28.12.57.2.86.26l-1.38 4.98-3.11-1.22a.97.97 0 0 0-1.26.55c-.2.5.05 1.06.55 1.26l2.56 1-3.11 2.53a.96.96 0 0 0-.14 1.36c.19.24.47.36.75.36.21 0 .43-.07.61-.22l4.13-3.36h1.98c.54 0 .97-.43.97-.97s-.43-.97-.97-.97H27.5l1.44-5.22c1.49-.19 3.12-.91 4.88-2.17 1.3.44 3.06.76 4.88.64l-1.43 5.19-2.69-1.05a.978.978 0 0 0-1.26.55c-.2.5.05 1.06.55 1.26l1.83.72-2.4 1.42a.974.974 0 0 0 .5 1.81c.17 0 .34-.04.49-.14l3.88-2.29h2.06c.54 0 .97-.43.97-.97s-.43-.97-.97-.97H39.2l1.63-5.88v-.01c1.73-.52 3.36-1.59 4.5-3.55 1.47-.6 6.42-3.16 7.13-10.88 1.85-1.22 5.28-3.78 4.88-5.94-.09-.47-.32-.86-.69-1.18 1.61-1.22 2.96-2.68 2.54-3.92-.27-.77-.98-1.11-1.87-1.23zM9.64 3.89c.35-.34 1.35-1.04 2.62.11.27.24.64.32.98.19a.96.96 0 0 0 .63-.78c.05-.32.31-1.25.78-1.44.36-.14 1 .13 1.77.75.35.28.85.29 1.2.01.41-.31 1.21-.7 1.65-.55.34.12.53.63.63 1.04.39 1.58-1.68 2.7-2.77 3.16a6.48 6.48 0 0 0-2.98-.71c-1.17-.15-3.14.11-4.52 1.62-.71-1.08-.72-2.22.01-3.4Zm-1.11 9.36c.14.39.33.79.58 1.17-.6.11-1.21.25-1.8.44.32-.56.73-1.11 1.22-1.61zm1.64 8.42c-.43-.14-.7-.59-.67-1.09.13-1.74 1.38-3.12 2.13-3.79.15.18.29.39.4.64.42.88.46 1.95.14 3.03-.64.96-1.39 1.41-2 1.21zm43.99 7.5c-.33.21-.5.61-.43.99.07.39.37.69.76.77.81.17.95.39.95.39.12.44-1.08 1.79-2.89 3.16v-.13a.971.971 0 0 0-1.94.06c.27 9.67-5.95 11.6-6.21 11.67-.26.07-.47.25-.59.48-2.77 5.23-9.48 2.66-9.77 2.55a.991.991 0 0 0-.94.13c-2.54 1.92-4.64 2.56-6.24 1.89-2.83-1.18-3.52-6.07-3.52-6.12a.962.962 0 0 0-.45-.7C10.18 36.49 12.87 24.62 14 21.17c.52-1.58.44-3.2-.21-4.57-.39-.82-.93-1.45-1.61-1.86-.01 0-.01-.01-.02-.01s-.01-.01-.02-.01c-2.57-1.54-1.99-4.19-1.97-4.3.6-2.52 2.51-2.82 3.38-2.82.2 0 .35.02.41.02.05.01.1.01.14.01h.07c3.63 0 5.32 3.83 6.01 6.12.72 2.39 1.81 4.48 3.23 6.2 3.18 3.85 7.65 5.87 13.3 6.01 4.82.12 9.75-1.21 14.27-3.84l2.37-1.38c.99-.58 2.04-.85 3.04-.82.79.03 1.07.22 1.11.31.25.65-1.22 2.9-3.09 4.72-.29.29-.38.73-.2 1.1.17.37.57.6.97.56 1.13-.11 1.72-.06 2.02 0-.42.6-1.71 1.7-3.04 2.56z" style="fill:#fff" transform="translate(-5.978 17.94) scale(1.31443)"/><path d="M46.09 35.92c-.5.19-.75.76-.55 1.26.17.43.16.68.11.73-.25.29-1.53.34-2.63.1a.96.96 0 0 0-.95.32c-.23.27-.3.65-.17.98.18.46.18.68.2.7-.4.2-1.99-.15-3.32-.74a.975.975 0 0 0-.75-.01c-.24.1-.43.29-.53.52-.18.43-.45.68-.89.79-2.38.63-7.99-2.77-10.98-5.06a.963.963 0 0 0-1.36.18.963.963 0 0 0 .18 1.36c.79.61 7.33 5.53 11.55 5.53.39 0 .76-.04 1.11-.13.69-.18 1.26-.55 1.69-1.08 1.41.52 3.58 1.07 4.66.04.36-.34.55-.78.56-1.32 1.04.06 2.37-.07 3.1-.92.4-.47.77-1.32.23-2.7a.97.97 0 0 0-1.26-.55zM13.67 9.76l-.28.11c-.5.2-.74.76-.55 1.26.15.38.52.62.9.62.12 0 .24-.02.35-.07l.28-.11c.5-.2.74-.76.55-1.26a.956.956 0 0 0-1.25-.55z" style="fill:#fff" transform="translate(-5.978 17.94) scale(1.31443)"/></g></svg>