<?xml version="1.0" encoding="utf-8"?>
<svg version="1.1"
	 xmlns="http://www.w3.org/2000/svg" xmlns:xlink="http://www.w3.org/1999/xlink" xmlns:a="http://ns.adobe.com/AdobeSVGViewerExtensions/3.0/"
	 x="0px" y="0px" width="352px" height="344px" viewBox="-0.113 0.359 352 344" enable-background="new -0.113 0.359 352 344"
	 xml:space="preserve">

<polygon fill="#C22326" points="329.407,343.019 22.172,343.019 22.171,175.542 73.972,82.466 175.789,13.92 277.606,82.466 
	329.407,175.542 "/>
<line fill="none" stroke="#772923" stroke-width="0.7659" x1="175.774" y1="14.286" x2="175.774" y2="343.813"/>
<line fill="none" stroke="#772923" stroke-width="0.7659" x1="329.526" y1="175.317" x2="329.526" y2="343.813"/>
<line fill="none" stroke="#772923" stroke-width="0.7659" x1="314.209" y1="147.552" x2="314.209" y2="343.813"/>
<line fill="none" stroke="#772923" stroke-width="0.7659" x1="298.891" y1="119.406" x2="298.891" y2="343.813"/>
<line fill="none" stroke="#772923" stroke-width="0.7659" x1="283.573" y1="91.259" x2="283.573" y2="343.813"/>
<line fill="none" stroke="#772923" stroke-width="0.7659" x1="268.254" y1="76.133" x2="268.254" y2="343.813"/>
<line fill="none" stroke="#772923" stroke-width="0.7659" x1="252.938" y1="65.026" x2="252.938" y2="343.813"/>
<line fill="none" stroke="#772923" stroke-width="0.7659" x1="237.618" y1="54.687" x2="237.62" y2="343.813"/>
<line fill="none" stroke="#772923" stroke-width="0.7659" x1="222.301" y1="45.114" x2="222.301" y2="343.813"/>
<line fill="none" stroke="#772923" stroke-width="0.7659" x1="206.792" y1="35.157" x2="206.792" y2="343.813"/>
<line fill="none" stroke="#772923" stroke-width="0.7659" x1="191.473" y1="24.817" x2="191.475" y2="343.813"/>
<line fill="none" stroke="#772923" stroke-width="0.7659" x1="22.704" y1="175.317" x2="22.704" y2="343.813"/>
<line fill="none" stroke="#772923" stroke-width="0.7659" x1="37.273" y1="147.552" x2="37.273" y2="343.813"/>
<line fill="none" stroke="#772923" stroke-width="0.7659" x1="52.59" y1="119.406" x2="52.59" y2="343.813"/>
<line fill="none" stroke="#772923" stroke-width="0.7659" x1="67.908" y1="91.259" x2="67.908" y2="343.813"/>
<line fill="none" stroke="#772923" stroke-width="0.7659" x1="83.226" y1="76.133" x2="83.226" y2="343.813"/>
<line fill="none" stroke="#772923" stroke-width="0.7659" x1="98.545" y1="65.026" x2="98.543" y2="343.813"/>
<line fill="none" stroke="#772923" stroke-width="0.7659" x1="113.862" y1="54.687" x2="113.862" y2="343.813"/>
<line fill="none" stroke="#772923" stroke-width="0.7659" x1="129.371" y1="45.114" x2="129.371" y2="343.813"/>
<line fill="none" stroke="#772923" stroke-width="0.7659" x1="144.498" y1="35.157" x2="144.498" y2="343.813"/>
<line fill="none" stroke="#772923" stroke-width="0.7659" x1="159.817" y1="24.817" x2="159.815" y2="343.813"/>
<rect x="149.139" y="68.716" fill="#3A3839" stroke="#929296" stroke-width="0.2892" width="54.065" height="54.729"/>
<polygon fill="#DBD9D9" stroke="#929296" stroke-width="0.2892" points="151.929,116.22 195.963,70.371 201.079,70.371 
	201.079,75.901 157.096,121.791 151.929,121.791 "/>
<rect x="143.194" y="121.795" fill="#DBD9D9" stroke="#929296" stroke-width="0.2892" width="66.584" height="6.395"/>
<polygon fill="#DBD9D9" stroke="#929296" stroke-width="0.2892" points="143.228,121.792 151.929,121.792 151.929,70.356 
	143.228,69.864 "/>
<rect x="201.086" y="70.356" fill="#DBD9D9" stroke="#929296" stroke-width="0.2892" width="8.703" height="51.436"/>
<polygon fill="#DBD9D9" stroke="#929296" stroke-width="0.2892" points="201.079,116.22 157.046,70.371 151.929,70.371 
	151.929,75.901 195.911,121.791 201.079,121.791 "/>
<rect x="143.192" y="64.039" fill="#DBD9D9" stroke="#929296" stroke-width="0.2892" width="66.584" height="6.31"/>
<polygon opacity="0.7" fill="#8F1A1F" enable-background="new    " points="191.213,40.081 204.213,32.081 176.613,12.466 
	73.813,81.644 9.541,195.229 22.921,174.04 22.881,209.526 89.213,88.581 144.213,52.581 "/>
<polygon fill="#EAE7E7" stroke="#929296" stroke-width="0.0957" points="175.606,0.118 286.069,74.45 351.098,190.797 
	341.071,196.401 277.399,82.497 175.582,13.95 "/>
<polygon fill="#EAE7E7" stroke="#929296" stroke-width="0.0957" points="175.559,0.118 65.094,74.45 0.065,190.797 10.093,196.401 
	73.764,82.497 175.582,13.95 "/>
<rect x="183.475" y="269.314" fill="#3A3839" stroke="#929296" stroke-width="0.3616" width="68.121" height="67.913"/>
<rect x="183.475" y="188.975" fill="#3A3839" stroke="#929296" stroke-width="0.3616" width="68.121" height="67.914"/>
<rect x="99.375" y="188.975" fill="#3A3839" stroke="#929296" stroke-width="0.3616" width="68.121" height="67.914"/>
<rect x="99.375" y="270.142" fill="#3A3839" stroke="#929296" stroke-width="0.3616" width="68.121" height="67.913"/>
<polygon fill="#EAE7E7" stroke="#929296" stroke-width="0.3616" points="102.471,248.832 157.954,191.938 164.401,191.938 
	164.401,198.8 108.982,255.746 102.471,255.746 "/>
<rect x="91.463" y="255.752" fill="#EAE7E7" stroke="#929296" stroke-width="0.3616" width="83.899" height="7.935"/>
<polygon fill="#EAE7E7" stroke="#929296" stroke-width="0.3616" points="91.506,255.746 102.471,255.746 102.471,191.923 
	91.506,191.309 "/>
<rect x="164.408" y="191.923" fill="#EAE7E7" stroke="#929296" stroke-width="0.3616" width="10.965" height="63.823"/>
<polygon fill="#EAE7E7" stroke="#929296" stroke-width="0.3616" points="164.401,248.832 108.918,191.938 102.471,191.938 
	102.471,198.8 157.891,255.746 164.401,255.746 "/>
<rect x="91.461" y="184.081" fill="#DBD9D9" stroke="#929296" stroke-width="0.3616" width="83.899" height="7.829"/>
<polygon fill="#EAE7E7" stroke="#929296" stroke-width="0.3616" points="102.471,328.464 157.954,271.567 164.401,271.567 
	164.401,278.43 108.982,335.376 102.471,335.376 "/>
<rect x="91.461" y="263.711" fill="#DBD9D9" stroke="#929296" stroke-width="0.3616" width="83.899" height="7.83"/>
<polygon fill="#EAE7E7" stroke="#929296" stroke-width="0.3616" points="91.506,335.99 102.471,335.378 102.471,271.553 
	91.506,271.553 "/>
<rect x="91.463" y="335.385" fill="#EAE7E7" stroke="#929296" stroke-width="0.3616" width="83.899" height="7.932"/>
<rect x="164.408" y="271.553" fill="#EAE7E7" stroke="#929296" stroke-width="0.3616" width="10.965" height="63.825"/>
<polygon fill="#EAE7E7" stroke="#929296" stroke-width="0.3616" points="164.401,328.464 108.918,271.567 102.471,271.567 
	102.471,278.43 157.891,335.376 164.401,335.376 "/>
<polygon fill="#EAE7E7" stroke="#929296" stroke-width="0.3616" points="186.568,248.832 242.053,191.938 248.502,191.938 
	248.502,198.8 193.081,255.746 186.568,255.746 "/>
<rect x="175.563" y="255.752" fill="#EAE7E7" stroke="#929296" stroke-width="0.3616" width="83.9" height="7.935"/>
<polygon fill="#EAE7E7" stroke="#929296" stroke-width="0.3616" points="175.607,255.746 186.568,255.746 186.568,191.923 
	175.607,191.309 "/>
<rect x="248.508" y="191.923" fill="#EAE7E7" stroke="#929296" stroke-width="0.3616" width="10.965" height="63.823"/>
<polygon fill="#EAE7E7" stroke="#929296" stroke-width="0.3616" points="248.502,248.832 193.016,191.938 186.568,191.938 
	186.568,198.8 241.989,255.746 248.502,255.746 "/>
<rect x="175.561" y="184.081" fill="#EAE7E7" stroke="#929296" stroke-width="0.3616" width="83.9" height="7.829"/>
<polygon fill="#EAE7E7" stroke="#929296" stroke-width="0.3616" points="186.568,328.464 242.053,271.567 248.502,271.567 
	248.502,278.43 193.081,335.376 186.568,335.376 "/>
<rect x="175.561" y="263.711" fill="#EAE7E7" stroke="#929296" stroke-width="0.3616" width="83.9" height="7.83"/>
<polygon fill="#EAE7E7" stroke="#929296" stroke-width="0.3616" points="175.607,335.99 186.568,335.378 186.568,271.553 
	175.607,271.553 "/>
<rect x="175.563" y="335.385" fill="#EAE7E7" stroke="#929296" stroke-width="0.3616" width="83.9" height="7.932"/>
<rect x="248.508" y="271.553" fill="#EAE7E7" stroke="#929296" stroke-width="0.3616" width="10.965" height="63.825"/>
<polygon fill="#EAE7E7" stroke="#929296" stroke-width="0.3616" points="248.502,328.464 193.016,271.567 186.568,271.567 
	186.568,278.43 241.989,335.376 248.502,335.376 "/>
<polygon fill="#CAC9C9" stroke="#919195" stroke-width="0.125" points="221.413,30.773 214.815,40.193 175.832,13.949 
	175.856,0.117 "/>
<polygon fill="#DDDBDA" stroke="#919195" stroke-width="0.125" points="130.014,30.773 136.611,40.193 175.594,13.949 175.57,0.117 
	"/>
</svg>
