<svg xmlns="http://www.w3.org/2000/svg" width="234" height="333"><g style="stroke-width:3.18132639"><path d="M2406.706 536.549h85.256v295.685h-85.256z" style="fill:#000;fill-opacity:1;stroke:none;stroke-width:3.18132639" transform="matrix(.01883 0 0 .0189 -28.915 45.618)"/><path d="M2917.856 395.129c67.135 120.804 23.601 273.145-97.235 340.262s-273.216 23.594-340.35-97.21c-17.88-32.173-28.44-67.893-30.889-104.572-9.342 137.92-128.747 242.091-266.662 232.714s-242.11-128.753-232.73-266.631 128.785-242.049 266.7-232.671c36.205 2.462 71.442 12.765 103.724 30.221-118.192-70.885-156.875-224.529-85.945-343.145 70.93-118.617 224.613-157.29 343.261-86.379 118.647 70.912 157.33 224.555 86.4 343.172-21.34 35.69-51.243 65.5-86.812 86.882 121.024-66.97 273.404-23.448 340.538 97.357" style="fill:#000;fill-opacity:1;stroke:none;stroke-width:3.18132639" transform="matrix(.01883 0 0 .0189 -28.915 45.618)"/></g><g style="stroke-width:3.18132639"><path d="M2406.706 536.549h85.256v295.685h-85.256z" style="fill:#000;fill-opacity:1;stroke:none;stroke-width:3.18132639" transform="matrix(.01883 0 0 -.0189 171.243 287.382)"/><path d="M2917.856 395.129c67.135 120.804 23.601 273.145-97.235 340.262s-273.216 23.594-340.35-97.21c-17.88-32.173-28.44-67.893-30.889-104.572-9.342 137.92-128.747 242.091-266.662 232.714s-242.11-128.753-232.73-266.631 128.785-242.049 266.7-232.671c36.205 2.462 71.442 12.765 103.724 30.221-118.192-70.885-156.875-224.529-85.945-343.145 70.93-118.617 224.613-157.29 343.261-86.379 118.647 70.912 157.33 224.555 86.4 343.172-21.34 35.69-51.243 65.5-86.812 86.882 121.024-66.97 273.404-23.448 340.538 97.357" style="fill:#000;fill-opacity:1;stroke:none;stroke-width:3.18132639" transform="matrix(.01883 0 0 -.0189 171.243 287.382)"/></g><g style="stroke-width:3.18132639"><path d="M2406.706 536.549h85.256v295.685h-85.256z" style="fill:#000;fill-opacity:1;stroke:none;stroke-width:3.18132639" transform="matrix(.05649 0 0 .05667 -21.36 147.672)"/><path d="M2917.856 395.129c67.135 120.804 23.601 273.145-97.235 340.262s-273.216 23.594-340.35-97.21c-17.88-32.173-28.44-67.893-30.889-104.572-9.342 137.92-128.747 242.091-266.662 232.714s-242.11-128.753-232.73-266.631 128.785-242.049 266.7-232.671c36.205 2.462 71.442 12.765 103.724 30.221-118.192-70.885-156.875-224.529-85.945-343.145 70.93-118.617 224.613-157.29 343.261-86.379 118.647 70.912 157.33 224.555 86.4 343.172-21.34 35.69-51.243 65.5-86.812 86.882 121.024-66.97 273.404-23.448 340.538 97.357" style="fill:#000;fill-opacity:1;stroke:none;stroke-width:3.18132639" transform="matrix(.05649 0 0 .05667 -21.36 147.672)"/></g><g aria-label="A" style="font-style:normal;font-variant:normal;font-weight:700;font-stretch:normal;font-size:3.77201176px;line-height:0%;font-family:&quot;Levenim MT&quot;;-inkscape-font-specification:&quot;Sans Bold&quot;;letter-spacing:0;word-spacing:0;fill:#000;fill-opacity:1;stroke:none;stroke-width:1"><path d="M32.051 627.488h-4.655l-1.84-4.847h-9.6l-1.92 4.847H9.381l9.071-23.534h4.544zm-8.175-9.215-3.12-8.08-3.136 8.08z" style="font-size:32.76629639px;line-height:1.25;stroke-width:1" transform="matrix(.83055 0 0 1.20403 0 -719.362)"/></g><g aria-label="A" style="font-style:normal;font-variant:normal;font-weight:700;font-stretch:normal;font-size:3.77201176px;line-height:0%;font-family:&quot;Levenim MT&quot;;-inkscape-font-specification:&quot;Sans Bold&quot;;letter-spacing:0;word-spacing:0;fill:#000;fill-opacity:1;stroke:none;stroke-width:1"><path d="M-249.691-844.008h-4.656l-1.84-4.848h-9.6l-1.92 4.848h-4.655l9.071-23.535h4.544zm-8.176-9.216-3.12-8.08-3.136 8.08z" style="font-size:32.76629639px;line-height:1.25;stroke-width:1" transform="matrix(-.83055 0 0 -1.20403 0 -719.362)"/></g></svg>