<svg xmlns="http://www.w3.org/2000/svg" width="234" height="333"><g aria-label="1" style="font-style:normal;font-variant:normal;font-weight:700;font-stretch:normal;font-size:3.77201176px;line-height:0%;font-family:&quot;Levenim MT&quot;;-inkscape-font-specification:&quot;Sans Bold&quot;;letter-spacing:0;word-spacing:0;fill:red;fill-opacity:1;stroke:none;stroke-width:1"><path d="M23.835 544.63q0 .354-.127.623-.34.113-.735.113h-10.44q-.934 0-.934-.99 0-.17.029-.538.028-.382.028-.58 0-.933.82-.933H16v-13.071h-4.3q-.906 0-.906-.99 0-.212.043-.68.056-.48.056-.72 0-.482.905-.482.255 0 .962.057.708.042 1.104.042 2.263 0 2.744-1.57h2.702v17.414q.948 0 2.037-.057 1.103-.07 1.315-.07.82 0 1.019.438.155.382.155 1.994" style="font-size:28.97036934px;line-height:1.25;stroke-width:1" transform="matrix(.72185 0 0 1.38533 0 -719.362)"/></g><g aria-label="0" style="font-style:normal;font-variant:normal;font-weight:700;font-stretch:normal;font-size:3.77201176px;line-height:0%;font-family:&quot;Levenim MT&quot;;-inkscape-font-specification:&quot;Sans Bold&quot;;letter-spacing:0;word-spacing:0;fill:red;fill-opacity:1;stroke:none;stroke-width:1"><path d="M38.073 518.577q0 9.67-6.685 9.67-6.78 0-6.78-9.724 0-10.089 6.915-10.089 6.55 0 6.55 10.143m-3.512-.284q0-6.928-3.227-6.928-1.891 0-2.688 2.741-.5 1.73-.5 4.309 0 6.928 3.188 6.928 1.904 0 2.714-2.728.513-1.756.513-4.322" style="font-size:27.65928841px;line-height:1.25;stroke-width:1" transform="matrix(.69919 0 0 1.43023 0 -719.362)"/></g><g aria-label="1" style="font-style:normal;font-variant:normal;font-weight:700;font-stretch:normal;font-size:3.77201176px;line-height:0%;font-family:&quot;Levenim MT&quot;;-inkscape-font-specification:&quot;Sans Bold&quot;;letter-spacing:0;word-spacing:0;fill:red;fill-opacity:1;stroke:none;stroke-width:1"><path d="M-300.333-734.284q0 .353-.127.622-.34.113-.736.113h-10.44q-.933 0-.933-.99 0-.17.029-.538.028-.381.028-.58 0-.933.82-.933h3.523v-13.07h-4.3q-.906 0-.906-.991 0-.212.042-.679.057-.48.057-.721 0-.481.905-.481.255 0 .962.056.707.043 1.104.043 2.263 0 2.744-1.57h2.702v17.413q.947 0 2.037-.057 1.103-.07 1.315-.07.82 0 1.019.438.155.382.155 1.995" style="font-size:28.97036934px;line-height:1.25;stroke-width:1" transform="matrix(-.72185 0 0 -1.38533 0 -719.362)"/></g><g aria-label="0" style="font-style:normal;font-variant:normal;font-weight:700;font-stretch:normal;font-size:3.77201176px;line-height:0%;font-family:&quot;Levenim MT&quot;;-inkscape-font-specification:&quot;Sans Bold&quot;;letter-spacing:0;word-spacing:0;fill:red;fill-opacity:1;stroke:none;stroke-width:1"><path d="M-296.6-720.192q0 9.67-6.686 9.67-6.78 0-6.78-9.724 0-10.09 6.915-10.09 6.55 0 6.55 10.144m-3.512-.284q0-6.928-3.228-6.928-1.89 0-2.688 2.741-.5 1.729-.5 4.309 0 6.928 3.188 6.928 1.904 0 2.715-2.728.513-1.756.513-4.322" style="font-size:27.65928841px;line-height:1.25;stroke-width:1" transform="matrix(-.69919 0 0 -1.43023 0 -719.362)"/></g><path d="M58.597 814.076a69.2 69.2 0 0 0-10.147-15.77c-2.624-3.063-5.51-5.884-8.432-8.654-2.282-2.164-4.606-4.316-6.474-6.86-1.261-1.717-2.314-3.629-2.816-5.713-.909-3.774.08-7.82 1.945-11.21 1.092-1.985 2.49-3.811 4.21-5.263 2.558-2.156 5.895-3.446 9.204-3.165 3.034.259 5.872 1.808 8.086 3.937 1.96 1.884 3.487 4.232 4.457 6.805.97-2.573 2.496-4.921 4.456-6.805 2.214-2.129 5.052-3.678 8.087-3.937 3.309-.281 6.645 1.009 9.203 3.165 1.721 1.452 3.118 3.278 4.21 5.263 1.866 3.39 2.854 7.436 1.945 11.21-.501 2.084-1.554 3.996-2.816 5.714-1.868 2.543-4.191 4.695-6.474 6.859-2.923 2.77-5.807 5.59-8.431 8.655a69.2 69.2 0 0 0-10.148 15.77M58.597 880.825a69.2 69.2 0 0 0-10.147-15.77c-2.624-3.064-5.51-5.885-8.432-8.655-2.282-2.164-4.606-4.316-6.474-6.859-1.261-1.718-2.314-3.63-2.816-5.713-.909-3.774.08-7.82 1.945-11.21 1.092-1.986 2.49-3.812 4.21-5.264 2.558-2.156 5.895-3.446 9.204-3.164 3.034.258 5.872 1.808 8.086 3.936 1.96 1.884 3.487 4.232 4.457 6.805.97-2.573 2.496-4.921 4.456-6.805 2.214-2.128 5.052-3.678 8.087-3.936 3.309-.282 6.645 1.008 9.203 3.164 1.721 1.452 3.118 3.278 4.21 5.263 1.866 3.39 2.854 7.437 1.945 11.21-.501 2.084-1.554 3.996-2.816 5.714-1.868 2.543-4.191 4.695-6.474 6.859-2.923 2.77-5.807 5.591-8.431 8.655a69.2 69.2 0 0 0-10.148 15.77M175.338 814.076a69.2 69.2 0 0 0-10.148-15.77c-2.624-3.063-5.508-5.884-8.43-8.654-2.284-2.164-4.607-4.316-6.475-6.86-1.262-1.717-2.315-3.629-2.816-5.713-.909-3.774.08-7.82 1.944-11.21 1.092-1.985 2.49-3.811 4.211-5.263 2.557-2.156 5.894-3.446 9.203-3.164 3.035.258 5.873 1.807 8.087 3.936 1.96 1.884 3.486 4.232 4.456 6.805.97-2.573 2.497-4.921 4.457-6.805 2.214-2.129 5.052-3.678 8.086-3.937 3.31-.281 6.646 1.009 9.204 3.165 1.72 1.452 3.118 3.278 4.21 5.263 1.865 3.39 2.854 7.436 1.945 11.21-.502 2.084-1.555 3.996-2.817 5.714-1.867 2.543-4.19 4.695-6.473 6.859-2.923 2.77-5.808 5.59-8.432 8.655a69.2 69.2 0 0 0-10.147 15.77M116.967 847.45a69.2 69.2 0 0 0-10.147-15.77c-2.624-3.063-5.509-5.884-8.431-8.654-2.283-2.164-4.606-4.316-6.474-6.86-1.262-1.717-2.315-3.629-2.817-5.712-.908-3.775.08-7.82 1.945-11.21 1.092-1.986 2.49-3.812 4.21-5.264 2.558-2.156 5.895-3.446 9.204-3.164 3.034.258 5.872 1.808 8.087 3.936 1.96 1.884 3.486 4.232 4.456 6.805.97-2.573 2.497-4.921 4.456-6.805 2.215-2.128 5.053-3.678 8.087-3.936 3.31-.282 6.646 1.008 9.203 3.164 1.721 1.452 3.119 3.278 4.211 5.263 1.865 3.39 2.853 7.436 1.945 11.21-.502 2.084-1.555 3.996-2.817 5.714-1.868 2.543-4.191 4.695-6.474 6.859-2.922 2.77-5.807 5.59-8.431 8.655a69.2 69.2 0 0 0-10.147 15.77M175.338 880.825a69.2 69.2 0 0 0-10.148-15.77c-2.624-3.064-5.508-5.885-8.43-8.655-2.284-2.164-4.607-4.316-6.475-6.859-1.262-1.718-2.315-3.63-2.816-5.713-.909-3.774.08-7.82 1.944-11.21 1.092-1.986 2.49-3.812 4.211-5.264 2.557-2.156 5.894-3.446 9.203-3.164 3.035.258 5.873 1.808 8.087 3.936 1.96 1.884 3.486 4.232 4.456 6.805.97-2.573 2.497-4.921 4.457-6.805 2.214-2.128 5.052-3.678 8.086-3.936 3.31-.282 6.646 1.008 9.204 3.164 1.72 1.452 3.118 3.278 4.21 5.263 1.865 3.39 2.854 7.437 1.945 11.21-.502 2.084-1.555 3.996-2.817 5.714-1.867 2.543-4.19 4.695-6.473 6.859-2.923 2.77-5.808 5.591-8.432 8.655a69.2 69.2 0 0 0-10.147 15.77M58.597 957.648a69.2 69.2 0 0 1-10.147 15.77c-2.624 3.064-5.51 5.885-8.432 8.655-2.282 2.163-4.606 4.315-6.474 6.859-1.261 1.718-2.314 3.63-2.816 5.713-.909 3.774.08 7.82 1.945 11.21 1.092 1.986 2.49 3.812 4.21 5.263 2.558 2.157 5.895 3.446 9.204 3.165 3.034-.258 5.872-1.808 8.086-3.937 1.96-1.883 3.487-4.232 4.457-6.805.97 2.573 2.496 4.922 4.456 6.805 2.214 2.129 5.052 3.679 8.087 3.937 3.309.281 6.645-1.008 9.203-3.165 1.721-1.451 3.118-3.277 4.21-5.263 1.866-3.39 2.854-7.436 1.945-11.21-.501-2.084-1.554-3.995-2.816-5.713-1.868-2.544-4.191-4.696-6.474-6.86-2.923-2.77-5.807-5.59-8.431-8.654a69.2 69.2 0 0 1-10.148-15.77M58.597 890.9a69.2 69.2 0 0 1-10.147 15.77c-2.624 3.063-5.51 5.884-8.432 8.654-2.282 2.164-4.606 4.316-6.474 6.86-1.261 1.717-2.314 3.629-2.816 5.713-.909 3.774.08 7.82 1.945 11.21 1.092 1.985 2.49 3.811 4.21 5.263 2.558 2.157 5.895 3.446 9.204 3.165 3.034-.259 5.872-1.808 8.086-3.937 1.96-1.884 3.487-4.232 4.457-6.805.97 2.573 2.496 4.921 4.456 6.805 2.214 2.129 5.052 3.678 8.087 3.937 3.309.281 6.645-1.008 9.203-3.165 1.721-1.452 3.118-3.278 4.21-5.263 1.866-3.39 2.854-7.436 1.945-11.21-.501-2.084-1.554-3.996-2.816-5.714-1.868-2.543-4.191-4.695-6.474-6.859-2.923-2.77-5.807-5.59-8.431-8.655a69.2 69.2 0 0 1-10.148-15.77M175.338 957.648a69.2 69.2 0 0 1-10.148 15.77c-2.624 3.064-5.508 5.885-8.43 8.655-2.284 2.163-4.607 4.315-6.475 6.859-1.262 1.718-2.315 3.63-2.816 5.713-.909 3.774.08 7.82 1.944 11.21 1.092 1.986 2.49 3.812 4.211 5.263 2.557 2.157 5.894 3.446 9.203 3.165 3.035-.258 5.873-1.808 8.087-3.937 1.96-1.883 3.486-4.232 4.456-6.805.97 2.573 2.497 4.922 4.457 6.805 2.214 2.129 5.052 3.679 8.086 3.937 3.31.281 6.646-1.008 9.204-3.165 1.72-1.451 3.118-3.277 4.21-5.263 1.865-3.39 2.854-7.436 1.945-11.21-.502-2.084-1.555-3.995-2.817-5.713-1.867-2.544-4.19-4.696-6.473-6.86-2.923-2.77-5.808-5.59-8.432-8.654a69.2 69.2 0 0 1-10.147-15.77M116.967 924.274a69.2 69.2 0 0 1-10.147 15.77c-2.624 3.063-5.509 5.884-8.431 8.654-2.283 2.164-4.606 4.316-6.474 6.86-1.262 1.717-2.315 3.629-2.817 5.713-.908 3.774.08 7.82 1.945 11.21 1.092 1.986 2.49 3.811 4.21 5.263 2.558 2.157 5.895 3.446 9.204 3.165 3.034-.258 5.872-1.808 8.087-3.937 1.96-1.883 3.486-4.232 4.456-6.805.97 2.573 2.497 4.922 4.456 6.805 2.215 2.129 5.053 3.679 8.087 3.937 3.31.281 6.646-1.008 9.203-3.165 1.721-1.452 3.119-3.277 4.211-5.263 1.865-3.39 2.853-7.436 1.945-11.21-.502-2.084-1.555-3.996-2.817-5.714-1.868-2.543-4.191-4.695-6.474-6.859-2.922-2.77-5.807-5.59-8.431-8.655a69.2 69.2 0 0 1-10.147-15.77M175.338 890.9a69.2 69.2 0 0 1-10.148 15.77c-2.624 3.063-5.508 5.884-8.43 8.654-2.284 2.164-4.607 4.316-6.475 6.86-1.262 1.717-2.315 3.629-2.816 5.713-.909 3.774.08 7.82 1.944 11.21 1.092 1.985 2.49 3.811 4.211 5.263 2.557 2.157 5.894 3.446 9.203 3.165 3.035-.259 5.873-1.808 8.087-3.937 1.96-1.884 3.486-4.232 4.456-6.805.97 2.573 2.497 4.921 4.457 6.805 2.214 2.129 5.052 3.678 8.086 3.937 3.31.281 6.646-1.008 9.204-3.165 1.72-1.452 3.118-3.278 4.21-5.263 1.865-3.39 2.854-7.436 1.945-11.21-.502-2.084-1.555-3.996-2.817-5.714-1.867-2.543-4.19-4.695-6.473-6.859-2.923-2.77-5.808-5.59-8.432-8.655a69.2 69.2 0 0 1-10.147-15.77M216.784 991.022a23 23 0 0 1-3.383 5.257c-.875 1.021-1.836 1.961-2.81 2.885-.761.721-1.536 1.438-2.158 2.286-.42.573-.772 1.21-.94 1.904-.302 1.258.028 2.607.65 3.737.363.662.829 1.27 1.403 1.755.852.718 1.964 1.148 3.067 1.054 1.012-.086 1.958-.602 2.696-1.312a6.2 6.2 0 0 0 1.485-2.268c.324.858.833 1.64 1.486 2.268.738.71 1.684 1.226 2.695 1.312 1.103.094 2.216-.336 3.068-1.054.574-.484 1.04-1.093 1.404-1.755.621-1.13.95-2.479.648-3.737-.167-.694-.518-1.331-.939-1.904-.622-.848-1.397-1.565-2.158-2.286-.974-.924-1.936-1.864-2.81-2.885a23 23 0 0 1-3.383-5.257M17.195 780.702a23 23 0 0 0-3.383-5.256c-.874-1.022-1.836-1.962-2.81-2.885-.761-.722-1.536-1.439-2.158-2.287-.42-.572-.772-1.21-.939-1.904-.303-1.258.027-2.607.648-3.737.364-.662.83-1.27 1.404-1.754.852-.72 1.965-1.149 3.068-1.055 1.011.086 1.957.602 2.695 1.312a6.2 6.2 0 0 1 1.486 2.268 6.2 6.2 0 0 1 1.485-2.268c.738-.71 1.684-1.226 2.696-1.312 1.103-.094 2.215.336 3.067 1.055.574.484 1.04 1.092 1.404 1.754.622 1.13.951 2.479.648 3.737-.167.694-.518 1.332-.939 1.904-.622.848-1.397 1.565-2.158 2.287-.974.923-1.935 1.863-2.81 2.885a23 23 0 0 0-3.383 5.256" style="fill:red;fill-opacity:1;stroke:none;stroke-width:1" transform="translate(0 -719.362)"/></svg>