<svg xmlns="http://www.w3.org/2000/svg" xml:space="preserve" width="150" height="216.478" viewBox="0 0 39.688 57.277"><path d="M-462.63-36.465a7.752 7.752 0 0 0-.73.007c-53.168.087-106.336-.016-159.503.114-4.099.323-7.146 4.463-6.91 8.443.153 6.636.026 13.275.07 19.913.006 72.477.015 144.956.061 217.433.559 4.222 5.046 7.207 9.164 6.587 53.077-.009 106.155.031 159.233-.097 4.14-.64 6.985-5.073 6.402-9.117-.008-78.88-.018-157.76-.068-236.64-.408-3.772-4.06-6.5-7.719-6.642z" style="fill:#fff;fill-opacity:1;stroke-width:.264583" transform="translate(142.812 8.27) scale(.22676)"/><path d="M-462.63-36.465a7.752 7.752 0 0 0-.73.007c-53.168.087-106.336-.016-159.503.114-4.099.323-7.146 4.463-6.91 8.443.153 6.636.026 13.275.07 19.913.006 72.477.015 144.956.061 217.433.559 4.222 5.046 7.207 9.164 6.587 53.077-.009 106.155.031 159.233-.097 4.14-.64 6.985-5.073 6.402-9.117-.008-78.88-.018-157.76-.068-236.64-.408-3.772-4.06-6.5-7.719-6.642zm-.526 4.241c1.794-.098 3.824 1.026 4.055 2.942.033 78.785.023 157.572.024 236.357.346 1.957-.743 4.386-2.876 4.693-52.963.043-105.93.029-158.894.03-1.977.353-4.4-.862-4.611-3.016-.02-78.778-.008-157.557-.012-236.335-.4-1.987.867-4.352 2.99-4.614 34.97-.023 69.94-.012 104.91-.014 18.138-.022 36.277.046 54.414-.043zm-1.357 2.99c-5.022.64-11.432-.044-16.383.293-9.124-.363-19.451-.397-28.513.078-30.73-.437-61.773-.476-92.68-.143-7.569-.106-12.83-.288-20.206 0-.391 71.298-.004 142.603.086 213.904-.19 8.112.454 15.914.159 23.592 11.058-.009 22.12.23 33.175-.037 14.469.172 30.115.202 45.04.156 8.132.05 17.437-.12 24.608-.296 8.247.508 18.506.402 26.69.044 7.33.492 15.646-.51 22.23.315 3.866-.962 6.183-.365 8.054-.05.277-2.837-.059-6.997.67-10.002-.247-6.838.455-13.357-.198-18.328.844-10.556.276-21.336.447-31.98-.483-9.364 1.041-19.277-.777-28.273 1.711-7.186.299-18.283.644-26.972-.764-6.694-.004-10.437-.03-18.788-.355-1.584.102-9.769-.349-12.105.489-18.997.252-38.862.2-58.185-.676-4.282.114-5.27-.388-9.485.185-2.151.508-6.459-.072-7.273.495-5.108.054-8.265.208-13.03.536-2.758.225-3.394-2.615-3.434zm-63.996 1.194c2.549.216 5.417 8.607 6.776 4.1 4.237 2.53-6.909 4.491-7.455-.516 3.211 4.067 4.184-4.13.64-1.358-4.45 3.598 4.3 9.122 9.075 6.425.163 2.772-6.815.726-4.285 4.07-.81-1.372-9.178-5.11-6.776-10.517.623-1.684 1.312-2.264 2.025-2.204zm-21.182.278c2.028 3.088-4.718 5.714-4.983 11.298-3.29 8.63-5.824 9.437-13.455 12.496-9.197 1.233-5.944-1.436-1.257-1.848.738-2.169 9.57-3.726 4.874-5.231 7.421-2.47 11.174-10.123 14.821-16.715zm-22.317.024c.62 0-.135 6.603 3.04 2.714 3.836-2.609 3.267 6.453 3.562 10.536l-.462.548c1.048-7.906-10.088-13.257-15.402-6.16-6.395 8.57.087-5.043 4.355-4.951-.04-6.28 2.512 3.825 4.194-1.422.354-.914.57-1.265.713-1.265zm63.838.005c.255-.024.561.517.975 2.097 2.183 1.172 9.787 10.977 6.036 7.731-.869 6.467-1.792-3.698-8.929-3.509-11.144 2.582 3.332-4.18 6.764 1.742 3.178-2.29-16.217-7.244-14.383 3.928.463 4.748-1.113 1.688-.96.02 1.406-5.67-.85-7.039 3.234-10.746 2.749 5.45 2.345.635 3.85-.975 2.235 7.09 2.501-.203 3.413-.288zm-107.885.022c.471.008.988.047 1.555.12 3.49 4.149 16.347-.725 14.98 2.095 2.93 2.595-4.43 1.24-7.738 3.267-7.78-3.417-2.02.392-6.925 4.972-6.847-.545.199 5.395-2.906 4.568-3.608 4.746 7.28 9.357 2.296 4.917 6.853-.878-.477 3.934-2.697 5.372-8.731 3.225.749-10.195-2.51-.705 6.974-.836-2.678-13.033.746-12.144-.232-2.062-.806-4.294-1.102-6.298.205.71.67 1.502 1.5 2.385 5.743.966 1.703-7.776 4.614-5.047 5.73-2.992-6.004-2.72-6.23 1.719-.296-3.012.352-5.288 4.417-5.221zm59.048.037c5.332 1.104 4.523 3.563 2.577 6.192.986-3.342-3.062-8.22-3.184-1.995 9.222-3.6-7.066 7.526-5.185-.88 2.078 4.14 3.17-.667 5.792-3.317zm86.538.306c5.416.052 10.402 4.518 4.826 10.281 5.687 2.761-5.795 11.475 1.442 14.27-3.161-4.698 2.436-3.567 1.027.44-4.056 2.96-3.817-2.97-7.232-1.852-6.354-2.958 4.33-4.967-.19-2.265.954 4.8 7.846-7.596 1.529-6.43 8.016-2.966-6.208-3.834-2.357-10.05-3.435 1.386-12.158.336-14.088-1.2-.428-3.831 4.138-.842 9.859-1.657 1.526-1.08 3.379-1.554 5.184-1.537zm-70.372.374c2.517.063 4.962 1.72 6.924 5.945 5.073 5.541 6.183 14.193 13.898 18.083 7.454 3.626 15.955-.12 18.852-6.369a80.25 80.25 0 0 0 1.157-2.196c-.898 2.039-2.79 7.323 1.033 7.113 5.89 3.45-.803-2.158 2.967-.81 1.987 6.26-10.199 2.612-3.971 3.489-1.1-7.263-12.51 5.822-18.728.647-2.262 1.58-7.645-6.93-9.703-7.34 2.08 10.71-19.38 10.388-9.847.69 6.164 6.296 5.99-4.708 2.71-8.471-4.157-10.783-12.7-3.876-14.518 4.334-2.097 8.297 2.095 3.265 6.204 5.013 3.632 9.906-14.508 6.922-11.712-2.206-4.701 7.55-14.883 11.204-22.868 6.568 0-3.228-9.866.07-4.072.085 1.63 2.119-6.713-.45-2.706 1.838-1.062.908-3.64 2.426-8.94 5.393-8.283 2.592-15.865-4.022-9.383-11.956 3.593-.894 2.87-2.534 8.8-3.519 3.601 6.88 10.551-8.202 9.745-4.714.64 3.007-5.088 15.628-11.394 7.22 1.087 4.288-.193 4.318 2.018 4.332.719 2.215 2.989 1.185 3.393 3.3-4.824 2.974-6.721.4-7.808-.998-.821.392-5.025.863-2.864.683 4.04 5.487 10.566 1.083 15.587-1.313-5.696 1.151.81-5.915-1.465-2.47 2.865 2.219 5.403-1.694 4.337-5.47 2.87 4.681 8.357 10.465 15.068 8.27 4.512-.58 13.852-7.371 14.955-14.875 2.463-4.725 7.527-10.416 12.331-10.296zM-598.79-1.523c.216-.103.211-.2-.22-.28.067.082.147.186.22.28zm129.596-25.332c-.927.068-1.918.59-2.9 1.771 6.165.956 1.092 1.048 5.48 5.972 4.254.16 1.436-8.042-2.58-7.743zm-64.38.16c.27-.012.591 0 .969.037-.176 8.06 11.051 13.844 12.601 16.227-5.572 1.667 20.045 7.982 5.526 6.823-1.962-.869-2.224 1.585-3.734-1.118-6.233-2.035-8.348-4.377-11.278-12.112-.724-4.082-8.14-9.669-4.085-9.856zm35.525.322c.563.014 1.27 1.166 1.95 4.294 7.89-.923.731 1.553.052 5.315-1.285-2.509-6.947-2.628-2.833-4.096-.65-2.405-.109-5.538.83-5.513zm-44.302.239C-549.7-21.94-560.424-6.59-548.84-1.746c2.391.908 6.18-2.025 3.797-4.395-6.375 7.595-10.04-8.58-2.471-13.078 3.859-9.134 9.456-3.982 13.2 2.43 7.248 4.489-2.662 19.846-3.497 10.091-6.329 5.861 8.554 6.64 7.314 1.42 1.267-3.442-.275-10.772-4.817-15.394-2.773-2.025-3.623-4.294-7.038-5.462zm-43.186.012c.987.14 1.476 1.722-.33 4.557 7.044 2.43-3.238 1.245-1.61 5.4l-.005.873c-.877-2.546-7.617-9.656-.714-6.736.186-2.931 1.672-4.233 2.659-4.094zm-10.843 2.66c.172.01.344.03.518.064-3.008 3.581 2.164 12.405-.8 12.238-1.051-1.373-1.491-4.268-1.96-4.008 1.351-3.087-2.78.582.223-3.325.621-1.27-3.952 2.864.683-2.267-4.58 4.798-2.61 1.49.218-1.599-5.455 2.58-4.352 7.835-.997 11.63-7.036-2.155-3.194-13.033 2.115-12.733zm109.203.59c2.857.298 9.32 7.214 3.176 11.163-4.922 4.557 4.201-5.569 1.005-6.956-6.394-7.728 3.605 5.643-2.94-1.71 4.753 5.322-1.156.288.455 2.17 4.468 5.805-2.177-1.247-.092 1.535 1.463 3.42-1.912 2.178-1.16 5.075-3.233 2.735-.494-3.841-.582-6.68-1.715-3.5-1.16-4.732.138-4.597zm-68.713 3.226c-1.367 1.636-2.736 3.238-2.915 4.515-3.26.264-1.903-1.605-1.117-2.092-6.929-2.019-3.342-2.577 1.565-1.8 1.052-.045 1.857-.274 2.467-.623zm-4.032 2.423c.151.044.236.079.398.124.074-.3-.13-.291-.398-.124zm17.774-2.25c.502.024 1.165.253 2.03.742 1.593 2.405-2.66 5.416-1.102 9.147.578 3.148-1.045 8.914-1.71 2.323 1.63-2.409-2.732-12.377.782-12.212zm42.777 3.555c.868.085 3.957 4.395 5.654 6.735 2.398-1.086 11.056-.097 10.823 1.443 6.47-.27 5.784 15.011-3.64 13.33-4.32-.238-8.872-3.523-11.595-5.234.266-5.886 9.054 4.985 12.196.749 7.747-3.306 1.567-.982.756-3.033-1.295 2.079-1.796 3.965-5.24 2.379-5.812-2.52 1.9-1.52.2-4.559 2.64.837 2.062.453 2.509-3.96-5.699 8.14-10.552-2.451-11.443-5.636-.558-1.633-.559-2.247-.22-2.214zm3.49.826c.028.069.048.138.08.208l-.573.992c.254-.437.407-.834.494-1.2zm18.277 1.96c3.016.182 6.47 4.123.74 6.37-1.428.885-3.047-.16-3.62-1.458-.583-3.776 1.07-5.02 2.88-4.912zm-129.598.06c2.34-.103 4.729 1.459 3.12 5.51-1.977 2.37-4.43-.645-5.952-1.038-1.801-2.605.491-4.371 2.832-4.473zm-3.418 8.74c7.85.714 2.342 2.171-2.065.884-4.339 3.05-5.175 3.563-.672 1.32-6.092 4.778 1.658-1.137-.233 1.368 1.326-.148.409 1.198 4.457.642 2.94.053 3.06 3.483-3.291 1.664-12.366 3.283-4.506-5.68 1.804-5.877zm135.742.116c4.698.036 15.441 5.797 6.04 6.55-2.926.757-1.035-.237-3.544-.769-7.458 3.416-4.267-3.799-2.578-1.198 3.14.117 1.642-2.35 5.574.089-4.8-4.573 5.22 2.664-1.321-2.591 9.314 5.76-2.525-4.117-6.12-.529-.208-1.123.634-1.562 1.949-1.551zM-579.108.607c12.193.183 25.24.423 37.904.2 7.282-.412 13.88-.055 21.487.056 6.15-.458 14.324-.229 20.444.573-22.97.493-45.96.256-68.935.242-4.471.103-24.527-.092-10.9-1.071zm-32.28 1.515c1.065-.025 2.153.284 3.193 1.023 2.491 4.59 8.45 2.457 8.324 6.466-2.24-3.472-3.037 1.748-5.233 3.248 4.2-9.814-13.12-12.395-12.207-2.264-.419 8.72 12.276.85 4.709 1.716-3.81-4.66 9.434-1.534 1.928 3.727-1.146 1.724-4.15-.566-4.907.497a7.855 7.855 0 0 1-.98-.778 8.48 8.48 0 0 1 .748 1.498c.581 7.021 6.06-3.589 3.949 2.058-2.328 10.82 7.637-8.105 4.839-.535-5.775 2.633.216 10.067-1.425 10.14-1.73-7.967-7.37 4.622-5.123-1.667 3.483-7.23-2.84-3.09-3.256 1.889-5.61 9.116-4.158 19.572-1.127 28.946-2.453-1.167-5.639-15.063-2.965-20.777-1.042-7.258 5.696-9.488 6.211-16.643-4.388-10.892-2.335 11.603-5.662 3.384 2.698-1.788 1.676-6.367.539-10.25-2.722-3.686-.385-2.462 1.766-.038-2.344-4.83 1.944-11.53 6.679-11.64zm-6.68 11.64a6.653 6.653 0 0 0 1.506 1.995 14.698 14.698 0 0 0-1.505-1.995zm31.988-11.45c1.145-.006 2.39.641 3.804 2.357 1.563 6.66 12.774 1.897 6.061-.744 1.779 2.388-1.595 5.271-1.807.225 8.35-5.243 5.151 11.157-2.527 4.894 6.443 9.744-9.481-8.167-3.387-1 1.52 6.546-2.39-2.498-3.753 1.413 2.905 2.961 6.865 5.89 2.158 11.84-5.619 8.528-17.408 7.618-25.602 12.15-10.046 2.427 2.828 15.958-5.985 11.918-2.696-6.621-2.194 8.25 2.894 11.613 1.07.856 5.543 5.404 8.336 2.467 2.967-6.701-1.947 5.27 3.182 1.914 11.513-.662 8.812-20.99-2.045-16.977-7.945-.777-4.71 14.03 1.928 9.667 2.978-7.882-4.57 1.012-5.007-4.218 5.08-12.12 17.252 6.88 4.397 8.562 1.38-1.981 7.338-7.184 2.974-10.48-1.088-2.097-8.854 1.623-4.172 1.006 12.19 3.745-8.926 12.816-6.54.61.04-5.11 2.905-6.1 7.245-7.065 9.367 2.299-4.974-3.981 2.498-1.454 7.761 7.096-.916-3.888-2.326-5.665-6.195-10.123 6.85 7.497 2.388-.633-1.357-10.628 3.921 8.799 2.594 2.873-3.885-8.245 10.346-5.53 3.527-.469.454-4.453-2.888-4.577-2.075 1.755 3.761 7.973 6.502 22.39-5.875 23.782-13.05-1.993 2.537 3.151 5.085-.808 8.926.046-.053 11.113.23 3.01 3.862 3.829 2.84-3.516-2.86-.716-7.67-1.077-2.978 3.564 1.295 2.64-2.076 2.648 1.992 1.655 3.54 3.93-2.227.386-2.36-.644-.618 4.118-2.35 7.865-7.917-2.617-3.936.949 2.979 3.673 3.56-6.584-1.684-6.916-8.046-5.748 5.58 7.151-1.388 4.502 1.49 7.012-9.632 5.759-15.11 6.031-5.604 5.576 2.415.607.585 4.524l-1.227.588-1.163-.186c-5.452-7.113 9.336-4.233 4.425-11.356 6.526-4.565-3.568-13.863-3.66-5.662 2.08-3.414 4.97 2.346-1.058.972-3.798-7.929 11.63-6.576 7.684 1.31 9.131-2.352 1.932 12.609.769 4.5 8.529-.202-4.85-7.198-2.54 1.717 10.417 8.853 13.123-11.662 2.802-15.046-1.532-5.867-7.99 4.646-4.484-1.347-2.3-8.48-7.133-19.962 2.715-26.548 8.633-2.908-.168.294-2.933-.726 3.642-1.763 8.33-2.072 12.845-2.759-2.033-.076-3.684-1.188-4.405-4.04 1.118-1.4 6.117 5.736 10.48.503 5.368-1.651 10.635-11.957 3.842-13.496 1.081 3.015-1.424 4.673-2.735 3.59 1.591 2.546 3.333 5.393.035 5.118-1.841-8.496-9.944 5.38-9.785-1.576 6.335-3.844-1.363-2.598-.698-6.734 4.065 4.513 8.38-5.079 11.575-3.868 3.52-.626 6.057-6.537 9.492-6.558zm-10.619 13.62c-.205-.33-.41-.657-.598-.968.128.438.34.754.598.967zm-.598-.968c-.19-.647-.204-1.54.086-2.736-1.774-.353-1.143.998-.086 2.736zm-6.584 14.41c1.078.04 2.263-.215 3.476-.657a45.628 45.628 0 0 1-3.476.657zm3.476-.657c4.206-.978 7.954-2.755 10.121-7.016-1.53 1.798-5.963 5.502-10.12 7.016zm10.121-7.016c.508-.597.731-1.006.47-1.023-.146.357-.304.697-.47 1.023zm93.603-19.133c1.512-.105 2.843.886 3.8 4.007 5.827.224 9.618 9.478 14.478 6.378 6.847.78-6.24 3.025-.836 5.123 4.967 10.644-6.03-4.123-6.766 2.377-8.675 1.523 1.65-3.788-.356-8.312.622 2.537-5.01 6.867-3.088 1.826-7.045-5.547-2.375 13.643 3.272 11.684 4.278 7.319 12.462-5.27 9.318 2.501-10.16 2.273.807 1.643 5.589 2.548 9.967 2.688-6.067-.046 1.252 3.12 9.173 6.132 4.907 17.47 2.17 24.867 2.966 7.158-.967-.952-2.454.401-5.426 4.33-14.363 14.932-4.456 19.046 7.867 3.408 6.013-12.087-.044-5.076 1.533.61 5.653 4.494.321 3.162-7.264-6.668 6.051-4.057 3.283-9.498 1.543-9.423 14.56 1.982 4.94 2.137-3.155-4.238 1.449-2.333 1.909-1.403-.23-8.039-9.727.998-3.703 5.566-3.526 6.753 9.3 4.22 4.642 11.436-1.111.695-3.185.028-3.25-1.426 5.27 1.23 1.851-5.787-3.501-3.494-6.717-.036-11.091-2.254-11.568-5.995-2.318.267 6.409-10.811-.814-3.764-7.726 1.308-.227 10.41-1.574 5.476 6.643-.195-5.023 6.224-3.277-1.69 4.82-5.758-2.206.026-.472-3.136 5.074-.674 1.64-4.342 5.003-3.648 6.936-.993.356-2.888-4.702-3.029-4.286 5.046 4.86-1.602-.041 4.7-7.725-6.875 4.926-5.168 10.35-5.27-2.886-.173-14.182-1.986-13.094-9.385-1.689-7.155 7.821-16.14 1.1-20.038 3.526 3.65-4.096 4.197-.767-1.799 4.38-2.736 5.403 10.715 5.76 2.565 3.557-9.562-1.012 8.1 1.855.955 9.607-9.176-4.958 7.951-3.672 8.47 7.81-6.368 18.636 5.996 9.451 11.692-8.454 4.624-7.938-10.912-1.692-5.841 1.49-5.279-12.173-.844-6.087 4.964 6.828 4.19 1.076 4.43-.6 1.194-9.1-9.264 13.179-14.455 7.06-3.524-4.346-6.305-5.828 6.15 1.405 1.765 9.293-9.818-13.562-15.365-12.51-2.636-4.033 6.63 13.312 13.512 9.248 8.27-.072-5.966.99 1.387 4.067.809 6.515-.974 10.317-9.95 10.315-14.474.482-6.098-1.358 1.363-5.774-.165 5.808-5.405-.256-13.878-7.19-14.619-6.92-.945-14.606-4.092-20.052-8.962-2.425-3.015-3.641-11.207 1.234-10.996 2.606-5.382-2.444-.181-3.445-1.566 6.652-10.39-6.946 8.064-3.27-.084-6.676 5.72-10.137-12.085-1.852-4.583-4.181 6.662.246-4.156-4.228-.05 2.607 7.914 8.776-2.261 13.313-2.576zm19.424 60.614c.49.03.802.027.702-.02-.21.013-.46.016-.702.02zm-9.104-51.041a1.507 1.507 0 0 0-.486-.795c.212.26.367.527.486.795zm-63.91-9.336c7.727.017 15.504.122 23.133.044 3.856-.162 23.978.088 10.828.986-1.528.147-3.143-.218-4.627.33-16.818-.95-34.974.442-52.18-.872 7.437-.433 15.117-.505 22.845-.488zm76.373.074c6.613.13 13.268 7.52 5.149 13.193-8.085 5.945-8.218-11.927-2.027-4.57-3.793-.319-4.337 4.537 1.144 3.583 10.358-6.104-8.693-18.017-9.6-5.141 1.298 8.588-2.873-5.314-3.785-.283-5.287-1.772 3.352-2.755 2.263-3.06 1.687-2.711 4.269-3.773 6.856-3.722zm-71.146 2.139c8.921.023 17.847.13 26.76.072 13.799.434-4.508 1.24-8.696.866-14.91-.196-29.943.637-44.8-.508 8.897-.394 17.814-.454 26.736-.43zm3.482 3.12c4.083.003 8.158.632 11.993 2.006 6.465 1.615 12.3 5.61 16.338 10.658 14.425 15.089 12.891 41.87-3.566 54.929-2.817 3.294-18.818 11.218-15.323 5.82 7.833-1.512 15.82-7.125 19.679-13.476 6.562-7.489 8.525-18.613 6.742-28.358-1.333-7.792-5.444-13.688-9.93-18.937-6.937-6.427-15.172-10.4-24.91-10.822-6.818-.756-13.827 2.06-18.56 4.256-14.305 6.754-22.692 24.004-19.202 39.627 2.242 7.798 4.662 12.884 11.187 19.381 6.113 8.053 21.365 9.222 27.242 10.451l-.864 1.125c-9.87.043-20.363-3.127-27.396-10.142-13.847-11.609-16.804-33.732-6.663-48.678 3.491-5.846 8.309-10.306 13.838-13.188 5.766-2.926 12.59-4.659 19.395-4.653zm-.999 2.667c6.884-.05 13.944 2.324 19.465 4.936 4.87 2.915 9.643 8.015 12.918 14.126 9.437 16.621 2.29 39.734-14.903 48.125-13.89 5.714 4.09-2.85 5.778-4.836 14.809-11.6 16.525-35.484 3.99-49.308-5.556-6.15-12.635-9.975-20.869-11.66-19.332-3.742-39.89 11.572-40.85 31.402-1.709 15.97 9.84 32.31 25.493 36.158 6.256 2.461 12.26 2.91 15.101-3.65 6.876-7.432 7.664 5.087 1.514 7.707-4.517 1.217 7.644-7.787 2.28-8.95-4.943 7.14-13.221 9.362-21.732 4.998-5.4-1.92-8.942-3.82-12.501-7.594-8.683-8.256-12.89-20.613-10.555-32.398 1.53-7.558 4.552-14.103 10.08-18.688 5.271-5.844 12.312-8.508 20.075-9.918a26.057 26.057 0 0 1 4.716-.45zm79.595.207c-.87 3.231-5.442 11.116-.483 13.527-4.326 7.2-1.517-11.85-4.835-5.205-3.672 3.533 3.073 10.854 4.47 11.81 1.921 9.217 1.46 19.426-1.198 27.99-3.932-1.04 2.342-9.854 1.748-13.023-.197-7.694-2.164-12.245-5.084-19.12-2.433-7.359-5.11-1.276-1.223 2.644-2.45-1.752-3.333-4.14-5.2-2.488 1.039-2.546-.367-5.309-1.76-8.068 2.65 4.32 6.944 5.16 3.47-1.558 3.953 6.776 6.697-5.897 10.095-6.509zm-124.423 13.514c.144 21.693.168 43.388.238 65.082.03 12.084.053 24.168.057 36.253-.356 9.342.742 20.594-.638 28.717-.561-33.405-.37-66.824-.527-100.235.442-9.857-1.021-20.44.87-29.817zm91.065.162c.53 43.31.614 86.635.255 129.946l-.49.278c-.409-34.307-.1-68.621-.323-102.931.374-8.922-1.024-19.33.558-27.293zm-93.307 1.51c.467 41.592.104 83.21.26 124.812.797-1.908-.03 3.667-.688 2.013-.347-32.748-.277-65.5-.354-98.25.336-9.435-.742-19.68.782-28.576zm95.9.722c.167 21.18.074 42.363.078 63.544-.098 20.704.094 41.416-.315 62.116-1.185-4.632-.209-15.633-.975-22.539.363-9.872.447-21.179.025-30.824.25-8.43.384-18.54.224-27.595-.73-7.58.891-16.036-.464-23.612 2.3-5.27-1.869-20.01 1.427-21.09zm1.927.522c.484 20.77.235 41.556.35 62.332l.01 13.96c-.27 16.096.562 32.64-.508 48.471-.897-31.069-.444-62.363-.591-93.522.392-10.195-.732-22.133.74-31.24zm-100.007.464c.622 39.041.334 78.1.321 117.15-.46 1.372.899 6.932-.883 6.77-.285-13.333-.123-26.67-.204-40.005.02-8.146-.43-15.509-.237-22.658.288-2.878-.406-6.256.265-9.012-.846-6.579.364-16.355-.024-24.6.38-8.81-.556-20.512.762-27.645zm115.138 6.115c.709 3.726-2.53 5.87 3.581 3.68 8.175 3.75-8.267.17-.14 5.756-5.819.619-9.116-5.28-3.441-9.436zm-130.86.516c1.758-.008 5.791 8.767-2.01 8.6-5.257 2.343 6.417-6.596-1.66-3.44-8.07-3.069 8.553-.188 2.99-3.534-.01-1.155.274-1.624.68-1.626zm30.675 29.577c-.572 6.58-6.552 13.021-6.54 20.466-1.9 10.405 2.479 20.845 6.833 29.63l-.62.75c-11.339-14.43-11.17-36.583.327-50.846zm69.699 1.47c1.144.242 6.635 6.567 7 10.708 3.005 11.444 2.096 25.843-5.061 36.351-6.826 5.836 5.994-12.55 4.385-16.468 1.478-9.957-.429-19.017-5.103-27.583-1.45-2.264-1.669-3.102-1.221-3.007zm-1.316 1.584c9.256 12.192 9.281 30.58 1.201 43.609l-1.052 1.537c2.637-6.709 6.39-13.964 6.073-21.806.73-8.346-2.981-16.145-6.222-23.34zm-66.645.476c-8.384 12.287-9.055 30.144-.7 42.9 2.346 1.747-.324 1.9-.49.835-4.144-7.154-7.113-14.714-6.294-22.764.22-8.222 2.264-16.093 7.484-20.97zm68.06 5.194c-2.654 4.862-16.037 7.322-22.519 11.432-11.975 5.301 5.252-1.044 9.136-2.21 2.412-.679 19.916-7.405 13.207-3.054-7.556 2.458-16.91 4.97-25.045 7.8-.7.91 18.241-3.441 24.955-4.69 8.679-1.593-1.213 1.523-3.673 3.145-5.866-1.2-15.476 2.51-22.97 3.282 10.066-.382 20.584-1.655 30.8-1.78-5.504 3.24-17.132 1.07-24.898 2.29-9.596.127-2.59 1.103 2.722 1.178 5.745 1.29 20.886-.522 21.034 2.769-7.553-.015-16.112-1.903-24.267-2.124-11.626-1.448 4.102 2.714 7.414 1.874 2.722 2.7 19.9 2.491 15.398 5.25-8.342-2.406-15.928-2.973-23.8-5.525-8.01-2.044-2.63.196 1.766 1.384 6.475 1.246 11.703 4.152 18.934 6.124 10.351 5.31-6.75-.605-9.811-1.978-3.667-1.163-22.38-8.112-11.386-3.235 7.733 3.47 17.06 6.656 23.342 11.57-8.713-2.812-17.728-8.392-26.682-12.329.738.934-8.022.754-3.984-3.31a3.813 3.813 0 0 1-.463-.496c-.172.945-.817 2.01-2.144 3.157-1.55.897-3.792.156-5.013-.599-.56-.945-.91-1.771-1.109-2.5-1.118 2.795-3.569 5.36-4.032 3.96-3.26.63-16.915 7.84-24.198 11.128-9.9 3.59 7.72-5.26 9.692-6.097 1.892-.633 19.26-7.914 10.344-5.016-8.063 1.638-17.73 7.67-24.912 7.042 8.24-2.993 16.666-5.198 25.002-7.926 9.203-2.78-1.28-.624-5.085.265-5.995-.253-18.56 6.835-21.06 2.58 9.014-1.142 19.857-3.406 29.532-5.112-3.408-.553-17.318 1.039-24.518 1.393-13.587-.043 5.015-2.48 9.437-1.817 3.165-.167 20.39-.416 12.173-1.295-8.638-.163-17.147-1.122-26.345-1.714.601-2.94 13.313.58 18.221.23 2.915-.967 11.288 1.98 10.705.412-8.773-2.94-22.678-2.75-28.6-7.044 9.975 1.737 19.81 4.559 29.793 6.397-8.574-3.501-18.853-5.975-27.983-9.372 2.473-2.363 16.99 5.343 23.97 6.963 10.7 3.76-2.742-2.048-6.298-3.635-3.864-2.386-18.133-6.543-15.41-8.407 8.261 4.01 16.76 7.86 24.878 11.974.16-.356 4.144-1.183 5.082 1.49.045.13.065.27.092.407 1.661-1.81 5.909-1.08 7.351 1.067.92-2.867 7.345-4.82 3.252-2.168 9.472-4.114 18.548-8.979 27.974-13.13zm-31.225 15.298c-.21.657-.124 1.36.435 2.069a2.736 2.736 0 0 0-.435-2.069zm-7.351-1.067c-.626.683-.88 1.727-.48 3.194.444-1.109.663-2.246.48-3.194zm-5.174-1.897c-.026.058.039.104.242.12l-.242-.12zm17.407 8.839c-.118-.15-.471-.327-1.17-.522.39.164.78.35 1.17.522zm50.292-15.9a4.622 4.622 0 0 1 2.15.484c7.8 1.741 12.504 4.993 17.97 10.488-3.218 5.783-12.563 10.641-19.573 12.023-2.404-.867-7.546-1.881-7.374-4.722-4.273-8.354 10.671-7.15 4.74-.669 7.392 3.945 13.422-4.496 17.074-5.604-2.324-3.832-7.265-6.638-10.027-1.741-1.182-1.616 5.79-5.281-1.81-5.635-9.11-2.683-.238 6.34-7.96 6.848-5.941-3.575-.347-11.408 4.81-11.471zm-119.228.895c6.055.14 10.894 3.384 6.504 10.13-8.28 2.006-.302-7.449-5.513-6.257-3.678-1.334-17.246 4.644-13.232 8.18 3.164 2.959 16.404 9.075 14.531 3.037-.018-10.767 12.636 2.969 2.416 5.794-6.341 2.075-11.532-.324-16.21-3.928-7.256-2.692-9.601-8.218-1.063-11.836 2.411-3.46 7.857-5.229 12.567-5.12zm-.229 1.159c-6.324.164-11.614 5.386-16.43 8.98 1.32 4.564 9.945 8.094 15.072 10.035 4.268 1.086 10.94-2.32 8.034-7.38 1.213 8.56-12.153 7.074-16.693 2.151-11.456-3.475 1.3-10.82 7.445-12.42 5.234-4.6 12.09 7.762 6.625 4.15-1.82 5.13 8.252-1.325.498-4.74-1.577-.582-3.091-.814-4.55-.776zm121.903.237c-5.438-.159-10.422 2.286-5.99 7.835 4.366-5.108-2.439 2.087-1.305-4.962 4.962-4.184 10.824-2.128 15.727 1.535 15.078 5.094-10.387 19.465-15.416 10.09 2.466-9.24-5.122 3.691 3.25 4.163 5.64 1.021 10.68-2.406 15.139-5.343 9.174-3.832-.465-8.106-3.06-10.329-1.655-1.861-5.082-2.894-8.345-2.989zm-128.615 7.24c1.134.027 2.395.418 3.621 1.375 11.773.616-3.534 1.576-6.112 2.783-3.184-1.042-.913-4.238 2.49-4.158zm67.205.052c-2.19-.01-4.241 1.53-.651 4.73l1.091.08 1.03-.242c3.044-2.998.719-4.558-1.47-4.568zm68.148.29c2.357.055 3.822.811 1.98 3.014-2.868 1.952-6.487-2.023-10.008-.881-2.302-.363 4.101-2.223 8.028-2.132zm-65.703 6.666c18.65.4 35.39 16.635 36.378 35.428 2.112 20.652-15.411 40.138-35.984 41.023-6.785 1.08-15.161-1.506-21.54-4.855-6.419-3.686-12.21-8.6-14.767-14.454-7.755-12.741-6.567-29.488 1.837-41.565 5.181-6.677 10.226-10.187 18.784-13.522 9.99-3.326.567 2.368-3.73 3.446-19.225 8.713-26.453 35.22-14.35 52.458 6.65 9.606 17.564 16.455 29.635 16.73 8.649.612 17.484-2.774 24.058-7.5 3.189-3.31 9.17-7.222 10.04-12.79 2.88-3.14 4.419-11.24 4.329-16.964-.33-6.906-2.22-13.374-5.92-18.607-2.66-5.342-7.335-8.816-11.515-11.487-5.099-5.71-18.137-4.157-21.007-7.206a32.62 32.62 0 0 1 3.752-.135zm74.831.141c1.966-.011 4.843 5.971-1.225 6.525-2.335.436-7.112 15.416 1.025 13.68 3.347-7.18-3.777 2.316-2.14-4.667 7.496-2.246 3.967 10.638-2.735 4.79-.428-5.256-1.86-5.345-5.94-7.66-3.386-7.745 9.278-2.329 1.433-2.293.227 8.513 10.388-2.602 2.392-3.633-10.263-2.312-7.953 12.83-.914 16.1 4.443 6.029 2.428.313 6.494.14-3.896 4.582 4.297 11.25 2.338 17.578 2.073 5.987-10.686 12.641-8.6 12.266 9.048-2.532 2.473 2.497-3.237 1.53-9.445.532 1.577.081-.098 5.506-3.478-7.18-19.534.994-16.878 10.3 4.195 7.557 1.544-6.02 6.055-.742-.43 9.662 3.11-3.813-2.45-3.893.018-5.485 4.562 2.555 6.664 0 4.961-5.192 6.843-1.599 1.958 2.592 4.757-1.9 5.062 7.545 1.601 2.36-3.468 1.861-11.74 5.786-15.457 10.264-.666 3.148-4.72 1.234-6.1-.195-1.24-7.267-13.914-2.979-6.836.015-1.543-2.645 1.458-5.414 1.85-.343-8.588 5.43-5.944-11.397 2.436-4.82-6.873-9.028 3.34.733 4.624 2.534-3.761-7.48.655.01 2.563-2.857-8.924-4.358-2.298-15.936 6.006-18.199 6.385-3.49 12.797-2.741 18.48-6.917 7.715-2.166-2.075-12.349 2.44-11.903 7.889 9.684 2.812-10.1-2.444-12.227-3.187-5.326-10.057 4.92-7.793-1.408-1.977-6.05-17.007 9.483-6.34 14.952 9.122 7.969 17.429-12.281 4.269-8.707-3.443 7.101 7.87-1.85 4.63 5.909-7.847 7.871-14.684-8.763-4.31-10.322-7.502 1.964-2.474 16.922 3.489 8.604-7.647 4.565-7.882-8.594.14-6.554 10.405 3.993.263 18.92-8.498 12.34-1.87-.455 12.479 17.38 4.413 8.976-5.032-9.098 1.705 9.4-2.203 1.28-2.784-9.63.685.35-4.565 2.303-4.694-1.739.416-8.883-.372-3.583.468 4.922 4.41-6.154.568-8.877-6.395-8.795 1.607-22.837 12.874-18.227-3.745-5.162-14.275 4.236-14.995-3.126 2.589-7.481 5.162 3.702 2.657-1.14-6.614 4.962 17.591 1.32 3.82-.87.865.72-7.22-5.28-2.584-3.679-4.34-3.008 5.041-12.46 3.42-3.466-1.065-5.633-5.668 1.21-.336 4.312 5.289 6.142 4.374.773 1.025-2.753.79-1.81 1.9-5.63 7.282-6.464 4.279 3.163 16.374-4.137 8.807-2.898.088-1.759.642-2.429 1.297-2.433zm-33.74 77.934c.059.116.079.162.142.286.031-.024-.035-.137-.142-.286zm-121.46-77.854c1.979-.024 4.562 2.187.432 1.621-2.53 5.772 10.699 1.671 14.023 5.24 3.797-2.585-.13 5.486 4.137 3.829-.64 1.167-6.938 11.423.05 4.158 7.323-1.576-.44-11.464 1.069-4.774-6.063-5.278 9.63-3.25 2.272 3.665 4.304-2.595 1.236 1.97-1.5 1.717 1.219 3.357-1.674.876-5.078 3.589 2.024.425 8.689 3.856 9.628-.328-1.007-.778-5.323 2.171-1.103-2.068 6.783 4.817-4.457 6.968-8.127 4.215-10.786 2.76 5.62-1.326 7.528 3.923 9.267 7.028-5.996 21.25 1.734 25.802-2.948-1.558 2.48-5.85 1.756-.067-5.557 8.357-5.27-9.956-6.485-1.287-4.13 10.817.94-5.584-1.967-.71-6.485 8.176-1.593-.586 1.249-4.137 7.962-7.57-5.75 1.175-9.244-5.683-8.373-9.12 13.366-15.01 7.756-3.785-6.984-1.446-3.722 4.042 1.532 1.42 6.65-4.467-5.707-9.918-.977-9.59 12.557 5.655-6.336 18.838-5.835 6.397 4.079 2.737 7.926-3.72.72-3.272-11.17 6.996 9.355 16.966 11.254 4.905 4.778-7.648-14.236-17.518-9.054-7.957-3.506-7.05-14.755 2.557-14.442 10.39-.96 8.932 1.634-1.406 5.682.935-7.834 9.293 6.568 16.308 13.435 16.306 7.61.767 22.28 11.954 13.3 18.278-3 5.855 1.374.984 2.863 1.473-3.424 9.886 1.467-3.891 4.31-1.729-2.645 5.12 3.74-1.657 6.6 4.287 2.153 9.232-11.093 1.713-6.022 1.504.524-.665.923-1.074 1.244-1.321-2.606.887-6.318 3.603-7.808 4.963l-1.771.34-1.466-.234c-2.394-7.232-11.156-4.347-14.02-11.503-3.181 2.308-8.342-.374-1.701-2.269.699.883-4.522-10.594.248-4.245 5.056 6.54 4.904-3.986 9.825.458-4.577-.41-2.994 15.621-2.997 4.992 3.283-4.004 2.33 1.056 3.93 2.935 9.033-6.424-9.123-21.75-13.915-12.893-2.387-5.486 7.617-4.742 13.696-.354-4.912-4.092-12.79-5.153-18.982-5.296-6.916-1.016-3.21-2.634.78-1.672-6.314-3.043-9.806-10.612-7.94-17.46 4.989-3.969.162-16.095 4.564-9.048 3.4-1.457 8.485-7.359 9.648-11.708 4.421-9.937-16.085-9.374-7.54-.662 5.79-.265 2.604-3.392.27-3.96 4.73-5.015 6.398 7.477-.608 6.023 3.037 10.577-15.777 4.81-5.408.069 4.4 2.93-.382 3.624-1.16 1.518-.286 7.987 9.89-.664 3.826-5.337 2.272-6.824-2.699-3.455-5.54-8.066-.829-2.705.141-3.523 1.329-3.537zm8.56 52.168c.737.356 1.504.664 2.315.887-.73-.417-1.528-.697-2.316-.887zm18.2 6.968c2.17 1.807 3.763 4.202 4.373 7.374.092-2.988-1.787-5.508-4.372-7.374zm15.98 17.81c.29-.099.562-.171.82-.22-.18-.124-.443-.071-.82.22zm.82-.22c.746.52.157 3.872 1.46 3.647 1.112-3.154.204-3.96-1.46-3.647zm27.924-76.11c.373-.109.298.409-.593 1.884-5.896 3.903-1.847 10.823 2.2 3.324 6.466-7.912 1.026 1.748-2.108 4.277-11.173 3.18-1.117-9.019.501-9.486zm9.614 2.018c4.947.021 12.716 2.273 16.619 5.417 17.04 10.374 21.836 35.606 9.265 51.244-5.632 7.958-15.635 12.777-24.507 14.23-6.27.563-17.348-.887-23.599-5.57-7.66-5.2-13.586-11.723-15.583-20.568-1.644-6.084-2.05-14.558.557-20.847 2.797-10.36 14.601-21.004 23.15-21.772-11.41 3.935-20.747 13.7-23.294 25.61-5 19.641 10.88 40.614 30.852 42.13 7.506 1.034 16.855-1.222 22.165-5.39 9.8-5.01 15.754-16.13 16.431-26.948 1.77-19.484-15.592-37.306-34.947-37.178.759-.25 1.75-.363 2.891-.358zm73.225 23.425c1.577 2.588 4.707 11.631 3.528 17.332-.342 9.314-3.528 11.545-7.276 19.745 5.543 10.278.607-5.743 6.007-4.44-3.998 4.164-.053 11.155.398 15.278-1.36-.218-2.814-5.149-4.403-6.265-1.55-6.76-7.348 2.82-4.539-3.613 2.36-8.192-8.302 8.38-4.687 1.104 6.501-2.328-1.492-10.716 1.38-9.74 1.126 8.473 8.158-5.381 4.695 1.949-2.492 8.898 4.011-2.306 5.024-5.69 5.172-8.402.461-17.736-.127-25.66zm-152.82.582c.295-.073.462.642.402 2.532-5.048 9.63-1.661 20.537 3.13 29.506 5.76 8.2-1.64-6.642 2.157-2.7 2.232 4.819 2.517-.921 5.685-.915-3.83 2.285-1.4 7.611.078 11.233-2.199-4.547-7.861-5.992-3.82.303-2.942-3.724-5.515.895-7.83 4.68-1.183 2.173-2.877 4.38-2.216.07 5.32-2.6.242-11.701 1.324-13.098 4.553 1.364-.001 14.713 5.166 4.7-4.419-8.41-7.005-12.673-7.498-23.061-.291-2.686 2.373-12.99 3.423-13.25zm145.336 13.873c-3.075 3.711-2.417 4.782 2.889 4.232-2.367 5.042-9.913-2.434-5.606 5.258-5.145-.485-4.684-8.634 2.717-9.49zm-137.073 1.06c1.79-.195 10.367 3.68 3.385 8.176l-.515.729c-.925-3.507 2.633-5.942-3.456-3.667-8.273-3.313 4.283-1.213 1.888-3.558-1.74-1.098-1.898-1.615-1.302-1.68zm-3.41 26.257c1.413-.065 3.135.84 5.083 3.237.262 8.066-8.405-.563-1.449 1.408-2.352-10.706-13.482 7.192-1.975 7.786 8.075 3.156 6.613-9.462 8.324-7.72 2.56 8.064 1.686-1.281 4.496 3.348-3.8 1.956-4.554 1.588-8.5 5.202-12.387 5.526-12.095-12.98-5.978-13.261zm141.94.14c4.5-.185 11.749 9.585 2.476 13.026-2.25 1.022-4.896.868-7.134-.074-1.736-5.522-9.65-.625-7.995-6.009 2.878 1.846 3.446.515 5.184-3.364-3.226 8.883 12.72 12.767 12.869 2.58 1.285-8.654-12.75-2.11-4.951-2.352 3.983-4.866 1.088 5.597-3.315 1.958-.236-4.097 1.105-5.693 2.865-5.765zm-69.92 10.498c9.945-.032 19.883.049 29.772.486-9.782.879-19.766.254-29.616.49-9.729-.433-21.284.846-29.968-.789 9.915-.01 19.867-.155 29.812-.187zm-55.619.37c4.415-.198 8.255 4.83 11.718 5.52-1.544 4.39-.818.127 3.823 2.153-6.277-1.527 1.988 6.63 3.185-.286 4.272-.601 15.254-3.06 19.82 3.587 4.344 6.495 2.733.7 5.81-3.055 5.6-8.421 15.785 7.01 4.681 4.985-6.931-1.53 4.718 23.82 10.86 11.783 3.719-2.658 6.297-16.752 1.106-11.092-12.315-2.71 5.825-12.021 7.28-3.529.297 11.025 6.735-5.871 13.334-3.724 6.953-3.156 13.01 7.111 16.645 1.973-8.535-2.097 8.304-1.31 2.403 2.998 2.963-3.969-8-.498-3.24 3.49 1.168 8.537-1.305-2.153-3.998-3.735-3.998-3.248-9.424-5.108-15.842-2.334-9.481 4.94-10.486 17.369-19.314 23.18-3.198 4.403-6.499-1.497-9.13-3.347-5.714-3.981-5.445-11.435-11.243-16.58-6.61-6.797-18.815-6.116-23.158 3.051-4.196 8.773 1.461-4.748-1.415-4.216-6.133-5.368-.457 3.862-4.62-1.374 1.432-5.261-11.025-8.265-13.95-2.557 3.757.727 4.603.212 5.19-1.39-.222-2.447 8.576.654 5.416 2.052-1.166 1.077-4.7 2.489-3.722 2.838-1.284 6.492.892.235 5.037.61 4.323 2.063 8.498 11.165 4.958 10.985-2.197-7.739-5.72-8.491-12.151-6.454-5.894 1.01-12.79-13.105-1.41-15.1a5.692 5.692 0 0 1 1.927-.432zm110.82.36c5.124.034 10.061 3.329 7.802 9.159-2.82 6.759-3.429 1.61-7.099 6.115-5.312-.626-9.43-2.899-11.562 4.92-5.133 3.422-.305-1.861.362-4.787-1.36-9.077 11.34-1.196 8.781-3.15 1.925-4.795.336-1.703-.17-3.635-1.838.345-3.924-1.816-3.98-2.99 5.209-2.486 5.353-.12 6.97.588.997 2.123 1.112-1.704 4.01.78-3.603-3.994-7.52-4.383-13.809-.73-3.8 1.897-3.868-2.156.782-2.652 1.696-2.484 4.838-3.638 7.912-3.618zm-38.18 1.329c3.767.141 20.571-.435 9.914 2.002-3.164-1.209-7.277-.771-9.895-.198.182-.788-2.269.234-2.237-.7-15.336-.08-30.959.461-46.14-.43 15.898-1.139 32.278-.11 48.357-.674zm49.129 1.346c.466 0 1.08.216 1.866.762 5.052-1.944 13.882.558 4.695 4.765.583 2.756-12.94.725-7.203-.028 3.92 3.909 13.892-6.136 5.673-.34 6.958-5.723-3.93 1.94 1.35-2.577-3.658 1.648-3.12-.489-5.959-.073-1.677 1.492-2.442-2.516-.422-2.51zm-141.018.282c3.469.087 13.588.492 8.6 2.012-3.77.47-3.55.435-4.67.763-1.176-.309.808 2.205-2.536-.162.718.899 4.332 3.968-1.736-.122 1.174 5.83 17.362 1.198 6.518 4.12l-1.587.357-1.946-1.229c-1.13.205-8.569-4.434-2.643-5.74zm101.262.723c5.459.017 10.894.142 16.267.541l-2.318.418c-27.718-.175-55.506.338-83.2-.514 13.944-.763 27.963-.23 41.937-.397 9.054.196 18.217-.077 27.314-.048zm-20.884 3.144c-3.44.093-3.636 8.472.036 2.148 9.825 3.606 1.126 17.5-5.588 20.656-6.536-3.145-16.119-17.254-5.64-20.658 1.1 5.107 5.155.974 1.28-1.691-15.107-.372-4.639 20.73 3.879 24.313 4.807-1.488 9.112-7.4 11.18-12.312 1.629-3.472 2.281-10.87-2.906-11.508-.856-.698-1.604-.965-2.241-.948zm72.114.44c4.408.23-2.679 7.844.824 1.946-7.876-2.67 2.59 11.366-1.68 11.029.919 5.143 4.462 13.889-5.599 12.71-1.753-3.614-8.413.07-11.47-1.978-2.698 3.202-4.94-3.695-.845-1.493 4.603-6.91 13.619 4.475 11.478-5.207 4.802-1.951 5.91-4.753 3.704-6.562 5.446-.962-5.32-11.49-1.359-4.564-7.159.43 1.122-4.022 3.185-5.692.727-.157 1.306-.212 1.762-.188zm-154.096.058c1.033-.018 2.218.577 3.306 2.301 7.962.505-1.857 6.333 1.389 2.278 1.09-4.362-7.756 6.353-2.675 5.675-4.506 3.387 6.574 4.772 3.888 10.923 2.79-.944 8.7-1.826 12.758.63 5.192 4.02-8.265.563-13.565 3.43-3.327 1.47-7.657-1.212-7.596-4.91 4.63-6.67-1.027-7.223 2.173-12.147 4.59-4.06-3.43-10.86-.47-4.589-3.492.516-1.846-3.543.792-3.59zm47.562.915c3.554-.165 8.525 6.17 10.11 3.561 5.089 5.784 7.953 15.792 12.216 20.24-5.583.953-5.053-13.395-13.02-13.89-6.617-1.383 1.181-2.614-2.626-3.704-1.5-2.786-14.722-4.282-7.732-5.93.332-.173.684-.26 1.052-.277zm58.346.704c9.105-.378-12.887 5.678-7.041 7.049-5.502 3.07-11.855 8.642-13.312 16.247-1.324 1.27-3.6-.198-2.158-1.789 4.047-2.366 4.817-8.923 8.65-14.123 2.48-5.626 5.55-4.32 11.608-7.22a43.76 43.76 0 0 1 2.253-.164zm-29.961.75c.41 3.02 3.094 11.374 1.874 14.637-3.446 3.516-2.136-.044-4.102-.92 2.734-3.684.908-9.933 2.228-13.717zm-63.017 2.952c1.685.093 2.688 1.392.682 4.812l-1.549 1.45c-8.042-2.225-2.348-6.44.867-6.262zm127.214.224c3.136-.088 7.688 2.584 2.164 5.554l-1.556.782-1.376-1.487c-2.86-3.435-1.377-4.788.768-4.849zm-6.93 3.203c.91-.035 6.847 7.218 1.952 9.636-2.916 1.544-6.162 8.741-4.825.643 3.602-3.165-3.377-11.761 1.458-9.428-1.183 3.553 3.037 1.377.851 5.95 4.246-4.834-2.92 5.465 1.763.04-2.028 3.616-2.876 3.962.935.425-6.786 7.203 2.617 1.888.06-3.15-2.135-2.973-2.549-4.102-2.193-4.116zm-114.364.031c.239.022.346.42.216 1.327-7.585 4.024 6.774 15.347-1.592 6.014 7.159 8.019-2.891-5.6 2.829-.531-2.166-3.627.395-1.556-.143-3.42.359-.578 1.018-1.28 1.502-3.39 2.618 2.38-2.45 8.375.84 12.63-.088 2.734-1.886-.754-2.35-.687-7.711-1.183-2.592-12.06-1.302-11.943zm81.766 3.267c-1.944 9.907 12.097 9.487 15.62 2.26 2.863.858-7.173 9.944-11.926 4.976 2.288 3.939 11.476 1.823 13.332-3.892 2.947-.203-6.846 8.341-7.282 10.174l-1.01.15c.565-6.22-1.241-1.046-3.756-.356 1.852-8.16-3.379 2.263-4.286-2.85-1.19-1.947-2.075-9.989-.692-10.462zm-70.088.172c.131.014-.269 4.96 1.944 4.605 6.987 2.87-2.749.917 1.222 6.486-.39 4.704-4.243-2.23-3.34-3.43-7.504 2.159-.428-1.853-.413-4.8.402-2.117.535-2.867.587-2.861zm21.892.534c.538.242 1.006 7.172-.444 8.27-.522 6.142-2.472 1.084-5.529 1.06 3.055 8.428-4.042-3.707-2.858 2.891l-.447.558-.928.07c-.516-3.162-6.913-5.465-8.064-10.815 2.73 6.122 14.437 9.868 17.716 1.502.122-2.703.343-3.631.554-3.536zm69.864.198c.412.032.367 6.167 4.282 6.778-2.94 1.84-4.955-1.018-5.933 4.833-2.544 2.309-1.385-4.21-.356-4.898-6.136-1.147.928-2.781 1.048-3.252.566-2.553.798-3.474.959-3.461zm-28.133.34c.77.13 1.232 1.418.11 1.92 8.497 2.595 2.788 1.784-2.237 2.11-8.227 1.384 1.022 12.576.077 4.206-9.491 3.213 7.638-7.464 5.16.979-1.273-2.982-3.173-1.237-5.162 2.983-6.889 2.027-5.083-9.074.306-9.485.365-2.216 1.148-2.815 1.746-2.714zm-35.499.4c2.652-.02 9.668 8.47 5.314 11.649-5.563 4.391-4.553-10.083-7.787-3.401-3.156-.995 1.92-4.796 5.093-1.77 5.432 2.953.177.03-1.039 2.784 6.253 6.53 4.25-10.238-3.396-5.792-8.945 2.48 5.399-3.593.87-1.926-.047-1.081.333-1.539.945-1.543zm94.241 3.081c-.861.05-2.087 1.13-3.617 3.956 5 3.531-8.015.347-.038 3.992 5.552 1.005 6.24-8.1 3.655-7.948zm-152.225.173c-2.098.088-3.719 6.863 1.462 7.659 1.597.33 3.433-.138 4.366-1.572-4.09-1.332-4.267-.665-3.526-2.36-.588-2.773-1.482-3.762-2.302-3.727z" style="fill:#a11515;fill-opacity:1;stroke-width:.264583" transform="translate(142.812 8.27) scale(.22676)"/></svg>