<?xml version="1.0" encoding="UTF-8" standalone="no"?>
<!-- Created with Inkscape (http://www.inkscape.org/) -->

<svg
   width="39.6875mm"
   height="57.276554mm"
   viewBox="0 0 39.6875 57.276552"
   version="1.1"
   id="svg5"
   xml:space="preserve"
   inkscape:version="1.2 (dc2aedaf03, 2022-05-15)"
   sodipodi:docname="card.svg"
   xmlns:inkscape="http://www.inkscape.org/namespaces/inkscape"
   xmlns:sodipodi="http://sodipodi.sourceforge.net/DTD/sodipodi-0.dtd"
   xmlns="http://www.w3.org/2000/svg"
   xmlns:svg="http://www.w3.org/2000/svg"><sodipodi:namedview
     id="namedview7"
     pagecolor="#ffffff"
     bordercolor="#000000"
     borderopacity="0.25"
     inkscape:showpageshadow="2"
     inkscape:pageopacity="0.0"
     inkscape:pagecheckerboard="0"
     inkscape:deskcolor="#d1d1d1"
     inkscape:document-units="mm"
     showgrid="false"
     inkscape:zoom="0.38440306"
     inkscape:cx="-88.448828"
     inkscape:cy="972.93711"
     inkscape:window-width="1920"
     inkscape:window-height="1017"
     inkscape:window-x="-8"
     inkscape:window-y="406"
     inkscape:window-maximized="1"
     inkscape:current-layer="layer1"
     showguides="false" /><defs
     id="defs2" /><g
     inkscape:label="Layer 1"
     inkscape:groupmode="layer"
     id="layer1"
     transform="translate(629.78532,36.46999)"><g
       id="g8103"
       transform="matrix(0.2267624,0,0,0.2267624,-486.97369,-28.199968)"><path
         id="path304-5"
         style="fill:#ffffff;fill-opacity:1;stroke-width:0.264583"
         d="m -462.62965,-36.464534 c -0.24391,-0.009 -0.4882,-0.007 -0.73122,0.007 v -5.1e-4 c -53.16712,0.087 -106.33504,-0.0155 -159.5019,0.11368 -4.09914,0.3233 -7.14642,4.46297 -6.90965,8.44342 0.15245,6.63617 0.0254,13.27509 0.0687,19.9124797 0.007,72.4773783 0.0155,144.9561943 0.062,217.4332343 0.55823,4.22223 5.04581,7.2077 9.16378,6.58771 53.07738,-0.009 106.15539,0.0305 159.23266,-0.0977 4.14011,-0.63994 6.98526,-5.07265 6.4022,-9.11727 -0.008,-78.87934 -0.0175,-157.759866 -0.0682,-236.638784 -0.40811,-3.77281 -4.05971,-6.50117 -7.7184,-6.64301 z"
         sodipodi:nodetypes="ccccccccccccc" /><path
         id="path304"
         style="fill:#a11515;fill-opacity:1;stroke-width:0.264583"
         d="m -462.62965,-36.464534 c -0.24391,-0.009 -0.4882,-0.007 -0.73122,0.007 v -5.1e-4 c -53.16713,0.087 -106.33505,-0.0155 -159.5019,0.11368 -4.09914,0.3233 -7.14642,4.46297 -6.90965,8.44342 0.15245,6.63617 0.0254,13.27509 0.0687,19.9124797 0.007,72.4773783 0.0155,144.9561943 0.062,217.4332343 0.55823,4.22223 5.04581,7.2077 9.16378,6.58771 53.07738,-0.009 106.15539,0.0305 159.23266,-0.0977 4.14011,-0.63994 6.98526,-5.07265 6.4022,-9.11727 -0.008,-78.87934 -0.0175,-157.759866 -0.0682,-236.638784 -0.40811,-3.77281 -4.05971,-6.50117 -7.7184,-6.64301 z m -0.52607,4.24057 v 5.2e-4 c 1.7941,-0.0981 3.82329,1.02562 4.05454,2.94142 0.0336,78.784998 0.0236,157.571604 0.0238,236.357144 0.34652,1.95721 -0.74237,4.38589 -2.87528,4.69274 -52.96354,0.0435 -105.92968,0.029 -158.89418,0.03 -1.97749,0.3536 -4.40003,-0.86162 -4.6116,-3.01584 -0.0187,-78.77794 -0.008,-157.557156 -0.0114,-236.335434 -0.39935,-1.98705 0.86641,-4.352 2.99,-4.61367 34.96945,-0.0233 69.94037,-0.012 104.91039,-0.014 18.13784,-0.0215 36.27605,0.0465 54.41373,-0.0429 z m -1.35702,2.99052 c -5.02177,0.63966 -11.43233,-0.0443 -16.38298,0.29197 -9.12472,-0.36226 -19.4513,-0.39611 -28.51299,0.078 -30.72988,-0.43691 -61.77378,-0.4758 -92.67961,-0.14211 -7.56957,-0.106 -12.82976,-0.28832 -20.20652,-0.001 -0.39113,71.299018 -0.004,142.603444 0.0863,213.904244 -0.19107,8.11223 0.45314,15.91472 0.15813,23.59236 11.05842,-0.009 22.12028,0.23021 33.17575,-0.0367 14.4685,0.17142 30.11471,0.20196 45.03963,0.15606 8.13228,0.0492 17.43707,-0.11967 24.60832,-0.29662 8.24683,0.5082 18.50527,0.40252 26.68984,0.0444 7.33006,0.49202 15.6457,-0.51084 22.23069,0.31523 v -5.2e-4 c 3.86513,-0.96187 6.18179,-0.36453 8.05325,-0.0506 0.27662,-2.83584 -0.0587,-6.99659 0.66973,-10.00146 -0.24692,-6.83765 0.45531,-13.3571 -0.19792,-18.32756 0.84399,-10.5566 0.27598,-21.33604 0.44752,-31.97996 -0.48311,-9.36393 1.041,-19.27699 -0.77773,-28.27321 1.71163,-7.18642 0.29916,-18.283 0.6444,-26.971996 -0.76432,-6.69415 -0.004,-10.43752 -0.0295,-18.788 -0.35562,-1.58363 0.10189,-9.76902 -0.34933,-12.10468 0.48854,-18.99696 0.252,-38.862638 0.19895,-58.1850783 -0.67495,-4.28235 0.11444,-5.26961 -0.38757,-9.48521 0.1849,-2.15123 0.50839,-6.4590897 -0.0718,-7.2729397 0.49527,-5.10841 0.0538,-8.26552 0.20774,-13.03073 0.53646,-2.7574 0.22526,-3.3932 -2.61431,-3.4339 z m -63.9961,1.19372 c 2.54854,0.21556 5.41731,8.60664 6.77633,4.10053 4.2366,2.52951 -6.90909,4.49048 -7.45535,-0.51728 3.21115,4.0674 4.18394,-4.12928 0.64078,-1.35703 -4.45111,3.59747 4.29985,9.12192 9.07439,6.42493 0.16224,2.77169 -6.81483,0.72604 -4.28501,4.06901 -0.81114,-1.37124 -9.17783,-5.1099 -6.77634,-10.51616 0.62318,-1.68416 1.31161,-2.26435 2.0252,-2.204 z m -21.18217,0.27802 c 2.02793,3.08759 -4.71818,5.71358 -4.98315,11.29802 -3.29058,8.6305897 -5.8235,9.4369797 -13.455,12.4958797 -9.19665,1.23293 -5.94392,-1.43599 -1.25728,-1.84847 0.73888,-2.16846 9.57018,-3.72568 4.87463,-5.2311997 7.42113,-2.46985 11.17396,-10.12251 14.8208,-16.71423 z m -22.31698,0.0233 c 0.61937,2.5e-4 -0.13478,6.60381 3.03961,2.71456 3.83599,-2.60884 3.26695,6.45304 3.56257,10.53631 l -0.46199,0.54777 c 1.04828,-7.90599 -10.08782,-13.25681 -15.40216,-6.16035 -6.39509,8.56938 0.0867,-5.04252 4.35529,-4.95112 -0.0407,-6.27989 2.51167,3.82556 4.19355,-1.42213 0.35442,-0.91337 0.5702,-1.2651 0.71313,-1.26504 z m 63.83796,0.005 c 0.25529,-0.0238 0.56138,0.51736 0.97514,2.09754 2.18254,1.17232 9.78726,10.97651 6.03633,7.73132 -0.86915,6.46671 -1.79221,-3.69834 -8.92918,-3.50935 -11.14387,2.58169 3.3321,-4.18055 6.76393,1.74149 3.17788,-2.29019 -16.21698,-7.2439 -14.3831,3.92845 0.46283,4.74844 -1.11315,1.68747 -0.96015,0.0207 1.4059,-5.67062 -0.84974,-7.03959 3.23443,-10.74663 2.74815,5.45007 2.34488,0.63499 3.85041,-0.97514 2.23401,7.08914 2.50046,-0.20327 3.41219,-0.28835 z m -107.88488,0.0222 c 0.47123,0.008 0.98829,0.0468 1.55494,0.11989 3.49061,4.14923 16.34727,-0.72482 14.97996,2.09496 2.93066,2.59532 -4.43057,1.24067 -7.73802,3.26698 -7.77931,-3.41623 -2.01942,0.39249 -6.92465,4.97231 -6.84697,-0.54536 0.19869,5.39458 -2.9068,4.5682 -3.60714,4.7459697 7.28105,9.3573397 2.29651,4.9170097 6.85293,-0.87835 -0.47694,3.93342 -2.697,5.37228 -8.7313,3.22426 0.74885,-10.1956197 -2.51044,-0.7059 6.9746,-0.8356 -2.67796,-13.0330097 0.74621,-12.1434397 -0.2319,-2.06184 -0.80555,-4.29432 -1.10174,-6.29781 0.20461,0.70979 0.66962,1.50135 1.49965,2.38435 5.74371,0.96662 1.70347,-7.77575 4.61419,-5.04672 5.73016,-2.99183 -6.00426,-2.72006 -6.2296,1.71876 -0.29611,-3.0119 0.35168,-5.28815 4.41679,-5.22087 z m 59.04756,0.0372 c 5.33242,1.10397 4.52299,3.5634 2.57762,6.19238 0.98594,-3.34205 -3.06229,-8.21993 -3.18379,-1.99574 9.22161,-3.60018 -7.06674,7.52651 -5.18573,-0.87902 2.07857,4.1395 3.17062,-0.66779 5.7919,-3.31762 z m 86.53839,0.30644 c 5.41591,0.0511 10.4016,4.51804 4.82606,10.28102 5.68652,2.76057 -5.79524,11.4747097 1.44177,14.2694197 -3.16096,-4.69752 2.4357,-3.56639 1.02733,0.44028 -4.05617,2.9601 -3.81752,-2.96924 -7.23264,-1.85208 -6.3533,-2.95798 4.33065,-4.96751 -0.18913,-2.26498 0.95397,4.80029 7.84532,-7.5962897 1.52859,-6.4306197 8.01633,-2.96531 -6.20849,-3.83347 -2.35696,-10.049 -3.43457,1.38563 -12.15808,0.33591 -14.08803,-1.20044 -0.42809,-3.83112 4.13786,-0.8423 9.85883,-1.65726 1.52568,-1.07975 3.37887,-1.55337 5.18418,-1.53634 z m -70.37194,0.37362 c 2.51645,0.0628 4.9617,1.71969 6.92361,5.94485 5.07377,5.54142 6.18343,14.1934297 13.89786,18.0826197 7.45438,3.62656 15.95568,-0.12047 18.8526,-6.36809 0.56836,-1.0470797 0.91425,-1.7156197 1.15652,-2.1962397 -0.89785,2.0387497 -2.78878,7.3229497 1.03353,7.1132597 5.88975,3.44997 -0.80348,-2.15819 2.96726,-0.80977 1.98683,6.25879 -10.19952,2.61088 -3.97185,3.48816 -1.09962,-7.26275 -12.51011,5.82169 -18.72806,0.6475 -2.26145,1.57906 -7.64472,-6.92964 -9.70277,-7.3396 2.08005,10.70961 -19.37976,10.38738 -9.84695,0.68885 6.16396,6.29637 5.99105,-4.7079797 2.70992,-8.4708097 -4.15634,-10.78233 -12.69914,-3.87563 -14.51798,4.33462 -2.09725,8.2966197 2.09569,3.2648597 6.20427,5.0120997 3.6317,9.90681 -14.50854,6.92255 -11.71194,-2.20555 -4.70136,7.54969 -14.88266,11.20437 -22.86786,6.56756 -6.2e-4,-3.22773 -9.86652,0.07 -4.0721,0.0858 1.63014,2.11867 -6.71309,-0.45088 -2.7063,1.83813 -1.06146,0.90747 -3.6405,2.4256 -8.9395,5.39295 l 5.1e-4,5.2e-4 c -8.2842,2.59109 -15.86615,-4.02297 -9.38392,-11.95741 3.59283,-0.89363 2.86969,-2.53387 8.79946,-3.5181297 3.60174,6.8803797 10.55169,-8.20217 9.74566,-4.71392 0.63985,3.00608 -5.08801,15.6272097 -11.39413,7.2191897 1.08724,4.28868 -0.19246,4.31866 2.01796,4.33256 0.71913,2.21516 2.98879,1.18442 3.39307,3.30057 -4.82359,2.97351 -6.72137,0.39908 -7.80779,-0.99839 -0.82149,0.3918 -5.02489,0.86244 -2.86391,0.68213 4.03907,5.48715 10.56614,1.08299 15.58665,-1.31258 -5.69557,1.15104 0.81071,-5.91541 -1.46503,-2.47013 2.86547,2.21909 5.40333,-1.694 4.33721,-5.4699597 2.87035,4.6811997 8.35723,10.4656497 15.06781,8.2708197 4.5116,-0.58088 13.85172,-7.37199 14.95516,-14.8755797 2.46248,-4.72544 7.5269,-10.41599 12.33103,-10.29601 z m -57.94892,25.4713097 c 0.21589,-0.10296 0.21098,-0.20075 -0.21962,-0.27957 0.0662,0.0811 0.14663,0.18568 0.21962,0.27957 z m 129.59571,-25.3328197 c -0.92673,0.0688 -1.91744,0.59025 -2.89956,1.77147 6.16513,0.95648 1.09197,1.04815 5.47977,5.97224 4.25343,0.15909 1.43564,-8.04186 -2.58021,-7.74371 z m -64.38057,0.16123 c 0.27036,-0.0125 0.59174,-8.5e-4 0.96945,0.0367 -0.17565,8.05935 11.0515,13.84344 12.6013,16.2264 -5.57232,1.6675497 20.04485,7.9825297 5.52628,6.8228397 -1.96279,-0.86869 -2.22452,1.58489 -3.73466,-1.11776 -6.23304,-2.0353 -8.3475,-4.37674 -11.27786,-12.1124397 -0.72406,-4.08138 -8.1399,-9.66825 -4.08451,-9.85573 z m 35.52549,0.32091 c 0.5636,0.0148 1.27033,1.16612 1.94975,4.29431 7.8909,-0.92296 0.73194,1.55303 0.0522,5.31544 -1.28478,-2.5093 -6.9463,-2.62843 -2.83239,-4.09691 -0.64993,-2.40427 -0.10889,-5.53743 0.83044,-5.51284 z m -44.30221,0.23926 c -7.3486,4.1953 -18.07252,19.5444897 -6.48746,24.3876597 2.39083,0.90804 6.18021,-2.02438 3.79667,-4.39508 -6.37502,7.59521 -10.03983,-8.5791097 -2.47117,-13.0772397 3.85915,-9.13417 9.45637,-3.98211 13.20023,2.42983 7.24776,4.48861 -2.66186,19.8454997 -3.49643,10.0913697 -6.32895,5.86065 8.55378,6.63875 7.31325,1.42007 1.26767,-3.44217 -0.27452,-10.7729597 -4.81624,-15.3949197 -2.77337,-2.0249 -3.62331,-4.29354 -7.03885,-5.46169 z m -43.18548,0.0124 c 0.98707,0.13965 1.476,1.72118 -0.33021,4.55682 7.04423,2.42897 -3.2376,1.24477 -1.60921,5.40019 l -0.006,0.8723 c -0.87695,-2.54553 -7.61647,-9.65517 -0.71417,-6.73551 0.1866,-2.93143 1.67221,-4.23346 2.65927,-4.0938 z m -10.84275,2.65927 c 0.17127,0.01 0.34379,0.031 0.5178,0.0646 -3.0085,3.58091 2.164,12.40471 -0.80047,12.2375 -1.05111,-1.37239 -1.49102,-4.26771 -1.95957,-4.00803 1.3511,-3.08641 -2.77976,0.58265 0.22273,-3.32486 0.62155,-1.26934 -3.95181,2.86422 0.68316,-2.26653 -4.57937,4.79738 -2.60981,1.4889 0.21807,-1.59887 -5.45538,2.58008 -4.35193,7.83423 -0.99735,11.62978 -7.03605,-2.15528 -3.1937,-13.03332 2.11563,-12.73358 z m 109.20264,0.59066 c 2.85747,0.29785 9.32077,7.21418 3.17604,11.16262 -4.92228,4.5573397 4.2013,-5.56892 1.0051,-6.95616 -6.39451,-7.72799 3.60444,5.64362 -2.93935,-1.70894 4.75222,5.3217 -1.15714,0.2871 0.45423,2.16938 4.46845,5.80479 -2.17747,-1.24742 -0.0925,1.53479 1.46362,3.41926 -1.91191,2.17785 -1.15858,5.07462 -3.23361,2.7356697 -0.49484,-3.84063 -0.58343,-6.67969 -1.71404,-3.49958 -1.16036,-4.73201 0.13849,-4.59662 z m -68.71312,3.22564 c -1.36713,1.63655 -2.73582,3.23839 -2.91507,4.51549 -3.25909,0.26339 -1.90254,-1.60585 -1.11724,-2.0929 -6.92827,-2.01814 -3.34122,-2.57648 1.56528,-1.80041 1.05191,-0.0436 1.85717,-0.27273 2.46703,-0.62218 z m -4.03231,2.42259 c 0.15164,0.0442 0.23654,0.079 0.39842,0.12454 0.0736,-0.29953 -0.12956,-0.29129 -0.39842,-0.12454 z m 17.77462,-2.24947 c 0.50209,0.0235 1.16529,0.25342 2.02934,0.74207 1.5933,2.40458 -2.6598,5.41563 -1.10174,9.1472397 0.57868,3.1478 -1.04528,8.91366 -1.70946,2.32286 1.63039,-2.40913 -2.73272,-12.3767097 0.78186,-12.2121697 z m 42.77724,3.55533 c 0.86726,0.0843 3.95686,4.39465 5.6534,6.7344797 2.3977,-1.0859697 11.05642,-0.0964 10.82363,1.4428 6.47011,-0.27016 5.78319,15.01131 -3.64009,13.32942 -4.32073,-0.23712 -8.87195,-3.52248 -11.59567,-5.23327 0.26662,-5.88542 9.05451,4.98521 12.19667,0.74879 7.74701,-3.30568 1.5671,-0.98175 0.75551,-3.03237 -1.29536,2.07852 -1.79568,3.96499 -5.23896,2.37866 -5.81294,-2.51946 1.90002,-1.51897 0.19999,-4.55889 2.63941,0.83706 2.06125,0.45304 2.50786,-3.95997 -5.69833,8.1408 -10.55137,-2.4511297 -11.44323,-5.6363397 -0.55784,-1.63234 -0.55847,-2.24629 -0.21911,-2.21331 z m 3.49023,0.82528 c 0.027,0.0694 0.0475,0.13831 0.0801,0.20825 l -0.57361,0.99219 c 0.25361,-0.4375 0.40724,-0.83386 0.49351,-1.20044 z m 18.27588,1.9606 c 3.01658,0.18174 6.46997,4.1232497 0.74001,6.3706697 -1.42759,0.88442 -3.04658,-0.16151 -3.61993,-1.45934 -0.58244,-3.7759697 1.06998,-5.0203797 2.87992,-4.9113297 z m -129.59777,0.0589 c 2.34042,-0.10184 4.7288,1.45987 3.1197,5.5102597 -1.97599,2.36982 -4.42987,-0.64485 -5.95106,-1.03766 -1.80138,-2.6049597 0.49093,-4.3707597 2.83136,-4.4725997 z m -3.41788,8.7415897 c 7.84969,0.71362 2.34164,2.17026 -2.06448,0.88366 -4.33908,3.04892 -5.17565,3.56286 -0.67231,1.3193 -6.09176,4.77865 1.65757,-1.13709 -0.23306,1.36788 1.32641,-0.14751 0.40868,1.19822 4.45658,0.64234 2.93943,0.0531 3.05992,3.48272 -3.29076,1.66449 -12.36619,3.28272 -4.50627,-5.6796 1.80403,-5.87767 z m 135.7421,0.11575 c 4.6982,0.036 15.44142,5.79699 6.03994,6.54947 -2.92638,0.75722 -1.03537,-0.23725 -3.54345,-0.76894 -7.45898,3.41581 -4.26727,-3.79883 -2.57814,-1.19786 3.13905,0.1171 1.64185,-2.35028 5.57382,0.0884 -4.80011,-4.57285 5.2203,2.66477 -1.32136,-2.59105 9.31456,5.76142 -2.52529,-4.11632 -6.12056,-0.52813 -0.20736,-1.12323 0.63426,-1.56193 1.94975,-1.55185 z m -104.23085,4.82245 c 12.19409,0.1833 25.24066,0.42257 37.90467,0.19947 7.28215,-0.41133 13.88021,-0.0542 21.48706,0.0563 6.14927,-0.45773 14.3239,-0.2286 20.44423,0.5736 -22.96973,0.49253 -45.95929,0.25603 -68.93533,0.24133 -4.4712,0.10381 -24.52655,-0.0914 -10.90063,-1.07073 z m -32.27916,1.51515 c 1.06542,-0.0248 2.15311,0.28433 3.19257,1.02319 2.49149,4.58946 8.44978,2.457 8.32404,6.46576 -2.23958,-3.47163 -3.03651,1.7477503 -5.23276,3.2478603 4.20045,-9.8134403 -13.12075,-12.3944003 -12.20701,-2.26394 -0.41876,8.72071 12.27605,0.85056 4.70876,1.71566 -3.81016,-4.6603503 9.43399,-1.53406 1.92805,3.72742 -1.14525,1.72375 -4.15036,-0.56578 -4.90668,0.49712 -0.36553,-0.24221 -0.68427,-0.50574 -0.98082,-0.77824 0.30716,0.49785 0.56694,1.00391 0.74879,1.4981 0.58106,7.02111 6.0608,-3.58863 3.94912,2.05827 -2.32838,10.819058 7.63659,-8.10527 4.83898,-0.53537 -5.77503,2.63299 0.21622,10.066848 -1.42472,10.139948 -1.72963,-7.966798 -7.37091,4.6219 -5.12372,-1.66708 3.48321,-7.229008 -2.83885,-3.089408 -3.25562,1.88877 -5.60969,9.1161 -4.15797,19.5723 -1.12654,28.94656 -2.45366,-1.16677 -5.63897,-15.06343 -2.96571,-20.77703 -1.04123,-7.25779 5.69587,-9.48816 6.2115,-16.642908 -4.38814,-10.8922203 -2.33551,11.602738 -5.6627,3.38377 2.69804,-1.78765 1.67622,-6.36674 0.53899,-10.2495 -2.72157,-3.68663 -0.38461,-2.46247 1.7663,-0.0388 -2.3437,-4.8298003 1.94387,-11.5292903 6.67918,-11.6396003 z m -6.67918,11.6396003 c 0.34762,0.71637 0.84541,1.38881 1.50533,1.99523 -0.43391,-0.7033 -0.96412,-1.38537 -1.50533,-1.99523 z M -586.08,2.3127757 c 1.14494,-0.007 2.38958,0.6407 3.8039,2.35644 1.56302,6.6593003 12.77418,1.89723 6.06113,-0.74414 1.77889,2.38767 -1.59475,5.271 -1.80661,0.22531 8.34953,-5.24386 5.15079,11.1563803 -2.52749,4.89324 6.44342,9.7442003 -9.48125,-8.16652 -3.38687,-1.00045 1.5202,6.5470703 -2.39098,-2.49766 -3.75326,1.41335 2.90542,2.9615903 6.86539,5.8903303 2.15852,11.8411303 -5.61911,8.527788 -17.40865,7.617798 -25.60205,12.148618 -10.04593,2.42759 2.82786,15.95856 -5.98517,11.91917 -2.69632,-6.6219 -2.19371,8.25042 2.89388,11.61221 1.07066,0.85607 5.5433,5.40468 8.33593,2.46755 2.96676,-6.70167 -1.94642,5.26896 3.18223,1.91409 11.51241,-0.66278 8.8121,-20.99113 -2.04483,-16.97726 -7.94575,-0.77719 -4.70978,14.03079 1.92753,9.66711 2.97813,-7.8822 -4.57073,1.01144 -5.00642,-4.21834 5.08018,-12.12029 17.25163,6.88065 4.39612,8.56226 1.38014,-1.98133 7.33827,-7.18397 2.97398,-10.48049 -1.08797,-2.09612 -8.85309,1.62329 -4.17132,1.00665 12.18929,3.74481 -8.92576,12.81579 -6.54017,0.60927 0.0399,-5.10936 2.90465,-6.0995 7.24452,-7.06469 9.36737,2.29908 -4.97355,-3.98081 2.49855,-1.45365 7.76129,7.0954 -0.91608,-3.8885 -2.32596,-5.66529 -6.19486,-10.12332 6.84968,7.49761 2.38746,-0.63304 -1.3567,-10.627428 3.92151,8.79869 2.59415,2.87321 -3.88429,-8.24468 10.34644,-5.52947 3.52692,-0.4687 0.45434,-4.45286 -2.88764,-4.57703 -2.07481,1.75441 3.76146,7.97373 6.50183,22.38989 -5.87458,23.78253 -13.05085,-1.99342 2.53632,3.15117 5.08496,-0.80874 8.92606,0.0468 -0.0535,11.11329 0.23048,3.01119 3.86089,3.82827 2.83884,-3.51694 -2.85977,-0.71624 -7.67073,-1.07734 -2.97918,3.56353 1.29449,2.63912 -2.0768,2.64844 1.99125,1.65503 3.54035,3.92947 -2.22763,0.387 -2.36172,-0.64269 -0.61908,4.11913 -2.34949,7.86493 -7.91668,-2.61684 -3.93568,0.94878 2.97895,3.67273 3.55945,-6.58357 -1.68361,-6.91637 -8.0461,-5.74782 5.57925,7.15184 -1.38803,4.50205 1.48993,7.01197 -9.63255,5.75895 -15.11019,6.03167 -5.60428,5.57537 2.41505,0.6071 0.58446,4.52324 l -1.22628,0.58808 -1.16324,-0.18604 c -5.45217,-7.11304 9.33588,-4.23285 4.42505,-11.35538 6.5254,-4.56509 -3.56802,-13.86299 -3.65972,-5.66218 2.07893,-3.41409 4.97032,2.34591 -1.05885,0.97151 -3.79763,-7.92839 11.63099,-6.57516 7.6848,1.31104 9.13069,-2.35223 1.93118,12.60831 0.76843,4.49946 8.52903,-0.20232 -4.84944,-7.19797 -2.53938,1.71669 10.41696,8.85279 13.12237,-11.66132 2.8019,-15.04611 -1.53194,-5.86662 -7.99023,4.64682 -4.48449,-1.34668 -2.29997,-8.47935 -7.13245,-19.96192 2.7156,-26.54825 8.63224,-2.90788 -0.16881,0.29395 -2.93315,-0.72554 3.64159,-1.76328 8.33,-2.07228 12.84469,-2.75901 -2.03329,-0.0758 -3.68369,-1.18838 -4.40542,-4.04006 1.1189,-1.400528 6.11745,5.73613 10.48102,0.50333 5.36727,-1.651928 10.63466,-11.957188 3.84162,-13.496338 1.08083,3.01511 -1.42409,4.67281 -2.73523,3.58997 1.59128,2.54575 3.33265,5.39248 0.0346,5.11803 -1.84072,-8.4959 -9.94375,5.379208 -9.78441,-1.57561 6.33443,-3.84484 -1.36343,-2.598 -0.69815,-6.73448 4.06466,4.51299 8.38059,-5.0788203 11.575,-3.8679803 3.52057,-0.62646 6.05712,-6.53733 9.49193,-6.55825 z m -10.61899,13.6182903 c -0.20529,-0.32844 -0.40967,-0.65633 -0.59841,-0.96687 0.1286,0.43794 0.34009,0.75352 0.59841,0.96687 z m -0.59841,-0.96687 c -0.18991,-0.64672 -0.20403,-1.54101 0.0868,-2.73575 -1.77391,-0.35297 -1.14304,0.99791 -0.0868,2.73575 z m -6.58358,14.409968 c 1.0779,0.0402 2.26347,-0.21517 3.47627,-0.6568 -1.13396,0.26389 -2.29672,0.47738 -3.47627,0.6568 z m 3.47627,-0.6568 c 4.20605,-0.97882 7.95355,-2.75529 10.12083,-7.016108 -1.52982,1.79814 -5.96323,5.502158 -10.12083,7.016108 z m 10.12083,-7.016108 c 0.50784,-0.59691 0.73126,-1.00608 0.47078,-1.0232 -0.14715,0.35656 -0.3046,0.69651 -0.47078,1.0232 z m 93.60256,-19.1332003 c 1.51231,-0.10497 2.84347,0.88578 3.8008,4.00699 5.82643,0.22423 9.61774,9.4779603 14.47767,6.3779003 6.84649,0.78083 -6.24097,3.02521 -0.83664,5.12269 4.96791,10.643958 -6.02889,-4.12292 -6.76599,2.37711 -8.67495,1.52306 1.65114,-3.78785 -0.35554,-8.31215 0.62234,2.53759 -5.00939,6.86766 -3.08818,1.82624 -7.04467,-5.5464203 -2.37505,13.643358 3.27267,11.684048 4.27731,7.31902 12.46137,-5.269578 9.31778,2.50114 -10.15962,2.27273 0.80684,1.64331 5.58828,2.54764 9.96713,2.68805 -6.06678,-0.0458 1.25264,3.12074 9.17269,6.13198 4.9072,17.47036 2.17041,24.86619 2.96568,7.1583 -0.9672,-0.9513 -2.45411,0.40152 -5.42625,4.32936 -14.36314,14.93209 -4.45658,19.04587 7.86684,3.4082 6.01316,-12.08726 -0.0434,-5.07618 1.53271,0.61052 5.65283,4.49391 0.32091,3.1626 -7.2642,-6.66881 6.05058,-4.05749 3.28301,-9.49813 1.54215,-9.42317 14.55999,1.98162 4.93871,2.13682 -3.15434,-4.23814 1.44977,-2.33289 1.90945,-1.40301 -0.22887,-8.03901 -9.72693,0.9984 -3.70262,5.56607 -3.52631,6.75258 9.30034,4.22016 4.6421,11.43599 v 5.2e-4 c -1.11137,0.69435 -3.18456,0.0278 -3.25045,-1.42679 5.27118,1.23081 1.8518,-5.78667 -3.50056,-3.49436 -6.71738,-0.0359 -11.09132,-2.25379 -11.56829,-5.99498 -2.31791,0.26713 6.40888,-10.81079 -0.81339,-3.76308 -7.72612,1.30737 -0.22731,10.40942 -1.57406,5.47563 6.64298,-0.19553 -5.02353,6.22383 -3.27732,-1.69085 4.81962,-5.7572 -2.2055,0.0269 -0.47232,-3.13573 5.07459,-0.67362 1.63985,-4.34145 5.00383,-3.64783 6.93588,-0.99251 0.35586,-2.88721 -4.70256,-3.02824 -4.28609,5.04599 4.85991,-1.60238 -0.0413,4.69997 -7.72495,-6.87569 4.92592,-5.16811 10.34976,-5.26996 -2.88585,-0.1732 -14.18089,-1.98651 -13.09378,-9.38496 -1.68813,-7.15575 7.82143,-16.14038 1.10071,-20.03805 3.52618,3.64927 -4.09623,4.19661 -0.76688,-1.79938 4.37936,-2.73603 5.40304,10.71536 5.75934,2.56522 3.55702,-9.56201 -1.01178,8.10026 1.85518,0.95446 9.6067,-9.17621 -4.95832,7.95131 -3.67212,8.4708 7.81069,-6.36878 18.63583,5.99566 9.45162,11.69128 -8.45487,4.62434 -7.93804,-10.9118 -1.69292,-5.84099 1.49054,-5.27842 -12.17239,-0.84346 -6.08645,4.96404 6.82829,4.18929 1.07596,4.43081 -0.60048,1.19373 -9.09983,-9.26368 13.17904,-14.45509 7.06106,-3.5233 -4.34623,-6.30516 -5.82856,6.15033 1.40405,1.76423 9.29368,-9.8178 -13.56147,-15.36424 -12.50931,-2.63601 -4.03304,6.63143 13.31151,13.51277 9.24801,8.27029 -0.0722,-5.96568 0.98951,1.3869 4.06642,0.80874 6.51537,-0.9736 10.31673,-9.94895 10.31513,-14.47354 0.48217,-6.09827 -1.35785,1.36346 -5.77432,-0.16536 5.80834,-5.40469 -0.25578,-13.87805 -7.19026,-14.61823 -6.91902,-0.94499 -14.60552,-4.0928 -20.05149,-8.962238 -2.42444,-3.01484 -3.64095,-11.20725 1.23403,-10.99623 2.60593,-5.3820103 -2.44416,-0.18119 -3.44526,-1.5658003 6.6521,-10.38956 -6.94614,8.0637803 -3.26957,-0.0837 -6.67587,5.7193503 -10.13723,-12.08569 -1.85209,-4.58319 -4.18149,6.6618503 0.24578,-4.15652 -4.22765,-0.0501 2.60662,7.9136903 8.77546,-2.26116 13.31237,-2.57607 z m 19.42466,60.6143883 c 0.48919,0.0293 0.80161,0.0266 0.70176,-0.0202 -0.21098,0.0127 -0.45936,0.0156 -0.70176,0.0202 z m -9.10436,-51.041848 c -0.0722,-0.29442 -0.22346,-0.56611 -0.48576,-0.79478 0.21202,0.26092 0.36688,0.52675 0.48576,0.79478 z m -63.91083,-9.3358603 c 7.72823,0.0169 15.50462,0.12266 23.13399,0.0444 3.85596,-0.16234 23.97791,0.0875 10.82776,0.98598 -1.52779,0.14657 -3.14243,-0.21834 -4.62659,0.33022 -16.8187,-0.95074 -34.97403,0.44125 -52.18079,-0.8723 7.43722,-0.43328 15.11741,-0.50521 22.84563,-0.48834 z m 76.37415,0.0744 c 6.61298,0.12969 13.2678,7.5203803 5.14853,13.1929903 -8.08523,5.9453 -8.21787,-11.9268403 -2.02727,-4.57078 -3.79292,-0.31803 -4.33677,4.53741 1.14412,3.58325 10.35874,-6.1032103 -8.69228,-18.0167103 -9.5989,-5.1407803 1.29725,8.5885403 -2.87426,-5.3135 -3.78582,-0.28267 -5.28686,-1.77198 3.35184,-2.75467 2.26343,-3.06079 1.68706,-2.7107 4.26823,-3.77197 6.85591,-3.72122 z m -71.14656,2.13837 c 8.92147,0.0236 17.84714,0.13064 26.75961,0.0724 13.7997,0.43417 -4.50767,1.24095 -8.69508,0.86609 -14.90957,-0.19573 -29.94331,0.63688 -44.79985,-0.50849 8.89648,-0.39353 17.81385,-0.45356 26.73532,-0.42995 z m 3.48247,3.11971 c 4.08265,0.004 8.15787,0.63325 11.99307,2.0065903 6.46478,1.61476 12.29945,5.60981 16.33802,10.65827 14.42435,15.088898 12.89106,41.869248 -3.56619,54.928938 -2.81675,3.29446 -18.8186,11.21776 -15.32309,5.8198 7.83347,-1.51214 15.82017,-7.12434 19.6789,-13.47618 6.56211,-7.4882 8.52506,-18.61313 6.7417,-28.35744 -1.33287,-7.79191 -5.4433,-13.68772 -9.93014,-18.937338 -6.93654,-6.42722 -15.17107,-10.39905 -24.91011,-10.8215703 -6.81758,-0.75645 -13.82663,2.0601403 -18.55855,4.2555603 -14.30536,6.75427 -22.69317,24.004638 -19.20297,39.627548 2.24203,7.79795 4.66198,12.88317 11.18692,19.38073 6.11301,8.0531 21.36547,9.22215 27.24175,10.45104 -0.28808,0.37456 -0.57561,0.74971 -0.86352,1.12448 -9.87011,0.0433 -20.36292,-3.12615 -27.39626,-10.14201 -13.84657,-11.60847 -16.80416,-33.73187 -6.66316,-48.67714 3.49147,-5.846598 8.3091,-10.306008 13.83844,-13.188338 5.76638,-2.9256803 12.59079,-4.6588403 19.39519,-4.6529403 z m -0.9989,2.6680503 c 6.88334,-0.0507 13.94361,2.32402 19.46444,4.93613 4.86949,2.91439 9.64367,8.01458 12.91808,14.125238 9.43724,16.62142 2.29102,39.73467 -14.90245,48.12523 -13.89072,5.71454 4.08874,-2.85067 5.77794,-4.83588 14.80857,-11.60058 16.52518,-35.48422 3.98942,-49.308098 -5.55577,-6.14987 -12.63489,-9.97484 -20.86849,-11.66079 -19.33242,-3.7406903 -39.89021,11.57301 -40.85074,31.403248 -1.70802,15.96976 9.84067,32.30898 25.49354,36.15748 6.25565,2.4614 12.25999,2.90988 15.1014,-3.64939 6.87521,-7.43288 7.66388,5.08678 1.5136,7.70703 -4.51718,1.21682 7.64369,-7.78771 2.28048,-8.94985 -4.94368,7.1396 -13.2217,9.36147 -21.73252,4.99763 -5.39909,-1.91955 -8.94213,-3.81989 -12.50105,-7.59437 -8.68272,-8.25572 -12.88907,-20.61282 -10.55542,-32.39802 1.5303,-7.55828 4.55249,-14.10296 10.08052,-18.687748 5.27136,-5.84426 12.31162,-8.50826 20.07526,-9.91825 1.54852,-0.29689 3.12753,-0.43789 4.71599,-0.44959 z m 79.59514,0.20671 c -0.87081,3.23135 -5.44285,11.11585 -0.48369,13.52682 -4.32565,7.199708 -1.51673,-11.84948 -4.83484,-5.20485 -3.67223,3.53304 3.07334,10.853628 4.47052,11.810128 1.92072,9.21667 1.4596,19.42546 -1.19889,27.98899 -3.93125,-1.03964 2.3424,-9.85286 1.74821,-13.02194 -0.19711,-7.69431 -2.16387,-12.24489 -5.08341,-19.11977 -2.43335,-7.359178 -5.11123,-1.27659 -1.22369,2.64377 -2.45019,-1.75196 -3.33219,-4.13948 -5.19917,-2.48822 1.03839,-2.545518 -0.36712,-5.308878 -1.76113,-8.067728 2.6499,4.32076 6.94508,5.15976 3.47007,-1.55804 3.954,6.77569 6.69743,-5.897 10.09602,-6.50916 z m -124.42341,13.5139 c 0.14423,21.693528 0.16821,43.387898 0.23771,65.081818 h -5.2e-4 c 0.0307,12.084236 0.0539,24.168736 0.0579,36.253076 -0.35657,9.34192 0.74235,20.59465 -0.63769,28.71763 -0.56176,-33.40566 -0.36989,-66.824566 -0.5271,-100.235736 0.44158,-9.85668 -1.02144,-20.44002 0.86972,-29.816788 z m 91.06473,0.16226 c 0.53033,43.309048 0.61414,86.635234 0.25528,129.946074 l -0.48989,0.27802 c -0.40869,-34.30724 -0.0998,-68.621636 -0.32298,-102.931186 0.3735,-8.92182 -1.02455,-19.33052 0.55759,-27.292908 z m -93.30697,1.508958 c 0.46726,41.59318 0.10454,83.210446 0.26045,124.812526 0.79654,-1.90796 -0.031,3.6675 -0.68782,2.01383 -0.34719,-32.7482 -0.27738,-65.500766 -0.35398,-98.250846 0.33603,-9.4346 -0.74271,-19.6792 0.78135,-28.57551 z m 95.90009,0.72295 c 0.16677,21.18055 0.0741,42.36271 0.078,63.54392 -0.0975,20.703746 0.0937,41.415746 -0.31471,62.116106 -1.18483,-4.63214 -0.20922,-15.63329 -0.97513,-22.53868 0.36285,-9.87197 0.44677,-21.17919 0.0248,-30.823946 0.25045,-8.43083 0.3844,-18.54135 0.22375,-27.59574 -0.7293,-7.57913 0.89157,-16.03535 -0.46353,-23.61147 2.30016,-5.26939 -1.86903,-20.01057 1.42678,-21.09019 z m 1.92753,0.52245 c 0.48348,20.76912 0.23467,41.55532 0.34882,62.33108 0.005,4.6535 0.008,9.30727 0.0109,13.960896 -0.26926,16.09522 0.56192,32.63917 -0.50798,48.47095 -0.89721,-31.06901 -0.44431,-62.362936 -0.59118,-93.522456 0.39234,-10.19546 -0.73245,-22.13276 0.73949,-31.24047 z m -100.00734,0.46302 c 0.62185,39.04161 0.33352,78.100726 0.32092,117.150986 -0.45916,1.37142 0.89855,6.93113 -0.88315,6.76858 -0.28502,-13.33218 -0.12281,-26.6698 -0.20361,-40.00428 0.0202,-8.14573 -0.42986,-15.508556 -0.23719,-22.657526 0.28819,-2.87798 -0.40564,-6.25579 0.26458,-9.01185 -0.84587,-6.57943 0.3644,-16.35506 -0.0233,-24.60057 0.3794,-8.81022 -0.55622,-20.51206 0.76171,-27.64534 z m 115.13768,6.1159 c 0.70891,3.72557 -2.52917,5.86963 3.5817,3.6804 8.17472,3.75013 -8.26696,0.16896 -0.13953,5.75469 -5.81987,0.61922 -9.1169,-5.28038 -3.44217,-9.43509 z m -130.85971,0.51574 c 1.75843,-0.008 5.79113,8.76657 -2.01022,8.59999 -5.25692,2.34328 6.41729,-6.59633 -1.65933,-3.44062 -8.07055,-3.06821 8.55272,-0.18782 2.98897,-3.53363 -0.01,-1.15488 0.27478,-1.624 0.68058,-1.62574 z m 30.67513,29.57648 c -0.5722,6.58015 -6.55236,13.02173 -6.53966,20.46646 -1.90146,10.40535 2.47833,20.845356 6.83215,29.630746 l -0.6196,0.7493 c -11.33892,-14.43079 -11.1697,-36.583106 0.32711,-50.846506 z m 69.69859,1.47123 c 1.14392,0.24121 6.63477,6.56642 7.00009,10.70736 3.00501,11.44407 2.09633,25.842346 -5.06119,36.351266 -6.82565,5.83577 5.99428,-12.55032 4.38578,-16.468756 1.47747,-9.95704 -0.42915,-19.01714 -5.10305,-27.58282 -1.45098,-2.26435 -1.66926,-3.10143 -1.22163,-3.00705 z m -1.31569,1.58285 c 9.25638,12.19199 9.28095,30.57935 1.20096,43.609226 l -1.05161,1.53737 c 2.63641,-6.70906 6.39007,-13.964096 6.07302,-21.806416 0.729,-8.34557 -2.98177,-16.14509 -6.22237,-23.34018 z m -66.64554,0.47646 c -8.38393,12.28662 -9.05436,30.14393 -0.70022,42.899706 2.34716,1.74716 -0.32324,1.89925 -0.48989,0.83509 -4.1431,-7.15412 -7.1126,-14.713816 -6.29316,-22.763986 0.22066,-8.22237 2.2634,-16.09305 7.48327,-20.97081 z m 68.06096,5.19348 c -2.65473,4.86185 -16.03771,7.32195 -22.51904,11.43186 -11.97573,5.30183 5.25111,-1.04371 9.13536,-2.20968 2.41177,-0.67884 19.91664,-7.40501 13.20746,-3.05356 -7.5564,2.45791 -16.90936,4.97044 -25.04498,7.80055 -0.70054,0.90853 18.24088,-3.44195 24.95507,-4.69067 8.67865,-1.59318 -1.21289,1.52257 -3.67316,3.14451 -5.86639,-1.19995 -15.47634,2.51097 -22.97069,3.28197 10.06617,-0.3817 20.58491,-1.65423 30.80019,-1.77921 -5.50412,3.24027 -17.13165,1.07027 -24.89771,2.28978 -9.59639,0.12718 -2.58963,1.10252 2.7218,1.17822 5.74493,1.29027 20.88581,-0.52218 21.03437,2.76831 -7.55273,-0.015 -16.11265,-1.9027 -24.26674,-2.12339 -11.62617,-1.44793 4.10168,2.71413 7.41402,1.87379 2.72158,2.69961 19.89906,2.49125 15.39751,5.24981 -8.34199,-2.40599 -15.92841,-2.9728 -23.79958,-5.52525 -8.01019,-2.04387 -2.63027,0.19599 1.76578,1.38442 6.47437,1.24557 11.70314,4.15141 18.93425,6.12365 10.35097,5.310496 -6.74951,-0.60472 -9.8118,-1.97817 -3.66687,-1.16229 -22.38011,-8.11118 -11.38587,-3.23495 7.7337,3.4703 17.05992,6.656476 23.34276,11.569836 -8.71342,-2.81175 -17.72882,-8.391676 -26.68209,-12.328446 0.73737,0.93412 -8.0229,0.75405 -3.98426,-3.30987 -0.18557,-0.16531 -0.33242,-0.33115 -0.46302,-0.49661 -0.17187,0.94519 -0.81664,2.01093 -2.14457,3.15743 -1.54937,0.89745 -3.7916,0.15643 -5.01261,-0.59893 -0.55954,-0.9453 -0.90944,-1.7711 -1.10846,-2.50011 -1.1181,2.79496 -3.56902,5.36061 -4.03232,3.96048 -3.26012,0.63019 -16.91501,7.840416 -24.19852,11.127486 -9.8997,3.59076 7.72088,-5.25932 9.69192,-6.096776 1.89209,-0.6332 19.25996,-7.91422 10.34459,-5.01572 -8.0633,1.63792 -17.72949,7.669596 -24.91218,7.041426 8.23933,-2.993316 16.66652,-5.197656 25.00158,-7.925606 9.20393,-2.78041 -1.27876,-0.62386 -5.08445,0.2651 -5.9948,-0.25357 -18.55962,6.834836 -21.05918,2.57917 9.01351,-1.14136 19.85619,-3.40531 29.53153,-5.11183 -3.40874,-0.55238 -17.31856,1.03884 -24.51891,1.39319 -13.5868,-0.0425 5.01569,-2.47923 9.43766,-1.81642 3.16442,-0.16707 20.38987,-0.41634 12.1729,-1.29502 -8.63775,-0.16375 -17.14753,-1.12221 -26.34464,-1.7141 0.60081,-2.94084 13.3121,0.57875 18.22059,0.22892 2.91542,-0.96648 11.28752,1.98143 10.70477,0.4129 -8.77299,-2.93982 -22.67759,-2.74997 -28.59928,-7.04453 9.97414,1.73738 19.80881,4.55941 29.79249,6.39702 -8.57405,-3.50092 -18.85351,-5.97421 -27.98279,-9.37152 2.47249,-2.36273 16.98936,5.34289 23.97063,6.96288 10.69979,3.76092 -2.74249,-2.04825 -6.29935,-3.63492 -3.86304,-2.38655 -18.13255,-6.54281 -15.41043,-8.40672 8.26228,4.00871 16.76161,7.85953 24.8791,11.97395 0.15906,-0.35588 4.14395,-1.18296 5.08186,1.49035 0.0448,0.12847 0.0649,0.2692 0.0915,0.40669 1.66141,-1.81112 5.90949,-1.08019 7.35149,1.06712 0.91925,-2.86748 7.34532,-4.81994 3.25148,-2.16886 9.47207,-4.11361 18.54873,-8.97852 27.974,-13.12995 z m -31.22548,15.29881 c -0.21037,0.65621 -0.12355,1.36027 0.43511,2.06809 0.14184,-0.78001 -0.0386,-1.47759 -0.43511,-2.06809 z m -7.35149,-1.06712 c -0.62595,0.68235 -0.87952,1.72671 -0.47904,3.1936 0.44349,-1.10862 0.66216,-2.24602 0.47904,-3.1936 z m -5.17333,-1.89704 c -0.0257,0.0575 0.0384,0.10379 0.24185,0.11989 -0.0798,-0.0405 -0.16199,-0.0794 -0.24185,-0.11989 z m 17.40721,8.83873 c -0.11819,-0.14972 -0.4714,-0.3268 -1.16996,-0.52244 0.38964,0.16477 0.78004,0.351 1.16996,0.52244 z m 50.29202,-15.89928 c 0.73683,-0.009 1.4651,0.14007 2.14922,0.48317 7.80026,1.74112 12.50424,4.99301 17.96945,10.48825 -3.21666,5.78241 -12.56231,10.64083 -19.57245,12.022516 -2.40371,-0.86626 -7.54528,-1.881006 -7.37371,-4.722186 -4.27254,-8.35325 10.67134,-7.14872 4.74028,-0.66818 7.39145,3.94466 13.4215,-4.49587 17.07338,-5.60482 -2.32315,-3.83142 -7.26495,-6.63751 -10.02627,-1.74098 -1.18253,-1.61555 5.78984,-5.28048 -1.81125,-5.6348 -9.10914,-2.68244 -0.23753,6.33978 -7.95921,6.84868 -5.94104,-3.57544 -0.34725,-11.40813 4.81056,-11.47165 z m -119.2289,0.894 c 6.05525,0.13968 10.89452,3.38404 6.50451,10.13065 -8.28016,2.00561 -0.30156,-7.44939 -5.51284,-6.25699 -3.67837,-1.33472 -17.2462,4.64386 -13.23175,8.18038 3.1632,2.95775 16.40382,9.074346 14.53089,3.03651 -0.0181,-10.76764 12.63549,2.96855 2.41588,5.79396 -6.34117,2.074856 -11.53217,-0.32403 -16.2109,-3.92844 -7.2556,-2.69142 -9.60065,-8.21811 -1.06195,-11.83545 2.41102,-3.45985 7.85652,-5.22926 12.56616,-5.12062 z m -0.22841,1.1591 c -6.32456,0.16439 -11.61391,5.38577 -16.43104,8.97982 1.32095,4.56386 9.9459,8.09474 15.07247,10.03556 4.26844,1.085336 10.93972,-2.32049 8.03465,-7.3794 1.21275,8.558346 -12.15363,7.07298 -16.69304,2.15026 -11.45591,-3.47554 1.29925,-10.82006 7.44502,-12.42095 5.23354,-4.59877 12.08897,7.76283 6.62492,4.15065 -1.81939,5.12976 8.25234,-1.32434 0.49765,-4.73924 -1.57672,-0.58281 -3.09112,-0.81463 -4.55063,-0.7767 z m 121.90316,0.2372 c -5.43859,-0.1586 -10.42262,2.28625 -5.98982,7.83518 4.36573,-5.1085 -2.43897,2.08689 -1.30586,-4.96197 4.96249,-4.18413 10.82397,-2.12831 15.7272,1.53427 15.07796,5.09441 -10.38685,19.465646 -15.41559,10.09137 2.46541,-9.24171 -5.12237,3.6901 3.24941,4.16254 5.64017,1.020746 10.68022,-2.40625 15.13913,-5.34386 9.17417,-3.83197 -0.46459,-8.10555 -3.06028,-10.32857 -1.6543,-1.86117 -5.08104,-2.89381 -8.34419,-2.98896 z m -128.61541,7.24038 c 1.13462,0.0269 2.3951,0.41794 3.62148,1.37408 11.77232,0.61623 -3.53416,1.57667 -6.1128,2.78381 -3.18312,-1.04256 -0.91255,-4.23854 2.49132,-4.15789 z m 67.20468,0.0517 c -2.18896,-0.0102 -4.24102,1.52923 -0.65061,4.72942 l 1.09141,0.0801 1.03043,-0.24184 c 3.04345,-2.99812 0.71773,-4.5575 -1.47123,-4.56768 z m 68.14882,0.29042 c 2.35633,0.0541 3.82122,0.81066 1.9792,3.01377 -2.86741,1.95172 -6.48691,-2.02308 -10.00765,-0.8816 -2.30218,-0.36231 4.10121,-2.22237 8.02845,-2.13217 z m -65.70349,6.66523 c 18.64946,0.4004 35.38935,16.635006 36.37814,35.428316 2.11233,20.65233 -15.4115,40.13798 -35.98385,41.02334 -6.78503,1.07978 -15.16154,-1.50684 -21.5408,-4.85552 -6.41795,-3.68546 -12.20991,-8.60018 -14.76603,-14.45441 -7.75516,-12.7409 -6.56751,-29.48735 1.83658,-41.56491 5.18111,-6.67678 10.22645,-10.18616 18.78439,-13.521136 9.99047,-3.3268 0.56636,2.36728 -3.73104,3.445786 -19.22439,8.71318 -26.45199,35.21883 -14.34951,52.45778 6.6496,9.60643 17.56461,16.45481 29.6354,16.72921 8.64875,0.61263 17.48355,-2.77301 24.05796,-7.49928 3.18854,-3.31025 9.1704,-7.22195 10.03918,-12.78992 2.88037,-3.1402 4.41934,-11.23944 4.32945,-16.96382 -0.33061,-6.90572 -2.21913,-13.37414 -5.91902,-18.60714 -2.66029,-5.3417 -7.33524,-8.81581 -11.51609,-11.48663 -5.09857,-5.710366 -18.13661,-4.157716 -21.00647,-7.206796 1.25617,-0.11799 2.50841,-0.16157 3.75171,-0.13487 z m 74.83161,0.14159 c 1.96589,-0.0114 4.84214,5.970776 -1.22525,6.524146 -2.33563,0.43603 -7.11259,15.41685 1.02475,13.67978 3.34735,-7.18005 -3.77665,2.31694 -2.13941,-4.66638 7.49524,-2.24615 3.96666,10.63823 -2.73575,4.79041 -0.42755,-5.25675 -1.86041,-5.34516 -5.94072,-7.65948 -3.38473,-7.746206 9.27878,-2.32982 1.4335,-2.29392 0.22694,8.51311 10.38858,-2.60173 2.39262,-3.63337 -10.26332,-2.311956 -7.95317,12.83015 -0.91415,16.10134 4.44307,6.02793 2.42841,0.31227 6.49366,0.13901 -3.89606,4.58255 4.29703,11.25001 2.33835,17.57826 2.07249,5.98699 -10.68592,12.64097 -8.59947,12.26592 9.04773,-2.53196 2.47258,2.4971 -3.23753,1.52962 -9.44531,0.53236 1.57703,0.0816 -0.0982,5.50664 -3.47745,-7.17972 -19.53347,0.99378 -16.87804,10.29963 4.19525,7.55707 1.54402,-6.01952 6.05545,-0.74208 -0.43049,9.66235 3.11024,-3.8128 -2.45102,-3.8933 0.0189,-5.48501 4.5626,2.55513 6.66471,0.001 4.96105,-5.19274 6.84283,-1.5993 1.95802,2.59157 4.75664,-1.89932 5.0618,7.54478 1.60145,2.35954 -3.46824,1.86154 -11.74093,5.7864 -15.45745,10.26449 -0.66584,3.14806 -4.71923,1.23417 -6.09937,-0.19482 -1.24155,-7.26709 -13.91469,-2.97913 -6.83627,0.0145 -1.54373,-2.64493 1.45791,-5.41436 1.85053,-0.34261 -8.58872,5.42987 -5.94476,-11.39766 2.43499,-4.8209 -6.87321,-9.02769 3.33971,0.73384 4.62453,2.53422 -3.76171,-7.47869 0.65468,0.0104 2.56211,-2.85668 -8.92328,-4.3582 -2.29719,-15.93603 6.00687,-18.19889 6.38504,-3.48989 12.79622,-2.74137 18.48001,-6.9174 7.71438,-2.1652 -2.07521,-12.34825 2.43965,-11.90212 7.88864,9.68309 2.81213,-10.09956 -2.4443,-12.22716 -3.1868,-5.32676 -10.05655,4.91902 -7.79281,-1.4087 -1.97658,-6.05025 -17.00729,9.48319 -6.33914,14.95206 9.12126,7.96889 17.42822,-12.28089 4.26795,-8.70696 -3.44269,7.10134 7.86972,-1.84974 4.63021,5.9092 -7.84738,7.87146 -14.68427,-8.76248 -4.31033,-10.32237 -7.50148,1.96451 -2.47361,16.9225 3.48919,8.60464 -7.64665,4.56511 -7.88181,-8.59421 0.13953,-6.55412 10.40539,3.99337 0.26377,18.92063 -8.49767,12.34033 -1.86969,-0.45581 12.47923,17.38006 4.41368,8.97568 -5.0328,-9.09847 1.70433,9.39922 -2.20348,1.28054 -2.78359,-9.63071 0.6853,0.35014 -4.5651,2.30271 -4.69348,-1.73896 0.41622,-8.88286 -0.37207,-3.58376 0.46867,4.92195 4.41074,-6.15373 0.56844,-8.87646 -6.39532,-8.79516 1.60678,-22.83757 12.87415,-18.22732 -3.7455,-5.16197 -14.275,4.23601 -14.99495,-3.12539 2.58835,-7.48183 5.16211,3.70127 2.65669,-1.1405 -6.61421,4.96205 17.59095,1.32067 3.82044,-0.87074 0.86485,0.72124 -7.22008,-5.27945 -2.58434,-3.67782 -4.33986,-3.00825 5.04091,-12.459766 3.42046,-3.46593 -1.06562,-5.633506 -5.66905,1.21003 -0.33693,4.31136 5.28921,6.142 4.37452,0.77361 1.02578,-2.7528 0.78869,-1.81056 1.89922,-5.63027 7.28121,-6.46421 4.27914,3.16338 16.37407,-4.136786 8.80721,-2.898006 0.0881,-1.75882 0.6423,-2.42862 1.2976,-2.43241 z m -33.74006,77.933226 c 0.0586,0.11649 0.0784,0.1624 0.14108,0.28628 0.0317,-0.0241 -0.0343,-0.1367 -0.14108,-0.28628 z M -619.99938,94.870604 c 1.97935,-0.0235 4.56277,2.18744 0.43202,1.62161 -2.52977,5.771766 10.69911,1.67088 14.02292,5.240496 3.79701,-2.585856 -0.12902,5.48502 4.13721,3.82819 -0.64035,1.16692 -6.938,11.4233 0.0506,4.15841 7.32253,-1.57582 -0.44041,-11.464446 1.06816,-4.77439 -6.06232,-5.278126 9.63007,-3.2493 2.27221,3.66489 4.30437,-2.59477 1.23636,1.97069 -1.50068,1.71669 1.21956,3.35716 -1.67294,0.87689 -5.07721,3.58945 2.02456,0.4255 8.68893,3.85556 9.62835,-0.32815 -1.00698,-0.77785 -5.32275,2.17158 -1.10278,-2.06757 6.78284,4.8165 -4.45744,6.96764 -8.12715,4.21525 -10.78638,2.76025 5.62016,-1.32671 7.52822,3.92275 9.26695,7.02755 -5.99682,21.24952 1.73375,25.80205 -2.94848,-1.55873 2.48014,-5.85102 1.75545,-0.0672 -5.55717,8.35643 -5.26986,-9.95641 -6.48488,-1.28675 -4.12898,10.8171 0.9407,-5.58482 -1.9668,-0.71055 -6.48451,8.17655 -1.59271,-0.58596 1.24902,-4.13669 7.96183,-7.57083 -5.74991,1.17536 -9.2444,-5.68338 -8.37244,-9.12043 13.3664,-15.01004 7.75611,-3.78478 -6.98341,-1.44559 -3.72167,4.04217 1.53221,1.41955 6.64966,-4.46631 -5.70738,-9.91756 -0.9772,-9.58959 12.55699,5.65553 -6.33572,18.83834 -5.83427,6.39702 4.07841,2.73679 7.92526,-3.72065 0.71882,-3.27215 -11.16911,6.99587 9.35576,16.96653 11.25461,4.90513 4.7778,-7.64758 -14.23621,-17.51823 -9.05371,-7.95714 -3.50648,-7.05038 -14.75511,2.55731 -14.44201,10.38955 -0.95941,8.93245 1.63376,-1.40564 5.68182,0.93586 -7.83409,9.293 6.56775,16.30746 13.43484,16.30546 7.60992,0.76692 22.281,11.95458 13.301,18.27796 -3.00113,5.85493 1.37336,0.98429 2.86184,1.47329 -3.42359,9.88568 1.46707,-3.89109 4.30981,-1.72858 -2.64477,5.1202 3.74087,-1.65733 6.5996,4.28708 2.15409,9.23131 -11.09202,1.71226 -6.02082,1.50378 0.52348,-0.66511 0.92259,-1.07424 1.24333,-1.32136 -2.60544,0.88674 -6.31778,3.60335 -7.80727,4.963 l -1.77147,0.34055 -1.46555,-0.23461 c -2.39382,-7.23147 -11.15606,-4.34639 -14.02033,-11.50266 -3.18139,2.30756 -8.3415,-0.3743 -1.70119,-2.26911 0.69877,0.88286 -4.5219,-10.59393 0.24857,-4.24522 5.05514,6.53975 4.90324,-3.98527 9.8242,0.45837 -4.57699,-0.40961 -2.99371,15.62117 -2.99671,4.99194 3.28364,-4.00418 2.3307,1.05608 3.92999,2.93471 9.03294,-6.42332 -9.12271,-21.74882 -13.91491,-12.89275 -2.38678,-5.48594 7.61719,-4.7421 13.6958,-0.35399 -4.91205,-4.0919 -12.78988,-5.15253 -18.98179,-5.2958 -6.91596,-1.01618 -3.20958,-2.63406 0.78032,-1.67225 -6.31417,-3.04253 -9.80624,-10.61185 -7.94008,-17.4594 4.98836,-3.96946 0.16166,-16.09517 4.56406,-9.04854 3.39903,-1.45728 8.48459,-7.35873 9.64799,-11.70781 4.421,-9.936746 -16.08535,-9.374716 -7.53959,-0.66249 5.78842,-0.2647 2.60356,-3.39172 0.26871,-3.95997 4.73144,-5.014796 6.39851,7.47696 -0.60771,6.02289 3.03742,10.57729 -15.77655,4.81035 -5.40794,0.0693 4.40039,2.93 -0.38172,3.62397 -1.1591,1.51773 -0.28681,7.98699 9.88994,-0.66373 3.82509,-5.33714 2.27234,-6.823706 -2.69861,-3.45485 -5.54023,-8.065136 -0.82825,-2.70529 0.14151,-3.52366 1.32911,-3.53777 z m 8.55969,52.168386 c 0.73782,0.35553 1.50501,0.66369 2.31614,0.88677 -0.73037,-0.41651 -1.52837,-0.69687 -2.31614,-0.88677 z m 18.20147,6.96805 c 2.16882,1.8067 3.76205,4.20195 4.37234,7.37423 0.0923,-2.98779 -1.78752,-5.50826 -4.37234,-7.37423 z m 15.97887,17.80977 c 0.28982,-0.0986 0.56195,-0.17104 0.81959,-0.21963 -0.17907,-0.1245 -0.44195,-0.0713 -0.81959,0.21963 z m 0.81959,-0.21963 c 0.74645,0.51901 0.15806,3.87179 1.45986,3.64681 1.11338,-3.15431 0.20496,-3.96078 -1.45986,-3.64681 z m 27.92491,-76.111106 c 0.37333,-0.10775 0.29739,0.40959 -0.59273,1.88464 -5.89659,3.903356 -1.84736,10.823696 2.19883,3.324336 6.46639,-7.912106 1.02653,1.74792 -2.10684,4.27674 -11.17362,3.18074 -1.11701,-9.018816 0.50074,-9.485716 z m 9.61388,2.019 c 4.94679,0.0209 12.71596,2.27302 16.61863,5.417236 17.04025,10.37319 21.83665,35.60559 9.26558,51.2439 -5.63189,7.95756 -15.63494,12.7771 -24.50703,14.2291 -6.27046,0.56355 -17.34848,-0.88592 -23.59908,-5.56968 -7.66078,-5.20052 -13.58609,-11.72251 -15.58302,-20.56722 -1.64362,-6.08435 -2.05023,-14.55869 0.55707,-20.84783 2.79654,-10.35993 14.60101,-21.00316 23.15052,-21.771276 -11.41116,3.934586 -20.74785,13.699246 -23.2947,25.610316 -4.99975,19.64069 10.87918,40.61293 30.85186,42.13025 7.5062,1.03275 16.85471,-1.22248 22.16558,-5.39089 9.79896,-5.01049 15.7536,-16.13044 16.43103,-26.94822 1.76955,-19.48412 -15.59212,-37.306136 -34.94773,-37.177576 0.75879,-0.24933 1.74973,-0.36293 2.89129,-0.35811 z m 73.22499,23.424916 c 1.57682,2.58815 4.70672,11.63117 3.52796,17.33228 -0.34238,9.31385 -3.52843,11.54486 -7.27605,19.74453 5.54332,10.27821 0.60733,-5.74278 6.00739,-4.44056 -3.99879,4.1649 -0.0534,11.15531 0.39791,15.27917 -1.35978,-0.21804 -2.81423,-5.14906 -4.40335,-6.26576 -1.54933,-6.76044 -7.3474,2.8205 -4.53874,-3.6127 2.35919,-8.19236 -8.30178,8.37997 -4.68706,1.10432 6.50098,-2.32814 -1.49166,-10.71668 1.37925,-9.73997 1.12642,8.47265 8.15852,-5.38129 4.69532,1.9482 -2.4914,8.89899 4.0117,-2.30545 5.02398,-5.69009 5.17213,-8.40138 0.46163,-17.73495 -0.12661,-25.65942 z m -152.81909,0.58188 c 0.29389,-0.0728 0.46119,0.64178 0.40152,2.53163 -5.0489,9.63044 -1.66164,20.53764 3.13004,29.50672 5.75996,8.19989 -1.64032,-6.64205 2.15646,-2.70009 2.23176,4.81859 2.51668,-0.92119 5.68492,-0.91519 -3.83061,2.28524 -1.39953,7.61103 0.0786,11.23291 -2.19901,-4.54686 -7.86187,-5.99224 -3.82044,0.30282 -2.94232,-3.7235 -5.51481,0.89539 -7.83053,4.67982 -1.18205,2.17318 -2.877,4.38005 -2.21536,0.0713 5.31974,-2.60097 0.2421,-11.70187 1.32343,-13.09842 4.55301,1.36392 -7.1e-4,14.71241 5.16661,4.69945 -4.41879,-8.4104 -7.00469,-12.67283 -7.49825,-23.06112 -0.29128,-2.6862 2.37341,-12.98997 3.42305,-13.24984 z m 145.3348,13.87305 c -3.07467,3.71118 -2.41711,4.78231 2.88923,4.23179 -2.36652,5.04235 -9.91247,-2.43384 -5.60638,5.25807 -5.14413,-0.485 -4.6832,-8.63334 2.71715,-9.48986 z m -137.07226,1.0604 c 1.78904,-0.19489 10.36629,3.6806 3.38429,8.17522 h -5.2e-4 l -0.51469,0.72915 c -0.92449,-3.50709 2.63299,-5.94138 -3.45561,-3.66696 -8.27305,-3.3124 4.28258,-1.2125 1.88774,-3.55792 -1.73971,-1.09732 -1.89755,-1.61452 -1.30121,-1.67949 z m -3.40961,26.25628 c 1.41167,-0.0648 3.13396,0.84116 5.08186,3.23701 0.26276,8.06598 -8.40513,-0.56302 -1.44849,1.4087 -2.35256,-10.706 -13.48256,7.19129 -1.97559,7.78609 8.07566,3.15514 6.61343,-9.46216 8.32456,-7.71994 2.55967,8.06329 1.6857,-1.28151 4.49585,3.34708 -3.80051,1.95648 -4.55387,1.58823 -8.49974,5.20279 -12.3875,5.52601 -12.09569,-12.98108 -5.97845,-13.26173 z m 141.93863,0.14005 c 4.50017,-0.18466 11.74937,9.5849 2.47633,13.02659 -2.25048,1.02163 -4.89579,0.86764 -7.13341,-0.0744 -1.736,-5.52218 -9.65063,-0.62469 -7.99538,-6.00842 2.87758,1.84573 3.44617,0.51466 5.18418,-3.36414 -3.22639,8.88255 12.72073,12.76713 12.86846,2.57969 1.28571,-8.65406 -12.74927,-2.11001 -4.95112,-2.35231 3.98309,-4.86563 1.08872,5.59725 -3.31452,1.95802 -0.2356,-4.09619 1.10452,-5.69277 2.86546,-5.76502 z m -69.91925,10.49858 c 9.94495,-0.0319 19.8831,0.0486 29.77131,0.48576 -9.78181,0.87868 -19.76575,0.25437 -29.61525,0.48989 -9.72934,-0.4328 -21.28456,0.8462 -29.9682,-0.78858 9.91536,-0.011 19.86718,-0.15521 29.81214,-0.18707 z m -55.61883,0.36949 c 4.41461,-0.19792 8.25509,4.83044 11.71763,5.52111 -1.54368,4.38979 -0.81808,0.12605 3.82251,2.15232 -6.27618,-1.52735 1.98862,6.62925 3.18585,-0.28629 4.27155,-0.60116 15.25384,-3.05918 19.82049,3.58686 4.34354,6.49549 2.73204,0.70122 5.80998,-3.05511 5.59831,-8.42078 15.78451,7.01015 4.68034,4.98574 -6.93137,-1.53026 4.71787,23.81995 10.86032,11.78223 3.71811,-2.65738 6.296,-16.75133 1.10587,-11.09131 -12.31499,-2.71117 5.82438,-12.02156 7.27915,-3.52899 0.2977,11.02516 6.73585,-5.87153 13.33458,-3.7238 6.95307,-3.15634 13.00902,7.11073 16.64447,1.97249 -8.53447,-2.09716 8.30426,-1.30978 2.40347,2.99775 2.9626,-3.96866 -7.99966,-0.49736 -3.24011,3.48971 1.16816,8.538 -1.30538,-2.15287 -3.99769,-3.73466 -3.99795,-3.24822 -9.42379,-5.10745 -15.84193,-2.33422 -9.48147,4.93997 -10.48589,17.36898 -19.31459,23.18101 -3.19757,4.40236 -6.49836,-1.49786 -9.12967,-3.34708 -5.71437,-3.9815 -5.44553,-11.43587 -11.24324,-16.58142 -6.60957,-6.79572 -18.81452,-6.11472 -23.15828,3.05201 -4.1954,8.77266 1.46188,-4.74776 -1.41438,-4.21628 -6.13316,-5.36807 -0.45705,3.86196 -4.62039,-1.37407 1.43181,-5.26088 -11.02466,-8.2651 -13.95006,-2.55644 3.75692,0.72709 4.60341,0.21219 5.18935,-1.39009 -0.22076,-2.44701 8.57662,0.65398 5.41673,2.05155 -1.16553,1.07703 -4.69939,2.48878 -3.72174,2.83859 -1.28449,6.49177 0.89176,0.23426 5.0369,0.60875 4.32303,2.06391 8.49825,11.16603 4.95784,10.98641 -2.19632,-7.73908 -5.71902,-8.49192 -12.1512,-6.45491 -5.89379,1.01117 -12.79019,-13.10461 -1.40973,-15.09933 0.65467,-0.26947 1.29687,-0.40426 1.92753,-0.43253 z m 110.81908,0.3607 c 5.12451,0.0338 10.06176,3.32857 7.80211,9.15861 -2.82054,6.75865 -3.4283,1.60947 -7.09828,6.11539 -5.31191,-0.62619 -9.43029,-2.89934 -11.5626,4.92011 -5.13236,3.42167 -0.30432,-1.86193 0.36277,-4.7873 -1.36052,-9.07674 11.34037,-1.19628 8.78086,-3.14968 1.92442,-4.79585 0.33599,-1.70364 -0.17002,-3.63595 -1.83862,0.34496 -3.92459,-1.81593 -3.98063,-2.99 5.20914,-2.48527 5.35334,-0.1191 6.97063,0.58808 0.99623,2.12329 1.11198,-1.7033 4.00957,0.78031 -3.6024,-3.99435 -7.52057,-4.38316 -13.80846,-0.7307 -3.80124,1.89772 -3.86819,-2.15568 0.78187,-2.65101 1.69543,-2.4844 4.83747,-3.63815 7.91218,-3.61786 z m -38.1801,1.32808 c 3.7677,0.14184 20.57202,-0.43442 9.91464,2.00298 -3.16364,-1.20906 -7.27692,-0.77173 -9.89501,-0.19844 0.18209,-0.78828 -2.26877,0.23355 -2.23707,-0.70021 -15.33628,-0.0805 -30.95892,0.46119 -46.13982,-0.42995 15.89791,-1.13846 32.27807,-0.10912 48.35726,-0.67438 z m 49.1293,1.34617 c 0.46613,10e-4 1.08026,0.21633 1.86604,0.76223 5.05187,-1.94393 13.88187,0.55854 4.69532,4.76508 0.58327,2.75569 -12.9391,0.7254 -7.20318,-0.0279 3.92066,3.90872 13.89237,-6.13616 5.67355,-0.34055 6.95731,-5.72259 -3.93113,1.93991 1.35031,-2.57607 -3.65876,1.64728 -3.12055,-0.48906 -5.95933,-0.0739 -1.67765,1.49244 -2.44262,-2.51517 -0.42271,-2.50889 z m -141.01724,0.28216 c 3.46815,0.0868 13.58786,0.492 8.59948,2.01228 -3.76994,0.4702 -3.55062,0.43501 -4.67,0.76274 -1.17623,-0.30862 0.80787,2.2055 -2.53628,-0.16226 0.71841,0.89924 4.33279,3.96881 -1.73529,-0.12144 1.17411,5.82938 17.36136,1.19814 6.51794,4.11964 v 5.2e-4 l -1.5875,0.35708 -1.94613,-1.22938 c -1.13032,0.20462 -8.56848,-4.43353 -2.64222,-5.73918 z m 101.26204,0.72295 c 5.45837,0.0171 10.89307,0.14219 16.26619,0.54157 l -2.31768,0.41806 c -27.7182,-0.17512 -55.50598,0.33784 -83.19958,-0.51418 13.94349,-0.76336 27.96252,-0.23029 41.93646,-0.39687 9.05442,0.19529 18.21733,-0.077 27.31461,-0.0486 z m -20.88451,3.14451 c -3.43926,0.0923 -3.63583,8.4713 0.0362,2.14819 9.82461,3.60565 1.12584,17.49924 -5.58829,20.65507 -6.53553,-3.14433 -16.11851,-17.25368 -5.63945,-20.65714 1.10009,5.10649 5.15408,0.97356 1.27951,-1.69137 -15.107,-0.37199 -4.63852,20.72982 3.87883,24.31273 4.80696,-1.48824 9.11218,-7.39997 11.1802,-12.31139 1.62899,-3.47255 2.2812,-10.87017 -2.90628,-11.50886 -0.85533,-0.69723 -1.60379,-0.96433 -2.24069,-0.94723 z m 72.11395,0.44028 c 4.40848,0.22962 -2.67891,7.84374 0.82372,1.94562 -7.8754,-2.67035 2.59033,11.36566 -1.67897,11.02879 0.91831,5.14326 4.46149,13.88856 -5.59966,12.70981 -1.75311,-3.61424 -8.41291,0.0708 -11.46958,-1.97765 -2.6983,3.20176 -4.93962,-3.69539 -0.84543,-1.49294 4.60309,-6.91098 13.61861,4.47524 11.47837,-5.20691 4.80127,-1.95146 5.90943,-4.75326 3.70365,-6.56239 5.44569,-0.96183 -5.32003,-11.48951 -1.35857,-4.56355 -7.15922,0.42978 1.1212,-4.02248 3.18482,-5.69216 0.72654,-0.15744 1.30559,-0.21237 1.76165,-0.18862 z m -154.09551,0.0579 c 1.03256,-0.0188 2.21733,0.5766 3.30574,2.30064 7.96187,0.50492 -1.85738,6.33338 1.38855,2.27789 1.09117,-4.36162 -7.75533,6.35278 -2.67478,5.67511 -4.50585,3.38688 6.5744,4.77172 3.88814,10.92336 2.78911,-0.94444 8.70054,-1.82623 12.75839,0.62891 5.19112,4.01981 -8.26589,0.5637 -13.56558,3.43131 -3.32652,1.47004 -7.6571,-1.21295 -7.5954,-4.90978 4.63013,-6.67075 -1.02716,-7.22346 2.17248,-12.14758 4.58987,-4.05956 -3.42934,-10.86023 -0.47078,-4.58886 -3.491,0.51576 -1.84553,-3.54305 0.79324,-3.591 z m 47.56144,0.91467 c 3.55396,-0.16531 8.52551,6.16895 10.10997,3.56103 5.08874,5.78429 7.95353,15.79149 12.2158,20.24062 -5.58308,0.95184 -5.05245,-13.39592 -13.01937,-13.89062 -6.61728,-1.38336 1.18119,-2.61401 -2.62671,-3.70417 -1.49951,-2.7864 -14.7211,-4.28243 -7.73183,-5.92987 0.332,-0.17331 0.68448,-0.25988 1.05214,-0.27699 z m 58.34631,0.70384 c 9.10523,-0.37766 -12.88682,5.67845 -7.04144,7.04866 -5.50217,3.06959 -11.85514,8.64222 -13.31184,16.24759 -1.32366,1.26889 -3.59913,-0.1987 -2.1575,-1.78904 4.04658,-2.36632 4.81649,-8.92363 8.64909,-14.12368 2.47992,-5.62506 5.55108,-4.32036 11.60859,-7.21869 0.9009,-0.0856 1.64608,-0.13967 2.2531,-0.16484 z m -29.96148,0.74982 c 0.41068,3.02059 3.09425,11.37459 1.8743,14.63735 -3.44593,3.51631 -2.13576,-0.0439 -4.10207,-0.91932 2.73437,-3.685 0.9083,-9.93361 2.22777,-13.71803 z m -63.01631,2.95228 c 1.68415,0.0931 2.68802,1.39145 0.68161,4.81159 l -1.54874,1.45107 c -8.04189,-2.22618 -2.34807,-6.44044 0.86713,-6.26266 z m 127.21394,0.22427 c 3.13613,-0.0886 7.68789,2.5834 2.16369,5.55315 l -1.55649,0.78238 -1.37563,-1.48724 c -2.86049,-3.43466 -1.37734,-4.78764 0.76843,-4.84829 z m -6.92981,3.20239 c 0.90865,-0.0352 6.84626,7.21854 1.9513,9.63611 -2.91622,1.54392 -6.1623,8.74157 -4.82451,0.64285 3.60128,-3.16455 -3.37723,-11.76107 1.45779,-9.42785 -1.18263,3.55304 3.03647,1.37708 0.85112,5.95054 4.24566,-4.83397 -2.9203,5.46489 1.7632,0.0393 -2.02883,3.61675 -2.87592,3.96215 0.93431,0.42529 -6.78588,7.20329 2.61742,1.88847 0.0605,-3.15071 -2.13496,-2.97232 -2.54923,-4.10176 -2.19367,-4.11551 z m -114.3646,0.0315 c 0.23884,0.0216 0.34616,0.42014 0.21653,1.32705 -7.58557,4.02343 6.77368,15.34712 -1.59215,6.01359 7.15854,8.01864 -2.89151,-5.59944 2.82825,-0.53123 -2.16558,-3.62642 0.39508,-1.55565 -0.14263,-3.41995 0.35907,-0.57749 1.01855,-1.2793 1.50172,-3.38894 2.61878,2.37873 -2.44906,8.37449 0.84129,12.62972 -0.0891,2.73345 -1.88732,-0.75441 -2.35179,-0.68781 -7.7105,-1.18223 -2.59094,-12.05889 -1.30122,-11.94243 z m 81.76659,3.26699 c -1.94432,9.90651 12.09608,9.48723 15.62024,2.25929 2.86251,0.85826 -7.1742,9.94459 -11.92693,4.97644 2.28865,3.93877 11.47632,1.82341 13.33201,-3.89175 2.94688,-0.20354 -6.84558,8.34105 -7.28173,10.17406 l -1.00976,0.15037 c 0.56485,-6.21989 -1.24144,-1.04679 -3.75584,-0.35708 1.85139,-8.15914 -3.37909,2.2631 -4.28656,-2.84996 -1.19044,-1.94681 -2.07473,-9.98826 -0.69143,-10.46137 z m -70.08875,0.17156 c 0.13155,0.0142 -0.2686,4.9602 1.94407,4.60489 6.98745,2.86972 -2.74862,0.9177 1.22215,6.48643 -0.39046,4.70415 -4.243,-2.23049 -3.34037,-3.4308 -7.50327,2.15927 -0.42719,-1.85194 -0.41289,-4.79868 0.40269,-2.11787 0.53557,-2.86739 0.58704,-2.86184 z m 21.89221,0.53382 c 0.53851,0.24269 1.00579,7.17239 -0.44442,8.26978 -0.52181,6.14231 -2.47139,1.0851 -5.52834,1.0604 3.05473,8.42792 -4.04173,-3.70631 -2.85823,2.8913 h -5.1e-4 l -0.44597,0.5581 -0.92811,0.0703 c -0.51606,-3.1628 -6.91319,-5.46513 -8.06463,-10.81587 2.7311,6.12227 14.43721,9.86817 17.71624,1.50275 0.12195,-2.70297 0.34325,-3.6317 0.55397,-3.53674 z m 69.86395,0.19792 c 0.41235,0.0325 0.36687,6.16749 4.28191,6.7784 -2.93949,1.84097 -4.95451,-1.01819 -5.93297,4.83278 -2.54339,2.3088 -1.38511,-4.20927 -0.35553,-4.89738 -6.13645,-1.14774 0.92774,-2.78138 1.04748,-3.25251 0.56632,-2.55267 0.79776,-3.47401 0.95911,-3.46129 z m -28.13265,0.33952 c 0.76886,0.13045 1.23181,1.41944 0.10904,1.92029 8.49781,2.59559 2.78874,1.78485 -2.23604,2.11098 -8.22719,1.38414 1.02127,12.57569 0.077,4.20543 -9.49146,3.21343 7.63754,-7.46396 5.15885,0.97875 -1.27187,-2.98134 -3.17191,-1.23644 -5.16144,2.98328 -6.88835,2.02735 -5.08217,-9.07417 0.30593,-9.48469 0.3658,-2.21592 1.14866,-2.81551 1.74666,-2.71404 z m -35.49912,0.40152 c 2.65214,-0.0198 9.66759,8.47001 5.31337,11.64839 -5.56248,4.3914 -4.5529,-10.08257 -7.78609,-3.40135 -3.15686,-0.99453 1.9198,-4.79591 5.09219,-1.77043 5.43232,2.95394 0.17765,0.0316 -1.03818,2.78433 6.25278,6.53053 4.25025,-10.23706 -3.39617,-5.7919 -8.94518,2.48002 5.39876,-3.59269 0.8692,-1.92598 -0.046,-1.08071 0.33364,-1.5385 0.94568,-1.54306 z m 94.24127,3.08043 c -0.86166,0.0508 -2.08696,1.13029 -3.61735,3.95583 5.00025,3.53132 -8.01516,0.34714 -0.0377,3.99201 5.55139,1.00536 6.24007,-8.10025 3.65508,-7.94784 z m -152.22585,0.1726 c -2.0977,0.0882 -3.71825,6.86351 1.46244,7.65897 1.59728,0.33087 3.43251,-0.1377 4.36563,-1.572 -4.0901,-1.332 -4.26658,-0.66463 -3.52537,-2.36006 -0.58802,-2.77238 -1.48186,-3.76144 -2.3027,-3.72691 z" /></g></g></svg>
