<?xml version="1.0" encoding="UTF-8" standalone="no"?>
<svg
   version="1.1"
   viewBox="-5 -10 80.182373 95.511459"
   id="svg5"
   sodipodi:docname="chicken.svg"
   inkscape:version="1.3.2 (091e20e, 2023-11-25, custom)"
   width="80.182373"
   height="95.511459"
   xmlns:inkscape="http://www.inkscape.org/namespaces/inkscape"
   xmlns:sodipodi="http://sodipodi.sourceforge.net/DTD/sodipodi-0.dtd"
   xmlns="http://www.w3.org/2000/svg"
   xmlns:svg="http://www.w3.org/2000/svg">
  <defs
     id="defs5" />
  <sodipodi:namedview
     id="namedview5"
     pagecolor="#000000"
     bordercolor="#000000"
     borderopacity="0.25"
     inkscape:showpageshadow="2"
     inkscape:pageopacity="0.0"
     inkscape:pagecheckerboard="0"
     inkscape:deskcolor="#d1d1d1"
     inkscape:zoom="8.7481481"
     inkscape:cx="40.122778"
     inkscape:cy="57.669348"
     inkscape:window-width="2560"
     inkscape:window-height="1377"
     inkscape:window-x="1912"
     inkscape:window-y="-8"
     inkscape:window-maximized="1"
     inkscape:current-layer="g4" />
  <g
     id="g4"
     transform="matrix(0.93537179,0,0,0.93537179,-11.686535,-9.0155598)">
    <g
       id="g1"
       transform="translate(-2.4622623,-2.9329897)">
      <path
         d="M 23.499115,35.851889 C 21.68793,35.52192 20.353358,34.649376 19.708082,32.940778 19.099467,31.327541 19.334113,29.72904 20.027051,28.19286 c -0.901923,0 -1.756184,-0.011 -2.610389,0 -0.395969,0.011 -0.78826,0.07333 -1.184211,0.08432 -0.890922,0.01833 -1.594841,-0.769929 -1.334571,-1.605822 0.740598,-2.375743 2.016452,-4.278627 4.608632,-4.993546 0.307968,-0.08432 0.535284,-0.469291 0.843261,-0.751599 -0.487622,-0.337308 -0.872592,-0.590284 -1.246533,-0.865261 -2.804769,-1.990829 -2.141096,-6.016507 0.799261,-7.094377 0.161323,-0.05499 0.289637,-0.271307 0.355638,-0.450961 0.139324,-0.4033 0.186985,-0.843261 0.329969,-1.246533 0.487622,-1.3968934 1.547161,-2.04583 2.947715,-1.6132369 0.975282,0.3006377 1.576538,0.2456461 2.273155,-0.6306154 0.82493,-1.0412645 1.972527,-1.154927 3.17138,-0.5242834 0.674607,0.3556387 1.257514,0.8835919 1.888148,1.3125152 0.131984,0.095322 0.337299,0.1979845 0.458292,0.1613237 1.671804,-0.4802919 2.984413,0.1393238 3.977998,1.4261778 1.077869,1.389573 1.070548,2.955036 0.458291,4.553631 -0.04766,0.113653 -0.09532,0.234646 -0.131983,0.307978 0.733268,0.685607 1.503235,1.312515 2.159493,2.038509 1.829486,2.016453 2.731465,4.487555 3.27406,7.105358 0.373969,1.811185 0.667277,3.640672 1.077869,5.444535 0.733269,3.237362 2.141097,5.198908 6.654369,5.93945 2.551821,0.421631 4.927564,-0.179654 7.244738,-1.125549 2.478424,-1.011887 4.927564,-2.075114 7.387685,-3.134681 0.179654,-0.07333 0.348299,-0.318968 0.42163,-0.516953 1.26859,-3.26674 2.533425,-6.522404 3.765315,-9.79975 0.205316,-0.535283 0.469292,-0.975282 0.901923,-1.371176 0.535283,-0.480292 0.986263,-1.041265 1.473857,-1.576539 2.815751,-3.07968 6.665445,-2.845034 9.499404,-0.975282 2.394138,1.576538 3.548971,3.893619 3.765315,6.702049 0.03666,0.535283 0.179654,0.835921 0.656276,1.143945 2.599407,1.671805 4.128266,4.043981 4.168625,7.178662 0.011,0.967867 0.245646,1.737881 0.703937,2.544406 1.191532,2.082529 1.653503,4.326307 1.052246,6.691068 -0.179654,0.703937 -0.505953,1.378591 -0.854261,2.027528 -0.197985,0.366629 -0.289637,0.692937 -0.216315,1.099926 0.685607,3.915676 -1.004566,6.925713 -3.670049,9.536007 -3.032094,2.955037 -6.672765,4.766221 -10.830315,5.517839 -0.450961,0.08432 -0.637946,0.282307 -0.78826,0.714938 -2.383157,6.749729 -6.588386,11.966939 -12.978732,15.336453 -0.307968,0.168654 -0.43263,0.348299 -0.43263,0.703938 0.01833,3.472008 0.011,6.936695 0.011,10.361023 0.439961,0.197984 0.883592,0.366629 1.286892,0.582944 1.715824,0.909253 3.424327,1.822166 5.132925,2.749768 0.82493,0.439961 1.088944,1.228231 0.674607,1.99083 -0.4033,0.751599 -1.202513,0.993584 -2.027528,0.564614 -1.275911,-0.667277 -2.526104,-1.360195 -3.791033,-2.04583 -0.168654,-0.09532 -0.348299,-0.179655 -0.582945,-0.289638 -0.348298,1.27591 -0.685607,2.49682 -1.011886,3.72505 -0.120993,0.469292 -0.223646,0.938584 -0.366639,1.407875 -0.245646,0.824931 -0.993585,1.22091 -1.822166,0.986264 -0.77726,-0.223646 -1.173229,-0.909253 -0.967867,-1.715825 0.384969,-1.510556 0.79926,-3.013697 1.22823,-4.645237 -0.39597,0.161324 -0.722268,0.263977 -1.022868,0.4143 -1.360196,0.685607 -2.71307,1.396894 -4.08434,2.082529 -0.282307,0.139324 -0.601275,0.252977 -0.920253,0.271307 -0.590285,0.03666 -1.125549,-0.384969 -1.305194,-0.938583 -0.197985,-0.637946 -0.011,-1.26859 0.524283,-1.624219 0.205315,-0.139323 0.432631,-0.252976 0.656276,-0.366629 1.726806,-0.883592 3.464687,-1.756184 5.191493,-2.647087 0.139324,-0.07333 0.282307,-0.282307 0.289638,-0.432631 0.011,-3.164059 0,-6.335438 0,-9.499403 0,-0.04766 -0.02933,-0.09532 -0.05499,-0.197985 -4.80658,1.503235 -9.668348,1.660823 -14.632516,0.608615 v 0.714938 c -0.03666,2.610388 -0.08432,5.21721 -0.09532,7.816617 0,0.667276 0.09532,1.22823 0.901922,1.605822 1.558236,0.722268 3.021112,1.653503 4.513272,2.515122 0.758929,0.439961 0.975282,1.246533 0.571945,1.99083 -0.39596,0.714937 -1.239212,0.956886 -2.009132,0.535283 -1.191532,-0.656276 -2.375742,-1.341893 -3.567368,-2.009132 -0.186984,-0.102662 -0.373969,-0.186984 -0.630615,-0.318968 -0.450961,1.653503 -0.890922,3.237362 -1.323591,4.824882 -0.271307,1.004566 -1.052246,1.473858 -1.932168,1.154927 -0.78826,-0.282307 -1.125549,-0.909252 -0.901922,-1.756183 0.373969,-1.407875 0.77726,-2.804769 1.162248,-4.205323 0.01833,-0.08432 0.03666,-0.161324 0.08432,-0.348299 -0.307968,0.113653 -0.535283,0.179654 -0.751599,0.289637 -1.53984,0.77726 -3.068698,1.569218 -4.619614,2.335477 -0.872591,0.432631 -1.737881,0.139324 -2.075114,-0.674606 -0.271307,-0.656277 -0.07333,-1.396894 0.571954,-1.726806 2.207173,-1.118229 4.439969,-2.207173 6.672766,-3.274061 0.366629,-0.168654 0.516953,-0.329968 0.516953,-0.733268 -0.011,-3.039415 -0.011,-6.08249 0.011,-9.121905 0,-0.38497 -0.197985,-0.480292 -0.480292,-0.582945 C 33.563228,75.79721 29.075485,72.343505 25.603665,67.592301 22.806217,63.764664 21.079411,59.475056 20.368153,54.800347 19.381889,48.277943 20.481806,42.06377 23.370869,36.161019 c 0.033,-0.09166 0.06966,-0.168654 0.128323,-0.307968 z m 59.336307,-6.991696 c -0.329968,0.674607 -0.571954,1.341893 -0.949565,1.913865 -1.011886,1.569218 -2.016452,3.145757 -3.153077,4.626935 -1.481178,1.94315 -3.087095,3.791033 -4.619614,5.697483 -0.740598,0.927584 -2.056812,0.590285 -2.412441,-0.348299 -0.234646,-0.608615 -0.03666,-1.107246 0.355639,-1.58752 1.653502,-2.016452 3.314326,-4.025678 4.909261,-6.089811 1.246532,-1.605822 2.449139,-3.248343 3.098076,-5.21721 0.890922,-2.713069 0.09532,-5.53614 -2.075114,-7.105358 -1.323591,-0.956886 -2.852449,-1.418857 -4.373987,-0.685607 -1.631539,0.78826 -2.845034,2.148511 -3.53799,3.838619 -1.239212,3.021112 -2.383157,6.08249 -3.548972,9.132886 -0.373969,0.986263 -0.938583,1.653502 -1.990829,2.064133 -2.610389,1.022868 -5.143907,2.214493 -7.732332,3.296023 -2.870752,1.191532 -5.818467,1.774486 -8.953242,1.173229 -4.421573,-0.84326 -7.453667,-3.182361 -8.494931,-7.695633 -0.458292,-1.990829 -0.78826,-4.018263 -1.202513,-6.016508 -0.4143,-2.027528 -1.070548,-3.959696 -2.430744,-5.576499 -1.858864,-2.207173 -4.234607,-3.285043 -7.105358,-2.929413 -2.760749,0.337308 -4.553631,2.04583 -5.734182,4.469253 -0.04766,0.09532 0.102663,0.384969 0.234646,0.469291 0.835921,0.535284 1.569218,1.209928 1.737881,2.177796 0.186985,1.052245 0.79926,1.624218 1.569218,2.243777 1.660823,1.352874 2.49682,3.116379 2.225475,5.323552 -0.139323,1.088944 -0.674607,1.990829 -1.246532,2.889053 -3.952282,6.196153 -5.330873,12.916786 -4.054963,20.160773 2.130116,12.128375 13.319438,22.639572 27.526776,21.425983 4.656219,-0.395969 8.813862,-1.979848 12.388363,-4.993545 3.736032,-3.134681 6.287758,-7.06866 7.688313,-11.732294 0.307968,-1.022868 0.938583,-1.521537 1.932167,-1.671804 0.337309,-0.05499 0.674607,-0.120993 1.004566,-0.186985 3.922998,-0.82493 7.340005,-2.581105 10.0053,-5.642482 0.920253,-1.052246 1.660823,-2.214494 2.009132,-3.585671 0.09532,-0.355638 0.09532,-0.740598 0.150323,-1.246532 -0.740598,0.42163 -1.341892,0.751599 -1.924847,1.107247 -2.075114,1.257514 -4.150322,2.526103 -6.214455,3.783617 -0.769929,0.469292 -1.642521,0.307968 -2.082529,-0.384969 -0.439961,-0.703938 -0.245646,-1.481179 0.524284,-1.990829 0.120993,-0.07333 0.245646,-0.150324 0.366629,-0.223646 2.636106,-1.569218 5.275872,-3.145756 7.93028,-4.703899 2.383157,-1.396894 3.285042,-4.44729 1.961451,-6.955091 -1.191531,1.781807 -3.061377,2.713069 -4.681936,3.9413 -0.245646,0.186984 -0.498622,0.355638 -0.740598,0.535283 -1.803864,1.312515 -3.592992,2.636106 -5.396855,3.952281 -0.938584,0.674607 -2.082529,0.263977 -2.30976,-0.81759 -0.139323,-0.692938 0.223646,-1.154927 0.758929,-1.53984 2.881733,-2.082529 5.752484,-4.186927 8.645198,-6.262135 1.932168,-1.389573 2.654408,-3.248344 2.207173,-5.547216 -0.271307,-1.433499 -1.041264,-2.595747 -2.262174,-3.48665 z M 33.204068,15.100559 c 0.05499,-0.450961 0.131983,-0.79926 0.131983,-1.154927 0,-0.854261 -0.619615,-1.334571 -1.455555,-1.162247 -0.300638,0.05499 -0.601275,0.120992 -0.901922,0.179654 -1.041265,0.197985 -1.528859,-0.05499 -2.130115,-0.949565 -0.263977,-0.39597 -0.674607,-0.692937 -1.088945,-1.118228 -0.307977,0.524283 -0.535283,0.909252 -0.758929,1.294212 -0.637946,1.107247 -1.246533,1.286892 -2.412441,0.733269 -0.458292,-0.216316 -0.938584,-0.4033 -1.49216,-0.648946 -0.08432,0.630606 -0.168654,1.13653 -0.234646,1.642521 -0.102662,0.843261 -0.564614,1.371176 -1.371177,1.605822 -0.168654,0.04766 -0.348299,0.102662 -0.516953,0.161324 -0.865261,0.307968 -1.070548,1.202513 -0.384969,1.829487 0.348299,0.318968 0.777269,0.553614 1.191532,0.835921 1.389572,-1.726806 3.061377,-2.911111 5.12551,-3.519688 2.09351,-0.601275 4.157643,-0.450961 6.29874,0.271307 z m -10.0053,13.015337 c -0.300638,0.78826 -0.656276,1.569218 -0.883592,2.383157 -0.168654,0.608615 -0.04766,1.246533 0.36663,1.792883 0.487622,0.637945 1.437159,0.920252 2.185116,0.648946 0.619615,-0.223646 1.004566,-0.938584 0.956886,-1.774486 -0.08066,-1.275911 -1.228231,-2.66539 -2.625124,-3.050397 z m -4.674615,-2.731465 h 3.820316 c -0.403299,-0.77727 -1.118228,-1.209928 -1.803863,-1.257515 -0.740599,-0.03666 -1.426178,0.487623 -2.016453,1.257515 z"
         id="path1"
         style="fill:#ffffff;stroke-width:0.938583" />
      <path
         d="m 50.369821,65.802087 c -1.209928,-0.590285 -2.375743,-1.154927 -3.53067,-1.737881 -0.582945,-0.289638 -0.909253,-0.758929 -0.835921,-1.437159 0.113653,-1.088945 1.088945,-1.642521 2.082529,-1.184211 1.191532,0.542614 2.35744,1.143945 3.574689,1.63154 1.209928,0.480292 2.478423,0.769929 3.791032,0.590284 0.36663,-0.04766 0.740599,-0.150323 1.07787,-0.300638 0.949564,-0.42163 1.286891,-1.173229 1.033943,-2.166813 -1.184211,-0.120993 -2.375742,-0.179655 -3.530669,-0.37397 -1.077869,-0.179654 -2.130115,-0.480291 -3.182361,-0.777259 -0.553614,-0.161324 -0.883592,-0.601276 -0.938584,-1.202513 -0.05499,-0.590285 0.131984,-1.118229 0.667277,-1.360196 0.355638,-0.161323 0.835921,-0.186984 1.22823,-0.120992 1.594841,0.252976 3.17138,0.619615 4.766221,0.82493 1.077869,0.139323 2.159493,-0.07333 3.116378,-0.648946 0.986264,-0.590284 1.305195,-1.455555 0.909253,-2.262174 -1.107247,0.216316 -2.177795,0.505953 -3.274061,0.630616 -1.49216,0.168654 -2.977092,-0.102663 -4.421572,-0.498623 -0.75893,-0.205315 -1.136531,-0.938583 -0.967868,-1.690201 0.179655,-0.777269 0.76993,-1.184211 1.605823,-1.070548 0.77726,0.113653 1.558236,0.282307 2.335477,0.373969 1.154927,0.131984 2.298779,0.011 3.387723,-0.439961 0.872592,-0.355639 1.305194,-0.949565 1.239212,-1.690201 -0.05499,-0.667277 -0.758929,-1.407875 -1.528859,-1.558236 -0.120993,-0.02933 -0.300637,0.05499 -0.4143,0.150323 -1.49216,1.162248 -3.21906,1.341893 -5.011848,1.191532 -0.733268,-0.06599 -1.202513,-0.78826 -1.154927,-1.576539 0.04766,-0.740598 0.608615,-1.268589 1.396894,-1.294212 0.608615,-0.02933 1.220909,-0.04766 1.822166,-0.102663 0.205315,-0.01833 0.4143,-0.102662 0.608615,-0.186984 0.854261,-0.348299 0.901922,-0.619616 0.205315,-1.209928 -0.186984,-0.161324 -0.42163,-0.271307 -0.656276,-0.355639 -2.881733,-1.099926 -5.902845,-1.671805 -8.934845,-2.148511 -1.257515,-0.197985 -2.526104,-0.348299 -3.783618,-0.571954 -0.4143,-0.07333 -0.82493,-0.245646 -1.191532,-0.458292 -0.553614,-0.318968 -0.751599,-1.041264 -0.524283,-1.660823 0.205315,-0.571954 0.769929,-0.938584 1.407875,-0.843261 3.743353,0.571954 7.508668,1.033943 11.167266,2.064133 0.986264,0.282307 1.943149,0.630615 2.911111,0.967867 1.32359,0.469292 2.214493,1.371176 2.617803,2.72039 0.09532,0.318968 0.252976,0.498623 0.564614,0.637946 0.535283,0.252976 1.052246,0.542614 1.53984,0.883592 1.803863,1.246532 2.346459,3.358345 1.437159,5.396855 -0.06599,0.150323 -0.08432,0.395969 -0.011,0.516953 1.53984,2.581104 0.384969,5.462837 -2.148512,6.720445 -0.373969,0.186985 -0.458291,0.337308 -0.384969,0.758929 0.4143,2.122794 -0.480292,3.875317 -2.383157,4.890865 -0.458292,0.245646 -0.883592,0.542614 -1.323591,0.82493 -2.889053,1.895469 -6.071508,2.335477 -9.41493,1.840468 -6.027489,-0.909252 -10.962655,-3.743352 -14.698217,-8.579216 -1.671805,-2.159492 -2.834053,-4.579254 -3.255759,-7.303305 -0.223645,-1.426178 -0.102662,-2.834053 0.282308,-4.212644 0.458291,-1.624219 1.191531,-3.116379 2.100831,-4.524254 0.487622,-0.751599 1.294213,-0.949565 1.99815,-0.505953 0.703938,0.432631 0.872592,1.239212 0.432631,2.016453 -0.318968,0.564614 -0.637946,1.125549 -0.949565,1.690201 -1.418857,2.628784 -1.407875,5.283192 -0.150324,7.966978 1.877167,4.007282 4.89828,6.859731 8.832259,8.813862 2.383157,1.18421 4.916581,1.792882 7.563668,1.979848 0.296977,-0.011 0.579284,-0.02933 0.898253,-0.02933 z"
         id="path2"
         style="fill:#ffffff;stroke-width:0.938583" />
      <path
         d="m 69.807884,36.761376 c -0.450961,-0.04766 -0.890922,-0.223646 -1.154927,-0.685607 -0.289637,-0.516953 -0.263977,-1.022868 0.05499,-1.528859 0.975282,-1.528858 1.972527,-3.050396 2.900035,-4.608632 1.143945,-1.932168 2.214494,-3.904695 3.332722,-5.855165 0.179654,-0.318968 0.4143,-0.648946 0.714938,-0.843261 0.458291,-0.318968 1.143945,-0.186985 1.547161,0.179654 0.480292,0.432631 0.656276,1.088945 0.373969,1.660824 -0.373969,0.777259 -0.76993,1.547161 -1.220909,2.280476 -1.737882,2.870751 -3.490405,5.734182 -5.235513,8.608593 -0.289637,0.472962 -0.674607,0.79193 -1.312515,0.79193 z"
         id="path3"
         style="fill:#ffffff;stroke-width:0.938583" />
      <path
         d="m 27.553795,22.766158 c 0,-1.191532 0.927584,-2.141096 2.100832,-2.141096 1.118228,0 2.082529,0.967867 2.100831,2.100831 0.01833,1.154927 -0.949565,2.148511 -2.100831,2.159493 -1.162248,0.022 -2.100832,-0.927583 -2.100832,-2.119134 z"
         id="path4"
         style="fill:#ffffff;stroke-width:0.938583" />
    </g>
  </g>
</svg>
