<svg xmlns="http://www.w3.org/2000/svg" xml:space="preserve" width="2486" height="307.699" viewBox="0 0 657.754 81.412"><g transform="translate(192.118 -208.541)"><path fill="url(#a)" d="M465.636 289.953v-40.48l-12.964-1.324c1.48 2.257 6.056 2.232 8.466 2.91v.265l-13.758-1.852c.796 1.162 2.422 1.18 3.704 1.499 3.143.783 6.304 1.248 9.525 1.635 1.49.179 3.668-.056 4.498 1.364l-8.202-1.323c-.833 1.354-2.3.893-3.704.718-2.697-.335-5.282-1.069-7.938-1.6-1.053-.21-2.164.103-3.175-.284-1.551-.594-2.514-2.422-4.233-2.273l-.265-1.059-.793-.529-1.852.53.264 1.058c-4.986-1.556-10.185-1.588-15.346-1.588v.265l3.175.264-.264 1.059c1.565-.757 1.852-.259 3.44 0v-.265l-.53-.53 2.117-.264.264 1.059 1.323-.53.265.53-.265 1.322h.265v-1.587c2.194.656 4.3.14 5.82 2.117 2.41-.762 5.124 2.161 3.176 4.233v1.323l1.058-.265v1.323c-.807-.3-1.76-.784-2.644-.611-.926.18-1.848 1.157-.97 1.973.684.637 1.676.714 2.556.755-1.493 1.62-3.372 1.108-5.292 1.554-1.098.255-2.062.85-3.175 1.092l.265-2.382-.794-.264 2.91-2.381c-1.612-1.213-1.932.848-3.443 1.063-2.34.332-3.025-1.776-2.113-3.445l-2.31-.26-.192-1.055 3.56.257v1.852l1.059.265 2.116-1.059-.529-1.058 3.175-.53-2.646-.264v-.264l1.852-.53v-.264c-1.322.115-2.74.38-3.44 1.587-1.431-1.195-2.671-1.547-4.497-1.322l.265-1.588c-2.706.804-5.763.7-8.467 1.494-1.577.464-4.09 2.01-5.778 1.683-1.203-.233-.223-1.456.222-1.854l-.794-1.852h.529l-.265-.794c2.303-.548 4.073.3 6.086-1.323l.794 2.381h.264v-1.322l2.117.264-1.263-1.868-2.706-1.042c-1.34 2.191-3.267.202-4.597-.875-1.839-1.488-4.452-2.367-6.46-3.676-1.182-.77-1.758-1.77-3.23-2.064l-.53-2.381h-.264v1.587c-2.16-1.34-4.506-.807-6.88-.264v.264l1.853 1.588c3.416.352 6.764 4.19 9.26 6.35-1.035.214-1.589.16-2.116-.794-2.822.129-4.779 2.328-6.714 4.186-.713.684-1.54 1.049-2.075 1.914-.68 1.101-1.392 3.788-2.427 4.472-.882.584-3.07.011-4.13.011v.265l4.762 1.588h-1.323v.264l.794.265-.265 1.058h-.529l-.264-1.587h-2.646v.264l2.117.265v.264l-5.557.794c-.395 1.713-2.062 2.375-3.704 2.381l.265.794-3.357 1.04-1.141-1.57v-1.587l2.889-.05 1.873.844-.793-.794.529-.793-1.852-1.059 2.116.794.265-1.058-7.407.543-1.854-1.337v-.265l1.588-1.323v1.059h1.323l-.794-.53-.264-1.851c-1.486 1.13-1.908 2.179-3.78 1.172-.482-.259-1.233-.52-1.233-1.188 0-.947 1.4-2.05 1.838-2.895l-3.171 2.162-1.993-1.268-2.51-.894 1.059.794v.53c-2.85 1.185-4.816 1.851-7.938 1.851l-3.44 3.175-.528 4.498-1.852-.265.529-.793-.794-.265v1.058l-3.44-.793.265-1.059-1.058 1.588h-3.704l.529.794c-1.34-.388-3.26-.96-4.498-1.632-.512-.277-1.963-1.123-.794-1.279v-.264c-2.078-1.025-2.412-3.844-3.225-5.821-1.672-4.062-3.715-7.72-6.568-11.113-7.402-8.803-17.508-15.094-29.365-14.263-3.044.213-6.076 1.433-8.996 2.245-2.49.692-5.67.839-7.938 2.074-1.788.975-2.627 2.94-4.233 4.123l-1.323-1.587 1.206 2.269-1.031 1.965-2.38 4.233-1.308 5.267-.002 1.59-2.525 2.26-5.072 5.17-1.323 4.763h-.265l-.529-3.175c.778-.246 1.185-.533.794-1.323l1.587-1.059-.529-1.323-2.116 1.853c-.025-2.769-1.388-5.817-.265-8.467l-1.323-.794c-1.27 1.049-2.614 1.253-4.233 1.323.783 1.109 1.932.328 2.881 1.045 2.043 1.541.885 4.802.294 6.628h-.265l-.264-1.852h-.265l-1.323.794v.264c.964.984 2.247 2.57 1.058 3.704-.492-.848-2.42-.789-2.645.265l-1.323-.265 1.058 1.323c-1.516.561-5.292-.969-2.91-2.38l-.265.793c.516-.499.193-1.732-.67-1.277-.567.3-.736 1.256-.918 1.806l-2.38-1.058.793 2.116 3.44 1.059-.794.264.529.794-4.154-.535-2.725-2.64-.794.53c.224-1.44 1.896-3.538 3.44-3.732.762-.096 1.616.225 2.38.292-.301-1.12-.688-1.497-1.851-1.588l.529-1.587-5.82.264c.207 1.274.955 1.511 2.116 1.852l-2.381.794c.084 1.616-.835 2.353-2.117 3.175l-.265-2.381h-.264l-1.059 3.704h-.264c-.871-1.349-2.951-.88-4.148-1.854-1.24-1.009-.209-4.841.708-5.819-.55-1.652-.692-3.447-2.381-4.233.221 2.933-1.015 2.614-3.44 2.116l2.42 1.713.755 4.373-1.587-1.588h-.265l-.529 2.117-1.852.264-1.323-5.291-1.587-2.117.264-.264 1.323 1.587.794-.265-.53-.793 1.324.264.264-1.058 1.059.53 1.852-3.705-3.154-4.452-2.403-1.898.53 2.117-.794-.265c.135.655.16.681.794.53l-.794 2.38h.264l.265-1.058h.264c.041 1.267-.525 2.48.794 3.175l.53-.794v.794l.793-.264-.529 3.175h-.53l-.264-1.323-1.058.264c0-.747-.302-.738-1.058-.794l-.265 1.323-1.588-.529.265-1.323 1.058.265V250l-1.587-.264-.265-1.059-1.058.794c0-1.593.138-3.762-1.323-4.762l-.265 1.587-.793-1.587-1.059.264-.264 4.234h-.265l1.323-9.525-4.233 1.852-.265 1.323-2.646-1.323-1.323 2.91 1.059-1.323h.264l1.769 3.993-.446 4.738-2.646-2.116-.264 1.058c1.54.734 2.612 2.248 2.646 3.969l2.116.264 1.323-2.91h.265v2.381l1.058.265.53-1.059h.264l-.794 4.763-2.116-.265.264-1.058 1.323.53-1.587-2.382h-.265c.02 1.415-.282 2.203-1.323 3.175l-1.74-1.217-3.816-3.28c-.458 1.552-.1 3.035.529 4.497-.732.16-.682.341-.53 1.058l2.382-.529.265 1.058-1.059.794 2.117-.529 1.323 1.323h-1.323l.265.794-2.646-1.059-.794.794 3.175 1.588-3.175-.794v.264l2.91 1.323-4.233-1.058-2.117.265.794.264v.265l-2.415 1.338-3.67-2.132h-5.292l.53-1.058c-1.445-.427-2.774-.427-3.97.529-.246-1.479-2.603.112-3.346.239-.89.152-2.18-.42-3.004-.713-1.968-.7-5.312-1.218-4.497-4.024l1.587.53v-.265l-1.323-.265v-.265l2.646.53-.265-1.059c2.247-.438 5.165-.335 7.144.794l-.529-2.381-.794.529-1.587-.794v.265l.793.793-6.614-.793c-.64.988-1.215 1.259-2.381 1.323v-5.292h-.265l-1.024 2.413-1.622 1.291c.98.561.89 1.472-.27 1.869-.852.293-1.794-.139-2.64-.281l.529.529v.264l-1.058-1.323h-.265l-.265 1.059-4.233-.265a7.894 7.894 0 0 1 3.44-1.635c.627-.134 1.701-.048 2.206-.485.63-.544-.217-1.07-.619-1.32v-.264c.447-.155.9-.294 1.315-.529.304-.172.614-.377.828-.66 2.024-2.653-2.934-3.096-4.524-3.838v-.265l.53-1.058h-1.06c-.132 2.263-.831 3.145-2.032 5.027-.376.586-.873 1.766-1.688 1.802-.934.041-2.138-1.095-3.16-1.273l.265-1.058c-.738.475-.635.832-.264 1.587-1.392-1.214-1.712-3.25-1.852-5.027h-.265v4.234l.53.793-5.822-2.116.53 1.852-5.292-3.175 4.498 4.498-1.588-.53c.28 1.235.67 2.165-.264 3.176l.264-1.059-.794-.529-1.587.794-2.117-1.323 1.323 2.91.794-.264c-.929 1.475-2.117.17-2.91-.794l-.794 2.381c-1.876-.208-3.62-1.818-4.498-3.44l-.53.265-.264-2.646h-.264l-1.323 1.853-1.059-1.059v-.529l1.059-.53-.794-1.322.264 1.058-2.38.53c1.526 2.32 2.386 3.816 2.38 6.614-1.034.173-1.243.565-1.322 1.588h-1.059l-1.587 2.116c-.236-3.157-2.347-3.265-4.763-3.969l-.264 1.059h-.265v-.794h-.265v1.058l-1.058-.264v-1.852h-.264l-.265 1.587h-.265l-.264-2.646 2.381.265.53-1.588h-1.588c1.817-1.956 1.828.835 1.587 2.117l2.381-1.587v-.265c-2.492-.763.49-4.075 1.059-5.556h.264v1.058l1.852.265-1.322-2.646 2.38-2.646.795.265v-1.852c.595-.833.77-.64 1.587-.265.14-2.548 2.426-1.826 1.852.265l1.058-.794h.265l1.852 1.323v-.265l-2.323-2.121-1.915-2.457-3.17.481-2.37-.357-2.128 1.125-1.815.195-1.625 2.605c.424.375.844.7.863 1.328.016.644-.442 1.211-.699 1.772-.695 1.515-1.407 4.222-3.384 4.58-2.156.39-3.847-2.583-5.51-3.447l1.057-1.323-.529-1.058 3.704-.53v-.264c-2.047-.024-2.164-1.034-3.606-2.12-.593-.444-1.519-.569-2.214-.79l.529-.53-.53-1.851c-.698 1.165-1.23 2.901-.264 3.968h.265l1.852-.529c-.421 1.41-.924 1.92-2.382 1.588v1.058l-.529-.794c-1.071.207-1.778.53-2.381-.529h-.265l-.264.794h-.265l-2.91-5.292-2.646-1.587 1.323 4.762-2.91-.794 1.587 3.175 2.646-.529-.794.53v1.322l3.175-1.058-1.323 1.852-1.058-.264.529 1.058v.264l-.53.794c1.014 0 .466 1.682.265 2.381l-.793-.264.264 1.058c-1.563.525-4.32-.637-4.233 1.852l.53-.793 2.645 1.058h.264l.53-.53-1.059 2.911-.793-.264.529 1.058-.53-1.588-2.91.53c-1.468 1.426-2.934.633-2.91-1.323l1.587 1.587 1.852-.794v-.264l-2.38-.265.793-.794v-.264h-1.059v-.265l.53-1.323h-.265l-.265.794h-.264c.413-1.633 1.286-2.503 2.646-3.44l-1.059-.529-1.058 1.059-.265-1.852 1.588-.265c-.894-2.814-1.3-5.777-1.042-8.731.13-1.493 1.46-2.152 1.042-3.704h-.265v1.058c-2.238.534-2.38 2.224-2.38 4.233 0 3.023.875 6.32.264 9.26 1.209 0-.326 1.574-.794 1.853l.265.794c-1.329-.554-2.366-1.287-2.91-2.646l.793-.265-1.058-2.381h-.265l.265 3.175-2.421-1.88-2.157-2.992-6.535.477-10.054-4.866 4.762 3.44-1.696 2.267-4.426 4.02-2.344 1.121 1.058-.264-1.058 1.852 4.233-1.058-.265 1.058c.948-.107 1.374-.053 1.853.794l-2.117.264c.44 2.509 2.31-.179 2.646-1.323 1.616 2.2-.969 2.35-2.257 3.57-.902.856-1.45 2.087-2.241 3.045.336-1.43.026-2.246-.794-3.44h-.265l.265 3.704-4.233-.529v-.264l1.587-.53-.529-1.852-1.058 1.059.264-3.704-2.116 2.38v.265l.529.265c-1.881-.21-.593-1.888 0-2.91-1.582-1.616.49-3.98 1.852-5.027.307-3.014 4.794-3.673 7.144-4.234v-.264l-2.91-.054-4.499 1.641-.793.794-.265-1.058c-1.027.458-2.045 1.025-2.117-.53h-1.058l.53.53-1.324 1.587h-.264l-.53-.53-2.873 3.43-.037 4.244h.265l1.852-5.292h.264l1.852 1.588.794-2.91v.793l.794-.265c-.71 2.083-2.334 4.376-1.852 6.615l1.058-.53-.529 1.588-1.323-.264-.529-2.646-.53 2.646.795-.265-.53 1.058h1.059l-.794 3.97-1.588-1.06h-.264l-1.058.53h-.265l-.794.53.53 1.058c-1.826 1.082-2.554.658-4.499.529v-.794l1.588-.265-.265-.793h1.059v-.265l-.794-.265.794-.264-.794-.794-1.852 2.381c-.492-1.316-1.183-2.837-1.373-4.233-.096-.693.296-1.514.844-.794l1.323-1.852-1.059.794-.264-.794-.794 1.059c-1.59-1.398-1.566-4.987-4.233-4.763v.265l1.058-.265.873 6.04.714 3.22h-.264l-.265-1.322h-.264l-.265.529h-.265l-2.727-1.008.082-3.49h-.265l-.794.529-.529 2.646-1.058-.265.529 1.059c-.931 1.512-3.733.823-4.601-.62-.376-.626-.23-1.342-.162-2.026.691.068 1.516-.09 1.292-1.043-.244-1.024-1.548-1.403-1.927-2.4-.664-1.755-.158-4.48-.158-6.347h-.265l-.53 5.82-1.851-.264v.794l1.587 1.588c-1.606.228-.487 2.308 0 3.175h-1.058l.265.793-2.91-.264-.265-1.588.529-.793-5.027 1.322c.698-1.374 1.585-.964 2.91-1.058v-3.44l-1.852 1.059.53 1.058-1.588.265.264-.794-1.611.66-3.416-.395c-.67-.928-1.571-.793-2.646-.794l1.059-.794-.265-1.058 3.969-1.323v-.265l-.53-1.587 5.292 1.323.265-1.059c-1.701-1.07-4.096-1.017-6.086-1.058.482 2.614-2.55 2.773-4.497 3.175l.529-.794-2.117-4.762-.53 1.058.53 1.588H25.9l1.587 1.323v.264l-1.058.794-1.323-1.323h-.265c-.187 1.187-.751 1.686-1.852 2.117v-3.174h2.382v-.265c-1.23-.358-1.326-.946-1.059-2.117l-.794-.264.265 2.116H22.46l.265 1.059-.265.264h-.529l-.794-2.38-4.233-2.647.264 2.117h1.588L17.961 250c1.365.148 2.117.343 1.588 1.852l1.323-1.058-.265 3.175c.341 1.756-2.701 2.12-3.969 2.381v-2.116l-3.44 2.116-2.116-6.35h-.265l-1.058 2.382h-.264l-.265-.794c-.844.462-1.775 2.507-2.67 2.403-1.635-.19-2.384-2.277-3.299-3.304-.566-.638-1.344-1.076-1.958-1.67-.982-.95-1.161-1.713-2.656-1.398l.264-.53h-.264l-3.97-1.777-7.384-4.272-2.934-1.623-9.525-1.588v.265c2.474.702 5.694 1.108 7.408 3.175l1.588.794-.794-.794v-.265h1.852c-.653 2.063-.15 4.289-2.91 2.91l1.868 1.888.249 4.463-1.059-.53-1.058 1.588.264 4.234-1.587-1.059c.32.615.966 1.186 1.135 1.863.452 1.804-1.394 1.605-2.458 1.312.333.843.503 1.6-.53 1.852-.153 1.578-1.674 2.361-2.91 3.175l-.529-1.323 1.323.53 1.059-2.646-1.853.529.53.794h-1.588l.265-.794c-2.421-1.902-3.048-5.807-3.175-8.731l1.058-1.588c.839.24 1.286.454 1.852-.264l-.794.529c-.037-1.81-.91-4.146.53-5.557v-.264l-1.588-.265c-1.519 1.52-4.072 1.15-6.085 1.37-1.638.178-3.088.742-4.763.747l1.058-1.588-2.116.53-2.117 1.058-1.058-1.058.529 1.058c-2.188.231-4.786-.217-6.691-1.393-1.368-.844-2.392-2.287-3.892-2.84l1.852 4.233h-5.292l-.265-1.588h-.264c-.4 2.512-4.072 1.35-5.556 3.175.997-.186 4.463-1.241 4.775.3.233 1.144-3.786 3.575-.542 4.198-1.143 2.906-4.072 1.91-6.615 2.382l-.264 1.852c1.246.123 1.386.72 1.058 1.852l1.588.529-1.323 1.852h1.323l-1.323.53v.264l.793.264-1.058 1.852.265-.793h-3.175l-1.323 1.323c-1.148-.64-1.91.504-2.91 1.058l1.058-1.588-3.44 1.853 1.058-1.853-.529-.793c1.617-.506 3.636-1.573 5.027-.265h.265l.53-1.058-1.853-.265.53-1.852h-.265l-3.97 2.01-1.587.9c-.973-1.196.606-1.67 1.588-2.116-.574-1.632-1.44-2.291-3.175-2.381 1.08-1.002 2.172-2.58 3.704-2.646l1.323-1.323-.53-.53v-.264l7.145-5.292v-.264l-6.35 3.79-3.97 2.824-2.116 2.91c-.148-1.223-.434-2.57-1.587-3.174v3.175l1.058-.265c-.966 2.493-3.331 4.363-5.556 2.117h1.323c-.57-1.733-2.32-.996-3.705-.794l.53 1.852-2.382.53-.793.529.264-1.059h-.264l-1.323.265c-.156.162-1.58 1.19-1.384.194.119-.61 1.161-1.028 1.648-1.252-.762-.892-1.293-.891-2.38-.53l1.851-1.323c.83 1.5 2.106.597 3.44.265v-.265l-3.175.265v-.265l2.646-.793v-.265c-1.522.121-3.11.419-4.496 1.084-1.839.886-4.45 2.58-6.606 2.25-1.297-.197-1.874-1.664-2.921-2.276l.529 1.323-.265.265c-4.355-1.874-8.953-2.257-13.494-3.412-1.592-.406-3.886-1.034-3.968-2.938-3.866 1.846-5.792-2.283-7.144-5.027h-.53l-.264 3.175c-1.193-.428-1.63-1.157-1.852-2.381h-.264l-.265 1.587-3.993-.155-3.92.006-2.406-1.967c-.733 2.23-2.384 2.925-4.762 2.81-1.485-.07-3.26-.528-4.234.894l-3.968 1.587 2.116-2.381-7.408 5.556v.265l.794-.265-.794 2.382h-1.058l.264.793-4.233.53v.529l2.117.793c-1.133.48-2.054 1.762-3.175.794-2.387.463-4.734.52-7.144.749-1.096.104-2.27.239-2.91-.749l-1.324.265 1.323-2.646-3.971 3.349-6.083-1.106-10.054-1.45v29.898h657.754m-580.76-6.35.529-.529v.53h-.53m-4.233 0c.23-.812.368-1.866.868-2.561.852-1.185 1.45.154 1.514.973h-1.588l.53 1.058.793-.529.265 1.058h-2.382M95.75 282.28l.264-.264-.264.264m-211.138-.529.265-.264-.265.264m-1.323-.529v-.529l.53.53h-.53m1.059-1.06.529-.528v.529h-.53m392.113-.794-.264-.53h.529l-.265.53m-2.381 0v-.53h.53v.53h-.53m0-.794.53-.529v.53h-.53m-1.323-1.059.265-1.058h.264l-.529 1.058m-462.492-.265-.264-.529h.529l-.265.53M92.31 275.4l.794.53-.794-.53m-230.981.53-.794-.265v-.265l.794.53m331.523-.53.529-.529v.53h-.53m-33.337-.265.53-.53-.53.53m166.423-.265.265-.264-.265.264m-2.381-1.323-.53.794 1.324.265c-1.17.473-2.347-.543-.794-1.059m-225.69.53-.529-1.588-2.381-.53c1.22-1.718 3.37.129 4.233 1.324l-.793-.53.264 1.323h-.794m-73.818-.529v-.529h.529l-.53.53m-1.322 0 .793-.53-.793.53m168.804-.265.53-.53v.53h-.53m-98.425-.794 1.852.53-1.852-.53m-211.402.794v-2.646l1.852 2.381-1.852.265m229.658-.265.265-1.058-.794.264c.931-1.306 2.14.258.53.794m-52.653 0 1.058-1.587-.264 1.587h-.794m135.202-.353-.087-.088c.13-.043.29.088.087.088m-83.52-.088.09-.176-.09.176m-15.699.176-.529-.793.53.793m98.16-.264v-.53h.529l-.53.53m-94.72 0-.265-.265.265.265m-14.552-.53.794.265-.794-.264m186.002.264-.265-.793.265.793m-24.077 0 .53-.529v.53h-.53m-156.633-.53v-.264l2.38.529-2.38-.265m-199.496.53.793-1.059-.264 1.058h-.53m-25.664 0 .265-.529h.264l.265.53h-.794m335.756-.353c-.203 0-.042-.132.088-.089l-.088.089m-389.995.088-.794-.794.794.794m388.672-.265v-.529l.53.53h-.53m-387.35 0-.529-.795c1.982-.586 5.162-.586 7.144 0v.265l-1.852-.265c-.915 1.296-3.328.794-4.763.794m457.2-.529v-.265l2.91-.264v.264l-.528.53-2.382-.265m46.303 0-1.059-2.381 2.117 1.323-.265 1.058h-.793m-161.925 0v-1.058h-1.059l.53-1.323-1.059-.265 1.323-1.323 1.852 3.175-1.323-1.058.265 1.852h-.53m-54.239 0 .265-.265-.265.265m-.794 0-.264-.53h.529l-.265.53m-112.36-.176.09-.177-.09.177m241.477-.089-.265-.529h.53l-.265.53m-122.502 0 1.058-1.059-1.058 1.058m-16.669-1.058 1.323.794c-.775.208-1.162-.025-1.323-.794m-29.104 1.058.264-.264-.264.264m-1.058 0v-1.852c.891.504.907.93.529 1.852h-.53m-71.172 0 .793-2.38c1.22.49 1.038 1.32.53 2.38h-1.323m-101.865 0v-.529l.53.53h-.53m385.763-1.588-.53-1.058 1.323-.265-.793-1.058 1.852.264-.794-1.323 3.175-1.058-1.058 2.381-.53-.529h-.264c.06 1.281-.263 2.524-1.588 1.323l-.264 1.323c1.239-.23 2.15-.018 2.381 1.323-.92-.217-2.046-.144-2.903-.456-.787-.286-.739-.71-.007-.867m-63.765 1.323.53-.53-.53.53m-97.63 0v-.53h.528v.53h-.529m-217.487-1.059.529.53.794-.53c-.403.73-1.199.998-1.323 0m-8.202.794v-.529h.529v.53h-.53m364.861-.265-.265-.265c.461-.75.715-.928 1.588-.794l-1.323 1.059m-12.7 0-.53-3.175h1.06l-.265 1.852.529 1.323h-.794m-249.238 0-.793-1.323c.72.287 1.058.543.793 1.323m-121.179 0v-.53h.53v.53h-.53m454.819-.265v-.265l1.323-.529v-.529l-1.058-.529 1.587 1.058h.265l1.323-.529v.53l-3.44.793m-46.037 0v-1.058h.264l-.264 1.058m-111.303-.44.09-.177-.09.176m-97.19-1.146.795.264c-.934-2.65 1.923-3.543 3.968-4.498l-.793 1.059v1.852h.529c-.334 1.548-1.323 1.552-2.381.529l-.265.794 1.058 1.058c-1.36.397-2.153.152-2.91-1.058m251.883-.53 1.588 1.588c-1.132-.087-1.764-.378-1.588-1.588m-210.079 1.5-.087-.088c.13-.044.29.088.087.088m-84.402.088v-.794h.53v.794h-.53m-130.44 0v-.794l.53.265v.264l-.53.265m427.39-.441.089-.176-.088.176m-76.024.176c.006-1.753.56-2.828 1.588-4.233h.264l1.323 2.117-2.381.793-.794 1.323m-12.7-.529 1.058.265-1.058-.265m-422.275-.264 2.117.264c-.842.501-1.55.598-2.117-.264m533.4.264v-.264l1.058-.265-.264.794-.794-.265m-187.854.265-.53-.53v-.264l1.059-.794-.53 1.588m-44.714 0v-.53h.53v.53h-.53m-28.575 0 .265-1.059 1.323 1.059h-1.588m-14.552 0-.264-.265.264.265m200.907-.441.088-.177-.088.177m-42.421-.353v-.265l1.852.53-1.852-.265m-126.471.53-2.117-.795.794-1.323-2.91-1.058-.265 1.058-.794-.264v.53l-3.704-.266.265-.793c-1.958-.16-2.882-.592-2.646-2.646h1.058v-.265l-2.117-.264v-.265l2.646-1.587v1.323l1.323-.265v-.265h-.794c.876-2.282 2.405-3.475 4.763-3.968v-.265l-1.852-1.058 2.116-.265-.264-.794 1.323.265-1.059 3.175 2.117-.794-.529-2.646 1.587.794 1.059-1.058.794.794c.063.834.193 1.216 1.058 1.322l-.265 1.323c.998-.91.469-1.539 0-2.645l.53.529 2.116.264v.53l-1.323.264.794 1.588-3.924-.128-2.161 1.98 2.91.529 1.852.529v.265l-1.587 1.587 1.587-.265 1.588 1.853c-.94.42-1.778.994-2.382 0l.265 2.116h-.529c0-1.031-.892-.12-1.323.265l1.058.264v.53l-1.058.264m-3.704-.529.793.265-.793-.265m183.62.176-.088-.088c.13-.043.293.088.088.088m-30.162.089.53-.53-.53.53m-20.373 0 .265-.265-.265.265m-25.665 0v-.53l.53.53h-.53m-121.885-.177.09-.176-.09.176m-7.231.177c-.27-.767-.326-1.14.529-1.323l-.53 1.323m-257.439-.794v-.265h1.059v-.264l-7.673-.53v-.529c3.812-1.127 8.961-.315 12.7.53v.529l-2.117.264.53 1.059-4.499-.794m405.077-.794-.264-.794v-.264h1.587v-.265l-1.058-1.587c.818-.835 1.543-.788 2.646-.53v1.323l1.058-.529-1.058 1.059v.264l.529 1.059-1.323-.265.53 1.587.793-.529c-1.063 1.499-2.318.087-3.44-.529m-120.65 1.323.53-1.587c.957.696.502 1.407-.53 1.587m-34.925 0v-1.058h.265l-.265 1.058m254.53-.353c-.205 0-.043-.131.088-.088l-.089.088m-106.097.088v-.529h.529l-.53.53m-63.5 0-.264-.53h.53l-.265.53m-42.598 0v-.53h.529v.53h-.53m-15.08 0 .264-.265-.265.264m247.386-.264.264-.794-1.323.265v-.265l2.382.265-1.323.529m-4.763 0-.529-.794.53.794m-105.834 0-1.323-.53-.53-2.38c1.05.653 1.746 1.66 1.853 2.91m-16.316-.177.088-.176-.088.176m-35.013.177-.265-.794.265.794m-93.663 0-.264-.265v-.529h1.323v.53l-1.059.264m-20.108 0v-.53H64v.53h-.53m321.469-.265v-1.323l.793.265v1.058h-.793m-9.79 0 .265-1.323 1.058.794-1.323.53m-97.543-.177.088-.176-.088.176m-1.411.176-1.058-1.587c1.226-1.352 2.482-1.355 2.645.794l-1.852-.53.265 1.323m-123.825-.793 1.058.529-1.058-.53m-333.904.794v-.264h-1.323l1.323.264m571.764-.352c-.204 0-.042-.132.088-.089l-.088.089m-3.968-.177v-.264l1.058.264h-1.058m-22.225 0 .264-.794.794.265.265-.794-1.323-.529v-.265h1.852l-.53-.793 5.292-2.176 2.377-1.228 2.386 1.552-.53-.794c2.15.74 1.38 2.012.794 3.704h-2.116c1.409 1.319.226 2.086-1.323 2.115-2.747.052-5.455-.263-8.202-.263m-41.805-1.852 1.588 1.852c-1.273.128-1.484-.717-1.588-1.852m-12.7 1.852v-.264h2.117l-2.117.264m-1.058.265v-.53h.53l-.53.53m-39.423-.089c-.204 0-.042-.131.088-.088l-.088.088m-44.45.089-.264-1.059.793-.793c.548.855.334 1.372-.529 1.852m-130.175-.53.794.53-.794-.53m-27.252.53-.264-.265.264.265m-64.029 0v-.265l1.323-.264-1.323.529m-39.423 0v-.53l.53.53h-.53m398.463-.265 1.587-.794-1.587.794m-3.97 0-1.587-.53v-.264c.682.011 1.731-.075 1.588.794m-44.186 0v-.53h.53v.53h-.53m-1.587-.264 1.058-.53-.264.794-.794-.264m-61.913.176-.088-.088c.13-.044.293.088.088.088m-5.291.088-.265-.264.265.264m-29.634-.529v-.265l3.705-.264-.265 1.058-3.44-.529m-7.937.265v-.53l5.027-.264c-1.04 1.21-3.59 1.136-5.027.794m-93.663.264v-1.323 1.323m-7.408 0-.265-.794.794.53-.529.264m-8.996 0 1.059-2.117-1.323-.529h-.265v2.646h.53m-137.055-.529.794.53-.794-.53m-127.794.265v-.265l1.588.53-1.588-.265m551.392 0 .265-.265-.265.265m-52.653-2.91c2.98-.946 4.113-.137 4.234 2.91-1.577-.37-3.484-1.446-4.234-2.91m1.588 2.91-1.323-1.323 1.323 1.323m-98.425 0 .265-1.323-1.323-.265-.53-1.323.794-.264.265 1.058 1.852-.53c.419 1.421.329 2.518-1.323 2.647m-1.058 0-.265-1.323 1.058.264-.793 1.059m-53.975-.53.793.53-.793-.53m-30.692.265 1.587-.794-.264 1.059-1.323-.265m-79.64.265v-.53h.53v.53h-.53m-35.983 0 .265-.265-.265.265m-105.304-.265 1.058-.794.265.53-1.323.264m-5.027-2.646-.265-1.058 1.588 1.323v.264l-1.059.794.794.794-2.646-.53.265.794c-.85.408-1.992.806-2.815.069-.942-.843.29-2.873 1.283-3.16 1.05-.302 1.942.323 2.855.71m474.927 2.646.264-.265-.264.265m-31.22 0-.53-.53v.53h.53m-26.988-2.91v1.587l.793.265 1.588-.265v.265h-1.323l.264 1.058c-.81-.103-1.903-.13-2.555-.684-1.37-1.164.103-2.081 1.233-2.226m-19.844 2.91-3.44-2.91v-.265c1.701-.235 3.17 1.583 3.44 3.175m-9.702-.176.089-.177-.089.177m-72.319.176-.53-2.117h-.528l.529-1.587 2.91.794-2.381 2.91m-123.296 0-1.587-3.704 3.704 2.91-1.059-.529-1.058 1.323m-21.96 0-.265-.265.265.265m-8.467 0 .53-.53v.53h-.53m-48.683 0 .529-2.117 3.175 1.323-2.91-.529-.794 1.323m-4.763 0 .265-1.058h.264l-.529 1.058m359.04-.265v-.264l1.323-.265v.53H389.7m-31.75-.53.264-.794h-1.587v-.264h4.762c.668 2.098-2.355.989-3.44 1.058m-75.67.53.265-.794-.265.793m-2.293-.176.088-.176-.088.176m-103.54-.617 1.852.264v.53l-1.852-.794m-104.246.264h1.323H72.2m-38.63.53.53-.794-.53.793m-49.212 0 .53-.529v.53h-.53m-30.692 0 .265-.265-.265.264m432.33-.529v-.264l1.587.264h-1.587m-35.984.265c-.682-.28-1.385-.687-2.116-.816-1.551-.272-2.757.37-3.705-1.3l5.292.438 2.91.355v.264l-1.322-.264-1.059 1.323m-29.104-.088c-.204 0-.042-.132.088-.089l-.088.089m-33.602.088v-.53h.53l-.53.53m-27.781-.088c-.205 0-.042-.132.088-.089l-.088.089m-301.625.088-1.059-1.059 1.059 1.059m-32.544 0v-.265l1.323-.264-1.323.529m358.07-.441.088-.177-.089.177m-40.569.176.794-1.058-.265 1.058h-.529m-27.517 0-.264-.529h.529l-.265.53m-8.466 0v-.265l1.058-.53-1.058.794m-101.336 0 .53-.794.264.265-.265.53h-.529m-41.275 0 .265-.795-.265.794m-5.82 0-.53-1.852.53 1.852m314.501-.44-.088-.177.088.176m-23.195.177-.265-.265.265.265m-8.202-1.323 3.175 1.323-3.175-1.323m-80.698 1.323v-1.059 1.059m-59.443-.177.088-.176-.088.176m-107.51.177v-.794l-.793.264v.265l.794.265m-160.867 0v-.265l1.852-1.058v1.058l-1.852.265m-100.013-.794c-1.584.594-3.463.305-5.027-.265l.265.53h-.265l-1.852-1.059v-1.058l5.292 1.323h.265c1.227-.929 2.33-.278 3.44.529 0-.748.3-.738 1.057-.794l.265 1.323c-.833.271-3.262.537-3.44-.53m554.567.53.53-.53v.53h-.53m-15.081-1.323 1.587.53v-.265l-1.058-1.059-5.82 1.588c1.569.659 4.545.987 5.29-.794m-45.243-.529 3.44 1.058c-.353 1.636-2.9-.252-3.44-1.058m-97.367 1.852v-.265l1.059-.793-1.059 1.058m-58.737 0v-.53l.53.53h-.53m-65.088-1.058h1.059l-.265-.794 1.059-1.058-.265-.265-2.91 1.058c1.095-1.67 2.852-1.365 4.233-.264l.794-1.852-.794-.265v-.264c1.59.517 3.44.883 2.646 2.91l-1.588-1.058.53 1.058c-.691 1.005-1.408.957-2.117 0-.556 1.153-1.511 2.362-2.382.794m-2.116 1.058.529-.53v.53h-.53m-37.04 0 1.057-.794-1.058.794m-26.194 0 .265-.265-.265.265m-56.62 0 .793-4.762h.53c.335 1.258 1.248 2.798 0 3.704v.264l.793-.264.265.793-2.381.265m328.612-1.852c1.495-.082 2.379.062 2.91 1.587-1.307-.087-2.11-.554-2.91-1.587m-201.348 1.587v-1.058h.265l-.265 1.058m-31.75-.264v-1.323l1.058.265v1.322l-1.058-.264m-144.198.264.53-1.852h.264l-.265 1.852h-.529m-19.05 0c-1.815-1.585-1.653-5.026 1.323-3.44.519-.791 1.07-.791 1.588 0h-.794v.53l.794.794-3.175.794.264 1.322m395.288-1.058 1.323.53-1.323-.53m-47.096.53 2.91-5.557.794.265c.194-2.71 2.532-4.517 5.027-5.292l-.529 1.058c1.246.39 1.634 1.423 1.852 2.646l-1.852.265v.264h2.117l-.265.794c.833.11 1.6 1.439 1.083 2.29-.598.987-2.563 1.314-3.464.885l-1.059 1.058-.793 1.059-.53-1.323h1.059v-.265h-1.588c-.156 1.958-3.154 2.258-4.762 1.852m-37.306 0v-.529l.529-.794 1.587.265v.265h-1.323l.265 1.058-1.058-.265m-11.642.265-.53-.794.53.794m-128.5-.088-.175-.089.175.089m-5.908.088.529-.794-.53.794m-3.704 0-.793-.53v-.264l.793.794m-99.131-.177.09-.176-.09.176m-32.544 0 .09-.176-.09.176m-112.448.089-.174-.089.174.089m542.838-.177.53-.529-.53.53m-161.572-.177.088-.176-.088.176m-96.132.176c-.098-.98.114-2.411 1.323-1.587h-.794v1.587h-.53m-3.439-1.587 1.059-1.059v-.264l-1.852-1.058v1.587l-1.588-.53c.77-1.844 2.265-2.009 3.704-.793l.265-1.323 1.323.53 1.852-1.853.529 1.323-1.323-.794-.53.794.53 1.059 1.058-.265-2.116 2.91h-.794l.265 1.323-2.382-1.587m-11.112 1.587.529-.529v.53h-.53m-47.889-.53.794.53-.794-.53m-23.019.53v-.53h.53l-.53.53m-71.966-3.44c1.04.004 2.656-.131 2.91 1.058l2.646-1.323-.53-1.058 1.06-.265.264 3.175h-2.117v.265l1.852.264v.265c-1.055 0-2.03.158-2.646-.794-1.836 2.657-3.415 1.2-3.44-1.587m-5.555-1.852 1.322.529.265-1.323 1.058.264-.264.794c2.09.29 3.733 2.492 2.381 4.498.273.119.63.364 0 .485-2.405.464-2.926-1.929-3.836-3.351-.503-.785-.9-.88-.926-1.896m-38.365 5.203c-.204 0-.042-.132.087-.088l-.087.088m473.604-.176.53-.53v.53h-.53m-34.131-.53.794-1.587.793.53 1.059-1.06v-.264l-.794.265c.618-.863 1.408-.644 2.381-.53v-.264l-1.852-.264v-.265l4.763-1.337 5.556-1.838v1.587l.53.53-4.234 1.587.529 1.058c-1.03.607-1.81 1.658-2.914 2.115-1.835.758-4.774.296-6.611-.262m-16.404 0 .793.529-.793-.53m-65.882.53-.264-.265.264-.794.794.794-.794.265m-1.322 0 .264-.265-.264.265m-13.494-.53 1.323.265-1.323-.264m-15.61.529.264-.53h.265l.264.53h-.794m-12.611-.177.088-.176-.088.176m-32.897.177.794-.265v-.264l-.794.529m-7.408-.265v-.264l1.323.264h-1.323m-76.994.265-.265-.265.265.265m-79.64 0v-.53h.53v.53h-.53m-44.45-.265-.264-1.587c1.01.371 1.296.793 1.058 1.852l-.794-.265m-45.508.265v-.53h.53l-.53.53m418.042-.794-.794.53.794-.53m-60.06.441-.089-.088c.13-.044.293.088.088.088m-1.852 0-.088-.088c.13-.044.293.088.088.088m-20.373-2.822 1.059.529 1.058-.794-.53 1.323h1.06l.264 1.588c-1.994.204-2.672-.7-2.91-2.646m-73.026 2.91v-.794l-.529.265v.264l.53.265m-11.378 0-.529-.794.53.794M135.7 262.7l1.058-.529v.53l.794-.265-.265 1.058-1.587-.794m-215.02.706-.174-.088.175.088m460.023-.177-.265-.264.265.264m-5.292 0v-.264l-.793-.265.793.53m-45.243-.089c-.205 0-.043-.131.088-.088l-.088.088m-51.33.088.265-.264-.265.264m-124.883 0v-.264l1.058-.265-1.058.53m-56.62 0v-.53h-.53v.53h.53m-67.205 0v-1.059h1.588c-.291.879-.686.989-1.588 1.058m-50.535 0 .529-.529v.53h-.53m400.05-.265-1.058-.794v.265l1.059.529M275.4 262.7v-.529l1.058-.264-.264 1.058-.794-.265m-30.34.088.09-.176-.09.176m-9.348-.352.794.264-.794-.264m-2.646.529.53-.53-.53.53m-2.645 0 .793-.53-.793.53m-11.907 0-.264-.53h.529l-.265.53m-17.198 0 .53-1.058-.794-1.588h-.265l.53 2.646m-123.296 0-.265-.265.265.265m-7.409 0c-.074-.795-.045-1.154.794-1.058l-.794 1.058m-102.658 0-.265-.265 1.059-1.058v-.265h-.794l1.323-1.323 1.323 1.059-.53 1.587h-.529l-.264-.793-1.323 1.058m-23.548 0 .794-1.058-.265 1.058h-.529m-30.692 0v-.53h.53v.53h-.53m-69.32 0v-.265l1.587-.529-1.587.794m549.54-.794c.713-.226.895-.225 1.057.53l-1.058-.53m-2.381.53v-.53h.53v.53h-.53m-62.177-.265-2.117-1.852h1.852v-.265c-1.647-.257-3.404.654-5.028.108-1.653-.556-2.885-2.101-4.232-3.125-3.106-2.36-6.377-4.484-9.525-6.793-1.853-1.359-5.706-2.835-6.086-5.271h-1.058l.53 1.587-4.234 1.059-3.44 1.142-3.968.445v.265l2.91.264c-.463 1.173-.886 2.195-2.117 2.646.286.756.439 1.576-.37 2.11-.687.453-1.757.257-2.54.394-1.845.324-3.773.635-5.556 1.2l-.53-2.91.53.53h.264c-.275-1.487-.673-3.863.794-4.763v-.265h-.794c.35-1.938 1.573-3.851 2.534-5.556 1.497-2.657 2.889-5.954 5.668-7.532 2.143-1.217 4.124-.46 6.35-.797 3.75-.566 7.549-1.4 11.377-.852 5.722.817 10.704 5.018 14.4 9.177 1.504 1.692 3.285 3.122 4.121 5.295L325.406 250l4.233-.793 3.684 7.408 1.873 5.292c-1.5 1.512-1.943-.384-3.244-.97-1.265-.57-2.383.308-2.577 1.499m1.587-1.059 1.588 1.323-1.588-1.323M219.044 262.7l.529-.529v.53h-.53m-30.956 0-1.323-1.324v.265l1.323 1.058m-47.096 0 .794-.793-.264.793h-.53m-155.487-.088-.175-.088.175.088m443.707-.353.088-.176-.088.176m-85.284.177v-.265l-1.058-.264 1.058.529m-13.758-.088c-.205 0-.043-.132.088-.089l-.088.089m-34.925-.177.793-.264v-.265l-1.852-.265v-.264c1.99-.121 4.348-.14 6.086 1.058h-5.027m-9.525-1.323.529 1.588c-.999-.306-1.273-.788-.53-1.588m-86.783 1.588-.264-.265.264.265m-64.558 0-.265-.265v-.529l2.117-.53-1.852 1.324m-4.233 0v-.53l-1.059.53-.794-.794.265-1.058c-1.63-.446-1.815-1.047-2.117-2.646l1.588 2.116 1.852-.793c0 1.104 1.635 2.058.265 3.175m-16.14-.088-.087-.089c.13-.043.29.089.087.089m-15.081.088.264-.53-.264.53m-6.086 0v-.265l-1.058-.529-.265.265 1.323.529m-10.318-.265c.465-1.567 1.238-2.336 2.91-2.117l-.53 1.853-2.38.264m-8.203.265v-.53l.53.53h-.53m-47.36-1.588.794 1.059h.264v-.794l1.059.264v.53c-1.167.372-1.657.059-2.117-1.059m-47.625 1.588 1.323-1.852.53 1.323-1.853.529m454.554-.353c-.204 0-.042-.132.088-.088l-.088.088m-74.348.088v-.264h-1.058l1.058.264m-43.92-.088c-.205 0-.043-.132.088-.088l-.089.088m-13.229 0c-.204 0-.042-.132.088-.088l-.088.088m-80.433.088v-.529h.794v.53h-.794m-4.763 0 .53-1.853h.529l1.058 1.323-1.587.53h-.53m-.793 0-2.117-2.382.265-.794 2.116.53-.529.528v.265h1.058l-.793 1.852m-15.875 0-.265-.264.265.264m-8.732 0-.793-.529.793.53m-219.868 0v-.53h.529l-.53.53m-18.785 0c-1.235-.892-.894-1.811-.793-3.176l1.322-.264.265 1.852-1.323-.794.53 2.381m-30.163 0 .264-2.646h.265l.265 2.646h-.794m469.635-.264.53-.53v.53h-.53m-29.104 0-.265-.265.265.265m-18.785 0-1.059-1.853h2.911l1.323-1.058-.794-1.587 3.704 1.323-2.117-1.072-2.357-.926-2.54 2.444-1.717 1.406 2.646 1.323m-2.382 0-4.233-3.705h-.265l-.264 1.588 4.762 2.117m-82.285 0 .794-.794-.794.794m-32.015 0h-1.587l-.53-6.88c1.136.596 1.294 1.42 1.324 2.646l.793-.264-.264 1.852-.794-.265 1.058 2.91m-6.879-.088c-.204 0-.042-.131.088-.088l-.088.088m-111.125.089-.264-.265.264.265m-35.102-.177.09-.176-.09.176m-2.204-.617h1.323v.529l-.265.265-1.058-.794m-6.35.794v-2.91h-.265l-.529 2.645.794.265m-92.075 0v-.53l.53.53h-.53m-3.44 0v-.53h.53v.53h-.53m-53.975-.265v-.265l-1.058.265h1.058m306.211-.176.089-.177-.089.177m-85.019.176.53-1.588c-.882.19-.95.857-.53 1.588m-36.512 0 .264-1.588 1.323.53v.529l-1.587.529m-10.848 0 1.058-.53v-.264l-1.058.794m-11.994-.176-.09-.177.09.177m-16.052.176c.124-.611.127-1.3.447-1.852.725-1.25 2.304-1.852 1.405-3.44l-1.058 1.588.264-2.381c-.955 0-.22-.99 0-1.588H64l.793 1.852c-.275-1.475-1.034-2.38-1.436-3.718-.41-1.361.042-2.253-1.474-2.896l.265 4.233h.793l-.264 8.202m-13.23 0-.264-.265.265.265m-93.398 0-.265-.53h.53l-.265.53m-10.054 0-.794-.53 1.852-1.322.264.794.794-.53-2.116 1.588m-10.32 0 .265-1.323-.264 1.323m474.398-.265.529-3.44 1.058.795 1.059-.794 1.852.529c-.198-.888.69-2.633 1.475-1.237 1.397 2.48-3.812 3.294-5.18 3.354l.265.793h-1.058m-283.369-.529.265-.264.529.793-.794-.529m-16.14 0-.793.265.793-.265m-42.333.53-.265-.265.265.264m-18.785-2.38h-.265l-1.058 2.38 1.323-2.38m-63.236 2.38-.529-1.587c.878.29.99.685 1.058 1.587h-.529m-38.1 0v-.529h1.588v.53h-1.588m462.492-.265-.265-.265.265.265m-104.775 0h-.265v-1.323h.265v1.323m-32.808 0v-.53l-.53.53h.53m-66.675 0 .529-1.588c1.035.391 1.74.405 2.646-.264l-4.498-3.175-1.852.264.529 3.175h.264l.265-1.852h.53l1.587 3.44m-7.496-.177-.09-.176.09.176m-98.073.089-.087-.089c.13-.043.29.089.087.089m-2.117-.706 1.323.265c-.638.44-.897.382-1.323-.265m-1.587.794.793-.53v.265l-.793.265m-35.72 0-.264-.265.265.265m-8.38-.177.09-.176-.09.176m-144.55.177 1.06-.794-1.06.794m451.115-.265-.264-.264.264.264m-56.885 0-.794-.793.794-.265v1.058m-32.544 0-.529-.529v.53h.53m-49.743-.265v-.265l.794-.264.418-2.072.376-3.22h.53v5.556h.264l.793-2.117h.265l.53 1.323h-.53c.03 1.872-2.174 1.113-3.44 1.059m-130.175.264v-.794h-.529v.794h.53m-12.171 0-.53-.529.53.53m-30.25-.177-.09-.176.09.176m-7.586.176-.794-.794.794.794m395.817-.264-.265-.265.265.265m-102.747-.177-.088-.176.088.176m-43.832.177.793-.794-.264.794h-.53m-2.645 0 .53-.53v.53h-.53m-38.541-.088-.176-.089.176.089m-20.108-.089.088-.176-.088.176m-11.995.177-.264-.265.264.265m-178.064-.088c-.204 0-.043-.132.087-.089l-.087.089m357.98-.177.53-1.058-.53 1.058m-27.78 0 2.645-1.587c-.578 1.113-1.425 1.461-2.645 1.587m-16.934 0 1.852-2.381-3.704 1.587 1.852.794m-44.45 0-.529-1.058c.7.15.888.42.53 1.058m-20.11-1.323v.794h-.264c-1.62-1.754-1.168-2.658 1.059-3.175v.264l-.794.265v.265l6.085-1.588c-.094.663.132 1.945-.282 2.476-.93 1.195-3.525.205-4.48-.36l1.323 1.588c-1.014.99-1.735.31-2.646-.529m-215.37 1.323v-.53h.528v.53h-.529m-107.95 0c-1.238-.3-2.164-.277-2.646-1.587l2.91.529-.264 1.058m-8.731 0-.53-1.852.53 1.852m-6.086 0-1.587-2.91.794.529c1.712-1.225 2.394 1.498.793 2.381m446.088-.794.794.53-.794-.53m-143.669.53-.794-.53.794.53m-32.544-.089c-.204 0-.042-.131.088-.088l-.088.088m-1.323.088.794-1.322-.794 1.322m-76.464 0 .264-1.322c-1.944-.723-2.235 1.169-.264 1.322m-43.656-.264 2.116-.53v.53h-2.116m-16.934.264-.264-.264.264.264m-88.635 0c-.569-.885-.344-1.564.53-2.116l-.53 2.116m-17.992 0v-.529h.53v.53h-.53m-8.996-.53 1.323.53-1.323-.53m468.577.265-.529-.53.53.53m-100.983-.088-.176-.089.176.089m-24.695.088.265-1.058-2.381.529-.265-.265v-.529l3.969-.265-.53.794 1.853-.529c-.641 1.108-1.694 1.267-2.91 1.323m-7.674 0 .265-.794-1.323-.264v-.265h2.381c-.152.92-.403 1.17-1.323 1.323m-4.233-4.498 1.058.265c-.068 1.826 1.478 1.738 2.91 1.587l-1.587.794.794 1.852-3.157-.689-.018-3.809m-4.762 4.233 1.058.265-1.058-.265m-9.525.265.264-.794 1.059.794h-1.323m-25.136 0-.264-.265.264.265m-190.5 0v-.53h-.529v.53h.53m-17.111-.088-.175-.089.175.089m-59.09.088.53-2.91-1.588 1.058-.707-5.821.972-3.704-1.059.794.53-2.382c1.806.52 3.259 1.376 3.968 3.175 1.831-1.152 4.355 2.22 5.82 3.175v.53l-2.489 1.199-1.214 1.71v-1.057l-3.704 1.852.793.529-1.323 1.852h-.529m-55.033-1.058-1.323 1.058 1.323-1.058m-3.262.881-.09-.176.09.176m-13.142.177v-.53l.529.53h-.53m494.683-.441-.088-.176.088.176m-71.084.176-.265-.264.265.264m-101.071 0v-1.852h-.265l-.793 1.588.793-.53.265.794m-16.669 0-.264-.264.264.264m-121.973 0 .794-.529v.265l-.794.264m-16.933 0 1.058-.793-1.058.793m-6.702-.176-.09-.176.09.176m-2.117 0-.09-.176.09.176m-81.669-.088v-.53l1.588.53h-1.588m-19.05.264.794-1.323-.794-1.058h-.264l.264 2.381m-17.727 0-.264-.264.264.264m363.273-.264-3.44-1.588c1.165-.23 3.475.046 3.44 1.588m-41.804 0-1.058-4.763 2.91.53v.264l-1.058-.265v.265c2.775 1.326 1.468 3.185-.794 3.969m-4.762 0 .264-.794-.264.794m-178.859 0-.264-.265.264.265m-109.537 0v-1.852l.529 1.852h-.53m446.882-.794-1.058.265 1.058-.265m-173.302.53.264-.53h.265l.265.53h-.794m-58.56-.177-.09-.177.09.177m-86.961.176c.42-.755 1.13-1.17 1.617-1.88.68-.996.47-1.863 1.823-2.089v-.264h-.53v-.265l.794-.264v-.265c-.854-.542-2.844-3.6-1.238-4.29.942-.405 1.611.425 2.106 1.071 1.135 1.479 1.92 2.058 1.249 4.013 1.804 1.58-1.844 4.354-3.44 2.91h-.264l-2.117 1.323m-39.423-.088-.087-.088c.13-.044.29.088.087.088m-22.931 0-.175-.088.175.088m-17.286.088 1.323-.529-1.323.53m-94.72 0c-.199-1.365-1.704-2.08-1.874-3.21-.283-1.874 3.8-.79 4.52-.495v.53l-2.117 1.587 1.587-.53.265.265c-.521 1.092-1.193 1.612-2.381 1.852m-98.955 0 .794-.529-.529-1.058h-.265v1.587m461.963-2.381.794-.265.264.794c1.21-.407 2.631-.283 3.44.794-1.168-.296-1.975-.533-2.381.794l-2.117-2.117m-255.588 2.117-1.058-.53.265-1.323h.264l.53 1.853m-2.646 0v-.53h.529v.53h-.53m-52.122 0v-.53l.529.53h-.53m-3.968 0v-.53l.53.53h-.53m-9.612-.177-.09-.176.09.176m483.48-.088-3.703-.53v-.264l2.645-.529 1.323 1.058-.264.265m-219.34-.265-.53-1.323-1.322.265.53 1.323 1.322-.265m-28.84.265.53-.53v.53h-.53m-91.545-.265.529-3.175c1.33.654 1.74 1.516 2.117 2.91l-2.646.265m-25.93.265v-.53l-.529.53h.53m-161.044-.088-.175-.088.175.088m379.59-.265c-.205 0-.043-.131.087-.088l-.088.088m-21.166.088-.265-1.058h.265v1.058m-126.207 0v-.529h.53l-.53.53m-37.748-.177.09-.176-.09.176m-276.047.176.793-.793-.264.793h-.53m446.353-.264-.265-.53h.53l-.265.53m-23.02 0c-.67-.757-1.584-1.64-.528-2.381l.529 2.38m-75.142-1.322h-.264l-.53.53.265-.53h-.265l-.264 1.323 1.058-1.323m-50.358 1.146-.09-.176.09.176m-53.358.177-.265-.265.265.265m-103.188-.53.794.53-.794-.53m-177.535-.529v-.529l-.794-.264 2.117-1.588v-.264l-3.175.793 1.852-2.116-2.646 2.116v.265l.529.53-.794-.265-1.852 1.852c1.757.754 3.133.303 4.763-.53m639.498.706c-.205 0-.043-.132.088-.088l-.088.088m-144.198-.176v-.265l1.587.265h-1.587m-152.136.264c-.357-.247-3.24-2.736-1.317-2.742.7-.002 1.476 1.105 2.111 1.42l-.794 1.322m-23.9-.176-.09-.176.09.176m-32.985.176.264-.264-.264.264m-51.065 0 .53-1.852h-.265l-.794 1.588.53.264m-48.42 0-.529-1.058.53 1.058m-27.517-.794-1.059.794 1.059-.794m433.387.53v-.265l1.059-.265-1.059.53m-65.616 0v-.265h-.794l.794.265m-78.317 0 1.058-1.588c-.713-.226-.896-.225-1.058.53l-1.323-.265 1.323 1.323m-71.702 0v-.265h-1.058l1.058.265m-37.042 0v-.53h.53l-.53.53m-40.568-.177-.09-.176.09.176m-2.294.177.794-2.646.264 1.058v.265l-1.058 1.323m-17.463 0-.264-.265.264.265m-11.641 0-.794-.794.794-1.323h.264l-.264.794.793.264-.793 1.059m-13.759 0v-.53l.53.53h-.53m-1.058 0 .265-1.323h.264l-.53 1.323m-65.087 0v-.794l.53.794h-.53m-9.525 0-.264-.794.794.53-.53.264m-42.333 0-.265-.794.794.53-.529.264m-10.319-.53v-.529c1.966-.947 3.895-.593 5.821.265-1.738.924-4.008.943-5.82.264m-11.907-1.058-1.852 1.588 1.852-1.588m-92.075 1.323c-.833-.944-2.537-1.767-3.44-.53l3.44.53m593.372-.176-.088-.177.088.177m-68.174.176-.794-1.852c.585-.66 3.204-1.551 2.932.243-.132.865-1.458 1.315-2.138 1.61m-24.606 0-.265-.266.265.265m-70.115 0 .53-.265v-.264l-.53.53m-12.435 0 .264-1.588v-.265l-1.587.265 1.323 1.587m-17.55-.176-.09-.177.09.177m-1.236.176-.793-.794.793.794m-70.643 0v-.53l.529.53h-.53m-87.841 0-.265-.265.265.265m-55.033 0v-.794l.793.265-.793.53m-169.334 0v-.266l1.852-.264-1.852.53m580.231-.266-2.116-1.322-.265 1.058 2.381.264m-50.535 0v-.793h-.265l.265.793m-13.494 0 .265-.529-.265.53m-57.943 0-.53-.794.53.793m-1.853 0 .53-.529v.53h-.53m-11.906-.089c-.204 0-.042-.131.088-.088l-.088.088m-92.34.088v-.529h-.529l.53.53m-34.396 0-.265-.265.265.264m-3.969 0 1.058-1.587-1.058 1.587m-6.085-1.058.264-.794 2.117 1.852-2.381-1.058m-59.002 1.058-.53-.793.265-.265.265 1.058m-29.634 0c.57-.862 2.662-3.05.794-3.44l-.794 3.44m-63.764 0-.265-1.322h.265v1.322m-33.867 0-.265-.264.265.264m469.635-.793.794.529-.794-.53m-43.391.53c.002-2.331.507-4.881 2.91-5.82l-.529.793 1.323-.265c.445 1.869.027 5.377-2.646 4.234l-.53 1.058h-.528m-110.067 0 .53-.53-.53.53m-61.648 0v-1.323h-.264l.264 1.323m-35.983 0c-.188-1.193-.778-1.638-1.852-2.117v-.264c1.841-.294 1.545-1.733 1.058-3.175h-.265c-.1.901-.463 1.107-1.322 1.323v2.38l2.38 1.853m-268.551 0 1.587-1.058v-.265l-1.587 1.323m473.868-.265.794-1.323v1.323h-.794m-46.566 0v-1.587h-.265l.265 1.587m-44.186 0-1.058-1.323 1.058 1.323m-27.516 0-.265-.529h.53l-.265.53m-67.734 0-.264-.265.264.264m-1.94-.176-.088-.176.088.176m-168.451.176.529-.793v.793h-.53m-42.597 0v-1.323L.5 254.763l.529-1.852c1.265.616 3.133 2.428 1.323 3.44m-5.292 0v-.53h.53v.53h-.53m-26.458 0v-.794l.529.793h-.53m-64.735-.088-.174-.088.174.088m534.107-3.616 2.116.794-1.058-1.323 1.058-.265c2.06 2.396 6.536 1.007 8.202 3.44l-7.937-1.852 3.175 2.381c-2.315.904-5.496-.695-5.556-3.175m-119.063 2.646v-.265l-1.852 1.059 1.852-.794m-102.746.617-.089-.176.089.176m-124.266.177-.265-.265.265.265m-7.673-.53 2.646-2.116c.367.85.055 2.667-1.059 1.587h-.264l-.265 1.059-1.058-.53m-108.48.53c1.583-1.19 3.858-3.16.794-4.234v.265l1.059.265c-.408 1.392-1.657 2.264-2.91 2.91v.265l1.058.529m393.435-.265-.265-.264.265.264m-29.721-.176-.089-.177.089.177m-3.352.176-.53-.529.53.53m-83.873 0-.529-.53v.53h.53m-12.436-.53-.265-.265-.529.794.794-.529m-34.573.441-.176-.088.176.088m-14.64.088-.529-1.852h-.265l-.264.794v.264l1.058.794m-25.135 0v-.264h.794l-.794.264m-68.263-1.058v-.265h.794l-.794-1.058 1.323.53.53-.53h.264l1.323 1.323c-.804 1.38-2.238.463-3.44 0m-.264 1.058.264-.264-.264.264m-106.892-.264v-.265l-1.058.265h1.058m347.663 0-.265-.53h-.265l-.264.53h.794m-74.613 0 .794-2.382h-2.646v.265l1.852 2.117m-40.481 0v-1.323l-1.852-.265 1.058-1.587.53 1.322h.264v-1.058c1.06.69.617 1.794.529 2.91h-.53m-73.553 0c-.125-1.642-1.114-2.305-2.646-2.645l2.116 2.646h.53m-68.792-.794 1.587-.794 1.059-2.91h.264l.53 1.587h.264v-4.233l5.027.794-2.646 3.175-.793-.265c-.582 1.222-1.665 3.061-3.175 3.231-.696.078-1.466-.385-2.117-.585m-68.527.794v-.53l-.53.53h.53m-6.88 0-.264-.794.265.794m-145.257-.265 1.323-.794c-.227.802-.508.869-1.323.794m513.821 0-.264-.265.264.265m-92.604 0-.529-4.763h.265l.264 4.763m42.863-.265-1.059-1.587-1.058.794 2.117.793m-18.786-.264.265-.794c-2.037.217-4.201-.128-6.086-.95-.716-.311-1.733-.372-1.852-1.167l-1.587 1.588 1.587-.265.265.794c1.13-.51 1.983-.281 2.91.53-1.241.363-2.387.253-3.44-.53h-.264c-.457.627-2.108 1.053-2.416-.038-.21-.744.909-2.5 1.437-2.964 2.944-2.589 10.45.323 10.769 4.06l-1.588-.264m-17.286.088-.088-.176.088.176m-76.376.176-.53-1.058.53 1.058m-12.965 0 .265-.529-.265.53m-24.87-.089c-.204 0-.043-.131.087-.088l-.088.088m-55.562.088-.265-.264.265.264m-48.154 0 .529-1.323h.264l-.793 1.323m-93.398 0v-.529h.529l-.53.53m-48.418 0-.265-.265.265.264m-80.698-.264v-.265l1.852-1.852v.53c1.096-.27 2.46-.806 3.175.264l-5.027 1.323m595.577-.088-.088-.089c.13-.043.293.089.088.089m-133.35.088v-.53h.794v.53h-.794m-2.646 0 .794-.53-.794.53m-40.48 0 1.057-1.323-1.058 1.323m-79.904 0-.53-.53.53.53m-98.073-.177.09-.176-.09.176m-46.39.177.265-.53h-.53l.265.53m-69.056 0-.264-1.588-1.059 1.059 1.323.529m-3.704 0-1.323-2.91c-.135 1.196.302 2.459-1.058 2.91-.881-1.144-1.627-1.896-.53-3.175l.265 1.323h.265l-1.059-2.646 3.705.53-.53.528.265 3.44m-33.867 0 .265-.265-.265.265m-28.575 0v-.53h-.529l.53.53m-43.922 0v-.265h.794l-.794.265m-23.547 0-.53-.794.53.794m549.01-.265c-.264-1.214-.95-1.425-2.117-1.587l.53 1.323 1.587.264m-61.56-.088-.176-.088.176.088m-5.82 0-.177-.088.176.088m-44.273-.176-.265-.794-.794.264 1.323-4.233-1.852 1.852c0-3.702 1.087-6.41 3.094-9.525 1.19-1.847 2.315-3.313 4.58-3.704-.594 2.06-2.174 7.03-4.499 7.408v.265c1.866 1.21-.063 3.177-1.058 4.233 1.215.199 2.049 1.293.794 2.117l1.058 2.381-2.381-.264m-14.817.264v-.529l-.529.53h.53m-111.39 0 .264-1.06h-.264v1.06m-56.886-1.588.265.793-5.557.265c.673-1.408 1.665-1.815 3.175-1.852.366-2.23 2.12-1.392 2.646.265 1.498-.991 1.73.695 2.117 1.852-1.286.242-1.72-.564-2.646-1.323m-80.698 1.587-.264-.264.264.264m-123.031 0-.265-.264.265.264m-70.115 0-.264-.264.264.264m532.607-.264-.265-3.175h1.058v-.265l-1.058-.265.265-.793c-1.277-.739-1.475-2.322-1.588-3.704h1.588l1.587-2.91-4.498 1.322 1.798 7.144 1.113 2.646m-269.346 0-.265-.265.265.265m373.062-.353c-.204 0-.042-.132.088-.088l-.088.088m-21.166-.177v-.264h-2.382v.53l2.382-.266m-57.415-2.645c-1.486.505-2.361 1.61-3.175 2.91l3.175-2.91m-40.217 2.91v-1.058h-.264l.264 1.058m-28.31 0 .53-.53v.53h-.53m-55.65-.176-.089-.177.088.177m-168.98.176-.265-.265.265.265m-32.544-.53-1.323-.264.265.794 1.058-.53m-5.82.53.264-1.323h-.265v1.323m-5.292 0-1.587-.794 1.587.794m-39.158 0-2.117-2.117c1.054.297 2.043.952 2.117 2.117m-59.531 0 .264-1.852 1.853 1.058c-.506-.546-1.347-1.176-.794-1.852v-.264l-1.059-.265v-.265l3.44-1.058-1.587.265v-.265h.529v-.264l-2.382.264c.008-2.805 1.358-3.267 3.97-2.646l-1.324 1.588c.606-.003 1.424-.245 1.948.15.907.684 2.09 4.352 1.05 5.133-.548.41-1.326.137-1.94.108-1.301-.062-2.653.165-3.968.165m361.95-.265v-.264l-3.969-.794v.265l3.969.793m-89.694 0-.529-2.38c.727.71.927 1.422.53 2.38m-265.113 0-.265-2.116v-.265l2.646.265h1.852c.677-1.29 1.847-1.337 3.175-1.588l.265 1.588-2.382.264v.265l1.852.794v.264l-3.968.265-2.382-.265v.53h-.793m487.627-.265-.265-.265.265.265m-112.713-.53-1.058.265 1.058-.264m-139.17.529-.53-1.323-1.323-.265 1.852 1.588m-44.45 0 .265-.265-.265.265m-30.514-.177-.09-.176.09.176m-32.986.177-.793-2.381h-.265l1.058 2.38m-132.556 0-.264-.264.264.265m-107.156 0v-.794l-1.058.265v.264l1.058.265m481.277-.265.265-1.058h-1.853l1.588 1.058m-32.544-.793-2.116-.265c.667.973 1.264 1.13 2.116.265m-70.908.793v-1.058h.264l-.264 1.058m-127.53 0c.252-3.337 4.544-3.825 7.144-4.498l.265.265-.265 1.323c-3.262-.412-4.42 1.624-7.143 2.91m-.794 0v-.529h.53v.53h-.53m-44.185-.53h-.794l.264.53.53-.53m-4.85.353-.09-.176.09.176m-18.698.176-.265-.264.265.264m288.395-.352c-.204 0-.042-.132.089-.089l-.089.089m-135.466-.177.529-.529v-.265c-.558-1.003.569-1.714 1.548-1.227.635.315.733.864.833 1.492l-2.91.53m-79.552.176-.175-.089.175.089m-24.694.088.794-.794-.265.794h-.529m-19.137-.177-.09-.176.09.176m-7.85.177v-.53h-.53v.53h.53m-2.117 0-.53-.794.53.794m-42.069 0 .794-2.117.794.794-1.588 1.323m-20.637 0v-.53h-.53l.53.53m-56.092 0-.265-.265.265.265m-1.058 0v-.53l-.53.53h.53m-101.336-.265v-.264l-1.323-.265c.183.854.556.799 1.323.53m632.09-.265-1.323-.53 1.323.53m-51.33.264h-.264c-.235-1.103-.026-1.865.794-2.646l-.53 2.646m-254.264 0v-1.058h-.265l-.264 1.058h.529m-84.667 0v-.264l-1.058-.53v.794h1.058m318.559-1.058-.53.794.53-.794m-15.61.794-.265-.265.264.265m-55.827-.089-.088-.088c.13-.043.293.088.088.088m-115.887.089-.794-1.588.794 1.588m-12.965-.265v-.265l-1.587.265h1.587m-104.51.265.264-.265-.264.265m-234.157 0 .265-.53-.265.53m431.271-.265-.264-.265.264.265m-242.887 0 3.704-.794v-.529c-1.013.043-3.919-.114-3.704 1.323m-123.032 0v-.265h-1.058l1.058.265m-16.404 0-.264-.265.264.265m-75.141 0v-1.058h-.265l.265 1.058m614.627-.265-.265-.264.265.264m-3.263-.176-.089-.176.089.176m-62.619.176L361.127 250l.264 1.059 1.852.793m-44.45 0-.264-.264.264.264m-19.226-.088-.176-.088.176.088m-66.94 0-.176-.088.176.088m-34.219.088c-.593-.848-1.397-.951-2.381-.793l2.381.793m-37.042 0 .53-.529v-.264l-.794-2.646h-.265l-.264 2.646v.264l.793.53m-61.912 0-2.117-3.176c1.117.426 1.54 1.209 1.588 2.382l.529.793m-72.76 0 .529-.529v.53h-.53m-64.822 0v-.265l1.058-.794c-1.598.803-3.011 1.038-3.44-1.058 1.46-.016 2.802-.616 4.228-.097 2.93 1.067-.484 2.185-1.846 2.213m-73.29 0v-.264h-1.323l1.323.264m548.305-.352-.176-.089.176.089m-55.915.088.264-.794-.264.794m-161.66 0 1.057-2.117-.529 1.058-.529 1.059m-62.177 0-1.058-.794 1.058.794m-9.702-.088-.175-.089.175.089m-52.033-.089-.09-.176.09.176m-53.359.177v-.794h-.264l.264.794m-37.306 0-.794-2.91.794 2.91m-17.198-5.821c1.503-1.758 3.755.279 5.556.794l-1.058-1.323c1.78.74 3.352 1.75 5.027 2.678 1.373.762 3.183 1.555 3.704 3.143l-5.82-3.44c1.105 1.367 3.177 1.95 2.645 3.969l-3.175-2.058-6.879-3.763m405.783 5.38-.089-.177.089.177m-74.26.176-.265-.264.265.264m-246.062 0 .529-1.058h.264l-.793 1.058m-29.37 0-.264-.264.265.264m-65.881 0 1.587-.794-.53-1.322-1.587.793.53 1.323m252.677-.264.264-.265-.264.265m-14.817-.089c-.205 0-.042-.131.088-.088l-.088.088m-42.598.089v-1.323l.53 1.323h-.53m-30.692 0-.529-1.059.53 1.059m-15.611 0 1.587-1.588-1.587 1.588m-55.033 0 .529-.794v.794h-.53m-94.985 0v-1.588h-.264l.264 1.588m459.581-1.852 2.382 1.587c-1.12-.203-1.849-.562-2.382-1.587m-19.843 1.587-1.323-1.058 1.323 1.058m-123.56 0v-.265l-6.086-1.322v.529l6.085 1.058m-26.987 0-.794-.794.794.794m-42.069 0V250h.53v.794h-.53m-2.91 0 .529-.794-.53.794m-119.591 0 .265-.53h-.53l.265.53m-14.552 0 .53-.794-.795-.793.265 1.587m-77.788 0 .265-.53H8.7l.265.53m-55.827-2.381c.098.421.244.86.201 1.3-.182 1.913-3.598.762-2.823-.352.41-.593 1.956-.705 2.622-.948m-67.468 2.116v-.264l-1.059.529 1.059-.265m-6.086.265V250h-.264l.264.794m480.748-.265-.53-.793.53.793m-42.069 0-.264-.264.264.264m-74.348 0V250h-.793v.53h.793m-97.63 0-.265-.265.264.264M113.211 250l-1.058.265 1.058-.265m-5.291.53.529-.53v.53h-.53m-51.858 0 1.588-.265-.53-2.117h-.793l-.265 2.381m-95.779 0V250l-.53.53h.53m414.073-.265 2.91-1.323v-.265c-1.816-.525-4.567-1.77-5.82.265h1.852v-.794l1.852.265-.794 1.852m-34.925 0v-1.852h-.265l.265 1.852m-117.122-.177.088-.176-.088.176m-28.399.177v-.53h-.529l.53.53m-79.64 0-1.853-1.852.53.529-.265.794 1.588.529m-80.434 0 .265-.794-.265.794m-24.077 0L9.495 250l.264.265m-29.017-.088-.174-.089.174.089m-100.629.088.265-.53-.265.53m-29.898 0-.264-.265.264.265M191.792 250l.265-.264v-.529l-.794.793h.53m-33.867 0-.265-.264.265.264m-54.504 0-.265-1.058h-.265V250h.53m-63.5 0 .264-.793-.264.793m-22.577-.176-.09-.176.09.176m-50.713-.617c-.23.097-.553.316-.836.315-2.384-.007-.826-3.126.571-.845l2.646-.793.265 1.587c-1.024.433-1.963.787-2.646-.264m-11.906.793-.265-1.587h.53l-.265 1.587m261.144-.264 1.058-1.059-1.058 1.059m-31.044-.177-.09-.176.09.176m-79.552-.088v-.264l-1.059.264h1.059m298.45 0c.221-1.29 1.175-1.637 2.381-1.852-.522 1.092-1.194 1.612-2.381 1.852m-196.321 0 .264-.794-.264.794m-52.917 0 3.44-2.298 2.116.446-1.058-3.704h-.264l-.688 2.03-4.075 3.262.53.264m-8.026-.176-.09-.177.09.177m-136.966.176.793-1.323v-2.91H9.76c-.72 1.43-1.053 2.75-.264 4.233m-33.603 0-.529-1.852h-.264l.793 1.852m470.694-.264-.264-.265.264.265m-128.5-.089-.175-.088.176.088m-79.992.089.264-.794-.264.794m-88.107 0-.264-.53.793.265-1.058-.794.53 1.059m-136.79 0v-.53l-.53.53h.53m377.56-.265.265-.53-.265.53m-173.302 0 .53-.53v.53h-.53m-33.073 0-1.587-1.058v1.058h1.587m-24.254-.088-.175-.089.175.089m-85.019.088.794-.53v-.264l-1.058.53.264.264m-13.494 0v-.265h-.793l.793.265m330.994-.265-.264-.264.264.264m-22.754 0-.265-.264.265.264m-86.519 0 1.059-3.44h.264l-1.323 3.44M8.524 248.59l-.175-.088.175.088m-31.486 0-.175-.088.175.088m-27.075.088.794-1.058.265.794-1.059.264m501.738-.352-.176-.089.176.089m-33.954.088.529-.53v.53h-.53m-6.085-.265v-.264l1.059.529-1.059-.265m-40.746.265v-.265h-.793l.793.265m-36.248-.265v-.264l-1.058.264h1.058m-108.214.265-.265-.265.265.265m-4.233 0-.265-.53h.53l-.265.53m-11.907 0-.793-.794.793.794m-16.933 0-.265-2.117-.793.265c-.05-.887-.061-1.607-1.059-1.588l2.117 3.44m-83.344 0-.529-.794.53.794m-37.307-.53 1.323-1.587v-.264l-1.588 1.058h-.264l-1.059-2.646h-.264l-.53 3.969 2.382-.53m-83.873.53-.265-.265.265.265m-130.44 0-.529-1.588h-.264l.793 1.588m580.408-.441-.088-.177.088.177m-46.478.176-.53-1.587h-.264l.794 1.587m-20.902 0-.265-.264.265.264m-222.78 0-1.058-1.058 1.058 1.058m-46.302 0-.264-.264.264.264m-17.462 0v-.264h-1.852l1.852.264m-215.106 0v-.529h-.53l.53.53m373.591-.265 2.646-5.027c-2.1.732-3.333 2.793-2.646 5.027m-226.483 0-.265-.265.265.265m351.102-.265c-.983-1.169-5.104-1.64-6.35-.794l6.35.794m-47.008-.088-.176-.088.176.088m-158.309.088.53-1.587v-.265l-1.059-.794c-.42 1.193-.503 1.786.53 2.646m-30.78-.176-.09-.177.09.177m-226.131.176.264-1.323h-.264v1.323m200.025-.265-1.323-.793 1.323.793m254.794-.529c-.277-1.589-1.527-1.112-2.646-.529l2.646.53m-18.169.176-.176-.089.176.089m-198.525.088-.265-.265.265.265m-62.97 0 .264-1.058h-.265v1.058m-87.577 0-.265-.265.265.265m413.808-.53.265-.528c-2.622-.968-4.477-2.856-6.88-4.117-1.667-.876-3.788-1.251-4.762-3.027l4.747.595 1.906 1.717 7.106 4.567v.53l-2.382.264m-165.1.264-.264-.264.264.264m-40.746 0v-.264l-.793-.265.793.53m-66.675 0v-.53h.53v.53h-.53m-9.79-.089c-.203 0-.041-.132.088-.088l-.087.088m-15.081.088v-.793h-.265l.265.793m-75.671 0 .264-2.381c-1.05.701-1.55 1.655-.264 2.381m-11.2-.176-.09-.176.09.176m-71.35.176h-1.852v-.264c.545-.208 2.209-.767 1.852.264m506.941-.264v-.53l-1.322.265 1.322.265m-118.268 0-.265-.265.265.265m-92.869 0-.265-.265.265.265m-230.717 0-.264-.265.264.265m-43.656-1.852.53 1.852c-1.104-.329-1.713-1.156-.53-1.852m-51.065 1.852.265-1.059h-.265v1.059m534.988-.265-.794-.53.794.53m-113.506 0v-.264h-1.323l1.323.264m-22.754-.794-.794-.264 1.587-2.117c-.87.176-1.476.396-1.587 1.323h-5.027c.883 1.684 4.269 2.004 5.82 1.058m-133.085.794-.794-1.058.794 1.058m-52.917-.264 1.588-1.323-.794.793.53.53h-1.324m-5.733.176-.175-.088.175.088m-52.475.088v-.53l-1.587.265 1.587.265m389.202-.265v-1.587l-1.852-.53-.264 1.324 2.116.793m-203.994 0-.264-2.116h-.265v2.117h.53m-164.836 0-.265-.265.265.265m-74.083 0c-.527-3.572-2.008-7.927-3.704-11.113h-.265l2.291 6.615 1.678 4.498m-41.363-.177-.09-.176.09.176m197.996-.088-.53-.53.53.53m-59.002 0v-2.91h-.265l.265 2.91m-56.356 0-.265-.265.265.265m-25.136 0v-.53h-.529l.53.53m-22.226 0-.264-.265.264.265m418.042-1.323v-.265h-1.852l-1.058 1.059c1.18.49 1.976-.06 2.91-.794m-186.796 0-1.323 1.058 1.323-1.058m-5.82 1.058-.794-1.058.793 1.058m-177.535 0 .264-1.058h-.264v1.058m-78.052 0c-.265-1.168.18-1.498 1.323-1.587l-1.323 1.587m406.135-.264c-.182-1.587-2.033-2.642-3.175-3.704l1.323-.53v-.264c-2.225.602-2.925-.14-5.027-.794v.265c1.26.835 2.333 1.26 1.852 2.91 1.035-.214 1.589-.16 2.117.794l2.91 1.323m-1.235-.088-.176-.089.176.089m-165.452.088v-2.117h-.265l.265 2.117m-129.646 0-.53-.794.53.794m-39.158 0-.265-.265.265.265m303.741-.265v-.264h-1.323l1.323.264m-183.356 0 .53-1.587c-1.517-1.515-1.123-3.612-1.578-5.557-.772-3.296-1.108-6.721-1.709-10.054-.384-2.11-1.12-4.202-1.212-6.35h-.264c0 2.144.182 4.236.55 6.35.177 1.012.664 1.991-.286 2.646l.945 3.151-.355 3.198 1.146 2.396-.148 3.161.264-.793h.265l.264 1.852 1.588 1.587m-98.16 0 1.058-.264c-.048-1.08-.098-2.04-1.058-2.646v2.91m114.3-.264-.53-.794-.264.264.264.53h.53m-2.646-.53-2.646-.793h-.265l-1.323.793c1.297.624 2.974.754 4.234 0m-57.415.53.265-1.059h1.852c-.36 1.02-1.125.976-2.117 1.059m-271.198 0-.264-.265.264.265m-6.614 0-.53-.794.53.794m466.99-.794-.795.53.794-.53m-143.756.353-.09-.177.09.177m144.815-.088-.265-.265.265.265m-61.648 0-.265-.265.265.265m-281.43-.089-.174-.088.174.088m-91.897.089.793-1.853-.793 1.853m338.843-.442-.089-.176.089.176m-54.946.177v-1.058h-.264l.264 1.058m-26.37-.088-.175-.089.174.089m-9.79-.089.09-.176-.09.176m-10.934-.088h-2.117 2.117m-57.15.265v-1.058h-.265l.265 1.058m-90.488 0v-.265h-1.323l1.323.265m221.721-.265.265-.529h-.53l.265.53m-7.408-.794-1.059.529 1.059-.53m-4.763-1.587-1.323.265 1.059 1.587h-1.323c1.476 1.018 1.778-.682 1.587-1.852m-59.531 2.381-.265-.264.265.264m-66.94 0-.793-.793.793.793m200.82-.264-.266-1.059-1.058 1.059h1.323m-30.956 0 .264-.53-.264.53m-101.6 0v-.53l-.53.53h.53m-17.198 0-1.323-2.646h-.265l-.264 1.852 1.852.794m-141.288 0-.264-.265.264.265m-26.458 0v-.53h-.53l.53.53m306.388-.53v-.264l-1.059.265h1.059m-71.967.264.529-.529-1.058-3.969h-.265l.794 4.498m-20.373 0-1.058-2.381h-.265l1.323 2.381m-27.252 0-.53-.529v.53h.53m-15.61 0-.265-.265.264.264m-83.695-.176-.09-.177.09.177m193.233-.088-.53-1.588h-.264l.794 1.588m-43.92 0-.265-.265.264.265m140.758-.265v-.265l-3.175-.264 3.175.529m-90.487-1.323-1.852 1.058 1.852-1.058m-94.104 1.147.09-.177-.09.177m-94.28.176-.264-.265.265.265m-188.648 0-1.323-1.323 1.323 1.323m387.085-.265.265-.529h-.53l.265.53m-22.49 0v-.794h.53v.793h-.53m-84.402-.793-2.116.529c.88.366 1.59.285 2.116-.53m-9.437.706-.175-.088.175.088m-67.556.088-.265-.264.265.264m322.791-.264-.264-1.588h-.265l.53 1.588m-119.063 0-.265-.265.265.265m-35.63-.088-.177-.089.176.089m-98.248-.177v-.264l-1.323.264h1.323m-180.533.088-.09-.176.09.176m-71.35.177-.265-.265.264.265m356.923-.265-.264-.264.264.264m-85.196-1.058-1.587.794 1.587-.794m-18.52 1.058.264-.794-.794.53.53.264m-60.855 0v-.264l-1.058-.265 1.058.53m11.555-.442-.09-.176.09.176m-106.54.177-.53-3.175h-.264l.794 3.175m-73.996-.088-.175-.089.175.089m503.944-.706.794.53-.794-.53m-183.885.53.793-.795-.793.794m-82.109-.176-.09-.177.09.177m-14.729.176.265-1.058-.265 1.058m-94.456 0-.794-.794.794.794m-67.117-.088-.175-.088.175.088m93.84-.177v-1.322h-.794l.794 1.322m-72.938-.088-.175-.088.175.088m-19.137.088-.265-.264.265.264m-16.404 0-1.323-3.175h-.265c.071 1.283.503 2.43 1.588 3.175m-39.688 0-.265-.264.265.264m288.131-.793-.793.264.793-.264m-5.82.529 2.116-2.91c-1.333.516-2.58 1.4-2.646 2.91h.53m-1.323 0-1.059-.794 1.059.794m-120.121 0v-.265l-1.059-.264 1.059.529m-214.048 0-.794-.53.794.53m370.946-.265-.794-1.058.794 1.058m-134.409 0-.264-.264.264.264m-80.433 0-.265-.264.265.264m450.938-.352-.176-.089.176.089m-227.365.088-.265-.265.265.265m-69.586 0-.264-.265.264.265m-88.37 0-.265-.265.265.265m-9.525 0-1.852-1.323v.264l1.852 1.059m-160.073 0-.265-.265.265.265m487.098-.265-.265-.264.265.264m-255.41-.176-.09-.177.09.177m-110.067 0-.09-.177.09.177m366.006-.088-.265-.265.265.265m-339.196-.265.265-1.323h-.53l.265 1.323m-93.663 0-.264-.265.264.265m-108.479 0-.264-.265.264.265m388.673-.265-.264-.264.264.264m-30.956 0-1.058-.793 1.058.793m-52.123 0 1.058-.264-1.587-.794.529 1.058m-45.244 0-.529-.529v.53h.53m-1.588 0c.862-1.63.23-2.784 0-4.499-1.41 1.061-.812 3.207 0 4.498m-48.684 0v-.529h-.529l.53.53m-10.055 0-.264-.265.264.264m-146.314 0v-.793h-.265l-.264.793h.529m119.591-.264-.264-.265.264.265m155.575-.265-.793-1.058.793 1.058m-106.627 0-.264-1.058-1.059 1.058h1.323m-65.352-.264-.794-2.382.794 2.382m154.252-.794-1.852-1.588.265 1.588-1.059.53 2.646-.53m-256.38.53.528-.53v-1.323l-1.323.265v.264h.794v1.323m519.113-.265-.265-.264.265.264m-247.121-.264-.265-1.588.265 1.588m-82.198-.088-.175-.089.175.089m-123.913.088-.529-3.44h-.264l.793 3.44m70.909-1.058v-.265l-3.97.265v.793l3.97-.793m79.11.264v-1.323h-.265l-3.175-.264.265 1.058 3.175.53m-143.669 0-.264-.265.264.264m365.919-.264-.794-.794.794.794m-72.231 0v-.265h-.794l.794.265m-89.165 0-.264-.265.264.265m-58.65-.089-.175-.088.175.088m-147.283-.088-.09-.176.09.176m368.652-.088-.265-.265.265.265m-185.473-.794-.794.53.794-.53m105.392.177-.176-.089.176.089m-183.18.088v-.265l-1.058-.264v.264l1.059.265m-75.142 0 .53-1.323c-.623.43-.953.645-.53 1.323m17.198-.265-.265-.264.265.264m130.969-.264v-.53l-.53.53h.53m-3.44 0c-.468-.71-.855-.71-1.323 0h1.323m-52.123 0 .265-1.059-.794 1.059h.53m125.94-.265-.264-.265.265.265m-281.252 0 .793-1.587-.793 1.587m293.687-.794-.794.53.794-.53m-213.783.53.264-.794-.264.793m33.073-.264.264-3.175c-1.243.76-1.264 2.194-.264 3.175m-96.309-.265-.264-.264.264.264m147.902-.264-.529-.794.53.794m-228.336 0 1.058-1.852-1.058-1.323-.53 3.175h.53m70.38-.265-1.324-3.175c-.341 1.126-1.04 1.295-2.116 1.588l1.058 1.587.265-.794 2.116.794m-47.008-.088-.175-.088.175.088m274.285-.176c-.248-1.93-1.084-3.683-1.413-5.557-.523-2.987-.508-5.975-.934-8.996-.354-2.527-.687-5.632 1.554-7.408v1.588l1.852-3.175c-2.25.02-2.712.981-4.234 2.38l.265-.793c-1.273 1.095-.797 4.015-.794 5.556.008 5.276.937 11.902 3.704 16.405m-207.168 0v-1.059h-.265l.265 1.059m-13.23 0v-.265l-1.587-.265v.265l1.587.265m282.046-.53.53-.793-.53.793m-121.973 0-.793-1.058.793 1.058m-8.73-.264-.53-.794.53-.53v-.264l-1.324-1.058.265 2.646h1.058m-156.369 0v-.265l-1.058-.264v.264l1.058.265m162.984-.53-1.588-2.116 1.588 2.117m79.64-1.588-1.588 1.058 1.587-1.058M-28.87 231.48l-1.323-4.497 1.323 4.497m271.198-.529-.265-.264.265.264m-38.365 0v-1.587h-.264l.264 1.587m-82.285 0-.265-.264.265.264m-63.765-.264.53-3.969-1.853 2.646.794-.265.53 1.588m-32.28 0 1.323-3.969h-.265c-.793 1.132-1.486 2.577-1.058 3.969m29.633-.265-.264-2.381h-.265v2.381h.53m-24.078-.794.53-2.116h-.265l-.794 2.116h.53m-64.472-.088-.174-.088.174.088m277.461-.176-.265-.265.265.265m-139.17-.53.264-.529-.265.53m106.804-.706-.089-.176.089.176m-224.014-.088-.53-.53.53.53m121.443-.265c0-1.47-.325-3.137.794-4.233-.286-1.656-.868-3.37-2.381-4.233l.265 6.085h.264l.53-.53.528 2.911m-226.483-1.323-.794.794.794-.794m-16.669-1.058-2.116 1.588-.794-.265c.892.883 2.315-.58 2.91-1.323m480.748.53 1.588-5.292c-1.945.63-2.748 3.162-2.91 5.027l1.322.264m-313.796 0v-2.646h-.264c-.508 1.066-.609 1.788.264 2.646m171.186-.264.264-.53h-.529l.265.53m-234.686-.265-.264-.264.264.264m473.87-.264-.265-.265.264.265m-323.85 0v-.53h-.529l.53.53m-132.557 0-.53-1.059h-.264l.794 1.059m-26.723 0-3.969-3.705 2.382 3.44 1.587.265m466.372-.442-.088-.176.088.176m-219.251-2.204c-.98-.996-2.205-.867-2.646.529l2.646-.53m-231.159.442-.174-.089.174.089m9.173-.177-.793-.529.793.53m242.094-.265-.264-1.588h-.265l.53 1.588m-23.02-.794-.264-.265.264.265m-97.366 0-.265-2.381h-.264c-.21.957-.3 1.75.529 2.38m-203.465-.528-.264-.265.264.265m323.321-.794.53-1.587h-.53v1.587m-106.627-.53v-.528l-.53.529h.53m30.427-1.058-.265-.265.265.265m-132.292-.265v-.53l-.529.53h.53m-190.765 0v-.53l-.53.53h.53m321.998-.53v-.264l-1.059-.529v.265l1.059.529m-188.119-.53.265-1.058h-.265l-.53 1.059h.53m186.796-.265-.265-.265.265.265m-34.925-.53v-.528l-.53.529h.53m-275.96 0-.265-.265.264.265m307.71-.53-.793-.528v.264l.794.265m-3.44-1.588-.264-.264.264.264m-29.898-.794-.264-3.44h-.265l.53 3.44m-19.05 0v-.529h-.53v.53h.53m46.389-.353-.175-.089.175.089m-.881-.177-.265-.264.265.264m-1.323-.529-.265-.264.265.264m43.92-2.381v-.265h-.793l.794.265m-242.536-.088-.175-.089.175.089m250.473-.706c-.652-1.305-.652-1.305 0 0m-1.852-.264c.586-.88.586-.88 0 0" style="stroke:none;stroke-width:.264583"/><defs><linearGradient id="a" x1="0%" x2="100%" y1="0%" y2="0%"><stop offset="0%" style="stop-color:#f56302"/><stop offset="100%" style="stop-color:#f7c602"/></linearGradient></defs></g></svg>