<svg xmlns="http://www.w3.org/2000/svg" xml:space="preserve" width="2415.328" height="239.123" viewBox="0 0 639.056 63.268"><path d="M466.949 59.399c1.313-11.857-1.248-6.105 2.153-19.803 2.19-5.219-7.292-9.281-8.109-5.834-2.858-7.709-9.525-11.95-12.258-4.237-5.317 2.674-.08-14.655-3.1-10.483-7.653 5.458-12.17 24.897-6.515 26.761-6.792-5.824-14.105-12.6-4.705-.86-9.9-12.664-9.706.823-8.733 3.554-2.929-14.572-4.877-.824-8.017-11.72-4.78 2.452-3.27 3.284-8.709-.265-1.073 8.48-5.23-9.358-6.567 3.65-.55-6.937-.154-8.038-5.053-12.893-1.925 10.993-1.623 6.764-2.847 1.173-2.453 7.758-5.971.892-6.25 8.335 5.573-5.209-14.154 20.761-5.367.057-1.432-8.3 4.941-12.324 3.287-18.843-2.039-5.369-.845 2.231-5.628 2.167 2.843-9.006-5.249.998-3.645 4.155-6.123-10.1.505 12.141-7.792 1.087-7.653 11.24-4.377-14.621-7.541 3.706-7.265 8.962-6.452-1.326-9.272-.415-2.353 2.175.366-14.104-4.834-.91-8.221-12.057 5.69-2.192.999-14.407.566-7.076-5.866-.507-3.198-8.043-5.352 4.131-.794 12.557-8.406 6.682-2.291 1.345 4.296 7.924-2.993 6.391-3.257-8.853-11.64 13.3-10.451-.461-4.223 2.03-3.603-5.838-3.541 1.322-4.932 3.506 1.683 13.677.289 7.811 7.491-.693-7.266 12.523-2.977 2.008-.67-5.224 2.051-7.857-2.837-10.98 2.68-6.63-4.591-2.81-.315 1.686-2.366-1.443-4.31 4.573-4.89 9.801-3.686 9.006-3.194 1.699-8.17.446-2.287 7.62-5.327 8.664-7.5 5.673 1.447-5.163-1.802-8.696.525-17.832.542-.371 4.763-7.164 6.055-9.956-3.354-2.369-4.647-.053-5.864 5.863.122 9.562-3.589 14.529-8.688 6.291-3.697-6.33-3.72-2.101-5.743-.733-1.22 3.728-3.687-3.941-4.003 3.014-3.298-1.232-3.092 7.167-5.599 2.028-3.117-3.107-6.38 2.483-3.878-3.105-2.902-3.188-6.593 13.457-8.936 7.057 1.157 5.645-11.758 7.506-3.093.674-3.148-3.09 1.784-7.021-1.027-5.283-1.33-1.21 1.722-10.6-2.905-3.168-1.748-1.367-1.61-1.815-3.458 3.734-1.733 1.553.875 4.639-3.689.954 1.007-4.006-3.183 1.821-4.125-4.143-4.927-3.412-2.093 1.513-4.47 3.371-7.18-1.11-8.528 3.125-18.1-1.178-6.56 12.465-1.235 5.601-7.438 2.513-9.424 5.476-10.812-5.192-16.892 2.007-2.624 7.309-10.777-1.586-14.853 4.014-.683 2.23-12.583-7.803-5.266-5.525 5.287 1.377-4.624-5.22-5.025-.168-.128-1.102-12.534-7.678-2.711 4.262-11.7-1.96-4.9-7.16-12.679-5.897-8.36-5.007-5.663 7.769-14.126 5.423-12.214 3.25-9.263-9.641-12.658-.293-4.65 3.64-6.721-12.252-9.519-1.607-10.526 4.215-25.176 23.47-36.163 13.538 11.223 2.398-14.741-4.29-6.237-2.539-.178-5.736-22.91-.07-15.412-5.71-3.88 1.257-7.593-6-.424-2.316 9.451 1.409-8.18-3.969-.711-4.759-5.977-.727-7.623-2.833-12.365-1.238 2.094 8.836-8.621-1.932-12.731.892-1.159-7.49-11.56 6.632-10.479 3.146-.984 10.468-22.97 5.229-7.195 3.895-.292-4.465 1.905-5.448-5.082-6.485C.868 32.548-1.642 25.912.031 14.829-5.506-1.166 4.998-1.198 16.698 0h622.357c-.996 7.582-.352 33.835-2.736 19.117 2.689-1.043-6.748-5.04-5.175-1.158-2.87 5.559-4.103-2.952-6.312.844-4.308 3.516-5.938-.002-9.888 3.356 5.166 4.833-6.198-2.998-3.336-2.216-4.695-2.93-1.214 7.873-6.285 3.355-2.502 1.17-8.145 1.522-11.196 5.343 3.532-6 8.982-9.717-.451-7.969.563 2.828-2.037 8.194-2.317-.299-1.377 2.518-2.555 18.792-4.253 14.107-2.543-.338-5.005-.712-8.036-.81-4.163-1.533 3.16-5.198-4.739-4.689-4.936 3.46-6.066 4.3-5.587-.406-6.955-3.262 1.827-3.679-1.327-6.727 2.89-6.699-7.807-4.135-14.821-.676-8.19.793 11.336 3.983-4.687 1.263-3.35-3.732-8.905.017-8.929-.665-2.955 4.277-7.18.511-11.288 3.445-2.314 2.238-6.351 11.244 1.078 7.702.63 3.656-8.827 6.66-4.305 1.649-6.787 5.06-15.02 2.815-12.761-1.899 2.349-.17.132-9.783 2.16-3.134 5.887 4.109.097-4.788 4.426-2.89 5.695 4.033-.17-1.648 4.791-2.301 1.142-.845 4.21 2.52 3.366-3.906-1.088 2.052-9.84 3.392-9.45 3.245-4.182 5.124-8.562-6.342-8.16-5.222-.61-5.534-6.254-2.543-1.956-.639 3.263 7.956-11.595 1.683-7.466 5.664-9.332-1.732-6.929 5.725-15.264 3.986-7.95 4.598 4.972-5.22-2.659-4.689-.246.225-5.91.678-8.055-.242-7.308-.627-9.582-1.878-15.544-.214-1.296 4.662 10.817 15.368 13.935 10.178 5.626-10.871 6.733-2.416 11.206 2.289 6.186 5.246-3.502 12.622 1.084 20.345-.124 4.698-8.94 2.458-6.534 6.244 5.912 3.754-7.105-9.043-8.644-13.38-.913 3.754-1.379 7.59-1.991 11.398zm9.713.815c1.627-1.7-2.86 1.162 0 0zm4.483-3.593c.11-1.751-3.668.398 0 0zm-1.72-1.868c-.57-1.118-1.07 1.55 0 0zm1.73.262c.152-1.568-1.473 1.222 0 0zm.916-.743c-.646-3.526-5.504-.002 0 0zm-99.483-10.616c-.652-.944-.32.969 0 0zm1.431-1.763c3.325-11.878-3.363 5.728 0 0zm-294.68-.338c7.322-5.293 5.01-6.734-4.745-3.56.224 3.134-.989 7.839 4.745 3.56zm346.634.2c-.963-1.388-.888 1.174 0 0zm-353.952-1.01c-.653-.94-.32.968 0 0zm-.336-.689c-1.05-.556-.247.599 0 0zm343.97-1.025c-.748-1.884-4.552-1.59 0 0zm-6.13-1.389c-1.154.62.76.767 0 0zm-.16-.453c-.619-.909-.763.505 0 0zm95.25-.81c.9-1.268-2.313 1.009 0 0zm-79.375-.337c-.422-8.083-9.88-2.917 0 0zm-337.08-1.87c-.95-2.418-1.643.72 0 0zm487.803-.504c5.483-11.788 2.547-19.517-.438-2.618-.582-2.23-.892 5.811.438 2.618zm-63.146-1.025c-1.406-1.175-1.002 2.266 0 0zm-423.455-.382c.667-1.35-2.565.956 0 0zm379.534.018c-.358-.895-.738.873 0 0zm102.79-.53c-.328-1.043-.949 1.01 0 0zm-65.616-.528c-.325-1.043-.951 1.007 0 0zm-260.482-.662c-.657-1.395-.657 1.395 0 0zm39.818-.134c-1.805-1.64 1.034 1.786 0 0zm140.363-.776c2.959-5.517 4.479-10.048-2.558-1.074-1.742-.311.208-7.692-.352-11.246 5.487 4.877 1-4.72-2.382-1.448-2.293 4.731-4.53 14.17 4.311 14.546l.56.529zm-4.116-4.537c-.062-1.786 1.045 1.043 0 0zm-1.44-1.58c.762-.506.617.91 0 0zm1.19-.514c.654-.94.319.967 0 0zm-1.455-.529c.68-.979 1.014.95 0 0zm1.702-.348c-.033-3.146 1.016.675 0 0zm87.86 8.55c-1.744-.978-1.74.98 0 0zm50.716-.322c-1.032-.428.891 1.219 0 0zm-382.504.058c-.319-.967-.654.94 0 0zm381.661 0c-.65-.944-.323.967 0 0zm10.055.148c-.62-.908-.763.502 0 0zm-118.27-.38c-.65-1.627-1.397.546 0 0zm-156.897-.135c-.208-2.668-2.298.083 0 0zm16.536-.427c-.678-.981-1.016.95 0 0zm39.556 0c-.307-.857-.774.858 0 0zm-296.598-.26c-4.733-6.029-6.987-4.236 0 .001zm77.258-.005c-.986-.993-1.444.969 0 0zm45.508.114c-1.61-2.79-.938.966 0 0zm3.969-.41c-.918-.452-.436 1.233 0 0zm198.967.032c-.306-.856-.774.855 0 0zm124.354.018c-2.628-2.006-.625 1.105 0 0zm71.468-1.193c1.01-10.454-4.103 4.917 0 0zm-395.583.91c-.654-.94-.319.967 0 0zm106.892-.296c-.921-.452-.431 1.233 0 0zm4.762.296c-.88-1.133-.481 1.165 0 0zm280.896-.55c2.514-7.721-2.952 1.42 0 0zm-393.824-.036c-1.033-.428.894 1.218 0 0zm287.205.008c-.51.115.382 1.159 0 0zm-285.44-.186c.76-1.525-3.547 1.052 0 0zm390.155-.01c.398-1.238-2.686.881 0 0zM64.77 27.608c-2.442-5.724-5.38.897 0 0zm240.385-.144c-1.375-5.84-4.039 1.526 0 0zm53.003.204c1.214-2.015-4.26-3.738 0 0zm2.824-.628c-.159-2.67-.624 3.263 0 0zm208.041.609c.468-2.512-2.314 1.209 0 0zm7.887-.578c1.017-2.368-6.867 2.49 0 0zm-417.366.446c-.65-.944-.323.967 0 0zm234.79-.904c-.962-1.89-.488 3.293 0 0zm178.999.795c.313-1.818-2.163 1.403 0 0zm-95.57-1.112c-2.836 1.296.34 1.142 0 0zm-335.92-.899c-2.384-12.629-2.436-1.708-1.652 1.671l1.291-.071.362-1.599zm16.642 1.59c-.683-.949-.668.95 0 0zm54.505-.147c-.822-.963-.504 1.335 0 0zm89.572-.58c1.166-5.327-1.81 3.47 0 0zm57.007.3c-.971-.966-.319 1.717 0 0zm31.93-1.425c-2.025-3.688-.923 6.205 0 0zm189.261 1.588c-.992-1.873-.27 1.894 0 0zM3.43 26.476c1.086-2.381-2.445 1.63 0 0zm120.244.278c-1.582-4.858-1.673 1.177 0 0zm76.88.117c-.618-.909-.762.503 0 0zm95.41-.606c-1.154.62.761.767 0 0zm293.444.144c-.51.115.38 1.16 0 0zm-399.212.023c3.023-2.188-3.342.542 0 0zm64.145-.238c-.924-1.87-.147 1.856 0 0zm44.633.261c2.815-.558-3.244-.501 0 0zm-161.814-.218c-.48-2.657-1.819.496 0 0zm259.186-.043c-1.03-.967-1.036.966 0 0zm89.164.16c-.121-.709-1.565.237 0 0zm-360.627-.425c-.683-.949-.668.95 0 0zm130.536-.397c-.63-1.389-.23 1.398 0 0zm230.115-2.18c-1.252-1.575 1.39 8.2 0 0zm-296.262 1.519c5.434-1.661-2.835-.568 0 0zm171.752.529c-.32-.969-.652.944 0 0zm35.847-.728c-.8-1.369-.351 2.347 0 0zm60.064.728c-.372-.902-.782.83 0 0zm-269.345-.265c-.68-.948-.675.95 0 0zm108.74-.743c-.729-1.469-.174 2.82 0 0zm51.068.753c-1.25-1.77-1.504 1.069 0 0zm104.67-.467c-1.154.622.76.765 0 0zm69.955.457c-.654-.94-.319.967 0 0zm52.321-.45c4.637-9.026-6.255 3.617 0 0zm-.595-.608c.32-.969.652.944 0 0zm-449.015.8c2.372-3.824-2.759.185 0 0zm77.61-.27c.849-1.75-2.038 1.518 0 0zm2.438.103c4.732-6.803-4.75 2.083 0 0zm1.196.16c-.322-.966-.65.944 0 0zm187.241-.321c-1.033-.428.894 1.218 0 0zm-254.842.205c-.617-.91-.762.506 0 0zm107.58-.605c-1.154.622.761.765 0 0zm243.522.193c-.64-1.841-.636 1.84 0 0zm-355.174-.112c-.316-4.47-1.976 1.612 0 0zm98.715-1.1c-.326-3.33-1.195 4.384 0 0zm157.854.426c-1.582 1.642.556.69 0 0zm7.324.219c-.903-1.787-.577 2.376 0 0zm180.049.567c-.325-1.043-.951 1.007 0 0zm-514.218-.397c-1.265-1.301-1.988.943 0 0zm139.568.132c-.327-1.045-.95 1.01 0 0zm157.824 0c-.306-.857-.773.858 0 0zm93.133-.132c-.656-1.395-.656 1.395 0 0zm143.515-.904c-1.323 1.99-.479 1.815 0 0zm-428.074.507c-.319-.967-.654.94 0 0zm221.971-.287c-1.338-.56.05 1.327 0 0zm1.205.435c-.617-.907-.761.501 0 0zm59.796-.28c-.03-1.461-1.388 1.523 0 0zm33.602.132c-.358-.895-.738.873 0 0zm29.65-1.027c5.322-2.68 7.662-4.14-3.986-1.47-2.29 2.259 5.463 3.452 3.986 1.47zm-168.689.233c-1.85-.143.469 1.436 0 0zm24.474.529c-.652-.944-.32.969 0 0zm204.692-.198c2.978-7.713-3.125-.91 0 0zm-286.516-.596c8.006-3.06-3.212-13.909 0 0zm278.145.25c-.818-1.431-.469 1.795 0 0zm-442.002-.109c-.294-2.506-1.187 1.263 0 0zm118.73-.198c-1.033-.428.894 1.218 0 0zm148.118.322c-.306-.856-.774.855 0 0zm192.881-.28c-1.351-.988-.662 1.362 0 0zm-523.081.015c-.678-.947-.673.949 0 0zm193.94 0c-.322-.966-.65.944 0 0zm135.202-.397c-1.248-2.317-.748 2.183 0 0zm-146.531-.19c-1.034-.426.895 1.22 0 0zm51.28.323c-.307-.856-.771.858 0 0zm10.055 0c-.306-.856-.774.855 0 0zm118.728-1.332c-1.637-5-.08 5.07 0 0zm-377.575.944c-2.617-1.439-.556 1.072 0 0zm213.603.123c2.808-5.046-1.553-5.244 0 0zm38.124-.462c3.111-10.735-6.665-4.577 0 0zm170.318.128c-.25-1.74-2.347 2.176 0 0zm99.004.202c.313-1.479-1.157 1.482 0 0zm32.375 0c-.23-1.398-.63 1.389 0 0zm-373.688-.536c1.33-3.388-2.463 1.23 0 0zm16.974-.202c2.097-8.593-4.205.997 0 0zm131.722.458c-.822-.964-.502 1.335 0 0zm121.18.148c-.652-.943-.324.966 0 0zm-268.156-.265c-.32-.969-.652.944 0 0zm2.778.148c-.618-.909-.762.503 0 0zm350.573-.148c-.528-1.036-.809.96 0 0zm-288.131-.265c-.678-.947-.673.949 0 0zm145.256 0c-.88-1.133-.481 1.165 0 0zm66.536.002c1.188-3.043-6.48-.05 0 0zm-27.907-.234c-1.168-3.893-7.51.747-.908-.003zm2.778-.032c-.732-1.05-.537.509 0 0zm1.985 0c-.65-.944-.323.967 0 0zm56.78-.458c-1.154.62.761.767 0 0zm28.416.606c-.62-.908-.763.502 0 0zm12.567-.148c-.675-.98-1.019.947 0 0zm5.501-.893c.057-3.235-1.874 3.23 0 0zm-356.47.364c-.677-.98-1.019.947 0 0zm.555-.983c-1.07-1.226.914 2.333 0 0zm19.654.572c-.002-.853-.823.813 0 0zm46.186-3.294c-.56-3.73-1.364 9.296 0 0zm9.116 2.117c.931-10.739-2.28 5.858 0 0zm241.648 1.376c-.895-3.706-5.423.542 0 0zm-2.04-.419c2.612-.923.558.588 0 0zm39.105-.402c-1.01-1.426-3.613 3.214 0 0zm-355.426.522c.297-1.023-1.027.167 0 0zm3.76-1.495c.28-4.447-1.265 5.64 0 0zm54.384.634c-1.615-.01.408 1.949 0 0zm9.993.232c-.756-.979-.118 2.323 0 0zm245.537.61c-.68-.979-1.014.95 0 0zm8.957-.531c4.127-8.857-5.568 1.928 0 0zm65.391.4c-.628-1.39-.228 1.395 0 0zm-291.306-.429c-.919-.456-.436 1.236 0 0zm116.681-1.906c5.279-2.534-3.745-1.386-1.655 1.428-.066 2.603 1.717-1.61 1.655-1.428zm-.923-.184c.817-.777.206.944 0 0zm69.054 2.386c-.305-.978-1.355.758 0 0zm33.602 0c-.663-1.25-1.081.89 0 0zm-168.672-.397c-.146-1.367-1.296 1.262 0 0zm53.446-.165c-1.289-.954-.31 1.711 0 0zm71.702.297c-.323-.967-.65.944 0 0zm48.093-.215c-1.034-1.204-1.45 1.201 0 0zm7.555.109c-2.124-9.001-6.331-.081 0 0zm-1.92-2.209c.168-1.946.521 2.522 0 0zm-320.068 1.918c-1.202-1.47.382 1.428 0 0zm221.36.133c-.653-.942-.317.966 0 0zm41.21-.031c5.509-1.644-7.653.723 0 0zm9.012-.217c-.875-.966-.83 1.477 0 0zm36.562.248c-.319-.967-.654.94 0 0zm-404.283-.117c-.62-.908-.763.502 0 0zm179.77-.346c-1.799-9.493-4.072 3.906 0 0zm107.832.05c-.823-.96-.503 1.334 0 0zm67.865.148c-1.025-.95-.673.982 0 0zm136.838-.314c-.51.115.382 1.159 0 0zm-394.217.154c-1.048-.555-.246.598 0 0zm192.16-.104c-.447-.901-.68.884 0 0zm76.332 0c-.673-.949-.678.947 0 0zm6.34-.044c7.78-.875-6.208-2.025 0 0zm-275.93-.256c-.19-3.907-3.557 1.225 0 0zM254 18.108c-.822-.96-.501 1.333 0 0zm7.408-.91c-.34-4.617-.74 4.212 0 0zm25.665 1.058c-.306-.857-.773.858 0 0zm137.451 0c-.327-1.045-.95 1.01 0 0zm195.395 0c-.339-.89-.751.878 0 0zm-307.446-.265c-1.036-.966-1.03.967 0 0zm13.494-.264c-.64-1.84-.636 1.839 0 0zm58.42.211c.934-2.02-2.022.938 0 0zm71.49.053c-.323-.967-.65.944 0 0zm-120.652-.257c.383-1.988-1.877.963 0 0zm93.328.098c-1.05-.556-.244.597 0 0zm141.889-.401c-.917-.456-.436 1.234 0 0zm-12.218-.322c-2.684-3.36-1.99 1.406 0 0zm13.474-.066c-1.699.432.39.857 0 0zm-145.181-.116c5.048-1.493-5.26.41 0 0zm-141.115-.308c-.51.115.38 1.16 0 0zm42.568-.064c.461-2.91-4.85.69 0 0zm59.91.113c-.68-.948-.675.95 0 0zm-154.253-.264c-.412-.99-.973.836 0 0zm69.017-.992c-.984-2.12-.175 3.863 0 0zm21.488.983c2.63-4.616-2.046.626 0 0zm179.182-.256c-1.232-1.747-.274 1.783 0 0zm-190.88-1.052c-.793-4.026-.942 4.736 0 0zm320.317 1.052c-.323-.967-.65.944 0 0zm-349.118-.81c-.792-1.894-.47 2.267 0 0zm2.514.546c-.325-1.043-.951 1.007 0 0zm2.895-.331c4.552-3.902-3.314 1.54 0 0zm98.952.04c.062-1.816-2.68 1.962 0 0zm57.035.158c-.628-1.385-.228 1.397 0 0zm192.462-.49c-1.169-1.597.308 1.838 0 0zm-382.697.093c-.653-.94-.32.968 0 0zm31.22-1.272c-1.198-6.496-1.55 5.048 0 0zm11.642.346c-.574-4.159-.296 3.881 0 0zm-15.83-.291c2.624-4.188-5.663 4.14 0 0zm10.142.953c1.332-4.097.03-9.848-1.72-6.615-2.062-.418-4.963-3.77-7.406.52-5.2 5.416 2.324.436 5.554.142.545 4.95 1.923-.915 3.572 5.953zm.153-1.477c.383-.705.117 1.141 0 0zm-9.81-3.286c.683-.949.668.95 0 0zm24.005 4.868c-1.05-.556-.244.597 0 0zm20.51-.298c1.811-2.756-3.42 1.743 0 0zm177.734.34c-.62-.91-.76.506 0 0zm127.133-.147c-.32-.969-.652.944 0 0zm-309.238-.69c-2.45.45-.115.795 0 0zm6.286.148c1.117-3.412-2.41 1.459 0 0zm-75.006.013c-.412-.99-.973.836 0 0zm78.053-.397c-.657-1.395-.657 1.395 0 0zm-47.94-.152c-.892-1.03-.896 1.029 0 0zm5.094.01c3.3-4.065-4.42 1.39 0 0zm12.683.01c-.655-.941-.318.964 0 0zm4.63 0c-.32-.969-.65.943 0 0zm120.518 0c-.655-.941-.318.964 0 0zm-110.648-1.02c-.945 1.259.424 1.251 0 0zm16.102.16c-.461.264.428 1.456 0 0zm305.154.33c-.703-1.638-1.494 1.852 0 0zm-330.993-.264c-.429-.996-.954.851 0 0zm1.058 0c-.306-.856-.774.855 0 0zm124.09-.132c-.656-1.394-.658 1.392 0 0zm-147.638-.133c-.654-.94-.319.967 0 0zm18.256.053c-1.04-2.812-1.661.893 0 0zm27.63-.67c-.794-1.82-.656 2.475 0 0zm-49.77-.046c-2.682-.37 1.359 1.28 0 0zm1.767.134c-.307-.856-.771.858 0 0zm18.408-.402c-1.59-1.172.31 1.528 0 0zm207.282.298c-.121-.709-1.565.237 0 0zm-254.265-.573c-.823-.96-.501 1.334 0 0zm50.357.214c2.37-5.456-3.289-.062 0 0zm130.45-.198c-1.56-1.098.28 1.3 0 0zm1.491.132c-.652-.944-.32.969 0 0zm1.852 0c-.372-.902-.782.83 0 0zm199.232 0c-.32-.968-.652.944 0 0zm-349.333-1.257c-.34 1.309.254 1.051 0 0zm52.602.346c-6.2-4 2.34 3.514 0 0zm-54.636.086c-.917-.456-.436 1.234 0 0zm22.754-.117c-.9-1.427-.436 1.732 0 0zm29.369.413c-.319-.967-.654.94 0 0zm161.065-.42c-1.7.435.39.856 0 0zm-196.784.196c-1.038-2.042-2.149.094 0 0zm15.539.064c-1.05-.556-.244.597 0 0zm115.959-.427c-2.668-.673-.43.878 0 0zm-179.917-.34c-.66-1.393-.652 1.397 0 0zm68.244-.784c-1.31.32-.06 1.81 0 0zm-1.833.505c-.819-.962-.505 1.332 0 0zm2.91.147c-1.036-.966-1.03.967 0 0zm115.022.105c-1.048-.555-.246.598 0 0zm-134.866-.37c-.296-.857-2.06.743 0 0zm-21.96-.264c-.678-.947-.673.949 0 0zm22.754-.683c-.9-1.178-.928 1.409 0 0zm37.57-.163c-1.008-1.122-.01 1.743 0 0zm-87.84.2c-.62-.909-.762.505 0 0zm47.624-.147c-.307-.856-.771.858 0 0zm37.307-.296c-.916-.456-.442 1.235 0 0zm10.847.179c-.618-.909-.762.503 0 0zm-24.341-.693c-.57-1.116-1.07 1.55 0 0zm22.357.28c-.68-.979-1.014.95 0 0zm-5.16-.223c-2.218-3-.75.944 0 0zm-57.15-.158c-.624-.91-.753.507 0 0zm63.898-.677c-.32-.968-.652.944 0 0zm.842-.314c-.51.115.38 1.16 0 0zm-5.737-.183c-.515-1.838-2.659 1.16 0 0zm-53.71-.71c-2.71-1.656.088 1.743 0 0zm57.362-.5c.963-2.939-2.557 2.298 0 0zm1.904.12c-.65-.944-.323.967 0 0zm-10.716-.53c-.32-.967-.65.944 0 0zm10.183-1.653c-.451-.921-.559 1.39 0 0zm-10.58.066c-.316-.968-.654.94 0 0zM129.693 54.305c-3.85-11.035 5.497 2.408 0 0zm145.408 8.371c-8.66-8.6 11.821-20.529 11.003-17.37 6.257 3.277 4.506.783 7.851-3.745 5.825-1.66-4.143 11.914 1.591 9.04 2.432-1.834 6.92 3.214 5.683 4.43.87 4.375-6.562 2.313-8.764.2 1.24-1.529-5.497 10.758-17.364 7.445zm24.437-7.455c-1.042-.035 1.095 1.394 0 0zm-8.496-6.009c-.678-.947-.673.949 0 0zm2.205-1.703c.327-3.952-2.243 1.067 0 0zm186.575 14.668c.65-.944.323.967 0 0zm83.746-2.032c.74-2.568 3.025-.1 0 0zm-118.117-.573c2.152-1.857 2.743.8 0 0zm113.824-.1c-1.182-5.059 7.085-2.276.001-.001zm-116.964-.367c-5.135-11.93 7.081.38 0 0zm38.834-.103c.65-.944.323.967 0 0zm3.083-.675c.81-1.93.92 1.403 0 0zm-75.385-.913c.211-1.656.211 1.656 0 0zm35.723-.925c-.938-1.917 1.5 1.062 0 0zm-289.57-.662c-1.711-4.363 5.075.172 0 0zm258.878-1.354c-1.107-9.7 1.417 4.792 0 0zm30.258.606c-.071-3.935 1.458.99 0 0zm-55.724-.855c.763-.505.619.909 0 0zm109.406.015c1.855-.979 1.295 1 0 0zm-1.188-1.03c-1.305-1.388 2.432 1.01 0 0zm-340.4-.31c-.326-1.329.861 1.007 0 0zm267.955-1.173c-1.425-6.421 1.592 4.76 0 0zm141.763.935c2.457-2.761 1.157.758 0 0zm-244.674-.2c-1.346-1.391 1.606.09 0 0zm85.126-.124c-1.925-3.933 1.994-3.58 0 0zm37.974-.413c-2.575 13.753-1.101 5.46 0 0zm-46.423-.306c.847-11.376 7.816-5.863 3.896-3.496-2.516-.26-3.359 4.03-3.896 3.496zm7.13.24c.583-1.081.727 1.074 0 0zm85.113-.723c.262-3.186 4.721-.116 0 0zm-99.665-.335c.53-.944.71.892 0 0zm-199.08-.444c.85-3.356 2.42 1.717 0 0zm222.363-.284c1.448-2.376-.031 1.538 0 0zm80.698-.05c-.918-6.248 3.307 1.128 0 0zm-176.212-1c5.477-7.426 11.275-4.057 0 0zm243.013-.359c-.362-2.202 1.197 1.982 0 0zm-100.667.028c1.06-.47 1.031.865 0 0zm-3.308-.273c.952-1.004.325 1.042 0 0zm40.498.027c6.71-4.767 9.916-3.868 0 0zM522.448 48c.335-2.791 3.349 1.132 0 0zm-463.314-.375c-4.839-7.979 3.173-.257 0 0zm122.829.231c.981-.885.198.605 0 0zm305.664.033c-3.743-2.391-1.288-1.702 0 0zm-190.5-.264c.53-.944.71.892 0 0zm242.802.066c.738-4.028 2.848.09 0 0zm-51.622-.482c-5.825-10.965 9.51-4.201 1.173.019l-.549.374-.624-.394zm.904-1.121c-1.15-.872-.095 2.203 0 0zm-162.715 1.008c.65-.944.323.967 0 0zm88.635.144c1.04-2.941 1.515-.664 0 0zm193.587-.859c1.012-5.303 3.39 1.229 0 0zM63.5 46.434c.656-1.394.656 1.394 0 0zm423.598.132c.654-.94.319.967 0 0zm31.22-.23c1.34-7.682 5.93 2.248 0 0zm1.06-.563c-.516-.922-.674.859 0 0zm93.824.653c-1.163-3.818 3.156 1.895 0 0zm-550.496-.257c.658-1.391.654 1.393 0 0zm248.94-.043c-.74-1.246 1.776 1.588 0 0zm82.219.182c.411-4.854 2.295-3.08 0 0zm134.64-.007c1.083-.89.663 1.254 0 0zm-337.41-.622c-.072-2.826 1.229 1.74 0 0zm192.022.39c.433-1.236.921.452 0 0zM60.06 45.836c2.748-2.018 2.043.956 0 0zm440.003-.054c.57-1.185 4.136.089 0 0zm94.038-.101c-13.06-2.996 4.546-1.906 0 0zm-279.511-.142c.439-1.237.917.456 0 0zm125.941-.031c.583-1.081.727 1.074 0 0zm-61.149-.989c3.828-3.616-3.205 3.81 0 0zm106.658.724c.654-.94.316.968 0 0zm56.62.129c3.49-3.167 2.297.624 0 0zm-477.057-.136c-2.079-6.074 2.96-.795 0 0zm180.46-.506c-1.331-8.1 3.537.13 0 0zm69.32.249c.65-.944.323.967 0 0zm4.52.19c3.254-2.723.106.453 0 0zm47.095-.345c.383-.705.118 1.143 0 0zm20.352.155c.67-.896.495.93 0 0zm106.605-.456c.107-7.072 1.774 3.376 0 0zm43.15.488c1.675-2.704.83 1.209 0 0zm-264.406-.404c-.16-2.29 3.512-.015 0 0zm-212.506-.422c.65-.944.323.967 0 0zm237.63-.964c-.415-8.984 3.912 2.008 0 0zm95.81.7c-2.282-5.93 1.476-1.891 0 0zm123.384-.155c.383-.705.117 1.141 0 0zm30.406-.313c3.517-10.824 7.672-1.527 0 0zm71.173-.062c1.937-1.108-.656 1.043 0 0zm-299.376-.263c1.85-2.236 5.49-.714 0 0zm7.805.136c2.594-1.86 2.955-.953 0 0zm237.772-.05c-1.068-.931.914-.651 0 0zm-160.25-.544c2.39-3.154 2.78-1.138 0 0zm5.822-.321c.506-2.255.23 1.833 0 0zm-25.4-.032c.766-.502.613.91 0 0zm111.919.016c.652-.944.318.969 0 0zm-78.053-.265c.654-.94.319.967 0 0zm81.332-.153c6.393-7.552 7.37-2.904 0 0zm46.677.237c1.16-.38.113.512 0 0zM60.06 41.804c.677-.95.677.95 0 0zm269.61-.008c1.035-.861 1.061.47 0 0zm34.04-.116c.044-1.777.796 1.368 0 0zm146.274.124c.654-.94.319.967 0 0zm-186.37-.886c3.227-2.475-2.494 2.914 0 0zm87.982.49c.444-1.495 1.647 1.122 0 0zm105.929.163c.439-1.235.916.456 0 0zm-224.367-.296c.53-.944.71.892 0 0zm228.468 0c.652-.944.32.969 0 0zm-456.01-.405c.946-1.31 1.109.935 0 0zm7.938.303c1.399-.816 1.398.456 0 0zm294.619-1.155c-.648-7.776 2.925-2.97 3.305-3.727 1.615 1.667-3.956 7.946-3.305 3.727zm35.775.96c.985-.884.197.599 0 0zm87.157-.883c-3.646-5.212 4.03 3.931 0 0zm-196.227.65c.653-.94.32.968 0 0zm114.432 0c.682-.978 1.014.95 0 0zm5.998.089c-.817-1.199 1.164.227 0 0zm-25.006-.618c.233-1.19.232 1.193 0 0zm-70.685-.264c-1.286-4.076 2.675-1.369 0 0zm131.233.264c1.937-1.108-.656 1.043 0 0zm77.125-.357c5.325-2.557-1.517 3.014 0 0zm6.219.357c-.98-1.204 1.598.574 0 0zM8.474 40.07c3.335-4.104 1.211-.318 0 0zm317.493-.23c3.085-.895-2.44 1.227 0 0zm172.099.132c2.448-1.744 4.891-1 0 0zm3.716-.02c.65-.944.323.967 0 0zm94.642-.318c-1.083-2.036 1.81 1.295 0 0zm-143.385-.476c2.821-1.962-1.9 1.904 0 0zm92.532-.252c2.225-6.687 5.422 1.528 0 0zm-481.939.252c.95-1.008.327 1.044 0 0zm87.445-.265c1.281-1.914-.681 1.883 0 0zm125.46-.172c-7.395-1.965 1.202-11.252.344-5.337 2.243-4.242 2.473 7.777-.344 5.337zm75.011.258c-1.773-6.929 3.631 2.2 0 0zm264.137.312c1.867-4.103 3.664-3.725 0 0zm-374.332-.45c3.953-5.464-9.23-.433-.847-5.293 2.078.651 14.985-9.36 5.963-.415-6.217 4.416 1.485 4.462-3.476 6.025zm3.783-4.581c-1.394-2.613-1.386 2.131 0 0zm-1.99-.532c-1.245-1.214.5 1.347 0 0zm2.917-.39c-.655-.941-.318.964 0 0zm-75.407 5.278c-12.897-3.999 8.495-11.58 0 0zm167.872.002c-3.306-2.008 1.457-3.323 0 0zm52.193-.077c-.222-3.141.715 1.117 0 0zm-371.02-.195c-.598-1.266 1.832.75 0 0zm170.005.018c.677-.95.677.95 0 0zm204.259-.11c.935-1.415.927 1.177 0 0zm-391.848-.14c.503-1.333.82.963 0 0zm174.495-.213c-2.502-3.384 5.029-.413 0 0zm119.986.183c.761-.505.617.907 0 0zm158.978-.265c3.365-1.664-2.642 1.824 0 0zm-404.903.024c-15.503-7.196.858-.966 2.976-.142-1.084-.654-1.95.37-2.976.142zm173.958-.01c-14.855-10.382 20.183-1.51 0 0zm140.67.09c-.383-1.756 1.273.784 0 0zm-308.945-.352c1.016-.95.681.98 0 0zm275.85.035c-.621-1.315.968.38 0 0zm198.39-.077c-.264-4.76 2.743.043 0 0zm67.164.115c-4.482-4.704 4.454-2.7 0 0zm-424.061-.259c-4.363-4.007 2.643-.162 0 0zm56.555-.004c3.228-.385.637.39 0 0zm321.931-.466c3.074-4.298.582 2.037 0 0zm-59.985-.092c-5.544-3.706-1.01-5.35 0 0zm123.14.05c.307-1.972 1.82.785 0 0zm-322.692-.47c-2.412-5.436 1.65 1.28 0 0zm2.648-.045c.383-.705.117 1.141 0 0zm95.361.154c.563-1.257 2.875 1.157 0 0zm73.687-.397c-1.872-2.6 2.467 2.003 0 0zm-298.186.133c.677-.95.677.95 0 0zm13.441-.053c1.383-.722.15 1.02 0 0zm314.114.053c.65-.944.32.967 0 0zm1.322 0c.65-.944.323.967 0 0zm6.35.044c.514-1.542 1.776 1.099 0 0zm-124.337-.23c.265-2.38 2.494-1.112 0 0zm227.26-.807c-1.282-6.524 4.364 3.223 0 0zm-400.151.162c-2.146-5.135 2.145.565 0 0zm49.529.416c-.766-.895 2.152-2.544 0 0zm102.818-.15c.352-4.12 2.717-.624 0 0zm148.52.12c-9.82-5.339 7.7-6.6 0 0zm65.947-.44c2.022-2.504 1.179 1.747 0 0zm38.154-.281c-2.3-7.13 9.287-1.563 0 0zm1.533-1.068c-.617-.91-.762.506 0 0zm-504.295 1.44c.684-1.011.684 1.011 0 0zm440.53-.123c2.543-5.371 4.75 1.404 0 0zm43.922-.01c-8.168-10.744 13.794-2.01 1.157-.515l-1.157.516zm3.586-3.813c-2.268-1.098.22 1.79 0 0zm7.568 3.681c.231-1.19.23 1.193 0 0zM28.37 34.773c1.958-1.252-1.167 1.277 0 0zm82.684.119c.982-.884.2.602 0 0zm15.836.068c-.623-1.315.966.382 0 0zm59.377.023c2.718-2.028 8.288-3.878 0 0zm174.242-.035c.106-1.367 1.175.561 0 0zm36.559.082c-.882-1.345 1.18-.38 0 0zm217.824-.136c.332-2.148 1.398-.243 0 0zm-285.57-.71c-9.228-5.72 6.155-7.215 0 0zm29.982.328c.308-.931.706.87 0 0zm150.548.29c.84-1.012 1.588-.333 0 0zm-486.04-.406c.652-.943.322.966 0 0zm156.039-.223c-.696-3.464 9.385-3.39 0 0zm258.828.223c.583-1.081.727 1.074 0 0zm167.481 0c.583-1.081.727 1.074 0 0zm-451.24-.781c-6.938-14.649 8.723 1.841 0 0zm206.236.516c.68-.909.512.874 0 0zm215.371.031c.44-1.235.915.457 0 0zm-554.835-.609c-10.991-2.32 7.202-2.99 0 0zm91.412.26c-.4-1.956 1.613.017 0 0zm51.467.053c-.654-1.041 1.937 1.11 0 0zm19.844-.678c5.774-4.965-1.134 3.318 0 0zm-165.762.414c.65-.944.323.967 0 0zm554.84-.078c-.379-2.025.788 1.228 0 0zm-543.992-.187c.654-.94.319.967 0 0zm249.76-.258c4.844-8.784 3.1 2.805 0 0zm40.62.126c.656-1.394.656 1.394 0 0zm203.73.132c.656-.94.313.966 0 0zm23.11-.144c-.28-1.787.836 1.45 0 0zM48.753 32.89c1.94-1.108-.888 1.474 0 0zm206.835.183c.65-.944.32.967 0 0zm295.804 0c-.194-.873 1.69.622 0 0zm20.12-.242c-.493-1.868 1.14 1.69 0 0zm-520.83 0c.112-1.357 1.188.582 0 0zm154.023.043c-3.46-.967 1.48-2.714 0 0zm24.26-.117c-10.086-2.4 10.763-3.273 1.124.008zm146.214-.066c.502-1.33.82.959 0 0zm-333.782-.547c-2.027-2.186 2.929 2.011 0 0zm508.936.4c-.534-.75 1.154.362 0 0zm24.258-.102c-6.97-1.405 1.494-3.739 0 0zm-175.864-.132c.44-1.235.915.457 0 0zm150.021-.027c-.489-1.618 1.54-.234 0 0zm-283.635-.253c.98-1.856 1.682 1.382 0 0zm107.95-.016c.654-.94.316.968 0 0zm173.406-.154c.547-1.98.5 1.428 0 0zm-277.173-.026c1.159-.382.115.51 0 0zm127.744-.352c-1.547-5.044 2.386 2 0 0zm-114.134-.063c1.244-1.497.618 1.196 0 0zM9.79 30.956c.652-.944.318.969 0 0zm322.025.023c1.631-2.998 8.561 1.299 0 0zm5.793-.023c.652-.944.32.969 0 0zm39.49.082c2.05-.41.388.425 0 0zm120.049-.22c-.807-1.973 2.173 1.68 0 0zm94.197.122c.766-.502.613.91 0 0zm-251.893-.178c1.785-2.302 3.358 1.29 0 0zm3.055-.075c.816-.78.207.945 0 0zm166.288.004c.684-1.011.684 1.011 0 0zm20.108 0c.652-.944.32.969 0 0zm-361.553-.265c.323-.967.65.944 0 0zm75.936-.261c1.178-3.082 1.89 1.298 0 0zm2.513.114c.82-.962.502 1.334 0 0zm77.787.147c.67-.896.495.93 0 0zm20.17-.05c.972-1.388.88 1.183 0 0zm35.178-.148c3.368-2.31.641 1.484 0 0zm148.646.11c-1.527-3.386 2.652 1.407 0 0zm25.154-.051c.92-3.092.743.149.048.351zm-497.435-.125c.677-.95.677.95 0 0zm290.05-.066c2.598-1.568 4.142.242 0 0zm245.932-1.455c1.57-6.704.314 6.001 0 0zM7.408 29.897c.677-.95.677.95 0 0zm523.626-.412c2.521-1.568-1.973 2.16 0 0zm-189.192.148c.65-.944.323.967 0 0zm164.174 0c.947-1.01.33 1.042 0 0zm-346.202-.39c-.498-1.349 1.247 1.212 0 0zm6.51.18c.29-.786 1.995.601 0 0zm1.443-.474c.383-.706.117 1.144 0 0zm107.929-.582c.958-4.148.614 3.785 0 0zm218.546.765c.945-1.308 1.108.935 0 0zm47.046.055c1.16-.38.113.512 0 0zm16.454-.083c.65-.944.323.967 0 0zm50.006-.265c1.748-2.016.192 1.664 0 0zm-557.654-.368c-4.721-3.623 4.49 2.233 0 0zm184.062.427c.495-1.937 2.836-.722 0 0zm13.18.025c1.159-.382.115.51 0 0zm24.22-.22c.409-2.825 1.31 1.41 0 0zm8.109.12c.762-.503.618.909 0 0zm212.533-.249c1.192-1.6.007 1.8 0 0zm108.935.133c-.665-1.463 2.873 1.321 0 0zm-63.23-.34c-2.39-2.533 4.413.003 0 0zm-508.798-.123c2.103-5.736 1.15 1.054 0 0zm16.403.066c.677-.95.677.95 0 0zm288.396-.133c-4.857-.266 6.135-3.575.301.337zm5.689.133c.65-.944.323.967 0 0zm156.236 0c.583-1.081.727 1.074 0 0zm7.938 0c.65-.944.323.967 0 0zm12.17.028c.947-1.31 1.109.936 0 0zm98.281-.121c.36-2.536.813 1.264 0 0zm-365.51-.172c.683-.979 1.014.95 0 0zm250.054.132c.919-3.247 3.617-.596 0 0zm54.217-.167c.581-6.281 2.14-1.268 0 0zm-359.04-.23c2.024-1.248-.11 1.165 0 0zm57.984-.24c1.782-2.456-.049 1.897 0 0zm205.277.24c.583-1.081.727 1.074 0 0zm48.154-.132c2.953-1.482-1.663 1.413 0 0zm36.647.136c.398-.566.68 1.028 0 0zm74.743-.202c-4.975-5.246 5.2.117 0 0zm-591.873-.066c.678-.981 1.016.95 0 0zm3.175 0c.884-1.036.488.994 0 0zm308.504 0c1.015-.95.678.98 0 0zm284.956 0c.652-.944.32.969 0 0zm-585.787-.264c.884-1.036.488.994 0 0zm287.897-.537c.58-4.902 2.565-3.825 0 0zM26.5 26.722c.233-1.19.232 1.193 0 0zm100.155-.248c3.84-2.28-3.19 2.671 0 0zm67.02.533c-.31-1.746.831.47 0 0zm49.498-.174c.382-.705.118 1.14 0 0zm48.662.037c.83-4.643 1.77.262 0 0zm317.312.17c-.884-3.768 2.084.972 0 0zm-399.597-.318c-.536-.747 1.154.363 0 0zm25.582.094c-.932-2.596 2.044-.064 0 0zm261.222-.346c3.038-.57-2.202 1.577 0 0zm11.234.128c-.598-1.604 2.57 1.672 0 0zm22.028-.15c-5.723-1.137 9.88-1.752 0 0zm9.106.076c-.821-3.63 6.53.312 0 0zm-305.889-.066c.677-.95.677.95 0 0zm30.582.035c-.623-1.314.966.38 0 0zm296.179-.035c.65-.944.323.967 0 0zm-283.369-.587c.493-5.197 1.496-1.173 0 0zm266-.054c1.945-5.848 1.379 2.306 0 0zm-72.06.112c.684-1.011.684 1.011 0 0zm8.87-.76c-2.185-2.03 4.294 1.028 0 0zm-333.779.262c.439-1.235.916.456 0 0zm332.052-.155c.395-.973 1.235 1.054 0 0zm31.42-.547c-2.903-3.285 6.482 2.295 0 0zm53.776.67c.583-1.081.727 1.074 0 0zm66.146-.132c1.016-1.443.256 1.476 0 0zm-306.652-.249c.473-1.794.814 1.431 0 0zm238.059.2c-1.908-1.281 3.303.593 0 0zm-281.186-.464c.504-1.334.82.96 0 0zm196.888.146c-.598-1.417 2.128 1.12 0 0zm26.349.075c-.88-1.347 1.181-.379 0 0zm-253.664-.213c.678-1.077 1.07-.003 0 0zm79.375-.112c-2.22-3.855.696-3.597 0 0zm141.023-.044c.652-.944.32.969 0 0zm34.594-.043c-2.196-2.04 3.363.633 0 0zm37.24.043c.679-.982 1.019.95 0 0zm69.383.066c-1.011-1.952 3.031-1.495 0 0zm-52.185-.33c1.081-.89.663 1.25 0 0zm8.143-.265c1.053-2.36 1.053 2.638 0 0zm61.84.264c.656-.94.313.966 0 0zm2.645-.148c.822-.96.501 1.333 0 0zm-249.816-.032c1.159-.382.115.51 0 0zm96.134-.2c.59-1.565.448 1.273 0 0zm42.028.12c4.401-3.985 1.81.292 0 0zm18.52-.02c.764-.505.618.908 0 0zm19.448.016c.324-1.044.952 1.006 0 0zm-97.284-.181c1.159-.382.115.51 0 0zm88.817-.084c1.45-.968.98.994 0 0zm-2.138-.23c-2.196-1.832 1.68-.158 0 0zm74.502-.034c.684-1.011.684 1.011 0 0zm-336.4-.238c-1.092-1.256 2.678.637 0 0zm342.801-.467c-.219-3.467 3.516.547 0 0zm2.89-.344c2.068 1.16-.158-.542 0 0zm-247.681.281c1.112-1.54.61.228 0 0zm126.272.063c-1.004-2.455 1.72.882 0 0zm87.829-.142c-1.042-2.88 1.93 1.314 0 0zm-345.601-.347c.562-1.433 1.499 1.007 0 0zm30.694.135c.654-.94.319.967 0 0zm58.087.019c.73-1.447.64 1.124 0 0zm120.903-.283c.325-1.043.951 1.007 0 0zm147.789.066c.271-2.303.953.407 0 0zm-223.327-.743c.822-.964.502 1.335 0 0zm-44.583-.573c-5.191-3.18 5.355 2.185 0 0zm185.837.28c-.74-1.246 1.776 1.59 0 0zm38.927.028c.306-.93.707.867 0 0zm69.819-.588c.142-2.209.369 2.065 0 0zm-250.794-.058c-.98-1.205 1.598.574 0 0zm-40.742-.595c.249-2.393.644 1.443 0 0zm220.15-.088c.381-.705.12 1.14 0 0zm1.852 0c.381-.705.12 1.14 0 0zm-186.816-.126c.762-.506.617.91 0 0zm65.881.015c.583-1.081.727 1.074 0 0zm-160.867-.264c.67-.896.495.93 0 0zm349.25.082c.825-1.75 1.51-.4 0 0zm-287.052-2.353c.381-.705.12 1.14 0 0zm.112-1.169c-3.922-1.608 2.034-.777 0 0zm1.72-3.307c-1.732-2.243 1.738.784 0 0zm290.777-.148c.762-.506.617.91 0 0zm-294.482-1.307c.45-2.756 1.051 3.026 0 0zm-46.302.264c.654-.94.319.967 0 0zm44.583 0c.329-1.044.95 1.009 0 0zm2.778-.412c.306-.93.705.866 0 0zm-2.44-1.012c.656-2.57 1.308 2.015 0 0zm-43.598.101c.53-.944.71.892 0 0zm-1.162-.418c-.949-2.179 1.844 1.162 0 0zm-.954-.905c.683-.949.668.95 0 0z" style="fill:#f7f6e7;fill-opacity:1;stroke-width:.264583"/></svg>