<?xml version="1.0" encoding="UTF-8" standalone="no"?>
<svg
   viewBox="0 0 72.178002 119.98993"
   x="0px"
   y="0px"
   version="1.1"
   id="svg22765"
   sodipodi:docname="noun-concert-5674382.svg"
   inkscape:version="1.2 (dc2aedaf03, 2022-05-15)"
   width="72.178001"
   height="119.98993"
   xml:space="preserve"
   xmlns:inkscape="http://www.inkscape.org/namespaces/inkscape"
   xmlns:sodipodi="http://sodipodi.sourceforge.net/DTD/sodipodi-0.dtd"
   xmlns="http://www.w3.org/2000/svg"
   xmlns:svg="http://www.w3.org/2000/svg"><defs
     id="defs22769"><rect
       x="-335.94438"
       y="298.86443"
       width="111.98146"
       height="66.002317"
       id="rect25798" /></defs><sodipodi:namedview
     id="namedview22767"
     pagecolor="#ffffff"
     bordercolor="#000000"
     borderopacity="0.25"
     inkscape:showpageshadow="2"
     inkscape:pageopacity="0.0"
     inkscape:pagecheckerboard="0"
     inkscape:deskcolor="#d1d1d1"
     showgrid="false"
     inkscape:zoom="5.39375"
     inkscape:cx="41.344148"
     inkscape:cy="66.929316"
     inkscape:window-width="1920"
     inkscape:window-height="1017"
     inkscape:window-x="-8"
     inkscape:window-y="-8"
     inkscape:window-maximized="1"
     inkscape:current-layer="g25742" /><g
     id="g22759"
     transform="translate(-28.099836,-4.0099188)"><g
       id="g25742"
       transform="translate(-282.64316,-222.23789)"
       style="fill:#ffffff"><path
         d="m 316.48759,268.78256 c 1.81786,0 3.56301,-0.94529 4.58102,-2.32686 l 0.65443,2.83586 c 0.0727,0.50901 0.72714,0.72715 1.16343,0.43629 0,0 4.72645,-3.05401 4.72645,-3.05401 0.43628,-0.29086 0.43628,-0.94529 0.0727,-1.23615 l -1.96329,-1.45429 h 42.17444 l -1.96329,1.45429 c -0.43629,0.29086 -0.36358,0.94529 0.0727,1.23615 l 4.72645,3.05401 c 0.43628,0.29086 1.018,0.0727 1.16343,-0.43629 0,0 0.65443,-2.83586 0.65443,-2.83586 3.19944,4.36287 10.32547,2.10872 10.32547,-3.34487 0.0727,-5.09002 -6.4716,-7.63503 -9.88918,-3.85388 l -0.14543,-0.14542 3.34487,-3.34487 h 3.70844 c 0.94529,0 1.01801,-1.52701 0,-1.52701 h -66.17025 c -0.94528,0 -1.018,1.52701 0,1.52701 h 4.21745 l 3.34487,3.34487 -0.36357,0.36357 c -3.34487,-3.9993 -10.03461,-1.59972 -10.03461,3.63573 -0.0727,3.12672 2.47229,5.67173 5.59902,5.67173 z m 56.49921,-6.10802 c 0.58172,-5.23545 8.21674,-4.87188 8.28946,0.36357 -0.21815,5.81717 -8.65303,5.38088 -8.28946,-0.36357 z m -51.33648,-1.96329 0.65443,-0.65444 2.25415,2.25416 h -2.47229 c 0,-0.50901 -0.14543,-1.09072 -0.43629,-1.59972 z m 4.29016,5.23544 -2.90858,1.89058 -0.94529,-3.70844 c 0,-0.0727 0,-0.14543 0,-0.21814 h 1.09072 z m 2.32687,-3.56301 2.25415,-2.25415 2.25415,2.25415 z m 8.21674,0 2.25415,-2.25415 2.25415,2.25415 z m 8.21675,0 2.25415,-2.25415 2.25415,2.25415 z m 8.28946,0 2.25415,-2.25415 2.25415,2.25415 z m 8.21674,0 2.25415,-2.25415 2.25415,2.25415 z m 9.38018,5.45359 -2.90858,-1.89058 2.69043,-2.036 h 1.09072 c 0,0.0727 0,0.14543 0,0.21814 z m 0.87257,-5.45359 h -2.036 l 2.25415,-2.25415 0.36357,0.36357 c -0.29086,0.58172 -0.509,1.23615 -0.58172,1.89058 z m 2.54501,-6.76245 -2.25415,2.25415 -2.25415,-2.25415 z m -3.34487,3.41758 -3.05401,3.05401 -3.05401,-3.05401 3.05401,-3.05401 z m -4.87187,-3.41758 -2.25415,2.25415 -2.25416,-2.25415 z m -3.41759,3.41758 -3.05401,3.05401 -3.05401,-3.05401 3.05401,-3.05401 z m -4.87187,-3.41758 -2.25415,2.25415 -2.25415,-2.25415 z m -3.34487,3.41758 -3.05401,3.05401 -3.05401,-3.05401 3.05401,-3.05401 z m -4.87188,-3.41758 -2.25415,2.25415 -2.25415,-2.25415 z m -3.34487,3.41758 -3.05401,3.05401 -3.05401,-3.05401 3.05401,-3.05401 z m -4.87187,-3.41758 -2.25415,2.25415 -2.25415,-2.25415 z m -3.34487,3.41758 -3.05401,3.05401 -3.05401,-3.05401 3.05401,-3.05401 z m -4.87188,-3.41758 -2.25415,2.25415 -2.25415,-2.25415 z m -3.41758,3.41758 -2.9813,2.9813 -3.05401,-3.05401 3.05401,-2.9813 z m -9.38018,-3.41758 h 4.58102 l -2.25415,2.25415 z m -3.56301,3.27215 c 5.5263,0.14543 5.5263,8.14403 0,8.36218 -5.52631,-0.21815 -5.52631,-8.21675 0,-8.36218 z m 0,6.54431 c 3.05401,0 3.19944,-4.65373 0,-4.79916 -3.12673,0.14543 -3.12673,4.72645 0,4.79916 z m 0,-3.27215 c 1.23615,0.0727 1.09072,1.74515 0,1.74515 -1.16343,0 -1.16343,-1.67244 0,-1.74515 z m 60.64394,3.27215 c 3.12672,-0.0727 3.12672,-4.72644 0,-4.79916 -3.12673,0.0727 -3.19944,4.72645 0,4.79916 z m -0.72715,-2.83587 c 0.43629,-0.72714 1.59972,-0.36357 1.59972,0.50901 -0.14543,1.45429 -2.32686,0.79986 -1.59972,-0.50901 z m -53.66334,26.9771 c -5.16273,0.14543 -5.16273,7.63503 0,7.85318 5.16273,-0.14543 5.16273,-7.63503 0,-7.85318 z m 0,6.32617 c -3.12673,-0.0727 -3.12673,-4.72645 0,-4.79916 3.12673,0.0727 3.12673,4.72645 0,4.79916 z m 0,3.9993 c -3.78116,0.0727 -3.78116,5.67174 0,5.74445 3.78116,-0.0727 3.78116,-5.67173 0,-5.74445 z m 0,4.21745 c -1.81786,0 -1.81786,-2.69044 0,-2.76316 1.81786,0.0727 1.81786,2.76316 0,2.76316 z m 48.64604,-14.54292 c -5.16274,0.14543 -5.16274,7.63503 0,7.85318 5.16273,-0.14543 5.16273,-7.63503 0,-7.85318 z m 0,6.32617 c -3.12673,-0.0727 -3.12673,-4.72645 0,-4.79916 3.12672,0.0727 3.12672,4.72645 0,4.79916 z m 0,3.9993 c -3.78116,0.0727 -3.78116,5.67174 0,5.74445 3.78116,-0.0727 3.78116,-5.67173 0,-5.74445 z m 0,4.21745 c -1.81787,0 -1.81787,-2.69044 0,-2.76316 1.74515,0.0727 1.74515,2.76316 0,2.76316 z m 11.34347,13.0159 -4.87188,-6.25345 c 0,-1.09072 0,-21.37808 0,-23.12323 0,-0.43629 -0.36357,-0.72714 -0.72714,-0.72714 h -11.56162 c -0.14543,-0.14543 -3.34487,2.10872 -3.56301,2.18143 -0.21814,0.14543 -0.36357,0.36357 -0.36357,0.65443 v 10.18004 h -14.90649 v -16.65163 c 0.72715,-0.29086 1.30887,-1.01801 1.30887,-1.81787 v -1.16343 c 0,-1.16343 -1.01801,-2.03601 -2.18144,-1.96329 -1.09072,0 -1.96329,0.87257 -1.96329,1.96329 v 1.16343 c 0,0.87258 0.509,1.52701 1.30886,1.81787 v 16.43349 h -12.79776 v -10.18004 c 0,-0.29086 -0.14543,-0.509 -0.36358,-0.65443 -0.21814,-0.0727 -3.34487,-2.32687 -3.56301,-2.18144 0,0 -11.4889,0 -11.4889,0 -0.43629,0 -0.72715,0.36357 -0.72715,0.72715 v 19.4875 c -0.29085,0.14543 -0.509,0.36357 -0.509,0.72714 v 3.19944 l -4.87187,6.03531 c -0.36358,0.43629 0,1.23615 0.58171,1.23615 0,0 70.67855,0 70.67855,0 0.65443,0.14543 1.01801,-0.65443 0.58172,-1.09072 z m -16.36078,-28.72225 h 9.9619 v 18.68764 h -9.9619 z m -3.12672,1.67244 1.59972,-1.01801 v 16.57892 l -1.59972,-2.10872 z m -17.81507,-9.59832 c 0,-0.58172 1.09072,-0.58172 1.09072,0 0,0 0,1.16343 0,1.16343 0,0.58171 -1.09072,0.58171 -1.09072,0 0,-0.0727 0,-1.16343 0,-1.16343 z m -13.16133,23.77766 c 0.0727,-0.14543 0.14543,-0.29086 0.14543,-0.43629 v -2.39958 h 12.79776 v 1.38157 c 0,0.43629 0.36357,0.72715 0.72714,0.72715 0.36358,0 0.72715,-0.36357 0.72715,-0.72715 v -1.38157 h 14.9792 v 2.39958 c 0,0.14543 0.0727,0.36357 0.14543,0.43629 l 2.18143,2.83586 h -33.88498 z m -2.9813,-15.19735 1.59972,1.01801 v 13.45219 l -1.59972,2.10872 z m -11.56161,-0.65443 h 9.96189 v 18.68764 h -9.96189 z m -0.43629,20.21465 c 14.17934,0 44.93759,0 59.11693,0 v 1.74515 h -59.11693 z m -4.21745,8.21674 3.9993,-4.94459 h 59.69866 l 3.85387,4.94459 z"
         id="path25862"
         style="stroke-width:0.727146" /></g></g></svg>
