<?xml version="1.0" encoding="UTF-8" standalone="no"?>
<svg
   viewBox="0 0 72.178002 119.98993"
   x="0px"
   y="0px"
   version="1.1"
   id="svg22765"
   sodipodi:docname="noun-cooking-2555746.svg"
   inkscape:version="1.2 (dc2aedaf03, 2022-05-15)"
   width="72.178001"
   height="119.98993"
   xml:space="preserve"
   xmlns:inkscape="http://www.inkscape.org/namespaces/inkscape"
   xmlns:sodipodi="http://sodipodi.sourceforge.net/DTD/sodipodi-0.dtd"
   xmlns="http://www.w3.org/2000/svg"
   xmlns:svg="http://www.w3.org/2000/svg"><defs
     id="defs22769"><rect
       x="-335.94438"
       y="298.86443"
       width="111.98146"
       height="66.002317"
       id="rect25798" /></defs><sodipodi:namedview
     id="namedview22767"
     pagecolor="#ffffff"
     bordercolor="#000000"
     borderopacity="0.25"
     inkscape:showpageshadow="2"
     inkscape:pageopacity="0.0"
     inkscape:pagecheckerboard="0"
     inkscape:deskcolor="#d1d1d1"
     showgrid="false"
     inkscape:zoom="1.9069786"
     inkscape:cx="-34.609722"
     inkscape:cy="59.25604"
     inkscape:window-width="1920"
     inkscape:window-height="1017"
     inkscape:window-x="-8"
     inkscape:window-y="-8"
     inkscape:window-maximized="1"
     inkscape:current-layer="g22759" /><g
     id="g22759"
     transform="translate(-28.099836,-4.0099188)"><g
       id="g26926"
       transform="matrix(1.3858756,0,0,1.3858756,20.533756,19.657411)"
       style="fill:#ffffff"><path
         id="circle26924"
         style="fill:#ffffff"
         d="m 53,43 a 1,1 0 0 1 -1,1 1,1 0 0 1 -1,-1 1,1 0 0 1 1,-1 1,1 0 0 1 1,1 z m -12.978,0 a 1,1 0 0 0 1,1 H 45 v 17 a 1,1 0 0 0 1,1 h 6 a 1,1 0 0 0 1,-1 V 47 a 1,1 0 0 0 -1,-1 h -5 v -2 h 1 a 1,1 0 0 0 0,-2 H 46 V 26.408 A 26.165,26.165 0 0 1 51,10.955 V 39 a 1,1 0 0 0 2,0 V 3 A 1,1 0 0 0 51.292,2.293 L 49.079,4.51 a 30.8,30.8 0 0 0 -9.057,21.9 z M 51,48 V 60 H 47 V 48 Z M 42.022,26.408 A 28.814,28.814 0 0 1 50.5,5.923 L 51,5.417 v 2.23 A 28.651,28.651 0 0 0 44,26.408 V 42 H 42.022 Z M 26,12 a 3,3 0 1 0 -3,-3 3,3 0 0 0 3,3 z M 26,8 A 1,1 0 1 1 25,9 1,1 0 0 1 26,8 Z M 32,2 H 11 a 1,1 0 0 0 -1,1 v 40 a 1,1 0 0 0 1,1 h 14 v 17 a 1,1 0 0 0 1,1 h 6 a 1,1 0 0 0 1,-1 V 3 A 1,1 0 0 0 32,2 Z m -1,15.586 -6.707,6.707 a 1,1 0 1 0 1.414,1.414 L 31,20.414 v 3.172 L 20.293,34.293 a 1,1 0 1 0 1.414,1.414 L 31,26.414 V 42 H 16 V 4 H 31 Z M 12,42 V 4 h 2 v 38 z m 19,2 v 2 H 27 V 44 Z M 27,60 V 48 h 4 v 12 z" /></g></g></svg>
