<svg xmlns="http://www.w3.org/2000/svg" xml:space="preserve" width="72.178" height="119.99"><path d="M93.94 15.91 77.7 32.15a58.94 58.94 0 0 0 1.93-9.5L92.45 9.83a1.5 1.5 0 1 0-2.12-2.12L77.51 20.53A58.94 58.94 0 0 0 68 22.46L84.57 5.9a1.5 1.5 0 0 0-2.12-2.12L61.06 25.17a17.55 17.55 0 0 0-7.59 6.68 51.51 51.51 0 0 0-4.07-9 1.51 1.51 0 0 0-1.21-.74 1.49 1.49 0 0 0-1.28.61c-.32.43-6.45 8.77-7.64 17-1.09-2.41-2-4-2.15-4.22a1.51 1.51 0 0 0-2.5-.13c-.32.44-6.62 9-7.68 17.34a48.57 48.57 0 0 0-2.46-4.91 1.52 1.52 0 0 0-1.22-.8 1.48 1.48 0 0 0-1.28.6c-.4.54-9.82 13.36-7.45 22.93a11.06 11.06 0 0 0 5.74 7.23L3.94 94.1a1.49 1.49 0 0 0 0 2.12 1.5 1.5 0 0 0 2.12 0L22.5 79.78A11.21 11.21 0 0 0 30 86a13.42 13.42 0 0 0 3.3.38c9 0 19.14-7.48 19.62-7.83a1.5 1.5 0 0 0 .61-1.28 1.53 1.53 0 0 0-.74-1.22 49.39 49.39 0 0 0-4.92-2.46c8.34-1.06 16.91-7.36 17.35-7.69a1.49 1.49 0 0 0 .6-1.28 1.51 1.51 0 0 0-.73-1.21c-.19-.11-1.81-1.06-4.22-2.15 8.23-1.19 16.57-7.32 17-7.64a1.51 1.51 0 0 0-.13-2.5A52.13 52.13 0 0 0 68 46.85c3-1.56 5.27-4.47 6.95-7.74L96.06 18a1.5 1.5 0 1 0-2.12-2.12ZM48 26.46c2 4 5.81 12.9 3.63 18.9a7.76 7.76 0 0 1-1.79 2.88l-.08.08a9.07 9.07 0 0 1-3 1.93 8.12 8.12 0 0 1-4.34-5.37c-1.59-6.2 3.11-14.62 5.58-18.42Zm-2.79 26.37-2.31 2.3a20.81 20.81 0 0 0-.14-4 12.7 12.7 0 0 0 2.45 1.7zm-9.53-13.71c2 4 5.8 12.9 3.63 18.89a8.63 8.63 0 0 1-.65 1.37l-2.8 2.8a10.77 10.77 0 0 1-1.44.73 8.18 8.18 0 0 1-4.34-5.38c-1.53-6.19 3.17-14.61 5.6-18.41zm-3 26.24-2.45 2.45a20.77 20.77 0 0 0-.11-4.38 12.27 12.27 0 0 0 2.56 1.93zm-10.9 9.84a8.13 8.13 0 0 1-4.34-5.38C15.91 63.63 20.6 55.21 23 51.41c2 4 5.81 12.9 3.63 18.9A7.85 7.85 0 0 1 25 73l-.41.41a9.21 9.21 0 0 1-2.81 1.79zm27.34 2.3c-3.8 2.42-12.22 7.12-18.41 5.59a8.16 8.16 0 0 1-5.38-4.34 8.14 8.14 0 0 1 4.89-4.88c6-2.18 14.86 1.61 18.9 3.63zm-17.23-7.11 3-3a13.12 13.12 0 0 0 2.18 3 19.69 19.69 0 0 0-5.18 0zm29.52-5.54C57.62 67.28 49.21 72 43 70.45a8.17 8.17 0 0 1-5.38-4.35 8.19 8.19 0 0 1 4.89-4.88c6-2.17 14.87 1.62 18.9 3.63zM44.58 57.7l2.86-2.86a13 13 0 0 0 2 2.93 20.06 20.06 0 0 0-4.86-.07zm29.49-5.13c-3.8 2.43-12.21 7.13-18.41 5.59a8.17 8.17 0 0 1-5.39-4.34 8.15 8.15 0 0 1 4.9-4.88c6-2.18 14.83 1.61 18.9 3.63zm-7.41-8.39c-2.78 1.45-6 1.15-9.77-.91-2.06-3.79-2.36-7-.91-9.77 3.48-6.7 16-9.13 20.48-9.8-.67 4.5-3.1 17-9.8 20.48z" data-name="Layer 9 copy" style="fill:#fff" transform="translate(-2.713 21.192) scale(.77577)"/></svg>