<svg xmlns="http://www.w3.org/2000/svg" xml:space="preserve" width="72.178" height="119.99"><path d="M53 43a1 1 0 0 1-1 1 1 1 0 0 1-1-1 1 1 0 0 1 1-1 1 1 0 0 1 1 1zm-12.978 0a1 1 0 0 0 1 1H45v17a1 1 0 0 0 1 1h6a1 1 0 0 0 1-1V47a1 1 0 0 0-1-1h-5v-2h1a1 1 0 0 0 0-2h-2V26.408a26.165 26.165 0 0 1 5-15.453V39a1 1 0 0 0 2 0V3a1 1 0 0 0-1.708-.707L49.079 4.51a30.8 30.8 0 0 0-9.057 21.9zM51 48v12h-4V48Zm-8.978-21.592A28.814 28.814 0 0 1 50.5 5.923l.5-.506v2.23a28.651 28.651 0 0 0-7 18.761V42h-1.978ZM26 12a3 3 0 1 0-3-3 3 3 0 0 0 3 3zm0-4a1 1 0 1 1-1 1 1 1 0 0 1 1-1Zm6-6H11a1 1 0 0 0-1 1v40a1 1 0 0 0 1 1h14v17a1 1 0 0 0 1 1h6a1 1 0 0 0 1-1V3a1 1 0 0 0-1-1Zm-1 15.586-6.707 6.707a1 1 0 1 0 1.414 1.414L31 20.414v3.172L20.293 34.293a1 1 0 1 0 1.414 1.414L31 26.414V42H16V4h15ZM12 42V4h2v38zm19 2v2h-4v-2Zm-4 16V48h4v12z" style="fill:#fff" transform="translate(-7.566 15.647) scale(1.38588)"/></svg>