<svg xmlns="http://www.w3.org/2000/svg" xml:space="preserve" width="72.178" height="119.99"><g style="fill:#fff"><path d="M316.488 268.783c1.817 0 3.563-.946 4.58-2.327l.655 2.836c.073.509.727.727 1.163.436l4.727-3.054c.436-.291.436-.945.073-1.236l-1.964-1.455h42.175l-1.964 1.455c-.436.29-.363.945.073 1.236l4.727 3.054a.764.764 0 0 0 1.163-.436l.654-2.836c3.2 4.363 10.326 2.108 10.326-3.345.073-5.09-6.472-7.635-9.89-3.854l-.145-.145 3.345-3.345h3.709c.945 0 1.018-1.527 0-1.527h-66.17c-.946 0-1.019 1.527 0 1.527h4.217l3.345 3.345-.364.363c-3.345-4-10.034-1.6-10.034 3.636-.073 3.127 2.472 5.672 5.599 5.672zm56.499-6.108c.582-5.236 8.217-4.872 8.29.363-.219 5.817-8.654 5.381-8.29-.363zm-51.337-1.964.655-.654 2.254 2.254h-2.472c0-.509-.146-1.09-.437-1.6zm4.29 5.236-2.908 1.89-.945-3.708v-.218h1.09zm2.327-3.563 2.255-2.254 2.254 2.254zm8.217 0 2.254-2.254 2.254 2.254zm8.217 0 2.254-2.254 2.254 2.254zm8.29 0 2.253-2.254 2.255 2.254zm8.216 0 2.254-2.254 2.254 2.254zm9.38 5.453-2.908-1.89 2.69-2.036h1.09v.218zm.873-5.453h-2.036l2.254-2.254.364.363a5.717 5.717 0 0 0-.582 1.89zm2.545-6.763-2.254 2.254-2.254-2.254zm-3.345 3.418-3.054 3.054-3.054-3.054 3.054-3.054zm-4.872-3.418-2.254 2.254-2.254-2.254zm-3.418 3.418-3.054 3.054-3.054-3.054 3.054-3.054zm-4.871-3.418-2.255 2.254-2.254-2.254zm-3.345 3.418-3.054 3.054-3.054-3.054 3.054-3.054zm-4.872-3.418-2.254 2.254-2.254-2.254zm-3.345 3.418-3.054 3.054-3.054-3.054 3.054-3.054zm-4.872-3.418-2.254 2.254-2.254-2.254zm-3.345 3.418-3.054 3.054-3.054-3.054 3.054-3.054zm-4.872-3.418-2.254 2.254-2.254-2.254zm-3.417 3.418-2.982 2.981-3.054-3.054 3.054-2.981zm-9.38-3.418h4.58l-2.254 2.254zm-3.563 3.272c5.526.146 5.526 8.144 0 8.363-5.527-.219-5.527-8.217 0-8.363zm0 6.545c3.054 0 3.199-4.654 0-4.8-3.127.146-3.127 4.727 0 4.8zm0-3.272c1.236.072 1.09 1.745 0 1.745-1.164 0-1.164-1.673 0-1.745zm60.644 3.272c3.126-.073 3.126-4.727 0-4.8-3.127.073-3.2 4.727 0 4.8zm-.728-2.836c.437-.727 1.6-.364 1.6.509-.145 1.454-2.327.8-1.6-.51zm-53.663 26.977c-5.163.145-5.163 7.635 0 7.853 5.163-.145 5.163-7.635 0-7.853zm0 6.326c-3.127-.073-3.127-4.726 0-4.8 3.127.074 3.127 4.727 0 4.8zm0 4c-3.781.072-3.781 5.671 0 5.744 3.781-.073 3.781-5.672 0-5.745zm0 4.217c-1.818 0-1.818-2.69 0-2.763 1.818.072 1.818 2.763 0 2.763zm48.646-14.543c-5.163.145-5.163 7.635 0 7.853 5.163-.145 5.163-7.635 0-7.853zm0 6.326c-3.127-.073-3.127-4.726 0-4.8 3.127.074 3.127 4.727 0 4.8zm0 4c-3.781.072-3.781 5.671 0 5.744 3.781-.073 3.781-5.672 0-5.745zm0 4.217c-1.818 0-1.818-2.69 0-2.763 1.745.072 1.745 2.763 0 2.763zm11.344 13.016-4.872-6.254v-23.123a.729.729 0 0 0-.727-.727H365.57c-.146-.146-3.345 2.109-3.563 2.181a.764.764 0 0 0-.364.655v10.18h-14.906v-16.652c.727-.29 1.309-1.018 1.309-1.818v-1.163c0-1.164-1.018-2.036-2.182-1.963-1.09 0-1.963.872-1.963 1.963v1.163c0 .873.509 1.527 1.309 1.818v16.434h-12.798v-10.18a.764.764 0 0 0-.363-.655c-.219-.072-3.345-2.327-3.564-2.181h-11.488a.729.729 0 0 0-.728.727v19.487c-.29.146-.509.364-.509.728v3.199l-4.871 6.035c-.364.437 0 1.236.581 1.236h70.679c.654.146 1.018-.654.582-1.09zm-16.361-28.723h9.962v18.688h-9.962zm-3.127 1.673 1.6-1.018v16.579l-1.6-2.109zm-17.815-9.598c0-.582 1.09-.582 1.09 0v1.163c0 .582-1.09.582-1.09 0v-1.163zm-13.161 23.777c.072-.145.145-.29.145-.436v-2.4h12.798v1.382c0 .436.363.727.727.727s.727-.363.727-.727v-1.382h14.98v2.4c0 .145.072.364.145.436l2.181 2.836h-33.885zm-2.982-15.197 1.6 1.018v13.452l-1.6 2.109zm-11.561-.655h9.962v18.688h-9.962zm-.437 20.215h59.117v1.745h-59.117zm-4.217 8.217 4-4.945h59.698l3.854 4.945z" style="stroke-width:.727146" transform="translate(-310.743 -226.248)"/></g></svg>