<?xml version="1.0" encoding="UTF-8" standalone="no"?>
<svg
   viewBox="0 0 72.178002 119.98993"
   x="0px"
   y="0px"
   version="1.1"
   id="svg22765"
   sodipodi:docname="noun-saw-table-3437774.svg"
   inkscape:version="1.2 (dc2aedaf03, 2022-05-15)"
   width="72.178001"
   height="119.98993"
   xml:space="preserve"
   xmlns:inkscape="http://www.inkscape.org/namespaces/inkscape"
   xmlns:sodipodi="http://sodipodi.sourceforge.net/DTD/sodipodi-0.dtd"
   xmlns="http://www.w3.org/2000/svg"
   xmlns:svg="http://www.w3.org/2000/svg"><defs
     id="defs22769"><rect
       x="-335.94438"
       y="298.86443"
       width="111.98146"
       height="66.002317"
       id="rect25798" /></defs><sodipodi:namedview
     id="namedview22767"
     pagecolor="#ffffff"
     bordercolor="#000000"
     borderopacity="0.25"
     inkscape:showpageshadow="2"
     inkscape:pageopacity="0.0"
     inkscape:pagecheckerboard="0"
     inkscape:deskcolor="#d1d1d1"
     showgrid="false"
     inkscape:zoom="5.39375"
     inkscape:cx="-5.3765933"
     inkscape:cy="66.929316"
     inkscape:window-width="1920"
     inkscape:window-height="1017"
     inkscape:window-x="-8"
     inkscape:window-y="-8"
     inkscape:window-maximized="1"
     inkscape:current-layer="g25742" /><g
     id="g22759"
     transform="translate(-28.099836,-4.0099188)"><g
       id="g25742"
       transform="translate(-282.64316,-222.23789)"
       style="fill:#ffffff"><path
         d="m 382.00347,278.60058 h -20.67668 c 2.30022,-0.45387 5.30997,-2.20632 5.50082,-5.76934 a 0.91751587,0.91751587 0 0 0 -1.41389,-0.8198 5.2845854,5.2845854 0 0 1 -3.4283,0.7493 8.097842,8.097842 0 0 0 1.8962,-1.84221 c 0.85773,-1.17549 1.70887,-3.07598 0.89427,-5.45402 a 0.91751587,0.91751587 0 0 0 -1.61789,-0.23122 5.2937605,5.2937605 0 0 1 -3.23913,2.05661 c 1.36373,-1.91837 2.37147,-5.4005 -0.0797,-8.1295 a 0.91751587,0.91751587 0 0 0 -1.5795,0.42022 5.2881028,5.2881028 0 0 1 -1.89391,2.95456 8.1021239,8.1021239 0 0 0 0.0379,-2.64321 c -0.22478,-1.43744 -0.96659,-3.38334 -3.2243,-4.4891 a 0.91751587,0.91751587 0 0 0 -1.30761,0.98068 5.2931489,5.2931489 0 0 1 -0.83616,3.74483 c -0.39239,-2.32116 -2.14209,-5.49576 -5.80466,-5.69211 a 0.91751587,0.91751587 0 0 0 -0.81981,1.41389 5.2882557,5.2882557 0 0 1 0.75176,3.41515 c -1.32551,-1.91501 -4.01689,-3.90098 -7.29808,-2.77717 a 0.91751587,0.91751587 0 0 0 -0.23137,1.61803 5.2939134,5.2939134 0 0 1 2.05723,3.23991 c -1.91883,-1.36389 -5.40065,-2.37117 -8.12935,0.0797 a 0.91751587,0.91751587 0 0 0 0.42023,1.57965 5.2876441,5.2876441 0 0 1 2.95333,1.89376 8.0894314,8.0894314 0 0 0 -2.64322,-0.0379 c -1.43744,0.22479 -3.38364,0.96661 -4.48925,3.22416 a 0.91751587,0.91751587 0 0 0 0.98067,1.30761 5.2900906,5.2900906 0 0 1 3.74469,0.83601 c -2.321,0.39254 -5.49576,2.1421 -5.69196,5.80466 a 0.91751587,0.91751587 0 0 0 1.41389,0.81996 5.28535,5.28535 0 0 1 3.4286,-0.75007 7.8141768,7.8141768 0 0 0 -2.32009,2.49701 h -17.69766 a 0.91751587,0.91751587 0 0 0 -0.91751,0.91752 v 4.22226 a 0.91751587,0.91751587 0 0 0 0.91751,0.91751 h 2.72885 v 32.47517 a 0.91751587,0.91751587 0 0 0 0.91753,0.9175 h 4.87384 a 0.91751587,0.91751587 0 0 0 0.91752,-0.91751 v -4.89633 l 25.73372,-3.44191 25.73372,3.44191 v 4.89633 a 0.91751587,0.91751587 0 0 0 0.91751,0.91751 h 4.87385 a 0.91751587,0.91751587 0 0 0 0.91752,-0.91751 V 284.6579 h 2.72884 a 0.91751587,0.91751587 0 0 0 0.91752,-0.91751 v -4.22225 a 0.91751587,0.91751587 0 0 0 -0.91752,-0.91752 z m -48.33489,-1.50045 a 0.91751587,0.91751587 0 0 0 0.61979,-0.89672 l -0.0191,-0.60831 a 0.91751587,0.91751587 0 0 0 -0.53644,-0.80589 c -1.39156,-0.63476 -3.08561,-0.72147 -4.62412,-0.29834 1.05407,-1.99988 3.67312,-2.55375 4.51799,-2.51047 a 0.91919795,0.91919795 0 0 0 0.91446,-0.61168 l 0.28428,-0.80772 a 0.91751587,0.91751587 0 0 0 -0.18855,-0.9241 c -1.03343,-1.12915 -2.55957,-1.87188 -4.14228,-2.08337 a 4.2664487,4.2664487 0 0 1 2.08108,-0.87943 c 1.32031,-0.20676 2.55467,0.0882 3.06206,0.33642 a 0.91751587,0.91751587 0 0 0 1.07226,-0.19574 l 0.41656,-0.44346 a 0.91751587,0.91751587 0 0 0 0.19069,-0.94949 c -0.53522,-1.43284 -1.67141,-2.69229 -3.05839,-3.48058 2.15892,-0.66873 4.40408,0.79012 4.96988,1.41954 a 0.91751587,0.91751587 0 0 0 1.0793,0.21409 l 0.77209,-0.37022 a 0.91751587,0.91751587 0 0 0 0.51993,-0.78677 c 0.0678,-1.52812 -0.48552,-3.13132 -1.4538,-4.39964 2.24883,0.22938 3.74468,2.45007 4.01887,3.25045 a 0.91751587,0.91751587 0 0 0 0.89672,0.61963 l 0.608,-0.0192 a 0.91751587,0.91751587 0 0 0 0.80604,-0.53629 c 0.63462,-1.39156 0.72178,-3.08576 0.29819,-4.62428 1.99958,1.05514 2.55575,3.67343 2.51049,4.51801 a 0.91751587,0.91751587 0 0 0 0.61167,0.91476 l 0.80772,0.28412 a 0.91751587,0.91751587 0 0 0 0.92394,-0.1887 c 1.12915,-1.03343 1.87204,-2.55972 2.08337,-4.14212 a 4.2635433,4.2635433 0 0 1 0.87959,2.08092 c 0.2066,1.32061 -0.0881,2.55375 -0.33642,3.0619 a 0.91751587,0.91751587 0 0 0 0.19574,1.07196 l 0.44346,0.41687 a 0.91613955,0.91613955 0 0 0 0.94947,0.19084 c 1.4327,-0.53523 2.69139,-1.67172 3.48061,-3.05839 0.6687,2.15983 -0.79014,4.40408 -1.41956,4.96987 a 0.91751587,0.91751587 0 0 0 -0.21409,1.07901 L 358.06,268.68 a 0.91751587,0.91751587 0 0 0 0.78692,0.51993 c 1.53103,0.0671 3.13377,-0.48628 4.40224,-1.45595 a 4.2675191,4.2675191 0 0 1 -0.84947,2.09362 c -0.78783,1.07961 -1.86883,1.74328 -2.40312,1.92678 a 0.91751587,0.91751587 0 0 0 -0.61978,0.89657 l 0.0188,0.60831 a 0.91751587,0.91751587 0 0 0 0.53644,0.8065 c 1.39157,0.63446 3.08561,0.72132 4.62413,0.2982 -1.05422,1.99987 -3.67235,2.55466 -4.51769,2.51047 a 0.92133883,0.92133883 0 0 0 -0.91446,0.61168 l -0.28458,0.80757 a 0.91185788,0.91185788 0 0 0 -0.0502,0.29727 h -1.57722 a 11.184977,11.184977 0 1 0 -20.76017,0 h -4.84249 c 0.68661,-0.77729 1.51481,-1.3145 2.0592,-1.50091 z m 22.5134,-2.66768 a 9.3586618,9.3586618 0 0 1 -0.97869,4.16813 h -16.74191 a 9.3504036,9.3504036 0 1 1 17.7206,-4.16813 z m -36.9187,41.78307 h -3.03881 v -31.55766 h 3.03881 z m 1.83503,-5.83097 v -5.03165 l 18.81244,2.51613 z m 51.46744,0 -18.81243,-2.51552 18.81243,-2.51613 z m 0,-6.88382 -25.73371,3.44252 -25.73373,-3.44191 v -18.84348 h 6.39203 v 15.77898 a 0.91751587,0.91751587 0 0 0 0.91752,0.91752 h 36.84805 a 0.91751587,0.91751587 0 0 0 0.91751,-0.91752 v -15.77898 h 6.39203 z m -43.24007,-3.98202 v -14.86085 h 35.01271 v 14.86147 z m 48.11392,16.69681 h -3.03882 v -31.55766 h 3.03882 z m 3.64636,-33.39269 H 312.5781 v -2.38722 h 68.50786 z"
         id="path25718"
         style="stroke-width:0.152919;fill:#ffffff" /><path
         d="m 360.82782,286.84736 h -13.74745 a 0.91751587,0.91751587 0 0 0 -0.91751,0.91752 v 8.64758 a 0.91751587,0.91751587 0 0 0 0.91751,0.91752 h 13.74745 a 0.91751587,0.91751587 0 0 0 0.91752,-0.91752 v -8.64758 a 0.91751587,0.91751587 0 0 0 -0.91752,-0.91752 z m -0.91751,8.64744 h -11.91242 v -6.81241 h 11.91242 z"
         id="path25720"
         style="stroke-width:0.152919;fill:#ffffff" /><path
         d="m 352.21311,294.7039 a 2.6149202,2.6149202 0 1 0 -2.61492,-2.61492 2.6182844,2.6182844 0 0 0 2.61492,2.61492 z m 0,-3.39481 a 0.77988849,0.77988849 0 1 1 -0.77988,0.77989 0.78111181,0.78111181 0 0 1 0.77988,-0.7805 z"
         id="path25722"
         style="stroke-width:0.152919;fill:#ffffff" /><path
         d="m 357.09949,294.7039 a 0.91751587,0.91751587 0 0 0 0.91752,-0.91752 v -3.39481 a 0.91751603,0.91751603 0 0 0 -1.83503,0 v 3.39481 a 0.91751587,0.91751587 0 0 0 0.91751,0.91752 z"
         id="path25724"
         style="stroke-width:0.152919;fill:#ffffff" /></g></g></svg>
