<?xml version="1.0" encoding="UTF-8" standalone="no"?>
<svg
   viewBox="0 0 72.178139 119.98993"
   x="0px"
   y="0px"
   version="1.1"
   id="svg22765"
   sodipodi:docname="noun-motocross-4706122.svg"
   inkscape:version="1.2 (dc2aedaf03, 2022-05-15)"
   width="72.178139"
   height="119.98993"
   xmlns:inkscape="http://www.inkscape.org/namespaces/inkscape"
   xmlns:sodipodi="http://sodipodi.sourceforge.net/DTD/sodipodi-0.dtd"
   xmlns="http://www.w3.org/2000/svg"
   xmlns:svg="http://www.w3.org/2000/svg">
  <defs
     id="defs22769" />
  <sodipodi:namedview
     id="namedview22767"
     pagecolor="#ffffff"
     bordercolor="#000000"
     borderopacity="0.25"
     inkscape:showpageshadow="2"
     inkscape:pageopacity="0.0"
     inkscape:pagecheckerboard="0"
     inkscape:deskcolor="#d1d1d1"
     showgrid="false"
     inkscape:zoom="1.3484375"
     inkscape:cx="-127.55504"
     inkscape:cy="138.67903"
     inkscape:window-width="1920"
     inkscape:window-height="1017"
     inkscape:window-x="-8"
     inkscape:window-y="-8"
     inkscape:window-maximized="1"
     inkscape:current-layer="g22759" />
  <g
     id="g22759"
     transform="translate(-28.099836,-4.0099188)">
    <path
       fill="#ffffff"
       d="m 81.262,97.69 c -0.028,0 0.062,-0.069 0.11,-0.1 -0.007,-0.048 0,-0.117 0.014,-0.117 a 3.548,3.548 0 0 0 -0.56,-1.12 0.907,0.907 0 0 1 -0.152,-0.678 1.991,1.991 0 0 0 -1,0.36 5.093,5.093 0 0 0 -0.49,0.456 c 0.138,0.207 0.269,0.422 0.407,0.629 a 0.913,0.913 0 0 1 0.353,0.553 c 0.035,0.056 0.076,0.118 0.111,0.173 a 3.317,3.317 0 0 0 0.656,-0.035 2.946,2.946 0 0 0 0.551,-0.121 z m -5.455,-57.726 0.014,-0.007 c 0.007,-0.014 0.021,-0.021 0.034,-0.035 a 3.523,3.523 0 0 0 0.284,-0.29 1.061,1.061 0 0 1 0.263,-0.318 0.966,0.966 0 0 1 0.477,-0.809 6.366,6.366 0 0 1 3.346,-0.933 0.751,0.751 0 0 1 -0.042,-0.18 c -1.279,-1.016 -3.028,-1.334 -4.556,-1.8 A 1.133,1.133 0 0 1 75.42,35.509 1.166,1.166 0 0 1 75.282,35.481 c -3.264,-1.023 -6.589,-1.7 -9.575,-3.45 -0.007,0 -0.014,-0.007 -0.021,-0.013 -2.606,1.756 -4.853,3.664 -6.063,6.657 a 1.114,1.114 0 0 1 -0.228,0.346 1.134,1.134 0 0 1 -0.1,0.359 c -0.083,0.166 -0.173,0.332 -0.256,0.491 a 4.7,4.7 0 0 1 0.927,0.263 1.482,1.482 0 0 1 0.193,0.09 c 4.21,-2 8.946,-2.109 13.53,-2.116 0.02,0 0.034,0.007 0.055,0.007 a 1.159,1.159 0 0 1 1.016,0.505 c 0.083,0.11 0.173,0.221 0.256,0.332 a 0.771,0.771 0 0 1 0.187,0.152 3.755,3.755 0 0 1 0.6,0.864 z m -28.358,67.405 c -0.083,-0.028 0.248,-0.042 0.248,-0.021 a 1.077,1.077 0 0 0 0.332,-0.111 2.517,2.517 0 0 0 0.768,-0.58 2.659,2.659 0 0 0 0.5,-3.333 c -0.7,0.8 -1.41,1.59 -2.177,2.316 -0.028,0.021 -0.063,0.042 -0.09,0.063 a 1.114,1.114 0 0 1 -0.436,0.338 2.757,2.757 0 0 0 0.443,1.072 0.535,0.535 0 0 0 0.412,0.256 z m 52.3,-9.824 c 0.539,2.129 0.961,4.791 -0.277,6.761 a 1.054,1.054 0 0 1 -0.131,0.166 7.538,7.538 0 0 1 0.021,4.321 4.631,4.631 0 0 1 -1.155,4.086 0.67,0.67 0 0 1 -0.014,0.166 7.72,7.72 0 0 1 -2.654,3.892 6.672,6.672 0 0 1 -3.976,2.046 1.658,1.658 0 0 1 -0.228,0.055 c -10.294,1.48 -14.843,-9.872 -15.658,-18.113 a 1.385,1.385 0 0 1 0,-0.241 v -0.014 c -0.049,-0.6 -0.049,-1.2 -0.042,-1.812 a 101.909,101.909 0 0 1 -12.153,0.118 16.057,16.057 0 0 1 0.269,4.348 4.431,4.431 0 0 1 0.436,2.531 1.328,1.328 0 0 1 -0.208,0.594 0.752,0.752 0 0 1 0.028,0.18 c 0.117,1.694 -0.595,3.222 -0.47,4.929 a 4.334,4.334 0 0 1 -0.892,3.325 3.523,3.523 0 0 1 -1.092,2.932 6.279,6.279 0 0 1 -3.326,4.39 c -0.02,0.013 -0.041,0.007 -0.062,0.013 -1.479,1.839 -4.383,2.13 -6.526,1.438 h -0.007 c -2.095,0.692 -4.058,-1.037 -4.756,-3.028 a 6.434,6.434 0 0 1 -3.4,-4.818 c -0.014,-0.069 -0.02,-0.138 -0.027,-0.2 a 9.708,9.708 0 0 1 -1.355,-4.12 c -0.007,-0.014 0,-0.028 -0.007,-0.048 a 9.443,9.443 0 0 1 -1.653,-5.358 0.905,0.905 0 0 1 -0.069,-0.215 16.335,16.335 0 0 1 -0.643,-3.581 5.252,5.252 0 0 1 -0.774,-3.436 1.031,1.031 0 0 1 0.014,-0.145 6.719,6.719 0 0 1 -0.36,-2.62 1.026,1.026 0 0 1 0.1,-0.408 0.538,0.538 0 0 1 -0.021,-0.1 5.861,5.861 0 0 1 0.3,-2.787 0.771,0.771 0 0 1 0.055,-0.117 3.839,3.839 0 0 1 0.7,-3.4 1.6,1.6 0 0 1 -0.021,-0.263 4.614,4.614 0 0 1 1.127,-2.738 1.16,1.16 0 0 1 0.035,-0.3 4.192,4.192 0 0 1 1.341,-2.24 3.157,3.157 0 0 1 1.327,-0.622 c -0.67,-1.853 -0.172,-3.844 -0.767,-5.662 -0.048,-0.145 -0.1,-0.29 -0.159,-0.429 a 1,1 0 0 1 -0.491,-0.159 c -4.017,-2.565 -6.63,-6.775 -4.59,-11.344 -0.643,-0.07 -1.286,-0.111 -1.888,-0.187 a 1.059,1.059 0 0 1 -0.753,-0.429 0.844,0.844 0 0 1 -0.629,-0.954 c 0.318,-3.132 3.18,-4.48 6,-4.383 a 14.371,14.371 0 0 1 -2.571,-2.7 25.209,25.209 0 0 1 -3.215,-6.035 0.922,0.922 0 0 1 -0.028,-0.54 0.18,0.18 0 0 1 -0.007,-0.083 c 0.021,-3.214 0.249,-6.864 1.715,-9.8 -2.143,-2.772 -3.56,-6.049 -5.939,-8.648 A 0.946,0.946 0 0 1 30.03,31.448 0.975,0.975 0 0 1 29.947,31.316 20.452,20.452 0 0 0 28.336,27.86 0.833,0.833 0 0 1 28.191,27.251 0.985,0.985 0 0 1 28.384,26.145 c 4.771,-5.2 11.96,-7.21 18.542,-9.022 a 0.8,0.8 0 0 1 0.117,-0.02 8.694,8.694 0 0 1 4.784,-1.4 C 51.454,11.541 53.245,8.181 56.038,5.057 a 0.878,0.878 0 0 1 0.905,-0.3 c 8.573,-3.207 15.32,4.536 19.04,11.345 a 0.993,0.993 0 0 1 -0.256,1.293 1.286,1.286 0 0 1 -0.2,0.442 1.208,1.208 0 0 1 -0.912,0.512 0.993,0.993 0 0 1 -0.678,0.235 h -1.995 c -0.636,1.431 -1.949,2.344 -2.827,3.6 a 1.146,1.146 0 0 1 0.263,0.159 c 4.078,3.277 9.533,4.169 13.211,8.019 a 1.076,1.076 0 0 1 0.387,0.277 c 2.074,2.323 4.964,3.7 6.734,6.319 a 0.948,0.948 0 0 1 0.172,0.6 3.211,3.211 0 0 1 -0.47,3.747 4.518,4.518 0 0 1 -3.989,0.975 0.436,0.436 0 0 1 -0.089,-0.028 1.078,1.078 0 0 1 -0.671,0.263 c -1.072,0.062 -2.143,0.035 -3.215,0.021 a 4.594,4.594 0 0 1 -0.207,0.594 0.787,0.787 0 0 1 -0.367,0.367 2.157,2.157 0 0 1 -1.474,1.147 c 0.539,1.984 0.657,4.024 1.023,6.035 a 0.963,0.963 0 0 1 0.484,0.63 14.322,14.322 0 0 1 0.726,3.3 0.151,0.151 0 0 1 0,0.056 20.815,20.815 0 0 1 5.945,3.062 c 2.088,1.528 3.257,3.823 4.459,6.042 a 0.985,0.985 0 0 1 -0.186,1.224 1.018,1.018 0 0 1 -0.235,0.29 8.326,8.326 0 0 1 -3.657,1.826 0.985,0.985 0 0 1 -0.7,-0.083 0.619,0.619 0 0 1 -0.11,-0.007 C 86.478,66.908 85.78,66.811 85.082,66.701 a 69.642,69.642 0 0 1 2.918,6.571 2.938,2.938 0 0 1 0.712,0.671 4.028,4.028 0 0 1 3.319,1.936 10.951,10.951 0 0 1 2.544,2.039 6.145,6.145 0 0 1 1.216,3.166 5.43,5.43 0 0 1 1.231,4.065 6.732,6.732 0 0 1 1.009,3.132 0.7,0.7 0 0 1 0.228,0.283 11.453,11.453 0 0 1 0.789,3.678 1.859,1.859 0 0 1 0.1,0.2 10.48,10.48 0 0 1 0.464,4.6 0.524,0.524 0 0 1 -0.028,0.145 1.034,1.034 0 0 1 0.164,0.358 z m -2.067,5.71 c 0.926,-1.465 0.47,-3.588 0.069,-5.164 a 1.019,1.019 0 0 1 -0.028,-0.38 0.858,0.858 0 0 1 -0.186,-0.671 9.389,9.389 0 0 0 -0.27,-3.622 0.974,0.974 0 0 1 -0.242,-0.609 9.806,9.806 0 0 0 -0.553,-3.194 1.473,1.473 0 0 1 -0.1,-0.332 1.186,1.186 0 0 1 -0.387,-0.8 4.778,4.778 0 0 0 -0.9,-2.495 0.827,0.827 0 0 1 -0.145,-0.622 1.2,1.2 0 0 1 0.007,-0.159 3.494,3.494 0 0 0 -0.913,-2.987 0.947,0.947 0 0 1 -0.269,-0.857 1.034,1.034 0 0 1 -0.035,-0.138 c -0.214,-1.9 -1.486,-2.655 -2.938,-3.678 a 1.944,1.944 0 0 1 -0.207,-0.187 1.425,1.425 0 0 1 -0.36,-0.525 c -0.283,-0.754 -1.431,-0.823 -2.108,-0.878 a 1.008,1.008 0 0 1 -0.809,-0.477 1.283,1.283 0 0 1 -0.173,-0.208 1.6,1.6 0 0 0 -1.68,-0.477 1.023,1.023 0 0 1 -0.207,0 1,1 0 0 1 -0.519,0 3.122,3.122 0 0 0 -2.053,0.069 1.277,1.277 0 0 1 -0.463,0.118 A 0.966,0.966 0 0 1 81.9,75 c -1.556,-0.132 -2.669,2.191 -3.146,3.387 a 1.134,1.134 0 0 1 -0.415,0.519 c 0.291,0.622 0.581,1.251 0.857,1.887 6.077,-9.43 12.735,8.814 13.634,14.089 0.871,5.1 2.544,17.311 -5.289,18.431 -7.833,1.12 -8.5,-9.395 -9.541,-14.836 -0.089,-0.138 -0.179,-0.283 -0.269,-0.422 a 21.712,21.712 0 0 0 0.021,2.614 0.873,0.873 0 0 1 -0.007,0.235 c 0,0.007 0.007,0.014 0.007,0.02 0.663,6.706 4.251,17.381 13.031,16.115 a 0.52,0.52 0 0 1 0.1,-0.007 1.008,1.008 0 0 1 0.518,-0.117 c 1.065,0.035 2.171,-0.947 2.883,-1.645 a 5.8,5.8 0 0 0 1.908,-2.78 0.227,0.227 0 0 1 0.021,-0.062 1.062,1.062 0 0 1 0.242,-0.657 2.721,2.721 0 0 0 0.857,-2.62 0.963,0.963 0 0 1 -0.02,-0.539 0.84,0.84 0 0 1 0.02,-0.18 5.094,5.094 0 0 0 0.023,-3.432 1.05,1.05 0 0 1 0.187,-1.2 0.983,0.983 0 0 1 0.159,-0.545 z m -6.015,-0.1 a 25.618,25.618 0 0 0 -0.2,-4.23 2.892,2.892 0 0 1 -0.74,0.629 4.525,4.525 0 0 1 -3.927,0.146 0.426,0.426 0 0 1 0.09,0.145 l 0.007,0.007 c 1.14,1.548 3.082,2.359 4.769,3.306 z m -0.933,4.577 a 12.427,12.427 0 0 0 0.85,-3.422 c -1.2,-0.726 -2.523,-1.341 -3.692,-2.136 a 61.7,61.7 0 0 1 2.841,5.561 z m -2.683,-9.81 c 1.266,0.263 2.386,-0.311 2.275,-1.908 a 2.761,2.761 0 0 0 -0.85,-1.922 c -0.5,-0.47 -0.65,-0.477 -0.871,0.194 a 1.026,1.026 0 0 1 -0.5,0.6 3.543,3.543 0 0 1 0.249,2.268 3.327,3.327 0 0 1 -0.304,0.771 z m 1.376,11.967 a 7.352,7.352 0 0 0 0.622,-0.843 c -1.147,-2.365 -2.385,-4.681 -3.422,-7.093 a 0.053,0.053 0 0 0 -0.014,-0.028 68.8,68.8 0 0 0 1.4,8.413 3.163,3.163 0 0 0 0.366,0.007 0.427,0.427 0 0 1 0.394,0.194 5.694,5.694 0 0 0 0.653,-0.647 z m -2.4,-17.048 a 2.153,2.153 0 0 1 2.987,-0.9 41.1,41.1 0 0 0 -1.957,-5.5 39.516,39.516 0 0 0 -1.03,6.403 z m 2.814,-28.8 c -1,-1.853 -2.053,-3.768 -3.865,-4.936 a 17.7,17.7 0 0 0 -7.276,-3.026 1.129,1.129 0 0 1 -0.166,-0.035 0.938,0.938 0 0 1 -0.7,0.291 36.153,36.153 0 0 0 -5.766,0.919 1.018,1.018 0 0 1 -0.055,0.484 c -0.042,0.1 -0.07,0.214 -0.1,0.325 6.077,-1.279 11.752,1.1 14.6,6.789 0.421,0.055 0.829,0.1 1.2,0.166 h 0.014 a 6.193,6.193 0 0 0 2.114,-0.975 z M 87.947,39.832 c 0.449,-0.477 0.249,-1.085 -0.035,-1.61 a 1.07,1.07 0 0 1 -0.117,-0.387 12.672,12.672 0 0 0 -2.379,-2.413 3.36,3.36 0 0 0 -2.806,1.4 c 1.79,0.809 3.5,1.549 4,3.491 a 1.845,1.845 0 0 0 1.337,-0.481 z m -0.6,45.131 c -0.1,-0.18 -0.186,-0.367 -0.283,-0.547 a 17.186,17.186 0 0 0 -1.784,-2.9 3.387,3.387 0 0 0 -0.428,0.2 c 0.477,2.779 1.009,5.545 1.444,8.324 0.261,-1.704 0.634,-3.391 1.049,-5.077 z m -0.117,26.408 c -0.007,-0.027 -0.007,-0.048 -0.014,-0.069 -4.66,-0.829 -5.109,-7.729 -5.144,-11.711 a 4.566,4.566 0 0 1 -1.728,0.318 39.606,39.606 0 0 0 1.175,5.856 c 0.8,2.599 3.061,6.194 5.709,5.606 z M 86.308,96.8 a 1.864,1.864 0 0 0 -0.809,-1.963 1.437,1.437 0 0 0 -0.815,-0.311 c 0.055,0 -0.042,0.048 -0.056,0.041 a 1.013,1.013 0 0 0 -0.09,0.242 0.947,0.947 0 0 1 -0.352,0.56 1.047,1.047 0 0 1 -0.56,0.484 v 1.277 a 1.036,1.036 0 0 1 0.083,0.429 c 0.007,1.604 2.371,0.193 2.599,-0.759 z m 0.574,13.336 c -0.74,-2.938 -0.933,-5.98 -1.424,-8.967 a 12.465,12.465 0 0 0 -0.9,6.451 0.549,0.549 0 0 1 -0.048,0.324 4.246,4.246 0 0 0 2.372,2.19 z M 85.161,72.768 c 0.1,-0.014 0.207,-0.028 0.311,-0.035 a 28.9,28.9 0 0 1 -2.337,-6.416 9.305,9.305 0 0 1 -3,-1.2 43.263,43.263 0 0 1 2.675,7.28 1.15,1.15 0 0 1 0.049,0.291 5.625,5.625 0 0 1 2.302,0.08 z M 82.769,93.653 A 2.274,2.274 0 0 1 85.112,92.5 23.934,23.934 0 0 1 81.974,86.859 c -0.1,0.422 -0.173,0.829 -0.228,1.21 a 35.891,35.891 0 0 1 1.023,5.584 z m 1.949,6.574 a 3.089,3.089 0 0 1 -1.6,-0.138 29.6,29.6 0 0 0 0.381,4.666 17.961,17.961 0 0 1 1.219,-4.528 z m 0.7,-9.042 c -0.414,-2.911 -0.974,-5.8 -1.479,-8.7 a 8.4,8.4 0 0 0 -1.53,2.815 0.462,0.462 0 0 1 0.076,0.111 28.915,28.915 0 0 0 2.931,5.774 z M 84.5,80.745 a 3.4,3.4 0 0 0 -0.567,-0.38 c -1.846,-0.954 -2.938,1.328 -3.643,2.683 a 1.454,1.454 0 0 1 -0.111,0.166 c 0.353,0.905 0.671,1.818 0.961,2.737 0.578,-2.122 1.649,-4.293 3.36,-5.206 z m -3.035,-40.29 c 0.595,0.007 1.2,0.02 1.791,0.014 -0.152,-0.215 -0.325,-0.429 -0.484,-0.637 a 9.713,9.713 0 0 0 -1.48,0.118 4.3,4.3 0 0 1 0.17,0.505 z m -1.59,21.313 c 0.8,2.061 3.166,2.621 5.385,2.925 -2.82,-4.936 -7.977,-6.865 -13.563,-5.524 a 14.733,14.733 0 0 0 -0.021,2.005 c 0.048,0.034 0.09,0.062 0.138,0.09 a 7.123,7.123 0 0 1 7.328,-0.291 1.028,1.028 0 0 1 0.284,0.256 1.017,1.017 0 0 1 0.446,0.539 z m 4.4,-27.245 a 21.667,21.667 0 0 1 -2.62,-2.274 1.038,1.038 0 0 1 -0.374,-0.27 c -0.1,-0.1 -0.193,-0.187 -0.29,-0.29 a 0.209,0.209 0 0 1 -0.042,0.034 c -1.05,0.539 -1.444,1.763 -2.163,2.669 a 8.511,8.511 0 0 1 3.07,1.708 4.4,4.4 0 0 1 2.42,-1.577 z m -2.868,63.091 v -0.035 c 0,0.021 -0.007,0.028 -0.007,0.042 a 0.007,0.007 0 0 1 0.007,-0.007 z m -0.56,-24.591 a 0.346,0.346 0 0 1 -0.035,-0.076 43.383,43.383 0 0 0 -2.4,-6.637 c -1.362,2.946 -1.617,6.3 -1.7,9.562 0,0.013 -0.007,0.02 -0.007,0.034 0.076,0.09 0.152,0.173 0.221,0.263 a 1.5,1.5 0 0 1 0.145,0.221 1.851,1.851 0 0 1 0.1,0.166 c 0.027,0.048 0.048,0.1 0.076,0.152 0.779,-1.569 1.968,-3.256 3.6,-3.685 z M 80.688,93.6 c -0.581,-5.606 -2.752,-11.033 -5.3,-16 -0.02,-0.035 -0.027,-0.069 -0.041,-0.1 a 7.233,7.233 0 0 0 -0.906,-0.975 9.068,9.068 0 0 0 -1.949,0.892 c -0.07,0.823 -0.042,1.639 -0.187,2.461 2.316,4.805 3.809,9.914 5.7,14.878 A 4.009,4.009 0 0 1 78.87,94.092 4.258,4.258 0 0 1 80.688,93.6 Z m -2.98,-59.565 c 0.982,-0.919 1.341,-2.337 2.51,-3.076 a 16.817,16.817 0 0 0 -2.6,-1.825 5.936,5.936 0 0 0 -1.306,2.537 12.763,12.763 0 0 1 -0.733,1.721 c 0.083,0.028 0.173,0.049 0.256,0.076 a 1.532,1.532 0 0 1 0.207,0.09 0.965,0.965 0 0 1 0.138,0.028 c 0.505,0.156 1.02,0.301 1.528,0.453 z m 1.2,7.2 c -0.041,-0.2 -0.076,-0.408 -0.111,-0.615 l -0.767,0.228 c 0.293,0.146 0.584,0.277 0.881,0.395 z M 78.555,51.75 a 1.228,1.228 0 0 1 -0.082,-0.242 c -0.332,-1.728 -0.353,-3.609 -0.775,-5.344 -3.539,0.567 -7.072,1.1 -10.626,1.549 -1.451,0.214 -2.9,0.421 -4.362,0.58 a 0.465,0.465 0 0 1 -0.263,-0.048 c -0.027,0 -0.055,0.007 -0.076,0.007 a 2.453,2.453 0 0 0 0.166,0.394 38.168,38.168 0 0 0 2.544,3.595 34.13,34.13 0 0 1 6.056,3.076 58.794,58.794 0 0 1 5.997,-1.017 6.179,6.179 0 0 1 1.424,-2.542 z m -1.116,12.003 a 2.966,2.966 0 0 1 0.594,-1.017 5.042,5.042 0 0 0 -5.081,0.215 l -0.049,0.027 a 0.6,0.6 0 0 1 -0.048,0.1 1.056,1.056 0 0 1 -0.906,0.512 c 0.954,2.986 1.514,6.166 2.862,8.994 a 19.023,19.023 0 0 1 2.628,-8.829 z m -0.09,-18.7 a 7.253,7.253 0 0 0 -1.68,-1.936 31.931,31.931 0 0 0 -8.359,0.567 23.166,23.166 0 0 1 -4.41,1.072 9.927,9.927 0 0 0 -0.671,2.489 c 1.6,-0.159 3.2,-0.353 4.8,-0.554 3.441,-0.512 6.871,-1.127 10.32,-1.639 z m -1.57,49.907 a 1,1 0 0 1 0.035,-0.138 C 74.328,90.833 73.076,86.754 71.389,82.848 a 0.988,0.988 0 0 1 -0.207,0.021 h -1.341 c -0.519,4.507 -0.975,9.374 -2.607,13.557 a 3.088,3.088 0 0 1 -0.324,0.622 c 2.772,0.035 5.544,-0.083 8.33,-0.235 a 1.963,1.963 0 0 0 0.263,-1.154 1.053,1.053 0 0 1 0.276,-0.7 z m -1.2,-61.86 c 0.858,-1.341 1.01,-3.332 2.1,-4.487 -2.641,-1.41 -5.517,-2.482 -7.971,-4.21 a 11.246,11.246 0 0 1 -1.777,4.321 c 0.132,-0.049 0.256,-0.1 0.394,-0.145 a 22.356,22.356 0 0 0 2.461,-1.162 c 0.616,-0.387 1.051,-0.615 1.162,-0.491 0.111,0.124 -0.111,0.546 -0.622,1.113 a 7.514,7.514 0 0 1 -2.538,1.6 c 0.166,0 0.325,-0.007 0.491,0 a 12.663,12.663 0 0 1 2.3,0.3 c 0.581,0.125 0.941,0.277 0.941,0.436 0,0.159 -0.374,0.3 -0.975,0.387 a 15.454,15.454 0 0 1 -2.316,0.042 L 67.78,30.783 a 40.519,40.519 0 0 0 6.803,2.317 z m -0.567,7.95 c -0.214,-0.3 -0.428,-0.587 -0.656,-0.871 -4.031,0.007 -8.255,0.055 -11.974,1.749 a 3.323,3.323 0 0 0 0.988,0.726 0.126,0.126 0 0 1 0.049,0.035 c 2.2,-0.007 4.383,-1.155 6.581,-1.4 1.677,-0.178 3.343,-0.226 5.016,-0.24 z M 73.4,15.733 a 35.41,35.41 0 0 0 -2.2,-3.27 7.273,7.273 0 0 1 -3.775,-2.2 1.622,1.622 0 0 1 -1.742,1.2 7.638,7.638 0 0 1 -5.047,-2.053 1.779,1.779 0 0 1 -0.67,1.32 1.991,1.991 0 0 1 -1.024,0.422 c 3.008,1.77 6.305,2.945 9.458,4.445 h 0.491 a 20.177,20.177 0 0 1 -2.323,-1.839 c -0.581,-0.539 -0.954,-0.919 -0.864,-1.057 0.09,-0.138 0.587,-0.007 1.334,0.38 0.747,0.387 1.673,1.023 2.675,1.666 a 14.053,14.053 0 0 0 1.48,0.843 17.958,17.958 0 0 1 2.207,0.143 z m -2.15,60.014 a 11.122,11.122 0 0 1 2.281,-1.12 C 71.603,71.254 71.015,67.292 69.784,63.635 a 10.645,10.645 0 0 1 -2.1,0.138 4.187,4.187 0 0 1 -0.415,0.892 69.836,69.836 0 0 0 3.906,11.1 z m -0.8,5.047 c -0.028,-0.055 -0.048,-0.111 -0.076,-0.166 a 1.082,1.082 0 0 1 -0.1,-0.588 1,1 0 0 1 0,-0.47 A 8.033,8.033 0 0 0 70.42,78.222 1.039,1.039 0 0 1 70.164,78.015 0.958,0.958 0 0 1 69.77,77.6 c -0.215,-0.415 -0.415,-0.837 -0.609,-1.258 a 11.6,11.6 0 0 0 0.325,4.452 z M 70.194,17.226 a 0.934,0.934 0 0 1 0.491,-0.608 c -0.8,0 -1.6,0.027 -2.4,0.013 a 0.58,0.58 0 0 1 -0.283,-0.1 0.207,0.207 0 0 1 -0.062,-0.021 c -1.749,-0.83 -3.54,-1.563 -5.3,-2.351 a 0.373,0.373 0 0 1 -0.131,0.069 2.229,2.229 0 0 0 -1.023,0.747 c 2.589,1.608 5.728,1.898 8.707,2.251 z m -0.186,39.959 c 0.014,-0.035 0.034,-0.062 0.048,-0.1 a 35.781,35.781 0 0 0 -6.222,-3.139 0.035,0.035 0 0 1 -0.021,-0.013 1.948,1.948 0 0 0 0.042,0.29 1.067,1.067 0 0 1 0.29,0.456 39.542,39.542 0 0 0 3.035,7 8.983,8.983 0 0 0 2.434,-0.125 11.485,11.485 0 0 1 0.393,-4.369 z M 69.883,10.873 a 19.385,19.385 0 0 0 -2.15,-2.067 4.345,4.345 0 0 0 2.149,2.067 z m -2.227,72.714 c 0.042,-0.325 0.09,-0.65 0.132,-0.975 -2.068,0.228 -3.81,1.535 -5.981,1.632 a 23.822,23.822 0 0 1 -5.24,-0.47 c -0.055,0.124 -0.11,0.255 -0.166,0.38 a 16.889,16.889 0 0 1 3.81,1.445 0.966,0.966 0 0 1 0.394,0.311 0.846,0.846 0 0 1 0.228,0.318 c 2.302,0.02 4.943,-1.48 6.823,-2.641 z M 67.345,21.132 a 33.229,33.229 0 0 0 2.475,-2.917 24.615,24.615 0 0 1 -7.784,-1.743 0.735,0.735 0 0 1 -0.076,0.139 4.115,4.115 0 0 0 -1.12,1.915 6.91,6.91 0 0 0 1.61,2.174 6.616,6.616 0 0 1 4.895,0.432 z M 67.5,72.311 c -0.083,-0.228 -0.166,-0.449 -0.249,-0.677 -0.263,1.68 -0.608,3.346 -0.843,5.04 0.207,-0.007 0.415,-0.021 0.622,-0.028 h 0.028 A 8.6,8.6 0 0 1 67.31,75.3 1.011,1.011 0 0 1 67.034,74.574 V 73.189 A 0.965,0.965 0 0 1 67.5,72.311 Z m -0.18,8.3 A 16.325,16.325 0 0 1 67.051,78.724 H 67.03 c -0.643,0.034 -1.286,0.055 -1.929,0.09 0.007,0.027 0.021,0.048 0.028,0.083 a 6.525,6.525 0 0 1 -0.118,2.461 11.889,11.889 0 0 1 2.313,-0.751 z m -0.5,8.331 q 0.249,-1.359 0.456,-2.731 a 14.581,14.581 0 0 1 -6.409,2.046 c 0,0.657 -0.014,1.362 -0.069,2.054 2.074,0.03 4.667,-0.094 6.022,-1.373 z M 66.737,22.311 a 1.138,1.138 0 0 1 0.076,-0.283 5.573,5.573 0 0 0 -4.356,-0.242 0.387,0.387 0 0 1 -0.228,0.041 0.473,0.473 0 0 1 -0.1,-0.014 0.381,0.381 0 0 1 -0.055,-0.02 0.481,0.481 0 0 1 -0.193,-0.159 8.566,8.566 0 0 1 -2.081,-2.963 0.457,0.457 0 0 1 0.041,-0.387 v -0.021 a 5.043,5.043 0 0 1 1.293,-2.275 c -0.069,-0.041 -0.138,-0.083 -0.2,-0.124 a 2.4,2.4 0 0 0 -0.3,0.131 8.613,8.613 0 0 0 -1.175,2.413 0.532,0.532 0 0 1 -0.29,0.332 1.755,1.755 0 0 1 -0.083,0.491 c 0.864,1.223 1.977,2.24 2.938,3.387 a 15.438,15.438 0 0 1 2.724,-0.67 0.657,0.657 0 0 1 0.117,0.007 c 0.021,0 0.035,-0.007 0.055,-0.007 a 4.93,4.93 0 0 1 1.817,0.359 z m -0.069,1.812 c 0.048,-0.236 0.1,-0.457 0.131,-0.678 a 4.453,4.453 0 0 0 -1.881,-0.456 0.511,0.511 0 0 1 -0.11,-0.021 0.207,0.207 0 0 0 -0.062,0.021 11.456,11.456 0 0 0 -2.247,0.574 2.037,2.037 0 0 0 0.67,0.5 5.028,5.028 0 0 1 3.499,0.056 z m -2.98,-14.014 c 0.567,0.187 2.9,0.885 2.862,-0.5 A 11.02,11.02 0 0 0 66.315,7.826 c 0,-0.014 0.007,-0.028 0.007,-0.042 a 9.5,9.5 0 0 0 -8.918,-1 1.378,1.378 0 0 1 -0.159,0.041 c -0.277,0.318 -0.54,0.643 -0.788,0.968 a 12.348,12.348 0 0 0 0.719,2.4 h 0.006 A 7.362,7.362 0 0 0 59.1,10.05 C 60.082,9.656 59.488,8.57 59.073,7.99 A 0.78,0.78 0 0 1 59.018,7.872 c -0.457,-0.477 0.276,-1.21 0.739,-0.726 a 10.637,10.637 0 0 0 3.931,2.959 z m 2.717,15.037 -0.042,-0.021 c -0.767,-0.608 -2.281,-0.263 -3.124,0 A 0.456,0.456 0 0 1 62.81,25.056 c -0.021,-0.007 -0.035,-0.014 -0.055,-0.021 -0.152,-0.111 -0.311,-0.214 -0.464,-0.318 0.146,1.217 2.15,2.447 3.3,2.378 a 8.161,8.161 0 0 0 0.814,-1.953 z M 66.121,92.62 c 0.159,-0.761 0.305,-1.521 0.45,-2.289 a 12.575,12.575 0 0 1 -5.9,1.01 6.094,6.094 0 0 1 -0.374,1.334 c 1.618,0.145 3.236,0.311 4.847,0.539 a 1.687,1.687 0 0 1 0.325,-0.262 0.951,0.951 0 0 1 0.608,-0.139 c 0.017,-0.066 0.031,-0.135 0.044,-0.197 z m 0.388,-23.257 c -0.312,-0.988 -0.609,-1.977 -0.9,-2.966 -0.346,3.457 -0.3,7.066 -1.231,10.391 0.325,-0.027 0.657,-0.041 0.989,-0.055 0.34,-2.472 0.92,-4.899 1.142,-7.374 z m -1.031,-5.738 a 1.835,1.835 0 0 0 0.173,-0.3 0.917,0.917 0 0 1 -0.249,-0.567 38.124,38.124 0 0 1 -2.5,-5.385 5.132,5.132 0 0 0 1.498,5.833 1.191,1.191 0 0 1 0.159,0.159 0.528,0.528 0 0 1 0.318,0.042 c 0.152,0.076 0.311,0.138 0.47,0.2 0.042,0.007 0.09,0.007 0.131,0.014 z m -0.055,31.656 a 1.47,1.47 0 0 1 -0.3,0 C 62.745,94.929 60.36,94.742 57.968,94.542 a 7.769,7.769 0 0 1 1.583,1.8 1.5,1.5 0 0 1 0.062,0.145 16.354,16.354 0 0 0 3.471,0.208 2.666,2.666 0 0 0 2.339,-1.418 z M 64.808,64.517 a 1.747,1.747 0 0 1 -0.166,-0.076 1.394,1.394 0 0 1 -0.083,0.27 c -1.756,3.878 -1.473,8.123 -1.97,12.264 0.228,-0.035 0.456,-0.062 0.684,-0.09 1.203,-3.938 0.933,-8.307 1.535,-12.372 z M 63.75,81.824 a 4.724,4.724 0 0 0 0.346,-2.931 v -0.021 c -0.629,0.055 -1.258,0.124 -1.888,0.242 a 0.556,0.556 0 0 1 -0.152,0.014 0.357,0.357 0 0 1 -0.055,0.055 5.559,5.559 0 0 1 -0.588,3.028 8.317,8.317 0 0 0 2.337,-0.387 z M 62.63,28.64 a 2.468,2.468 0 0 0 2.178,-0.6 4.772,4.772 0 0 1 -3.519,-2.959 0.468,0.468 0 0 1 -0.263,-0.1 22.246,22.246 0 0 1 -3.3,-3.678 8.955,8.955 0 0 1 -2.213,-3.72 0.534,0.534 0 0 1 0.028,-0.3 0.541,0.541 0 0 1 0.014,-0.1 4.291,4.291 0 0 0 0.263,-0.905 0.275,0.275 0 0 1 0.055,-0.125 10.481,10.481 0 0 1 -1.894,-2.917 8.818,8.818 0 0 0 1.044,5.5 c 0.843,1.6 1.631,3.228 2.592,4.763 1.085,1.746 2.761,4.733 5.015,5.141 z m -0.546,3.505 c 0.263,-0.221 0.532,-0.449 0.816,-0.664 a 6.823,6.823 0 0 1 -1.21,0.069 20.779,20.779 0 0 1 -2.855,-0.345 c -0.733,-0.118 -1.189,-0.256 -1.189,-0.415 0,-0.159 0.449,-0.311 1.189,-0.408 a 18.152,18.152 0 0 1 2.4,-0.021 11.416,11.416 0 0 1 -4.065,-3.788 c -0.36,-0.5 -0.747,-1.058 -1.148,-1.639 -2.876,1.314 -5.62,2.89 -8.559,3.934 a 6.818,6.818 0 0 0 0.519,2.032 7.482,7.482 0 0 0 0.539,1.051 6.6,6.6 0 0 0 0.567,0.864 c 0.76,1.024 1.39,1.514 1.293,1.66 -0.056,0.11 -0.871,-0.18 -1.867,-1.155 a 5.824,5.824 0 0 1 -0.753,-0.857 7.551,7.551 0 0 1 -0.712,-1.12 7.436,7.436 0 0 1 -0.706,-2.1 c -0.235,0.069 -0.739,0.139 -0.739,0.2 l -0.007,0.11 h 0.027 l 0.014,0.021 0.007,0.035 0.014,0.076 a 4.309,4.309 0 0 0 0.09,0.58 c 0.18,0.768 0.491,1.494 0.684,2.157 a 4.775,4.775 0 0 1 0.222,1.639 c -0.049,0.373 -0.118,0.581 -0.194,0.587 -0.076,0.006 -0.18,-0.193 -0.27,-0.559 a 11.8,11.8 0 0 0 -0.567,-1.376 14.153,14.153 0 0 1 -0.988,-2.178 4.09,4.09 0 0 1 -0.242,-0.733 l -0.173,-0.1 c 0,0.042 -0.263,0.077 -0.477,0.111 0,0.3 0.124,0.56 0.1,0.726 a 4.5,4.5 0 0 0 0.11,1.065 10.818,10.818 0 0 0 0.643,1.756 7.281,7.281 0 0 1 0.436,1.244 c 0.055,0.3 0.055,0.477 -0.007,0.5 -0.062,0.023 -0.18,-0.111 -0.346,-0.367 -0.166,-0.256 -0.408,-0.608 -0.7,-1.057 A 7.746,7.746 0 0 1 43.04,31.861 4.578,4.578 0 0 1 42.8,30.61 c 0,-0.173 0.007,-0.311 0.007,-0.449 a 0.1,0.1 0 0 1 -0.028,0.027 c -0.615,0.443 -1.224,0.906 -1.811,1.383 1.182,2.344 1.078,5.22 3.539,6.734 a 0.981,0.981 0 0 1 0.436,0.511 4.176,4.176 0 0 1 3.139,2.344 c 0.145,0.117 0.283,0.235 0.414,0.359 a 1.048,1.048 0 0 1 0.643,-0.3 39.343,39.343 0 0 0 4.134,-0.311 1.023,1.023 0 0 1 0.7,0.09 5.077,5.077 0 0 1 2.71,-0.138 c 0.007,-0.028 0.007,-0.049 0.014,-0.076 a 1.092,1.092 0 0 1 0.041,-0.3 0.976,0.976 0 0 1 0.062,-0.884 13.168,13.168 0 0 0 0.692,-1.265 1.113,1.113 0 0 1 0.117,-0.173 c 0.007,-0.013 0.007,-0.027 0.014,-0.041 a 14.152,14.152 0 0 1 2.357,-3.885 c -1.182,0.387 -2.253,0.636 -3.055,0.822 -0.954,0.208 -1.583,0.325 -1.646,0.166 -0.063,-0.159 0.443,-0.525 1.383,-0.947 0.919,-0.428 2.233,-0.864 3.623,-1.376 a 17.8,17.8 0 0 0 1.799,-0.756 z m 0.028,73.71 a 2.491,2.491 0 0 0 -0.3,-1.722 0.922,0.922 0 0 1 -0.124,-0.657 0.741,0.741 0 0 1 -0.014,-0.131 12.709,12.709 0 0 0 -0.311,-4.217 1.153,1.153 0 0 1 -0.048,-0.332 C 60.437,98.713 59.559,98.61 58.681,98.478 a 7.8,7.8 0 0 1 -4.542,0.975 c 0.961,2.841 0.822,5.759 0.926,8.766 a 17.467,17.467 0 0 1 -0.449,6.022 5.063,5.063 0 0 1 -0.2,0.525 1.059,1.059 0 0 1 0.173,0.594 1.036,1.036 0 0 1 -0.083,0.429 0.825,0.825 0 0 1 0.3,1.058 11.466,11.466 0 0 1 -2.095,4.086 4.24,4.24 0 0 1 -0.94,0.7 l 0.09,0.021 a 1.028,1.028 0 0 1 0.318,0.048 c 1.238,0.373 3.526,0.484 4.362,-0.733 a 1.046,1.046 0 0 1 0.353,-0.325 0.989,0.989 0 0 1 0.277,-0.221 4.256,4.256 0 0 0 2.336,-2.821 1.128,1.128 0 0 1 0.18,-0.5 0.894,0.894 0 0 1 0.3,-0.671 1.528,1.528 0 0 0 0.6,-1.493 1.158,1.158 0 0 1 0.311,-1.037 1.008,1.008 0 0 1 0.214,-0.408 c 0.768,-0.927 0.228,-2.482 0.3,-3.588 0.069,-1.134 0.595,-2.116 0.512,-3.277 a 0.933,0.933 0 0 1 0.18,-0.643 0.908,0.908 0 0 1 0.008,-0.13 z M 61.918,54.793 c -0.1,-0.615 -0.124,-1.231 -0.173,-1.86 a 6.644,6.644 0 0 1 -2.682,0.215 1.056,1.056 0 0 1 -0.761,-0.063 c -2.122,-0.988 -5.765,-3.726 -8.2,-2.4 0.028,0.111 0.056,0.215 0.09,0.325 a 0.341,0.341 0 0 0 0.021,0.049 0.1,0.1 0 0 1 0.014,0.041 0.007,0.007 0 0 0 0.007,0.007 v 0.007 a 0.113,0.113 0 0 0 0.013,0.042 c 0.021,0.027 0.035,0.048 0.056,0.076 0.622,1.216 1.251,2.426 1.832,3.657 a 1.21,1.21 0 0 1 0.221,0.014 22.683,22.683 0 0 1 6.084,1.928 l 0.394,-0.352 a 7.452,7.452 0 0 1 3.084,-1.686 z M 61.137,23.718 c 0.062,-0.1 0.131,-0.208 0.2,-0.312 -1.05,-1.272 -2.281,-2.385 -3.221,-3.747 a 0.451,0.451 0 0 1 -0.076,-0.373 0.51,0.51 0 0 1 0.027,-0.242 1.261,1.261 0 0 0 0.063,-0.6 0.523,0.523 0 0 1 0.027,-0.145 c -0.5,-0.408 -0.988,-0.83 -1.445,-1.273 -0.041,0.146 -0.1,0.291 -0.152,0.436 a 9.165,9.165 0 0 0 2.171,3.438 26.824,26.824 0 0 0 2.406,2.818 z m -0.671,53.619 c 0.692,-4.431 0.346,-8.807 2.04,-13.031 a 7.063,7.063 0 0 1 -2,-5.579 c -2.966,2.91 -4.356,7.2 -7.985,9.429 -0.249,0.616 -0.512,1.231 -0.767,1.846 0.124,0.1 0.248,0.187 0.373,0.291 a 0.957,0.957 0 0 1 0.29,0.788 0.922,0.922 0 0 1 0.1,0.38 c 0.118,1.86 0.38,3.7 0.595,5.551 1.673,-2.765 1.832,-6.325 3.263,-9.27 a 0.861,0.861 0 0 1 1.023,-0.505 1.277,1.277 0 0 1 0.318,0.028 c 3.609,0.836 2.917,5.482 1.389,10.072 z m -0.014,4.494 a 4.453,4.453 0 0 0 0.526,-2.42 h -2.62 c -0.318,0.837 -0.65,1.653 -0.968,2.42 a 23.733,23.733 0 0 0 3.007,0.38 0.509,0.509 0 0 1 0.055,-0.38 z m 0.388,-37.36 c 0.027,-0.09 0.055,-0.173 0.076,-0.262 a 4.082,4.082 0 0 1 -1.749,-2.164 3.8,3.8 0 0 0 -0.484,-0.132 c -0.042,0.436 -0.1,0.871 -0.152,1.307 -0.007,0.028 -0.021,0.055 -0.028,0.09 a 5.63,5.63 0 0 0 2.337,1.161 z M 60.383,14.709 a 5.156,5.156 0 0 1 1.072,-1.085 34.7,34.7 0 0 1 -3.533,-1.887 10.78,10.78 0 0 0 2.461,2.972 z m 1.044,36.171 a 6,6 0 0 1 -1.189,-2.544 5.244,5.244 0 0 1 0.055,-1.867 9.256,9.256 0 0 1 -2.758,-1.269 5.068,5.068 0 0 1 -3.118,0.678 0.842,0.842 0 0 1 -0.186,-0.021 1,1 0 0 1 -0.678,0.283 c -1.894,0.056 -3.7,0.768 -5.448,-0.124 a 3.72,3.72 0 0 1 -3.422,0.276 4.367,4.367 0 0 1 -3.159,0.471 0.9,0.9 0 0 1 -0.726,-1.086 7.21,7.21 0 0 0 -0.532,-1.486 11.017,11.017 0 0 0 -3.436,1.12 33.741,33.741 0 0 0 -0.3,4.452 4.481,4.481 0 0 1 0.844,-0.94 4.361,4.361 0 0 1 2.378,-1 c 0.712,-0.041 1.058,0.152 1.065,0.3 0.013,0.166 -0.4,0.291 -0.878,0.512 a 7.8,7.8 0 0 0 -1.825,1.085 4.92,4.92 0 0 0 -1.272,1.514 16.348,16.348 0 0 0 3.29,5.358 c 0.187,0.18 0.38,0.353 0.574,0.533 a 13.9,13.9 0 0 1 7.847,-4.764 0.561,0.561 0 0 0 -0.049,-0.083 c -0.014,-0.034 -0.02,-0.069 -0.034,-0.1 A 0.687,0.687 0 0 1 48.421,52.109 6.4,6.4 0 0 1 47.972,50.65 0.918,0.918 0 0 1 47.965,50.512 C 47.958,50.498 47.958,50.484 47.951,50.47 a 11.412,11.412 0 0 1 -2.454,0.774 3.445,3.445 0 0 1 -1.106,0.014 c -0.256,-0.048 -0.394,-0.11 -0.4,-0.193 -0.006,-0.083 0.117,-0.166 0.359,-0.263 0.249,-0.076 0.56,-0.214 0.934,-0.353 0.408,-0.159 0.891,-0.4 1.445,-0.67 A 9.185,9.185 0 0 1 44.793,49.35 3.509,3.509 0 0 1 43.265,48.355 1.213,1.213 0 0 1 43.016,47.926 c -0.034,-0.111 -0.041,-0.18 -0.007,-0.2 0.034,-0.02 0.1,-0.006 0.194,0.056 a 3.913,3.913 0 0 0 0.373,0.249 4.7,4.7 0 0 0 1.445,0.539 14.117,14.117 0 0 0 2.392,0.235 c 0.47,0.014 0.968,0.048 1.479,0.062 0.09,0 0.194,0.055 0.3,0.055 l 0.214,0.07 a 3.847,3.847 0 0 1 3,-0.477 c 1.231,-0.3 2.365,-0.8 3.284,-1.01 1.417,-0.338 2.344,-0.325 2.358,-0.186 0.027,0.179 -0.8,0.442 -2.109,0.974 -0.47,0.173 -1,0.4 -1.576,0.629 a 44.76,44.76 0 0 1 4.337,2.055 1.053,1.053 0 0 1 0.318,0.041 4.337,4.337 0 0 0 2.409,-0.138 z M 59.574,15.753 A 0.428,0.428 0 0 1 59.623,15.401 13.141,13.141 0 0 1 55.655,8.958 12.007,12.007 0 0 0 54.479,11.3 c 0.422,2.551 2.24,4.508 4.211,6.1 a 12.41,12.41 0 0 1 0.884,-1.647 z M 58.842,90.362 A 22.242,22.242 0 0 0 58.821,87.237 8.937,8.937 0 0 0 55.89,86.152 l -0.118,-0.021 c -0.069,0.021 -0.18,0.055 -0.159,0.035 -0.007,0 -0.014,0.006 -0.027,0.013 -0.028,0.083 -0.056,0.173 -0.083,0.249 a 1.021,1.021 0 0 1 -0.381,0.539 c 0,0.007 -0.007,0.014 -0.007,0.028 a 0.026,0.026 0 0 1 -0.007,0.021 v 0.021 A 1.433,1.433 0 0 1 54.963,87.5 c 0.09,0.18 0.187,0.359 0.277,0.532 0.594,-0.055 1.189,-0.062 2.115,-0.062 a 0.454,0.454 0 0 1 0.1,0.014 0.468,0.468 0 0 1 0.491,0.366 21.568,21.568 0 0 0 0.896,2.012 z M 53.83,85 c 1.355,-3.422 5.731,-13.2 3.954,-15.347 -1.452,3.581 -1.535,7.521 -4.418,10.383 a 22.966,22.966 0 0 1 0.014,2.406 1.045,1.045 0 0 1 -0.076,0.339 8.616,8.616 0 0 0 0.519,2.219 0.007,0.007 0 0 0 0.007,0 z m 3.131,7.3 c 0.775,-0.381 1.293,-0.788 0.851,-1.687 a 15.932,15.932 0 0 1 -0.747,-1.6 c -0.546,0 -0.954,0 -1.314,0.021 a 13.07,13.07 0 0 1 1.21,3.266 z m -3.74,-25.939 c 2.1,-1.8 3.429,-4.369 5.116,-6.616 a 6.908,6.908 0 0 1 -3.858,1.583 1.046,1.046 0 0 1 -0.083,0.615 c 0,0.062 -0.006,0.132 -0.013,0.2 a 23.9,23.9 0 0 1 -1.162,4.216 z m 2.973,-22.738 c 0.021,-0.014 0.055,-0.041 0.09,-0.069 a 2.285,2.285 0 0 0 -0.125,-0.691 2.836,2.836 0 0 0 -1.182,0.013 c 0.014,0.3 0.028,0.629 0.028,0.927 0.193,-0.007 0.387,-0.014 0.574,-0.035 a 3.877,3.877 0 0 0 0.615,-0.147 z m 1.182,53.212 c -0.615,-0.775 -1.438,-1.39 -2.088,-2.143 a 12.306,12.306 0 0 1 -4.03,0.871 c 0.38,2.113 4.258,2.224 6.118,1.27 z m -2.433,-4.252 a 9.543,9.543 0 0 0 -0.464,-1.707 3.649,3.649 0 0 1 -1.438,0.988 8.12,8.12 0 0 1 -5.053,0.346 7.372,7.372 0 0 0 0.463,0.981 9.529,9.529 0 0 0 6.492,-0.61 z m -0.961,-33.3 a 4.491,4.491 0 0 0 2.737,-0.961 20.1,20.1 0 0 0 -3.574,-1.141 c 0.284,0.691 0.539,1.39 0.767,2.109 a 0.263,0.263 0 0 1 0.07,-0.01 z m -0.45,31.082 a 2.026,2.026 0 0 0 0.4,-0.774 c -0.449,-0.941 -0.961,-1.86 -1.424,-2.793 -1.472,1.133 -4.756,0.719 -5.455,2.274 0.187,0.615 0.339,1.231 0.512,1.846 a 5.944,5.944 0 0 0 3.754,0.353 3.821,3.821 0 0 0 2.213,-0.909 z m -0.491,17.94 c 0.007,-1.051 0.007,-2.109 -0.041,-3.166 a 1.4,1.4 0 0 1 -0.242,-0.007 3.489,3.489 0 0 0 -1.037,-0.049 4.9,4.9 0 0 1 -0.463,1.666 6.533,6.533 0 0 0 1.783,1.551 z m -0.013,1.97 c 0,-0.249 0,-0.511 0.006,-0.767 a 9.845,9.845 0 0 1 -2.35,-1.839 5.088,5.088 0 0 1 -0.622,0.65 18.963,18.963 0 0 1 2.9,3.228 c 0.052,-0.563 0.066,-1.033 0.066,-1.275 z M 52.945,44.122 c 0,-0.443 -0.007,-0.768 -0.021,-1.072 -1.168,0.138 -2.344,0.118 -3.519,0.221 0,0.021 0.007,0.042 0.007,0.07 a 2.372,2.372 0 0 1 -0.111,0.94 c 1.12,0.398 2.441,-0.01 3.644,-0.162 z m -1.473,58.915 a 6.742,6.742 0 0 1 1.348,0.014 15.362,15.362 0 0 0 -0.546,-2.655 14.556,14.556 0 0 0 -1.535,1.376 4.412,4.412 0 0 1 0.733,1.262 z m 3.4,-79.842 a 22.875,22.875 0 0 1 -2.654,-5.468 0.948,0.948 0 0 1 -0.277,0.041 6.79,6.79 0 0 0 -3.857,1.127 1.021,1.021 0 0 1 -0.477,0.18 l -0.118,0.041 c -4.321,1.189 -8.932,2.434 -12.866,4.722 a 7.778,7.778 0 0 1 4.522,3.982 c -0.056,-0.276 -0.118,-0.574 -0.18,-0.878 -0.214,-0.94 -0.463,-1.77 -0.629,-2.4 -0.166,-0.63 -0.249,-1.044 -0.111,-1.127 0.138,-0.083 0.47,0.215 0.857,0.782 a 7.857,7.857 0 0 1 1.024,2.488 9.216,9.216 0 0 1 0.207,2.109 c 0.221,-0.194 0.442,-0.38 0.657,-0.567 a 15.438,15.438 0 0 0 1.134,-1.078 8.375,8.375 0 0 0 0.9,-1.079 9.9,9.9 0 0 0 0.622,-1.058 c 0.353,-0.684 0.636,-1.272 0.892,-1.659 0.256,-0.387 0.436,-0.546 0.512,-0.511 0.076,0.035 0.021,0.283 -0.1,0.712 -0.121,0.429 -0.283,1.023 -0.553,1.79 a 7.122,7.122 0 0 1 -1.466,2.5 c -0.007,0.007 -0.013,0.021 -0.02,0.027 a 14.244,14.244 0 0 0 1.548,-0.242 18.421,18.421 0 0 0 3.079,-1.529 14.762,14.762 0 0 0 3.09,-3.008 c 0.664,-0.961 1.127,-1.541 1.272,-1.458 0.145,0.083 -0.062,0.781 -0.553,1.859 a 11.522,11.522 0 0 1 -1.6,2.233 c 1.731,-0.819 3.425,-1.739 5.146,-2.534 z M 52.378,61.6 c 0.007,-0.028 0.014,-0.042 0.02,-0.063 a 24.972,24.972 0 0 0 -1.05,-3.263 7.647,7.647 0 0 0 -5.911,1.445 c 1.88,0.857 1.611,3.858 0.663,5.517 1.791,0.408 3.637,1.037 5.3,0.055 A 22.169,22.169 0 0 0 52.378,61.6 Z m -1.348,54.141 c 0.988,-0.076 1.493,-1.4 1.749,-2.766 a 25.423,25.423 0 0 0 -3.015,-3.581 21.083,21.083 0 0 0 1.266,6.347 z m 0.995,-29.99 c -0.048,-0.125 -0.1,-0.249 -0.152,-0.38 -1.479,1.085 -3.878,1.092 -5.759,0.857 0.166,0.574 0.367,1.14 0.574,1.728 0.048,-0.048 0.083,-0.1 0.138,-0.145 0.961,-0.754 4.404,-0.892 5.199,-2.06 z m -0.532,33.419 a 11.165,11.165 0 0 0 0.947,-1.929 c -1.279,0.8 -2.855,0.712 -4.335,-0.844 -2.634,-2.758 -4.244,-8.669 -5.012,-12.284 C 42.022,99 41.717,93.4 44.621,88.827 a 1.134,1.134 0 0 1 0.111,-0.145 C 44.718,88.641 44.704,88.606 44.69,88.564 a 17.348,17.348 0 0 1 -0.968,-3.346 2.09,2.09 0 0 0 -0.836,1.293 1.047,1.047 0 0 1 -0.145,0.318 1.247,1.247 0 0 1 -0.291,0.747 2.434,2.434 0 0 0 -0.65,1.431 1.016,1.016 0 0 1 -0.228,0.629 1,1 0 0 1 -0.249,0.968 1.728,1.728 0 0 0 -0.249,1.666 1.036,1.036 0 0 1 -0.041,0.657 0.786,0.786 0 0 1 -0.048,0.415 4.6,4.6 0 0 0 -0.222,2.233 0.776,0.776 0 0 1 -0.09,0.435 c 0,0.028 0.007,0.055 0.007,0.076 a 5.3,5.3 0 0 0 0.3,2.15 0.946,0.946 0 0 1 0.027,0.533 0.336,0.336 0 0 1 0.014,0.082 c -0.007,0.567 -0.173,1.549 0.214,2.033 a 1.772,1.772 0 0 1 0.215,0.38 0.894,0.894 0 0 1 0.345,0.788 12.251,12.251 0 0 0 0.567,3.263 1.013,1.013 0 0 1 0.125,0.45 c 0.083,1.514 0.221,3.256 1.251,4.452 a 1.328,1.328 0 0 1 0.173,0.29 0.873,0.873 0 0 1 0.18,0.429 7.285,7.285 0 0 0 1.12,3.6 1.092,1.092 0 0 1 0.242,0.657 l 0.02,0.062 a 4.657,4.657 0 0 0 2.123,3.422 0.881,0.881 0 0 1 1.078,0.726 3.587,3.587 0 0 0 0.166,0.567 0.129,0.129 0 0 1 0.055,0.007 2.293,2.293 0 0 0 2.598,-0.807 z m -0.18,-36.98 c 0.007,-0.345 0.021,-0.684 0.014,-1.03 a 2.959,2.959 0 0 1 -1.459,1.252 7.266,7.266 0 0 1 -4.21,0.3 1.025,1.025 0 0 1 0.028,0.332 c -0.007,0.214 -0.007,0.421 -0.007,0.622 a 1.147,1.147 0 0 1 0.062,0.691 0.036,0.036 0 0 0 -0.014,0.028 c 0.028,0.263 0.062,0.518 0.111,0.767 1.763,0.27 4.438,0.4 5.676,-0.843 a 8.718,8.718 0 0 1 -0.3,-1.611 0.961,0.961 0 0 1 0.099,-0.508 z m -0.18,-4.217 c -0.013,-0.159 -0.027,-0.311 -0.048,-0.463 -1.514,0.857 -4.4,0.74 -6.111,0.519 0.145,1.161 0.1,2.322 0.3,3.463 a 5.375,5.375 0 0 0 4.431,-0.145 4.05,4.05 0 0 0 1.428,-3.374 z M 50.94,76.2 c -0.09,-0.7 -0.173,-1.4 -0.256,-2.109 a 9.14,9.14 0 0 0 -2.088,0.539 16.289,16.289 0 0 1 -3.208,0.622 4.442,4.442 0 0 1 -1.4,-0.152 9.644,9.644 0 0 1 0.781,1.867 c 1.414,0.211 5.531,0.585 6.171,-0.767 z m -0.367,-3.139 c -0.041,-0.436 -0.076,-0.878 -0.11,-1.321 a 0.359,0.359 0 0 1 -0.09,0.035 35.986,35.986 0 0 1 -3.809,0.871 6.674,6.674 0 0 1 -2.655,-0.29 1.017,1.017 0 0 1 -0.491,0.338 c -0.159,3.281 4.756,0.433 7.155,0.364 z M 43.543,59.87 a 9.8,9.8 0 0 1 7.341,-2.717 c -0.56,-1.292 -1.189,-2.564 -1.838,-3.823 a 12.864,12.864 0 0 0 -7.577,4.48 0.007,0.007 0 0 1 -0.007,0.007 19.677,19.677 0 0 1 2.081,2.05 z m 6.057,9.952 c 0.442,-1.064 0.891,-2.115 1.306,-3.18 -1.742,0.519 -3.588,-0.117 -5.406,-0.484 a 0.9,0.9 0 0 1 -0.159,0.035 4.393,4.393 0 0 0 -0.9,0.062 0.489,0.489 0 0 1 -0.518,-0.186 17.008,17.008 0 0 0 0.214,4.2 c 1.894,0.66 3.563,-0.018 5.463,-0.447 z m 1.59,28.8 A 3.962,3.962 0 0 1 49.5,96.9 c -1.563,1.811 -3.588,3.643 -4.4,5.9 a 1.657,1.657 0 0 0 0.864,1.058 c 1.775,-1.73 3.254,-3.728 5.225,-5.235 z m -1.419,16.628 a 21.58,21.58 0 0 1 -1.05,-6.063 2.738,2.738 0 0 1 -1.736,0.2 q 0.26,0.7 0.519,1.39 c 0.442,1.154 1.134,3.47 2.267,4.473 z M 48.188,95.263 c -0.207,-0.055 -0.415,-0.1 -0.615,-0.159 A 1.076,1.076 0 0 1 47.089,94.78 1.1,1.1 0 0 1 46.778,94.455 12.313,12.313 0 0 1 45.561,91.447 c -0.152,0.339 -0.29,0.685 -0.415,1.03 a 0.449,0.449 0 0 1 0.09,0.194 c 0.4,1.555 0.671,3.146 1.106,4.694 0.623,-0.712 1.258,-1.403 1.846,-2.102 z M 46.944,44.112 c 0.491,-0.408 0.539,-0.837 -0.021,-1.251 A 1.5,1.5 0 0 1 46.688,42.632 C 45.983,41.81 45.216,40.171 44.02,39.978 42.989,39.805 41.074,40.33 41.005,41.595 a 1.4,1.4 0 0 1 0.311,0.3 9.088,9.088 0 0 1 1.384,2.905 2.305,2.305 0 0 0 1,-0.325 0.98,0.98 0 0 1 1.6,-0.242 1.23,1.23 0 0 0 1.432,0.166 0.852,0.852 0 0 1 0.212,-0.287 z M 45.575,98.25 A 0.475,0.475 0 0 1 45.451,98.043 C 45.098,96.881 44.856,95.692 44.6,94.503 a 17.829,17.829 0 0 0 -0.159,5.22 c 0.353,-0.505 0.733,-0.996 1.134,-1.473 z M 45.063,64.955 c 0.8,-1.009 1.335,-4.009 -0.373,-4.4 a 0.48,0.48 0 0 1 -0.221,-0.111 c -0.1,0.083 -0.2,0.166 -0.3,0.249 a 1.16,1.16 0 0 1 0.048,0.318 c -0.007,1.009 -0.09,2.012 -0.173,3.021 a 1.086,1.086 0 0 1 -0.1,0.387 1.075,1.075 0 0 1 0.014,0.215 c 0,0.248 -0.007,0.5 -0.014,0.739 a 0.544,0.544 0 0 1 0.229,-0.11 4.319,4.319 0 0 1 0.788,-0.1 0.585,0.585 0 0 1 0.102,-0.208 z m -3.09,-0.926 c 0.055,-0.684 0.1,-1.369 0.138,-2.053 -1.645,-0.712 -4.86,-0.56 -5.606,1.369 a 12.513,12.513 0 0 1 5.378,1.348 v -0.062 a 1.121,1.121 0 0 1 0.09,-0.422 1.544,1.544 0 0 1 0,-0.18 z m 0.18,6.858 a 15.576,15.576 0 0 1 -0.318,-3.712 c -0.8,-0.256 -1.6,-0.588 -2.42,-0.775 a 5.828,5.828 0 0 0 1.185,6.471 0.846,0.846 0 0 1 0.381,-1.009 2.039,2.039 0 0 1 0.166,-0.27 2.307,2.307 0 0 1 1.006,-0.705 z m -0.7,-32.569 A 6.463,6.463 0 0 1 40.425,36.4 18.292,18.292 0 0 0 38.825,32 0.934,0.934 0 0 1 38.679,31.3 10.224,10.224 0 0 0 32.506,31.251 c 2.164,2.731 3.567,5.98 5.876,8.6 a 0.994,0.994 0 0 1 0.159,0.235 0.75,0.75 0 0 0 0.208,0.063 0.4,0.4 0 0 0 0.089,0.02 h 0.083 c -0.013,0 0.346,-0.034 0.18,-0.007 a 1.1,1.1 0 0 1 0.152,0 3.794,3.794 0 0 1 2.195,-1.844 z m -1.729,4.93 c -0.062,-0.1 -0.124,-0.2 -0.2,-0.3 a 0.878,0.878 0 0 1 -0.145,-0.387 0.972,0.972 0 0 1 -0.325,-0.345 3.063,3.063 0 0 1 -1.334,-0.256 13.022,13.022 0 0 0 -0.65,2.088 12.166,12.166 0 0 1 2.649,-0.8 z M 37.929,28.7 a 6.7,6.7 0 0 1 0.76,0.436 c -1.092,-2.247 -2.634,-4.238 -5.337,-4.494 a 19.819,19.819 0 0 0 -3.014,2.475 28.616,28.616 0 0 1 1.41,3.152 c 0.021,0.042 0.028,0.083 0.049,0.118 a 11.46,11.46 0 0 1 6.139,-0.36 c -0.18,-0.1 -0.36,-0.2 -0.553,-0.3 A 21.153,21.153 0 0 0 33.864,28.3 c -0.235,-0.062 -0.443,-0.124 -0.629,-0.193 -0.194,-0.049 -0.374,-0.083 -0.512,-0.125 -0.276,-0.083 -0.428,-0.166 -0.428,-0.249 0,-0.083 0.165,-0.152 0.449,-0.207 a 4.048,4.048 0 0 1 0.525,-0.069 c 0.208,0.007 0.457,0.013 0.726,0.034 a 10.836,10.836 0 0 1 3.934,1.209 z"
       id="path22751" />
    <path
       d="m 71.078,89.048 c 0.6,0.083 1.037,0.415 0.968,0.733 -0.069,0.318 -0.505,0.512 -0.982,0.436 -0.539,-0.014 -0.981,-0.284 -0.974,-0.609 0.007,-0.325 0.442,-0.573 0.988,-0.56 z"
       id="path22753"
       style="fill:#ffffff" />
    <path
       d="m 70.961,91.115 c 0.38,0.07 0.719,0.36 0.684,0.685 -0.035,0.325 -0.415,0.546 -0.905,0.463 -0.6,-0.124 -0.754,-0.518 -0.65,-0.809 0.103,-0.311 0.594,-0.373 0.871,-0.339 z"
       id="path22755"
       style="fill:#ffffff" />
    <path
       d="m 70.954,94.793 c 0.007,0.325 -0.45,0.581 -1.023,0.567 -0.519,-0.055 -0.92,-0.359 -0.878,-0.684 0.042,-0.325 0.49,-0.532 1.009,-0.477 0.484,0.007 0.885,0.269 0.892,0.594 z"
       id="path22757"
       style="fill:#ffffff" />
  </g>
</svg>
