<?xml version="1.0" encoding="UTF-8" standalone="no"?>
<svg
   viewBox="0 0 72.178002 119.98993"
   x="0px"
   y="0px"
   version="1.1"
   id="svg22765"
   sodipodi:docname="noun-chicken-5412599.svg"
   inkscape:version="1.2 (dc2aedaf03, 2022-05-15)"
   width="72.178001"
   height="119.98993"
   xmlns:inkscape="http://www.inkscape.org/namespaces/inkscape"
   xmlns:sodipodi="http://sodipodi.sourceforge.net/DTD/sodipodi-0.dtd"
   xmlns="http://www.w3.org/2000/svg"
   xmlns:svg="http://www.w3.org/2000/svg">
  <defs
     id="defs22769" />
  <sodipodi:namedview
     id="namedview22767"
     pagecolor="#ffffff"
     bordercolor="#000000"
     borderopacity="0.25"
     inkscape:showpageshadow="2"
     inkscape:pageopacity="0.0"
     inkscape:pagecheckerboard="0"
     inkscape:deskcolor="#d1d1d1"
     showgrid="false"
     inkscape:zoom="1.3484375"
     inkscape:cx="-127.55504"
     inkscape:cy="138.67903"
     inkscape:window-width="1920"
     inkscape:window-height="1017"
     inkscape:window-x="-8"
     inkscape:window-y="-8"
     inkscape:window-maximized="1"
     inkscape:current-layer="g22759" />
  <g
     id="g22759"
     transform="translate(-28.099836,-4.0099188)">
    <g
       id="g23034"
       transform="matrix(1.3144313,0,0,1.3144313,22.121689,21.95)"
       style="fill:#ffffff">
      <path
         d="m 57.32,24.66 c 1.25,-1.52 2.58,-3.6 2,-5.12 -0.26,-0.67 -0.96,-1.48 -2.84,-1.56 -1.37,-0.06 -2.79,0.32 -4.1,1.08 l -2.37,1.38 c -4.2,2.45 -8.79,3.68 -13.24,3.58 C 31.71,23.89 27.72,22.11 24.92,18.71 23.66,17.19 22.7,15.33 22.05,13.19 21.34,10.82 20.27,8.95 18.94,7.67 21.2,6.41 22.27,4.65 21.81,2.76 21.41,1.17 20.57,0.58 19.93,0.36 18.86,-0.01 17.76,0.42 17.09,0.8 15.94,0.02 14.89,-0.19 13.96,0.17 13.17,0.48 12.68,1.14 12.39,1.76 10.66,0.97 9,1.74 8.18,2.61 8.12,2.66 8.09,2.7 8.06,2.75 6.69,4.88 6.89,7.15 8.57,9.06 8.46,9.34 8.37,9.63 8.29,9.95 8.22,10.24 8.17,10.6 8.16,11 c -1.97,1.46 -3.14,3.71 -3.58,5.43 -0.1,0.38 0.04,0.77 0.35,1.01 0.17,0.13 0.38,0.2 0.59,0.2 0.16,0 0.33,-0.04 0.48,-0.13 0.94,-0.53 2.18,-0.95 3.37,-1.17 -0.83,0.98 -1.67,2.38 -1.8,4.09 -0.1,1.38 0.71,2.64 1.99,3.07 0.18,0.06 0.5,0.14 0.91,0.14 0.28,0 0.6,-0.05 0.95,-0.15 -1.01,5.43 -0.91,15.25 10.07,22.23 0.27,1.45 1.35,5.82 4.62,7.19 0.28,0.12 0.57,0.2 0.86,0.26 l -1.38,4.98 -3.11,-1.22 c -0.5,-0.2 -1.06,0.05 -1.26,0.55 -0.2,0.5 0.05,1.06 0.55,1.26 l 2.56,1 -3.11,2.53 c -0.42,0.34 -0.48,0.95 -0.14,1.36 0.19,0.24 0.47,0.36 0.75,0.36 0.21,0 0.43,-0.07 0.61,-0.22 l 4.13,-3.36 h 1.98 c 0.54,0 0.97,-0.43 0.97,-0.97 0,-0.54 -0.43,-0.97 -0.97,-0.97 H 27.5 l 1.44,-5.22 c 1.49,-0.19 3.12,-0.91 4.88,-2.17 1.3,0.44 3.06,0.76 4.88,0.64 l -1.43,5.19 -2.69,-1.05 c -0.5,-0.19 -1.06,0.05 -1.26,0.55 -0.2,0.5 0.05,1.06 0.55,1.26 l 1.83,0.72 -2.4,1.42 c -0.46,0.27 -0.61,0.87 -0.34,1.33 0.18,0.31 0.5,0.48 0.84,0.48 0.17,0 0.34,-0.04 0.49,-0.14 l 3.88,-2.29 h 2.06 c 0.54,0 0.97,-0.43 0.97,-0.97 0,-0.54 -0.43,-0.97 -0.97,-0.97 H 39.2 l 1.63,-5.88 c 0,0 0,-0.01 0,-0.01 1.73,-0.52 3.36,-1.59 4.5,-3.55 1.47,-0.6 6.42,-3.16 7.13,-10.88 1.85,-1.22 5.28,-3.78 4.88,-5.94 -0.09,-0.47 -0.32,-0.86 -0.69,-1.18 1.61,-1.22 2.96,-2.68 2.54,-3.92 -0.27,-0.77 -0.98,-1.11 -1.87,-1.23 z M 9.64,3.89 C 9.99,3.55 10.99,2.85 12.26,4 c 0.27,0.24 0.64,0.32 0.98,0.19 0.34,-0.12 0.58,-0.42 0.63,-0.78 0.05,-0.32 0.31,-1.25 0.78,-1.44 0.36,-0.14 1,0.13 1.77,0.75 0.35,0.28 0.85,0.29 1.2,0.01 0.41,-0.31 1.21,-0.7 1.65,-0.55 0.34,0.12 0.53,0.63 0.63,1.04 0.39,1.58 -1.68,2.7 -2.77,3.16 -0.92,-0.47 -1.92,-0.71 -2.98,-0.71 0,0 0,0 0,0 C 12.98,5.52 11.01,5.78 9.63,7.29 8.92,6.21 8.91,5.07 9.64,3.89 Z m -1.11,9.36 c 0.14,0.39 0.33,0.79 0.58,1.17 -0.6,0.11 -1.21,0.25 -1.8,0.44 0.32,-0.56 0.73,-1.11 1.22,-1.61 z m 1.64,8.42 C 9.74,21.53 9.47,21.08 9.5,20.58 c 0.13,-1.74 1.38,-3.12 2.13,-3.79 0.15,0.18 0.29,0.39 0.4,0.64 0.42,0.88 0.46,1.95 0.14,3.03 -0.64,0.96 -1.39,1.41 -2,1.21 z m 43.99,7.5 c -0.33,0.21 -0.5,0.61 -0.43,0.99 0.07,0.39 0.37,0.69 0.76,0.77 0.81,0.17 0.95,0.39 0.95,0.39 0.12,0.44 -1.08,1.79 -2.89,3.16 0,-0.04 0,-0.09 0,-0.13 -0.02,-0.54 -0.46,-0.95 -1,-0.94 -0.54,0.02 -0.96,0.46 -0.94,1 0.27,9.67 -5.95,11.6 -6.21,11.67 -0.26,0.07 -0.47,0.25 -0.59,0.48 -2.77,5.23 -9.48,2.66 -9.77,2.55 -0.31,-0.12 -0.67,-0.07 -0.94,0.13 -2.54,1.92 -4.64,2.56 -6.24,1.89 -2.83,-1.18 -3.52,-6.07 -3.52,-6.12 -0.04,-0.29 -0.2,-0.55 -0.45,-0.7 C 10.18,36.49 12.87,24.62 14,21.17 c 0.52,-1.58 0.44,-3.2 -0.21,-4.57 -0.39,-0.82 -0.93,-1.45 -1.61,-1.86 -0.01,0 -0.01,-0.01 -0.02,-0.01 -0.01,0 -0.01,-0.01 -0.02,-0.01 -2.57,-1.54 -1.99,-4.19 -1.97,-4.3 0.6,-2.52 2.51,-2.82 3.38,-2.82 0.2,0 0.35,0.02 0.41,0.02 0.05,0.01 0.1,0.01 0.14,0.01 0.02,0 0.05,0 0.07,0 3.63,0 5.32,3.83 6.01,6.12 0.72,2.39 1.81,4.48 3.23,6.2 3.18,3.85 7.65,5.87 13.3,6.01 4.82,0.12 9.75,-1.21 14.27,-3.84 l 2.37,-1.38 c 0.99,-0.58 2.04,-0.85 3.04,-0.82 0.79,0.03 1.07,0.22 1.11,0.31 0.25,0.65 -1.22,2.9 -3.09,4.72 -0.29,0.29 -0.38,0.73 -0.2,1.1 0.17,0.37 0.57,0.6 0.97,0.56 1.13,-0.11 1.72,-0.06 2.02,0 -0.42,0.6 -1.71,1.7 -3.04,2.56 z"
         id="path23028"
         style="fill:#ffffff" />
      <path
         d="m 46.09,35.92 c -0.5,0.19 -0.75,0.76 -0.55,1.26 0.17,0.43 0.16,0.68 0.11,0.73 -0.25,0.29 -1.53,0.34 -2.63,0.1 -0.35,-0.08 -0.71,0.04 -0.95,0.32 -0.23,0.27 -0.3,0.65 -0.17,0.98 0.18,0.46 0.18,0.68 0.2,0.7 -0.4,0.2 -1.99,-0.15 -3.32,-0.74 -0.24,-0.1 -0.51,-0.11 -0.75,-0.01 -0.24,0.1 -0.43,0.29 -0.53,0.52 -0.18,0.43 -0.45,0.68 -0.89,0.79 -2.38,0.63 -7.99,-2.77 -10.98,-5.06 -0.42,-0.33 -1.03,-0.25 -1.36,0.18 -0.33,0.42 -0.25,1.03 0.18,1.36 0.79,0.61 7.33,5.53 11.55,5.53 0.39,0 0.76,-0.04 1.11,-0.13 0.69,-0.18 1.26,-0.55 1.69,-1.08 1.41,0.52 3.58,1.07 4.66,0.04 0.36,-0.34 0.55,-0.78 0.56,-1.32 1.04,0.06 2.37,-0.07 3.1,-0.92 0.4,-0.47 0.77,-1.32 0.23,-2.7 -0.2,-0.5 -0.76,-0.75 -1.26,-0.55 z"
         id="path23030"
         style="fill:#ffffff" />
      <path
         d="m 13.67,9.76 -0.28,0.11 c -0.5,0.2 -0.74,0.76 -0.55,1.26 0.15,0.38 0.52,0.62 0.9,0.62 0.12,0 0.24,-0.02 0.35,-0.07 l 0.28,-0.11 c 0.5,-0.2 0.74,-0.76 0.55,-1.26 -0.19,-0.5 -0.75,-0.75 -1.25,-0.55 z"
         id="path23032"
         style="fill:#ffffff" />
    </g>
  </g>
</svg>
