<?xml version="1.0" encoding="UTF-8" standalone="no"?>
<svg
   viewBox="0 0 72.178002 119.98993"
   x="0px"
   y="0px"
   version="1.1"
   id="svg22765"
   sodipodi:docname="noun-gluten-4321747.svg"
   inkscape:version="1.2 (dc2aedaf03, 2022-05-15)"
   width="72.178001"
   height="119.98993"
   xml:space="preserve"
   xmlns:inkscape="http://www.inkscape.org/namespaces/inkscape"
   xmlns:sodipodi="http://sodipodi.sourceforge.net/DTD/sodipodi-0.dtd"
   xmlns="http://www.w3.org/2000/svg"
   xmlns:svg="http://www.w3.org/2000/svg"><defs
     id="defs22769"><rect
       x="-335.94438"
       y="298.86443"
       width="111.98146"
       height="66.002317"
       id="rect25798" /></defs><sodipodi:namedview
     id="namedview22767"
     pagecolor="#ffffff"
     bordercolor="#000000"
     borderopacity="0.25"
     inkscape:showpageshadow="2"
     inkscape:pageopacity="0.0"
     inkscape:pagecheckerboard="0"
     inkscape:deskcolor="#d1d1d1"
     showgrid="false"
     inkscape:zoom="5.39375"
     inkscape:cx="41.344148"
     inkscape:cy="66.929316"
     inkscape:window-width="1920"
     inkscape:window-height="1017"
     inkscape:window-x="-8"
     inkscape:window-y="-8"
     inkscape:window-maximized="1"
     inkscape:current-layer="g25742" /><g
     id="g22759"
     transform="translate(-28.099836,-4.0099188)"><g
       id="g25742"
       transform="translate(-282.64316,-222.23789)"
       style="fill:#ffffff"><g
         data-name="Layer 9 copy"
         id="g26028"
         transform="matrix(0.77577152,0,0,0.77577152,308.03002,247.4402)"><path
           d="M 93.94,15.91 77.7,32.15 a 58.94,58.94 0 0 0 1.93,-9.5 L 92.45,9.83 A 1.5,1.5 0 1 0 90.33,7.71 L 77.51,20.53 A 58.94,58.94 0 0 0 68,22.46 L 84.57,5.9 A 1.5,1.5 0 0 0 82.45,3.78 L 61.06,25.17 a 17.55,17.55 0 0 0 -7.59,6.68 51.51,51.51 0 0 0 -4.07,-9 1.51,1.51 0 0 0 -1.21,-0.74 1.49,1.49 0 0 0 -1.28,0.61 c -0.32,0.43 -6.45,8.77 -7.64,17 -1.09,-2.41 -2,-4 -2.15,-4.22 a 1.51,1.51 0 0 0 -2.5,-0.13 c -0.32,0.44 -6.62,9 -7.68,17.34 A 48.57,48.57 0 0 0 24.48,47.8 1.52,1.52 0 0 0 23.26,47 1.48,1.48 0 0 0 21.98,47.6 c -0.4,0.54 -9.82,13.36 -7.45,22.93 a 11.06,11.06 0 0 0 5.74,7.23 L 3.94,94.1 a 1.49,1.49 0 0 0 0,2.12 1.5,1.5 0 0 0 2.12,0 L 22.5,79.78 A 11.21,11.21 0 0 0 30,86 a 13.42,13.42 0 0 0 3.3,0.38 c 9,0 19.14,-7.48 19.62,-7.83 a 1.5,1.5 0 0 0 0.61,-1.28 1.53,1.53 0 0 0 -0.74,-1.22 49.39,49.39 0 0 0 -4.92,-2.46 c 8.34,-1.06 16.91,-7.36 17.35,-7.69 a 1.49,1.49 0 0 0 0.6,-1.28 1.51,1.51 0 0 0 -0.73,-1.21 c -0.19,-0.11 -1.81,-1.06 -4.22,-2.15 8.23,-1.19 16.57,-7.32 17,-7.64 A 1.51,1.51 0 0 0 77.74,51.12 52.13,52.13 0 0 0 68,46.85 v 0 c 3,-1.56 5.27,-4.47 6.95,-7.74 L 96.06,18 A 1.5,1.5 0 1 0 93.94,15.88 Z M 48,26.46 c 2,4 5.81,12.9 3.63,18.9 a 7.76,7.76 0 0 1 -1.79,2.88 l -0.08,0.08 a 9.07,9.07 0 0 1 -3,1.93 8.12,8.12 0 0 1 -4.34,-5.37 C 40.83,38.68 45.53,30.26 48,26.46 Z m -2.79,26.37 -2.31,2.3 a 20.81,20.81 0 0 0 -0.14,-4 12.7,12.7 0 0 0 2.45,1.7 z M 35.68,39.12 c 2,4 5.8,12.9 3.63,18.89 a 8.63,8.63 0 0 1 -0.65,1.37 l -2.8,2.8 a 10.77,10.77 0 0 1 -1.44,0.73 8.18,8.18 0 0 1 -4.34,-5.38 c -1.53,-6.19 3.17,-14.61 5.6,-18.41 z m -3,26.24 -2.45,2.45 a 20.77,20.77 0 0 0 -0.11,-4.38 12.27,12.27 0 0 0 2.56,1.93 z M 21.78,75.2 A 8.13,8.13 0 0 1 17.44,69.82 C 15.91,63.63 20.6,55.21 23,51.41 c 2,4 5.81,12.9 3.63,18.9 A 7.85,7.85 0 0 1 25,73 l -0.41,0.41 a 9.21,9.21 0 0 1 -2.81,1.79 z m 27.34,2.3 c -3.8,2.42 -12.22,7.12 -18.41,5.59 a 8.16,8.16 0 0 1 -5.38,-4.34 8.14,8.14 0 0 1 4.89,-4.88 c 6,-2.18 14.86,1.61 18.9,3.63 z m -17.23,-7.11 3,-3 a 13.12,13.12 0 0 0 2.18,3 19.69,19.69 0 0 0 -5.18,0 z M 61.41,64.85 C 57.62,67.28 49.21,72 43,70.45 a 8.17,8.17 0 0 1 -5.38,-4.35 8.19,8.19 0 0 1 4.89,-4.88 c 6,-2.17 14.87,1.62 18.9,3.63 z M 44.58,57.7 47.44,54.84 a 13,13 0 0 0 2,2.93 20.06,20.06 0 0 0 -4.86,-0.07 z M 74.07,52.57 C 70.27,55 61.86,59.7 55.66,58.16 a 8.17,8.17 0 0 1 -5.39,-4.34 8.15,8.15 0 0 1 4.9,-4.88 c 6,-2.18 14.83,1.61 18.9,3.63 z m -7.41,-8.39 c -2.78,1.45 -6,1.15 -9.77,-0.91 -2.06,-3.79 -2.36,-7 -0.91,-9.77 3.48,-6.7 16,-9.13 20.48,-9.8 -0.67,4.5 -3.1,17 -9.8,20.48 z"
           id="path26026" /></g></g></g></svg>
