<svg xmlns="http://www.w3.org/2000/svg" width="1500" height="1500" viewBox="0 0 396.875 396.875"><path d="M194.793 9.885a.291.291 0 1 0 0 .582.291.291 0 0 0 0-.582zm92.575 16.262a.794.794 0 1 0 0 1.588.794.794 0 0 0 0-1.588zM83.904 31.05a.463.463 0 1 0 0 .926.463.463 0 0 0 0-.926zm-67.036 1.893a.291.291 0 1 0 0 .582.291.291 0 0 0 0-.582zM66.77 52.559a.291.291 0 1 0 0 .582.291.291 0 0 0 0-.582zm124.15 8.843a.794.794 0 1 0 0 1.587.794.794 0 0 0 0-1.587zM96.537 66.14a.463.463 0 1 0 0 .926.463.463 0 0 0 0-.926zm242.467 18.378a.794.794 0 1 0 0 1.587.794.794 0 0 0 0-1.587zM63.667 88.4a.25.25 0 1 0 0 .5.25.25 0 0 0 0-.5zm22.824.25a.25.25 0 1 0 .001.5.25.25 0 0 0 0-.5zM200.3 93.167a.291.291 0 1 0 0 .583.291.291 0 0 0 0-.583zm62.2 2.889a.25.25 0 1 0-.001.5.25.25 0 0 0 0-.5zm-81.067.018a.794.794 0 1 0 0 1.587.794.794 0 0 0 0-1.587zm134.269 1.967a.25.25 0 1 0 0 .5.25.25 0 0 0 0-.5zM142.276 99.9a.463.463 0 1 0 0 .926.463.463 0 0 0 0-.926zm134.39 1.05a.25.25 0 1 0 0 .5.25.25 0 0 0 0-.5zm62.291 8.605a.25.25 0 1 0 0 .5.25.25 0 0 0 0-.5zm-44.973 10.548a.25.25 0 1 0 0 .5.25.25 0 0 0 0-.5zm-22.824.25a.25.25 0 1 0 0 .5.25.25 0 0 0 0-.5zM44.557 128.76a.463.463 0 1 0 0 .926.463.463 0 0 0 0-.926zm101.494 1.425a.291.291 0 1 0 0 .582.291.291 0 0 0 0-.582zm-23.232 8.298a.794.794 0 1 0 0 1.587.794.794 0 0 0 0-1.587zm149.407 1.49a.291.291 0 1 0 0 .582.291.291 0 0 0 0-.582zM26.5 140.85a.25.25 0 1 0 0 .5.25.25 0 0 0 0-.5zm178.549.873a.463.463 0 1 0 0 .926.463.463 0 0 0 0-.926zm38.579.179a.25.25 0 1 0 0 .5.25.25 0 0 0 0-.5zm62.78 2.943a.25.25 0 1 0 .001.5.25.25 0 0 0 0-.5zm26.354 6.005a.25.25 0 1 0 0 .5.25.25 0 0 0 0-.5zm-212.613 5.655a.25.25 0 1 0 0 .5.25.25 0 0 0 0-.5zm-1.82 2.513a.463.463 0 1 0 0 .926.463.463 0 0 0 0-.926zm-37.214.395a.25.25 0 1 0 0 .5.25.25 0 0 0 0-.5zm277.832 1.7a.291.291 0 1 0 0 .583.291.291 0 0 0 0-.582zm-149.408.485a.794.794 0 1 0 0 1.588.794.794 0 0 0 0-1.588zm-66.133 6.418a.25.25 0 1 0 0 .5.25.25 0 0 0 0-.5zm-84.075 2.885a.291.291 0 1 0-.001.582.291.291 0 0 0 0-.582zm71.946 1.082a.463.463 0 1 0 0 .926.463.463 0 0 0 0-.926zm-32.844 6.582a.25.25 0 1 0 0 .5.25.25 0 0 0 0-.5zm-22.824.25a.25.25 0 1 0 0 .5.25.25 0 0 0 0-.5zm-36.72 6.045a.291.291 0 1 0 0 .582.291.291 0 0 0 0-.582zm307.751 5.236a.25.25 0 1 0 0 .5.25.25 0 0 0 0-.5zm-240.662 7.297a.291.291 0 1 0-.001.582.291.291 0 0 0 0-.582zm123.018 3.45a.463.463 0 1 0 0 .927.463.463 0 0 0 0-.926zm74.616 1.115a.794.794 0 1 0 0 1.587.794.794 0 0 0 0-1.587zm-208.9 2.048a.794.794 0 1 0 0 1.588.794.794 0 0 0 0-1.588zm303.282 2.69a.463.463 0 1 0 0 .926c.658-.078.49-.911 0-.926zm-110.974 1.222a.291.291 0 1 0 0 .582.291.291 0 0 0 0-.582zm59.62 5.04a.25.25 0 1 0 0 .5.25.25 0 0 0 0-.5zm-264.389.122a.291.291 0 1 0 0 .582.291.291 0 0 0 0-.582zm170.033 2.482a.794.794 0 1 0 0 1.588.794.794 0 0 0 0-1.588zm-19.528 13.33a.25.25 0 1 0 0 .5.25.25 0 0 0 0-.5zm-27.985.46a.794.794 0 1 0 0 1.588.794.794 0 0 0 0-1.588zm41.72 1.23a.25.25 0 1 0 0 .5.25.25 0 0 0 0-.5zm-22.824.25a.25.25 0 1 0 0 .5.25.25 0 0 0 0-.5zM34.738 232.84a.291.291 0 1 0 0 .582.291.291 0 0 0 0-.582zm259.495.884a.291.291 0 1 0 0 .582.291.291 0 0 0 0-.582zm-284.416.878a.463.463 0 1 0 0 .926.463.463 0 0 0 0-.926zm35.61.2a.25.25 0 1 0 0 .5.25.25 0 0 0 0-.5zm267.672 1.829a.794.794 0 1 0 0 1.587.794.794 0 0 0 0-1.587zm-35.46 2.048a.794.794 0 1 0 0 1.587.794.794 0 0 0 0-1.587zm74.617 1.776a.463.463 0 1 0 0 .926.463.463 0 0 0 0-.926zm-305.056.453a.794.794 0 1 0 0 1.588.794.794 0 0 0 0-1.588zm-35.723.87a.25.25 0 1 0 0 .5.25.25 0 0 0 0-.5zm170.006 2.955a.463.463 0 1 0 0 .926.463.463 0 0 0 0-.926zm-27.993 3.794a.291.291 0 1 0 0 .582.291.291 0 0 0 0-.582zm-95.867 9.61a.794.794 0 1 0 0 1.587.794.794 0 0 0 0-1.588zm279.725 1.626a.25.25 0 1 0 0 .5.25.25 0 0 0 0-.5zm-233.76 8.38a.291.291 0 1 0 0 .583.291.291 0 0 0 0-.582zm67.037 1.55a.463.463 0 1 0 0 .925.463.463 0 0 0 0-.926zm177.856 1.048a.291.291 0 1 0 0 .582.291.291 0 0 0 0-.582zm-264.717 2.853a.463.463 0 1 0 0 .926.463.463 0 0 0 0-.926zm287.95 5.444a.794.794 0 1 0 0 1.588.794.794 0 0 0 0-1.588zm-82.231 3.242a.463.463 0 1 0 0 .926.463.463 0 0 0 0-.926zm-127.457 1.037a.794.794 0 1 0 0 1.587.794.794 0 0 0 0-1.587zm-115.707.62a.25.25 0 1 0 0 .5.25.25 0 0 0 0-.5zm177.489 1.052a.25.25 0 1 0 0 .5.25.25 0 0 0 0-.5zm-180.325 1.184a.25.25 0 1 0 0 .5.25.25 0 0 0 0-.5zm27.333.385a.463.463 0 1 0 0 .926.463.463 0 0 0 0-.926zm210.698 4.643a.291.291 0 1 0-.001.582.291.291 0 0 0 0-.582zm94.689 8.374a.463.463 0 1 0 0 .926.463.463 0 0 0 0-.926zm-91.21 2.58a.794.794 0 1 0 0 1.587.794.794 0 0 0 0-1.587zm-127.457 1.698a.463.463 0 1 0 0 .926.463.463 0 0 0 0-.926zm211.818.305a.25.25 0 1 0 0 .5.25.25 0 0 0 0-.5zm-294.048 2.275a.794.794 0 1 0 0 1.587.794.794 0 0 0 0-1.587zm83.69.944a.291.291 0 1 0 0 .582.291.291 0 0 0 0-.582zm204.259 5.162a.463.463 0 1 0 0 .926.463.463 0 0 0 0-.926zm-83.035.566a.25.25 0 1 0 0 .5.25.25 0 0 0 0-.5zm-181.682 2.63a.291.291 0 1 0 0 .583.291.291 0 0 0 0-.582zm177.605 9.335a.463.463 0 1 0 0 .926.463.463 0 0 0 0-.926zm-226.465 2.4a.25.25 0 1 0 0 .5.25.25 0 0 0 0-.5zm107.476 6.25a.794.794 0 1 0 0 1.587.794.794 0 0 0 0-1.587zm108.381 7.68a.463.463 0 1 0 0 .926.463.463 0 0 0 0-.926zm110.014 4.055a.25.25 0 1 0 0 .5.25.25 0 0 0 0-.5zm-280.786.223a.463.463 0 1 0 0 .926.463.463 0 0 0 0-.926zm91.578 2.591a.463.463 0 1 0 0 .926.463.463 0 0 0 0-.926zm-52.421.572a.794.794 0 1 0 0 1.587.794.794 0 0 0 0-1.587zm18.867 3.912a.291.291 0 1 0 0 .582.291.291 0 0 0 0-.582zm160.47 1.307a.25.25 0 1 0 .002.5.25.25 0 0 0-.001-.5zm-71.01 2.059a.794.794 0 1 0 0 1.587.794.794 0 0 0 0-1.587zm46.92 13.083a.25.25 0 1 0 0 .5.25.25 0 0 0 0-.5zm-47.148 1.376a.25.25 0 1 0 0 .5.25.25 0 0 0 0-.5zm-129.623 5.934a.25.25 0 1 0 0 .5.25.25 0 0 0 0-.5zm-47.149 1.377a.25.25 0 1 0 .001.5.25.25 0 0 0 0-.5zm-16.222 1.547a.463.463 0 1 0 0 .926.463.463 0 0 0 0-.926zm94.381 4.078a.794.794 0 1 0 0 1.587.794.794 0 0 0 0-1.587zm197.636 5.57a.291.291 0 1 0 0 .582.291.291 0 0 0 0-.582zm-247.23 5.333a.25.25 0 1 0 0 .5.25.25 0 0 0 0-.5z" style="fill:#fff;stroke-width:1.25095;stroke-linecap:square;stroke-miterlimit:0;paint-order:markers fill stroke"/></svg>