<?xml version="1.0" encoding="UTF-8" standalone="no"?>
<svg
   width="217.51027mm"
   height="112.23654mm"
   viewBox="0 0 217.51027 112.23654"
   version="1.1"
   id="svg1"
   sodipodi:docname="jukebox-tools-wordmark.svg"
   inkscape:version="1.3.1 (91b66b0783, 2023-11-16)"
   xmlns:inkscape="http://www.inkscape.org/namespaces/inkscape"
   xmlns:sodipodi="http://sodipodi.sourceforge.net/DTD/sodipodi-0.dtd"
   xmlns="http://www.w3.org/2000/svg"
   xmlns:svg="http://www.w3.org/2000/svg">
  <defs
     id="defs1" />
  <sodipodi:namedview
     id="namedview1"
     pagecolor="#ffffff"
     bordercolor="#000000"
     borderopacity="0.25"
     inkscape:showpageshadow="2"
     inkscape:pageopacity="0.0"
     inkscape:pagecheckerboard="0"
     inkscape:deskcolor="#d1d1d1"
     inkscape:document-units="mm"
     inkscape:zoom="1.263858"
     inkscape:cx="411.04303"
     inkscape:cy="212.44476"
     inkscape:window-width="1920"
     inkscape:window-height="1017"
     inkscape:window-x="-8"
     inkscape:window-y="645"
     inkscape:window-maximized="1"
     inkscape:current-layer="svg1" />
  <path
     id="path12"
     style="color:#000000;-inkscape-font-specification:'Alameda Script PERSONAL USE';display:inline;fill:#ffffff;stroke-linecap:round;stroke-linejoin:bevel;stroke-miterlimit:0;-inkscape-stroke:none;paint-order:markers stroke fill"
     d="m -272.26437,108.16271 -2.61689,-0.38481 c -0.97609,0.55312 -3.59265,1.20312 -6.70933,1.35154 l -1.98594,1.62327 c -0.53046,2.09973 -3.00886,8.96903 -5.5255,15.94733 -0.72732,2.01674 -1.33739,3.80889 -1.95025,5.60596 0.2506,-0.82666 0.44549,-1.67545 0.5203,-2.5652 0.15452,-1.75279 -0.24364,-3.46717 -1.2361,-4.80865 -0.99397,-1.34352 -2.55831,-2.22739 -4.29491,-2.48652 -3.47318,-0.51825 -7.5607,1.10032 -11.92399,5.04133 l -0.004,0.004 c -4.59454,4.16845 -7.53094,8.76702 -9.10957,13.19697 l -0.0816,0.0528 c -0.81824,1.27851 -2.01804,3.06921 -3.23873,4.68001 -0.23024,0.30383 -0.36371,0.37092 -0.59749,0.65817 0.188,-0.81292 0.34386,-1.63651 0.34386,-2.48235 0,-1.02479 -0.24007,-2.09753 -0.71094,-3.08833 3.26754,-1.97048 6.79003,-5.02672 7.8005,-9.58356 0.42158,-1.8405 0.30321,-3.58654 -0.43553,-5.01389 -0.74009,-1.42993 -2.05744,-2.3988 -3.45458,-2.86136 -2.39663,-0.79348 -5.04296,-0.23503 -7.48468,0.99211 1.92141,-4.85294 4.25787,-10.82475 4.90249,-12.33959 l -0.45912,-2.3652 -1.20884,-1.20711 -2.61161,-0.33623 c -0.72552,0.4253 -4.11444,1.28915 -8.18173,1.43979 l -2.04447,1.79693 c -1.00724,6.04347 -4.96172,16.92151 -10.17023,30.34939 -0.42901,0.64321 -0.91856,1.3482 -1.48034,2.1112 2.80709,-7.41774 5.47117,-13.63845 6.78898,-16.91026 l -0.44132,-2.29293 -1.15614,-1.20678 -2.6174,-0.38492 c -0.95823,0.543 -3.6479,1.20139 -6.71103,1.34961 l -1.98054,1.61753 c -0.50901,1.98515 -1.17075,4.22 -2.02892,6.54476 -2.62136,6.89319 -4.52973,11.65037 -6.40239,13.66584 0.70042,-2.1214 2.34085,-5.19807 3.94105,-8.66185 1.63634,-3.54205 3.21148,-7.50039 3.4201,-11.64292 l -1.41403,-2.13061 -1.73448,-0.63119 -1.79659,0.15063 c -1.35418,0.76735 -1.9349,0.93572 -5.13268,1.08798 l -2.04713,2.01959 c -0.38028,6.22701 -3.57459,11.02889 -6.94338,17.28521 -1.79333,3.31965 -2.36135,6.81433 -1.41798,9.79292 0.74133,2.34069 2.69089,4.1973 5.22871,4.9064 -0.88212,0.024 -2.05365,-0.005 -2.8577,0.033 -4.61581,0.21928 -8.03684,0.9287 -10.88088,1.86536 2.41396,-3.41241 4.52767,-7.11736 6.41233,-10.98279 6.28783,-12.89643 10.68155,-27.22035 17.40058,-35.1366 l -0.20162,-2.99432 c -0.1893,-0.17037 -0.37246,-0.45414 -0.48444,-0.81809 l -2.36294,-1.49799 c -0.39633,0.0566 -0.81847,0.12654 -1.32047,0.25204 l 0.20112,-0.0413 c -3.46876,0.52144 -6.57807,-0.38937 -10.31833,-1.53113 -3.74025,-1.14177 -8.05582,-2.47738 -13.43751,-2.16416 -14.2844,0.82927 -23.29608,8.50121 -26.36843,16.726 -1.53621,4.11251 -1.61676,8.40058 -0.008,11.98655 1.60853,3.58496 5.01021,6.32464 9.63906,7.12494 5.9619,1.03952 10.60928,-2.04356 12.43149,-6.01777 0.9111,-1.98712 1.19442,-4.19702 0.68946,-6.28505 -0.50496,-2.08802 -1.88653,-4.04766 -4.02947,-5.17183 l -3.15,1.80258 c -0.0215,0.44059 -0.99024,1.875 -3.13872,1.08045 -1.10392,-0.41179 -1.46518,-0.91469 -1.68761,-1.68949 -0.22243,-0.77479 -0.15204,-1.92909 0.32812,-3.16046 0.95961,-2.46095 3.4661,-4.92555 6.21655,-5.40003 5.14574,-0.86137 7.69731,-0.14836 10.47447,0.96869 2.09287,0.8418 4.62543,1.89238 7.71885,2.66796 -4.49539,7.51265 -7.33802,17.13684 -10.61485,25.7146 -3.65778,9.57494 -7.85313,17.2695 -14.50222,19.30677 l -0.004,0.002 c -3.62071,1.11678 -6.1307,0.71448 -7.84772,-0.22252 -1.71701,-0.937 -2.73738,-2.49787 -3.08945,-4.12467 -0.35207,-1.62681 0.007,-3.2133 0.88449,-4.22285 0.87781,-1.00955 2.30949,-1.72249 5.09193,-1.27158 l 2.49031,-2.30066 c -0.32806,-4.0023 -2.9704,-7.04764 -6.29709,-8.19564 -3.32473,-1.14733 -7.31724,-0.54735 -10.60564,1.98652 -7.5e-4,5.8e-4 -10e-4,0.001 -0.002,0.002 -10e-4,9.2e-4 -0.003,7e-4 -0.004,0.002 -6.3527,4.86559 -7.70755,12.84573 -4.75773,19.13867 2.95029,6.29394 10.19571,10.9183 19.95661,9.86687 6.5108,-0.69511 11.84372,-3.21214 16.29114,-6.75372 0.2265,1.48779 0.94423,2.89241 2.0255,3.95687 1.6717,1.64572 4.05285,2.74793 6.84949,3.20144 l 2.45512,-2.54694 c 0.11712,0.58558 -0.21084,1.24394 -0.36509,1.40631 -0.15425,0.16237 -0.11198,0.0792 0.1112,-0.0198 0.44636,-0.19812 1.54303,-0.52168 3.21102,-0.80434 3.33596,-0.56532 9.01367,-1.05509 17.67583,-1.26381 l 0.002,-9e-5 c 13.66326,-0.34158 38.88735,0.81113 63.92326,1.81252 -2.50668,3.75156 -4.71688,7.96555 -6.89986,11.87523 -2.24123,4.01403 -4.41851,7.70888 -6.49959,10.13216 -2.0793,2.42121 -3.72355,3.33725 -5.31964,3.08614 -0.90159,-0.1508 -1.18484,-0.43593 -1.31282,-0.62386 -0.12869,-0.18897 -0.18134,-0.41874 -0.0903,-0.79005 0.18223,-0.74263 0.99184,-1.72914 2.57351,-1.7168 l 1.4215,-3.78491 c -2.37449,-2.04329 -5.51717,-3.03869 -8.60425,-2.64486 -3.08585,0.39367 -6.10737,2.35195 -7.70283,5.78564 -4.1951,8.94592 4.5186,20.21821 16.40247,17.96799 4.68455,-0.88207 8.41705,-4.23251 11.66264,-8.3804 3.2462,-4.14868 6.07636,-9.22336 8.80087,-14.13023 2.7245,-4.90687 5.35029,-9.65097 7.9604,-13.01564 1.01453,-1.30781 1.99767,-2.36039 2.95205,-3.16782 11.29436,0.39541 22.07956,0.69474 31.03493,0.69474 18.1412,0 29.66877,-8.26349 35.25209,-15.31254 l -1.9e-4,-0.002 c 4.38885,-5.5371 5.02035,-11.28803 2.88286,-15.39665 -2.09903,-4.0347 -6.78046,-6.16068 -11.58807,-5.12312 -0.0343,0.005 -0.0506,-0.0209 -0.0854,-0.0155 l -0.0375,0.0255 c -0.0469,0.0107 -0.0918,-0.002 -0.1387,0.01 l -0.10722,0.14884 -1.19727,0.77502 c -1.15151,1.7796 -3.22627,4.84244 -4.79682,6.209 -1.00549,0.86363 -1.21812,0.71113 -1.57441,0.48035 -0.35668,-0.23103 -1.0181,-1.15444 -1.12113,-2.86482 l -0.004,-0.051 c -0.0614,-0.73734 -0.0185,-1.49766 -2.9e-4,-2.25418 5.76979,-2.38955 11.78307,-5.9938 14.67785,-13.5524 l -0.0858,-1.73255 c -0.75283,-1.50565 -1.96046,-2.26968 -3.24025,-3.02557 -1.27979,-0.7559 -2.69367,-1.38099 -3.96486,-1.86122 l -2.81441,1.36528 c -0.32322,1.02206 -0.69418,1.91311 -1.06052,2.82044 l -0.40644,-2.01189 -1.2069,-1.20881 -2.58406,-0.34954 c -0.97609,0.55312 -3.59437,1.20119 -6.71104,1.3496 l -1.98597,1.62855 c -0.3228,1.29117 -0.56823,2.92541 -0.848,4.43985 -0.90188,0.38112 -1.83179,0.56789 -2.82215,0.83762 -0.0218,-1.46443 -0.17077,-2.83429 -0.58792,-4.01958 -0.69506,-1.97499 -2.08509,-3.56654 -3.88111,-4.33603 -3.63972,-1.59495 -7.7672,-0.23222 -11.32586,2.39301 l -0.008,0.006 c -1.62187,1.20763 -3.05964,2.5937 -4.33777,4.0839 -0.76238,0.15942 -1.59398,0.16121 -2.49425,0.19716 -0.007,-0.35803 0.0561,-0.6959 0.0158,-1.05838 l -0.004,-0.033 c -0.48036,-3.77419 -3.50107,-6.19979 -6.55278,-6.24807 -0.67655,-0.0107 -1.35002,0.12754 -2.00573,0.32803 1.7419,-4.40303 3.65499,-9.2017 4.21887,-10.60168 l -0.44174,-2.29091 z m 17.03208,25.64961 c -0.0544,0.87313 0.003,1.76563 0.30295,2.66435 0.30529,0.91586 0.9312,1.76137 1.70888,2.50962 -0.91657,2.59417 -1.92222,4.78446 -2.86707,6.17765 -1.06465,1.56984 -1.95374,1.86374 -1.78167,1.89654 -0.0813,-0.13031 -0.22357,-0.37884 -0.32599,-0.90833 -0.2362,-1.22105 -0.16955,-3.30313 0.30275,-5.52324 0.49315,-2.31811 1.45539,-4.75141 2.66015,-6.81659 z m 13.2244,4.6777 c -0.0741,0.83826 -0.19251,1.6871 -0.23836,2.50042 -1.52773,0.97427 -3.00574,2.06694 -4.42375,3.2731 0.72413,-1.68822 1.19688,-3.24501 1.63099,-4.7363 1.04748,-0.28999 2.06824,-0.61092 3.03112,-1.03722 z m -37.04462,-4.90009 c 0.32581,0.626 0.72558,1.1955 1.21067,1.72246 -0.58841,4.19619 -2.00357,8.55672 -4.37665,12.04918 -0.45661,0.67148 -0.8655,0.95354 -1.09981,1.08007 -0.0272,-0.0459 -0.0294,0.024 -0.0841,-0.36719 -0.0867,-0.62051 -0.0367,-1.71191 0.36741,-3.18981 0.79629,-2.84648 2.50996,-7.26161 3.98249,-11.29471 z m 59.93918,12.68531 c 1.17967,0.40681 2.00811,1.30469 2.26562,2.51949 0.37821,1.78413 -0.40089,4.70506 -5.01727,7.81452 l -0.004,0.002 c -5.00934,3.38868 -12.78377,6.61711 -29.73225,6.61711 -13.09087,0 -36.75858,-1.58515 -60.24631,-3.02358 -14.67625,-0.89879 -28.96202,-1.68603 -40.99418,-2.04309 1.58234,-0.25886 3.03954,-0.86991 4.33612,-1.84331 l 0.72842,1.07791 9.34943,-4e-5 2.0705,-1.56256 c 0.37824,-1.32384 1.10218,-3.29025 1.5976,-4.84556 0.003,0.23814 -0.10749,0.43399 -0.0839,0.67761 6e-5,6.5e-4 3e-5,0.001 9e-5,0.002 7e-5,6.9e-4 -4.9e-4,0.001 -4.2e-4,0.002 0.31713,3.29428 2.70602,5.67041 5.41618,6.41194 2.71123,0.74184 5.76467,0.18025 8.23839,-1.6249 l 0.0251,-0.0196 c 1.42908,-1.0767 2.67241,-2.44591 3.82847,-3.87872 0.38678,0.88889 0.73371,1.80543 1.35944,2.54094 1.80546,2.12225 4.60968,3.34763 7.85721,3.34763 3.82352,0 8.64188,-2.13705 13.04298,-6.17601 0.2031,0.69805 0.25761,1.48583 0.59758,2.09565 1.39964,2.51059 4.06812,4.02773 6.94915,4.02773 4.91739,0 8.89436,-3.05273 11.92388,-6.30667 l 0.0238,-0.0257 c 1.74105,-1.93146 3.37431,-4.36048 4.79077,-6.99803 -0.33948,3.18708 -0.0995,6.195 1.11331,8.65416 1.28479,2.60509 3.93592,4.51767 7.15253,4.51767 3.99428,0 7.2937,-1.95399 9.89854,-4.62292 -0.11017,0.41856 -0.31805,0.72215 -0.40458,1.1681 l 2.11324,2.56245 8.40446,-3.1e-4 2.14642,-2.3141 c -0.0215,-0.28702 0.0795,-0.82609 0.0858,-1.20115 1.35453,2.45692 3.93653,4.56596 7.37894,4.56596 4.11803,0 7.22051,-3.17244 9.77174,-6.30221 1.70171,-2.08761 2.98487,-4.099 4.01719,-5.81635 z m -72.33938,-12.81875 c -0.8673,2.57302 -1.65367,4.98701 -2.34294,7.20233 l -0.0974,0.0527 c -1.37758,2.07802 -3.20636,3.83526 -4.95694,5.02357 -1.75059,1.18832 -3.48646,1.73586 -4.17412,1.73586 -1.17713,0 -1.66842,-0.30868 -2.13086,-0.87867 -0.22152,-0.27304 -0.28227,-0.94094 -0.44114,-1.40644 2.76969,-0.82734 5.68746,-2.18284 8.34932,-4.33366 2.43089,-1.96421 4.60204,-4.45982 5.79409,-7.39571 z m 64.4891,40.2841 c -0.78535,0.25337 -3.11331,0.35788 -5.65203,-0.0391 l -2.26941,1.1891 c -0.98459,2.03348 -5.10908,8.68668 -9.13423,15.00435 -0.29483,0.0405 -0.58135,0.0254 -0.88032,0.0521 0.17788,-1.09967 0.23216,-2.14651 0.0989,-3.12861 -0.24838,-1.82974 -1.18012,-3.48843 -2.61546,-4.48857 -2.88563,-2.04398 -6.67187,-1.5812 -10.13639,0.0165 l -0.009,0.004 c -1.8239,0.851 -3.44526,1.96792 -4.94243,3.20407 -0.76782,0.16887 -1.47864,0.20383 -2.31912,0.2792 0.17764,-1.09901 0.23166,-2.14503 0.0985,-3.12658 -0.24839,-1.82975 -1.18012,-3.48845 -2.61546,-4.48858 -2.88562,-2.04398 -6.67187,-1.5812 -10.13639,0.0165 l -0.009,0.004 c -6.45627,3.01236 -10.95184,8.88312 -12.87382,14.46283 -0.96099,2.78984 -1.31305,5.54208 -0.66887,8.01628 0.64419,2.4742 2.63388,4.6417 5.41352,5.21522 4.58687,0.9464 8.71376,-1.33022 11.81493,-4.23913 1.17782,-1.1048 2.12801,-2.355 3.07146,-3.58799 -0.64131,2.33795 -0.91935,4.63634 -0.37611,6.72274 0.64418,2.4742 2.63591,4.64212 5.41553,5.21563 4.58688,0.94641 8.71224,-1.33053 11.81342,-4.23943 0.44122,-0.41387 0.74156,-0.90457 1.15056,-1.34398 -0.24836,0.73801 -0.56692,1.44533 -0.68211,2.22419 -0.19992,1.35148 -0.16586,2.8203 0.55667,4.19148 0.72251,1.37117 2.19549,2.40528 3.91956,2.76101 2.52913,0.52183 4.75437,-0.53247 6.83302,-1.87688 0.9528,2.05983 2.83967,3.78254 5.43839,4.40671 l 0.0301,0.008 c 2.90929,0.65459 6.30782,0.14521 9.31558,-1.76936 3.7891,-0.72759 7.58943,-3.20573 10.8383,-6.66626 l 0.42483,-2.28149 c -0.41534,-1.02638 -1.1548,-2.209 -2.98033,-2.45167 l -1.75001,0.5565 c -0.005,0.004 -0.0101,0.006 -0.0145,0.0113 0.66743,-4.02521 0.1689,-8.1873 -0.85168,-12.14704 0.8803,-1.07018 2.04535,-2.40136 3.11145,-4.01452 0.64101,-0.96998 1.21241,-1.95574 1.54137,-3.08215 0.329,-1.1264 0.37844,-2.73158 -0.66483,-3.92042 -0.79885,-0.9103 -2.00412,-1.43973 -3.17112,-1.4579 -1.16702,-0.0182 -2.27391,0.39852 -3.24016,1.07851 -1.9325,1.36 -3.40429,3.77924 -4.09916,7.14706 -0.13707,0.66436 -0.14777,1.21071 -0.18658,1.78401 -2.54474,3.20031 -6.15486,7.22767 -9.17878,10.42519 5.21353,-8.13131 12.28976,-18.96702 13.77625,-21.20467 l 0.0311,-2.33476 -0.7517,-1.20037 z m -132.61065,-18.53953 c 0.0924,0.17603 0.10436,0.37198 0.2151,0.54301 0.81448,1.25801 2.30893,2.0107 3.97663,2.34381 -3.21724,-0.0789 -6.11127,-0.0992 -8.85967,-0.0899 1.7195,-0.48194 3.26464,-1.47414 4.66794,-2.7969 z m 83.7732,32.66785 c -0.0146,0.34067 -0.0827,0.66659 -0.0407,1.02053 0.0947,0.79736 0.42855,1.60553 0.90811,2.36286 -1.15219,1.87769 -2.3,3.44341 -3.2601,4.37696 -0.55319,0.53789 -1.01436,0.79398 -1.3281,0.95645 -0.0141,-0.1147 -0.0348,-0.0948 -0.0328,-0.25792 0.0122,-0.98335 0.409,-2.67243 1.16856,-4.40538 0.62305,-1.4215 1.59651,-2.78393 2.58498,-4.0535 z m 19.9243,4.11094 c -0.0146,0.34067 -0.0832,0.66649 -0.0412,1.02042 0.0948,0.79743 0.43102,1.60601 0.91064,2.36339 -1.15223,1.87779 -2.3025,3.44286 -3.26263,4.37643 -0.55319,0.5379 -1.01435,0.79399 -1.3281,0.95646 -0.0141,-0.1147 -0.0343,-0.0947 -0.0323,-0.25782 0.0122,-0.98334 0.41051,-2.67212 1.17007,-4.40506 0.62303,-1.42147 1.59503,-2.78428 2.58347,-4.05382 z m 26.1304,8.26713 c -0.14941,0.35989 -0.21,0.71144 -0.37548,1.06541 -0.41305,0.88359 -0.93296,1.61724 -1.41681,2.42982 -0.12152,-0.28507 -0.32677,-0.46927 -0.49038,-0.72539 0.72577,-0.87807 1.51745,-1.81136 2.28267,-2.76984 z"
     inkscape:label="Stroke"
     transform="rotate(-11.658132,-594.50491,-1978.5346)" />
  <path
     id="path33"
     style="display:inline;color:#000000;-inkscape-font-specification:'Alameda Script PERSONAL USE';fill:#e03a3e;fill-opacity:1;stroke-linecap:round;stroke-linejoin:bevel;stroke-miterlimit:0;-inkscape-stroke:none;paint-order:markers stroke fill"
     d="m -273.81929,109.65014 c -1.57579,0.89294 -4.3601,1.47079 -7.66925,1.62837 -1.10113,4.35865 -7.73032,21.49615 -10.61594,30.62995 -3.09936,4.67043 -8.03212,7.7143 -10.91946,7.7143 -3.41421,0 -4.98998,-2.52106 -5.20009,-5.83021 5.56778,-0.84042 14.91698,-6.72343 15.5473,-14.23466 0.47273,-5.30514 -5.7251,-7.8266 -13.86665,-0.47294 -4.52966,4.10957 -7.39141,8.64253 -8.78246,12.8186 -0.014,0.002 -0.0277,-0.004 -0.0417,-0.002 -1.68083,2.6263 -4.88515,7.30152 -6.9862,8.77225 -1.52326,1.10305 -2.88879,0.47267 -1.68069,-2.31121 1.41821,-3.15158 1.99572,-6.72353 -0.57806,-8.50942 3.36167,-1.62831 7.93172,-4.88504 8.92972,-9.40228 1.36568,-5.93546 -4.83271,-6.98568 -9.34996,-4.09675 -2.52125,1.62831 -3.78173,2.88875 -4.83226,4.2019 3.46673,-9.13954 6.77576,-17.22877 7.82629,-19.6975 l -1.20812,-1.20801 c -1.52326,0.89294 -4.93752,1.57606 -9.19213,1.73364 -1.09543,6.57253 -4.65212,16.66278 -10.08936,30.5993 -1.16533,1.79659 -3.27571,4.87672 -5.1955,6.58896 -1.78588,1.62831 -3.25651,1.57588 -2.04841,-1.83833 3.4142,-9.55975 6.82797,-17.17603 8.35122,-20.95791 l -1.15531,-1.2082 c -1.57579,0.89294 -4.41213,1.47089 -7.66875,1.62847 -0.52526,2.04852 -1.20843,4.35949 -2.10137,6.7757 -2.83642,7.45871 -4.62234,12.81643 -7.56381,15.18011 -1.89094,1.57578 -4.09688,0.73525 -2.99383,-2.73148 1.57579,-4.98998 6.9861,-12.65849 7.35378,-19.95962 l -1.73358,-0.63048 c -1.57577,0.89294 -2.78366,1.20825 -6.09281,1.36583 -0.42021,6.88092 -3.88722,12.02826 -7.19637,18.17382 -3.15158,5.8304 -1.57563,11.87112 4.0972,11.87112 2.94146,0 5.67307,-2.25875 8.08927,-5.62043 -0.10505,3.04652 0.89267,5.62006 4.30687,5.62006 2.79663,0 5.66991,-2.53762 8.07253,-5.4677 -0.61311,1.53958 -1.12029,2.84976 -1.76913,4.46983 l 9.34943,-4e-5 c 1.15558,-4.04451 2.88897,-9.2444 4.83244,-14.65459 1.73337,-0.31516 3.41428,-0.31535 3.99206,0.42002 0.998,1.31315 -3.5193,6.14567 -3.09909,10.45282 0.47273,4.93745 6.35554,6.09313 10.24248,3.25672 2.36473,-1.78165 4.43738,-4.65471 6.13785,-7.34324 -0.0384,5.18856 2.80347,8.91899 8.20198,8.91899 3.79462,0 9.81666,-2.72419 14.62695,-8.72806 -0.59071,5.42802 2.06492,8.67553 5.96327,8.67553 3.99199,0 7.51119,-2.57388 10.3476,-5.62039 3.36168,-3.72936 6.56615,-9.76958 7.98436,-15.38988 1.46316,-0.0989 2.87696,-0.41156 4.22069,-0.81077 -5.67879,9.66063 -5.18204,21.66367 2.44977,21.66367 8.82439,0 14.07699,-11.60834 15.81035,-18.27916 2.63099,-0.53816 5.10869,-1.78447 7.21583,-3.14658 -0.34524,2.55783 -0.60665,5.17069 -0.70217,7.55881 -4.93746,3.09904 -9.34991,5.93526 -10.71559,12.97376 l 8.40436,2e-4 c -0.15758,-2.10105 0.10507,-6.04093 2.36368,-9.29756 0.31516,4.51726 1.89097,10.34797 7.24864,10.34797 5.21251,0 10.55265,-8.60653 12.70373,-12.35725 5.77846,0.27421 9.13369,8.04554 -0.46499,14.51098 -5.35767,3.62431 -13.70943,6.98567 -30.938,6.98567 -26.5257,0 -94.54729,-6.35561 -119.81236,-5.1475 -22.11351,1.05052 -19.48707,11.81844 -9.76974,13.39423 -0.26263,-1.31316 5.25259,-2.83643 22.69127,-3.25664 14.60616,-0.36515 41.87292,0.93515 68.16333,1.96659 -8.59816,10.74767 -14.65875,30.58156 -23.24654,29.21956 -5.40763,-0.88848 -3.50819,-7.45073 1.52917,-7.41139 -3.82151,-3.28849 -10.33498,-3.22348 -12.95355,2.41808 -3.40538,7.25196 3.59894,16.92466 14.05285,14.94521 13.45979,-2.53155 20.87265,-31.12814 31.06648,-38.76692 11.564,0.41095 22.62315,0.72794 31.74568,0.72794 17.49121,0 28.36417,-7.93155 33.56426,-14.49732 8.03651,-10.13755 1.31309,-19.0143 -6.77594,-17.07083 -1.15557,1.78589 -3.20426,4.93747 -5.20025,6.67082 -2.994,2.57378 -5.98788,0.47241 -6.25051,-3.88727 -0.10505,-1.26063 -0.10485,-2.57376 2e-4,-3.83439 5.98798,-2.31114 11.97603,-5.5148 14.81245,-12.92099 -0.73537,-1.47073 -3.67716,-2.94157 -6.04083,-3.83452 -1.94346,6.14557 -4.72734,10.50528 -8.40418,13.39422 0.73537,-4.88493 2.31133,-9.13973 3.36185,-11.7135 l -1.20813,-1.20801 c -1.57578,0.89294 -4.35949,1.47038 -7.66863,1.62796 -0.40116,1.60465 -0.76454,3.50444 -1.09622,5.47665 -2.05705,0.98846 -4.51668,1.81815 -6.94031,2.08744 0.68284,-5.09503 -0.57817,-8.14189 -3.04689,-9.1924 -2.62631,-1.15558 -5.98765,-0.20996 -9.19175,2.15372 -1.68626,1.25557 -3.1578,2.74271 -4.45117,4.34965 -1.74405,0.4724 -3.8153,0.62995 -5.8444,0.43037 0.10505,-1.05053 0.15806,-2.10133 0.053,-3.04679 -0.73537,-5.77789 -8.03673,-5.7778 -9.29736,-0.26255 -0.57779,2.52125 0.26269,4.98992 2.25869,6.46066 -0.52526,4.77987 -2.15385,9.82245 -4.93773,13.91949 -2.67883,3.93946 -6.51306,2.46894 -4.67465,-4.25441 2.73137,-9.76986 10.92542,-29.6775 12.44868,-33.45938 z m 23.15201,17.47005 c 0.86227,0.1149 1.40409,0.92728 1.5354,2.43741 -1.8384,0.36768 -3.25695,1.62866 -3.78221,3.20444 -0.57779,1.78589 -0.10511,4.46455 2.25857,5.51508 -2.15357,6.88092 -5.14766,11.0305 -7.30124,11.0305 -5.0425,0 -2.20567,-17.12337 5.41062,-21.64063 0.7288,-0.43334 1.3615,-0.61575 1.87886,-0.5468 z m -110.66127,-16.47172 c -0.36769,0.0525 -0.68261,0.10483 -1.10282,0.20988 -8.0365,1.2081 -14.02432,-4.25441 -23.95176,-3.67662 -27.15601,1.57578 -32.61884,28.78409 -16.49332,31.56798 10.2426,1.78589 14.1293,-10.08483 7.72111,-13.44651 -0.10505,2.15358 -2.78375,4.20199 -6.04038,2.99389 -6.61829,-2.46872 -2.10101,-13.13155 5.25265,-14.39218 10.97797,-1.83842 12.76411,3.30918 21.85113,4.3597 -10.29512,14.49722 -12.18626,43.70189 -27.78652,48.48178 -16.17805,4.98997 -18.54187,-16.17796 -5.25275,-14.02439 -0.52526,-6.4082 -7.93132,-8.92962 -13.44658,-4.675 -11.18807,8.56176 -4.35954,27.10353 13.65694,25.16006 29.51969,-3.15156 32.25077,-43.75437 46.69546,-60.77283 -0.52526,-0.47274 -0.89306,-1.10291 -1.10316,-1.78576 z m 60.85085,18.36571 c 2.18742,0.32029 -1.9491,10.84526 -7.69414,12.36195 0.47273,-4.41219 2.88895,-9.40194 6.35568,-11.81814 0.58435,-0.42678 1.02597,-0.58956 1.33846,-0.54381 z m -24.18932,1.6432 c 0.11583,0.0353 0.22195,0.0887 0.31716,0.16095 1.57578,1.10304 -0.84051,7.40613 -8.29922,7.56371 2.31444,-4.72736 6.2447,-8.25441 7.98206,-7.72466 z m 98.36357,45.13321 c -1.46088,0.47131 -3.91397,0.4649 -6.64408,0.038 -1.19775,2.47368 -5.71283,9.80704 -9.77338,16.1457 -1.59186,0.29354 -3.33517,0.41869 -4.97677,0.26589 1.43937,-4.11213 0.91502,-6.85696 -0.95421,-8.15172 -1.98202,-1.40896 -4.93452,-1.19994 -7.99884,0.21327 -1.85419,0.86512 -3.52355,2.03351 -5.02334,3.35833 -1.83193,0.43494 -3.96553,0.65364 -5.94841,0.46907 1.43936,-4.11213 0.91502,-6.85695 -0.95421,-8.15172 -1.98203,-1.40895 -4.93402,-1.19983 -7.99834,0.21338 -11.61855,5.42098 -16.84389,21.93411 -8.60373,23.63429 7.32458,1.51126 13.67208,-7.22472 16.25328,-12.46489 1.46183,0.002 2.93646,-0.24436 4.33072,-0.62292 -5.50394,6.93619 -6.64118,15.9646 -0.65971,17.19875 7.32458,1.51127 13.67259,-7.22461 16.25379,-12.46479 1.50701,0.003 3.02891,-0.25691 4.46095,-0.65567 -1.66518,2.55642 -3.15023,4.78261 -4.07458,6.05357 -2.24561,3.17305 -4.89551,9.62627 0.11834,10.66077 2.39398,0.49395 5.31134,-1.24102 7.85789,-3.35074 -0.1196,2.59326 1.33408,5.14076 4.48093,5.89659 2.43253,0.54733 5.42935,0.12056 8.02447,-1.66219 3.1896,-0.47827 6.94084,-2.79553 10.08679,-6.14645 -0.18063,-0.44637 -0.64853,-1.04303 -1.26791,-1.12537 -1.79996,1.67409 -3.59718,2.89433 -5.39925,3.47706 3.08778,-5.27201 2.44555,-11.63168 0.7451,-17.70983 1.78611,-2.26785 6.34721,-7.19032 4.69112,-9.07748 -1.65609,-1.88716 -5.56058,-0.14732 -6.78399,5.78211 -0.17991,0.87197 -0.246,1.63084 -0.2411,2.26822 -3.14109,3.98829 -8.39021,10.04186 -11.75415,13.34781 -0.31404,0.24259 -0.58951,0.51299 -0.84733,0.79499 -0.97759,0.85424 -2.03941,1.67024 -3.00361,2.22852 -1.80482,1.03672 -3.01668,0.74128 -1.42919,-1.88574 4.47113,-7.35025 15.87291,-24.49805 17.78496,-27.3763 z m -44.07188,6.02494 c 0.69604,0.24304 1.00661,1.00989 0.85699,2.28583 -1.58893,-0.01 -2.98225,0.79383 -3.68811,2.01184 -0.78544,1.3834 -0.85138,3.68783 0.93061,4.9646 -2.96598,5.34261 -6.16217,8.27428 -7.94972,7.90545 -4.18548,-0.86358 1.10142,-14.59096 8.19685,-17.03608 0.67915,-0.23488 1.23576,-0.27747 1.65338,-0.13164 z m 19.9248,4.11105 c 0.69604,0.24304 1.00611,1.00978 0.85649,2.28573 -1.58893,-0.01 -2.98175,0.79393 -3.68761,2.01194 -0.78544,1.3834 -0.85189,3.68772 0.9301,4.96449 -2.96597,5.34261 -6.16166,8.27438 -7.94921,7.90556 -4.18547,-0.86358 1.10142,-14.59097 8.19686,-17.03609 0.67914,-0.23487 1.23575,-0.27746 1.65337,-0.13163 z m 24.58883,6.22786 c 0.77866,5.47886 -4.24893,15.30537 -8.07308,18.19818 -2.15775,1.64571 -3.84082,-0.11055 -2.87336,-1.27458 1.57854,0.28026 3.11922,-0.35653 3.5434,-2.63266 0.28926,-1.62214 -0.46288,-2.82283 -1.56807,-3.4145 2.62899,-3.04849 5.85078,-7.42932 8.97111,-10.87644 z"
     inkscape:label="Fill"
     sodipodi:insensitive="true"
     transform="rotate(-11.658132,-594.50491,-1978.5346)" />
</svg>
