<svg xmlns="http://www.w3.org/2000/svg" width="220" height="45" version="1.0"><path d="M160.391 17.903v-4.846h-17.287V37.99h17.287v-5.057h-10.288v-5.527h8.557v-4.84h-8.557v-4.663h10.288m30.484 15.167h-10.8V13.057h-7.085V37.99h17.885v-4.92m57.064-10.511c-4.781-1.077-6.455-1.202-6.455-3.104 0-1.765 2.369-2.314 3.732-2.314 2.204 0 4.807.514 7.46 1.874l1.929-4.588c-2.719-1.482-6.207-2.099-9.562-2.099-6.593 0-11.017 2.675-11.203 7.89-.188 4.756 3.679 6.535 7.233 7.269 3.426.708 6.902 1.314 6.972 3.349.063 1.877-1.625 2.681-4.81 2.681-2.95 0-5.693-.948-8.495-2.122l-1.638 4.987c3.222 1.37 6.492 2.125 9.863 2.125 4.684 0 8.102-.731 10.618-3.093 1.744-1.622 2.315-3.58 2.315-5.449.004-3.941-2.453-6.161-7.959-7.406m-114.886-4.58v-4.922h-21.744v4.922h7.346V37.99h7.043V17.979h7.355m81.994-4.922v15.841c0 1.241 0 1.584-.074 2.067-.228 1.51-1.69 2.386-4.024 2.417-1.728-.028-2.994-.539-3.583-1.442-.297-.464-.441-1.298-.441-2.63V13.057h-7.348V30.24c0 2.381.318 3.456 1.393 4.815 1.774 2.217 5.232 3.383 9.993 3.383h.261c6.375 0 9.668-2.486 10.619-4.812.475-1.128.51-1.662.51-3.938V13.057h-7.306M114.628 6.23l-41.207 8.204v2.874l.131-.034c27.222-6.617 41.075-10.597 41.187-10.625.154-.04.208-.16.187-.261-.023-.106-.134-.194-.298-.158" style="fill:#49266c" transform="translate(-15.927 -2.665) scale(.91092)"/><path d="M79.716 8.01v-.004.004m1.409-2.564c-2.003.114-5.712 3.081-7.748 4.843-8.107 7.014-14.135 13.461-18.518 20.213-9.137 4.894-20.788 9.927-32.354 13.855l-.279.094L20 50.445l1.271-.491c7.358-2.804 19.639-8.07 30.772-13.924-.627 1.672-.943 3.209-.943 4.61 0 1.045.175 2.017.524 2.9.7 1.764 2.08 3.1 3.993 3.859 2.849 1.137 6.736 1.158 11.171-.185 11.33-3.434 24.769-13.978 27.695-16.075l.112-.079c.115-.083.123-.208.075-.293-.064-.097-.199-.123-.31-.055h-.001.001l-.144.087c-3.14 1.885-18.398 10.944-28.316 13.604-5.052 1.355-8.902.615-10.354-1.416-.504-.694-.747-1.572-.747-2.596 0-1.999.941-4.544 2.753-7.373a124.653 124.653 0 0 0 4.63-2.759c9.676-5.438 20.824-16.011 21.3-22.465.002-.044.002-.095.002-.143 0-.557-.241-1.13-.664-1.553a2.14 2.14 0 0 0-1.695-.652zm-1.079 3.076c.635-.411.818-.154.631.31-.302.741-1.699 5.199-12.072 13.715-2.707 2.217-4.632 3.462-8.53 5.77 6.383-8.945 15.702-17.023 19.971-19.795z" style="fill:#6ebe44" transform="translate(-15.927 -2.665) scale(.91092)"/><path d="M73.286 14.461 29.932 23.78l-1.672 4.509 45.161-10.982 1.397-.789-.039-2.052-1.493-.005" style="fill:#49266c" transform="translate(-15.927 -2.665) scale(.91092)"/></svg>