<svg xmlns="http://www.w3.org/2000/svg" xml:space="preserve" width="168.409" height="51.094" version="1.0" viewBox="-119 -106.5 360 250"><path d="M-347.328-102.936h290.513v243.221h-290.513z" style="fill:#fff"/><path d="M68.18 9.196h11.58c8.054 0 16.087 1.763 16.087 11.41 0 8.669-8.526 11.574-16.404 11.574H68.18V9.196zm-40.543 46.15h65.15c23.328 0 46.17-2.911 46.17-31.206 0-11.242-9.647-23.444-25.254-25.538v-.331c14.952-3.851 23.16-12.066 23.16-27.477 0-21.383-19.133-27.633-38.59-27.633H27.636V55.347zM68.18-35.617h11.722c7.723 0 14.81 2.56 14.81 10.932 0 8.492-8.209 10.742-15.769 10.742h-10.77v-21.674h.007zM204.438 21.08c0 7.235-4.202 14.958-12.553 14.958-6.29 0-9.492-2.264-9.492-8.04 0-8.661 9.654-9.479 18.012-9.479h4.04v2.56h-.007zm-49.4-23.14c8.053-4.007 18.329-7.06 27.99-7.06 10.154 0 21.248 1.283 21.41 12.06-3.702-.338-10.134-1.136-15.782-1.136-20.12 0-43.266 5.155-43.266 30.862 0 17.526 15.133 24.606 30.713 24.606 11.438 0 21.755-4.506 27.362-13.998h.331v12.08h37.625V4.391c0-30.544-28.146-34.727-51.313-34.727-15.748 0-23.004 1.446-35.064 4.818V-2.06h-.007zm97.808-26.335h38.307v14.45h.324c4.817-11.728 15.91-16.39 27.35-16.39 21.538 0 29.415 11.256 29.415 27.47V55.34h-40.53V7.108c0-4.824 0-11.411-7.067-11.411-7.256 0-7.256 6.587-7.256 11.41V55.34h-40.536v-83.735h-.007z" style="fill:#003f2d"/><path d="M111.523 16.453h.053l3.427-4.922h6.782l-4.189 5.47 4.359 6.927h-6.999l-3.38-6.02h-.053v6.02h-5.998V6.084h5.998v10.369z" style="fill:#003f2d" transform="translate(-351.01 -106.314) scale(6.75613)"/><path d="M-351.01 143.663h297.27v-249.977h-297.27v249.977zm195.137-54.076h-69.25v-117.32h34.787v96.565h33.443c23.092 0 32.8-15.093 32.8-53.792 0-38.997-11.045-50.32-34.462-50.32h-76.27V89.587h-34.463V-35.28h-50.516v-20.775h171.944c41.49 0 61.224 20.126 61.224 70.784 0 66.676-29.443 74.858-69.237 74.858" style="fill:#54b848"/></svg>