<svg xmlns="http://www.w3.org/2000/svg" aria-label="Email" class="icon mail" viewBox="0 0 100 100"><path fill="#28a745" d="M50 1C22.938 1 1 22.938 1 50s21.938 49 49 49 49-21.938 49-49S77.062 1 50 1zM25.5 25.5h49c.874 0 1.723.188 2.502.542L50 57.544 22.998 26.041A6.02 6.02 0 0 1 25.5 25.5zm-6.125 42.875v-36.75c0-.128.005-.256.014-.383l17.96 20.953-17.762 17.763a6.067 6.067 0 0 1-.212-1.583zM74.5 74.5h-49a6.025 6.025 0 0 1-1.583-.212l17.429-17.429L50 66.956l8.653-10.096 17.429 17.429a6.053 6.053 0 0 1-1.582.211zm6.125-6.125c0 .541-.073 1.072-.211 1.583L62.652 52.195l17.96-20.953c.008.127.014.255.014.383l-.001 36.75z"/></svg>