<svg xmlns="http://www.w3.org/2000/svg" xmlns:xlink="http://www.w3.org/1999/xlink" version="1.1" x="0px" y="0px" width="100px" height="100px" viewBox="0 0 100 100" enable-background="new 0 0 100 100" xml:space="preserve">
<g>
	<path fill-rule="evenodd" clip-rule="evenodd" fill="none" d="M89.977,40.991c0-0.892,0.003-1.783,0-2.674   c-0.002-0.761-0.004-0.785-0.782-0.776c-0.456,0.006-0.666-0.131-0.708-0.617c-0.188-2.168-0.611-4.292-1.227-6.381   c-3.019-10.253-9.087-18.191-18.229-23.699c-8.221-4.954-17.2-7.043-26.777-6.667c-4.367,0.171-8.637,0.881-12.777,2.27   C18.027,6.284,9.613,13.512,4.853,24.737c-2.367,5.58-3.199,11.468-3.418,17.485C1.239,47.644,1.868,53.02,2.143,58.417   c0.028,0.555,0.103,1.107,0.057,1.663c-0.104,1.223-0.282,2.436-0.583,3.623c-0.198,0.78,0.075,1.341,0.651,1.812   c0.62,0.506,1.362,0.741,2.125,0.924c1.291,0.307,2.611,0.386,3.924,0.38c1.825-0.007,3.67,0.114,5.456-0.439   c0.119-0.037,0.257-0.028,0.385-0.015c0.922,0.096,1.85,0.16,2.764,0.303c3.665,0.572,6.995,1.924,9.891,4.285   c1.726,1.408,3.12,3.116,4.511,4.835c1.401,1.732,2.843,3.443,4.684,4.737c5.424,3.816,11.431,5.001,17.893,3.697   c4.233-0.853,7.74-2.952,10.18-6.625c0.543-0.819,0.543-0.82-0.289-1.269c-4.49-2.431-8.979-4.86-13.468-7.293   c-0.33-0.179-0.663-0.301-1.046-0.34c-0.965-0.101-1.635-0.894-1.649-1.861c-0.01-0.662,0.335-1.118,0.813-1.508   c1.409-1.151,2.822-2.298,4.226-3.455c0.18-0.148,0.524-0.303,0.241-0.61c-0.322-0.35-0.122-0.543,0.14-0.767   c1.411-1.208,2.823-2.413,4.224-3.632c0.287-0.252,0.495-0.274,0.712,0.058c0.237,0.366,0.481,0.287,0.773,0.039   c0.779-0.659,1.59-1.283,2.365-1.946c0.983-0.841,2.115-1.516,2.896-2.586c0.123-0.169,0.339-0.303,0.541-0.376   c0.448-0.164,0.804-0.452,1.166-0.744c2.803-2.257,5.574-4.557,8.584-6.545c0.278-0.185,0.564-0.345,0.906-0.404   c1.684-0.292,3.377-0.535,5.085-0.515c2.987,0.036,5.968,0.233,8.942,0.52c0.7,0.068,0.731,0.053,0.733-0.642   C89.979,42.81,89.977,41.9,89.977,40.991z M95.914,78.163c0.007,1.58-0.146,3.148-0.296,4.719   c-0.038,0.391-0.195,0.503-0.575,0.445c-0.531-0.081-1.071-0.095-1.604-0.171c-4.267-0.608-8.481-1.471-12.627-2.649   c-2.518-0.716-5.044-1.418-7.373-2.654c-2.721-1.445-5.429-2.918-8.139-4.383c-4.033-2.183-8.065-4.365-12.09-6.562   c-0.388-0.212-0.673-0.195-0.996,0.097c-0.358,0.321-0.753,0.604-1.131,0.904c-0.601,0.479-0.599,0.494,0.091,0.871   c5.066,2.769,10.127,5.545,15.2,8.301c2.332,1.266,4.604,2.654,7.058,3.681c4.487,1.877,9.152,3.149,13.924,4.058   c2.352,0.447,4.712,0.832,7.085,1.142c0.837,0.108,0.895,0.203,0.766,1.037c-0.062,0.404-0.118,0.808-0.183,1.211   c-0.44,2.788-0.954,5.557-1.831,8.25c-0.185,0.565-0.477,0.714-1.018,0.644c-0.957-0.125-1.919-0.2-2.857-0.438   c-4.771-1.21-8.19-3.963-9.894-8.672c-0.471-1.302-0.66-2.665-0.803-4.029c-0.063-0.603-0.276-0.945-0.886-1.069   c-0.471-0.097-0.933-0.257-1.38-0.436c-0.417-0.166-0.523-0.039-0.501,0.372c0.088,1.597,0.264,3.179,0.684,4.728   c2.194,8.091,8.959,12.541,16.896,12.299c1.24-0.038,1.823-0.517,2.147-1.717c1.978-7.303,3.285-14.694,2.976-22.304   c-0.057-1.381-0.619-2.027-1.986-2.227c-0.808-0.117-1.612-0.25-2.414-0.403c-5.46-1.049-10.806-2.514-16.038-4.387   c-1.515-0.542-2.932-1.258-4.126-2.365c-2.097-1.945-3.695-4.248-4.958-6.803c-1.014-2.053-1.788-4.197-2.484-6.374   c-0.247-0.771-0.889-1.109-1.652-0.9c-0.699,0.192-1.015,0.765-0.854,1.569c0.037,0.182,0.089,0.36,0.143,0.538   c0.922,3.051,2.163,5.964,3.781,8.712c2.383,4.046,5.614,7,10.189,8.486c5.622,1.825,11.312,3.352,17.121,4.425   c0.493,0.092,0.665,0.304,0.641,0.775C95.896,77.308,95.914,77.735,95.914,78.163z M64.382,65.358   c0.015,2.068-1.99,3.775-3.841,3.501c-1.031-0.151-1.748-0.76-2.391-1.503c-0.764-0.885-1.527-1.77-2.274-2.667   c-0.242-0.29-0.445-0.328-0.738-0.075c-0.504,0.438-1.022,0.861-1.552,1.268c-0.366,0.281-0.392,0.453,0.055,0.695   c3.95,2.131,7.895,4.275,11.835,6.426c0.358,0.195,0.532,0.134,0.624-0.266c0.173-0.761,0.31-1.527,0.367-2.305   c0.168-2.291,0.248-4.59,0.67-6.854c0.075-0.407-0.001-0.76-0.201-1.116c-0.863-1.539-1.598-3.141-2.19-4.804   c-0.18-0.504-0.384-0.477-0.744-0.177c-0.913,0.76-1.832,1.513-2.777,2.229c-0.424,0.321-0.396,0.555-0.066,0.923   c0.826,0.928,1.626,1.879,2.421,2.836C64.078,64.07,64.357,64.768,64.382,65.358z M77.814,67.577   c-0.187-3.688-0.366-7.096-0.528-10.504c-0.132-2.742-0.221-5.486-0.371-8.226c-0.055-1.016-0.018-2.042-0.208-3.049   c-0.099-0.522-0.402-0.879-0.928-0.993c-0.518-0.113-0.955,0.073-1.297,0.46c-0.341,0.386-0.413,0.859-0.389,1.355   c0.116,2.445,0.232,4.89,0.353,7.335c0.174,3.575,0.348,7.15,0.528,10.726c0.113,2.26-0.204,1.917,2.131,3.109   C77.726,68.108,77.829,68.01,77.814,67.577z M81.914,47.434c-1.559,0.008-2.82,0.002-4.06,0.294   c-0.303,0.071-0.454,0.201-0.438,0.523c0.028,0.593,0.046,1.186,0.061,1.78c0.011,0.448,0.176,0.603,0.656,0.499   c2.056-0.441,4.141-0.61,6.242-0.58c0.238,0.004,0.482-0.043,0.714-0.103c0.429-0.111,0.824-0.072,1.241,0.095   c1.09,0.437,2.147,0.304,3.149-0.283c0.217-0.127,0.421-0.191,0.677-0.183c2.242,0.077,3.666-1.537,3.334-3.755   c-0.107-0.714-0.188-1.433-0.295-2.148c-0.27-1.778-0.563-3.551-0.812-5.332c-0.079-0.564-0.337-0.78-0.88-0.71   c-0.091,0.011-0.185,0-0.277,0.001c-0.797,0.007-0.837,0.041-0.838,0.861c-0.005,1.745,0.007,3.489-0.008,5.233   c-0.005,0.51,0.059,0.847,0.682,0.984c0.786,0.173,1.17,0.817,1.271,1.59c0.095,0.745-0.272,1.316-0.999,1.704   c-0.6,0.319-1.241,0.247-1.853,0.143C86.876,47.604,84.248,47.512,81.914,47.434z M63.881,65.478   c-0.026-0.617-0.244-1.2-0.666-1.696c-1.749-2.066-3.506-4.129-5.254-6.198c-0.223-0.265-0.404-0.315-0.688-0.073   c-1.228,1.047-2.465,2.083-3.705,3.115c-0.245,0.204-0.307,0.38-0.072,0.644c1.841,2.086,3.658,4.192,5.519,6.262   c0.798,0.887,1.849,1.08,2.893,0.658C63.027,67.737,63.867,66.597,63.881,65.478z M80.566,44.32   c-1.116-0.023-2.224,0.08-3.327,0.224c-0.178,0.022-0.515,0.018-0.338,0.331c0.325,0.576,0.346,1.206,0.418,1.828   c0.049,0.405,0.249,0.454,0.615,0.384c1.893-0.364,3.806-0.298,5.713-0.203c2.278,0.112,4.547,0.336,6.804,0.692   c0.789,0.125,1.393-0.428,1.415-1.202c0.025-0.807-0.405-1.248-1.426-1.368C87.16,44.62,83.867,44.422,80.566,44.32z    M73.711,48.298c-0.047-0.612-0.075-1.036-0.112-1.46c-0.021-0.234,0.097-0.549-0.115-0.68c-0.253-0.157-0.463,0.14-0.685,0.251   c-0.115,0.057-0.219,0.139-0.321,0.219c-1.449,1.122-2.9,2.242-4.346,3.37c-0.627,0.491-1.243,0.995-1.86,1.499   c-0.173,0.142-0.404,0.321-0.074,0.508c0.623,0.353,0.849,0.938,1.032,1.575c0.167,0.582,0.218,0.586,0.678,0.202   c1.716-1.442,3.414-2.905,5.154-4.315C73.528,49.088,73.815,48.72,73.711,48.298z M49.418,68.209   c0.354,0.013,0.602-0.077,0.806-0.242c1.541-1.249,3.075-2.506,4.616-3.756c0.22-0.179,0.235-0.346,0.047-0.559   c-0.407-0.457-0.807-0.92-1.203-1.386c-0.192-0.229-0.381-0.249-0.615-0.056c-1.5,1.241-3.012,2.467-4.502,3.719   c-0.437,0.367-0.563,0.865-0.327,1.411C48.477,67.888,48.932,68.135,49.418,68.209z M75.404,72.964c0.046,0,0.091,0,0.138,0   c0,1.239-0.032,2.479,0.007,3.718c0.06,1.884-0.115,1.472,1.538,2.126c0.206,0.082,0.421,0.143,0.628,0.223   c0.408,0.16,0.585,0.035,0.563-0.411c-0.063-1.22-0.111-2.44-0.168-3.66c-0.035-0.739-0.068-1.479-0.118-2.217   c-0.016-0.257-0.058-0.508-0.359-0.628c-0.619-0.246-1.23-0.512-1.843-0.777c-0.316-0.137-0.394,0.002-0.388,0.295   C75.411,72.075,75.404,72.52,75.404,72.964z M73.872,51.465c-0.016-0.326-0.033-0.789-0.061-1.25   c-0.008-0.143,0.036-0.321-0.126-0.399c-0.163-0.078-0.276,0.065-0.388,0.155c-1.787,1.45-3.57,2.906-5.361,4.352   c-0.268,0.217-0.351,0.439-0.219,0.771c0.268,0.672,0.499,1.358,0.76,2.034c0.068,0.177,0.075,0.465,0.321,0.461   c0.19-0.001,0.239-0.259,0.323-0.419c1.049-1.996,2.468-3.653,4.415-4.826C73.831,52.166,73.946,51.932,73.872,51.465z    M64.188,56.446c-0.234-0.79-0.447-1.576-0.705-2.347c-0.099-0.291-0.311-0.097-0.442,0.008c-1.344,1.078-2.681,2.164-4.022,3.242   c-0.235,0.189-0.271,0.364-0.058,0.6c0.422,0.468,0.834,0.944,1.238,1.427c0.223,0.267,0.418,0.219,0.656,0.021   c1.021-0.856,2.053-1.701,3.076-2.555C64.057,56.736,64.197,56.632,64.188,56.446z"/>
	<path fill-rule="evenodd" clip-rule="evenodd" d="M89.977,40.991c0,0.909,0.003,1.819,0,2.729c-0.002,0.695-0.033,0.71-0.733,0.642   c-2.975-0.286-5.955-0.483-8.942-0.52c-1.708-0.02-3.401,0.223-5.085,0.515c-0.342,0.059-0.628,0.22-0.906,0.404   c-3.01,1.988-5.781,4.288-8.584,6.545c-0.362,0.292-0.718,0.58-1.166,0.744c-0.202,0.073-0.418,0.207-0.541,0.376   c-0.781,1.07-1.913,1.745-2.896,2.586c-0.775,0.663-1.586,1.287-2.365,1.946c-0.292,0.248-0.536,0.327-0.773-0.039   c-0.217-0.332-0.425-0.31-0.712-0.058c-1.4,1.219-2.813,2.424-4.224,3.632c-0.262,0.224-0.462,0.417-0.14,0.767   c0.283,0.308-0.062,0.462-0.241,0.61c-1.404,1.157-2.817,2.304-4.226,3.455c-0.478,0.39-0.823,0.846-0.813,1.508   c0.014,0.968,0.684,1.761,1.649,1.861c0.383,0.039,0.716,0.161,1.046,0.34c4.489,2.433,8.978,4.862,13.468,7.293   c0.832,0.448,0.832,0.449,0.289,1.269c-2.439,3.673-5.946,5.772-10.18,6.625c-6.462,1.304-12.469,0.119-17.893-3.697   c-1.84-1.294-3.283-3.005-4.684-4.737c-1.391-1.719-2.785-3.427-4.511-4.835c-2.896-2.361-6.226-3.713-9.891-4.285   c-0.915-0.143-1.842-0.207-2.764-0.303c-0.127-0.014-0.266-0.022-0.385,0.015c-1.786,0.554-3.63,0.433-5.456,0.439   c-1.313,0.006-2.633-0.073-3.924-0.38c-0.764-0.183-1.505-0.418-2.125-0.924c-0.576-0.471-0.849-1.031-0.651-1.812   c0.301-1.188,0.479-2.4,0.583-3.623c0.046-0.556-0.028-1.108-0.057-1.663C1.868,53.02,1.239,47.644,1.435,42.223   c0.219-6.017,1.051-11.906,3.418-17.485C9.613,13.512,18.027,6.284,29.477,2.446c4.14-1.388,8.411-2.099,12.777-2.27   c9.577-0.375,18.556,1.714,26.777,6.667c9.142,5.508,15.21,13.446,18.229,23.699c0.615,2.089,1.039,4.213,1.227,6.381   c0.042,0.485,0.252,0.623,0.708,0.617c0.778-0.009,0.78,0.015,0.782,0.776C89.979,39.208,89.977,40.099,89.977,40.991z    M44.329,54.073c-2.811-0.005-5.103,2.271-5.12,5.082c-0.017,2.792,2.286,5.101,5.1,5.097c2.636-0.003,5.095-1.956,5.105-5.077   C49.425,56.113,47.017,54.101,44.329,54.073z M9.335,65.954c0.795-0.022,1.963-0.001,3.126-0.139   c0.224-0.025,0.488-0.012,0.524-0.297c0.053-0.418,0.105-0.84-0.204-1.218c-1.817-2.225-3.625-4.459-5.433-6.689   c-0.146-0.18-0.307-0.325-0.553-0.325c-1.168-0.002-2.335-0.005-3.503-0.003c-0.335,0.001-0.45,0.176-0.407,0.506   c0.229,1.75,0.027,3.471-0.359,5.182c-0.359,1.589-0.091,2.027,1.477,2.513c0.141,0.043,0.285,0.079,0.43,0.113   C5.926,65.941,7.444,65.973,9.335,65.954z"/>
	<path fill-rule="evenodd" clip-rule="evenodd" d="M95.914,78.163c0-0.428-0.019-0.855,0.005-1.28   c0.024-0.472-0.147-0.684-0.641-0.775c-5.81-1.073-11.499-2.6-17.121-4.425c-4.575-1.486-7.807-4.44-10.189-8.486   c-1.618-2.748-2.859-5.661-3.781-8.712c-0.054-0.178-0.105-0.356-0.143-0.538c-0.16-0.805,0.155-1.377,0.854-1.569   c0.764-0.209,1.405,0.129,1.652,0.9c0.696,2.177,1.471,4.321,2.484,6.374c1.263,2.555,2.861,4.857,4.958,6.803   c1.194,1.107,2.611,1.823,4.126,2.365c5.232,1.873,10.578,3.338,16.038,4.387c0.802,0.153,1.606,0.286,2.414,0.403   c1.367,0.199,1.93,0.846,1.986,2.227c0.31,7.609-0.998,15.001-2.976,22.304c-0.324,1.2-0.907,1.679-2.147,1.717   c-7.937,0.242-14.701-4.208-16.896-12.299c-0.42-1.549-0.596-3.131-0.684-4.728c-0.022-0.411,0.084-0.538,0.501-0.372   c0.447,0.179,0.909,0.339,1.38,0.436c0.609,0.124,0.822,0.467,0.886,1.069c0.143,1.364,0.332,2.728,0.803,4.029   c1.703,4.709,5.122,7.462,9.894,8.672c0.938,0.238,1.9,0.313,2.857,0.438c0.541,0.07,0.833-0.078,1.018-0.644   c0.877-2.693,1.391-5.462,1.831-8.25c0.064-0.403,0.121-0.807,0.183-1.211c0.129-0.834,0.071-0.929-0.766-1.037   c-2.373-0.31-4.733-0.694-7.085-1.142c-4.771-0.908-9.437-2.181-13.924-4.058c-2.454-1.026-4.726-2.415-7.058-3.681   c-5.073-2.756-10.134-5.532-15.2-8.301c-0.69-0.377-0.692-0.392-0.091-0.871c0.378-0.301,0.772-0.583,1.131-0.904   c0.323-0.292,0.608-0.309,0.996-0.097c4.024,2.196,8.057,4.379,12.09,6.562c2.71,1.465,5.418,2.938,8.139,4.383   c2.329,1.236,4.855,1.938,7.373,2.654c4.146,1.179,8.36,2.041,12.627,2.649c0.532,0.076,1.072,0.09,1.604,0.171   c0.38,0.058,0.537-0.055,0.575-0.445C95.769,81.312,95.921,79.743,95.914,78.163z"/>
	<path fill-rule="evenodd" clip-rule="evenodd" d="M64.382,65.358c-0.024-0.591-0.304-1.288-0.804-1.889   c-0.795-0.957-1.595-1.908-2.421-2.836c-0.329-0.368-0.357-0.602,0.066-0.923c0.945-0.717,1.864-1.47,2.777-2.229   c0.36-0.3,0.564-0.327,0.744,0.177c0.593,1.663,1.327,3.265,2.19,4.804c0.2,0.356,0.276,0.709,0.201,1.116   c-0.422,2.265-0.502,4.563-0.67,6.854c-0.058,0.777-0.194,1.544-0.367,2.305c-0.092,0.399-0.266,0.461-0.624,0.266   c-3.94-2.15-7.885-4.295-11.835-6.426c-0.446-0.242-0.421-0.414-0.055-0.695c0.529-0.406,1.048-0.83,1.552-1.268   c0.293-0.253,0.496-0.215,0.738,0.075c0.747,0.897,1.511,1.782,2.274,2.667c0.643,0.743,1.359,1.352,2.391,1.503   C62.392,69.134,64.396,67.427,64.382,65.358z"/>
	<path fill-rule="evenodd" clip-rule="evenodd" d="M77.814,67.577c0.015,0.433-0.089,0.531-0.709,0.214   c-2.335-1.192-2.018-0.85-2.131-3.109c-0.181-3.575-0.354-7.15-0.528-10.726c-0.12-2.445-0.236-4.89-0.353-7.335   c-0.024-0.496,0.048-0.969,0.389-1.355c0.342-0.388,0.779-0.574,1.297-0.46c0.525,0.114,0.829,0.471,0.928,0.993   c0.19,1.007,0.153,2.033,0.208,3.049c0.15,2.74,0.239,5.484,0.371,8.226C77.448,60.481,77.628,63.889,77.814,67.577z"/>
	<path fill-rule="evenodd" clip-rule="evenodd" d="M81.914,47.434c2.334,0.078,4.962,0.17,7.567,0.613   c0.611,0.104,1.253,0.176,1.853-0.143c0.727-0.387,1.094-0.958,0.999-1.704c-0.101-0.773-0.484-1.417-1.271-1.59   c-0.623-0.137-0.687-0.474-0.682-0.984c0.015-1.744,0.003-3.488,0.008-5.233c0.001-0.82,0.041-0.854,0.838-0.861   c0.093,0,0.187,0.01,0.277-0.001c0.543-0.07,0.801,0.146,0.88,0.71c0.248,1.781,0.542,3.554,0.812,5.332   c0.107,0.715,0.188,1.434,0.295,2.148c0.332,2.218-1.092,3.832-3.334,3.755c-0.256-0.009-0.46,0.056-0.677,0.183   c-1.002,0.587-2.06,0.72-3.149,0.283c-0.417-0.167-0.813-0.206-1.241-0.095c-0.231,0.06-0.476,0.106-0.714,0.103   c-2.102-0.03-4.187,0.139-6.242,0.58c-0.48,0.104-0.646-0.05-0.656-0.499c-0.015-0.594-0.032-1.187-0.061-1.78   c-0.016-0.322,0.136-0.452,0.438-0.523C79.094,47.436,80.355,47.441,81.914,47.434z"/>
	<path fill-rule="evenodd" clip-rule="evenodd" d="M63.881,65.478c-0.014,1.119-0.854,2.26-1.974,2.711   c-1.044,0.422-2.095,0.229-2.893-0.658c-1.86-2.069-3.678-4.176-5.519-6.262c-0.234-0.264-0.173-0.439,0.072-0.644   c1.24-1.032,2.478-2.068,3.705-3.115c0.283-0.242,0.465-0.191,0.688,0.073c1.748,2.069,3.505,4.132,5.254,6.198   C63.637,64.277,63.854,64.86,63.881,65.478z M62.718,65.549c-0.006-0.765-0.423-1.415-1.127-1.613   c-0.402-0.113-0.615-0.283-0.733-0.7c-0.17-0.6-0.877-1.036-1.459-1.003c-0.649,0.038-1.248,0.516-1.387,1.104   c-0.165,0.7,0.101,1.445,0.701,1.722c0.363,0.168,0.508,0.365,0.572,0.762c0.155,0.971,0.954,1.535,1.924,1.442   C62.041,67.184,62.725,66.407,62.718,65.549z"/>
	<path fill-rule="evenodd" clip-rule="evenodd" d="M80.566,44.32c3.301,0.102,6.594,0.3,9.874,0.686   c1.021,0.12,1.451,0.561,1.426,1.368c-0.022,0.774-0.626,1.327-1.415,1.202c-2.257-0.356-4.525-0.58-6.804-0.692   c-1.907-0.095-3.82-0.161-5.713,0.203c-0.366,0.07-0.566,0.021-0.615-0.384c-0.072-0.622-0.093-1.251-0.418-1.828   c-0.177-0.313,0.16-0.309,0.338-0.331C78.343,44.4,79.45,44.296,80.566,44.32z"/>
	<path fill-rule="evenodd" clip-rule="evenodd" d="M73.711,48.298c0.104,0.422-0.183,0.79-0.649,1.167   c-1.74,1.41-3.438,2.873-5.154,4.315c-0.46,0.384-0.511,0.38-0.678-0.202c-0.184-0.638-0.409-1.223-1.032-1.575   c-0.33-0.187-0.099-0.366,0.074-0.508c0.617-0.504,1.233-1.007,1.86-1.499c1.445-1.127,2.896-2.248,4.346-3.37   c0.103-0.08,0.206-0.162,0.321-0.219c0.222-0.112,0.432-0.408,0.685-0.251c0.212,0.131,0.095,0.446,0.115,0.68   C73.636,47.262,73.664,47.687,73.711,48.298z"/>
	<path fill-rule="evenodd" clip-rule="evenodd" d="M49.418,68.209c-0.487-0.074-0.942-0.321-1.179-0.868   c-0.236-0.546-0.11-1.044,0.327-1.411c1.49-1.252,3.002-2.478,4.502-3.719c0.234-0.193,0.423-0.174,0.615,0.056   c0.396,0.466,0.796,0.929,1.203,1.386c0.188,0.213,0.173,0.38-0.047,0.559c-1.541,1.25-3.075,2.507-4.616,3.756   C50.02,68.132,49.772,68.222,49.418,68.209z"/>
	<path fill-rule="evenodd" clip-rule="evenodd" d="M75.404,72.964c0-0.444,0.007-0.889-0.003-1.332   c-0.006-0.293,0.071-0.432,0.388-0.295c0.612,0.266,1.224,0.531,1.843,0.777c0.302,0.12,0.344,0.371,0.359,0.628   c0.05,0.738,0.083,1.478,0.118,2.217c0.057,1.22,0.105,2.44,0.168,3.66c0.022,0.446-0.154,0.571-0.563,0.411   c-0.207-0.08-0.422-0.141-0.628-0.223c-1.653-0.654-1.479-0.242-1.538-2.126c-0.039-1.238-0.007-2.479-0.007-3.718   C75.495,72.964,75.45,72.964,75.404,72.964z"/>
	<path fill-rule="evenodd" clip-rule="evenodd" d="M73.872,51.465c0.074,0.467-0.041,0.701-0.335,0.879   c-1.947,1.173-3.366,2.83-4.415,4.826c-0.084,0.16-0.133,0.418-0.323,0.419c-0.246,0.004-0.253-0.284-0.321-0.461   c-0.261-0.676-0.492-1.362-0.76-2.034c-0.132-0.332-0.049-0.555,0.219-0.771c1.791-1.446,3.574-2.902,5.361-4.352   c0.111-0.09,0.225-0.233,0.388-0.155c0.162,0.078,0.118,0.257,0.126,0.399C73.839,50.676,73.856,51.139,73.872,51.465z"/>
	<path fill-rule="evenodd" clip-rule="evenodd" d="M64.188,56.446c0.01,0.186-0.131,0.29-0.257,0.396   c-1.023,0.854-2.055,1.698-3.076,2.555c-0.238,0.198-0.434,0.246-0.656-0.021c-0.404-0.482-0.816-0.959-1.238-1.427   c-0.214-0.235-0.178-0.41,0.058-0.6c1.342-1.078,2.679-2.164,4.022-3.242c0.132-0.104,0.344-0.299,0.442-0.008   C63.74,54.87,63.953,55.656,64.188,56.446z"/>
	<path fill-rule="evenodd" clip-rule="evenodd" fill="none" d="M44.329,54.073c2.688,0.027,5.096,2.04,5.085,5.102   c-0.01,3.121-2.469,5.074-5.105,5.077c-2.814,0.004-5.117-2.305-5.1-5.097C39.226,56.344,41.519,54.068,44.329,54.073z"/>
	<path fill-rule="evenodd" clip-rule="evenodd" fill="none" d="M9.335,65.954c-1.892,0.019-3.41-0.013-4.901-0.357   c-0.145-0.034-0.289-0.07-0.43-0.113c-1.568-0.485-1.836-0.924-1.477-2.513c0.386-1.711,0.587-3.432,0.359-5.182   c-0.043-0.33,0.071-0.505,0.407-0.506c1.168-0.002,2.335,0.001,3.503,0.003c0.247,0,0.408,0.146,0.553,0.325   c1.809,2.23,3.616,4.465,5.433,6.689c0.309,0.378,0.256,0.8,0.204,1.218c-0.037,0.285-0.3,0.271-0.524,0.297   C11.299,65.953,10.131,65.932,9.335,65.954z"/>
</g>
</svg>