<?xml version="1.0" encoding="UTF-8" standalone="no"?>
<svg
   width="196.36314mm"
   height="196.91808mm"
   viewBox="0 0 196.36314 196.91807"
   version="1.1"
   id="svg5"
   inkscape:version="1.2 (dc2aedaf03, 2022-05-15)"
   sodipodi:docname="boot.wordmark.svg"
   inkscape:export-filename="boot.wordmark.png"
   inkscape:export-xdpi="96"
   inkscape:export-ydpi="96"
   xmlns:inkscape="http://www.inkscape.org/namespaces/inkscape"
   xmlns:sodipodi="http://sodipodi.sourceforge.net/DTD/sodipodi-0.dtd"
   xmlns="http://www.w3.org/2000/svg"
   xmlns:svg="http://www.w3.org/2000/svg">
  <sodipodi:namedview
     id="namedview7"
     pagecolor="#ffffff"
     bordercolor="#666666"
     borderopacity="1.0"
     inkscape:pageshadow="2"
     inkscape:pageopacity="0.0"
     inkscape:pagecheckerboard="0"
     inkscape:document-units="mm"
     showgrid="false"
     inkscape:zoom="0.45291836"
     inkscape:cx="-90.524041"
     inkscape:cy="633.66828"
     inkscape:window-width="1920"
     inkscape:window-height="1017"
     inkscape:window-x="1912"
     inkscape:window-y="86"
     inkscape:window-maximized="1"
     inkscape:current-layer="layer1"
     fit-margin-top="0"
     fit-margin-left="0"
     fit-margin-right="0"
     fit-margin-bottom="0"
     inkscape:showpageshadow="2"
     inkscape:deskcolor="#d1d1d1"
     showguides="true" />
  <defs
     id="defs2" />
  <g
     inkscape:label="If we dont'"
     inkscape:groupmode="layer"
     id="layer1"
     style="display:inline;opacity:1"
     transform="translate(-21.969364,-53.837851)">
    <g
       id="g307"
       transform="matrix(0.7656313,0,0,0.7656313,54.403856,50.494992)">
      <path
         style="fill:#3a1304;fill-opacity:1;stroke-width:0.230006"
         d="m 111.263,46.616399 c -0.60208,-0.732315 -2.1306,-2.379408 -3.39669,-3.660208 C 101.23778,36.250627 92.877788,30.226341 84.11746,25.842539 81.058523,24.3118 74.279648,21.488847 73.868299,21.574454 c -0.135535,0.02825 -0.861133,2.316464 -1.61243,5.085018 -1.699738,6.263613 -3.246745,11.11566 -3.438341,10.784066 -0.360909,-0.624611 -0.138024,-11.765452 0.394189,-19.70363 0.157086,-2.34295 0.244953,-4.286737 0.195256,-4.319523 -0.317674,-0.209589 -4.759178,-1.114406 -6.823966,-1.390171 -3.867506,-0.516531 -10.569733,-0.326909 -17.241947,0.487811 -0.944855,0.115373 -2.103174,0.232064 -2.574043,0.259315 -0.856125,0.04955 -0.856125,0.04955 -1.226847,3.606928 -0.73406,7.043864 -2.136997,16.243168 -3.055103,20.03285 -0.369441,1.524948 -0.369441,1.524948 -0.662191,-0.528145 -0.454402,-3.186759 -1.02764,-8.848596 -1.256926,-12.414547 -0.316118,-4.916429 0.17738,-4.485388 -3.949531,-3.449699 -13.862138,3.478841 -28.3581544,9.72838 -46.223901,19.928109 -2.799339,1.59817 -5.018484,2.805395 -4.931433,2.682727 0.434778,-0.612675 4.967479,-4.409085 8.5810203,-7.187122 C 2.5289772,25.848713 15.979148,18.709774 29.250097,14.638042 c 1.908144,-0.585448 4.206338,-1.215527 5.107098,-1.400176 1.637741,-0.335723 1.637741,-0.335723 1.62825,-1.683817 -0.02365,-3.3598969 0.36969,-3.9986603 2.946551,-4.7849713 4.062323,-1.2395909 14.307133,-2.5242551 19.089483,-2.3937564 5.322653,0.1452409 12.032716,1.8690474 16.263219,4.1780005 1.432703,0.7819525 1.734379,2.1722272 1.098384,5.0621292 -0.265671,1.207287 -0.455188,2.20756 -0.421157,2.22283 0.03399,0.01526 0.945453,0.387894 2.025364,0.82806 11.987967,4.886158 24.714431,14.988456 32.011661,25.410992 1.57501,2.249562 3.42654,5.359123 3.38364,5.682663 -0.0136,0.103341 -0.51754,-0.41127 -1.11963,-1.143588 z"
         id="path14631" />
      <path
         id="path14589"
         style="fill:#3a1304;fill-opacity:1;stroke-width:0.230006"
         d="m 116.41363,160.59536 c -1.12344,-0.10121 -3.75936,0.46168 -5.19128,1.10838 -12.525372,5.65697 -25.36459,9.87409 -37.361606,12.27187 -7.434994,1.486 -20.953567,3.56669 -26.988346,4.15406 -3.573395,0.3478 -4.626026,0.76709 -6.596436,2.62726 -2.548977,2.40637 -12.098999,9.8951 -13.097063,10.27026 -1.559861,0.58634 -3.288572,0.37609 -7.440143,-0.90557 -8.002899,-2.47064 -18.2183189,-5.09393 -23.6288546,-6.0677 -0.9374211,-0.16872 -2.6713057,-0.53275 -3.8530788,-0.80892 -6.4867286,-1.51601 -10.5991036,-1.45936 -14.9749536,0.20644 -1.226338,0.46684 -1.681604,0.79852 -2.512952,1.82954 -1.229825,1.52519 -1.485587,2.25702 -1.252864,3.58892 0.367297,2.1021 1.186465,3.27075 3.060792,4.36716 1.783825,1.04345 4.317854,1.21118 8.494063,0.56208 4.260013,-0.66213 7.6257167,-0.49938 11.2942398,0.54636 4.7667931,1.35884 8.9405343,2.90523 18.5221932,6.86258 7.232541,2.98712 9.077408,3.56831 11.482259,3.6169 2.174135,0.0439 6.846244,-0.65159 10.736841,-1.59806 2.479168,-0.60314 2.479146,-0.6029 2.991568,0.11794 0.677907,0.95357 1.270585,1.29754 2.412824,1.40042 1.802276,0.16232 25.37213,-4.58615 40.833405,-8.22628 8.778714,-2.06684 15.738255,-4.33946 22.103852,-7.21821 2.63978,-1.19379 9.68895,-4.93475 12.16964,-6.45852 1.02119,-0.62727 1.02123,-0.62766 3.19466,1.709 3.3924,3.64715 8.91784,6.30221 12.18112,9.04457 5.16716,4.34233 8.11011,7.59448 10.23705,11.31242 1.94598,3.40157 1.42519,3.14366 7.21631,3.57096 5.94842,0.4389 15.38442,0.97289 21.19006,3.00784 2.14639,0.75233 4.31302,1.40468 4.81473,1.44988 0.5017,0.0452 2.55107,-0.12971 4.55408,-0.38863 2.00297,-0.25891 4.52471,-0.49942 5.60416,-0.53446 3.89406,-0.12636 12.80852,0.5716 15.92026,1.72181 1.42134,0.52541 4.07094,4.18867 4.75225,6.57044 0.11188,0.39112 0.24795,1.41005 0.30212,2.26441 0.0542,0.85436 0.16253,1.78997 0.2408,2.07892 0.0899,0.332 -0.048,1.0431 -0.37476,1.93238 -0.39512,1.07541 -0.81877,1.69593 -1.79672,2.63108 -5.33596,5.10259 -16.73997,9.45927 -31.77927,16.5778 -7.47846,3.53972 -16.48933,4.21373 -23.08326,5.1665 -8.23087,1.18933 -15.54522,0.87978 -23.28941,-1.3944 -12.39259,-3.63925 -26.80749,-10.79067 -38.863731,-19.28084 -2.679474,-1.88692 -4.139368,-2.69973 -6.523362,-3.6326 -5.584825,-2.18539 -13.238947,-3.13955 -25.012548,-2.90913 -1.972289,0.0386 -3.267786,-0.007 -3.552258,-0.30282 -0.677846,-0.7052 -1.380595,-0.99406 -3.423397,-1.408 -3.160985,-0.64056 -12.189498,-3.3269 -13.807817,-4.10828 -2.603701,-1.25717 -6.926549,-5.07583 -10.008979,-8.84177 -1.015624,-1.24086 -1.377525,-1.52955 -1.987145,-1.58446 -0.994767,-0.0896 -6.733973,-2.14757 -11.142806,-3.99543 -1.958326,-0.82077 -3.7244224,-1.56072 -3.9244224,-1.64438 -0.8153546,-0.34105 -0.9057191,2.26372 -0.12277,3.53646 0.2193797,0.35663 1.5753674,1.3092 3.2999434,2.31791 1.863336,1.08989 3.220497,2.05501 3.733294,2.65466 0.44312,0.51818 0.756831,0.9824 0.697277,1.0321 -0.05955,0.0497 -1.649228,-0.79701 -3.532707,-1.88197 -1.901948,-1.09561 -3.5873939,-1.92676 -3.7905156,-1.86911 -0.4652925,0.13207 -0.4353646,1.17115 0.179651,6.30336 1.2021826,10.03208 3.9051506,20.37718 8.6283546,33.02406 1.11847,2.99483 1.578592,3.95251 2.020484,4.204 2.072466,1.17932 11.391182,3.92396 16.147701,4.75609 5.460311,0.95523 15.159522,1.23836 22.496079,0.65635 5.049348,-0.40056 9.736229,-0.98708 10.06222,-1.25918 0.263341,-0.21983 0.147934,-1.6569 -0.63052,-7.84779 -1.009293,-8.02679 -1.010315,-8.49648 -0.02822,-10.48854 0.642948,-1.30413 1.604978,-2.29296 2.508221,-2.57827 1.13619,-0.35889 3.946382,-0.0512 5.502217,0.60248 0.714612,0.30028 3.205837,1.87944 5.535835,3.50938 4.878009,3.41239 14.273598,9.28202 19.239891,12.01956 9.23029,5.08791 15.25396,7.56668 23.15911,9.53049 3.9708,0.98645 15.4408,1.70764 19.95217,1.42354 9.84864,-0.62019 24.12484,-2.15181 32.19914,-5.25341 10.44344,-4.01168 23.21555,-9.08212 31.60524,-16.13296 3.20284,-2.69171 4.07097,-3.55279 4.81836,-4.78015 0.84238,-1.38335 0.92593,-1.66282 1.10474,-3.67713 0.20923,-2.35833 -0.0176,-3.28059 -1.28815,-5.23363 -0.31986,-0.49165 -0.56618,-1.08541 -0.54512,-1.31926 0.0203,-0.23394 -0.1399,-0.75286 -0.35618,-1.15339 -0.2163,-0.40053 -0.3689,-1.01732 -0.33709,-1.37043 0.22812,-2.60125 -1.11267,-6.78842 -3.15713,-9.8579 -1.75391,-2.6333 -2.3138,-3.11762 -4.65967,-4.0326 -6.14286,-2.39597 -16.23915,-2.95142 -24.34839,-1.88419 -2.33707,0.30756 -2.33707,0.30782 -4.58159,-0.52271 -3.02834,-1.12061 -13.1602,-2.07268 -15.86249,-2.63985 -2.20497,-0.46278 -9.13775,-0.99763 -10.12383,-0.78104 -0.38591,0.0848 -0.76262,-0.29616 -1.97851,-2.00089 -2.26723,-3.1788 -5.42564,-6.2119 -9.59224,-9.21199 -2.9786,-2.14468 -9.87874,-5.99777 -13.92199,-10.38854 -1.23786,-1.34425 -1.23802,-1.34432 -0.48814,-2.54279 0.89523,-1.43073 1.13118,-3.29943 0.78991,-6.26114 -0.4337,-3.7639 -1.51765,-6.58195 -3.51912,-9.14897 -1.38149,-1.77184 -2.5104,-2.609 -3.65729,-2.7123 z m -1.10188,4.5416 c 0.61458,0.003 0.87884,0.46458 1.5917,1.38781 1.47843,1.91468 2.63519,6.0728 2.40389,8.64078 -0.1108,1.22997 -0.42294,1.53097 -3.66677,3.53252 -8.16415,5.03755 -16.045172,8.55114 -25.262917,11.26331 -6.773533,1.99299 -23.593097,5.71976 -41.337789,9.15916 -2.640757,0.51188 -4.980296,0.91451 -5.199107,0.8948 -0.423588,-0.0382 -0.999454,-1.17118 -2.029093,-3.99323 -1.925267,-5.2768 -1.940087,-8.99669 -0.04469,-11.17201 1.434788,-1.64671 2.78132,-2.01516 9.586079,-2.62321 7.180432,-0.64162 13.90558,-1.82926 21.00297,-3.70898 9.280002,-2.45773 9.521463,-2.52384 15.151699,-4.12682 12.579168,-3.58139 18.779408,-5.61236 24.109988,-7.89766 2.11429,-0.90643 3.07947,-1.36013 3.69404,-1.35647 z m -136.927901,-1.9629 c -0.0872,-0.008 -1.618882,3.51743 -3.403779,7.83398 l -3.245394,7.84824 -6.999965,0.2017 c -3.849957,0.11091 -7.04352,0.23898 -7.096738,0.28455 -0.05322,0.0456 1.937993,2.69613 4.424719,5.89006 4.52132,5.80715 4.521504,5.80717 3.927746,7.05095 -0.326568,0.6841 -1.838657,3.80761 -3.359905,6.94125 -1.521249,3.13363 -2.7084,5.70269 -2.638201,5.70902 0.0702,0.007 3.078929,-1.18298 6.68578,-2.64268 3.606848,-1.45967 6.635159,-2.59597 6.729762,-2.52504 0.0946,0.0709 1.529247,2.84753 3.188011,6.16973 l 3.015659,6.0401 2.944029,-6.12486 c 1.619257,-3.36881 2.970505,-6.14765 3.002635,-6.1746 0.03214,-0.027 2.162126,0.5025 4.7333541,1.17642 5.3385946,1.39927 8.5126605,2.00315 8.546641,1.62588 0.012219,-0.13567 -1.0995778,-1.92591 -2.4706512,-3.97843 -1.3710705,-2.05254 -2.643011,-3.96013 -2.8265001,-4.23914 -0.3156971,-0.48008 -0.4071324,-0.4979 -1.7022557,-0.33059 -0.7527572,0.0973 -2.3797831,0.44218 -3.6156681,0.76678 -3.76499,0.98893 -4.085468,1.06191 -5.658328,1.286 -1.806265,0.25736 -4.928941,0.0242 -5.987584,-0.44684 -1.099654,-0.48938 -1.713456,-1.13465 -2.685735,-2.82235 -1.938452,-3.36484 -2.3056,-5.41003 -1.296975,-7.22898 0.703178,-1.26812 1.980139,-2.47575 3.087991,-2.92071 2.133008,-0.85669 6.566614,-1.15272 12.695797,-0.84744 3.9442641,0.19647 3.9443165,0.19679 4.5768151,-1.50248 0.7151197,-1.92124 1.5000085,-4.77206 1.9606165,-7.12003 0.262614,-1.33863 0.2582016,-1.5518 -0.030013,-1.36442 -0.1878368,0.12212 -1.7466935,1.14403 -3.4638083,2.27072 -3.3220213,2.17979 -5.8854233,3.6737 -6.2475263,3.64108 -0.121279,-0.0111 -0.842797,-1.45288 -1.603541,-3.20435 -2.547168,-5.8644 -5.026924,-11.2491 -5.186988,-11.26352 z m 71.74858,22.67443 c -1.222051,-0.0927 -2.40149,0.32591 -3.514885,1.25532 -3.390428,2.83015 -2.729482,8.02733 1.206371,9.48688 1.153894,0.42789 2.685746,0.45037 3.962184,0.0582 1.955896,-0.6008 3.093592,-2.29682 3.33442,-4.97063 0.191558,-2.12678 -0.435518,-3.54586 -2.070055,-4.68522 -0.991149,-0.69087 -1.967554,-1.0725 -2.918036,-1.14462 z m -70.764845,0.33653 c 1.008168,0.0782 1.933004,0.74834 2.222907,1.66613 0.343833,1.08851 0.100509,1.82977 -0.841107,2.56288 -1.219841,0.94973 -2.44312,0.82515 -3.423164,-0.34892 -1.245184,-1.49168 -0.334485,-3.69039 1.605776,-3.87648 0.145836,-0.014 0.291565,-0.0148 0.435588,-0.003 z"
         sodipodi:nodetypes="scsssssscsssssssssssssssssssssssscsscssssssccssssssssssssscsssssssssssssscscscsssssssssssssscsssssssssssscsccscssscssccscssssscsssssssssscssssscsssscsssscc" />
 
    </g>
  </g>
</svg>
