<svg xmlns="http://www.w3.org/2000/svg" width="742.16" height="744.257" viewBox="0 0 196.363 196.918"><g style="display:inline;opacity:1"><path d="M111.263 46.616c-.602-.732-2.13-2.379-3.397-3.66-6.628-6.705-14.988-12.73-23.749-17.113-3.058-1.531-9.837-4.354-10.249-4.269-.135.029-.86 2.317-1.612 5.085-1.7 6.264-3.247 11.116-3.438 10.785-.361-.625-.138-11.766.394-19.704.157-2.343.245-4.287.195-4.32-.318-.21-4.76-1.114-6.824-1.39-3.867-.516-10.57-.327-17.242.488-.945.115-2.103.232-2.574.26-.856.049-.856.049-1.227 3.606-.734 7.044-2.137 16.243-3.055 20.033-.37 1.525-.37 1.525-.662-.528-.455-3.187-1.028-8.849-1.257-12.415-.316-4.916.177-4.485-3.95-3.45-13.862 3.48-28.358 9.73-46.223 19.929-2.8 1.598-5.019 2.805-4.932 2.683.435-.613 4.968-4.41 8.581-7.188C2.53 25.848 15.98 18.71 29.25 14.638c1.908-.585 4.206-1.215 5.107-1.4 1.638-.336 1.638-.336 1.628-1.684-.023-3.36.37-3.999 2.947-4.785 4.062-1.24 14.307-2.524 19.09-2.394 5.322.146 12.032 1.87 16.263 4.178 1.432.782 1.734 2.173 1.098 5.062-.266 1.208-.455 2.208-.421 2.223.034.016.945.388 2.025.828C88.975 21.552 101.702 31.655 109 42.077c1.575 2.25 3.426 5.36 3.384 5.683-.014.103-.518-.411-1.12-1.144zm5.151 113.979c-1.124-.1-3.76.462-5.192 1.109-12.525 5.657-25.364 9.874-37.361 12.272-7.435 1.486-20.954 3.566-26.989 4.154-3.573.347-4.626.767-6.596 2.627-2.549 2.406-12.099 9.895-13.097 10.27-1.56.587-3.289.376-7.44-.905-8.003-2.471-18.219-5.094-23.63-6.068a93.802 93.802 0 0 1-3.852-.809c-6.487-1.516-10.6-1.46-14.975.206-1.226.467-1.682.799-2.513 1.83-1.23 1.525-1.486 2.257-1.253 3.589.367 2.102 1.187 3.27 3.06 4.367 1.785 1.044 4.319 1.211 8.495.562 4.26-.662 7.626-.5 11.294.547 4.767 1.358 8.94 2.905 18.522 6.862 7.233 2.987 9.078 3.568 11.483 3.617 2.174.044 6.846-.652 10.736-1.598 2.48-.603 2.48-.603 2.992.118.678.953 1.27 1.297 2.413 1.4 1.802.163 25.372-4.586 40.833-8.226 8.779-2.067 15.738-4.34 22.104-7.218 2.64-1.194 9.689-4.935 12.17-6.459 1.02-.627 1.021-.627 3.194 1.71 3.393 3.646 8.918 6.301 12.182 9.044 5.167 4.342 8.11 7.594 10.237 11.312 1.946 3.402 1.425 3.144 7.216 3.571 5.948.44 15.384.973 21.19 3.008 2.146.752 4.313 1.405 4.815 1.45.501.045 2.55-.13 4.554-.389 2.003-.259 4.524-.5 5.604-.534 3.894-.127 12.808.571 15.92 1.722 1.421.525 4.071 4.188 4.752 6.57.112.391.248 1.41.303 2.265.054.854.162 1.79.24 2.078.09.332-.048 1.044-.374 1.933-.396 1.075-.82 1.696-1.797 2.63-5.336 5.103-16.74 9.46-31.78 16.579-7.478 3.54-16.489 4.213-23.083 5.166-8.23 1.19-15.545.88-23.29-1.394-12.392-3.64-26.807-10.79-38.863-19.281-2.68-1.887-4.14-2.7-6.523-3.633-5.585-2.185-13.24-3.14-25.013-2.909-1.972.039-3.268-.007-3.552-.303-.678-.705-1.38-.994-3.423-1.408-3.161-.64-12.19-3.326-13.808-4.108-2.604-1.257-6.927-5.076-10.01-8.842-1.015-1.24-1.377-1.53-1.986-1.584-.995-.09-6.734-2.148-11.143-3.996l-3.925-1.644c-.815-.341-.905 2.264-.122 3.537.22.356 1.575 1.309 3.3 2.317 1.863 1.09 3.22 2.055 3.733 2.655.443.518.757.983.697 1.032-.06.05-1.649-.797-3.533-1.882-1.901-1.095-3.587-1.927-3.79-1.869-.465.132-.435 1.171.18 6.303 1.202 10.033 3.905 20.378 8.628 33.025 1.118 2.994 1.579 3.952 2.02 4.204 2.073 1.179 11.392 3.924 16.148 4.756 5.46.955 15.16 1.238 22.496.656 5.05-.4 9.736-.987 10.062-1.26.264-.219.148-1.656-.63-7.847-1.01-8.027-1.01-8.496-.028-10.489.643-1.304 1.605-2.292 2.508-2.578 1.136-.359 3.946-.051 5.502.603.715.3 3.206 1.88 5.536 3.51 4.878 3.411 14.274 9.281 19.24 12.019 9.23 5.088 15.254 7.566 23.159 9.53 3.97.987 15.44 1.708 19.952 1.424 9.849-.62 24.125-2.152 32.2-5.254 10.443-4.011 23.215-9.082 31.605-16.133 3.202-2.691 4.07-3.552 4.818-4.78.842-1.383.926-1.663 1.105-3.677.209-2.358-.018-3.28-1.289-5.234-.32-.491-.566-1.085-.545-1.319.02-.234-.14-.753-.356-1.153-.216-.4-.369-1.018-.337-1.37.228-2.602-1.113-6.79-3.157-9.859-1.754-2.633-2.314-3.117-4.66-4.032-6.143-2.396-16.239-2.952-24.348-1.884-2.337.307-2.337.307-4.582-.523-3.028-1.12-13.16-2.073-15.862-2.64-2.205-.463-9.138-.998-10.124-.781-.386.085-.763-.296-1.979-2-2.267-3.18-5.425-6.213-9.592-9.213-2.978-2.145-9.878-5.998-13.922-10.388-1.238-1.345-1.238-1.345-.488-2.543.895-1.43 1.131-3.3.79-6.261-.434-3.764-1.518-6.582-3.52-9.15-1.38-1.771-2.51-2.608-3.656-2.712zm-1.102 4.542c.614.003.879.465 1.591 1.388 1.479 1.914 2.636 6.073 2.404 8.64-.11 1.23-.423 1.532-3.666 3.533-8.165 5.038-16.046 8.551-25.263 11.263-6.774 1.993-23.593 5.72-41.338 9.16-2.64.511-4.98.914-5.2.894-.423-.038-.999-1.17-2.028-3.993-1.926-5.277-1.94-8.997-.045-11.172 1.435-1.647 2.781-2.015 9.586-2.623 7.18-.642 13.906-1.83 21.003-3.71 9.28-2.457 9.521-2.523 15.152-4.126 12.579-3.581 18.78-5.612 24.11-7.898 2.114-.906 3.08-1.36 3.694-1.356zm-136.928-1.963c-.087-.008-1.619 3.517-3.404 7.834l-3.245 7.848-7 .202c-3.85.11-7.044.239-7.097.285-.053.045 1.938 2.696 4.425 5.89 4.521 5.807 4.521 5.807 3.927 7.05-.326.685-1.838 3.808-3.36 6.942-1.52 3.133-2.708 5.702-2.638 5.709.07.007 3.08-1.183 6.686-2.643 3.607-1.46 6.635-2.596 6.73-2.525.094.071 1.53 2.848 3.188 6.17l3.016 6.04 2.944-6.125c1.619-3.369 2.97-6.148 3.002-6.175.032-.027 2.162.503 4.734 1.177 5.338 1.4 8.512 2.003 8.546 1.626.012-.136-1.1-1.926-2.47-3.979a1679.59 1679.59 0 0 1-2.827-4.239c-.316-.48-.407-.498-1.702-.33-.753.097-2.38.442-3.616.766-3.765.99-4.085 1.062-5.658 1.286-1.806.258-4.93.025-5.988-.446-1.1-.49-1.713-1.135-2.686-2.823-1.938-3.365-2.305-5.41-1.296-7.229.703-1.268 1.98-2.476 3.087-2.92 2.134-.857 6.567-1.153 12.696-.848 3.945.197 3.945.197 4.577-1.502.715-1.922 1.5-4.772 1.96-7.12.263-1.34.259-1.552-.03-1.365L-8.577 174c-3.322 2.18-5.886 3.675-6.248 3.642-.12-.011-.842-1.453-1.603-3.204-2.547-5.865-5.027-11.25-5.187-11.264zm71.748 22.674c-1.222-.092-2.401.326-3.514 1.256-3.39 2.83-2.73 8.027 1.206 9.487 1.154.428 2.686.45 3.962.058 1.956-.6 3.094-2.297 3.335-4.97.191-2.128-.436-3.547-2.07-4.686-.992-.69-1.968-1.072-2.919-1.145zm-70.764.337c1.008.078 1.933.748 2.222 1.666.344 1.089.101 1.83-.84 2.563-1.22.95-2.444.825-3.424-.349-1.245-1.492-.334-3.69 1.606-3.876.146-.014.292-.015.436-.003z" style="fill:#3a1304;fill-opacity:1;stroke-width:.230006" transform="translate(32.434 -3.343) scale(.76563)"/></g></svg>