<?xml version="1.0" encoding="UTF-8" standalone="no"?>
<!-- Created with Inkscape (http://www.inkscape.org/) -->

<svg
   width="695.27936mm"
   height="473.37711mm"
   viewBox="0 0 695.27936 473.37711"
   version="1.1"
   id="svg14547"
   xml:space="preserve"
   inkscape:version="1.2 (dc2aedaf03, 2022-05-15)"
   sodipodi:docname="cart.svg"
   xmlns:inkscape="http://www.inkscape.org/namespaces/inkscape"
   xmlns:sodipodi="http://sodipodi.sourceforge.net/DTD/sodipodi-0.dtd"
   xmlns="http://www.w3.org/2000/svg"
   xmlns:svg="http://www.w3.org/2000/svg"><sodipodi:namedview
     id="namedview14549"
     pagecolor="#ffffff"
     bordercolor="#000000"
     borderopacity="0.25"
     inkscape:showpageshadow="2"
     inkscape:pageopacity="0.0"
     inkscape:pagecheckerboard="0"
     inkscape:deskcolor="#d1d1d1"
     inkscape:document-units="mm"
     showgrid="false"
     inkscape:zoom="0.096100765"
     inkscape:cx="3074.8975"
     inkscape:cy="2976.0429"
     inkscape:window-width="1920"
     inkscape:window-height="1017"
     inkscape:window-x="-8"
     inkscape:window-y="406"
     inkscape:window-maximized="1"
     inkscape:current-layer="layer1" /><defs
     id="defs14544" /><g
     inkscape:label="Layer 1"
     inkscape:groupmode="layer"
     id="layer1"
     transform="translate(1685.6656,404.32387)"><path
       id="path14680"
       style="fill:#218741;stroke:none;stroke-width:0.264583;fill-opacity:1"
       d="M -1536.5403 -404.29752 C -1540.1583 -404.2459 -1543.7608 -404.11287 -1547.334 -403.84948 C -1553.729 -403.37799 -1553.7054 -392.57871 -1554.6896 -387.73367 C -1555.0838 -385.79692 -1556.4305 -382.62492 -1554.6395 -381.0271 C -1553.4119 -379.93463 -1551.2266 -380.32533 -1549.7158 -380.32533 L -1537.2803 -380.32533 L -1487.8033 -380.32533 C -1482.7762 -380.32533 -1477.7623 -380.58992 -1472.722 -380.58992 C -1471.5049 -380.58992 -1468.4779 -381.13963 -1467.7027 -379.97652 C -1467.1761 -379.18885 -1467.4383 -377.79591 -1467.3192 -376.88575 C -1466.9038 -373.73429 -1466.8932 -370.52384 -1466.5916 -367.36075 C -1465.5174 -356.09215 -1465.02 -344.76267 -1463.9458 -333.49408 C -1461.4878 -307.69459 -1460.3183 -281.77066 -1457.8604 -255.97117 C -1456.8047 -244.87985 -1456.0003 -233.7488 -1455.2357 -222.63367 C -1454.8362 -216.834 -1453.9366 -210.9867 -1453.9366 -205.17117 C -1457.6883 -205.86686 -1462.0087 -205.17117 -1465.8423 -205.17117 L -1491.2423 -205.17117 L -1571.1465 -205.17117 C -1582.0817 -205.17117 -1596.0757 -207.24548 -1600.4202 -194.05867 C -1601.0499 -192.14838 -1601.2537 -189.97085 -1600.9653 -187.97325 C -1599.825 -180.06751 -1592.2444 -179.77117 -1585.9632 -179.77117 L -1538.8673 -179.77117 L -1369.2694 -179.77117 L -1330.1111 -179.77117 C -1324.3141 -179.77117 -1318.099 -179.06737 -1316.3316 -172.36283 C -1314.4504 -165.21908 -1320.3083 -157.77609 -1326.6715 -155.28636 C -1330.1719 -153.91846 -1334.1037 -154.37117 -1337.784 -154.37117 L -1356.834 -154.37117 L -1471.6632 -154.37117 C -1483.1698 -154.37117 -1498.4023 -157.07785 -1503.9769 -144.05242 C -1504.8077 -142.11038 -1505.0855 -140.06779 -1504.9903 -137.967 C -1504.7654 -133.01401 -1500.9949 -129.56634 -1496.2694 -128.82286 C -1492.3695 -128.20903 -1488.0435 -128.70658 -1484.0986 -128.70658 L -1460.8152 -128.70658 L -1339.1069 -128.70658 L -1319.2632 -128.70658 C -1316.0485 -128.70658 -1312.3602 -129.20137 -1309.209 -128.52933 C -1305.3646 -127.70913 -1301.9358 -124.4759 -1301.3511 -120.5045 C -1300.2557 -113.07766 -1306.1425 -106.1401 -1312.9132 -103.93084 C -1316.1676 -102.86722 -1319.8532 -103.30658 -1323.2319 -103.30658 L -1341.2236 -103.30658 L -1447.5861 -103.30658 C -1458.5478 -103.30658 -1472.5574 -105.8942 -1478.7222 -94.310752 C -1479.5688 -92.717963 -1480.1696 -90.818253 -1480.3495 -89.019085 C -1480.8045 -84.473549 -1478.3174 -79.679149 -1473.7798 -78.28744 C -1470.8139 -77.379921 -1467.578 -77.642002 -1464.5194 -77.642002 L -1449.7027 -77.642002 L -1364.2423 -77.642002 C -1358.3633 -77.642002 -1350.8544 -78.880328 -1345.1923 -77.26373 C -1341.5384 -76.221271 -1338.3845 -72.781598 -1338.0723 -68.910752 C -1337.4902 -61.655879 -1343.1842 -54.85581 -1349.9548 -52.826462 C -1354.1458 -51.567043 -1359.1121 -52.242002 -1363.4486 -52.242002 L -1388.584 -52.242002 L -1518.759 -52.242002 L -1538.8673 -52.242002 C -1548.0351 -52.242002 -1557.756 -52.062071 -1561.7248 -41.923252 C -1564.069 -35.927798 -1562.0343 -28.754881 -1555.2715 -27.043023 C -1552.3505 -26.304834 -1548.7495 -26.842002 -1545.7465 -26.842002 L -1526.6965 -26.842002 L -1461.609 -26.842002 L -1445.4694 -26.842002 C -1444.1835 -26.842002 -1440.9531 -27.39998 -1439.9979 -26.346941 C -1438.9978 -25.243622 -1439.4766 -21.677337 -1439.339 -20.227418 C -1438.7887 -14.459514 -1438.0611 -8.5619424 -1438.0611 -2.7649182 L -1204.1694 -2.7649182 L -1152.5757 -2.7649182 L -1139.0819 -2.7649182 L -1133.9251 -3.037253 L -1132.8906 -6.2045015 L -1131.1444 -14.671168 L -1139.6111 -14.935752 L -1156.809 -14.935752 L -1213.1652 -14.935752 L -1397.3152 -14.935752 L -1398.109 -26.577418 C -1333.1142 -26.577418 -1268.1218 -26.842002 -1203.1111 -26.842002 L -1148.0777 -26.842002 L -1132.4673 -26.842002 C -1130.6866 -26.842002 -1127.578 -26.238649 -1125.9561 -27.000648 C -1124.6702 -27.606538 -1123.879 -30.390063 -1123.2731 -31.604502 C -1121.1644 -35.821957 -1119.1534 -40.084396 -1117.0553 -44.304502 C -1108.7025 -61.118755 -1100.5824 -78.046825 -1092.1845 -94.839918 C -1068.036 -143.13956 -1043.7714 -191.5293 -1020.7341 -240.36075 C -1014.1936 -254.22226 -1007.2295 -267.92506 -1000.3741 -281.63575 C -997.11711 -288.15243 -992.39955 -295.28826 -990.38608 -302.27325 L -1417.6882 -302.27325 L -1419.2519 -323.7045 L -1423.2553 -384.29408 L -1424.3027 -404.13783 C -1450.8615 -404.13783 -1477.3994 -403.87325 -1503.9423 -403.87325 C -1514.6937 -403.87325 -1525.6863 -404.45237 -1536.5403 -404.29752 z M -1158.0952 -224.39738 C -1152.7226 -224.39738 -1147.463 -223.37558 -1142.3174 -221.33246 C -1137.1718 -219.28934 -1132.5559 -216.22495 -1128.4696 -212.1387 L -1142.0905 -198.51783 C -1144.285 -200.71229 -1146.7822 -202.33927 -1149.582 -203.39867 C -1152.3818 -204.53373 -1155.2197 -205.10089 -1158.0952 -205.10089 C -1160.9707 -205.10089 -1163.8081 -204.53373 -1166.6079 -203.39867 C -1169.4077 -202.33927 -1171.9049 -200.71229 -1174.0994 -198.51783 C -1176.2939 -196.32336 -1177.9589 -193.82613 -1179.0939 -191.0263 C -1180.229 -188.22646 -1180.7962 -185.38863 -1180.7962 -182.51312 C -1180.7962 -179.63761 -1180.229 -176.79978 -1179.0939 -173.99994 C -1177.9589 -171.20011 -1176.2939 -168.70288 -1174.0994 -166.50841 C -1172.1319 -164.54096 -1169.9378 -162.99002 -1167.5163 -161.85495 C -1165.0192 -160.79556 -1162.484 -160.15236 -1159.9111 -159.92535 C -1157.2627 -159.774 -1154.6519 -160.03858 -1152.079 -160.71962 C -1149.5063 -161.40066 -1147.1225 -162.536 -1144.9281 -164.12509 L -1144.9281 -168.32484 L -1161.6139 -168.32484 L -1161.6139 -187.50765 L -1125.6321 -187.50765 L -1125.6321 -140.85623 L -1144.9281 -140.85623 L -1144.9281 -142.899 C -1147.0469 -142.14229 -1149.2415 -141.57513 -1151.5116 -141.19678 C -1153.7061 -140.89409 -1155.9008 -140.74254 -1158.0952 -140.74254 C -1163.4679 -140.74254 -1168.7269 -141.76435 -1173.8725 -143.80747 C -1179.0182 -145.8506 -1183.6341 -148.91498 -1187.7203 -153.00123 C -1191.8065 -157.08748 -1194.8714 -161.66581 -1196.9146 -166.73579 C -1198.882 -171.88143 -1199.8658 -177.14046 -1199.8658 -182.51312 C -1199.8658 -187.88578 -1198.882 -193.14481 -1196.9146 -198.29045 C -1194.8714 -203.4361 -1191.8065 -208.05245 -1187.7203 -212.1387 C -1183.6341 -216.22495 -1179.0182 -219.28934 -1173.8725 -221.33246 C -1168.7269 -223.37558 -1163.4679 -224.39738 -1158.0952 -224.39738 z M -1223.1347 -224.17001 L -1203.9519 -224.17001 L -1203.9519 -140.85623 L -1224.7237 -140.85623 L -1251.9655 -189.43724 L -1251.9655 -140.85623 L -1271.1477 -140.85623 L -1271.1477 -223.94315 L -1250.2627 -223.94315 L -1223.1347 -175.47582 L -1223.1347 -224.17001 z M -1664.2483 -154.77424 C -1666.5005 -154.70814 -1668.7247 -154.55315 -1670.8949 -154.25748 C -1676.0622 -153.55633 -1680.7028 -150.98185 -1683.473 -146.43367 C -1686.7247 -141.09438 -1686.8625 -132.91348 -1680.4199 -129.85225 C -1676.9883 -128.21977 -1672.9931 -128.70658 -1669.3074 -128.70658 L -1648.6699 -128.70658 L -1574.0574 -128.70658 L -1553.1553 -128.70658 C -1548.5119 -128.70658 -1543.887 -128.33367 -1539.6616 -130.64083 C -1531.5891 -135.04879 -1525.7895 -151.25408 -1538.6033 -153.98721 C -1544.2045 -155.18048 -1550.6206 -154.37117 -1556.3303 -154.37117 L -1590.4616 -154.37117 L -1643.9074 -154.37117 C -1650.4817 -154.37117 -1657.4918 -154.97256 -1664.2483 -154.77424 z M -1623.9536 -103.65592 C -1625.9627 -103.59577 -1627.9471 -103.45682 -1629.8845 -103.1929 C -1635.4381 -102.43884 -1640.3274 -99.104993 -1642.8568 -94.046168 C -1645.6217 -88.516374 -1644.6536 -81.443745 -1638.6158 -78.647108 C -1635.2609 -77.09136 -1631.0964 -77.642002 -1627.5033 -77.642002 L -1606.072 -77.642002 L -1536.222 -77.642002 L -1518.4949 -77.642002 C -1513.9123 -77.642002 -1509.4647 -77.403817 -1505.2658 -79.562814 C -1498.0215 -83.288151 -1491.7455 -96.406031 -1501.0324 -101.75061 C -1502.2548 -102.45441 -1503.6174 -102.89354 -1505.0012 -103.14225 C -1510.5971 -104.15031 -1517.0424 -103.30658 -1522.7283 -103.30658 L -1558.1824 -103.30658 L -1605.8074 -103.30658 C -1611.6772 -103.30658 -1617.9265 -103.83637 -1623.9536 -103.65592 z M -1651.4656 -52.436822 C -1653.9262 -52.492384 -1656.3812 -52.464333 -1658.7241 -52.128313 C -1664.4126 -51.313394 -1669.4447 -47.49537 -1671.7228 -42.187835 C -1674.0088 -36.85649 -1672.7311 -29.910874 -1666.9262 -27.537566 C -1664.5714 -26.574487 -1662.0102 -26.842002 -1659.5178 -26.842002 L -1647.6116 -26.842002 L -1616.1262 -26.842002 C -1611.2234 -26.842002 -1605.2889 -25.937231 -1600.5158 -27.08023 C -1595.0443 -28.389919 -1590.4774 -32.633737 -1588.702 -37.954502 C -1586.9293 -43.275266 -1588.7021 -49.683135 -1594.4303 -51.617233 C -1597.0603 -52.506233 -1599.8993 -52.242002 -1602.6324 -52.242002 L -1615.8616 -52.242002 L -1644.172 -52.242002 C -1646.5387 -52.242002 -1649.005 -52.381259 -1651.4656 -52.436822 z M -1432.7973 2.9453276 C -1433.9114 2.9429308 -1435.0496 3.0148846 -1436.2095 3.1670195 C -1452.7301 5.3366073 -1467.7214 15.427855 -1473.0527 31.895498 C -1478.093 47.458283 -1471.4732 65.029282 -1454.2012 68.407998 C -1451.1479 69.005958 -1447.7771 69.233744 -1444.6762 68.860684 C -1427.1369 66.765186 -1411.8915 53.236781 -1408.219 35.864248 C -1404.8282 19.815633 -1416.0857 2.9812801 -1432.7973 2.9453276 z M -1160.014 2.9473946 C -1161.1252 2.9433576 -1162.2627 3.014554 -1163.4241 3.1670195 C -1180.1987 5.3709973 -1195.0366 15.213535 -1200.5929 31.895498 C -1205.7284 47.310113 -1198.9629 64.952552 -1181.9449 68.407998 C -1178.8255 69.040358 -1175.3223 69.241684 -1172.1553 68.860684 C -1154.7643 66.781066 -1139.2489 53.202381 -1135.7617 35.864248 C -1132.5818 20.066161 -1143.3453 3.0079496 -1160.014 2.9473946 z " /><g
       aria-label="ng"
       id="text15830"
       style="font-size:113.507px;font-family:'The Bold Font';-inkscape-font-specification:'The Bold Font';text-align:center;text-anchor:middle;fill:#ffffff;stroke-width:8.04991;stroke-linecap:square;stroke-miterlimit:0;paint-order:markers fill stroke" /></g></svg>
