<svg xmlns="http://www.w3.org/2000/svg" xml:space="preserve" width="2627.828" height="1789.142" viewBox="0 0 695.279 473.377"><path d="M-1536.54-404.298c-3.618.052-7.22.185-10.794.449-6.395.471-6.371 11.27-7.356 16.115-.394 1.937-1.74 5.11.05 6.707 1.228 1.092 3.413.702 4.924.702h61.913c5.027 0 10.04-.265 15.081-.265 1.217 0 4.244-.55 5.02.613.526.788.264 2.181.383 3.091.415 3.152.426 6.362.727 9.525 1.075 11.269 1.572 22.598 2.646 33.867 2.458 25.8 3.628 51.723 6.086 77.523 1.055 11.091 1.86 22.222 2.624 33.337.4 5.8 1.3 11.647 1.3 17.463-3.752-.696-8.073 0-11.906 0h-105.305c-10.935 0-24.929-2.074-29.273 11.112-.63 1.91-.834 4.088-.545 6.086 1.14 7.905 8.72 8.202 15.002 8.202h255.852c5.797 0 12.012.704 13.78 7.408 1.88 7.144-3.977 14.587-10.34 17.077-3.5 1.368-7.433.915-11.113.915h-133.88c-11.506 0-26.738-2.707-32.313 10.319-.83 1.942-1.108 3.984-1.013 6.085.225 4.953 3.995 8.4 8.72 9.144 3.9.614 8.226.116 12.171.116h164.836c3.214 0 6.903-.494 10.054.178 3.844.82 7.273 4.053 7.858 8.025 1.095 7.426-4.791 14.364-11.562 16.573-3.255 1.064-6.94.624-10.319.624h-124.354c-10.962 0-24.971-2.587-31.136 8.996-.847 1.593-1.448 3.493-1.628 5.292-.455 4.545 2.033 9.34 6.57 10.732 2.966.907 6.202.645 9.26.645h100.278c5.88 0 13.389-1.238 19.05.378 3.655 1.043 6.809 4.482 7.12 8.353.583 7.255-5.111 14.055-11.882 16.085-4.19 1.259-9.157.584-13.494.584h-175.418c-9.168 0-18.889.18-22.858 10.319-2.344 5.995-.31 13.168 6.453 14.88 2.921.738 6.523.201 9.525.201h100.278c1.285 0 4.516-.558 5.471.495 1 1.103.521 4.67.659 6.12.55 5.767 1.278 11.665 1.278 17.462h298.978l5.157-.272 1.034-3.168 1.747-8.466-8.467-.265h-257.704l-.794-11.641c64.995 0 129.987-.265 194.998-.265h70.643c1.781 0 4.89.603 6.512-.159 1.286-.606 2.077-3.39 2.683-4.604 2.109-4.217 4.12-8.48 6.218-12.7 8.352-16.814 16.473-33.742 24.87-50.535 24.149-48.3 48.414-96.69 71.45-145.52 6.541-13.862 13.505-27.565 20.36-41.276 3.258-6.516 7.975-13.652 9.989-20.637h-427.302l-1.564-21.431-4.003-60.59-1.048-19.844c-26.558 0-53.096.265-79.64.265-10.75 0-21.743-.58-32.597-.425zm378.445 179.9c5.372 0 10.632 1.022 15.778 3.066 5.145 2.043 9.761 5.107 13.847 9.193l-13.62 13.621c-2.195-2.194-4.692-3.821-7.492-4.88-2.8-1.136-5.638-1.703-8.513-1.703-2.876 0-5.713.567-8.513 1.702-2.8 1.06-5.297 2.687-7.491 4.881-2.195 2.195-3.86 4.692-4.995 7.492-1.135 2.8-1.702 5.637-1.702 8.513 0 2.875.567 5.713 1.702 8.513s2.8 5.297 4.995 7.492c1.967 1.967 4.161 3.518 6.583 4.653 2.497 1.06 5.032 1.703 7.605 1.93 2.648.151 5.26-.114 7.832-.795a21.467 21.467 0 0 0 7.15-3.405v-4.2h-16.685v-19.183h35.982v46.652h-19.296v-2.043a38.209 38.209 0 0 1-6.584 1.702 48.13 48.13 0 0 1-6.583.454c-5.373 0-10.632-1.021-15.777-3.064-5.146-2.044-9.762-5.108-13.848-9.194-4.086-4.086-7.151-8.665-9.195-13.735-1.967-5.145-2.95-10.404-2.95-15.777 0-5.373.983-10.632 2.95-15.777 2.044-5.146 5.109-9.762 9.195-13.849 4.086-4.086 8.702-7.15 13.848-9.193 5.145-2.044 10.404-3.065 15.777-3.065zm-65.04.228h19.183v83.314h-20.772l-27.242-48.581v48.58h-19.182v-83.086h20.885l27.128 48.467v-48.694zm-441.113 69.396c-2.253.066-4.477.22-6.647.517-5.167.7-9.808 3.275-12.578 7.823-3.252 5.34-3.39 13.52 3.053 16.582 3.432 1.632 7.427 1.145 11.113 1.145h116.152c4.643 0 9.268.373 13.493-1.934 8.073-4.408 13.872-20.613 1.059-23.346-5.601-1.193-12.018-.384-17.727-.384h-87.577c-6.575 0-13.585-.602-20.341-.403zm40.294 51.118c-2.009.06-3.993.2-5.93.463-5.554.754-10.443 4.088-12.973 9.147-2.765 5.53-1.797 12.602 4.241 15.399 3.355 1.556 7.52 1.005 11.113 1.005h109.008c4.583 0 9.03.238 13.23-1.92 7.244-3.726 13.52-16.844 4.233-22.189-1.223-.703-2.585-1.143-3.97-1.391-5.595-1.008-12.04-.165-17.726-.165h-83.079c-5.87 0-12.12-.53-18.147-.349zm-27.512 51.22c-2.46-.056-4.915-.028-7.258.308-5.689.815-10.72 4.633-12.999 9.94-2.286 5.332-1.008 12.277 4.797 14.65 2.355.964 4.916.696 7.408.696h43.392c4.903 0 10.837.905 15.61-.238 5.472-1.31 10.039-5.554 11.814-10.875 1.773-5.32 0-11.728-5.728-13.662-2.63-.89-5.47-.625-8.202-.625h-41.54c-2.367 0-4.833-.14-7.294-.195zm218.669 55.381a25.795 25.795 0 0 0-3.412.222c-16.521 2.17-31.512 12.26-36.844 28.728-5.04 15.563 1.58 33.134 18.852 36.513 3.053.598 6.424.826 9.525.453 17.54-2.096 32.784-15.624 36.457-32.997 3.39-16.048-7.867-32.883-24.578-32.919zm272.783.002a25.472 25.472 0 0 0-3.41.22c-16.775 2.204-31.613 12.047-37.169 28.728-5.135 15.415 1.63 33.058 18.648 36.513 3.12.632 6.623.834 9.79.453 17.39-2.08 32.906-15.659 36.393-32.997 3.18-15.798-7.583-32.856-24.252-32.917z" style="fill:#218741;stroke:none;stroke-width:.264583;fill-opacity:1" transform="translate(1685.666 404.324)"/></svg>