<?xml version="1.0" encoding="UTF-8" standalone="no"?>
<!-- Created with Inkscape (http://www.inkscape.org/) -->

<svg
   width="932.57819mm"
   height="270.83536mm"
   viewBox="0 0 932.5782 270.83536"
   version="1.1"
   id="svg1"
   xml:space="preserve"
   inkscape:version="1.4.2 (f4327f4, 2025-05-13)"
   sodipodi:docname="Drinkwordmark.svg"
   xmlns:inkscape="http://www.inkscape.org/namespaces/inkscape"
   xmlns:sodipodi="http://sodipodi.sourceforge.net/DTD/sodipodi-0.dtd"
   xmlns="http://www.w3.org/2000/svg"
   xmlns:svg="http://www.w3.org/2000/svg"><sodipodi:namedview
     id="namedview1"
     pagecolor="#ffffff"
     bordercolor="#000000"
     borderopacity="0.25"
     inkscape:showpageshadow="2"
     inkscape:pageopacity="0.0"
     inkscape:pagecheckerboard="0"
     inkscape:deskcolor="#d1d1d1"
     inkscape:document-units="mm"
     inkscape:zoom="1.1156028"
     inkscape:cx="1674.431"
     inkscape:cy="1069.8252"
     inkscape:window-width="3840"
     inkscape:window-height="2054"
     inkscape:window-x="3875"
     inkscape:window-y="-11"
     inkscape:window-maximized="1"
     inkscape:current-layer="path1"
     showguides="true"
     showgrid="false"><sodipodi:guide
       position="445.5972,-131.46939"
       orientation="1,0"
       id="guide2"
       inkscape:locked="false" /><sodipodi:guide
       position="611.19442,-113.96222"
       orientation="1,0"
       id="guide3"
       inkscape:locked="false" /><sodipodi:guide
       position="158.09806,-155.07343"
       orientation="1,0"
       id="guide4"
       inkscape:locked="false" /><sodipodi:guide
       position="363.72045,-23.829027"
       orientation="0,-1"
       id="guide11"
       inkscape:locked="false" /><sodipodi:guide
       position="931.48948,-24.779557"
       orientation="1,0"
       id="guide12"
       inkscape:locked="false" /><sodipodi:guide
       position="405.86141,-187.21069"
       orientation="0,-1"
       id="guide13"
       inkscape:locked="false" /><sodipodi:guide
       position="632.4018,-101.90845"
       orientation="1,0"
       id="guide14"
       inkscape:locked="false" /></sodipodi:namedview><defs
     id="defs1"><rect
       x="-623.69244"
       y="-410.7243"
       width="5385.0522"
       height="1967.4202"
       id="rect2" /></defs><g
     inkscape:label="Forge Wordmark"
     inkscape:groupmode="layer"
     id="layer1"
     transform="translate(-89.963627,-12.897292)"><path
       style="fill:#f97316;fill-opacity:1;stroke-width:1.24334"
       d="m 191.24076,235.22348 c 11.33392,-14.17857 7.25449,-35.4852 -3.42809,-48.88643 -9.64699,-11.68148 -18.74591,-26.24226 -16.11269,-42.06298 0.64487,-2.79831 3.56194,-6.99248 4.69881,-8.71376 -1.28725,0.24341 -3.47962,0.72343 -4.62459,1.2598 -17.99825,6.10566 -28.23315,28.21724 -20.57849,45.76814 3.21837,7.29677 7.23739,17.36333 1.16588,24.28498 -7.41497,8.15707 -20.62179,9.25373 -21.69967,-9.60983 -0.14689,-2.57066 0.11936,-5.12221 -0.0151,-7.72459 -1.24254,1.21779 -1.8578,2.10631 -2.65906,3.47487 -6.03638,10.31052 -2.9653,24.48222 0.87168,35.83213 -21.07601,-6.78318 -35.932513,-27.22968 -38.071319,-48.99546 -3.577254,-28.24909 4.952469,-56.62034 16.575539,-82.101396 15.16833,-31.443315 36.69355,-61.375537 67.04469,-79.637204 4.17515,-1.880393 6.08132,-3.699165 14.27615,-5.214458 -1.46474,3.609355 -2.05502,3.79853 -3.13599,7.421118 -9.03549,21.724107 -0.35775,43.498659 8.63167,63.985018 12.86733,29.992782 30.45087,59.677402 31.05853,93.189952 1.51396,21.69269 -8.11775,44.82307 -27.54947,55.80025 -1.26143,0.63231 -4.51694,2.99126 -7.84965,3.88533 0.92438,-1.18811 1.40115,-1.95548 1.40115,-1.95548 z"
       id="path9"
       sodipodi:nodetypes="sccccccscsccccccccccss"
       inkscape:label="Flame" /><path
       id="text1"
       style="font-weight:900;font-size:199.791px;font-family:Orbitron;-inkscape-font-specification:'Orbitron Heavy';text-align:center;text-anchor:middle;fill:#1a1a1a;fill-opacity:1;stroke-width:0.0196645"
       d="M 248.06169,237.17896 V 93.329435 H 380.9227 l -10.58333,31.167395 h -90.91049 v 25.17367 h 81.71451 l -10.58333,31.16739 h -71.13118 v 56.34107 z M 421.28046,93.329655 c -5.32776,0 -10.25604,1.331741 -14.78463,3.995621 -4.5286,2.663877 -8.12461,6.259894 -10.78849,10.788494 -2.66388,4.3954 -3.99614,9.32367 -3.99614,14.78462 v 84.71163 c 0,5.32776 1.33226,10.25603 3.99614,14.78462 2.66388,4.5286 6.25989,8.12461 10.78849,10.78849 4.52859,2.66388 9.45687,3.99563 14.78463,3.99563 h 84.7111 c 5.32776,0 10.18975,-1.33175 14.58516,-3.99563 4.52859,-2.66388 8.12461,-6.25989 10.78849,-10.78849 2.79707,-4.52859 4.19561,-9.45686 4.19561,-14.78462 v -84.71163 c 0,-5.46095 -1.39854,-10.38922 -4.19561,-14.78462 -2.66388,-4.5286 -6.2599,-8.124617 -10.78849,-10.788494 -4.39541,-2.66388 -9.2574,-3.995621 -14.58516,-3.995621 z m 1.39836,31.167085 h 81.51492 v 81.51493 H 422.67882 Z M 557.53777,93.529126 V 237.17876 h 30.96762 v -47.15062 l 41.05693,-0.0987 39.65856,47.24932 h 31.96652 v -10.58851 l -31.13143,-36.75796 1.56218,-0.004 c 5.46095,0 10.38922,-1.33225 14.78462,-3.99613 4.5286,-2.66388 8.12513,-6.25989 10.78901,-10.78849 2.79707,-4.52859 4.19561,-9.45687 4.19561,-14.78463 V 123.098 c 0,-5.32776 -1.39854,-10.25604 -4.19561,-14.78463 -2.66388,-4.52859 -6.26041,-8.1246 -10.78901,-10.788486 -4.3954,-2.66388 -9.32367,-3.996138 -14.78462,-3.996138 z m 30.96762,30.967614 h 81.5144 v 34.16433 h -81.5144 z m 163.42909,112.68222 c -5.32776,0 -10.25594,-1.33194 -14.78453,-3.99582 -4.5286,-2.66388 -8.12484,-6.26012 -10.78872,-10.78872 -2.66388,-4.52859 -3.99582,-9.45677 -3.99582,-14.78453 V 122.8985 c 0,-5.46095 1.33194,-10.38913 3.99582,-14.78453 2.66388,-4.5286 6.26012,-8.124838 10.78872,-10.788715 4.52859,-2.66388 9.45677,-3.99582 14.78453,-3.99582 h 84.5116 c 5.46095,0 10.38913,1.33194 14.78453,3.99582 4.52859,2.663877 8.12483,6.260115 10.78871,10.788715 2.79707,4.3954 4.19561,9.32358 4.19561,14.78453 v 13.58579 h -31.36718 v -11.98746 0 0 h -81.51473 v 0 0 81.51473 0 0 h 81.51473 v 0 0 -21.57743 h -31.1674 v -31.1674 h 62.53458 v 54.34316 c 0,5.32776 -1.39854,10.25594 -4.19561,14.78453 -2.66388,4.5286 -6.26012,8.12484 -10.78871,10.78872 -4.3954,2.66388 -9.32358,3.99582 -14.78453,3.99582 z m 136.65699,0 V 93.329435 h 132.86163 l -10.5834,31.167395 h -90.91104 v 25.17367 h 81.71464 l -10.58345,31.16739 h -71.13119 v 25.17367 h 101.49444 l -10.5834,31.1674 z" /><path
       id="text2"
       style="font-weight:900;font-size:84.2241px;font-family:Orbitron;-inkscape-font-specification:'Orbitron Heavy';text-align:end;text-anchor:end;fill:#191919;stroke:none;stroke-width:1.16551"
       inkscape:label="Drink"
       d="m 248.06169,12.897292 v 60.900012 h 48.29736 c 2.31194,0 4.39793,-0.563544 6.25877,-1.691326 1.91722,-1.127772 3.43966,-2.650743 4.56744,-4.567968 1.18418,-1.917216 1.77644,-4.003209 1.77644,-6.258763 V 25.415871 c 0,-2.311953 -0.59226,-4.398458 -1.77644,-6.259294 -1.12778,-1.917226 -2.65022,-3.439665 -4.56744,-4.567446 -1.86084,-1.127782 -3.94683,-1.691839 -6.25877,-1.691839 z m 138.04012,0 v 60.900012 h 12.94154 V 12.897292 Z m 20.21541,0 v 60.900012 h 13.11073 v -40.76919 l 34.25613,40.76919 h 13.53368 V 12.897292 h -13.2799 V 53.497304 L 419.85091,12.897292 Z m 70.4584,0 v 60.900012 h 13.19479 V 49.94495 h 11.92643 l 19.96165,23.852354 h 13.70233 V 69.229858 L 513.82328,43.347298 535.56082,17.464739 V 12.897292 H 521.85849 L 501.89684,36.749636 H 489.97041 V 12.897292 Z m -158.34066,0.08456 v 60.815422 h 13.11073 V 53.835641 l 17.38132,-0.04208 16.79021,20.003672 h 13.53316 v -4.482857 l -13.17974,-15.561819 0.66169,-0.002 c 2.31195,0 4.39845,-0.564056 6.25928,-1.691838 1.91723,-1.127781 3.43968,-2.65022 4.56746,-4.567446 1.18416,-1.917226 1.7759,-4.003209 1.7759,-6.258772 V 25.499939 c 0,-2.255564 -0.59174,-4.342059 -1.7759,-6.259285 -1.12778,-1.917226 -2.65023,-3.439674 -4.56746,-4.567456 -1.86083,-1.127772 -3.94733,-1.691838 -6.25928,-1.691838 z M 261.0873,26.092054 h 34.59501 V 60.602482 H 261.0873 Z m 70.45839,0 h 34.5099 V 40.55625 h -34.5099 z" /><g
       id="path1"
       style="opacity:1"
       transform="matrix(0.99689925,0,0,1,-0.97815776,0)"><path
         style="baseline-shift:baseline;display:inline;overflow:visible;vector-effect:none;fill:#f97316;enable-background:accumulate;stop-color:#000000;stop-opacity:1"
         d="m 249.81445,257.40838 v 8.19922 h 288.39258 v -8.19922 z"
         id="path3" /></g></g></svg>
