<?xml version="1.0" encoding="UTF-8" standalone="no"?>
<!-- Created with Inkscape (http://www.inkscape.org/) -->

<svg
   width="935.32263mm"
   height="180.3855mm"
   viewBox="0 0 935.32265 180.3855"
   version="1.1"
   id="svg1"
   xml:space="preserve"
   inkscape:version="1.4.2 (f4327f4, 2025-05-13)"
   sodipodi:docname="fire-wordmark - black.svg"
   xmlns:inkscape="http://www.inkscape.org/namespaces/inkscape"
   xmlns:sodipodi="http://sodipodi.sourceforge.net/DTD/sodipodi-0.dtd"
   xmlns="http://www.w3.org/2000/svg"
   xmlns:svg="http://www.w3.org/2000/svg"><sodipodi:namedview
     id="namedview1"
     pagecolor="#ffffff"
     bordercolor="#000000"
     borderopacity="0.25"
     inkscape:showpageshadow="2"
     inkscape:pageopacity="0.0"
     inkscape:pagecheckerboard="0"
     inkscape:deskcolor="#d1d1d1"
     inkscape:document-units="mm"
     inkscape:zoom="0.39442516"
     inkscape:cx="1072.4468"
     inkscape:cy="513.40538"
     inkscape:window-width="2560"
     inkscape:window-height="1494"
     inkscape:window-x="1575"
     inkscape:window-y="2149"
     inkscape:window-maximized="1"
     inkscape:current-layer="layer1"
     showguides="true" /><defs
     id="defs1"><rect
       x="-623.69244"
       y="-410.7243"
       width="5385.0522"
       height="1967.4202"
       id="rect2" /></defs><g
     inkscape:label="Forge Wordmark"
     inkscape:groupmode="layer"
     id="layer1"
     transform="translate(-74.617824,-75.061519)"><path
       style="fill:#f97316;fill-opacity:1"
       d="m 156.07301,253.87426 c 9.11565,-11.40356 5.83464,-28.54007 -2.75715,-39.31843 -7.7589,-9.3952 -15.07699,-21.10615 -12.95914,-33.83046 0.51866,-2.25063 2.8648,-5.62392 3.77916,-7.00831 -1.0353,0.19577 -2.79858,0.58184 -3.71946,1.01324 -14.47566,4.91066 -22.70739,22.69458 -16.55089,36.81043 2.58848,5.86866 5.8209,13.965 0.93768,19.53195 -5.96372,6.56059 -16.58571,7.44262 -17.45262,-7.72899 -0.11814,-2.06754 0.096,-4.1197 -0.0121,-6.21274 -0.99935,0.97944 -1.4942,1.69405 -2.13863,2.79477 -4.85495,8.29255 -2.38494,19.69058 0.70108,28.8191 -16.951016,-5.45559 -28.899789,-21.90031 -30.619991,-39.40612 -2.877118,-22.7202 3.983177,-45.53866 13.331361,-66.0326 12.19956,-25.28926 29.51189,-49.363179 53.92273,-64.050692 3.358,-1.512365 4.8911,-2.975168 11.48204,-4.19389 -1.17806,2.902935 -1.65281,3.055085 -2.52222,5.968665 -7.26706,17.472287 -0.28773,34.985147 6.9423,51.461937 10.34895,24.12263 24.49105,47.9974 24.97978,74.95091 1.21765,17.44702 -6.52895,36.05035 -22.15752,44.87909 -1.01454,0.50856 -3.63288,2.40581 -6.31333,3.1249 0.74347,-0.95558 1.12693,-1.57276 1.12693,-1.57276 z"
       id="path9"
       sodipodi:nodetypes="sccccccscsccccccccccss"
       inkscape:label="Flame" /><path
       id="text1"
       style="font-weight:900;font-size:199.791px;font-family:Orbitron;-inkscape-font-specification:'Orbitron Heavy';text-align:center;text-anchor:middle;fill:#000000;stroke-width:0.0196645;fill-opacity:1"
       d="M 236.94912,237.17896 V 93.329435 H 369.81013 L 359.2268,124.49683 h -90.91049 v 25.17367 h 81.71451 l -10.58333,31.16739 h -71.13118 v 56.34107 z M 410.16789,93.329655 c -5.32776,0 -10.25604,1.331741 -14.78463,3.995621 -4.5286,2.663877 -8.12461,6.259894 -10.78849,10.788494 -2.66388,4.3954 -3.99614,9.32367 -3.99614,14.78462 v 84.71163 c 0,5.32776 1.33226,10.25603 3.99614,14.78462 2.66388,4.5286 6.25989,8.12461 10.78849,10.78849 4.52859,2.66388 9.45687,3.99563 14.78463,3.99563 h 84.7111 c 5.32776,0 10.18975,-1.33175 14.58516,-3.99563 4.52859,-2.66388 8.12461,-6.25989 10.78849,-10.78849 2.79707,-4.52859 4.19561,-9.45686 4.19561,-14.78462 v -84.71163 c 0,-5.46095 -1.39854,-10.38922 -4.19561,-14.78462 -2.66388,-4.5286 -6.2599,-8.124617 -10.78849,-10.788494 -4.39541,-2.66388 -9.2574,-3.995621 -14.58516,-3.995621 z m 1.39836,31.167085 h 81.51492 v 81.51493 H 411.56625 Z M 546.4252,93.529126 V 237.17876 h 30.96762 v -47.15062 l 41.05693,-0.0987 39.65856,47.24932 h 31.96652 v -10.58851 l -31.13143,-36.75796 1.56218,-0.004 c 5.46095,0 10.38922,-1.33225 14.78462,-3.99613 4.5286,-2.66388 8.12513,-6.25989 10.78901,-10.78849 2.79707,-4.52859 4.19561,-9.45687 4.19561,-14.78463 v -37.16104 c 0,-5.32776 -1.39854,-10.25604 -4.19561,-14.78463 -2.66388,-4.52859 -6.26041,-8.1246 -10.78901,-10.788486 -4.3954,-2.66388 -9.32367,-3.996138 -14.78462,-3.996138 z m 30.96762,30.967614 h 81.5144 v 34.16433 h -81.5144 z m 163.42909,112.68222 c -5.32776,0 -10.25594,-1.33194 -14.78453,-3.99582 -4.5286,-2.66388 -8.12484,-6.26012 -10.78872,-10.78872 -2.66388,-4.52859 -3.99582,-9.45677 -3.99582,-14.78453 V 122.8985 c 0,-5.46095 1.33194,-10.38913 3.99582,-14.78453 2.66388,-4.5286 6.26012,-8.124838 10.78872,-10.788715 4.52859,-2.66388 9.45677,-3.99582 14.78453,-3.99582 h 84.5116 c 5.46095,0 10.38913,1.33194 14.78453,3.99582 4.52859,2.663877 8.12483,6.260115 10.78871,10.788715 2.79707,4.3954 4.19561,9.32358 4.19561,14.78453 v 13.58579 h -31.36718 v -11.98746 0 0 h -81.51473 v 0 0 81.51473 0 0 h 81.51473 v 0 0 -21.57743 h -31.1674 v -31.1674 h 62.53458 v 54.34316 c 0,5.32776 -1.39854,10.25594 -4.19561,14.78453 -2.66388,4.5286 -6.26012,8.12484 -10.78871,10.78872 -4.3954,2.66388 -9.32358,3.99582 -14.78453,3.99582 z m 136.65699,0 V 93.329435 h 132.861 l -10.58333,31.167395 h -90.91048 v 25.17367 h 81.71452 l -10.58333,31.16739 h -71.13119 v 25.17367 h 101.49381 l -10.58333,31.1674 z" /></g></svg>
