<?xml version="1.0" encoding="UTF-8" standalone="no"?>
<!-- Created with Inkscape (http://www.inkscape.org/) -->

<svg
   width="164.12454mm"
   height="177.48172mm"
   viewBox="0 0 164.12454 177.48172"
   version="1.1"
   id="svg17458"
   xml:space="preserve"
   inkscape:version="1.2 (dc2aedaf03, 2022-05-15)"
   sodipodi:docname="intelligift.svg"
   xmlns:inkscape="http://www.inkscape.org/namespaces/inkscape"
   xmlns:sodipodi="http://sodipodi.sourceforge.net/DTD/sodipodi-0.dtd"
   xmlns="http://www.w3.org/2000/svg"
   xmlns:svg="http://www.w3.org/2000/svg"><sodipodi:namedview
     id="namedview17460"
     pagecolor="#ffffff"
     bordercolor="#000000"
     borderopacity="0.25"
     inkscape:showpageshadow="2"
     inkscape:pageopacity="0.0"
     inkscape:pagecheckerboard="0"
     inkscape:deskcolor="#d1d1d1"
     inkscape:document-units="mm"
     showgrid="false"
     inkscape:zoom="0.38440306"
     inkscape:cx="316.07449"
     inkscape:cy="759.61935"
     inkscape:window-width="1920"
     inkscape:window-height="1017"
     inkscape:window-x="-8"
     inkscape:window-y="406"
     inkscape:window-maximized="1"
     inkscape:current-layer="layer1" /><defs
     id="defs17455" /><g
     inkscape:label="Layer 1"
     inkscape:groupmode="layer"
     id="layer1"
     transform="translate(-52.490051,-83.535066)"><path
       style="fill:#170b28;stroke-width:0.264583"
       d="m 127.31771,260.21208 c -0.85774,-0.34562 -3.52581,-1.39166 -6.34557,-2.4888 -0.52895,-0.20582 -1.06325,-0.41343 -1.59193,-0.61855 -19.405209,-7.529 -27.56867,-10.72102 -27.97968,-10.94053 -0.43686,-0.23332 -0.46293,-1.96223 -0.46139,-30.59892 l 0.002,-30.35163 0.76477,-2.65113 c 1.90652,-6.60913 4.97364,-15.07197 7.33317,-20.2338 0.98271,-2.14982 0.98271,-2.14982 1.93085,-2.00377 0.52148,0.0803 4.75814,0.44288 9.41481,0.80567 4.65666,0.36279 10.84791,0.84684 13.75833,1.07568 2.91042,0.22883 5.38128,0.50474 5.49081,0.61314 0.31298,0.30974 0.1146,98.01 -0.19914,98.07994 -0.14552,0.0324 -1.09802,-0.27685 -2.11667,-0.6873 z"
       id="path18020"
       sodipodi:nodetypes="csssccssssssscc" /><path
       style="fill:#170b28;stroke-width:0.264583"
       d="m 146.28834,121.09998 c 0,-1.89672 -0.56823,-3.2193 -1.82999,-4.25934 -0.88691,-0.73107 -0.9026,-0.77641 -0.52331,-1.51218 0.91143,-1.76806 2.93071,-7.25127 3.48791,-9.47116 4.59694,-18.314315 19.9932,-26.827515 36.08304,-19.951735 5.31088,2.26954 8.10923,5.63948 11.93833,14.376875 0.76528,1.74625 1.60624,3.65538 1.8688,4.24251 0.26255,0.58713 0.56554,1.42057 0.6733,1.85208 l 0.19593,0.78458 -0.90419,-0.73024 c -12.16994,-9.828655 -33.09541,-6.30704 -40.58085,6.82947 -1.74184,3.05684 -7.3703,8.27864 -9.97241,9.25191 -0.37511,0.14031 -0.43656,-0.0586 -0.43656,-1.41277 z"
       id="path18050" /><path
       style="fill:#170b28;stroke-width:0.264583"
       d="m 120.69707,121.50452 c -2.58898,-1.57093 -6.34821,-5.36212 -8.18787,-8.2575 -7.95069,-12.51327 -27.51497,-16.632155 -38.74127,-8.15622 -3.04817,2.30138 -2.7903,2.17261 -2.56668,1.28167 0.10767,-0.429 0.41059,-1.26039 0.67314,-1.84752 0.26256,-0.58713 1.1016,-2.49626 1.86453,-4.24251 3.93168,-8.999065 6.7903,-12.281625 12.78634,-14.682555 14.93751,-5.98127 29.5533,1.62572 34.565,17.989845 1.64328,5.3656 2.45479,7.72726 3.47727,10.11955 l 1.0318,2.41409 -0.93226,0.76845 c -1.2732,1.04948 -1.79128,2.16167 -1.84556,3.962 -0.0593,1.96845 0.0115,1.94675 -2.12444,0.6507 z"
       id="path18048" /><path
       style="fill:#8d5fd3;stroke-width:0.264583"
       d="m 132.30423,127.12633 c -5.32808,-0.94391 -8.63735,-4.42176 -7.23152,-7.59988 1.70139,-3.84627 16.76832,-4.10727 18.83662,-0.3263 2.36413,4.32175 -4.70348,9.14887 -11.6051,7.92618 z"
       id="path18046" /><path
       style="fill:#8d5fd3;stroke-width:0.264583"
       d="m 160.65521,130.92838 c -6.37848,-0.79336 -13.48706,-2.47918 -17.30151,-4.10311 -1.37964,-0.58736 -1.33725,-0.66203 0.67322,-1.18584 2.08817,-0.54405 4.08375,-1.50303 6.32789,-3.04087 l 1.87042,-1.28175 h 5.09256 c 17.38769,0 26.60741,-4.93907 30.99191,-16.6026 0.46678,-1.2417 1.77238,-0.89796 5.28614,1.39171 6.06459,3.95188 6.47316,8.94421 1.2671,15.48275 -5.39465,6.7754 -20.8651,10.99929 -34.20773,9.33971 z"
       id="path18044" /><path
       style="fill:#8d5fd3;stroke-width:0.264583"
       d="m 98.61042,131.17468 c -14.67734,-0.64558 -25.78529,-7.33164 -27.77759,-16.71981 -0.79874,-3.7638 2.31497,-7.78413 7.7342,-9.98616 1.98227,-0.80547 2.09117,-0.75923 2.68713,1.141 3.21637,10.25543 13.8347,15.7071 30.59301,15.7071 h 5.07 l 2.28986,1.53102 c 2.19051,1.46459 4.15074,2.34703 6.58933,2.96631 1.47893,0.37559 1.42123,0.55445 -0.39688,1.23018 -7.88376,2.93012 -18.13672,4.51094 -26.78906,4.13036 z"
       id="path18042" /><path
       style="fill:#8d5fd3;stroke-width:0.264583"
       d="m 56.01251,152.28558 -3.3073,-0.14481 v -12.30316 -12.30313 l 12.53543,-0.0687 12.53543,-0.0688 2.74306,1.39167 c 3.228,1.6377 3.131,1.4074 1.2241,2.9065 -5.62507,4.42216 -12.04271,13.47905 -14.44071,20.37945 -0.17323,0.49849 -3.36205,0.55807 -11.29001,0.21095 z"
       id="path18040" /><path
       style="fill:#8d5fd3;stroke-width:0.264583"
       d="m 202.39323,152.52288 c -0.32742,-0.12802 -0.59531,-0.36465 -0.59531,-0.52584 0,-0.55402 -2.81674,-6.20883 -4.31885,-8.67039 -2.94197,-4.82112 -6.61885,-9.0853 -10.10088,-11.71425 -1.8445,-1.39262 -1.93169,-1.20676 1.32604,-2.82693 l 2.7813,-1.38324 h 12.43224 c 12.43223,0 12.43223,0 12.43979,0.59531 0.0874,6.88313 -0.0576,23.90044 -0.2048,24.04261 -0.1098,0.10603 -2.87854,0.26704 -6.15276,0.35779 -3.27421,0.0908 -6.19125,0.20836 -6.48229,0.26135 -0.29104,0.053 -0.79705,-0.008 -1.12448,-0.13641 z"
       id="path18038" /><path
       style="fill:#8d5fd3;stroke-width:0.264583"
       d="m 139.55469,155.29948 c -0.50206,-0.51662 -0.22374,-26.83891 0.28379,-26.83891 4.37065,0 15.50661,9.48452 21.59034,18.38854 4.36109,6.38278 4.90243,7.54055 3.52587,7.54075 -0.47294,7e-5 -4.61036,0.1746 -9.19427,0.38784 -14.89785,0.69304 -16.00466,0.72868 -16.20573,0.52178 z"
       id="path18036" /><path
       style="fill:#8d5fd3;stroke-width:0.264583"
       d="m 123.34896,155.25318 c -1.27936,-0.10083 -18.17354,-0.86429 -19.11614,-0.86387 -1.14573,5.3e-4 -1.11745,-0.11904 0.76862,-3.24964 6.81751,-11.31603 16.19774,-20.13322 23.96992,-22.53113 l 0.59531,-0.18368 v 13.53493 13.53492 l -2.71198,-0.0895 c -1.49159,-0.0492 -3.06916,-0.11764 -3.50573,-0.15204 z"
       id="path18034" /><path
       style="fill:#170b28;stroke-width:0.264583"
       d="m 179.18982,179.50842 c -0.0769,-0.2091 -0.72501,-2.16612 -1.44017,-4.34893 -6.27764,-19.16057 -15.80449,-34.37377 -26.70227,-42.64022 -2.41254,-1.83002 -2.35557,-1.87564 1.31905,-1.0563 9.39466,2.09475 17.77215,2.26724 26.45203,0.54465 l 3.5913,-0.71272 1.29356,0.87981 c 8.63838,5.87537 15.44177,16.90087 19.00665,30.80199 1.03567,4.03852 1.03701,4.03335 -1.11049,4.25624 -0.98226,0.10196 -4.16718,0.4395 -7.0776,0.7501 l -5.29167,0.56473 -4.29074,5.0109 c -5.24713,6.1278 -5.56365,6.45534 -5.74965,5.94975 z"
       id="path18032" /><path
       style="fill:#170b28;stroke-width:0.264583"
       d="m 87.55534,177.35544 c -1.17634,-1.35329 -3.34645,-3.88929 -4.82247,-5.63554 l -2.68366,-3.175 -2.95637,-0.30711 c -13.17435,-1.36854 -11.73232,-0.80822 -10.90227,-4.23622 3.47169,-14.33771 11.31864,-27.12221 19.65337,-32.01994 l 1.12415,-0.66058 3.436,0.69064 c 8.69422,1.74753 16.74053,1.57818 26.41699,-0.55598 3.70115,-0.81629 3.7443,-0.77342 1.18836,1.18075 -11.23245,8.58788 -21.53337,25.43782 -27.37056,44.77198 -0.32951,1.09141 -0.67688,2.07959 -0.77193,2.19596 -0.0951,0.11637 -1.13528,-0.89566 -2.31161,-2.24896 z"
       id="path18030" /><path
       style="fill:#170b28;stroke-width:0.264583"
       d="m 185.12917,210.09665 v -32.92847 l 2.56908,-2.98872 c 3.08887,-3.59341 2.66527,-3.28493 4.80457,-3.49896 8.23965,-0.82437 13.83983,-1.43276 13.91921,-1.51213 0.1885,-0.18851 -0.92218,-5.71194 -1.71523,-8.52986 -0.44568,-1.58362 -0.76571,-2.92393 -0.71117,-2.97847 0.1326,-0.13261 9.76843,-0.88513 11.36219,-0.88735 l 1.25677,-0.002 v 37.00928 c 0,29.2875 -0.069,37.06541 -0.33073,37.27836 -0.2952,0.24019 -3.02989,1.32523 -15.86831,6.29604 -1.99723,0.77329 -4.02129,1.57585 -4.49791,1.78347 -1.89914,0.82726 -10.14776,3.89742 -10.45774,3.89239 -0.26278,-0.004 -0.33073,-6.77031 -0.33073,-32.93383 z"
       id="path18028" /><path
       style="fill:#170b28;stroke-width:0.264583"
       d="m 79.42813,241.53457 c -2.03729,-0.80289 -4.29948,-1.68246 -5.02708,-1.9546 -0.72761,-0.27214 -2.51354,-0.9632 -3.96875,-1.53569 -3.95481,-1.55586 -16.86462,-6.56365 -17.39636,-6.74815 -0.43923,-0.1524 -0.77972,-74.12029 -0.3432,-74.55681 0.0659,-0.0659 1.16722,-0.0393 2.44739,0.0591 1.28017,0.0984 3.51821,0.25528 4.97342,0.34867 2.88664,0.18526 5.15937,0.43685 5.15937,0.57112 0,0.0812 -0.21207,0.86721 -1.20782,4.47674 -0.4994,1.81032 -1.44051,6.83258 -1.30561,6.96747 0.0492,0.0492 3.46263,0.4339 7.58533,0.85481 9.23126,0.94247 8.24708,0.65776 10.19237,2.94854 0.90102,1.06105 2.00528,2.3459 2.45391,2.85522 0.44862,0.50933 0.87516,1.16417 0.94786,1.45521 0.38098,1.52526 -0.0189,65.61027 -0.40979,65.66383 -0.21828,0.0299 -2.06375,-0.60252 -4.10104,-1.40541 z"
       id="path18026" /><path
       style="fill:#170b28;stroke-width:0.264583"
       d="m 139.35625,211.92827 c 0,-39.03353 0.0677,-49.11191 0.33073,-49.2027 0.3054,-0.10543 3.78197,-0.43789 8.26823,-0.79067 11.55674,-0.90876 18.76612,-1.50057 19.90488,-1.63394 l 1.38405,-0.16211 0.82711,1.82178 c 2.16067,4.75909 4.69027,11.61081 6.61398,17.91479 l 1.30605,4.2799 0.005,27.64896 c 0.003,15.20693 0.002,29.14509 -0.003,30.97371 l -0.008,3.32475 -1.38906,0.56504 c -0.76399,0.31077 -5.67531,2.22584 -10.91406,4.25571 -5.23875,2.02987 -9.82266,3.81659 -10.18646,3.97047 -1.55351,0.65714 -15.80412,6.12282 -15.96394,6.12282 -0.0966,0 -0.17565,-22.08983 -0.17565,-49.08851 z"
       id="path18024" /></g></svg>
