<svg xmlns="http://www.w3.org/2000/svg" xml:space="preserve" width="620.313" height="670.797" viewBox="0 0 164.125 177.482"><path d="M127.318 260.212a874.553 874.553 0 0 0-6.346-2.489l-1.592-.618c-19.405-7.53-27.568-10.721-27.98-10.94-.436-.234-.462-1.963-.46-30.6l.001-30.351.765-2.651c1.906-6.61 4.974-15.072 7.333-20.234.983-2.15.983-2.15 1.93-2.004.522.08 4.76.443 9.416.806 4.656.362 10.848.846 13.758 1.075 2.91.23 5.381.505 5.49.613.314.31.115 98.01-.198 98.08-.146.033-1.098-.276-2.117-.687zm18.97-139.112c0-1.897-.568-3.22-1.83-4.26-.887-.73-.902-.776-.523-1.512.911-1.768 2.93-7.25 3.488-9.47 4.597-18.315 19.993-26.828 36.083-19.952 5.31 2.27 8.11 5.639 11.938 14.376a953.67 953.67 0 0 0 1.87 4.243c.262.587.565 1.42.672 1.852l.196.785-.904-.73c-12.17-9.83-33.095-6.308-40.58 6.829-1.743 3.057-7.371 8.278-9.973 9.252-.375.14-.437-.059-.437-1.413zm-25.591.405c-2.589-1.571-6.348-5.363-8.188-8.258-7.95-12.513-27.515-16.632-38.741-8.156-3.048 2.301-2.79 2.172-2.567 1.281.108-.429.41-1.26.673-1.847.263-.587 1.102-2.496 1.865-4.243 3.932-8.999 6.79-12.281 12.786-14.682 14.938-5.981 29.554 1.626 34.565 17.99 1.644 5.365 2.455 7.727 3.478 10.12l1.031 2.413-.932.769c-1.273 1.05-1.791 2.161-1.845 3.962-.06 1.968.011 1.947-2.125.65z" style="fill:#170b28;stroke-width:.264583" transform="translate(-52.49 -83.535)"/><path d="M132.304 127.126c-5.328-.944-8.637-4.421-7.231-7.6 1.701-3.846 16.768-4.107 18.836-.326 2.364 4.322-4.703 9.149-11.605 7.926z" style="fill:#8d5fd3;stroke-width:.264583" transform="translate(-52.49 -83.535)"/><path d="M160.655 130.928c-6.378-.793-13.487-2.479-17.301-4.103-1.38-.587-1.338-.662.673-1.186 2.088-.544 4.084-1.503 6.328-3.04l1.87-1.282h5.093c17.387 0 26.607-4.94 30.992-16.603.466-1.241 1.772-.898 5.286 1.392 6.064 3.952 6.473 8.944 1.267 15.483-5.395 6.775-20.865 10.999-34.208 9.34zm-62.045.247c-14.677-.646-25.785-7.332-27.777-16.72-.799-3.764 2.315-7.784 7.734-9.986 1.982-.806 2.091-.76 2.687 1.14 3.217 10.256 13.835 15.708 30.593 15.708h5.07l2.29 1.53c2.19 1.465 4.15 2.348 6.59 2.967 1.478.376 1.42.555-.398 1.23-7.883 2.93-18.136 4.511-26.789 4.13zm-42.597 21.111-3.308-.145v-24.607l12.536-.068 12.535-.069 2.743 1.392c3.228 1.637 3.131 1.407 1.224 2.906-5.625 4.422-12.042 13.48-14.44 20.38-.174.498-3.363.558-11.29.21zm146.38.237c-.327-.128-.595-.365-.595-.526 0-.554-2.817-6.209-4.319-8.67-2.942-4.821-6.619-9.086-10.1-11.715-1.845-1.392-1.933-1.206 1.325-2.827l2.782-1.383h12.432c12.432 0 12.432 0 12.44.596.087 6.883-.058 23.9-.205 24.042-.11.106-2.879.267-6.153.358-3.274.09-6.191.208-6.482.261-.291.053-.797-.008-1.125-.136zm-62.838 2.777c-.502-.517-.224-26.84.283-26.84 4.371 0 15.507 9.485 21.59 18.39 4.362 6.382 4.903 7.54 3.527 7.54-.473 0-4.61.174-9.195.388-14.897.693-16.004.728-16.205.521zm-16.206-.047c-1.28-.1-18.174-.864-19.116-.864-1.146 0-1.118-.119.768-3.25 6.818-11.315 16.198-20.133 23.97-22.53l.596-.184v27.07l-2.712-.09a125.98 125.98 0 0 1-3.506-.152z" style="fill:#8d5fd3;stroke-width:.264583" transform="translate(-52.49 -83.535)"/><path d="M179.19 179.508a417.58 417.58 0 0 1-1.44-4.349c-6.278-19.16-15.805-34.373-26.703-42.64-2.412-1.83-2.355-1.875 1.32-1.056 9.394 2.095 17.772 2.267 26.451.545l3.592-.713 1.293.88c8.639 5.875 15.442 16.9 19.007 30.802 1.036 4.038 1.037 4.033-1.11 4.256-.983.102-4.168.44-7.078.75l-5.292.565-4.29 5.01c-5.248 6.128-5.564 6.456-5.75 5.95zm-91.635-2.153a658.086 658.086 0 0 1-4.822-5.635l-2.684-3.175-2.956-.307c-13.175-1.369-11.732-.808-10.902-4.236 3.471-14.338 11.318-27.123 19.653-32.02l1.124-.661 3.436.69c8.694 1.748 16.74 1.579 26.417-.555 3.701-.817 3.744-.774 1.188 1.18-11.232 8.588-21.533 25.438-27.37 44.772-.33 1.092-.677 2.08-.772 2.196-.095.117-1.135-.895-2.312-2.249z" style="fill:#170b28;stroke-width:.264583" transform="translate(-52.49 -83.535)"/><path d="M185.13 210.097v-32.929l2.568-2.989c3.09-3.593 2.666-3.284 4.805-3.498 8.24-.825 13.84-1.433 13.919-1.513.189-.188-.922-5.712-1.715-8.53-.446-1.583-.766-2.923-.711-2.978.132-.133 9.768-.885 11.362-.887l1.257-.002v37.009c0 29.287-.07 37.065-.331 37.278-.295.24-3.03 1.326-15.868 6.296-1.998.774-4.022 1.576-4.498 1.784-1.9.827-10.148 3.897-10.458 3.892-.263-.004-.33-6.77-.33-32.934zM79.428 241.535c-2.037-.803-4.3-1.683-5.027-1.955-.728-.272-2.513-.963-3.969-1.536-3.955-1.556-16.864-6.563-17.396-6.748-.44-.152-.78-74.12-.343-74.557.066-.066 1.167-.039 2.447.06 1.28.098 3.518.255 4.974.348 2.886.185 5.159.437 5.159.571 0 .081-.212.867-1.208 4.477-.5 1.81-1.44 6.833-1.306 6.967.05.05 3.463.434 7.586.855 9.231.943 8.247.658 10.192 2.949a280.1 280.1 0 0 0 2.454 2.855c.449.51.875 1.164.948 1.455.38 1.525-.019 65.61-.41 65.664-.218.03-2.064-.602-4.1-1.405zm59.928-29.607c0-39.033.068-49.112.331-49.202.305-.106 3.782-.438 8.268-.791 11.557-.909 18.766-1.5 19.905-1.634l1.384-.162.827 1.822c2.16 4.759 4.69 11.61 6.614 17.914l1.306 4.28.005 27.65c.003 15.206.002 29.144-.003 30.973l-.008 3.325-1.389.565c-.764.31-5.675 2.226-10.914 4.255-5.239 2.03-9.823 3.817-10.186 3.971-1.554.657-15.804 6.123-15.964 6.123-.097 0-.176-22.09-.176-49.089z" style="fill:#170b28;stroke-width:.264583" transform="translate(-52.49 -83.535)"/></svg>