<?xml version="1.0" encoding="UTF-8" standalone="no"?>
<!-- Created with Inkscape (http://www.inkscape.org/) -->

<svg
   width="210.08423mm"
   height="175.32533mm"
   viewBox="0 0 210.08423 175.32533"
   version="1.1"
   id="svg5"
   xml:space="preserve"
   inkscape:version="1.2 (dc2aedaf03, 2022-05-15)"
   sodipodi:docname="Logo-paths.svg"
   xmlns:inkscape="http://www.inkscape.org/namespaces/inkscape"
   xmlns:sodipodi="http://sodipodi.sourceforge.net/DTD/sodipodi-0.dtd"
   xmlns="http://www.w3.org/2000/svg"
   xmlns:svg="http://www.w3.org/2000/svg"><sodipodi:namedview
     id="namedview7"
     pagecolor="#ffffff"
     bordercolor="#000000"
     borderopacity="0.25"
     inkscape:showpageshadow="2"
     inkscape:pageopacity="0.0"
     inkscape:pagecheckerboard="0"
     inkscape:deskcolor="#d1d1d1"
     inkscape:document-units="mm"
     showgrid="false"
     inkscape:zoom="0.70710678"
     inkscape:cx="502.04581"
     inkscape:cy="493.56053"
     inkscape:window-width="1920"
     inkscape:window-height="1017"
     inkscape:window-x="-8"
     inkscape:window-y="-8"
     inkscape:window-maximized="1"
     inkscape:current-layer="layer3"
     showguides="true"><sodipodi:guide
       position="106.39711,63.215585"
       orientation="1,0"
       id="guide7461"
       inkscape:locked="false" /><sodipodi:guide
       position="36.207754,99.389919"
       orientation="0,-1"
       id="guide7463"
       inkscape:locked="false" /></sodipodi:namedview><defs
     id="defs2" /><g
     id="g2059"
     transform="translate(6.7863582,-19.693512)"
     style="display:inline"
     sodipodi:insensitive="true"><path
       id="path354"
       style="display:inline;opacity:1;fill:#549db9;stroke-width:0.203774;stroke-dashoffset:0.879118;paint-order:stroke fill markers"
       inkscape:label="Outside Blue Circle"
       d="M 182.77711,107.35618 A 86.598145,87.662666 0 0 1 96.178963,195.01884 86.598145,87.662666 0 0 1 9.5808182,107.35618 86.598145,87.662666 0 0 1 96.178963,19.693512 86.598145,87.662666 0 0 1 182.77711,107.35618 Z" /><path
       id="path354-6"
       style="display:inline;stroke:#ffffff;stroke-width:4.355;stroke-dashoffset:0.879118;paint-order:stroke fill markers"
       inkscape:label="Black Circle"
       d="M 162.09585,107.35618 A 65.916885,66.72718 0 0 1 96.178963,174.08336 65.916885,66.72718 0 0 1 30.262077,107.35618 65.916885,66.72718 0 0 1 96.178963,40.628998 65.916885,66.72718 0 0 1 162.09585,107.35618 Z" /><g
       inkscape:groupmode="layer"
       id="layer3"
       inkscape:label="Record Grooves"
       style="display:inline;opacity:0.3"
       transform="translate(0,13.888908)"><path
         id="path354-6-3-3-2-5"
         style="display:inline;fill:none;stroke:#ffffff;stroke-width:0.352778;stroke-dashoffset:0.879118;paint-order:stroke fill markers"
         inkscape:label="Black Circle"
         d="M 136.64186,93.46727 A 40.462902,40.9603 0 0 1 96.178963,134.42757 40.462902,40.9603 0 0 1 55.716061,93.46727 40.462902,40.9603 0 0 1 96.178963,52.506969 40.462902,40.9603 0 0 1 136.64186,93.46727 Z" /><path
         id="path354-6-3"
         style="display:inline;fill:none;stroke:#ffffff;stroke-width:0.352778;stroke-dashoffset:0.879118;paint-order:stroke fill markers"
         inkscape:label="Black Circle"
         d="M 155.64153,93.46727 A 59.462563,60.19352 0 0 1 96.178963,153.66079 59.462563,60.19352 0 0 1 36.7164,93.46727 59.462563,60.19352 0 0 1 96.178963,33.27375 59.462563,60.19352 0 0 1 155.64153,93.46727 Z" /><path
         id="path354-6-3-3"
         style="display:inline;fill:none;stroke:#ffffff;stroke-width:0.352778;stroke-dashoffset:0.879118;paint-order:stroke fill markers"
         inkscape:label="Black Circle"
         d="M 145.92088,93.46727 A 49.741917,50.353382 0 0 1 96.178963,143.82065 49.741917,50.353382 0 0 1 46.437046,93.46727 49.741917,50.353382 0 0 1 96.178963,43.113888 49.741917,50.353382 0 0 1 145.92088,93.46727 Z" /><path
         id="path354-6-3-3-2"
         style="display:inline;fill:none;stroke:#ffffff;stroke-width:0.310382;stroke-dashoffset:0.879118;paint-order:stroke fill markers"
         inkscape:label="Black Circle"
         d="M 128.9221,93.46727 A 32.743134,33.145634 0 0 1 96.178963,126.6129 32.743134,33.145634 0 0 1 63.435829,93.46727 32.743134,33.145634 0 0 1 96.178963,60.321636 32.743134,33.145634 0 0 1 128.9221,93.46727 Z" /></g><path
       id="path354-7"
       style="display:inline;fill:#549db9;stroke-width:0.0668388;stroke-dashoffset:0.879118;paint-order:stroke fill markers"
       inkscape:label="inside Blue Circle"
       d="M 124.58356,107.35618 A 28.404596,28.753765 0 0 1 96.178963,136.10994 28.404596,28.753765 0 0 1 67.774366,107.35618 28.404596,28.753765 0 0 1 96.178963,78.602413 28.404596,28.753765 0 0 1 124.58356,107.35618 Z" /></g><g
     id="g7671"
     inkscape:label="Stars"
     style="display:inline;fill:#ffffff;fill-opacity:1"
     transform="translate(4.3021112,-19.694052)"
     sodipodi:insensitive="true"><path
       id="path7511"
       style="display:inline;fill:#ffffff;fill-opacity:1;stroke:none;stroke-width:0.185826;stroke-miterlimit:4;stroke-dasharray:none;stroke-opacity:1"
       d="m 98.663324,22.816342 -1.535307,4.725293 h -4.968688 l 4.019392,2.920235 -1.535306,4.72581 4.019909,-2.920752 4.019396,2.920752 -1.53531,-4.72581 4.01991,-2.920235 h -4.96869 z m -21.880835,2.880444 -0.259932,4.961971 -4.79919,1.28571 4.638476,1.78077 -0.259932,4.961971 3.126941,-3.861263 4.638476,1.780253 -2.706295,-4.166671 3.126941,-3.861263 -4.79919,1.28571 z m 43.761151,0 -2.70578,4.167188 -4.79919,-1.28571 3.12695,3.861263 -2.7063,4.166671 4.63848,-1.780253 3.12694,3.861263 -0.25993,-4.961971 4.63847,-1.78077 -4.79919,-1.28571 z m -64.150604,8.445996 1.033012,4.859652 -4.303096,2.484603 4.9413,0.519348 1.033529,4.859652 2.020548,-4.538741 4.941301,0.519348 -3.692281,-3.324862 2.021065,-4.538741 -4.303097,2.484086 z m 84.540574,0 -3.69228,3.324345 -4.3031,-2.484086 2.02107,4.538741 -3.6928,3.324862 4.9413,-0.519348 2.02107,4.538741 1.03301,-4.859652 4.9413,-0.519348 -4.30258,-2.484603 z m -94.108982,12.177035 -3.513481,3.513481 -4.42712,-2.255677 2.255677,4.42712 -3.512964,3.512964 4.907194,-0.777213 2.255676,4.42712 0.777214,-4.907194 4.907194,-0.777214 -4.426604,-2.255676 z m 103.677392,0 0.77721,4.907711 -4.42712,2.255676 4.9072,0.777214 0.77773,4.907194 2.25567,-4.42712 4.9072,0.777213 -3.51348,-3.512964 2.25567,-4.42712 -4.4266,2.255677 z M 32.793443,61.816545 30.30884,66.119642 25.449189,65.08663 l 3.324344,3.692281 -2.484086,4.30258 4.538741,-2.020549 3.324862,3.692282 -0.519348,-4.941301 4.539258,-2.021065 -4.860169,-1.033012 z m 131.739767,0 -0.51935,4.941301 -4.86017,1.033012 4.53874,2.021065 -0.51935,4.941301 3.32486,-3.692282 4.53926,2.020549 -2.4846,-4.30258 3.32486,-3.692281 -4.86017,1.033012 z m -141.28182,18.600416 -1.286227,4.79919 -4.961454,0.259932 4.166671,2.705778 -1.28571,4.799707 3.861263,-3.126941 4.166671,2.705778 -1.780253,-4.638476 3.861263,-3.126424 -4.961971,0.259932 z m 150.82387,0 -1.78077,4.638476 -4.96146,-0.259932 3.86127,3.126424 -1.78077,4.638476 4.16719,-2.705778 3.86126,3.126941 -1.28623,-4.79919 4.16719,-2.706295 -4.96197,-0.259932 z M 18.848041,100.85292 v 4.96817 l -4.725293,1.53583 4.725293,1.53531 v 4.96817 l 2.920752,-4.0194 4.725293,1.53531 -2.920235,-4.01939 2.920235,-4.01991 -4.725293,1.53531 z m 159.630049,0 -2.92023,4.0194 -4.7253,-1.53531 2.92024,4.01991 -2.92024,4.01939 4.7253,-1.53531 2.92023,4.0194 v -4.96817 l 4.72529,-1.53531 -4.72529,-1.53531 z m -158.59342,20.87935 1.28571,4.79919 -4.166671,2.70578 4.961454,0.25993 1.286227,4.79971 1.780253,-4.639 4.961971,0.26045 -3.861263,-3.12694 1.780253,-4.63848 -4.166671,2.70578 z m 157.55731,0 -3.86126,3.12642 -4.16719,-2.70578 1.78077,4.63848 -3.86127,3.12694 4.96146,-0.26045 1.78077,4.639 1.28571,-4.79919 4.96197,-0.26045 -4.16719,-2.70578 z m -143.28893,18.22783 -3.324862,3.69228 -4.538741,-2.02055 2.484086,4.30258 -3.324344,3.69228 4.859651,-1.03301 2.484603,4.30309 0.519348,-4.9413 4.860169,-1.03301 -4.539258,-2.02106 z m 129.02055,0 0.51883,4.9413 -4.53874,2.02106 4.86017,1.03301 0.51935,4.9413 2.48408,-4.30309 4.86017,1.03301 -3.32486,-3.69228 2.4846,-4.30258 -4.53926,2.02055 z m -118.38399,15.58561 -2.255676,4.42712 -4.907194,-0.77722 3.512964,3.51297 -2.255677,4.42712 4.42712,-2.25568 3.513481,3.51348 -0.77773,-4.90771 4.42712,-2.25567 -4.907194,-0.77722 z m 107.74743,0 -0.77773,4.90719 -4.9072,0.77722 4.42712,2.25567 -0.77721,4.90771 3.51348,-3.51348 4.4266,2.25568 -2.25567,-4.42712 3.51348,-3.51297 -4.9072,0.77722 z m -93.439259,12.30157 -1.033529,4.86017 -4.9413,0.51935 4.303096,2.48409 -1.033012,4.86016 3.692281,-3.32486 4.303097,2.48409 -2.021065,-4.53874 3.692281,-3.32486 -4.941301,0.51934 z m 79.131089,0 -2.02107,4.53874 -4.9413,-0.51934 3.6928,3.32486 -2.02107,4.53874 4.30258,-2.48409 3.6928,3.32486 -1.03353,-4.86016 4.3031,-2.48409 -4.9413,-0.51935 z m -62.126959,8.17935 0.259932,4.96145 -4.638476,1.78077 4.79919,1.28571 0.259932,4.96197 2.706295,-4.16718 4.79919,1.28622 -3.126941,-3.86126 2.706295,-4.16719 -4.638476,1.78077 z m 45.122829,0 -3.12694,3.86126 -4.63848,-1.78077 2.7063,4.16719 -3.12695,3.86126 4.79919,-1.28622 2.70578,4.16718 0.26045,-4.96197 4.79919,-1.28571 -4.63847,-1.78077 z m -26.581325,3.49901 1.535306,4.72581 -4.019392,2.92023 h 4.968688 l 1.535307,4.7253 1.535306,-4.7253 h 4.96869 l -4.01991,-2.92023 1.53531,-4.72581 -4.019396,2.92075 z" /></g><g
     inkscape:label="Text"
     id="layer1"
     style="display:inline"
     transform="translate(6.7863582,-19.693512)"><g
       aria-label="Jukebox_"
       transform="rotate(-11.476279,287.06934,-428.68343)"
       id="text291-1"
       style="font-size:51.4946px;font-family:MingLiU-ExtB;-inkscape-font-specification:MingLiU-ExtB;text-align:center;text-anchor:middle;display:inline;fill:#c43c3c;fill-opacity:1;stroke-width:3.1;stroke-dashoffset:0.879118;paint-order:stroke fill markers"
       inkscape:label="jukebox"><path
         id="path557"
         style="font-size:51.4946px;font-family:'Alameda Script PERSONAL USE';-inkscape-font-specification:'Alameda Script PERSONAL USE';text-align:center;text-anchor:middle;display:inline;opacity:0.5;fill:#8c2a2a;stroke-width:4;stroke-dashoffset:0.879118;paint-order:stroke fill markers"
         d="m 119.54577,88.785385 c -1.54484,0.875408 -4.27399,1.441884 -7.51814,1.596368 -1.07947,4.272893 -7.57969,21.076767 -10.4088,30.031407 -3.038604,4.57722 -7.874063,7.55986 -10.704149,7.55986 -3.347146,0 -4.891663,-2.47167 -5.097641,-5.71583 5.458422,-0.82391 14.62442,-6.5917 15.24235,-13.95541 0.46346,-5.20096 -5.613205,-7.67233 -13.59486,-0.4631 -4.436661,4.0252 -7.27428,8.47245 -8.639455,12.56344 -0.0039,5.6e-4 -0.0079,6.7e-4 -0.01186,0.001 -1.647826,2.57473 -4.788828,7.15757 -6.84861,8.59941 -1.493341,1.08139 -2.832072,0.4637 -1.647697,-2.26551 1.390352,-3.08967 1.95691,-6.59174 -0.566324,-8.34254 3.295652,-1.59634 7.775393,-4.78914 8.753789,-9.21767 1.338858,-5.81889 -4.737421,-6.84871 -9.165951,-4.01651 -2.471739,1.59634 -3.707542,2.83249 -4.737433,4.11985 3.398639,-8.96005 6.64285,-16.890187 7.672741,-19.310431 l -1.18434,-1.184045 c -1.493342,0.875408 -4.840719,1.544671 -9.011777,1.699155 -1.075714,6.454284 -4.533235,16.286671 -9.879031,29.985521 -1.142105,1.76093 -3.222998,4.79335 -5.105968,6.47275 -1.750815,1.59633 -3.192386,1.54475 -2.008011,-1.80239 3.347146,-9.37202 6.693976,-16.83877 8.187318,-20.54638 l -1.132653,-1.18438 c -1.544837,0.87541 -4.325479,1.44189 -7.518142,1.59637 -0.514944,2.00829 -1.184587,4.27419 -2.059994,6.64294 -2.780706,7.31223 -4.531133,12.5645 -7.414828,14.88174 -1.853804,1.54484 -4.016909,0.72087 -2.935524,-2.67778 1.544837,-4.89197 6.848862,-12.41024 7.209323,-19.56798 l -1.699607,-0.61767 c -1.544837,0.87541 -2.728924,1.18449 -5.97308,1.33897 -0.411957,6.74579 -3.810598,11.7922 -7.054754,17.81707 -3.089673,5.71589 -1.544693,11.63739 4.016718,11.63739 2.883694,0 5.561072,-2.21412 7.929821,-5.50977 -0.102989,2.98669 0.875765,5.51029 4.22291,5.51029 2.752056,0 5.58093,-2.50558 7.941742,-5.39187 -0.573253,1.439 -1.157449,2.9029 -1.762353,4.41328 l 9.165653,-5e-5 c 1.13288,-3.96507 2.832292,-9.06304 4.73759,-14.36697 1.699321,-0.30897 3.347471,-0.30915 3.913912,0.41178 0.978396,1.28736 -3.450577,6.02518 -3.038621,10.24772 0.463451,4.8405 6.231352,5.97319 10.041948,3.19248 2.288994,-1.72459 4.346087,-4.51755 6.002446,-7.12495 -0.01283,5.05189 2.785788,8.66964 8.055165,8.66964 3.708592,0 9.60892,-2.59695 14.317577,-8.44456 -0.533762,5.25852 2.07189,8.39341 5.86862,8.39341 3.91358,0 7.36383,-2.52325 10.14454,-5.50993 3.29565,-3.65612 6.43654,-9.57819 7.82689,-15.08811 1.39617,-0.0943 2.7778,-0.34903 4.06527,-0.72336 -5.5166,9.45684 -4.98556,21.16656 2.47494,21.16656 8.65109,0 13.80011,-11.38044 15.49943,-17.92024 2.54976,-0.52155 5.00187,-1.71136 7.05327,-3.02853 -0.33433,2.48889 -0.57492,5.03133 -0.66784,7.35428 -4.84049,3.03818 -9.16572,5.8192 -10.50458,12.71947 l 8.23925,-4e-4 c -0.15449,-2.05978 0.10283,-5.92178 2.31709,-9.11444 0.30897,4.42853 1.85369,10.14431 7.10614,10.14431 5.0296,0 10.30625,-8.35161 12.48233,-12.12125 5.64912,0.29072 8.91188,7.90404 -0.484,14.23287 -5.25245,3.55313 -13.44042,6.84879 -30.33062,6.84879 -26.00476,0 -92.690256,-6.231 -117.459133,-5.04663 -21.6792037,1.02989 -19.1043372,11.58637 -9.577846,13.1312 -0.257473,-1.28736 5.14946,-2.78094 22.24565,-3.19289 22.657601,-0.56644 76.675589,3.0383 108.190259,3.0383 17.14768,0 27.80705,-7.77571 32.90501,-14.21253 7.87867,-9.93845 1.28737,-18.64074 -6.64279,-16.73544 -1.13288,1.75081 -3.14116,4.84045 -5.09796,6.53977 -2.93519,2.52324 -5.87021,0.46307 -6.12768,-3.81098 -0.10299,-1.23587 -0.10343,-2.52286 -4.4e-4,-3.75873 5.87038,-2.26576 11.741,-5.40724 14.52169,-12.66798 -0.72091,-1.44185 -3.60474,-2.88379 -5.92199,-3.7592 -1.9053,6.02487 -4.63445,10.29924 -8.23907,13.13143 0.72092,-4.78899 2.26589,-8.95996 3.29578,-11.48319 l -1.18434,-1.18433 c -1.54484,0.87541 -4.27398,1.44189 -7.51814,1.59637 -0.39971,1.59884 -0.77816,3.45828 -1.10705,5.42692 -2.00153,0.95162 -4.42715,1.72728 -6.77185,1.9878 0.66943,-4.99496 -0.56672,-7.98127 -2.98696,-9.01116 -2.57473,-1.13287 -5.86989,-0.20612 -9.01105,2.11113 -1.6833,1.25337 -3.16934,2.72894 -4.45318,4.33787 -1.68421,0.43432 -3.70103,0.53899 -5.64012,0.34827 0.10299,-1.0299 0.15463,-2.05983 0.0516,-2.98673 -0.72093,-5.6644 -7.87857,-5.66436 -9.11444,-0.25743 -0.56644,2.47174 0.25708,4.89183 2.21387,6.33368 -0.51495,4.686 -2.11088,9.62932 -4.84009,13.6459 -2.62623,3.86209 -6.38574,2.42047 -4.58343,-4.17083 2.67771,-9.578 10.71135,-29.094567 12.20469,-32.802174 z m 22.82203,17.148985 c 0.773,0.17198 1.25846,0.96095 1.38076,2.3674 -1.80231,0.36046 -3.1928,1.59657 -3.70775,3.14141 -0.56644,1.7508 -0.10293,4.37687 2.21432,5.40676 -2.11127,6.74578 -5.04668,10.81405 -7.15796,10.81405 -4.94347,0 -2.16287,-16.7871 5.30383,-21.21563 0.77403,-0.46023 1.43791,-0.63167 1.9668,-0.51399 z M 33.75576,89.763816 c -0.360461,0.05149 -0.669702,0.102949 -1.081658,0.205937 -7.878666,1.184375 -13.74862,-4.170886 -23.481089,-3.604447 -26.622681,1.544836 -31.978477,28.219174 -16.1696511,30.948384 10.0414367,1.75082 13.8521553,-9.88727 7.56982054,-13.18293 -0.10298908,2.11128 -2.72911044,4.11991 -5.92177234,2.93553 C -11.816902,104.64605 -7.3884022,94.19228 -0.1791656,92.956411 10.583195,91.154102 12.333789,96.200663 21.242346,97.230554 11.149415,111.44305 9.2957124,140.07438 -5.998168,144.76039 c -15.86032,4.89198 -18.177434,-15.86057 -5.149314,-13.74929 -0.514945,-6.28234 -7.775959,-8.75421 -13.182887,-4.58315 -10.968338,8.39361 -4.273738,26.57161 13.388891,24.66631 28.939935,-3.08967 31.617687,-42.89535 45.778688,-59.579588 -0.514945,-0.46345 -0.875471,-1.081426 -1.08145,-1.750856 z m 59.655563,18.005574 c 2.144467,0.314 -1.910901,10.63208 -7.543118,12.11898 0.463451,-4.32555 2.832526,-9.21771 6.231165,-11.58646 0.572877,-0.41839 1.005601,-0.57737 1.311953,-0.53252 z m -23.891875,1.57204 c 0.184242,0.0257 0.348527,0.09 0.488528,0.19621 1.544836,1.08138 -0.824097,7.2607 -8.136323,7.41519 2.193346,-4.48002 5.866796,-7.86014 7.647795,-7.6114 z"
         inkscape:label="jukebox-shadow"
         transform="translate(-79.552475,-65.686552)" /><path
         id="path1269"
         style="color:#000000;font-size:51.4946px;font-family:MingLiU-ExtB;-inkscape-font-specification:'Alameda Script PERSONAL USE';text-align:center;text-anchor:middle;display:inline;fill:#ffffff;stroke:none;stroke-width:3.1;stroke-dashoffset:0.879118;-inkscape-stroke:none;paint-order:stroke fill markers"
         inkscape:label="jukebox-stroke"
         d="m 117.24613,83.617043 -1.04905,0.59591 c -1.11307,0.630748 -3.7223,1.248504 -6.8279,1.396389 l -1.14851,0.05474 -0.28143,1.113485 c -0.54604,2.161429 -2.9664,8.849204 -5.43311,15.689043 -1.81272,5.02637 -3.657522,10.16958 -4.886649,14.04406 -1.378675,2.02142 -3.15799,3.72038 -4.881148,4.89007 -1.776696,1.20604 -3.537261,1.79846 -4.408513,1.79846 -1.292034,0 -1.969543,-0.38577 -2.523056,-1.06801 -0.384356,-0.47374 -0.641155,-1.21347 -0.820411,-2.05485 2.803404,-0.72035 5.889534,-2.12798 8.656287,-4.36357 3.257175,-2.63184 6.012678,-6.21686 6.37506,-10.49788 0.1434,-1.6093 -0.220997,-3.14655 -1.103731,-4.33971 -0.882734,-1.193159 -2.26486,-1.981567 -3.841681,-2.216853 -3.153645,-0.470572 -7.031167,1.009625 -11.232573,4.804443 l 9.5e-5,0.002 -0.002,0.002 c -4.551233,4.12914 -7.54009,8.70226 -9.018749,13.03694 -0.804019,1.24975 -1.933099,2.92741 -3.096416,4.46251 -0.884855,1.16764 -1.645428,1.89364 -2.363002,2.5876 0.625062,-1.50895 1.10691,-3.10063 1.10691,-4.71455 0,-1.1111 -0.382819,-2.20145 -0.976298,-3.20122 3.261647,-1.86604 6.946096,-4.86591 7.939433,-9.34398 0.392706,-1.71174 0.27258,-3.27561 -0.379146,-4.53483 -0.652502,-1.26073 -1.805449,-2.114702 -3.064354,-2.531501 -2.517808,-0.833599 -5.511115,-0.232987 -8.068294,1.402411 l -0.002,0.002 -0.0036,0.002 c -0.04451,0.0287 -0.06363,0.0514 -0.107456,0.0799 2.156604,-5.482708 4.60852,-11.713477 5.310525,-13.363191 l 0.410106,-0.962916 -2.771578,-2.77105 -1.033366,0.607003 c -0.919023,0.538739 -4.249016,1.337024 -8.285216,1.486512 l -1.263417,0.0467 -0.209154,1.248384 c -1.026059,6.15635 -4.438522,15.911248 -9.744256,29.537248 -0.961838,1.46179 -2.539743,3.60976 -3.964658,5.12887 3.219333,-8.90331 6.394927,-16.0569 7.87136,-19.72254 l 0.372911,-0.92775 -2.658045,-2.77964 -1.05076,0.59398 c -1.100238,0.62347 -3.774947,1.25067 -6.828311,1.39841 l -1.142634,0.0543 -0.283336,1.1073 c -0.504335,1.96692 -1.160678,4.18215 -2.013743,6.49045 -2.788113,7.33179 -4.701865,12.4197 -6.931182,14.21112 l -0.01,0.0101 -0.01158,0.008 c -0.347537,0.28962 -0.563441,0.3471 -0.665497,0.369 -0.0017,-0.01 -9.21e-4,-0.004 -0.0027,-0.0153 -0.03141,-0.20941 -0.01647,-0.67913 0.203121,-1.3693 l -9.5e-5,-0.002 3.08e-4,-0.002 c 0.687689,-2.17768 2.384858,-5.30293 3.978422,-8.75237 1.593563,-3.44943 3.102375,-7.27184 3.300441,-11.20488 l 0.05906,-1.142813 -3.447707,-1.25363 -0.62288,0.351282 c -1.385296,0.785002 -2.119273,0.990351 -5.28325,1.141021 l -1.388731,0.064 -0.08369,1.38881 c -0.383206,6.27501 -3.586306,11.07115 -6.873408,17.17577 -1.701686,3.14927 -2.21125,6.43863 -1.347357,9.1663 0.864108,2.72833 3.399316,4.75747 6.730173,4.75747 2.660548,0 4.962644,-1.4268 6.984663,-3.51913 0.149359,0.3943 0.225598,0.81195 0.461057,1.17563 0.915328,1.41377 2.644057,2.34352 4.707114,2.34352 1.419684,0 2.733826,-0.43618 3.954404,-1.14346 l -0.06615,0.1648 2.291134,6e-5 10.334176,-9e-5 0.322305,-1.12523 c 1.044037,-3.65412 2.650965,-8.42799 4.398334,-13.33747 0.390787,-0.0362 0.840542,-0.11038 1.11507,-0.09 0.10739,0.008 0.02231,-0.0141 0.09394,0.002 -0.0059,0.0156 -0.0038,0.013 -0.01012,0.0291 -0.215537,0.5494 -0.652836,1.38923 -1.130544,2.34795 -0.955415,1.91741 -2.150545,4.36491 -1.887009,7.06616 l -0.0017,-0.002 c 0.288771,3.01606 2.423228,5.123 4.900073,5.8007 2.476846,0.6777 5.310892,0.16522 7.597936,-1.50371 l 0.0095,-0.008 0.01006,-0.008 c 1.536703,-1.15779 2.923957,-2.66916 4.151574,-4.2678 0.384389,1.12866 0.945741,2.15718 1.697942,3.04137 1.660384,1.9517 4.222762,3.08431 7.27551,3.08431 3.682125,0 8.578834,-1.95984 12.952216,-6.1659 0.194821,0.89317 0.498789,1.71549 0.91107,2.45502 1.281226,2.29821 3.675241,3.65993 6.323921,3.65993 4.57982,0 8.35807,-2.86782 11.27781,-6.00384 l 0.01,-0.0101 0.008,-0.01 c 2.48223,-2.75373 4.77094,-6.56561 6.42097,-10.60194 -0.34012,1.23512 -0.58816,2.45986 -0.74181,3.65128 -0.41998,3.25658 -0.16055,6.2944 1.02731,8.70295 1.18786,2.40856 3.54577,4.11754 6.50785,4.11754 4.56661,0 8.19748,-2.7315 10.87836,-6.16087 -0.42763,1.03958 -0.7742,2.17832 -1.01899,3.43997 l -0.35743,1.84367 1.87875,1.8e-4 9.91025,-2.1e-4 -0.12479,-1.66578 c -0.0683,-0.91015 -0.0246,-2.28399 0.27933,-3.77576 0.25071,0.76245 0.44358,1.54419 0.82987,2.2524 1.25833,2.30692 3.57903,4.22035 6.76751,4.22035 3.69653,0 6.68225,-2.95135 9.14478,-5.97234 1.71171,-2.09988 3.14692,-4.33957 4.15884,-6.03597 1.55753,0.37045 2.66205,1.51568 2.98554,3.04176 0.4296,2.02657 -0.51267,5.11444 -5.1562,8.24222 l -0.002,0.002 c -5.00169,3.3835 -12.77426,6.58203 -29.46283,6.58203 -12.87857,0 -36.07341,-1.55474 -59.097643,-2.96478 -23.024226,-1.41004 -45.85544,-2.68158 -58.43568,-2.08003 -5.217125,0.24801 -9.114123,1.0322 -11.983836,2.18043 2.719861,-3.62016 5.010264,-7.69214 7.073929,-11.92474 6.13585,-12.58468 10.416573,-26.649138 17.13473,-34.564349 l 0.974535,-1.148363 -1.119286,-1.00607 c -0.273066,-0.24576 -0.501088,-0.614761 -0.636433,-1.054633 l -0.390665,-1.265226 -1.31054,0.185307 c -0.335816,0.04797 -0.693371,0.115945 -1.091802,0.209151 C 26.315873,85.745416 23.163797,84.81041 19.496417,83.690894 15.829031,82.571338 11.68476,81.292516 6.5176205,81.593249 -7.3027676,82.395206 -15.913271,89.793776 -18.839958,97.628614 c -1.463343,3.917416 -1.528179,7.969636 -0.02315,11.323956 1.505035,3.35431 4.653295,5.90751 9.037054,6.66431 l -0.00222,-0.002 c 5.6258957,0.98093 9.89279093,-1.8949 11.5825444,-5.58024 0.8448769,-1.84268 1.1022556,-3.88795 0.6406163,-5.79687 -0.4616395,-1.90892 -1.70613115,-3.67671 -3.6661212,-4.704901 l -2.1504376,-1.126829 -0.1192266,2.42355 c -0.042829,0.878 -1.4361828,2.44605 -3.8319674,1.55853 l -0.00213,9e-5 c -1.2242758,-0.45716 -1.7339395,-1.11405 -1.9961081,-2.02725 -0.2623046,-0.913673 -0.1649925,-2.160698 0.3397103,-3.455017 1.0094056,-2.588636 3.5902168,-5.142504 6.5296126,-5.646399 5.130481,-0.858017 7.796773,-0.12905 10.5646172,0.984239 2.2579871,0.908213 4.8654521,2.039336 8.2226941,2.769343 -4.574625,7.340164 -7.4255485,17.084644 -10.7463977,25.777634 -3.5994468,9.42226 -7.758023,17.17231 -14.5763055,19.2614 l -0.00203,0.002 -0.00162,2e-4 c -3.6599798,1.12888 -6.2946498,0.73782 -8.1269038,-0.26207 -1.832253,-0.99989 -2.931463,-2.67374 -3.308899,-4.41776 -0.377436,-1.74402 -0.003,-3.48267 0.992135,-4.62712 0.995103,-1.14446 2.635728,-1.89639 5.504116,-1.43155 l 1.954862,0.3162 -0.161698,-1.97226 c -0.304577,-3.71584 -2.723258,-6.49029 -5.797075,-7.55102 -3.073817,-1.06073 -6.790573,-0.5136 -9.876951,1.86731 -6.029866,4.61778 -7.290519,12.12703 -4.500072,18.07998 2.791165,5.95449 9.62565,10.36484 19.000298,9.35358 6.6422529,-0.70914 12.0423064,-3.30476 16.4668191,-7.0443 -0.045674,1.65533 0.721433,3.26163 1.9410005,4.46224 1.5335214,1.50968 3.7642482,2.55339 6.4103084,2.98248 l 2.207089,0.3595 -0.293176,-1.47271 c 0.531555,-0.22829 1.586592,-0.53784 3.209158,-0.8128 3.319895,-0.56259 8.901385,-1.04079 17.408315,-1.24578 l 0.0016,-2e-4 c 22.431807,-0.56079 76.519827,3.0391 108.152657,3.0391 17.61623,0 28.74548,-8.01585 34.11912,-14.80076 4.20687,-5.3067 4.74599,-10.68354 2.76757,-14.48641 -1.48382,-2.85215 -4.34664,-4.69936 -7.61722,-4.98027 -1.04942,-0.0901 -2.14116,-0.015 -3.24285,0.23594 -3.9e-4,6e-5 -7.3e-4,2.4e-4 -10e-4,3e-4 l -0.68794,0.10553 -0.0415,0.0643 -0.68508,0.16411 0.0628,0.79474 c -1.1636,1.77761 -2.99932,4.44346 -4.52148,5.76777 -6.2e-4,5.3e-4 -10e-4,-4.5e-4 -0.002,9e-5 -1.11455,0.95751 -1.65526,0.87839 -2.21268,0.51733 -0.55774,-0.36127 -1.24743,-1.44705 -1.35581,-3.2461 l 3.6e-4,-0.0173 -0.002,-0.0178 c -0.0715,-0.85857 -0.0355,-1.74563 1.1e-4,-2.62122 5.70194,-2.31341 11.59889,-5.74701 14.42369,-13.1229 l 0.24417,-0.63646 -0.30449,-0.6118 c -0.63773,-1.27546 -1.74715,-2.01508 -2.96091,-2.73197 -1.21376,-0.716894 -2.57599,-1.321158 -3.79895,-1.783166 l -1.53301,-0.578578 -0.49241,1.560519 c -1.05722,3.343115 -2.38548,6.012665 -3.92581,8.223085 0.64337,-2.19175 1.33031,-4.13922 1.89459,-5.52172 l 0.38859,-0.95305 -2.74601,-2.746345 -1.02741,0.580265 c -1.11308,0.630749 -3.72059,1.25043 -6.82618,1.39832 l -1.15014,0.0549 -0.28113,1.11724 c -0.34712,1.38849 -0.67155,2.94996 -0.96074,4.59975 -1.17216,0.46535 -2.47432,0.87415 -3.77399,1.17165 0.0432,-1.6735 -0.0646,-3.21733 -0.51194,-4.48849 -0.64072,-1.82059 -1.88498,-3.232919 -3.49996,-3.923443 -0.8237,-0.361058 -1.68078,-0.559824 -2.55651,-0.609723 -2.63716,-0.150265 -5.44083,1.012008 -7.99012,2.892636 l -0.002,0.002 -0.004,0.002 c -1.60574,1.19562 -3.03702,2.56875 -4.29396,4.0575 -0.99209,0.18407 -2.14124,0.27847 -3.30317,0.2759 0.0104,-0.52332 0.0816,-1.03951 0.0235,-1.56238 l -0.002,-0.0115 -0.002,-0.012 c -0.44157,-3.46952 -3.13979,-5.591367 -5.87713,-5.634679 -1.04278,-0.0165 -2.0579,0.335971 -3.00022,0.86155 1.99648,-5.08024 4.03761,-10.16255 4.6582,-11.703319 l 0.37342,-0.927653 z m -1.10948,3.851889 c -1.961,4.834707 -9.11925,22.287288 -11.74015,31.662058 l -0.002,0.004 -3.1e-4,0.004 c -0.49053,1.79392 -0.63328,3.30887 -0.4529,4.5995 0.18037,1.29063 0.71612,2.43079 1.71267,3.1013 0.99654,0.67052 2.31283,0.66416 3.36553,0.20132 1.0527,-0.46285 1.95599,-1.30624 2.73445,-2.45103 2.90357,-4.27317 4.55962,-9.43371 5.09964,-14.34778 l 0.0976,-0.88873 -0.71883,-0.52929 c -1.45722,-1.07374 -2.06721,-2.80189 -1.62308,-4.73991 0.47309,-2.0698 1.88386,-2.83969 3.21457,-2.81863 1.32792,0.021 2.56479,0.73217 2.84758,2.91619 0.0811,0.74344 0.0447,1.67244 -0.0527,2.64641 l -0.15387,1.54488 1.54468,0.15224 c 0.71724,0.0705 1.41766,-0.0493 2.13874,-0.0467 -0.92359,0.22426 -1.79453,0.54771 -2.75991,0.61294 l -1.12284,0.0763 -0.27549,1.09202 c -1.31813,5.22368 -4.40523,11.01492 -7.46881,14.41783 -2.63978,2.83269 -5.75629,5.00986 -9.00001,5.00986 -1.67685,0 -2.83866,-0.67404 -3.617216,-2.07056 -0.541665,-0.97162 -0.858228,-2.36685 -0.74662,-4.15331 1.055866,-1.36681 2.049736,-2.89053 2.949896,-4.57716 l 0.34575,-0.64852 -0.28322,-0.67761 c -0.26044,-0.62506 -0.6785,-1.08026 -1.17269,-1.39236 1.18342,-3.60127 2.81711,-8.18774 4.42654,-12.65046 2.30276,-6.385192 4.31633,-11.945953 5.15993,-14.935619 2.15721,-0.163027 3.99726,-0.540785 5.55285,-1.113179 z m 50.49827,14.359408 c 0.66041,0.29588 1.34428,0.55778 1.91396,0.89426 0.69901,0.41286 0.95564,0.72799 1.24784,1.02743 -2.31477,5.20767 -6.35399,7.97261 -10.92925,9.97246 3.34344,-2.76393 5.89794,-6.72804 7.76745,-11.89415 z m -7.69374,0.22242 c -1.01839,2.61237 -2.28026,6.22122 -2.93528,10.57243 l -0.58179,3.86305 0.20884,-0.16378 c -0.086,1.22125 -0.10027,2.47104 -3.7e-4,3.68738 0.1507,2.47117 1.05588,4.54736 2.7619,5.6524 1.41794,0.91843 3.26042,0.64415 4.90257,-0.29711 -2.13582,2.45549 -4.54287,4.32239 -6.22284,4.32239 -2.06397,0 -3.14043,-0.94746 -4.04487,-2.6056 -0.90445,-1.65813 -1.3683,-4.01611 -1.51353,-6.09763 l -0.17763,-2.5587 0.0955,-0.0602 0.0329,-0.81646 c 0.0829,-2.07291 0.29402,-4.322 0.58573,-6.54465 1.4086,-0.9455 2.60854,-1.93037 3.51764,-2.79718 l 0.18192,-0.17399 0.11902,-0.22262 c 0.3232,-0.61048 0.59801,-1.39885 0.29882,-2.25368 -0.29919,-0.85483 -0.98603,-1.26972 -1.52945,-1.52332 l -0.85896,-0.40271 -0.53399,0.41732 c 0.0635,-0.29311 0.12726,-0.5819 0.19203,-0.86271 2.13768,-0.17171 3.96753,-0.55202 5.50183,-1.13461 z m -20.48021,-0.71092 c -0.49186,0.13555 -0.98774,0.28338 -1.43748,0.5508 -1.69054,1.00297 -3.10797,2.45278 -4.27485,4.14258 -0.0191,-0.15609 -0.055,-0.31506 -0.11152,-0.47665 -0.15473,-0.44209 -0.41373,-0.7652 -0.70233,-1.01053 0.40216,-0.35044 0.81618,-0.68785 1.24482,-1.00702 l -0.004,0.006 c 1.90578,-1.40589 3.72204,-2.09305 5.28523,-2.20525 z M 67.755742,87.411774 67.75564,87.41228 c -1.240522,2.954417 -4.006371,9.701737 -7.189435,18.09345 l 2.031162,1.15851 c -1.703585,1.53856 -3.419776,3.76216 -4.702754,6.38271 l -1.119315,2.28485 0.138958,-0.004 -0.0138,0.0394 c -1.764436,4.91179 -3.258791,9.48029 -4.396522,13.34153 l -5.787175,-8e-5 c 0.276417,-0.69173 0.525356,-1.32244 0.794987,-1.99898 2.426488,-2.99132 4.320245,-6.27291 5.187388,-7.77765 l 0.468558,-0.81448 -0.503416,-0.79298 c -0.253211,-0.3979 -0.588969,-0.80191 -1.011026,-1.11855 4.690801,-12.09448 7.860048,-21.157082 9.085309,-27.514874 2.89804,-0.170604 5.218818,-0.597015 7.017179,-1.279392 z m 74.605718,16.133136 c 0.0277,0.0701 0.0692,0.0991 0.0955,0.17388 0.0551,0.15653 0.0779,0.37629 0.10776,0.58346 -0.052,-0.26026 -0.12476,-0.50959 -0.20323,-0.75734 z m -2.96635,0.67912 c 0.005,0.0175 0.0114,0.0367 0.009,0.0356 -0.34632,0.16359 -0.71791,0.27779 -1.02523,0.49423 0.0791,-0.0516 0.14846,-0.14992 0.22829,-0.19727 0.50714,-0.30154 0.73097,-0.32426 0.78782,-0.33256 z m 3.33535,0.99669 c 0.14178,1.03777 0.19222,2.23191 -0.0139,3.76954 l -0.26374,1.96657 1.97111,-0.21836 c 1.17027,-0.13003 2.25858,-0.54708 3.38656,-0.86326 -1.46557,0.76886 -3.01349,1.44497 -4.58993,1.76743 l -0.94502,0.19518 -0.24442,0.9338 c -0.80885,3.11287 -2.48584,7.47039 -4.91008,10.91027 -2.42422,3.43987 -5.44392,5.84956 -9.0898,5.84956 -1.90415,0 -2.93712,-0.78209 -3.72859,-2.38689 -0.79146,-1.6048 -1.09757,-4.10297 -0.73226,-6.93563 0.37255,-2.88877 1.4257,-6.09368 3.10113,-9.08814 1.64756,-0.50795 3.1431,-1.20636 4.36386,-2.09016 -0.93655,1.98463 -1.60928,4.10967 -2.04111,6.13951 -0.53633,2.52108 -0.69197,4.90052 -0.31081,6.87098 0.19058,0.98522 0.51138,1.89302 1.13083,2.65045 0.61946,0.75742 1.64065,1.29847 2.69721,1.29847 2.05116,0 3.47803,-1.51802 4.86178,-3.55834 1.38373,-2.04032 2.68498,-4.86028 3.77525,-8.34382 l 0.41377,-1.31863 -1.26358,-0.56026 c -0.74685,-0.33193 -1.12703,-0.84484 -1.34738,-1.50587 -0.21949,-0.65846 -0.19503,-1.45815 -0.0217,-1.99972 0.33057,-0.98339 1.2555,-1.84926 2.53723,-2.1056 l 1.36117,-0.27364 z m -5.2734,0.33414 c -0.61046,0.6428 -1.19054,1.3271 -1.47269,2.17355 l -0.002,0.006 -0.002,0.008 c -0.3912,1.20915 -0.4178,2.59228 0.0312,3.93953 0.30767,0.92302 0.97654,1.75076 1.81062,2.4552 -0.94362,2.76084 -2.00182,5.06242 -3.01391,6.55473 -1.13948,1.68016 -2.2368,2.19711 -2.29691,2.19711 -0.17931,0 -0.15157,0.018 -0.29709,-0.15998 -0.1455,-0.17793 -0.36099,-0.61778 -0.48823,-1.27554 -0.25447,-1.31554 -0.17532,-3.40916 0.29893,-5.63844 0.82394,-3.87303 2.89905,-8.01391 5.43195,-10.26013 z M 30.412249,88.261887 c -6.99699,8.816951 -11.117046,22.374293 -16.900376,34.235963 -2.989115,6.1307 -6.407494,11.76155 -10.7502216,15.99427 -4.3427276,4.23271 -9.5648518,7.10056 -16.4530044,7.83595 l -0.0021,1e-4 c -8.287965,0.89404 -13.631609,-2.83146 -15.861157,-7.58783 -2.229549,-4.75637 -1.352284,-10.53065 3.582169,-14.30679 l 0.002,-0.002 0.0015,3.1e-4 c 2.320545,-1.79013 4.935796,-2.09365 6.972808,-1.3907 1.514959,0.52279 2.713736,1.54688 3.3166,3.09157 -2.626755,0.0564 -4.773281,1.00491 -6.144823,2.5823 -1.738932,1.99992 -2.237398,4.74752 -1.681495,7.31616 0.555901,2.56865 2.195553,5.03543 4.851367,6.48474 2.655411,1.44911 6.256156,1.81811 10.5254792,0.50172 8.47558272,-2.5969 12.8905955,-11.50309 16.5647462,-21.12091 3.6741006,-9.61769 6.6980916,-20.24998 11.4860016,-26.992149 l 1.515858,-2.136842 -2.6018,-0.300952 C 14.656952,91.98347 12.244649,90.585498 9.2206751,89.369188 6.1967009,88.152878 2.6074168,87.260593 -3.0196806,88.20293 l -0.00375,2.93e-4 -0.00193,0.0017 c -4.2698336,0.731971 -7.5096654,4.022353 -8.8947534,7.574435 -0.692545,1.77604 -0.936377,3.67175 -0.429482,5.437392 0.506893,1.76564 1.875956,3.32338 3.8944551,4.07631 l 9.51e-5,0.002 0.00213,-1e-4 c 2.9117559,1.08017 5.7195354,0.0403 7.1051884,-1.88691 0.34982594,0.4563 0.58808629,0.97697 0.72871531,1.55849 0.27698479,1.14535 0.13242302,2.51754 -0.44523561,3.7774 -1.1553174,2.51975 -3.8152422,4.58813 -8.230773,3.81825 l -0.00162,1.9e-4 -0.00222,-0.002 c -3.5206473,-0.6078 -5.6292933,-2.41402 -6.7343863,-4.87698 -1.105093,-2.46294 -1.131369,-5.68521 0.09587,-8.970582 2.454488,-6.570749 9.832384,-13.282589 22.6346504,-14.025467 4.5653196,-0.265706 8.2238766,0.848231 11.8944616,1.968726 3.670585,1.120495 7.393843,2.27299 11.728756,1.621337 l 0.07219,-0.01013 z m 64.364652,13.490293 c 0.788462,0.14927 1.292898,0.49072 1.645083,0.96675 0.375664,0.50777 0.596106,1.22959 0.507783,2.22075 l -2.13e-4,0.004 1.9e-4,0.004 c -0.258382,3.07906 -2.393443,6.0565 -5.236287,8.35356 -1.295547,1.04683 -2.73633,1.88603 -4.136843,2.57972 1.978194,-1.77208 3.4797,-4.13881 4.400279,-6.29278 0.724299,-1.69472 1.200039,-3.12365 0.951235,-4.60748 -0.0622,-0.37096 -0.18422,-0.77874 -0.491972,-1.17401 -0.307753,-0.39527 -0.848271,-0.71876 -1.36526,-0.79446 -1.025933,-0.15022 -1.718083,0.2829 -2.433936,0.80461 -3.936148,2.74999 -6.365372,7.92706 -6.874751,12.68126 l -0.130908,1.21101 -0.01571,0.002 0.0059,0.0956 -0.09969,0.92997 0.156496,-0.041 0.02711,0.43525 c 0.116939,1.84179 0.605985,3.58865 1.713168,4.95331 1.107183,1.36467 2.876353,2.21505 4.931462,2.21505 1.841693,0 3.789181,-0.84353 5.76771,-2.12733 -3.97404,3.74739 -8.272771,5.56671 -10.763526,5.56671 -2.328426,0 -3.860134,-0.75291 -4.914475,-1.99225 -0.936742,-1.10109 -1.508381,-2.68378 -1.582393,-4.65202 0.985402,-1.58834 1.802032,-3.06645 2.433958,-4.16303 l 0.469064,-0.81438 -0.503922,-0.79307 c -0.245567,-0.3859 -0.569639,-0.77728 -0.97422,-1.08947 1.422356,-3.40987 3.931094,-7.0895 7.659648,-10.47226 3.778668,-3.41177 6.929918,-4.30068 8.693447,-4.03753 0.05513,0.008 0.109004,0.0176 0.161568,0.0275 z m 53.951079,11.16466 c -0.12212,1.24899 -0.21808,2.48853 -0.28079,3.68687 -2.35203,1.48995 -4.68249,3.0692 -6.58778,5.19271 1.3125,-2.55908 2.2457,-5.16095 2.87883,-7.3958 1.3977,-0.3637 2.73768,-0.88089 3.98974,-1.48378 z m 25.56325,6.74543 c 0.8041,0.56591 1.51705,1.25267 1.98803,2.15797 1.3301,2.55669 1.2248,6.49911 -2.44699,11.13084 -4.82226,6.08873 -15.01039,13.62511 -31.68949,13.62511 -31.39575,0 -85.344251,-3.60897 -108.228466,-3.03709 l -0.0021,1e-4 c -8.587942,0.207 -14.257089,0.68014 -17.850006,1.28899 -1.796621,0.30445 -3.063151,0.62754 -4.021436,1.05286 -0.349949,0.15532 -0.639198,0.38144 -0.933259,0.6152 -1.6764252,-0.414 -3.077358,-1.08418 -3.8849227,-1.87919 -0.951088,-0.93631 -1.2028005,-1.77677 -0.943429,-2.65406 0.2593713,-0.87729 1.2385441,-2.07507 3.6428366,-3.12295 2.4042921,-1.04787 6.1423611,-1.88953 11.4353361,-2.14098 12.188612,-0.58282 35.085641,0.66906 58.097494,2.07834 23.011852,1.40929 46.161092,2.96848 59.287252,2.96848 17.08975,0 25.69412,-3.39089 31.19739,-7.11312 l 0.002,-0.002 c 5.293,-3.56619 7.20983,-7.89342 6.45516,-11.45345 -0.30018,-1.4161 -1.1046,-2.56762 -2.1053,-3.51533 z m -62.53121,-12.12145 c 0.35311,1.1415 1.00529,2.14732 1.86505,3.0078 -0.56203,4.2657 -2.00367,8.71953 -4.43585,12.29897 -0.53429,0.78517 -1.08373,1.2088 -1.41792,1.35574 -0.33443,0.14704 -0.3402,0.0957 -0.38642,0.0645 -0.0462,-0.0311 -0.27359,-0.24617 -0.37321,-0.959 -0.0994,-0.71114 -0.037,-1.84781 0.37101,-3.34427 l 0.002,-0.004 c 4.7e-4,-0.002 -7.7e-4,-0.002 -2.9e-4,-0.004 0.88012,-3.14687 2.72053,-7.94221 4.37529,-12.4162 z m 10.99828,4.40381 c -0.0629,0.14031 -0.12526,0.28087 -0.18578,0.42157 0.0407,-0.13776 0.084,-0.2756 0.12292,-0.41324 0.021,-0.003 0.0418,-0.006 0.0629,-0.008 z m -50.000084,-9.84471 c 0.088,0.021 0.172459,0.0452 0.253258,0.072 0.646391,0.214 1.038752,0.5313 1.287403,1.01173 0.248651,0.48043 0.384442,1.22667 0.109415,2.42198 l -1.18e-4,0.006 -0.0022,0.008 c -0.797232,3.60854 -4.854204,6.67335 -7.916121,8.15647 l -2.388236,1.15611 2.179318,1.51183 c 0.819345,0.56852 1.084339,1.25732 1.084339,2.39634 0,1.13902 -0.409293,2.62019 -1.046871,4.03703 l -0.0042,0.0102 -0.0037,0.008 c -0.347051,0.79973 -0.55087,1.50637 -0.580242,2.21131 -0.02937,0.70494 0.145804,1.50575 0.744419,2.08372 0.598616,0.57798 1.4533,0.71055 2.099656,0.60555 0.350298,-0.0569 0.62556,-0.2649 0.929427,-0.4119 -0.382956,0.37027 -0.758212,0.8157 -1.146407,1.10925 -1.522795,1.10871 -3.473848,1.42046 -4.947535,1.01724 -1.475358,-0.40369 -2.45799,-1.28278 -2.63267,-3.10722 l -9.5e-5,-0.002 c -0.148419,-1.52129 0.6651,-3.55398 1.57636,-5.38279 0.455629,-0.91441 0.91558,-1.76443 1.242343,-2.59734 0.163382,-0.41645 0.302944,-0.82854 0.353383,-1.32246 0.05044,-0.49392 -0.01012,-1.16469 -0.441401,-1.73217 l -0.008,-0.0101 -0.0075,-0.01 c -0.245638,-0.31263 -0.548259,-0.44583 -0.8399,-0.61345 2.349103,-0.69433 4.138045,-1.97722 5.250026,-3.41624 0.795849,-1.02993 1.287525,-2.1069 1.458736,-3.16193 0.169713,-1.0458 0.0486,-2.30912 -1.03136,-3.08584 -0.90734,-0.66981 -1.990672,-0.55755 -2.864952,-0.24628 0.595532,-0.49198 1.199541,-0.98209 2.124649,-1.5798 0.935244,-0.59779 1.968167,-0.97327 2.927973,-1.14462 l 1.03e-4,-5e-4 c 0.840316,-0.15003 1.624543,-0.14463 2.240556,0.002 z m 16.614716,5.23189 c -0.114657,0.43848 -0.05066,0.52979 -0.267525,1.03721 -0.726211,1.6992 -2.003609,3.53052 -3.404474,4.9046 0.817589,-2.31408 2.121587,-4.44491 3.671999,-5.94181 z m 59.417788,12.74066 -0.0953,0.13674 c -2.05727,2.96629 -2.45318,6.06094 -2.48643,8.44729 l -4.65453,-3e-5 c 1.32535,-4.09509 3.89862,-6.41126 7.23622,-8.584 z M 48.705205,102.09951 c -1.617075,3.90584 -4.567641,10.6198 -7.665906,19.29494 l -4.11e-4,0.002 9.5e-5,0.002 c -0.329501,0.9312 -0.514654,1.68184 -0.521263,2.42208 -0.0066,0.74025 0.268851,1.74204 1.151952,2.21654 0.837511,0.45 1.588491,0.23401 2.162375,-0.0176 -1.964114,2.06907 -4.047203,3.66811 -5.554796,3.66811 -1.284086,0 -1.718372,-0.33344 -2.103281,-0.92795 -0.384909,-0.59452 -0.61549,-1.67076 -0.570339,-2.98012 l 0.126726,-3.71498 c 2.134994,-3.0689 3.577419,-7.52059 5.695354,-13.08997 l 0.0022,-0.006 0.0016,-0.008 c 0.76101,-2.0592 1.299831,-3.95639 1.787342,-5.75968 2.110989,-0.16281 3.934628,-0.53534 5.48826,-1.10151 z m 17.472345,5.81256 c -0.107712,0.41427 -0.285822,0.93497 -0.728496,1.50784 -0.604907,0.78282 -1.642326,1.47544 -2.941324,2.00775 0.738632,-1.00745 1.507971,-1.88843 2.226725,-2.52932 0.578757,-0.51606 1.05745,-0.79452 1.443095,-0.98627 z M 35.060492,102.1209 c -0.367289,2.91015 -1.433283,5.98055 -2.793067,8.92394 -1.534727,3.32209 -3.261786,6.40292 -4.118933,9.11721 -0.320089,1.00747 -0.442425,1.91416 -0.314703,2.76564 0.1279,0.85267 0.567547,1.68194 1.281197,2.17212 1.148168,0.78864 2.45165,0.46305 3.594283,-0.18779 -2.212128,3.04028 -4.520279,4.77527 -6.584243,4.77527 -2.23055,0 -3.248974,-0.932 -3.775219,-2.59357 -0.526243,-1.66157 -0.266022,-4.19176 1.120949,-6.75766 l 0.002,-0.002 c 2.996118,-5.56421 6.236463,-10.61831 7.013602,-17.15205 1.94669,-0.16976 3.388745,-0.50909 4.5741,-1.06089 z m 35.228496,24.91235 -0.02163,0.0156 c 0.0045,-0.003 0.0094,-0.009 0.01402,-0.0119 0.0024,-0.002 0.0052,-0.002 0.0076,-0.004 z m -36.73633,-2.53532 -0.02154,0.0178 c 0.0042,-0.003 0.0077,-0.008 0.01189,-0.0118 0.003,-0.002 0.0066,-0.003 0.0096,-0.006 z"
         transform="translate(-79.552475,-65.686552)" /><path
         id="path1319"
         style="font-family:'Alameda Script PERSONAL USE';-inkscape-font-specification:'Alameda Script PERSONAL USE';display:inline;fill:#c43c3c;fill-opacity:1"
         d="m 37.514273,19.639983 c -1.544836,0.875407 -4.273985,1.441884 -7.518141,1.596368 -1.079469,4.272892 -7.579691,21.076758 -10.408799,30.031408 -3.038598,4.577217 -7.87406,7.559858 -10.7041474,7.559858 -3.3471456,0 -4.8916628,-2.471674 -5.097641,-5.71583 5.458422,-0.823913 14.6244184,-6.591694 15.2423524,-13.955414 0.463452,-5.20095 -5.613208,-7.672333 -13.5948625,-0.463097 -4.43683783,4.025357 -7.2744452,8.472829 -8.6395573,12.563945 -0.00375,5.38e-4 -0.00751,3.03e-4 -0.011252,8.79e-4 -1.6478254,2.574728 -4.7893342,7.157463 -6.8491162,8.59931 -1.493341,1.081386 -2.832072,0.463696 -1.647697,-2.265515 1.390352,-3.089673 1.9569091,-6.591726 -0.566324,-8.342542 3.2956513,-1.59633 7.7758988,-4.789032 8.7542951,-9.217564 1.3388582,-5.818884 -4.7379261,-6.848815 -9.1664571,-4.016615 -2.471738,1.596332 -3.707542,2.832492 -4.737433,4.119855 3.39864,-8.960051 6.642851,-16.890189 7.6727412,-19.310432 l -1.1843392,-1.184325 c -1.493343,0.875407 -4.840719,1.54467 -9.011777,1.699154 -1.075714,6.454284 -4.533234,16.28667 -9.879031,29.985517 -1.142105,1.760939 -3.222998,4.793349 -5.105968,6.472754 -1.750815,1.596332 -3.192385,1.54475 -2.008011,-1.802394 3.347146,-9.372008 6.694482,-16.838667 8.187824,-20.546274 l -1.133159,-1.184481 c -1.544836,0.875408 -4.32548,1.441885 -7.518142,1.596369 -0.514945,2.008287 -1.184587,4.274191 -2.059994,6.642941 -2.780705,7.312226 -4.531133,12.564488 -7.414828,14.881742 -1.853804,1.544837 -4.01691,0.72086 -2.935524,-2.67778 1.544837,-4.891982 6.848862,-12.41024 7.209323,-19.567982 l -1.699101,-0.617571 c -1.544836,0.875408 -2.72943,1.184389 -5.973586,1.338873 -0.411957,6.745785 -3.810599,11.792204 -7.054754,17.817066 -3.089673,5.715894 -1.544692,11.637394 4.016718,11.637394 2.883695,0 5.561073,-2.214123 7.929821,-5.509774 -0.102989,2.986685 0.875765,5.510295 4.222911,5.510295 2.752054,0 5.58093,-2.50559 7.941741,-5.391873 -0.573253,1.438999 -1.157449,2.902894 -1.762353,4.413276 l 9.16616,5.9e-5 c 1.13288,-3.96508 2.831785,-9.063139 4.737083,-14.367077 1.699321,-0.308967 3.347472,-0.309141 3.913912,0.411783 0.978397,1.287363 -3.450071,6.025272 -3.038115,10.247825 0.463451,4.840488 6.230845,5.973078 10.041442,3.192372 2.2891579,-1.724708 4.3466357,-4.517797 6.0030548,-7.125353 -0.013,5.052133 2.7855223,8.670147 8.0550631,8.670147 3.7085917,0 9.6084151,-2.597055 14.3170751,-8.444662 -0.533766,5.258515 2.071887,8.393408 5.868611,8.393408 3.913586,0 7.363835,-2.523247 10.144542,-5.509931 3.29565,-3.656113 6.436539,-9.578187 7.826893,-15.088103 1.39617,-0.09434 2.777803,-0.349031 4.065274,-0.723363 -5.516603,9.456837 -4.985563,21.166559 2.474939,21.166559 8.651084,0 13.800612,-11.380334 15.499933,-17.920142 2.549754,-0.521541 5.001363,-1.711455 7.052762,-3.028627 -0.33433,2.488894 -0.574921,5.031328 -0.667839,7.354279 -4.840488,3.038178 -9.16572,5.819199 -10.504577,12.719468 l 8.239248,-4.02e-4 c -0.154484,-2.059782 0.102824,-5.921773 2.31709,-9.114435 0.308968,4.42853 1.853691,10.144311 7.106135,10.144311 5.029606,0 10.306255,-8.351613 12.482335,-12.121256 5.64936,0.290397 8.912081,7.90391 -0.484003,14.232878 -5.252444,3.553124 -13.44041,6.848787 -30.330621,6.848787 -26.004746,0 -92.690253,-6.231 -117.45913,-5.046627 -21.679204,1.029891 -19.104338,11.586356 -9.577846,13.131193 -0.257473,-1.287364 5.149461,-2.780929 22.24565,-3.192886 22.657602,-0.56644 76.675595,3.038297 108.190259,3.038297 17.147684,0 27.807054,-7.775712 32.905014,-14.212531 7.878661,-9.938448 1.287362,-18.640735 -6.642798,-16.735437 -1.13288,1.750815 -3.141161,4.840448 -5.097954,6.539767 -2.935189,2.523234 -5.870208,0.46307 -6.127681,-3.810977 -0.102989,-1.235869 -0.103427,-2.522863 -4.38e-4,-3.758731 5.870378,-2.265761 11.740985,-5.407245 14.521692,-12.667977 -0.720925,-1.441846 -3.604742,-2.883793 -5.921997,-3.759201 -1.905298,6.024862 -4.634445,10.299231 -8.239063,13.131431 0.720924,-4.788992 2.265885,-8.959965 3.295776,-11.483197 l -1.184339,-1.184325 c -1.544837,0.875407 -4.273985,1.441884 -7.518142,1.596368 -0.39971,1.598842 -0.77816,3.458282 -1.107052,5.426918 -2.001525,0.951621 -4.427144,1.727283 -6.77185,1.987806 0.66943,-4.994971 -0.566213,-7.981165 -2.986457,-9.011056 -2.574727,-1.132879 -5.870386,-0.206228 -9.011553,2.111027 -1.683301,1.253366 -3.16934,2.728934 -4.453182,4.337865 -1.68421,0.434318 -3.701023,0.539 -5.640119,0.348269 0.10299,-1.029891 0.154636,-2.059824 0.05164,-2.986726 -0.720923,-5.664401 -7.878567,-5.664358 -9.114435,-0.257431 -0.566441,2.471739 0.257577,4.891932 2.21437,6.33378 -0.514945,4.686003 -2.111382,9.629225 -4.840592,13.645799 -2.626223,3.862091 -6.38524,2.420571 -4.58293,-4.170732 C 29.120963,44.04875 37.154091,24.53207 38.647433,20.824463 Z m 22.822033,17.14898 c 0.773001,0.171984 1.25846,0.960958 1.38076,2.367403 -1.802309,0.360462 -3.192807,1.596571 -3.707752,3.141408 -0.56644,1.750815 -0.102929,4.376874 2.214325,5.406765 -2.111276,6.745786 -5.046686,10.814044 -7.157963,10.814044 -4.943476,0 -2.162878,-16.787095 5.303831,-21.215627 0.774028,-0.460232 1.437904,-0.631666 1.966799,-0.513993 z M -48.275735,20.618414 c -0.360461,0.05149 -0.669195,0.103051 -1.081152,0.20604 -7.878665,1.184375 -13.749126,-4.170991 -23.481595,-3.60455 -26.622681,1.544836 -31.978478,28.219174 -16.169651,30.948386 10.041436,1.750814 13.852155,-9.887281 7.56982,-13.182932 -0.102989,2.111276 -2.72911,4.119904 -5.921772,2.93553 -6.488313,-2.420245 -2.059812,-12.874011 5.149424,-14.109879 10.762361,-1.802309 12.512955,3.244252 21.421512,4.274143 -10.092932,14.212495 -11.946633,42.843829 -27.240514,47.529833 -15.860317,4.891981 -18.177437,-15.860569 -5.149314,-13.749292 -0.514945,-6.282335 -7.775963,-8.754205 -13.182883,-4.583147 -10.96834,8.393611 -4.27374,26.571613 13.388887,24.666315 28.939935,-3.089673 31.617687,-42.895358 45.778688,-59.579591 -0.514945,-0.463452 -0.875472,-1.081427 -1.08145,-1.750856 z m 59.655563,18.005577 c 2.144466,0.313996 -1.910902,10.63207 -7.5431177,12.118976 0.4634509,-4.325543 2.8325248,-9.217712 6.2311647,-11.58646 0.572877,-0.418393 1.005601,-0.577372 1.311953,-0.532516 z m -23.891368,1.572142 c 0.184241,0.02573 0.34802,0.08989 0.488021,0.196103 1.544836,1.081386 -0.824097,7.260709 -8.136323,7.415192 2.193346,-4.480025 5.867302,-7.860034 7.648302,-7.611295 z"
         inkscape:label="jukebox-words" /></g><g
       aria-label="title strips"
       transform="rotate(-11.476279)"
       id="text291-7-1"
       style="font-size:16.1622px;font-family:MingLiU-ExtB;-inkscape-font-specification:MingLiU-ExtB;text-align:center;text-anchor:middle;display:inline;fill:#3c3c3c;stroke-width:1.25545;stroke-dashoffset:0.879118;paint-order:stroke fill markers"
       inkscape:label="titlestrips"><path
         id="path1468"
         style="color:#000000;font-size:16.1622px;font-family:MingLiU-ExtB;-inkscape-font-specification:'Alameda Script PERSONAL USE';text-align:center;text-anchor:middle;display:inline;fill:#c43c3c;stroke:none;stroke-width:1.25545;stroke-dashoffset:0.879118;-inkscape-stroke:none;paint-order:stroke fill markers"
         d="m 102.52279,157.70958 c -0.16889,-0.029 -0.3417,-0.0278 -0.50694,0.004 l -5.1e-4,-1e-4 c -0.37772,0.0718 -0.71396,0.28052 -0.98979,0.57419 -0.55166,0.58734 -0.89087,1.51715 -0.89087,2.73619 0,0.26001 0.0365,0.46855 0.0683,0.68145 -0.608648,1.20619 -1.51703,2.86059 -2.312801,4.18183 0.376899,-1.08999 0.655277,-2.27668 0.486818,-3.36927 l -9.5e-5,-0.002 c -0.126549,-0.86269 -0.591194,-1.58098 -1.322234,-1.79078 -0.731585,-0.20996 -1.501068,0.0802 -2.222671,0.64449 l -0.002,0.002 9.5e-5,0.002 c -0.160574,0.12696 -0.271941,0.29789 -0.429553,0.43535 l 0.0098,-0.14459 -0.885105,-0.92584 -0.425846,0.24048 c -0.235544,0.13347 -0.332032,0.18679 -0.54309,0.23618 -0.193291,0.0452 -0.506264,0.0813 -1.04679,0.0991 0.102282,-0.0549 0.193595,-0.11783 0.257805,-0.20235 0.295859,-0.38945 0.405513,-0.84797 0.394567,-1.26558 -0.01309,-0.52353 -0.315734,-1.02307 -0.765476,-1.28912 -0.44974,-0.26604 -1.010002,-0.33589 -1.625307,-0.23822 l -0.0019,0.002 -0.0015,-3e-4 c -1.128918,0.18473 -1.995631,1.06319 -1.926237,2.11153 0.02941,0.53774 0.352476,1.0443 0.828479,1.30085 0.06579,0.0355 0.166509,-0.002 0.236367,0.0253 -0.310212,10e-4 -0.453957,0.0503 -0.791092,0.0292 l -0.49985,-0.0314 -0.134687,0.45303 c -0.07482,-0.46199 -0.303593,-1.04573 -0.959189,-1.27519 l -0.343414,-0.12139 -0.275644,0.23827 c -0.204857,0.1779 -0.594207,0.37871 -0.982229,0.4824 -0.07084,0.0189 -0.102502,-0.004 -0.172009,0.008 0.10444,-0.23588 0.253599,-0.43125 0.314436,-0.68388 0.07377,-0.30632 0.112296,-0.62634 0.03887,-0.96288 -0.07342,-0.33653 -0.300003,-0.68905 -0.640373,-0.88458 l -0.0022,-0.002 -0.0017,-0.002 c -0.255543,-0.14426 -0.531901,-0.17259 -0.793363,-0.13101 -0.261461,0.0416 -0.509556,0.15427 -0.707032,0.29307 -0.39495,0.27759 -0.708628,0.67145 -0.952761,1.11903 -0.187565,0.34387 -0.33162,0.71965 -0.398681,1.11183 l -0.214962,0.0718 c 0.206513,-0.49332 0.474991,-1.13358 0.578283,-1.3965 l 0.150495,-0.38285 -1.005981,-1.00574 -0.417957,0.24576 c -0.277335,0.16257 -1.109697,0.36876 -2.072112,0.41457 l -0.462916,0.0231 -0.115111,0.44751 c -0.108114,0.42044 -0.363773,1.16785 -0.62316,1.91364 -0.130498,-0.0155 -0.302543,-0.0287 -0.398662,-0.0467 l -0.491769,-0.0919 -0.853973,1.96486 0.677827,0.20141 c 0.06798,0.0204 0.209266,0.0308 0.29123,0.0486 -0.361342,0.93025 -0.743042,1.88858 -1.061403,2.65412 -0.06717,0.07 -0.135094,0.10476 -0.202534,0.18984 0.01468,-1.60602 -0.554838,-3.17907 -1.278918,-4.6326 0.222269,-0.50423 0.446679,-1.08139 0.531051,-1.70928 0.0497,-0.36986 0.06176,-0.7405 -0.01554,-1.10523 -0.07729,-0.36472 -0.27085,-0.75673 -0.644727,-0.9904 -0.305165,-0.19073 -0.700177,-0.2372 -1.032941,-0.13273 -0.332764,0.10447 -0.60038,0.32866 -0.806559,0.60929 -0.411717,0.5604 -0.612959,1.36783 -0.541193,2.37479 5e-5,7.7e-4 4.6e-5,0.001 9.6e-5,0.002 5.6e-5,7.8e-4 -4.69e-4,0.001 -4.12e-4,0.002 0.02809,0.42715 0.165612,0.71015 0.287234,1.00588 -0.527548,1.21788 -1.431334,2.81317 -2.417719,4.25966 -0.281914,0.10348 -0.583351,0.15376 -0.801089,0.40053 l -0.0019,0.002 c -0.347392,0.39702 -0.450888,0.9015 -0.536827,1.39489 -0.599354,0.69377 -1.152506,1.24671 -1.535094,1.50176 l -0.351845,0.2344 0.08404,0.41201 c 0.09343,0.46718 0.374936,0.72497 0.640505,0.94367 0.265569,0.2187 0.511581,0.37674 0.831829,0.46101 l 0.381275,0.10114 0.255753,-0.29874 c 0.155165,-0.18103 0.328474,-0.40457 0.494215,-0.611 0.48358,0.49924 1.082151,0.8968 1.867051,0.92534 l 0.0058,1.2e-4 0.0063,2.2e-4 c 1.069472,0.0191 2.239768,-0.41574 3.150083,-1.33997 0.277069,-0.11794 0.549803,-0.26551 0.816301,-0.4391 0.04832,0.40321 0.173758,0.80444 0.451527,1.14207 0.188897,0.22961 0.546916,0.2584 0.849331,0.367 l 1.29e-4,0.26948 0.626928,2e-4 c 1.246002,0 2.240396,-0.94932 3.084128,-1.90598 0.39825,-0.45155 0.754466,-0.92166 1.051326,-1.34739 -0.249914,1.33091 0.09924,2.47398 0.983809,2.98761 0.940081,0.54585 2.194007,0.20695 3.251626,-0.8142 l 0.002,-0.002 0.002,4.1e-4 c 0.03922,-0.0383 0.07895,-0.0789 0.118823,-0.12035 0.07419,0.20284 0.179063,0.39699 0.326494,0.57355 0.303329,0.36327 0.786258,0.58985 1.33079,0.624 -0.129257,0.27103 -0.253505,0.54908 -0.371837,0.83675 -0.402116,0.97503 -0.479308,1.81579 -0.21267,2.49422 0.266845,0.67897 0.945185,1.10334 1.634755,1.10334 0.74288,0 1.352384,-0.44069 1.853581,-0.99784 0.501196,-0.55714 0.913441,-1.273 1.204852,-2.04126 l -1.98e-4,-0.002 0.002,-0.002 c 0.203337,-0.5458 0.38756,-1.13576 0.576375,-1.71696 0.453859,0.24985 0.944087,0.38162 1.386482,0.32631 0.765649,-0.0937 1.484613,-0.51331 2.152562,-1.14069 0.533235,-0.0982 1.048886,-0.30289 1.537321,-0.59327 0.353188,0.94103 1.264926,1.69853 2.481992,1.73779 l 0.0099,4.4e-4 c 1.069022,0.0191 2.238422,-0.41687 3.148572,-1.34029 1.23432,-0.52486 2.38302,-1.62972 3.26343,-3.06446 l 0.21118,-0.34153 -0.2227,-0.33418 c -0.19813,-0.2971 -0.52165,-0.62738 -1.10176,-0.58594 l -0.29498,0.0219 -0.17147,0.24202 c -0.0842,0.11837 -0.16941,0.14515 -0.2542,0.25212 0.0145,-1.58336 -0.54475,-3.13181 -1.25397,-4.56847 0.23479,-0.44972 0.58362,-1.06266 0.85382,-1.73815 0.15375,-0.38436 0.27811,-0.76697 0.31026,-1.16458 0.0321,-0.39762 -0.0591,-0.90576 -0.46288,-1.21081 -0.17862,-0.13495 -0.38886,-0.22173 -0.60601,-0.25908 z m -42.92292,-1.65889 -0.424128,0.2424 c -0.304807,0.17272 -1.136517,0.37415 -2.082162,0.41991 l -0.462607,0.0216 -0.115324,0.45117 c -0.04705,0.18624 -0.140559,0.48739 -0.262953,0.85885 -0.05582,-0.008 -0.111696,-0.0156 -0.166845,-0.0249 0.07988,-0.19672 0.19389,-0.46712 0.240506,-0.59765 l 0.130581,-0.36527 -0.962706,-1.00592 -0.423717,0.24037 c -0.304807,0.17272 -1.136319,0.37578 -2.081964,0.42154 l -0.459465,0.0217 -0.116829,0.44559 c -0.05223,0.19848 -0.17832,0.59398 -0.295077,0.96254 -0.423513,0.0435 -0.832815,0.0863 -1.213733,0.0383 -0.365589,-0.3558 -0.863941,-0.5105 -1.325533,-0.51484 -0.495078,-0.005 -0.979279,0.13392 -1.407358,0.3713 -0.114598,-0.0283 -0.232055,-0.0539 -0.354187,-0.0761 0.064,-0.15727 0.165462,-0.41633 0.203041,-0.50402 l 0.164272,-0.38058 -0.980385,-1.02533 -0.424121,0.23977 c -0.304807,0.17272 -1.136423,0.37628 -2.082067,0.42204 l -0.45683,0.0217 -0.118949,0.44305 c -0.03049,0.11433 -0.109506,0.3568 -0.168094,0.54485 -1.019755,-0.0475 -2.132929,-0.11642 -3.121044,-0.24976 -1.138396,-0.15363 -2.140331,-0.42753 -2.365595,-0.56832 -0.09682,-0.0605 -0.07982,-0.16495 -0.07574,-0.26585 l -1.4e-4,-0.30059 -1.093945,-0.1699 0.433467,-0.45723 c -1.165676,0.0583 -2.160433,0.63486 -2.700969,1.4628 -0.270268,0.41397 -0.426482,0.90482 -0.38091,1.41389 0.0455,0.50823 0.303455,1.01221 0.738092,1.40062 4.41e-4,4e-4 0.0016,-4.9e-4 0.0021,-1e-4 4.74e-4,4.2e-4 -3.8e-4,0.002 9.5e-5,0.002 0.755797,0.67659 1.817538,0.81601 3.003874,0.84767 1.186787,0.0317 2.542858,-0.0751 3.947084,-0.12303 l 0.572556,-0.0177 c -0.883703,2.41313 -2.000036,5.34818 -2.490221,6.43748 l 9.6e-5,0.002 -0.0023,0.004 c -0.316605,0.72368 -0.602264,1.71256 -0.548412,2.6623 0.02692,0.47488 0.142174,0.96214 0.470349,1.36103 0.328175,0.39889 0.872132,0.63679 1.476894,0.63679 0.940937,0 1.713618,-0.55047 2.372854,-1.23359 0.07468,0.21423 0.182914,0.41973 0.337955,0.60541 0.189381,0.22681 0.546547,0.25424 0.847321,0.36132 l 3.4e-5,0.26735 0.629056,1.1e-4 c 0.712479,0 1.331994,-0.34853 1.874872,-0.79104 0.182491,-0.14876 0.316227,-0.35453 0.484744,-0.52539 0.03264,0.10224 -0.0113,0.21301 0.03679,0.31225 0.27673,0.57113 0.928134,1.00413 1.7071,1.00413 0.915378,0 1.671693,-0.52184 2.319084,-1.17912 0.07201,0.19126 0.171861,0.3747 0.30966,0.54219 0.328175,0.3989 0.872131,0.63679 1.476894,0.63679 1.203896,0 2.132402,-0.90204 2.899759,-1.82899 0.122195,0.30294 0.287105,0.58213 0.496725,0.82853 0.548745,0.64503 1.399195,1.01787 2.390337,1.01787 1.800491,0 4.383191,-1.3944 6.015871,-4.45352 l 0.140521,-0.2636 -0.115349,-0.27336 c -0.207478,-0.49796 -0.675571,-0.6933 -1.111073,-0.6933 l -0.337989,-7e-5 -0.185363,0.27928 c -0.426652,0.6436 -0.992949,1.18677 -1.535349,1.55496 -0.542401,0.36819 -1.080876,0.54085 -1.304681,0.54085 -0.370754,0 -0.533243,-0.10038 -0.681744,-0.28342 -0.09157,-0.11286 -0.125883,-0.3596 -0.179457,-0.56796 0.864948,-0.24753 1.782899,-0.57072 2.619062,-1.24635 1.041455,-0.84151 1.934683,-1.99576 2.052793,-3.39461 0.04704,-0.53256 -0.07523,-1.05143 -0.375009,-1.45663 -0.300158,-0.40572 -0.770313,-0.67353 -1.296872,-0.7521 -1.053119,-0.15714 -2.302729,0.33469 -3.640581,1.54306 l -0.0019,0.002 c -1.44164,1.30794 -2.394298,2.7579 -2.867964,4.14241 -0.143208,0.2289 -0.40844,0.50337 -0.626404,0.7972 1.219972,-3.26317 3.432232,-8.8061 3.851674,-9.84748 L 60.5744,157.0685 Z m 40.90388,9.17019 c -0.045,0.37993 0.0606,0.62256 -0.0311,1.00769 -0.12595,0.52883 -0.34941,0.77654 -0.535367,1.24227 -0.102334,-0.19551 -0.206495,-0.35102 -0.363012,-0.49238 0.292325,-0.54748 0.617429,-1.14427 0.929479,-1.75758 z m -13.218409,-2.40046 c -0.391534,1.14346 -0.940304,2.34705 -1.484182,3.65348 -0.249678,0.41293 -0.598137,0.89112 -0.945369,1.29561 -0.08459,0.0985 -0.131047,0.11676 -0.215146,0.20521 0.461384,-1.08648 1.984246,-4.10298 2.644697,-5.1543 z m 7.286771,1.75357 c -0.12625,0.5483 -0.366927,1.25057 -0.636554,1.84975 -0.193795,0.42622 -0.462297,0.95871 -0.757587,1.40439 -0.286046,0.43173 -0.609132,0.74322 -0.795372,0.83987 0.130133,-0.46393 0.24481,-0.89292 0.314591,-1.12099 0.641421,-1.21527 1.253527,-2.2134 1.734437,-2.82647 0.05869,-0.0748 0.08588,-0.0834 0.140485,-0.14655 z m -12.728984,-2.06064 c 0.02758,0.0512 0.05439,0.10263 0.0788,0.15468 -0.526301,1.25173 -1.235017,2.53699 -1.939448,3.72979 l -0.01395,0.022 c -0.262612,0.40585 -0.734018,0.99601 -1.153886,1.48633 0.450225,-1.22221 0.993615,-2.58775 1.525076,-3.88088 0.149951,-0.0109 0.304417,-0.0159 0.449573,-0.0353 l 0.179659,-0.0252 0.138369,-0.11534 c 0.248473,-0.20707 0.359481,-0.41688 0.492403,-0.68519 0.09815,-0.19811 0.185624,-0.41616 0.243398,-0.65085 z m 8.560728,2.33545 c -0.100356,0.49361 -0.223967,1.00731 -0.372787,1.5479 -0.01171,0.0206 -0.02381,0.0403 -0.03555,0.0608 -0.126256,0.18262 -0.331794,0.40211 -0.497837,0.63663 0.310371,-0.79046 0.620119,-1.56353 0.90617,-2.24533 z m -6.641903,-1.09112 c -0.08266,0.0895 -0.155967,0.18295 -0.244448,0.27941 0.04922,-0.0899 0.11688,-0.19198 0.164084,-0.28096 l 1.03e-4,-5.1e-4 c 0.02904,0.004 0.05155,-0.002 0.08026,0.002 z m -46.597744,-7.45076 c -0.0024,0.0115 0.002,0.0231 -2.03e-4,0.0348 l -0.02928,-0.004 z m 18.207989,4.25133 c -0.755731,2.08047 -1.695158,4.5395 -2.27266,5.92429 -0.141537,0.23246 -0.413427,0.51337 -0.63669,0.81409 0.718007,-1.93243 1.724309,-4.51887 2.6075,-6.72426 0.104849,-0.006 0.204889,-0.0107 0.30185,-0.0141 z m -8.275567,0.0131 c 0.08157,0.19012 0.19462,0.37393 0.340774,0.54218 l 0.0021,-1e-4 c 0.38824,0.44506 0.932521,0.56746 1.497963,0.60574 -0.476408,0.0584 -1.038658,0.11621 -1.810343,0.068 l -0.49833,-0.031 -0.142368,0.48047 c -0.390231,1.3187 -1.03713,2.70976 -1.675511,4.24266 -0.141767,0.2347 -0.416688,0.51965 -0.6429,0.8239 0.717755,-1.93496 1.726129,-4.53054 2.609225,-6.72496 0.111356,-0.004 0.216211,-0.005 0.319362,-0.007 z m 3.815417,0.93069 c -0.158472,0.42736 -0.287653,0.73887 -0.449208,1.1659 l -0.373175,-1.00593 c 0.270615,-0.0368 0.545303,-0.1006 0.822383,-0.15997 z m 21.242426,4.41602 c -0.04114,0.20602 0.0094,0.36155 -0.04339,0.56437 -0.120646,0.46334 -0.316641,0.66965 -0.482189,1.07642 -0.04372,-0.12914 -0.07872,-0.25363 -0.144359,-0.36943 0.2585,-0.41538 0.431678,-0.84496 0.669941,-1.27136 z M 50.4611,162.67389 c -0.523483,1.38353 -1.081503,2.89205 -1.453332,3.77944 -0.120337,0.18524 -0.328869,0.40365 -0.497955,0.6424 0.691447,-1.76124 1.384593,-3.4632 1.80066,-4.16821 z"
         inkscape:label="titlestrips-stoke" /><path
         id="path1547"
         style="font-family:'Alameda Script PERSONAL USE';-inkscape-font-specification:'Alameda Script PERSONAL USE';fill:#ffffff"
         d="m 102.37877,158.1333 c -0.72345,-0.12341 -1.65441,0.81087 -1.65441,2.69983 0,0.32324 0.0325,0.59801 0.081,0.82428 -0.70958,1.41916 -1.861991,3.49521 -2.777385,4.95334 -0.655681,0.90333 -1.404815,1.66174 -2.232833,1.98021 0.258594,-0.38789 0.517207,-0.82426 0.775802,-1.32528 0.598001,-1.11519 1.373602,-3.39413 1.147331,-4.84873 -0.210108,-1.43843 -1.276624,-1.72933 -2.537275,-0.74344 -0.694974,0.54952 -1.39016,1.22819 -1.842702,1.85851 0.161622,-0.66265 0.355864,-1.37381 0.388189,-1.82635 l -0.355862,-0.37176 c -0.484866,0.27475 -0.727218,0.38793 -2.036354,0.42025 -0.03232,1.43844 -0.258794,2.9252 -0.743659,4.67071 -0.03449,0.0611 -0.06909,0.12056 -0.103696,0.18091 -0.35967,0.55459 -0.990807,1.49453 -1.577028,2.01738 -0.565676,0.50103 -1.018143,0.48492 -0.630252,-0.56562 1.03438,-2.94152 1.858437,-4.65494 2.440276,-5.64084 l -0.112718,-0.3071 c -0.549513,0.16162 -1.535481,0.17778 -2.569861,0.11314 -0.413287,1.39662 -1.078259,2.81889 -1.717185,4.35442 -0.55011,0.92006 -1.500646,2.04701 -2.081125,2.40175 -0.614163,0.38789 -0.775659,-0.0973 -0.33928,-1.19627 0.436379,-1.09903 2.214331,-4.60621 2.925466,-5.65676 -0.04849,-0.30708 -0.226794,-0.67876 -0.550038,-0.79189 -0.614163,0.53335 -1.826221,0.88896 -2.537358,0.64652 0.549515,-0.84043 1.131464,-2.18214 0.371841,-2.61852 -1.002056,-0.56568 -2.715152,2.2466 -1.583799,3.2325 -0.557203,1.35535 -1.324632,2.72321 -2.067453,3.97589 -5.36e-4,8e-5 -0.0011,1.2e-4 -0.0016,2e-4 -0.355568,0.54951 -1.018196,1.50326 -1.600035,2.05278 -0.727298,0.69497 -1.260312,0.48468 -0.888583,-0.56586 0.517191,-1.4546 1.244632,-3.24862 1.891119,-4.81636 0.290919,-0.0162 0.565384,-0.0326 0.807817,-0.0649 0.193945,-0.16163 0.500787,-0.72685 0.565436,-1.19556 -0.29092,0.097 -0.597542,0.16153 -0.936948,0.21001 0.468703,-1.14751 0.872639,-2.08516 1.050423,-2.5377 l -0.371672,-0.37181 c -0.468703,0.27475 -1.341463,0.45272 -2.359681,0.5012 -0.145459,0.56568 -0.436242,1.45455 -0.791809,2.44045 -0.371731,-0.0323 -0.69505,-0.0644 -0.953645,-0.11293 l -0.372095,0.85621 c 0.161622,0.0485 0.51723,0.11318 0.985933,0.16167 -0.461155,1.22535 -0.974056,2.4887 -1.385005,3.45847 -0.513875,0.71963 -1.059669,1.27951 -1.653293,1.61644 0.711136,-2.10109 0.0162,-4.31511 -1.034344,-6.35154 0.468703,-0.93741 0.969503,-2.81208 0.193718,-3.29694 -0.646487,-0.40406 -1.551618,0.48469 -1.422321,2.2787 0.03233,0.50103 0.177848,0.88908 0.323307,1.14767 -0.549514,1.30914 -1.535264,3.02233 -2.585806,4.55773 -0.290919,0.0162 -0.581617,0.14536 -0.82405,0.42012 -0.339406,0.38789 -0.517507,0.88871 -0.53367,1.38974 -0.614163,0.71114 -1.179474,1.29306 -1.664339,1.6163 0.08081,0.40406 0.710802,0.84033 1.017882,0.92115 0.29092,-0.33941 0.614242,-0.74306 0.937486,-1.16327 0.355568,0.69497 1.034519,1.22823 1.923439,1.26056 0.905082,0.0162 1.939111,-0.35558 2.731059,-1.17985 0.646124,-0.23755 1.314506,-0.71578 1.933069,-1.3582 -0.253908,1.2171 -0.135435,2.538 1.218515,2.538 1.729355,0 3.798248,-3.15165 4.3316,-4.10522 0.825489,-1.40326 1.688089,-2.74479 2.294983,-3.94341 0.711136,0.17779 1.325291,0.17781 1.76167,0.0808 -0.88892,1.13136 -3.05451,3.03842 -3.587861,5.23648 -0.614164,2.55362 1.260503,3.6363 3.135317,1.82614 0.315839,-0.3085 0.694859,-0.79104 1.067763,-1.31927 -0.1527,1.12476 0.04869,2.22445 1.292192,2.22445 0.361355,0 0.7267,-0.13833 1.083843,-0.36474 -0.372118,0.65353 -0.717398,1.32801 -1.019144,2.06157 -0.727298,1.76168 -0.113435,2.73169 0.840134,2.73169 0.937407,0 1.939341,-1.2283 2.472694,-2.63441 0.30708,-0.82427 0.614558,-1.74556 0.873153,-2.60216 0.04849,0.11313 0.09676,0.21012 0.177579,0.30709 0.387892,0.4687 0.905069,0.56537 1.422258,0.50072 0.662651,-0.0808 1.292885,-0.40401 1.923211,-1.03433 0.776346,-0.0892 1.567715,-0.50876 2.289295,-1.14667 -0.02059,1.09584 0.71285,2.13786 2.058698,2.18127 0.905079,0.0162 1.939116,-0.35558 2.731056,-1.17985 1.09903,-0.40406 2.26278,-1.50311 3.13554,-2.92538 -0.097,-0.14546 -0.30724,-0.32326 -0.53351,-0.3071 -0.51719,0.7273 -1.06639,1.2927 -1.66439,1.63211 0.71114,-2.10109 0.0162,-4.31511 -1.03434,-6.35154 0.4687,-0.9374 1.72924,-3.02206 1.00194,-3.57157 -0.10228,-0.0773 -0.21523,-0.1261 -0.33361,-0.1463 z m -11.785614,0.61187 c -0.219974,-0.0405 -0.475658,-0.0425 -0.762031,0.003 -0.88892,0.14546 -1.454835,0.77579 -1.406349,1.4546 0.03233,0.67881 0.71153,1.11501 1.810559,0.9049 0.953569,-0.19394 1.276829,-0.84029 1.260666,-1.43829 -0.01161,-0.46466 -0.340689,-0.82061 -0.902845,-0.92416 z m 10.535084,3.68807 c 0.67881,1.89098 -0.38761,5.75358 -1.535127,7.06272 -0.64649,0.74346 -1.373718,0.24266 -1.115122,-0.24221 0.581838,-0.0162 1.082652,-0.3557 1.066492,-1.19614 -0.0162,-0.598 -0.371402,-0.96961 -0.807781,-1.09891 0.711137,-1.27681 1.534938,-3.07086 2.391538,-4.52546 z m -6.089162,0.82765 c 0.02717,0.005 0.0527,0.0152 0.07694,0.0288 0.387893,0.22627 -0.06472,1.90728 -0.646556,3.20026 -0.404055,0.88892 -1.11494,2.23037 -1.890724,2.58593 -0.452542,0.21011 -0.808224,-0.0323 -0.905197,-0.53337 0.177784,-0.61417 0.307421,-1.13158 0.404394,-1.43866 1.263176,-2.40311 2.408693,-3.95468 2.961143,-3.84296 z M 59.44612,156.64697 c -0.484866,0.27475 -1.357626,0.45272 -2.359681,0.5012 -0.07335,0.29034 -0.222091,0.76355 -0.420457,1.35154 -0.34789,-0.18715 -0.813104,-0.26911 -1.341144,-0.26911 l -0.113407,1.7e-4 c 0.22627,-0.56566 0.404102,-0.98563 0.484913,-1.2119 l -0.355253,-0.37217 c -0.484866,0.27475 -1.357626,0.45272 -2.359681,0.5012 -0.08081,0.30709 -0.226262,0.79181 -0.436371,1.42214 -0.694973,0.097 -1.341675,0.14562 -2.004325,1.6e-4 -0.487757,-0.67277 -1.565776,-0.55344 -2.292383,-0.0589 -0.329239,-0.12515 -0.770572,-0.20575 -1.34384,-0.24804 0.22627,-0.58184 0.404048,-1.01823 0.50102,-1.2445 l -0.355862,-0.37175 c -0.484865,0.27475 -1.357522,0.45221 -2.359578,0.50069 -0.06465,0.24244 -0.177541,0.59819 -0.323001,1.05073 -2.295029,-0.0808 -5.36609,-0.38795 -6.271172,-0.95363 -0.387892,-0.24243 -0.500986,-0.69492 -0.371689,-1.09897 -1.939462,0.097 -3.297161,1.9879 -1.9557,3.18389 1.099029,0.9859 3.668857,0.66265 6.513401,0.56568 l 1.519524,-0.0485 c -0.921244,2.56978 -2.263119,6.06066 -2.844957,7.35363 -0.565677,1.29298 -1.034032,3.7821 0.824619,3.7821 1.026803,0 2.087622,-1.11107 2.891855,-2.21342 -0.149873,1.12089 0.05442,2.21372 1.293845,2.21372 0.985893,0 2.02023,-1.03475 2.812176,-2.10146 -0.129296,1.06671 0.09695,2.10121 1.292956,2.10121 0.994367,0 2.020475,-1.04187 2.814731,-2.10885 -0.136811,1.079 0.09517,2.10922 1.290805,2.10922 1.19149,0 2.428955,-1.49617 3.257922,-2.73865 -0.01646,1.60295 0.862804,2.75433 2.528194,2.75433 1.438434,0 3.927364,-1.24442 5.462772,-4.12129 -0.08081,-0.19395 -0.307237,-0.30711 -0.533508,-0.30711 -0.953569,1.43843 -2.473045,2.37583 -3.361965,2.37583 -1.050542,0 -1.535366,-0.7757 -1.600015,-1.79391 1.713192,-0.2586 4.590455,-2.06858 4.784401,-4.37978 0.14546,-1.63238 -1.761825,-2.40816 -4.266964,-0.14545 -1.392492,1.26335 -2.283035,2.65921 -2.711515,3.94321 -0.0013,1.8e-4 -0.0025,1e-4 -0.0038,2.9e-4 -0.339405,0.598 -1.002033,1.51943 -1.600035,2.05279 -0.565676,0.50103 -1.018298,0.48477 -0.646568,-0.56577 1.050542,-2.94152 3.846847,-9.8752 4.31555,-11.03887 z m 13.495279,6.17417 c 0.420217,2.00411 -0.56545,5.44652 -1.648317,6.67485 -0.646487,0.74346 -1.373611,0.24215 -1.115016,-0.24272 0.501028,-0.0323 1.034066,-0.45217 1.06639,-1.19563 0.01616,-0.48487 -0.161455,-0.88909 -0.452375,-1.16385 0.840435,-1.3253 1.599804,-2.74735 2.149318,-4.07265 z m -16.715182,-3.05658 c -0.80153,2.25459 -1.938206,5.23216 -2.608092,6.82326 -0.342135,0.59833 -0.997636,1.50681 -1.590154,2.03528 -0.565676,0.50103 -1.018298,0.48477 -0.646568,-0.56576 0.694974,-1.95563 2.165633,-5.67295 3.216175,-8.29123 l 0.161492,-0.0163 c 0.640249,-0.0607 1.110227,-0.0499 1.467147,0.0147 z m -4.360061,0.71308 c -0.775785,2.13341 -1.745788,4.67054 -2.343788,6.09282 -0.355569,0.54951 -1.002035,1.51942 -1.600035,2.05278 -0.565676,0.50103 -1.018144,0.48492 -0.630252,-0.56562 1.03438,-2.94151 1.858944,-4.65483 2.440782,-5.64073 l -0.113224,-0.30721 c -0.549514,0.16162 -1.535481,0.17778 -2.569861,0.11314 -0.413203,1.39634 -1.077564,2.81784 -1.71637,4.35301 -0.340236,0.59812 -1.000406,1.51521 -1.596776,2.04712 -0.565676,0.50103 -1.0184,0.48528 -0.64667,-0.56526 0.694974,-1.95563 2.165632,-5.68911 3.216174,-8.29123 0.04849,-0.0162 0.113513,-0.0162 0.161999,-0.0162 0.421176,-0.0266 0.766894,-0.0298 1.05748,-0.0115 0.0162,0.24935 0.122431,0.51066 0.348622,0.77104 0.662649,0.75963 2.359539,0.40417 3.991919,-0.0322 z m 10.4485,2.12759 c 0.673067,0.0985 -0.599604,3.33706 -2.367344,3.80375 0.145459,-1.35763 0.888587,-2.89295 1.955291,-3.63641 0.179804,-0.13131 0.3159,-0.18142 0.412053,-0.16734 z"
         inkscape:label="titlestrips-words" /></g></g></svg>
