<?xml version="1.0" encoding="UTF-8" standalone="no"?>
<svg
   xml:space="preserve"
   width="794.019"
   height="662.647"
   viewBox="0 0 210.084 175.325"
   version="1.1"
   id="svg14"
   sodipodi:docname="jukeboxLogo.svg"
   inkscape:version="1.3.2 (091e20e, 2023-11-25, custom)"
   xmlns:inkscape="http://www.inkscape.org/namespaces/inkscape"
   xmlns:sodipodi="http://sodipodi.sourceforge.net/DTD/sodipodi-0.dtd"
   xmlns="http://www.w3.org/2000/svg"
   xmlns:svg="http://www.w3.org/2000/svg"><defs
     id="defs14" /><sodipodi:namedview
     id="namedview14"
     pagecolor="#ffffff"
     bordercolor="#000000"
     borderopacity="0.25"
     inkscape:showpageshadow="2"
     inkscape:pageopacity="0.0"
     inkscape:pagecheckerboard="0"
     inkscape:deskcolor="#d1d1d1"
     inkscape:zoom="1.3446074"
     inkscape:cx="396.7701"
     inkscape:cy="331.32349"
     inkscape:window-width="1920"
     inkscape:window-height="1129"
     inkscape:window-x="1912"
     inkscape:window-y="1153"
     inkscape:window-maximized="1"
     inkscape:current-layer="g13" /><g
     style="display:inline"
     id="g7"><path
       d="M182.777 107.356A86.598 87.663 0 0 1 96.18 195.02a86.598 87.663 0 0 1-86.598-87.663A86.598 87.663 0 0 1 96.18 19.695a86.598 87.663 0 0 1 86.598 87.662Z"
       style="display:inline;opacity:1;fill:#549db9;stroke-width:.203774;stroke-dashoffset:.879118;paint-order:stroke fill markers"
       transform="translate(6.786 -19.694)"
       id="path1" /><path
       d="M162.096 107.356a65.917 66.727 0 0 1-65.917 66.727 65.917 66.727 0 0 1-65.917-66.727A65.917 66.727 0 0 1 96.18 40.63a65.917 66.727 0 0 1 65.917 66.727Z"
       style="display:inline;stroke:#fff;stroke-width:4.355;stroke-dashoffset:.879118;paint-order:stroke fill markers"
       transform="translate(6.786 -19.694)"
       id="path2" /><g
       style="display:inline;opacity:.3"
       id="g6"><path
         d="M136.642 93.467a40.463 40.96 0 0 1-40.463 40.96 40.463 40.96 0 0 1-40.463-40.96 40.463 40.96 0 0 1 40.463-40.96 40.463 40.96 0 0 1 40.463 40.96Z"
         style="display:inline;fill:none;stroke:#fff;stroke-width:.352778;stroke-dashoffset:.879118;paint-order:stroke fill markers"
         transform="translate(6.786 -5.805)"
         id="path3" /><path
         d="M155.642 93.467a59.463 60.194 0 0 1-59.463 60.194 59.463 60.194 0 0 1-59.463-60.194A59.463 60.194 0 0 1 96.18 33.274a59.463 60.194 0 0 1 59.463 60.193Z"
         style="display:inline;fill:none;stroke:#fff;stroke-width:.352778;stroke-dashoffset:.879118;paint-order:stroke fill markers"
         transform="translate(6.786 -5.805)"
         id="path4" /><path
         d="M145.92 93.467a49.742 50.353 0 0 1-49.741 50.354 49.742 50.353 0 0 1-49.742-50.354 49.742 50.353 0 0 1 49.742-50.353 49.742 50.353 0 0 1 49.742 50.353Z"
         style="display:inline;fill:none;stroke:#fff;stroke-width:.352778;stroke-dashoffset:.879118;paint-order:stroke fill markers"
         transform="translate(6.786 -5.805)"
         id="path5" /><path
         d="M128.922 93.467a32.743 33.146 0 0 1-32.743 33.146 32.743 33.146 0 0 1-32.743-33.146 32.743 33.146 0 0 1 32.743-33.145 32.743 33.146 0 0 1 32.743 33.145Z"
         style="display:inline;fill:none;stroke:#fff;stroke-width:.310382;stroke-dashoffset:.879118;paint-order:stroke fill markers"
         transform="translate(6.786 -5.805)"
         id="path6" /></g><path
       d="M124.584 107.356a28.405 28.754 0 0 1-28.405 28.754 28.405 28.754 0 0 1-28.405-28.754A28.405 28.754 0 0 1 96.18 78.602a28.405 28.754 0 0 1 28.405 28.754Z"
       style="display:inline;fill:#549db9;stroke-width:.0668388;stroke-dashoffset:.879118;paint-order:stroke fill markers"
       transform="translate(6.786 -19.694)"
       id="path7" /></g><g
     style="display:inline;fill:#fff;fill-opacity:1"
     id="g8"><path
       d="m98.663 22.816-1.535 4.726h-4.969l4.02 2.92-1.536 4.726 4.02-2.921 4.02 2.92-1.536-4.725 4.02-2.92H100.2zm-21.88 2.88-.26 4.963-4.8 1.285 4.639 1.781-.26 4.962 3.127-3.861 4.638 1.78-2.706-4.166 3.127-3.862-4.8 1.286zm43.76 0-2.705 4.168-4.8-1.286 3.128 3.862-2.707 4.166 4.639-1.78 3.127 3.861-.26-4.962 4.638-1.78-4.799-1.286zm-64.15 8.447 1.033 4.86-4.303 2.484 4.941.52 1.034 4.859 2.02-4.539 4.942.52-3.693-3.325 2.021-4.539-4.303 2.484zm84.54 0-3.692 3.324-4.303-2.484 2.021 4.539-3.693 3.325 4.942-.52 2.02 4.539 1.034-4.86 4.941-.519-4.302-2.485zM46.826 46.32l-3.514 3.513-4.427-2.255 2.256 4.427-3.513 3.513 4.907-.778 2.256 4.428.777-4.908 4.907-.777-4.427-2.255zm103.677 0 .777 4.908-4.427 2.255 4.907.777.778 4.908 2.256-4.428 4.907.778-3.514-3.513 2.256-4.427-4.427 2.255zM32.793 61.817 30.31 66.12l-4.86-1.033 3.325 3.692-2.485 4.302 4.54-2.02 3.324 3.692-.52-4.941 4.54-2.021-4.86-1.033zm131.74 0-.52 4.94-4.86 1.034 4.54 2.02-.52 4.942 3.325-3.692 4.54 2.02-2.485-4.302 3.324-3.692-4.86 1.033zm-141.282 18.6-1.286 4.8-4.961.26 4.166 2.705-1.285 4.8 3.86-3.127 4.168 2.705-1.78-4.638 3.86-3.126-4.961.26zm150.824 0-1.78 4.638-4.962-.26 3.861 3.127-1.78 4.638 4.167-2.705 3.861 3.127-1.286-4.8 4.167-2.706-4.962-.26zM18.848 100.853v4.968l-4.725 1.536 4.725 1.535v4.968l2.92-4.019 4.726 1.535-2.92-4.02 2.92-4.019-4.725 1.535zm159.63 0-2.92 4.02-4.725-1.536 2.92 4.02-2.92 4.02 4.725-1.536 2.92 4.02v-4.969l4.725-1.535-4.725-1.535zm-158.593 20.88 1.285 4.798-4.166 2.706 4.961.26 1.286 4.8 1.78-4.64 4.963.261-3.862-3.127 1.78-4.638-4.166 2.706zm157.557 0-3.861 3.126-4.167-2.706 1.78 4.638-3.861 3.127 4.961-.26 1.781 4.639 1.286-4.8 4.962-.26-4.167-2.706zM34.153 139.96l-3.325 3.692-4.539-2.02 2.485 4.302-3.325 3.693 4.86-1.033 2.484 4.303.52-4.942 4.86-1.033-4.54-2.02zm129.02 0 .52 4.941-4.54 2.021 4.86 1.033.52 4.942 2.484-4.303 4.86 1.033-3.324-3.693 2.484-4.302-4.54 2.02zM44.79 155.546l-2.256 4.427-4.907-.777 3.513 3.513-2.256 4.427 4.427-2.256 3.514 3.514-.778-4.908 4.427-2.256-4.907-.777zm107.747 0-.778 4.907-4.907.777 4.427 2.256-.777 4.908 3.514-3.514 4.426 2.256-2.256-4.427 3.514-3.513-4.907.777zm-93.44 12.301-1.033 4.86-4.941.52 4.303 2.484-1.033 4.86 3.692-3.325 4.303 2.484-2.02-4.538 3.692-3.325-4.942.519zm79.132 0-2.021 4.539-4.942-.52 3.693 3.326-2.02 4.538 4.302-2.484 3.693 3.325-1.034-4.86 4.303-2.484-4.941-.52zm-62.127 8.18.26 4.961-4.639 1.78 4.8 1.287.26 4.962 2.706-4.168 4.799 1.287-3.127-3.862 2.706-4.167-4.638 1.78zm45.123 0-3.127 3.86-4.639-1.78 2.707 4.167-3.127 3.862 4.799-1.287 2.706 4.168.26-4.962 4.8-1.286-4.64-1.78zm-26.582 3.499 1.536 4.725-4.02 2.92h4.969l1.535 4.726 1.536-4.725h4.968l-4.02-2.92 1.536-4.726-4.02 2.92z"
       style="display:inline;fill:#fff;fill-opacity:1;stroke:none;stroke-width:.185826;stroke-miterlimit:4;stroke-dasharray:none;stroke-opacity:1"
       transform="translate(4.302 -19.694)"
       id="path8" /></g><g
     style="display:inline"
     id="g14"><g
       aria-label="Jukebox_"
       style="font-size:51.4946px;font-family:MingLiU-ExtB;-inkscape-font-specification:MingLiU-ExtB;text-align:center;text-anchor:middle;display:inline;fill:#c43c3c;fill-opacity:1;stroke-width:3.1;stroke-dashoffset:.879118;paint-order:stroke fill markers"
       id="g11"><path
         d="M119.546 88.785c-1.545.876-4.274 1.442-7.518 1.597-1.08 4.273-7.58 21.077-10.41 30.031-3.038 4.577-7.873 7.56-10.703 7.56-3.347 0-4.892-2.472-5.098-5.716 5.458-.824 14.624-6.592 15.242-13.955.464-5.201-5.613-7.673-13.594-.463-4.437 4.025-7.275 8.472-8.64 12.563l-.012.001c-1.648 2.575-4.789 7.158-6.848 8.6-1.494 1.08-2.832.463-1.648-2.266 1.39-3.09 1.957-6.592-.566-8.343 3.295-1.596 7.775-4.789 8.753-9.217 1.34-5.82-4.737-6.849-9.166-4.017-2.471 1.597-3.707 2.833-4.737 4.12 3.399-8.96 6.643-16.89 7.673-19.31l-1.185-1.184c-1.493.875-4.84 1.544-9.011 1.699-1.076 6.454-4.534 16.287-9.88 29.985-1.142 1.761-3.222 4.794-5.105 6.473-1.751 1.596-3.193 1.545-2.008-1.802 3.347-9.372 6.694-16.84 8.187-20.547l-1.133-1.184c-1.545.875-4.325 1.442-7.518 1.596a67.768 67.768 0 0 1-2.06 6.643c-2.78 7.312-4.531 12.565-7.415 14.882-1.853 1.545-4.017.72-2.935-2.678 1.545-4.892 6.849-12.41 7.21-19.568l-1.7-.617c-1.545.875-2.73 1.184-5.974 1.339-.412 6.745-3.81 11.792-7.054 17.817-3.09 5.715-1.545 11.637 4.016 11.637 2.884 0 5.561-2.214 7.93-5.51-.103 2.987.876 5.51 4.223 5.51 2.752 0 5.581-2.505 7.942-5.391a2575.4 2575.4 0 0 1-1.762 4.413h9.165c1.133-3.965 2.832-9.063 4.738-14.367 1.7-.31 3.347-.31 3.914.412.978 1.287-3.45 6.025-3.039 10.247.463 4.84 6.231 5.974 10.042 3.193 2.289-1.725 4.346-4.518 6.002-7.125-.012 5.052 2.786 8.67 8.056 8.67 3.708 0 9.609-2.597 14.317-8.445-.534 5.259 2.072 8.393 5.869 8.393 3.913 0 7.364-2.523 10.144-5.51 3.296-3.656 6.437-9.578 7.827-15.088a19.335 19.335 0 0 0 4.065-.723c-5.516 9.457-4.985 21.167 2.475 21.167 8.652 0 13.8-11.38 15.5-17.92 2.55-.522 5.002-1.712 7.053-3.03-.334 2.49-.575 5.032-.668 7.355-4.84 3.038-9.165 5.82-10.504 12.72h8.239c-.155-2.06.103-5.923 2.317-9.115.309 4.428 1.854 10.144 7.106 10.144 5.03 0 10.306-8.352 12.483-12.121 5.649.29 8.911 7.904-.484 14.233-5.253 3.553-13.44 6.848-30.331 6.848-26.005 0-92.69-6.23-117.46-5.046-21.678 1.03-19.104 11.586-9.577 13.131-.258-1.287 5.15-2.78 22.246-3.193 22.657-.566 76.675 3.038 108.19 3.038 17.148 0 27.807-7.775 32.905-14.212 7.879-9.939 1.287-18.64-6.643-16.736-1.133 1.751-3.141 4.84-5.098 6.54-2.935 2.523-5.87.463-6.128-3.81a22.902 22.902 0 0 1 0-3.76c5.87-2.265 11.741-5.407 14.522-12.667-.721-1.442-3.605-2.884-5.922-3.76-1.906 6.025-4.635 10.3-8.24 13.132.722-4.79 2.266-8.96 3.296-11.483l-1.184-1.185c-1.545.876-4.274 1.442-7.518 1.597a71.224 71.224 0 0 0-1.107 5.427c-2.002.951-4.427 1.727-6.772 1.987.67-4.995-.567-7.98-2.987-9.01-2.575-1.134-5.87-.207-9.011 2.11a24.25 24.25 0 0 0-4.453 4.338c-1.684.434-3.701.54-5.64.348.103-1.03.154-2.06.051-2.986-.72-5.665-7.878-5.665-9.114-.258-.567 2.472.257 4.892 2.214 6.334-.515 4.686-2.111 9.63-4.84 13.646-2.627 3.862-6.386 2.42-4.584-4.171 2.678-9.578 10.712-29.095 12.205-32.802zm22.822 17.15c.773.171 1.258.96 1.38 2.367-1.802.36-3.192 1.596-3.707 3.141-.567 1.751-.103 4.377 2.214 5.407-2.111 6.746-5.047 10.814-7.158 10.814-4.943 0-2.163-16.787 5.304-21.216.774-.46 1.438-.631 1.967-.514zM33.756 89.763c-.36.051-.67.103-1.082.206-7.879 1.184-13.749-4.171-23.481-3.605-26.623 1.545-31.978 28.22-16.17 30.949 10.042 1.75 13.853-9.888 7.57-13.183-.103 2.111-2.729 4.12-5.922 2.935-6.488-2.42-2.06-12.874 5.15-14.11 10.762-1.802 12.513 3.245 21.421 4.275-10.093 14.212-11.946 42.843-27.24 47.53-15.86 4.891-18.178-15.861-5.15-13.75-.514-6.282-7.775-8.754-13.182-4.583-10.969 8.394-4.274 26.572 13.389 24.666 28.94-3.09 31.617-42.895 45.778-59.58-.515-.463-.875-1.08-1.081-1.75zm59.655 18.005c2.145.314-1.91 10.632-7.543 12.12.464-4.326 2.833-9.218 6.231-11.587.573-.418 1.006-.577 1.312-.533zm-23.892 1.572c.185.026.349.09.489.197 1.545 1.081-.824 7.26-8.136 7.415 2.193-4.48 5.866-7.86 7.647-7.612z"
         style="font-size:51.4946px;font-family:&quot;Alameda Script PERSONAL USE&quot;;-inkscape-font-specification:&quot;Alameda Script PERSONAL USE&quot;;text-align:center;text-anchor:middle;display:inline;opacity:.5;fill:#8c2a2a;stroke-width:4;stroke-dashoffset:.879118;paint-order:stroke fill markers"
         transform="rotate(-11.476 -94.599 -43.615)"
         id="path9" /><path
         d="m117.246 83.617-1.049.596c-1.113.63-3.722 1.248-6.828 1.396l-1.148.055-.282 1.114c-.546 2.161-2.966 8.849-5.433 15.689-1.813 5.026-3.657 10.17-4.887 14.044a18.95 18.95 0 0 1-4.88 4.89c-1.777 1.206-3.538 1.798-4.41 1.798-1.291 0-1.969-.386-2.522-1.068-.385-.474-.641-1.213-.82-2.055a23.072 23.072 0 0 0 8.656-4.363c3.257-2.632 6.012-6.217 6.375-10.498.143-1.61-.221-3.147-1.104-4.34-.883-1.193-2.265-1.981-3.842-2.217-3.153-.47-7.03 1.01-11.232 4.805v.002l-.002.002c-4.551 4.129-7.54 8.702-9.019 13.037a73.957 73.957 0 0 1-3.096 4.462c-.885 1.168-1.646 1.894-2.363 2.588.625-1.51 1.107-3.1 1.107-4.715 0-1.11-.383-2.201-.977-3.201 3.262-1.866 6.946-4.866 7.94-9.344.392-1.712.272-3.276-.38-4.535-.652-1.26-1.805-2.114-3.064-2.531-2.518-.834-5.51-.233-8.068 1.402l-.002.002-.004.002c-.044.029-.063.052-.107.08 2.156-5.483 4.608-11.713 5.31-13.363l.41-.963-2.771-2.771-1.033.607c-.92.539-4.25 1.337-8.286 1.486l-1.263.047-.21 1.248c-1.025 6.157-4.438 15.912-9.744 29.538-.961 1.462-2.54 3.61-3.964 5.129 3.22-8.904 6.395-16.057 7.871-19.723l.373-.928-2.658-2.78-1.05.595c-1.1.623-3.776 1.25-6.829 1.398l-1.143.054-.283 1.108a66.273 66.273 0 0 1-2.014 6.49c-2.788 7.332-4.702 12.42-6.93 14.211l-.01.01-.012.008c-.348.29-.564.347-.666.37l-.003-.016c-.031-.21-.016-.68.203-1.37v-.003c.688-2.178 2.385-5.303 3.98-8.753 1.593-3.45 3.101-7.271 3.3-11.205l.059-1.142-3.448-1.254-.623.351c-1.385.785-2.12.99-5.283 1.141l-1.389.064-.084 1.39c-.383 6.274-3.586 11.07-6.873 17.175-1.702 3.15-2.211 6.439-1.347 9.166.864 2.729 3.399 4.758 6.73 4.758 2.66 0 4.962-1.427 6.984-3.52.15.395.226.813.461 1.176.916 1.414 2.644 2.344 4.708 2.344 1.42 0 2.733-.436 3.954-1.144l-.066.165H54.79l.322-1.125c1.044-3.654 2.651-8.428 4.399-13.338.39-.036.84-.11 1.115-.09.107.008.022-.014.094.002l-.01.03c-.216.549-.653 1.389-1.13 2.347-.956 1.918-2.151 4.365-1.888 7.067l-.002-.002c.29 3.016 2.424 5.123 4.9 5.8 2.477.678 5.311.165 7.598-1.503l.01-.008.01-.008c1.537-1.158 2.924-2.67 4.152-4.268.384 1.128.945 2.157 1.697 3.041 1.66 1.952 4.223 3.084 7.276 3.084 3.682 0 8.579-1.96 12.952-6.165a8.95 8.95 0 0 0 .911 2.455c1.281 2.298 3.676 3.66 6.324 3.66 4.58 0 8.358-2.868 11.278-6.004l.01-.01.008-.01c2.482-2.754 4.77-6.566 6.421-10.602a26.614 26.614 0 0 0-.742 3.65c-.42 3.257-.16 6.295 1.027 8.704 1.188 2.408 3.546 4.117 6.508 4.117 4.567 0 8.198-2.731 10.879-6.16a18.023 18.023 0 0 0-1.02 3.44l-.357 1.843h11.789l-.125-1.666c-.068-.91-.024-2.284.28-3.775.25.762.443 1.544.83 2.252 1.258 2.307 3.579 4.22 6.767 4.22 3.697 0 6.682-2.951 9.145-5.972 1.712-2.1 3.147-4.34 4.159-6.036 1.557.37 2.662 1.516 2.985 3.042.43 2.026-.512 5.114-5.156 8.242l-.002.002c-5.002 3.383-12.774 6.582-29.463 6.582-12.878 0-36.073-1.555-59.097-2.965-23.025-1.41-45.856-2.681-58.436-2.08-5.217.248-9.114 1.032-11.984 2.18 2.72-3.62 5.01-7.692 7.074-11.924 6.136-12.585 10.417-26.65 17.135-34.564l.974-1.149-1.119-1.006c-.273-.246-.501-.615-.636-1.055l-.391-1.265-1.31.186a12.27 12.27 0 0 0-1.092.209c-3.544.532-6.696-.403-10.364-1.522-3.667-1.12-7.811-2.398-12.978-2.098-13.82.802-22.431 8.2-25.358 16.036-1.463 3.917-1.528 7.97-.023 11.324 1.505 3.354 4.653 5.907 9.037 6.664l-.002-.002c5.626.98 9.893-1.895 11.582-5.58.845-1.843 1.103-3.888.64-5.797a7.2 7.2 0 0 0-3.665-4.705l-2.15-1.127-.12 2.424c-.043.878-1.436 2.446-3.832 1.558h-.002c-1.224-.457-1.734-1.114-1.996-2.027-.262-.914-.165-2.16.34-3.455 1.009-2.589 3.59-5.143 6.53-5.646 5.13-.858 7.796-.13 10.564.984 2.258.908 4.865 2.04 8.223 2.77-4.575 7.34-7.426 17.084-10.747 25.777-3.6 9.422-7.758 17.172-14.576 19.261l-.002.002h-.002c-3.66 1.13-6.294.738-8.127-.262a6.6 6.6 0 0 1-3.309-4.417c-.377-1.744-.003-3.483.993-4.628.995-1.144 2.635-1.896 5.504-1.431l1.954.316-.161-1.972c-.305-3.716-2.723-6.49-5.797-7.551-3.074-1.06-6.79-.514-9.877 1.867-6.03 4.618-7.29 12.127-4.5 18.08 2.79 5.955 9.625 10.365 19 9.354 6.642-.71 12.042-3.305 16.467-7.045-.046 1.656.721 3.262 1.94 4.463 1.534 1.51 3.765 2.553 6.411 2.982l2.207.36-.293-1.473c.532-.228 1.587-.538 3.21-.813 3.32-.563 8.9-1.04 17.408-1.246h.001c22.432-.56 76.52 3.04 108.153 3.04 17.616 0 28.745-8.017 34.119-14.802 4.207-5.306 4.746-10.683 2.767-14.486-1.483-2.852-4.346-4.7-7.617-4.98a10.537 10.537 0 0 0-3.243.236l-.689.106-.041.064-.685.164.063.795c-1.164 1.777-3 4.443-4.522 5.767h-.002c-1.114.958-1.655.879-2.212.518-.558-.361-1.248-1.447-1.356-3.246v-.018l-.002-.017c-.071-.859-.035-1.746 0-2.622 5.702-2.313 11.599-5.747 14.424-13.122l.244-.637-.304-.612c-.638-1.275-1.748-2.015-2.961-2.732-1.214-.717-2.576-1.32-3.8-1.783l-1.532-.578-.493 1.56c-1.057 3.343-2.385 6.013-3.926 8.223.644-2.192 1.33-4.14 1.895-5.522l.389-.953-2.746-2.746-1.028.58c-1.113.631-3.72 1.25-6.826 1.399l-1.15.055-.281 1.117a66.751 66.751 0 0 0-.961 4.6 26.307 26.307 0 0 1-3.774 1.171c.043-1.673-.065-3.217-.512-4.488-.64-1.82-1.885-3.233-3.5-3.924a7.374 7.374 0 0 0-2.556-.61c-2.638-.15-5.441 1.013-7.99 2.893l-.003.002-.004.002a25.787 25.787 0 0 0-4.293 4.058 18.39 18.39 0 0 1-3.304.276c.01-.524.082-1.04.024-1.563l-.002-.011-.002-.012c-.442-3.47-3.14-5.592-5.877-5.635-1.043-.017-2.058.336-3 .862 1.996-5.08 4.037-10.163 4.658-11.704l.373-.927zm-1.11 3.852c-1.96 4.835-9.119 22.287-11.74 31.662l-.002.004v.004c-.49 1.794-.633 3.309-.453 4.6.18 1.29.716 2.43 1.713 3.1.997.671 2.313.665 3.365.202 1.053-.463 1.956-1.306 2.735-2.45 2.904-4.274 4.56-9.435 5.1-14.349l.097-.888-.719-.53c-1.457-1.073-2.067-2.802-1.623-4.74.473-2.07 1.884-2.84 3.215-2.818 1.328.02 2.565.732 2.847 2.916.082.743.045 1.672-.052 2.646l-.154 1.545 1.545.152c.717.071 1.417-.049 2.138-.046-.923.224-1.794.547-2.76.613l-1.122.076-.276 1.092c-1.318 5.224-4.405 11.015-7.469 14.418-2.64 2.833-5.756 5.01-9 5.01-1.677 0-2.838-.674-3.617-2.07-.542-.972-.858-2.368-.747-4.154a32.535 32.535 0 0 0 2.95-4.577l.346-.649-.283-.677a2.972 2.972 0 0 0-1.173-1.393c1.184-3.601 2.817-8.188 4.427-12.65 2.302-6.385 4.316-11.946 5.16-14.936 2.157-.163 3.997-.54 5.552-1.113zm50.499 14.36c.66.295 1.344.557 1.914.894.699.412.956.728 1.248 1.027-2.315 5.208-6.354 7.973-10.93 9.972 3.344-2.763 5.898-6.728 7.768-11.894zm-7.694.222c-1.018 2.612-2.28 6.221-2.935 10.572l-.582 3.863.209-.164a24.415 24.415 0 0 0 0 3.688c.15 2.471 1.055 4.547 2.761 5.652 1.418.919 3.26.644 4.903-.297-2.136 2.456-4.543 4.323-6.223 4.323-2.064 0-3.14-.948-4.045-2.606-.904-1.658-1.368-4.016-1.513-6.098l-.178-2.558.096-.06.033-.817c.082-2.073.294-4.322.585-6.545a26.908 26.908 0 0 0 3.518-2.797l.182-.174.119-.223c.323-.61.598-1.398.299-2.253-.3-.855-.986-1.27-1.53-1.524l-.859-.402-.534.417c.064-.293.128-.582.192-.863 2.138-.171 3.968-.552 5.502-1.134zm-20.48-.711c-.492.135-.988.283-1.438.55-1.69 1.004-3.107 2.453-4.274 4.143a2.307 2.307 0 0 0-.814-1.487c.402-.35.816-.688 1.245-1.007l-.004.006c1.905-1.406 3.722-2.093 5.285-2.205zM67.756 87.412c-1.24 2.955-4.007 9.702-7.19 18.094l2.031 1.158c-1.703 1.539-3.42 3.762-4.702 6.383l-1.12 2.285.14-.004-.015.04c-1.764 4.911-3.258 9.48-4.396 13.34h-5.787l.795-1.998c2.426-2.992 4.32-6.273 5.187-7.778l.469-.814-.504-.793a4.247 4.247 0 0 0-1.01-1.119c4.69-12.094 7.86-21.157 9.085-27.515 2.898-.17 5.218-.597 7.017-1.28zm74.605 16.133c.028.07.07.099.096.174.055.156.078.376.108.583a7.12 7.12 0 0 0-.204-.757zm-2.966.679c.005.018.012.037.01.036-.347.163-.719.277-1.026.494.079-.052.148-.15.228-.197.507-.302.731-.325.788-.333zm3.335.997c.142 1.037.193 2.232-.013 3.77l-.264 1.966 1.97-.219c1.171-.13 2.26-.547 3.387-.863-1.465.77-3.013 1.445-4.59 1.768l-.944.195-.245.934c-.809 3.112-2.486 7.47-4.91 10.91-2.424 3.44-5.444 5.85-9.09 5.85-1.904 0-2.937-.783-3.728-2.387-.792-1.605-1.098-4.103-.733-6.936.373-2.889 1.426-6.094 3.102-9.088 1.647-.508 3.143-1.207 4.363-2.09-.936 1.984-1.609 4.11-2.04 6.14-.537 2.52-.693 4.9-.312 6.87.191.985.512 1.893 1.131 2.65.62.758 1.64 1.299 2.698 1.299 2.05 0 3.478-1.518 4.861-3.558 1.384-2.04 2.685-4.86 3.776-8.344l.413-1.319-1.263-.56c-.747-.332-1.127-.845-1.348-1.506-.22-.658-.195-1.458-.021-2 .33-.983 1.255-1.849 2.537-2.105l1.361-.274zm-5.273.334c-.61.643-1.19 1.327-1.473 2.173l-.002.006-.002.008a6.319 6.319 0 0 0 .032 3.94c.307.923.976 1.75 1.81 2.455-.943 2.761-2.002 5.063-3.014 6.555-1.14 1.68-2.237 2.197-2.297 2.197-.179 0-.151.018-.297-.16-.145-.178-.36-.618-.488-1.276-.254-1.315-.175-3.409.299-5.638.824-3.873 2.899-8.014 5.432-10.26zM30.412 88.262c-6.997 8.817-11.117 22.374-16.9 34.236-2.99 6.13-6.408 11.761-10.75 15.994-4.343 4.233-9.565 7.1-16.453 7.836h-.002c-8.288.894-13.632-2.831-15.862-7.588-2.23-4.756-1.352-10.53 3.583-14.306l.002-.002h.001c2.32-1.79 4.936-2.094 6.973-1.39 1.515.522 2.714 1.546 3.316 3.09-2.626.057-4.773 1.006-6.144 2.583-1.74 2-2.238 4.748-1.682 7.316a9.727 9.727 0 0 0 4.852 6.485c2.655 1.449 6.256 1.818 10.525.502 8.476-2.597 12.89-11.503 16.565-21.121 3.674-9.618 6.698-20.25 11.486-26.992l1.516-2.137-2.602-.301c-4.179-.484-6.591-1.882-9.615-3.098s-6.614-2.108-12.24-1.166h-.004l-.002.002c-4.27.732-7.51 4.022-8.895 7.574-.693 1.776-.936 3.672-.43 5.438.507 1.765 1.876 3.323 3.895 4.076v.002h.002c2.912 1.08 5.72.04 7.105-1.887.35.456.588.977.729 1.559.277 1.145.132 2.517-.445 3.777-1.156 2.52-3.815 4.588-8.231 3.818h-.002l-.002-.002c-3.52-.607-5.63-2.414-6.734-4.877-1.105-2.463-1.132-5.685.096-8.97 2.454-6.57 9.832-13.283 22.634-14.026 4.566-.265 8.224.849 11.895 1.97 3.67 1.12 7.394 2.272 11.728 1.62l.073-.01zm64.365 13.49c.788.15 1.293.49 1.645.967.376.508.596 1.23.508 2.22v.01c-.259 3.079-2.394 6.056-5.237 8.353-1.295 1.047-2.736 1.886-4.136 2.58 1.978-1.772 3.48-4.139 4.4-6.293.724-1.695 1.2-3.123.951-4.607a2.517 2.517 0 0 0-.492-1.174 2.252 2.252 0 0 0-1.365-.795c-1.026-.15-1.718.283-2.434.805-3.936 2.75-6.365 7.927-6.875 12.681l-.13 1.211-.016.002.005.096-.1.93.157-.041.027.435c.117 1.842.606 3.589 1.714 4.953 1.107 1.365 2.876 2.215 4.931 2.215 1.842 0 3.79-.843 5.768-2.127-3.974 3.747-8.273 5.567-10.764 5.567-2.328 0-3.86-.753-4.914-1.993-.937-1.1-1.509-2.683-1.583-4.652.986-1.588 1.802-3.066 2.434-4.163l.47-.814-.505-.793a4.275 4.275 0 0 0-.974-1.09c1.423-3.41 3.931-7.089 7.66-10.472 3.779-3.412 6.93-4.3 8.693-4.037.055.008.11.017.162.027zm53.951 11.165a82.273 82.273 0 0 0-.28 3.687c-2.353 1.49-4.683 3.069-6.589 5.192 1.313-2.559 2.246-5.16 2.88-7.395a22.016 22.016 0 0 0 3.989-1.484zm25.563 6.745c.804.566 1.517 1.253 1.988 2.158 1.33 2.557 1.225 6.5-2.447 11.131-4.822 6.089-15.01 13.625-31.69 13.625-31.395 0-85.343-3.609-108.228-3.037h-.002c-8.588.207-14.257.68-17.85 1.29-1.796.304-3.063.627-4.021 1.052-.35.155-.64.381-.933.615-1.677-.414-3.078-1.084-3.885-1.879-.951-.936-1.203-1.777-.944-2.654.26-.877 1.239-2.075 3.643-3.123s6.142-1.89 11.435-2.14c12.189-.584 35.086.668 58.098 2.077 23.012 1.41 46.16 2.969 59.287 2.969 17.09 0 25.694-3.391 31.197-7.113l.002-.002c5.293-3.566 7.21-7.894 6.456-11.454-.3-1.416-1.105-2.567-2.106-3.515zm-62.531-12.121c.353 1.141 1.005 2.147 1.865 3.008-.562 4.265-2.004 8.72-4.436 12.299-.534.785-1.084 1.208-1.418 1.355-.334.147-.34.096-.386.065-.046-.031-.274-.246-.373-.96-.1-.71-.037-1.847.37-3.343l.003-.004v-.004c.88-3.147 2.72-7.943 4.375-12.417zm10.998 4.404c-.063.14-.125.28-.185.421.04-.138.084-.275.122-.413l.063-.008zm-50-9.845c.088.02.173.045.253.072.647.214 1.04.531 1.288 1.012.249.48.384 1.226.11 2.422v.006l-.003.008c-.797 3.608-4.854 6.673-7.916 8.156l-2.388 1.156 2.179 1.512c.82.569 1.084 1.257 1.084 2.396 0 1.14-.409 2.62-1.047 4.037l-.004.01-.003.009c-.348.8-.551 1.506-.58 2.21-.03.706.145 1.507.744 2.085.598.578 1.453.71 2.1.605.35-.057.625-.265.929-.412-.383.37-.758.816-1.147 1.11-1.522 1.108-3.473 1.42-4.947 1.017-1.476-.404-2.458-1.283-2.633-3.107v-.002c-.148-1.522.665-3.554 1.576-5.383.456-.915.916-1.765 1.243-2.598.163-.416.303-.828.353-1.322.05-.494-.01-1.165-.441-1.732l-.008-.01-.008-.01c-.245-.313-.548-.446-.84-.614 2.35-.694 4.138-1.977 5.25-3.416.796-1.03 1.288-2.107 1.46-3.162.169-1.046.048-2.309-1.032-3.086-.908-.67-1.99-.557-2.865-.246a20.74 20.74 0 0 1 2.124-1.58 8.18 8.18 0 0 1 2.928-1.144v-.001c.84-.15 1.625-.145 2.241.002zm16.615 5.232c-.115.438-.05.53-.268 1.037-.726 1.7-2.003 3.53-3.404 4.905.818-2.314 2.122-4.445 3.672-5.942zm59.418 12.74-.096.137c-2.057 2.966-2.453 6.061-2.486 8.447h-4.655c1.326-4.095 3.9-6.41 7.237-8.584zM48.705 102.1c-1.617 3.905-4.567 10.62-7.666 19.294v.004c-.33.932-.515 1.682-.521 2.423-.007.74.269 1.742 1.152 2.216.837.45 1.588.234 2.162-.018-1.964 2.07-4.047 3.669-5.555 3.669-1.284 0-1.718-.334-2.103-.928-.385-.595-.616-1.671-.57-2.98l.126-3.715c2.135-3.07 3.578-7.521 5.696-13.09l.002-.006.002-.008c.76-2.06 1.3-3.957 1.787-5.76 2.11-.163 3.934-.535 5.488-1.102zm17.473 5.812a3.997 3.997 0 0 1-.729 1.508c-.605.783-1.642 1.475-2.941 2.008.738-1.008 1.508-1.889 2.226-2.53a6.306 6.306 0 0 1 1.444-.986zm-31.118-5.791c-.367 2.91-1.433 5.98-2.793 8.924-1.534 3.322-3.261 6.403-4.119 9.117-.32 1.008-.442 1.914-.314 2.766.128.852.567 1.682 1.281 2.172 1.148.788 2.452.463 3.594-.188-2.212 3.04-4.52 4.775-6.584 4.775-2.23 0-3.249-.932-3.775-2.593-.526-1.662-.266-4.192 1.12-6.758l.003-.002c2.996-5.564 6.236-10.618 7.013-17.152 1.947-.17 3.39-.51 4.574-1.06zm35.229 24.912-.022.016c.005-.003.01-.01.014-.012l.008-.004zm-36.736-2.535-.022.018.012-.012c.003-.002.007-.003.01-.006z"
         style="color:#000;font-size:51.4946px;font-family:MingLiU-ExtB;-inkscape-font-specification:&quot;Alameda Script PERSONAL USE&quot;;text-align:center;text-anchor:middle;display:inline;fill:#fff;stroke:none;stroke-width:3.1;stroke-dashoffset:.879118;-inkscape-stroke:none;paint-order:stroke fill markers"
         transform="rotate(-11.476 -94.599 -43.615)"
         id="path10" /><path
         d="M37.514 19.64c-1.545.875-4.274 1.442-7.518 1.596-1.08 4.273-7.58 21.077-10.409 30.032-3.038 4.577-7.874 7.56-10.704 7.56-3.347 0-4.891-2.472-5.097-5.716 5.458-.824 14.624-6.592 15.242-13.956.463-5.2-5.613-7.672-13.595-.463-4.437 4.026-7.274 8.473-8.64 12.564l-.01.001c-1.649 2.575-4.79 7.158-6.85 8.6-1.493 1.08-2.832.463-1.648-2.266 1.39-3.09 1.957-6.592-.566-8.343 3.296-1.596 7.776-4.789 8.754-9.217 1.34-5.82-4.738-6.849-9.166-4.017-2.472 1.597-3.708 2.833-4.738 4.12 3.4-8.96 6.643-16.89 7.673-19.31l-1.184-1.185c-1.493.876-4.84 1.545-9.012 1.7-1.076 6.454-4.533 16.286-9.879 29.985-1.142 1.76-3.223 4.793-5.106 6.473-1.75 1.596-3.192 1.544-2.008-1.803 3.347-9.372 6.695-16.838 8.188-20.546l-1.133-1.184c-1.545.875-4.326 1.441-7.518 1.596a67.768 67.768 0 0 1-2.06 6.643c-2.781 7.312-4.531 12.564-7.415 14.882-1.854 1.544-4.017.72-2.936-2.678 1.545-4.892 6.85-12.41 7.21-19.568l-1.7-.618c-1.544.876-2.729 1.185-5.973 1.34-.412 6.745-3.81 11.791-7.055 17.816-3.09 5.716-1.545 11.638 4.017 11.638 2.884 0 5.561-2.215 7.93-5.51-.103 2.987.875 5.51 4.223 5.51 2.752 0 5.58-2.505 7.941-5.392-.573 1.44-1.157 2.903-1.762 4.414h9.166c1.133-3.965 2.832-9.064 4.737-14.367 1.7-.31 3.348-.31 3.914.411.979 1.288-3.45 6.026-3.038 10.248.463 4.84 6.23 5.973 10.041 3.192 2.29-1.724 4.347-4.517 6.004-7.125-.013 5.052 2.785 8.67 8.055 8.67 3.708 0 9.608-2.597 14.317-8.444-.534 5.258 2.072 8.393 5.868 8.393 3.914 0 7.364-2.523 10.145-5.51 3.295-3.656 6.436-9.578 7.827-15.088a19.338 19.338 0 0 0 4.065-.723c-5.517 9.456-4.986 21.166 2.475 21.166 8.651 0 13.8-11.38 15.5-17.92 2.55-.521 5.001-1.711 7.053-3.029-.335 2.49-.575 5.032-.668 7.355-4.84 3.038-9.166 5.819-10.505 12.72l8.24-.001c-.155-2.06.102-5.922 2.317-9.115.309 4.429 1.853 10.145 7.106 10.145 5.03 0 10.306-8.352 12.482-12.122 5.65.29 8.912 7.904-.484 14.233-5.252 3.553-13.44 6.849-30.33 6.849-26.005 0-92.69-6.231-117.46-5.047-21.679 1.03-19.104 11.587-9.578 13.132-.257-1.288 5.15-2.781 22.246-3.193 22.658-.567 76.676 3.038 108.19 3.038 17.148 0 27.807-7.776 32.905-14.213 7.879-9.938 1.288-18.64-6.642-16.735-1.133 1.75-3.142 4.84-5.098 6.54-2.936 2.523-5.87.463-6.128-3.811a22.902 22.902 0 0 1 0-3.759c5.87-2.266 11.74-5.407 14.521-12.668-.72-1.442-3.605-2.884-5.922-3.76-1.905 6.026-4.634 10.3-8.239 13.132.721-4.789 2.266-8.96 3.296-11.483l-1.184-1.184c-1.545.875-4.274 1.442-7.519 1.596a71.226 71.226 0 0 0-1.107 5.427c-2.001.952-4.427 1.727-6.771 1.988.669-4.995-.567-7.981-2.987-9.011-2.575-1.133-5.87-.206-9.012 2.11a24.25 24.25 0 0 0-4.453 4.339c-1.684.434-3.7.539-5.64.348.103-1.03.155-2.06.052-2.987-.721-5.664-7.879-5.664-9.115-.257-.566 2.472.258 4.892 2.215 6.334-.515 4.686-2.112 9.629-4.84 13.645-2.627 3.863-6.386 2.421-4.584-4.17 2.678-9.578 10.711-29.095 12.204-32.803Zm22.822 17.149c.773.172 1.259.96 1.381 2.367-1.802.36-3.193 1.597-3.708 3.142-.566 1.75-.103 4.377 2.215 5.407-2.112 6.745-5.047 10.814-7.158 10.814-4.944 0-2.163-16.788 5.304-21.216.774-.46 1.437-.632 1.966-.514zm-108.612-16.17c-.36.05-.669.102-1.08.205-7.88 1.185-13.75-4.17-23.482-3.604-26.623 1.545-31.979 28.22-16.17 30.948 10.041 1.751 13.852-9.887 7.57-13.183-.103 2.112-2.73 4.12-5.922 2.936-6.488-2.42-2.06-12.874 5.15-14.11 10.762-1.802 12.512 3.244 21.42 4.274-10.092 14.213-11.946 42.844-27.24 47.53-15.86 4.892-18.177-15.86-5.149-13.75-.515-6.282-7.776-8.754-13.183-4.582-10.968 8.393-4.274 26.571 13.389 24.666 28.94-3.09 31.618-42.895 45.779-59.58-.515-.463-.876-1.081-1.082-1.75zM11.38 38.623c2.144.314-1.911 10.632-7.543 12.119.463-4.326 2.832-9.218 6.23-11.586.574-.419 1.006-.578 1.313-.533zm-23.892 1.572c.185.026.348.09.488.196 1.545 1.082-.824 7.26-8.136 7.415 2.194-4.48 5.867-7.86 7.648-7.61z"
         style="font-family:&quot;Alameda Script PERSONAL USE&quot;;-inkscape-font-specification:&quot;Alameda Script PERSONAL USE&quot;;display:inline;fill:#c43c3c;fill-opacity:1"
         transform="rotate(-11.476 192.47 -472.298)"
         id="path11" /></g><g
       aria-label="title strips"
       style="font-size:16.1622px;font-family:MingLiU-ExtB;-inkscape-font-specification:MingLiU-ExtB;text-align:center;text-anchor:middle;display:inline;fill:#3c3c3c;stroke-width:1.25545;stroke-dashoffset:.879118;paint-order:stroke fill markers"
       id="g13" /></g></svg>
