<svg xmlns="http://www.w3.org/2000/svg" xml:space="preserve" id="Layer_1" x="0" y="0" version="1.1" viewBox="0 0 1418 235"><style>.st0{fill:#006bff}</style><path d="M468.8 37.9h-21.6v142.9h78.7v-18.2h-57.1zm114.8 33c-25.9 0-40.8 11.2-40.8 30.7v50.5c0 19.5 14.9 30.7 40.8 30.7s40.8-11.2 40.8-30.7v-50.5c0-19.5-14.9-30.7-40.8-30.7m-20.4 34.8c0-11 6.5-16.1 20.4-16.1 13.8 0 20.2 5.1 20.2 16.1V148c0 11-6.4 16.1-20.2 16.1-13.9 0-20.4-5.1-20.4-16.1zM705.7 77c-8.5-4.1-17.4-6.1-27.7-6.1-20.4 0-32.6 11-32.6 29.5v49.1c0 18.9 12.8 30.7 33.4 30.7 7.9 0 16.2-1.9 24.1-5.5v4c0 14.3-9.3 21.2-28.4 21.2-9.1 0-20.9-1.6-25.7-2.7l-1.9-.4v18.1l1.2.3c7.1 1.5 18.4 2.6 27.3 2.6 33.2 0 47.9-11.9 47.9-38.4V72.1h-16.5zm-39.8 27.1c0-12 8.9-14.6 16.3-14.6 7.6 0 13.1 1.4 20.6 5.2v62c-7.2 3.3-13.6 4.9-20 4.9-14 0-16.9-9.2-16.9-16.9zm166.3-13.9V77.5c0-26.7-16.2-39.6-49.5-39.6h-35.9v142.9h21.7V127h16.6l34.2 53.8H844l-36.9-56.7c16.7-4.9 25.1-16.3 25.1-33.9m-63.7 18.6V56.2h15.4c18.5 0 26.8 6.9 26.8 22.3V88c0 14.6-8.2 20.8-27.6 20.8zm140.4-37.9c-9.1 0-18.6 2.4-28.9 7.2V37.9h-20.4v142.9H880V96.6c6.3-3 15.3-6.8 23.1-6.8 9 0 13.4 4.6 13.4 14v77.1H937V99.1c0-18.2-10-28.2-28.1-28.2m89.2 82.5-25.2-80.5H951l36.6 106-.2.6c-6 17.1-13 20.5-22.4 20.5-3.9 0-6.4-.3-8.3-.9l-2-.7v17.7l1.1.3c2.6.7 5.9 1 11.5 1 16.6 0 29.8-5.9 39.7-34.8l36.8-109.8h-22.1zm97.9 10.9c-10.4 0-14.6-4.2-14.6-14.6V89.9h24.9v-17h-24.9V45.7h-16.7l-3.9 27.2v79.8c0 19.7 10.2 29.3 31.1 29.3 6.7 0 14.2-1 17.5-2l1.1-.3V162l-2.1.7c-1.8.7-7.9 1.6-12.4 1.6m85-93.4c-9.1 0-18.6 2.4-28.9 7.2V37.9h-20.4v142.9h20.4V96.6c6.3-3 15.3-6.8 23.1-6.8 9 0 13.4 4.6 13.4 14v77.1h20.6V99.1c-.1-18.2-10.1-28.2-28.2-28.2m153.3 0c-11.4 0-22.6 3.6-31.8 10.2-4.8-6.8-12.9-10.2-23.9-10.2-9.3 0-19.8 3.1-27.5 7.9l-1.5-6.8h-16.8v108.7h20.4V95.6c5.8-4 13.6-6.4 21-6.4 9.3 0 13.4 4.7 13.4 15.4v76.3h20.4v-80.6c0-1.3-.1-2.7-.3-4.1 7.3-4.6 14.6-7 21.7-7 9 0 13.2 4.9 13.2 15.4v76.3h20.6v-80.6c-.2-18.7-10.7-29.4-28.9-29.4" class="st0"/><linearGradient id="SVGID_1_" x1="46.622" x2="292.348" y1="178.793" y2="72.455" gradientUnits="userSpaceOnUse"><stop offset=".151" style="stop-color:#00ada3"/><stop offset=".497" style="stop-color:#00b6ed"/><stop offset="1" style="stop-color:#006bff"/></linearGradient><path d="M385.2 17.4 380.9 29c-8.6 23.2-22.8 58.5-41.7 94.5-33.8 64.2-62.9 77.7-81.3 77.7-20.1 0-32.8-21.2-40.6-43.1-5.4-15.1-7.8-31.3-12.4-46.6-7.4-24.2-17.4-39.3-26.8-39.3-21.1 0-34 37.8-37.2 52.3l-1.5 6.8H11.9l2.3-10.5c.6-2.7 14.7-66 54.1-66 19 0 31.5 18.7 39.6 40.4H89.1c-6.4-14.7-13.8-23.1-20.9-23.1-18.9 0-30.7 30.6-34.3 41.8h91.7C130.8 95.8 146.1 55 178 55c17.7 0 29.7 16.5 37.6 35.4 1.7 5.5 3.3 11 4.9 16.5 5.4 19.2 9.4 38.9 17.7 57.1 3.6 7.8 9.5 20 19.6 20 11.2 0 34.7-8.9 66-68.5 16.1-30.7 28.6-60.7 36.4-80.8H269c-6.9 18.3-17.5 44.4-31.2 72.2-1.2-4.6-2.4-9.2-3.7-13.7-1.1-3.9-2.3-7.7-3.4-11.6a823 823 0 0 0 24.2-58.5l2.1-5.7zM196.6 144.8c-22.8 33.5-39.8 39.2-48.5 39.2-8.8 0-17.9-13-25-34h-18.3c7.4 24.5 20.7 51.3 43.3 51.3 13.1 0 31.9-7 53.9-34.8-1.8-7.2-3.5-14.5-5.4-21.7" style="fill:url(#SVGID_1_)"/><path d="M1390.5 70.9c8.1 0 14.6 6.5 14.6 14.6s-6.5 14.6-14.6 14.6-14.6-6.6-14.6-14.6 6.5-14.6 14.6-14.6m0 3.5c-6.2 0-11 4.8-11 11.1s4.8 11.1 11 11.1 10.9-4.8 10.9-11.1c0-6.2-4.8-11.1-10.9-11.1m-1.8 18.8h-3.7v-16h5.8c4.5 0 6.3 1.7 6.3 4.8 0 2.1-.9 3.7-2.9 4.3l3.3 6.8h-4.1l-3-6.2h-1.8v6.3zm0-12.9v3.6h1.7c2.2 0 3.1-.6 3.1-1.8 0-1.3-1-1.8-3.2-1.8z" class="st0"/></svg>