<?xml version="1.0" encoding="utf-8"?>
<!-- Generator: Adobe Illustrator 27.4.0, SVG Export Plug-In . SVG Version: 6.00 Build 0)  -->
<svg version="1.1" id="Layer_1" xmlns="http://www.w3.org/2000/svg" xmlns:xlink="http://www.w3.org/1999/xlink" x="0px" y="0px"
	 viewBox="0 0 1418 235" style="enable-background:new 0 0 1418 235;" xml:space="preserve">
<style type="text/css">
	.st0{fill:#006BFF;}
	.st1{fill:url(#SVGID_1_);}
</style>
<g>
	<g>
		<polygon class="st0" points="468.8,37.9 447.2,37.9 447.2,180.8 525.9,180.8 525.9,162.6 468.8,162.6 		"/>
		<path class="st0" d="M583.6,70.9c-25.9,0-40.8,11.2-40.8,30.7v50.5c0,19.5,14.9,30.7,40.8,30.7c25.9,0,40.8-11.2,40.8-30.7v-50.5
			C624.4,82.1,609.5,70.9,583.6,70.9z M563.2,105.7c0-11,6.5-16.1,20.4-16.1c13.8,0,20.2,5.1,20.2,16.1V148c0,11-6.4,16.1-20.2,16.1
			c-13.9,0-20.4-5.1-20.4-16.1V105.7z"/>
		<path class="st0" d="M705.7,77c-8.5-4.1-17.4-6.1-27.7-6.1c-20.4,0-32.6,11-32.6,29.5v49.1c0,18.9,12.8,30.7,33.4,30.7
			c7.9,0,16.2-1.9,24.1-5.5v4c0,14.3-9.3,21.2-28.4,21.2c-9.1,0-20.9-1.6-25.7-2.7l-1.9-0.4v18.1l1.2,0.3c7.1,1.5,18.4,2.6,27.3,2.6
			c33.2,0,47.9-11.9,47.9-38.4V72.1h-16.5L705.7,77z M665.9,104.1c0-12,8.9-14.6,16.3-14.6c7.6,0,13.1,1.4,20.6,5.2v62
			c-7.2,3.3-13.6,4.9-20,4.9c-14,0-16.9-9.2-16.9-16.9V104.1z"/>
		<path class="st0" d="M832.2,90.2V77.5c0-26.7-16.2-39.6-49.5-39.6h-35.9v142.9h21.7V127h16.6l34.2,53.8H844l-36.9-56.7
			C823.8,119.2,832.2,107.8,832.2,90.2z M768.5,108.8V56.2h15.4c18.5,0,26.8,6.9,26.8,22.3V88c0,14.6-8.2,20.8-27.6,20.8H768.5z"/>
		<path class="st0" d="M908.9,70.9c-9.1,0-18.6,2.4-28.9,7.2V37.9h-20.4v142.9h20.4V96.6c6.3-3,15.3-6.8,23.1-6.8
			c9,0,13.4,4.6,13.4,14v77.1H937V99.1C937,80.9,927,70.9,908.9,70.9z"/>
		<path class="st0" d="M998.1,153.4l-25.2-80.5h-21.9l36.6,106l-0.2,0.6c-6,17.1-13,20.5-22.4,20.5c-3.9,0-6.4-0.3-8.3-0.9l-2-0.7
			v17.7l1.1,0.3c2.6,0.7,5.9,1,11.5,1c16.6,0,29.8-5.9,39.7-34.8l36.8-109.8h-22.1L998.1,153.4z"/>
		<path class="st0" d="M1096,164.3c-10.4,0-14.6-4.2-14.6-14.6V89.9h24.9V72.9h-24.9V45.7h-16.7l-3.9,27.2l0,17.1v62.7
			c0,19.7,10.2,29.3,31.1,29.3c6.7,0,14.2-1,17.5-2l1.1-0.3v-17.7l-2.1,0.7C1106.6,163.4,1100.5,164.3,1096,164.3z"/>
		<path class="st0" d="M1181,70.9c-9.1,0-18.6,2.4-28.9,7.2V37.9h-20.4v142.9h20.4V96.6c6.3-3,15.3-6.8,23.1-6.8
			c9,0,13.4,4.6,13.4,14v77.1h20.6V99.1C1209.1,80.9,1199.1,70.9,1181,70.9z"/>
		<path class="st0" d="M1334.3,70.9c-11.4,0-22.6,3.6-31.8,10.2c-4.8-6.8-12.9-10.2-23.9-10.2c-9.3,0-19.8,3.1-27.5,7.9l-1.5-6.8
			h-16.8v108.7h20.4V95.6c5.8-4,13.6-6.4,21-6.4c9.3,0,13.4,4.7,13.4,15.4v76.3h20.4v-80.6c0-1.3-0.1-2.7-0.3-4.1
			c7.3-4.6,14.6-7,21.7-7c9,0,13.2,4.9,13.2,15.4v76.3h20.6v-80.6C1363,81.6,1352.5,70.9,1334.3,70.9z"/>
	</g>
	<g>
		<linearGradient id="SVGID_1_" gradientUnits="userSpaceOnUse" x1="46.6222" y1="178.7926" x2="292.3482" y2="72.455">
			<stop  offset="0.1512" style="stop-color:#00ADA3"/>
			<stop  offset="0.4968" style="stop-color:#00B6ED"/>
			<stop  offset="1" style="stop-color:#006BFF"/>
		</linearGradient>
		<path class="st1" d="M385.2,17.4l-4.3,11.6c-8.6,23.2-22.8,58.5-41.7,94.5c-33.8,64.2-62.9,77.7-81.3,77.7
			c-20.1,0-32.8-21.2-40.6-43.1c-5.4-15.1-7.8-31.3-12.4-46.6c-7.4-24.2-17.4-39.3-26.8-39.3c-21.1,0-34,37.8-37.2,52.3l-1.5,6.8
			l-127.5,0l2.3-10.5c0.6-2.7,14.7-66,54.1-66c19,0,31.5,18.7,39.6,40.4H89.1c-6.4-14.7-13.8-23.1-20.9-23.1
			c-18.9,0-30.7,30.6-34.3,41.8h91.7C130.8,95.8,146.1,55,178,55c17.7,0,29.7,16.5,37.6,35.4c1.7,5.5,3.3,11,4.9,16.5
			c5.4,19.2,9.4,38.9,17.7,57.1c3.6,7.8,9.5,20,19.6,20c11.2,0,34.7-8.9,66-68.5c16.1-30.7,28.6-60.7,36.4-80.8H269
			c-6.9,18.3-17.5,44.4-31.2,72.2c-1.2-4.6-2.4-9.2-3.7-13.7c-1.1-3.9-2.3-7.7-3.4-11.6c10.4-22.6,18.6-43.3,24.2-58.5l2.1-5.7
			H385.2z M196.6,144.8c-22.8,33.5-39.8,39.2-48.5,39.2c-8.8,0-17.9-13-25-34h-18.3c7.4,24.5,20.7,51.3,43.3,51.3
			c13.1,0,31.9-7,53.9-34.8C200.2,159.3,198.5,152,196.6,144.8z"/>
	</g>
</g>
<g>
	<path class="st0" d="M1390.5,70.9c8.1,0,14.6,6.5,14.6,14.6s-6.5,14.6-14.6,14.6c-8.1,0-14.6-6.6-14.6-14.6
		S1382.4,70.9,1390.5,70.9z M1390.5,74.4c-6.2,0-11,4.8-11,11.1c0,6.3,4.8,11.1,11,11.1s10.9-4.8,10.9-11.1
		C1401.4,79.3,1396.6,74.4,1390.5,74.4z M1388.7,93.2h-3.7v-16h5.8c4.5,0,6.3,1.7,6.3,4.8c0,2.1-0.9,3.7-2.9,4.3l3.3,6.8h-4.1
		l-3-6.2h-1.8V93.2z M1388.7,80.3v3.6h1.7c2.2,0,3.1-0.6,3.1-1.8c0-1.3-1-1.8-3.2-1.8H1388.7z"/>
</g>
</svg>
