<?xml version="1.0" encoding="UTF-8" standalone="no"?>
<svg
   height="456.52286"
   width="923.07721"
   viewBox="-59.85 -49.333 399.00012 168.91232"
   version="1.1"
   id="svg184"
   sodipodi:docname="Lonely_Planet-Logo.svg"
   inkscape:version="1.2 (dc2aedaf03, 2022-05-15)"
   xmlns:inkscape="http://www.inkscape.org/namespaces/inkscape"
   xmlns:sodipodi="http://sodipodi.sourceforge.net/DTD/sodipodi-0.dtd"
   xmlns="http://www.w3.org/2000/svg"
   xmlns:svg="http://www.w3.org/2000/svg">
  <defs
     id="defs188" />
  <sodipodi:namedview
     id="namedview186"
     pagecolor="#ffffff"
     bordercolor="#000000"
     borderopacity="0.25"
     inkscape:showpageshadow="2"
     inkscape:pageopacity="0.0"
     inkscape:pagecheckerboard="0"
     inkscape:deskcolor="#d1d1d1"
     showgrid="false"
     inkscape:zoom="0.71830264"
     inkscape:cx="216.48257"
     inkscape:cy="2.7843417"
     inkscape:window-width="1920"
     inkscape:window-height="1017"
     inkscape:window-x="-8"
     inkscape:window-y="645"
     inkscape:window-maximized="1"
     inkscape:current-layer="svg184" />
  <path
     d="m 230.97699,69.218758 c -13.26,37.477762 -49.55,64.570402 -92.04,64.570402 -42.717994,0 -78.957993,-26.80744 -92.013993,-64.716994 l 4.957,-1.705257 4.998,-1.688304 c 11.951999,33.487857 44.118003,57.064285 82.034993,57.064285 37.794,0 70.116,-23.943408 82.166,-57.2029 z M 46.922997,2.7566166 C 60.174997,-35.414215 96.463996,-62.9955 138.95399,-62.9955 c 42.744,0 78.967,27.313031 92.023,65.9156617 l -4.957,1.7371682 -4.998,1.7132348 c -11.96,-34.1151117 -44.126,-58.1243327 -82.035,-58.1243327 -37.80999,0 -70.131994,24.392156 -82.165993,58.2629472 z m 116.195993,24.3193584 -0.327,-12.457352 m 0.647,12.457352 c 5.022,0 9.12,4.086633 9.12,9.094703 0,5.026021 -4.098,9.113652 -9.12,9.113652 -5.04,0 -9.146,-4.087631 -9.146,-9.112654 0,-5.009068 4.106,-9.095701 9.146,-9.095701 m 53.026,-0.03291 -0.14,-12.42544 m 0.41,12.458349 c 5.03,0 9.13,4.086633 9.13,9.094703 0,5.026021 -4.1,9.113652 -9.13,9.113652 -5.048,0 -9.138,-4.087631 -9.138,-9.112654 0,-5.009068 4.09,-9.095701 9.138,-9.095701 m 121.244,14.789863 0.638,-0.571411 0.532,12.09835 c 0.13,2.903923 -10.978,7.219918 -17.155,2.7324 -6.184,-4.477546 -6.323,-9.666115 -6.323,-16.486145 h -29.066 c 3.125,8.231105 13.04,7.349557 15.805,3.206082 l 12.058,1.949578 c -4.458,13.909312 -16.377,15.712297 -27.814,12.008599 -5.783,-2.822151 -9.268,-6.24164 -11.878,-12.156189 v 13.828537 h -14.169 c 0,-8.492379 0.017,-18.135557 -0.098,-26.774529 -0.458,-5.629342 -9.506,-5.163638 -9.506,0.334071 v 26.440458 l -14.03,0.203434 h -9.644 l -0.008,-8.36972 c -0.009,-3.328741 -3.813,8.663902 -8.361,8.36972 -9.833,0.718003 -17.768,-4.347906 -21.916,-13.142445 v 12.939011 h -14.43 v -12.93901 c -4.189,8.394651 -15.175,13.811584 -25.94,11.09514 l -1.596,-0.669139 c 0,0 0.45,14.904544 0.45,18.754835 h -14.398 V 36.603475 c 0.36,-17.979991 19.822,-28.6503121 34.612,-17.939104 3.125,2.545918 5.072,5.106796 6.872,8.695813 V -2.6762723 h 14.43 V 27.360184 c 4.68,-9.584342 13.727,-14.210475 24.362,-12.448376 7.886,2.169964 12.484,6.037208 15.658,13.379785 4.008,-11.715414 15.134,-16.504095 26.685,-12.457351 5.824,2.7324 8.957,6.436099 11.027,12.457351 5.268,-11.487049 16.68,-16.454234 28.632,-12.236964 5.964,2.740378 9.76,6.215712 12.263,12.235967 V 5.9477408 h 13.947 v 8.7775862 h 8.827 v 12.874191 h -8.827 c 0,4.355885 -0.703,8.752656 0.655,12.848264 1.333,2.855059 5.137,3.499267 7.706,1.419053 m -43.594,-27.190372 0.515,12.252919 m -8.393,6.445074 h 17.482 c -2.757,-8.916201 -15.102,-8.549221 -17.482,0 m -312.939991,-6.493938 0.148,-12.260897 m 0.4,12.204055 c 5.04,0 9.138,4.095609 9.138,9.112654 0,5.025024 -4.098,9.111657 -9.137,9.111657 -5.031,0 -9.113,-4.086633 -9.113,-9.111657 0,-5.017045 4.082,-9.112654 9.113,-9.112654 M 123.10799,61.249923 V 14.487987 H 108.931 v 26.741621 c 0,4.837544 -7.1,4.878431 -7.1,0 V 14.487987 H 87.677996 V -2.6762723 h -14.422 V 28.291593 c -4.638,-9.904451 -13.399999,-15.003269 -24.393999,-13.46056 -7.895,1.745146 -13.507,6.117983 -16.542,13.46056 -2.731999,-8.712766 -9.185999,-13.322943 -18.176999,-13.803606 -9.5379998,0 -16.6399996,4.650066 -19.5019995,13.803606 C -10.169001,17.734956 -19.789001,12.636138 -31.251001,15.221945 -38.131001,17.367976 -42.295,20.99788 -45.419,27.361181 V -2.6752751 H -59.85 V 58.474642 h 14.43 V 44.752808 c 4.098999,8.191217 10.945999,12.710647 20.116999,12.890147 9.75,-0.570413 16.0089996,-5.195549 19.9439995,-13.811584 V 58.475639 H 8.5309981 V 32.084045 c 0.54,-5.751004 9.3179999,-5.930505 9.8499999,0 v 26.391594 h 13.939999 v -13.82754 c 3.206,7.088285 8.245,11.363394 15.796,13.289038 16.541,1.57462 23.101999,-9.781793 23.191999,-12.628874 L 59.364997,43.505278 c -6.037,4.560316 -12.941,2.193898 -15.125,-3.866246 h 29.015999 v 18.836607 h 14.422 v -9.676087 c 2.389,9.586337 14.259004,12.849261 21.000004,5.662251 0,2.113123 -0.221,4.592228 -0.876,6.6156 -2.167,5.18059 -9.390004,5.18059 -13.130004,1.713234 l -8.507,10.956526 c 5.432,4.266134 10.913,6.330393 17.932004,5.669231 5.775,-0.578391 9.448,-1.590575 13.858,-5.547569 3.34499,-3.727632 4.93999,-7.610832 5.15299,-12.619899 M 61.663997,34.091462 c -2.855,-9.153541 -14.979,-8.989996 -17.735,0 z"
     fill="#2a3e92"
     fill-rule="evenodd"
     id="path1074"
     style="stroke-width:0.998612" />
</svg>
