<svg xmlns="http://www.w3.org/2000/svg" height="800" width="1200" viewBox="-59.85 -49.333 518.7 295.998"><path d="M290.827 132.582c-13.26 37.582-49.55 64.75-92.04 64.75-42.718 0-78.958-26.882-92.014-64.897l4.957-1.71 4.998-1.693c11.952 33.581 44.118 57.223 82.035 57.223 37.794 0 70.116-24.01 82.166-57.362zM106.773 65.935C120.025 27.658 156.314 0 198.804 0c42.744 0 78.967 27.389 92.023 66.099l-4.957 1.742-4.998 1.718c-11.96-34.21-44.126-58.286-82.035-58.286-37.81 0-70.132 24.46-82.166 58.425zm116.196 24.387l-.327-12.492m.647 12.492c5.022 0 9.12 4.098 9.12 9.12 0 5.04-4.098 9.139-9.12 9.139-5.04 0-9.146-4.099-9.146-9.138 0-5.023 4.106-9.121 9.146-9.121m53.026-.033l-.14-12.46m.41 12.493c5.03 0 9.13 4.098 9.13 9.12 0 5.04-4.1 9.139-9.13 9.139-5.048 0-9.138-4.099-9.138-9.138 0-5.023 4.09-9.121 9.138-9.121m121.244 14.831l.638-.573.532 12.132c.13 2.912-10.978 7.24-17.155 2.74-6.184-4.49-6.323-9.693-6.323-16.532h-29.066c3.125 8.254 13.04 7.37 15.805 3.215l12.058 1.955c-4.458 13.948-16.377 15.756-27.814 12.042-5.783-2.83-9.268-6.259-11.878-12.19v13.867h-14.169c0-8.516.017-18.186-.098-26.849-.458-5.645-9.506-5.178-9.506.335v26.514l-14.03.204h-9.644l-.008-8.393c-.009-3.338-3.813 8.688-8.361 8.393-9.833.72-17.768-4.36-21.916-13.179v12.975h-14.43v-12.975c-4.189 8.418-15.175 13.85-25.94 11.126l-1.596-.671s.45 14.946.45 18.807H200.98v-38.22c.36-18.03 19.822-28.73 34.612-17.989 3.125 2.553 5.072 5.121 6.872 8.72v-30.12h14.43v30.12c4.68-9.611 13.727-14.25 24.362-12.483 7.886 2.176 12.484 6.054 15.658 13.417 4.008-11.748 15.134-16.55 26.685-12.492 5.824 2.74 8.957 6.454 11.027 12.492 5.268-11.519 16.68-16.5 28.632-12.271 5.964 2.748 9.76 6.233 12.263 12.27V69.135h13.947v8.802h8.827v12.91h-8.827c0 4.368-.703 8.777.655 12.884 1.333 2.863 5.137 3.509 7.706 1.423m-43.594-27.266l.515 12.287m-8.393 6.463h17.482c-2.757-8.941-15.102-8.573-17.482 0m-312.94-6.512l.148-12.295m.4 12.238c5.04 0 9.138 4.107 9.138 9.138 0 5.039-4.098 9.137-9.137 9.137-5.031 0-9.113-4.098-9.113-9.137 0-5.031 4.082-9.138 9.113-9.138m148.992 34.522V77.699h-14.177v26.816c0 4.851-7.1 4.892-7.1 0V77.699h-14.153V60.487h-14.422v31.054c-4.638-9.932-13.4-15.045-24.394-13.498-7.895 1.75-13.507 6.135-16.542 13.498-2.732-8.737-9.186-13.36-18.177-13.842-9.538 0-16.64 4.663-19.502 13.842-4.81-10.586-14.43-15.699-25.892-13.106-6.88 2.152-11.044 5.792-14.168 12.173v-30.12H0v61.32h14.43v-13.76c4.099 8.214 10.946 12.746 20.117 12.926 9.75-.572 16.009-5.21 19.944-13.85v14.685h13.89V95.344c.54-5.767 9.318-5.947 9.85 0v26.465h13.94v-13.866c3.206 7.108 8.245 11.395 15.796 13.326 16.541 1.579 23.102-9.809 23.192-12.664l-11.944-1.808c-6.037 4.573-12.941 2.2-15.125-3.877h29.016v18.889h14.422v-9.703c2.389 9.613 14.259 12.885 21 5.678 0 2.119-.221 4.605-.876 6.634-2.167 5.195-9.39 5.195-13.13 1.718l-8.507 10.987c5.432 4.278 10.913 6.348 17.932 5.685 5.775-.58 9.448-1.595 13.858-5.563 3.345-3.738 4.94-7.632 5.153-12.655m-61.444-27.233c-2.855-9.179-14.979-9.015-17.735 0z" fill="#2a3e92" fill-rule="evenodd"/></svg>