<svg xmlns="http://www.w3.org/2000/svg" width="923.077" height="456.523" viewBox="-59.85 -49.333 399 168.912"><path fill="#2a3e92" fill-rule="evenodd" d="M230.977 69.219c-13.26 37.478-49.55 64.57-92.04 64.57-42.718 0-78.958-26.807-92.014-64.717l4.957-1.705 4.998-1.688c11.952 33.487 44.118 57.064 82.035 57.064 37.794 0 70.116-23.944 82.166-57.203zM46.923 2.757c13.252-38.171 49.541-65.752 92.031-65.752 42.744 0 78.967 27.313 92.023 65.915l-4.957 1.737-4.998 1.714c-11.96-34.116-44.126-58.125-82.035-58.125-37.81 0-70.132 24.392-82.166 58.263zm116.196 24.319-.327-12.457m.647 12.457c5.022 0 9.12 4.087 9.12 9.095 0 5.026-4.098 9.113-9.12 9.113-5.04 0-9.146-4.087-9.146-9.112 0-5.01 4.106-9.096 9.146-9.096m53.026-.033-.14-12.425m.41 12.458c5.03 0 9.13 4.087 9.13 9.095 0 5.026-4.1 9.113-9.13 9.113-5.048 0-9.138-4.087-9.138-9.112 0-5.01 4.09-9.096 9.138-9.096m121.244 14.79.638-.572.532 12.099c.13 2.904-10.978 7.22-17.155 2.732-6.184-4.477-6.323-9.666-6.323-16.486h-29.066c3.125 8.231 13.04 7.35 15.805 3.206l12.058 1.95c-4.458 13.909-16.377 15.712-27.814 12.008-5.783-2.822-9.268-6.241-11.878-12.156v13.829h-14.169c0-8.493.017-18.136-.098-26.775-.458-5.63-9.506-5.164-9.506.334v26.44l-14.03.204h-9.644l-.008-8.37c-.009-3.328-3.813 8.664-8.361 8.37-9.833.718-17.768-4.348-21.916-13.142v12.939h-14.43v-12.94c-4.189 8.395-15.175 13.812-25.94 11.096l-1.596-.67s.45 14.905.45 18.755H141.13V36.603c.36-17.98 19.822-28.65 34.612-17.939 3.125 2.546 5.072 5.107 6.872 8.696V-2.676h14.43V27.36c4.68-9.584 13.727-14.21 24.362-12.448 7.886 2.17 12.484 6.037 15.658 13.38 4.008-11.716 15.134-16.505 26.685-12.458 5.824 2.733 8.957 6.436 11.027 12.458 5.268-11.487 16.68-16.455 28.632-12.237 5.964 2.74 9.76 6.215 12.263 12.236V5.948h13.947v8.777h8.827V27.6h-8.827c0 4.355-.703 8.752.655 12.848 1.333 2.855 5.137 3.499 7.706 1.419m-43.594-27.19.515 12.252m-8.393 6.445h17.482c-2.757-8.916-15.102-8.549-17.482 0m-312.94-6.493.148-12.261m.4 12.204c5.04 0 9.138 4.095 9.138 9.112 0 5.025-4.098 9.112-9.137 9.112-5.031 0-9.113-4.087-9.113-9.112 0-5.017 4.082-9.112 9.113-9.112M123.108 61.25V14.488h-14.177V41.23c0 4.837-7.1 4.878-7.1 0V14.488H87.678V-2.676H73.256v30.968c-4.638-9.905-13.4-15.004-24.394-13.461-7.895 1.745-13.507 6.118-16.542 13.46-2.732-8.712-9.186-13.322-18.177-13.803-9.538 0-16.64 4.65-19.502 13.804-4.81-10.557-14.43-15.656-25.892-13.07-6.88 2.146-11.044 5.776-14.168 12.14V-2.676H-59.85v61.15h14.43V44.753c4.099 8.191 10.946 12.71 20.117 12.89 9.75-.57 16.009-5.196 19.944-13.812v14.645h13.89V32.084c.54-5.751 9.318-5.93 9.85 0v26.392h13.94V44.648c3.206 7.088 8.245 11.363 15.796 13.29 16.541 1.574 23.102-9.783 23.192-12.63l-11.944-1.803c-6.037 4.56-12.941 2.194-15.125-3.866h29.016v18.837h14.422V48.8c2.389 9.586 14.259 12.849 21 5.662 0 2.113-.221 4.592-.876 6.615-2.167 5.181-9.39 5.181-13.13 1.714l-8.507 10.956c5.432 4.266 10.913 6.33 17.932 5.67 5.775-.579 9.448-1.591 13.858-5.548 3.345-3.728 4.94-7.611 5.153-12.62M61.664 34.09c-2.855-9.153-14.979-8.99-17.735 0z" style="stroke-width:.998612"/></svg>