<svg xmlns="http://www.w3.org/2000/svg" xmlns:xlink="http://www.w3.org/1999/xlink" id="Layer_1" x="0px" y="0px" viewBox="0 0 238.1 73.7" style="enable-background:new 0 0 238.1 73.7;" xml:space="preserve"><style type="text/css"> .Arched_x0020_Green{fill:url(#SVGID_1_);stroke:#FFFFFF;stroke-width:0.25;stroke-miterlimit:1;} .st0{fill:#0077B5;} .st1{fill-rule:evenodd;clip-rule:evenodd;fill:#6AA643;} .st2{fill:#3A3C3E;} .st3{fill:#010101;} .st4{fill-rule:evenodd;clip-rule:evenodd;fill:#010101;} .st5{fill:#FFFFFF;} .st6{fill-rule:evenodd;clip-rule:evenodd;fill:#FFFFFF;} .st7{fill-rule:evenodd;clip-rule:evenodd;fill:#F6871F;} .st8{fill:#1E9DD8;}</style><linearGradient id="SVGID_1_" gradientUnits="userSpaceOnUse" x1="118.8876" y1="-359.9997" x2="119.5947" y2="-360.7068"> <stop offset="0" style="stop-color:#20AB4B"></stop> <stop offset="0.9831" style="stop-color:#1D361D"></stop></linearGradient><path class="st0" d="M27,18v-6.3h4.2V18h4.2v-6.3h4.2V18h4.2v-6.3h4.2V18h8.4v8.4h6.3v4.2h-6.3v4.2h6.3v4.2h-6.3v4.2h6.3v4.2H52.1 V22.2H22.8v29.3l25.1,0v4.6v5.8h-4.2v-6.3h-4.2v6.3h-4.2v-6.3h-4.2v6.3H27v-6.3h-8.4v-8.4h-6.3v-4.2h6.3v-4.2h-6.3v-4.2h6.3v-4.2 h-6.3v-4.2h6.3V18H27z M30.8,34.2c1.4,0,2.6,1.2,2.6,2.6c0,1.4-1.2,2.6-2.6,2.6c-1.5,0-2.6-1.2-2.6-2.6 C28.2,35.4,29.4,34.2,30.8,34.2L30.8,34.2z M44.1,34.2c-1.5,0-2.6,1.2-2.6,2.6c0,1.4,1.2,2.6,2.6,2.6c1.4,0,2.6-1.2,2.6-2.6 C46.7,35.4,45.5,34.2,44.1,34.2L44.1,34.2z"></path><polygon class="st1" points="50.9,56 53.8,53.1 56.8,56 62.7,50.1 65.6,53.1 59.7,59 56.8,61.9 53.8,59 "></polygon><path class="st2" d="M86.1,48.3c-2.4,0-4.1-0.7-5.1-2.1c-1-1.4-1.5-3.8-1.5-7.1c0-3.3,0.6-5.7,1.8-7.1c1.2-1.4,3.4-2.1,6.5-2.1 l5.9,0.4v25.5h-2.6v-8.7C89.4,47.9,87.7,48.3,86.1,48.3L86.1,48.3z M87.8,32.2c-2.2,0-3.7,0.6-4.5,1.7c-0.8,1.1-1.2,2.9-1.2,5.3 c0,2.4,0.3,4.1,1,5.2c0.7,1,1.8,1.6,3.3,1.6c1.4,0,2.7-0.3,4.1-0.8l0.7-0.3V32.4C89.6,32.3,88.5,32.2,87.8,32.2L87.8,32.2z M109.8,30.3h2.6v17.7h-2.6v-1.2c-1.8,1.1-3.5,1.6-5.2,1.6c-2.4,0-4-0.6-4.8-1.9c-0.8-1.2-1.2-3.6-1.2-6.9v-9.2h2.6v9.2 c0,2.6,0.2,4.3,0.7,5.2c0.5,0.9,1.5,1.3,3.1,1.3c0.8,0,1.6-0.1,2.4-0.3c0.8-0.2,1.4-0.5,1.8-0.7l0.7-0.3V30.3z M130.1,35.6v9.1 c0.1,0.9,0.7,1.4,2,1.6l-0.1,2.1c-1.8,0-3.3-0.5-4.2-1.4c-2.1,1-4.3,1.4-6.4,1.4c-1.6,0-2.9-0.5-3.7-1.4c-0.8-0.9-1.3-2.3-1.3-4 c0-1.7,0.4-3,1.3-3.8c0.9-0.8,2.2-1.3,4.1-1.5l5.6-0.5v-1.5c0-1.2-0.3-2.1-0.8-2.6c-0.5-0.5-1.2-0.8-2.1-0.8c-1.9,0-3.9,0.1-5.9,0.4 l-1.1,0.1l-0.1-2c2.6-0.5,4.9-0.8,6.9-0.8c2,0,3.5,0.5,4.4,1.4C129.6,32.2,130.1,33.6,130.1,35.6L130.1,35.6z M119.2,42.8 c0,2.2,0.9,3.3,2.7,3.3c1.6,0,3.2-0.3,4.7-0.8l0.8-0.3v-5.8l-5.2,0.5c-1,0.1-1.8,0.4-2.3,0.9C119.4,41.1,119.2,41.8,119.2,42.8 L119.2,42.8z M138,47.9h-2.7V30.3h2.6v1.2c1.9-1,3.7-1.6,5.5-1.6c2.4,0,4,0.7,4.8,1.9c0.8,1.3,1.2,3.5,1.2,6.8v9.4h-2.6v-9.3 c0-2.5-0.3-4.1-0.7-5c-0.5-0.9-1.5-1.4-3.1-1.4c-0.8,0-1.6,0.1-2.4,0.3c-0.8,0.2-1.5,0.4-1.9,0.7l-0.7,0.3V47.9z M163.4,32.6h-5.6 V41c0,2,0.1,3.4,0.5,4c0.3,0.7,1,1,2.1,1l3.1-0.2l0.2,2.2c-1.6,0.3-2.8,0.4-3.6,0.4c-1.8,0-3.1-0.4-3.8-1.3c-0.7-0.9-1-2.6-1-5.1 v-9.3h-2.5v-2.3h2.5v-5.4h2.6v5.4h5.6V32.6z M171,47.9h-4.7V24.8l4.7-1.7v7.9c1.6-0.8,3.1-1.2,4.4-1.2c2.4,0,4,0.7,4.9,2.1 c0.9,1.4,1.4,3.5,1.4,6.4v9.6h-4.8v-9.5c0-1.5-0.2-2.6-0.5-3.3c-0.4-0.7-1.1-1.1-2.1-1.1c-0.9,0-1.8,0.1-2.8,0.4l-0.5,0.1V47.9z M196.3,30.3h4.8v17.7h-4.7v-1c-1.7,0.9-3.2,1.4-4.4,1.4c-2.5,0-4.1-0.7-5-2c-0.8-1.4-1.3-3.6-1.3-6.8v-9.3h4.7v9.3 c0,1.8,0.1,2.9,0.4,3.6c0.3,0.7,1,1,2.1,1c1,0,2-0.2,2.9-0.5l0.5-0.1V30.3z M214,29.8c2.5,0,4.3,0.7,5.4,2c1.2,1.4,1.7,3.8,1.7,7.3 c0,3.5-0.7,5.9-2,7.2c-1.3,1.3-3.6,2-6.8,2c-1,0-2.9-0.1-5.6-0.4l-1.3-0.1v-23l4.7-1.7v7.6C211.7,30.1,212.9,29.8,214,29.8L214,29.8 z M212.3,44.1c1.6,0,2.6-0.4,3.2-1.2c0.6-0.8,0.8-2.1,0.8-4.1c0-3.2-1-4.8-3-4.8c-0.9,0-1.8,0.1-2.7,0.4l-0.5,0.1V44 C211.2,44.1,212,44.1,212.3,44.1L212.3,44.1z"></path></svg>