<svg xmlns="http://www.w3.org/2000/svg" aria-label="GitHub" class="icon github" viewBox="0 0 100 100"><path fill="#181717" d="M50 1C22.938 1 1 22.938 1 50s21.938 49 49 49 49-21.938 49-49S77.062 1 50 1zm29.099 78.099a41.042 41.042 0 0 1-16.873 10.21v-7.344c0-3.86-1.324-6.699-3.972-8.517a43.067 43.067 0 0 0 4.57-.67 34.345 34.345 0 0 0 4.402-1.245c1.547-.543 2.935-1.189 4.163-1.938 1.228-.75 2.409-1.723 3.541-2.919s2.082-2.552 2.847-4.067 1.372-3.334 1.818-5.455c.446-2.121.67-4.458.67-7.01 0-4.945-1.611-9.155-4.833-12.633 1.467-3.828 1.308-7.991-.478-12.489l-1.197-.143c-.829-.096-2.321.255-4.474 1.053-2.153.798-4.57 2.105-7.249 3.924-3.797-1.053-7.736-1.579-11.82-1.579-4.115 0-8.039.526-11.772 1.579-1.69-1.149-3.294-2.097-4.809-2.847-1.515-.75-2.727-1.26-3.637-1.532-.909-.271-1.754-.439-2.536-.503s-1.284-.079-1.507-.048a2.919 2.919 0 0 0-.478.096c-1.787 4.53-1.946 8.694-.478 12.489-3.222 3.477-4.833 7.688-4.833 12.633 0 2.552.223 4.889.67 7.01.447 2.121 1.053 3.94 1.818 5.455.765 1.515 1.715 2.871 2.847 4.067s2.313 2.169 3.541 2.919c1.228.751 2.616 1.396 4.163 1.938 1.547.543 3.014.957 4.402 1.245 1.388.287 2.911.511 4.57.67-2.616 1.787-3.924 4.626-3.924 8.517v7.487A41.042 41.042 0 0 1 20.9 79.099a41.042 41.042 0 0 1-8.823-13.083C9.934 60.948 8.847 55.56 8.847 50s1.087-10.948 3.231-16.016c2.073-4.899 5.041-9.301 8.823-13.083s8.184-6.75 13.083-8.823C39.052 9.934 44.44 8.847 50 8.847s10.948 1.087 16.016 3.231a41.03 41.03 0 0 1 13.083 8.823 41.042 41.042 0 0 1 8.823 13.083c2.143 5.069 3.23 10.457 3.23 16.016s-1.087 10.948-3.231 16.016a41.055 41.055 0 0 1-8.822 13.083z"/></svg>