<svg xmlns="http://www.w3.org/2000/svg" xmlns:xlink="http://www.w3.org/1999/xlink" width="2712.409" height="166.468" viewBox="0 0 717.658 44.045"><defs><linearGradient id="b"><stop offset="0" style="stop-color:#1e661a;stop-opacity:1"/><stop offset=".103" style="stop-color:#197215;stop-opacity:1"/><stop offset=".727" style="stop-color:#043902;stop-opacity:1"/></linearGradient><linearGradient id="a"><stop offset="0" style="stop-color:#019010;stop-opacity:1"/><stop offset=".255" style="stop-color:#01590a;stop-opacity:1"/><stop offset=".534" style="stop-color:#024807;stop-opacity:1"/><stop offset=".77" style="stop-color:#011901;stop-opacity:1"/></linearGradient><linearGradient xlink:href="#a" id="f" x1="177.491" x2="179.093" y1="82.43" y2="141.445" gradientTransform="matrix(2.1575 0 0 1 0 83.698)" gradientUnits="userSpaceOnUse" spreadMethod="repeat"/><linearGradient xlink:href="#b" id="d" x1="62.979" x2="62.979" y1="131.073" y2="165.651" gradientTransform="translate(0 44.177)" gradientUnits="userSpaceOnUse"/><linearGradient xlink:href="#a" id="c" x1="0" x2="0" y1="166.127" y2="210.172" gradientUnits="userSpaceOnUse"/><linearGradient xlink:href="#b" id="g" x1="62.979" x2="62.979" y1="131.073" y2="165.651" gradientTransform="matrix(-1 0 0 1 717.658 44.52)" gradientUnits="userSpaceOnUse"/><linearGradient xlink:href="#a" id="e" x1="0" x2="0" y1="166.127" y2="210.172" gradientTransform="matrix(-1 0 0 1 656.127 -3.469)" gradientUnits="userSpaceOnUse"/></defs><path d="M0 210.172v-18.068s97.738-18.067 134.218-18.067c36.48 0 29.4-5.335 60.472 6.366C225.76 192.104 297 210 297 210Z" style="display:inline;fill:url(#c);fill-opacity:1;fill-rule:nonzero;stroke:none;stroke-width:5.0038;stroke-linecap:square;stroke-miterlimit:0;paint-order:markers fill stroke" transform="translate(0 -166.127)"/><path d="M0 175.413v34.415h297v-23.402s-143.392 13.617-187.733 1.572C64.926 175.953 0 174.037 0 174.037v36.135" style="display:inline;fill:url(#d);fill-opacity:1;stroke-width:5.95071;stroke-linecap:square;stroke-miterlimit:0;paint-order:markers fill stroke" transform="translate(0 -166.127)"/><path d="M656.127 206.704v-18.068s-69.51-19.04-105.989-19.04c-36.48 0-48.868 2.433-79.94 14.134-31.071 11.701-111.07 22.801-111.07 22.801z" style="display:inline;fill:url(#e);fill-opacity:1;fill-rule:nonzero;stroke:none;stroke-width:5.0038;stroke-linecap:square;stroke-miterlimit:0;paint-order:markers fill stroke" transform="translate(0 -166.127)"/><path d="M559.968 210.172 0 210v-9.292s63.855 1.377 123.255-1.377c59.4-2.753 122.9-5.574 173.745-12.905 154.513-24.587 119.12 23.702 262.968 23.746z" style="display:inline;fill:url(#f);fill-opacity:1;fill-rule:nonzero;stroke:none;stroke-width:7.3498;stroke-linecap:square;stroke-miterlimit:0;paint-order:markers fill stroke" transform="translate(0 -166.127)"/><path d="M717.658 175.757v34.415h-297s143.392-9.785 187.733-21.83c44.341-12.045 109.267-13.961 109.267-13.961v36.135" style="display:inline;fill:url(#g);fill-opacity:1;stroke-width:5.95071;stroke-linecap:square;stroke-miterlimit:0;paint-order:markers fill stroke" transform="translate(0 -166.127)"/></svg>