<svg xmlns="http://www.w3.org/2000/svg" xml:space="preserve" width="1024.171" height="85.499" viewBox="0 0 270.978 22.622"><path fill="#425e78" d="M94.369 1.455c.38.8.883 1.812 1.115 2.249 1.14 2.14 1.454 2.934 1.522 3.845.04.545.155 1.123.255 1.285.354.573-.26.271-1.304-.64-.583-.508-1.214-.864-1.403-.792-.19.073-.28.028-.202-.1.08-.127-.034-.378-.25-.558-.488-.405-.535-.95-.053-.625.187.127-.02-.087-.462-.476-.867-.765-1.28-.78-.615-.022.225.255.492.737.593 1.07.17.556.123.59-.564.426-.412-.098-.868-.249-1.013-.334-.146-.086-.48-.12-.745-.076-.263.043-.765-.109-1.115-.338-.778-.51-1.115-.522-1.58-.057-.283.283-.3.595-.079 1.465.32 1.264.165 1.587-.51 1.058-.427-.335-.436-.327-.106.094.424.541.99.604 1.185.133.095-.227.31-.135.684.294.682.78.746 1.498.101 1.137-.307-.172-.559-.134-.815.121-.203.204-.51.287-.68.185-.204-.122-.196-.046.024.226.287.355.243.394-.323.286-.36-.069-.792-.29-.96-.493-.168-.202-.48-.367-.694-.367-.217 0 .162.535.858 1.212.904.879 1.167 1.29.956 1.501-.21.21-.448.15-.866-.22l-.576-.509.46.716c.254.394.395.822.315.952-.08.13.207.574.639.987.837.803 1.114 1.562.3.826-.266-.241-.683-.438-.926-.438s-.442-.115-.442-.256c0-.141.208-.19.463-.108.367.118.385.094.09-.116-.205-.146-.535-.202-.734-.126-.199.076-.83-.172-1.402-.55-.96-.635-1.06-.653-1.298-.23-.238.423-.272.425-.428.02-.093-.24-.434-.505-.758-.586-.324-.082-1.12-.637-1.767-1.235-.916-.846-1.339-1.063-1.905-.98-.4.058-.728.016-.728-.096 0-.344-1.966.071-2.297.485-.172.215-.453.305-.624.2-.218-.135-.263-.006-.152.436.087.346.09.48.006.298-.248-.54-.71-.376-.56.198.141.54-.184.733-.467.276-.086-.139-.312-.193-.502-.12-.627.24-.977-.505-.59-1.252.3-.578.282-.797-.132-1.574-.264-.496-.498-1.318-.52-1.828-.04-.918-.043-.916-.308.265-.312 1.384-.321 1.951-.05 3.043.178.718.155.759-.243.43-.242-.2-.44-.244-.44-.098 0 .145.179.412.397.594.407.337.507.991.255 1.65-.095.246-.414.332-.942.254-.583-.085-.758-.226-.646-.519.128-.331.085-.344-.245-.07-.22.182-.61.251-.866.154-.374-.143-.4-.112-.136.155.182.184.331.408.331.5 0 .274-1.892.091-3.356-.325-.754-.214-1.737-.336-2.183-.27-.527.077-.81.005-.81-.205 0-.178-.179-.254-.398-.17-.299.114-.397-.046-.397-.652 0-.732-.037-.767-.415-.389-.23.229-.535.416-.68.416-.536 0-1.262-.548-1.145-.864.067-.18.016-.684-.114-1.12l-.234-.794-.32.86c-.365.986-.908 1.11-1.34.304-.233-.437-.476-.529-1.133-.429-1.004.153-1.756-.19-1.78-.81-.014-.352-.083-.32-.305.14-.32.663-.631.723-1.681.324-.922-.35-1.175-.098-.428.426.319.223.58.585.58.804 0 .321-.215.28-1.1-.213-.797-.444-1.13-.521-1.213-.282-.062.182-.327.33-.59.33-.71 0-.896 1.076-.26 1.52 1.018.714.51.926-1.137.475-.4-.11-.728-.306-.728-.435 0-.13-.089-.217-.198-.194-.11.023-.394-.045-.634-.15-.239-.106-.894-.154-1.455-.108-.843.069-1.02.183-1.02.655 0 .314-.09.661-.198.772-.315.317-.231.64.166.64.2 0 .512.18.694.398.18.218.249.397.15.397-.338 0-2.386-1.192-2.683-1.562-.164-.204-.43-.29-.592-.19-.349.216-2.159-.894-2.164-1.326-.004-.408-1.12-.673-1.45-.345-.176.177-.078.314.295.411.62.162 1.258 1.303.98 1.754-.108.173-.279.032-.427-.35l-.247-.641-.23.595c-.244.631-.636.772-.911.326-.091-.148-.297-.188-.458-.089-.187.116-.23.023-.122-.26.093-.242.054-.44-.087-.44s-.256.108-.256.24-.239.177-.53.101c-.29-.076-.529-.308-.529-.516 0-.213-.202-.343-.463-.3-.606.102-.598-.574.011-.951.388-.24.57-.173.995.368l.521.661-.23-.661c-.305-.878-1.466-1.046-1.943-.281-.188.3-.55.545-.807.545-.256 0-.465.134-.465.297 0 .205-.123.195-.397-.032-.247-.205-.397-.224-.397-.05 0 .154-.297.225-.661.16-.364-.067-.662-.016-.662.112s-1.09.188-2.422.132c-1.905-.078-2.496-.197-2.77-.558-.329-.433-.348-.433-.356.005-.011.627-.453.585-.807-.077-.289-.538-.29-.538-.766.05-.415.512-.593.555-1.374.332-.716-.204-1.041-.54-1.61-1.661-.392-.773-.762-1.662-.824-1.976-.11-.561-.112-.561-.147.025-.04.654-.565.838-.565.198 0-.506-.198-.502-.714.015-.475.475-1.57.4-1.464-.101.039-.187-.11-.598-.331-.913-.557-.794-.502-1.68.163-2.664.425-.628.295-.548-.529.323-.602.637-1.094 1.258-1.094 1.38 0 .12-.48.35-1.066.507-.607.164-.995.404-.9.558.092.148-.068.331-.356.406-.288.076-.677.425-.865.776-.188.351-.39.59-.45.53-.061-.06.028-.368.197-.684.466-.87.113-.943-.64-.131-.662.715-1.696.766-1.341.066.093-.182-.004-.122-.214.135-.38.465-1.244.388-1.244-.111 0-.137-.29-.518-.644-.846-.354-.328-.862-1.228-1.129-2C7.617 5.748 7.48 5.6 6.391 5.236c-.653-.218-1.387-.573-1.632-.79-.408-.362-.453-.31-.53.622-.076.935-.142 1.011-.81.941-.43-.045-.728.053-.728.24 0 .53-.996-.54-1.178-1.266-.103-.41-.303-.613-.52-.53-.195.075-.488.002-.651-.161-.513 10.951-.297 5.42-.297 18.33h270.933v-7.938h-.578c-.634 0-3.608-2.884-4.28-4.15l-.394-.745-.406.926c-.224.51-.41.778-.417.596-.014-.475-.804-.41-.804.066 0 .218-.119.397-.264.397-.146 0-.265-.245-.265-.545 0-.371-.105-.478-.33-.335-.675.428-1.92.254-2.6-.364-.76-.69-2.283-1.217-2.725-.944a2.14 2.14 0 0 1-.69.235c-1.074.152-2.546.889-2.78 1.391-.365.786-.885.714-.73-.1.106-.55.025-.661-.484-.661-.337 0-.916.284-1.288.632-1.154 1.078-1.699 1.088-2.682.045-.481-.51-.934-.868-1.005-.797-.072.072-.59-.318-1.152-.867-1.006-.982-1.057-.999-3.387-1.09-2.313-.09-2.37-.078-2.615.566-.138.362-.764.94-1.393 1.286-.945.52-1.157.78-1.227 1.511-.074.776-.154.86-.661.69-.317-.105-1.114-.246-1.771-.312-1.089-.109-1.282-.034-2.183.84-.544.529-.989 1.073-.989 1.21 0 .138-.238.399-.529.58-.29.182-.529.53-.529.775 0 1.232-1.021 1.773-1.553.823-.24-.43-.288-.428-.8.036-.447.404-.573.425-.69.118-.08-.206-.458-.401-.842-.433-.71-.059-1.815-.783-3.59-2.353-1.166-1.032-1.52-1.098-1.525-.283-.003.49-.052.525-.279.198-.226-.328-.26-.304-.192.132.055.35.323.557.789.611.933.109 1.323.587.921 1.133-.615.835-1.296.99-2.624.597-1.133-.336-1.257-.45-1.257-1.158 0-.924-.093-.957-.774-.276-.633.633-1.449.473-2.533-.498-1.075-.962-2.192-1.634-2.586-1.553-.362.073-2.425-1.18-2.715-1.65-.139-.223-.046-.226.357-.01.732.392.97.366.612-.065-.162-.196-.772-.571-1.355-.834s-1.06-.653-1.06-.868c0-.294-.2-.35-.812-.227-.838.167-1.065.046-6.163-3.309-.854-.561-1.69-1.02-1.858-1.02-.169 0-.954-.427-1.744-.948-1.303-.857-1.468-.905-1.759-.507-.296.404-.361.399-.836-.076-.447-.448-.616-.473-1.278-.195-.42.177-.919.508-1.108.736-.292.352-.262.442.195.587.612.194 3.986 3.384 3.986 3.769 0 .138-.494.24-1.097.228-1.354-.028-1.517.333-.575 1.275l.724.724-.742-.186-.742-.186.706 1.118c.685 1.085.703 1.934.022 1.002-.186-.254-.606-.463-.933-.463-.327 0-1.356-.605-2.286-1.345-.93-.74-1.691-1.235-1.691-1.1 0 .136.238.462.529.726.68.615.678 1.19-.004 1.19-.293 0-.77.148-1.058.328-.455.284-.615.232-1.184-.381-.739-.797-3.758-2.328-4.59-2.328-.298 0-.617.121-.708.269-.091.148-.278.2-.415.115-.137-.084-.494-.076-.795.02-.509.161-.516.205-.112.652.258.286.328.544.173.64-.272.168-.951-.384-1.186-.964-.103-.256-.202-.241-.415.062-.208.294-.174.476.13.703.225.169.371.362.325.43-.108.159 2.059 1.832 4.455 3.44 1.038.695 1.955 1.47 2.038 1.72.083.25.348.722.59 1.049.423.573.416.595-.189.595-.396 0-1.213-.545-2.215-1.479-1.927-1.795-2.679-2.16-2.914-1.42-.197.62-.554.66-1.093.121-.443-.444-1.01-.543-.755-.132.294.476-.304.277-.793-.263-.66-.73-2.063-1.078-3.115-.772-1.16.337-2.02.109-3.112-.825-.505-.432-1.074-.785-1.265-.785-.191 0-.327-.21-.3-.464.088-.872-.016-.877-.836-.038-.456.467-.897.725-.992.58-.094-.142-.713-.442-1.376-.665-1.407-.473-6.07-3.295-6.07-3.673 0-.159.202-.149.528.026.291.155.53.23.53.166s-1.132-.753-2.514-1.53c-2.491-1.402-2.944-1.804-2.05-1.82.427-.006.426-.029-.022-.29-.267-.154-.737-.215-1.044-.135-.308.08-1.456-.146-2.551-.504-2.395-.782-2.482-.787-2.278-.143.174.548-.246.997-.52.556-.313-.508-.928-.28-.928.344 0 .512.219.674 1.31.97.978.267 1.33.497 1.39.905.056.393.34.595 1.004.717.51.094 1.462.446 2.117.782.655.337 1.4.582 1.657.545.577-.085 2.984 1.254 5.059 2.814.856.643 2.054 1.383 2.662 1.644 1.637.701 2.024 1.168 1.645 1.984-.169.365-.45.664-.622.665-.444.003-.77-.606-.394-.732.44-.146.389-.588-.068-.588-.217 0-.415.31-.463.727l-.083.728-.752-.74c-.617-.607-.823-.681-1.145-.414-.313.26-.437.255-.609-.023-.169-.274-.398-.286-1.054-.058-.77.268-1.071.172-3.666-1.17-1.556-.804-2.68-1.312-2.498-1.13.418.42.433.851.021.597-.208-.13-.254-.047-.14.25.183.477-.058.381-3.519-1.388-.8-.41-2.15-.96-3.002-1.223-.85-.263-1.607-.637-1.681-.83-.075-.195-.367-.353-.65-.353-.283 0-.874-.187-1.313-.414-.61-.315-.887-.341-1.166-.11-.202.168-.496.225-.653.127-.191-.118-.233.04-.125.47.229.91-.461 1.102-1.694.473-.66-.336-1.122-.426-1.374-.266-.433.274-1.596.324-2.196.094-.311-.12-.346-.304-.154-.811.37-.971.284-1.12-.166-.291-.466.859-1.167.934-1.833.198-.533-.588-2.778-.774-2.778-.23 0 .194-.324.247-.921.15-.507-.082-.99-.038-1.074.098-.084.136-.027.247.127.247.633 0 .208.425-.845.847-1.126.45-2.382.4-3.042-.121-.23-.183-.333-.152-.339.101-.005.247-.094.215-.277-.1-.149-.254-.532-.454-.852-.444-.562.018-.564.027-.053.259.444.201.401.23-.265.18-.577-.044-.815-.21-.872-.61-.071-.5-.219-.54-1.588-.439-.83.061-2.163.273-2.964.471-1.318.326-2.297.406-4.233.346-.364-.011-1.477.123-2.473.299-1.81.318-1.813.318-2.58-.417-.422-.405-.768-.635-.768-.513 0 .123-.238.007-.53-.256-.483-.438-.528-.44-.528-.032 0 .246.196.746.435 1.112.422.644.41.689-.434 1.512-.824.805-.883.822-1.162.34-.549-.948-2.074-2.535-2.437-2.535-.198 0-.6-.468-.891-1.04-.7-1.374-1.162-1.635-.634-.359.229.551.505 1.121.614 1.267.372.494.485 1.43.186 1.529-.79.263-2.72-.368-3.35-1.095-.364-.42-.933-.847-1.264-.95-.331-.102-.788-.47-1.016-.817-.33-.503-.733-.667-1.99-.81-1.718-.194-1.559-.066-5.921-4.736L93.675 0zm111.738 6.81c.92.649 1.603 1.248 1.52 1.332-.205.205-4.646-2.826-4.646-3.17 0-.297.609.061 3.126 1.838zm-.48.995c.422.509-.01.514-.678.008-.431-.326-.444-.39-.083-.397.237-.005.58.17.76.389zm-88.768 1.19c-.09.146-.276.265-.413.265-.137 0-.249-.119-.249-.264 0-.146.186-.265.413-.265.227 0 .339.12.249.265zm29.847.394c.972.406 1.511.93.957.93-.33 0-2.097-1.021-2.097-1.212 0-.172.132-.14 1.14.282zm-32.89.284c0 .227-.12.339-.265.249-.145-.09-.264-.276-.264-.413 0-.137.119-.249.264-.249.146 0 .265.186.265.413zm79.026.289c-.095.095.034.329.287.52.388.295.396.35.049.358-.434.009-1.045-.482-1.045-.839 0-.116.198-.211.44-.211.243 0 .364.077.27.172zm12.147 1.082c-.184.184-.686-.189-.686-.509 0-.175.152-.155.404.054.222.184.349.389.282.455zm50.757-.31c.229.23.416.508.416.621 0 .473-1.093 1.135-2.096 1.27-1.416.19-1.449-.366-.087-1.478 1.158-.946 1.22-.96 1.767-.412zm-179.106.375c.093.15-.013.195-.249.104-.458-.175-.542-.365-.161-.365.136 0 .321.118.41.261zm87.706 2.186c.01.408-.937.18-1.235-.297-.172-.275-.612-.496-.986-.496-.836 0-2.007-.737-2.007-1.263 0-.283.581-.081 2.112.734 1.16.618 2.113 1.213 2.116 1.322zm39.957-1.216c0 .32-.136.306-.793-.083-.437-.257-.794-.556-.794-.662 0-.107.357-.07.794.083.436.152.793.45.793.662zm1.059.641c0 .125-.179.16-.397.076-.218-.084-.397-.255-.397-.38 0-.126.179-.16.397-.076.218.084.397.255.397.38zm-51.594.097c0 .064-.119.19-.265.28-.145.09-.264.037-.264-.117s.119-.28.264-.28c.146 0 .265.053.265.117zm53.115.41c1.052.64 1.098.863.132.632-.815-.194-1.389-.578-1.389-.927 0-.354.315-.28 1.257.294zm-50.337.796c.09.145.045.265-.1.265-.146 0-.34-.12-.429-.265-.09-.146-.045-.265.101-.265.146 0 .338.12.428.265zm30.283 1.176c.251.303.258.411.027.411-.571 0-1.338-.54-1.338-.944 0-.46.734-.162 1.311.533zm1.412.18.584.561-.58-.298c-.32-.165-.654-.417-.743-.562-.28-.453.13-.288.74.299zm3.468.827c.288.254.62.463.738.463s.215.18.215.4c0 .221.648.717 1.455 1.113 1.11.544 1.455.853 1.455 1.298 0 .321.09.634.199.695.109.061.057.078-.116.037a.368.368 0 0 0-.42.242c-.176.524-.964-.302-.85-.892.08-.414-.053-.512-.688-.512-.507 0-.85-.165-.963-.463-.246-.651-.607-.963-1.575-1.358-.462-.19-.906-.515-.986-.723-.12-.311-.04-.325.444-.076.486.25.532.242.259-.046-.786-.832-.077-.983.833-.178zm-3.016.529c0 .111-.238.054-.53-.128-.29-.181-.528-.422-.528-.533 0-.112.238-.055.529.127.29.182.529.422.529.534zm1.578 1.63c-.29.298-1.049-.292-1.049-.815 0-.299.133-.278.64.099.375.277.545.575.409.715zM33.779.66c-.09.146-.044.265.102.265.145 0 .338-.12.428-.265.09-.145.044-.264-.101-.264-.146 0-.339.119-.429.264zm6.483.422c0 .086.228.447.508.802.322.41.574.54.687.356.099-.16-.03-.52-.284-.803-.45-.496-.911-.676-.911-.355zm-4.63.372c-.09.146.022.265.249.265.226 0 .412-.12.412-.265 0-.145-.112-.265-.249-.265s-.322.12-.412.265zm162.19.53c.09.145.341.264.56.264.218 0 .323-.12.233-.265-.09-.145-.342-.264-.56-.264-.219 0-.324.119-.234.264zm-154.908.462c.003.11.238.496.523.86.34.436.516.526.515.265-.002-.219-.161-.606-.354-.86-.365-.481-.695-.608-.684-.265zm-40.366.349c-.096.155-.118.338-.049.408.07.07.197-.058.283-.282.18-.467.027-.549-.234-.126zm44.505.687c-.334.334-.176.618.344.618.355 0 .472-.127.369-.397-.163-.424-.427-.506-.713-.22zm39.334.037c-.161.101-.425.66-.586 1.242-.36 1.305-.364 1.455-.03 1.455.145 0 .264-.33.264-.734 0-.405.19-1.008.424-1.34.449-.642.416-.929-.072-.623zm38.71.449c-.11.29.033.396.534.396.579 0 .634-.061.356-.396-.181-.219-.421-.397-.533-.397-.113 0-.273.178-.357.397zm-76.103.595c0 .109.357.21.793.226.437.016.794-.073.794-.198s-.358-.227-.794-.227c-.437 0-.794.09-.793.199zm42.332-.076c0 .068.268.266.596.44.54.288.561.277.232-.122-.338-.41-.828-.598-.828-.318zm-38.563.846c-.46.186-.414.619.066.619a.398.398 0 0 0 .397-.397c0-.218-.03-.388-.066-.376-.036.011-.215.08-.397.154zm42.003.603c0 .137.118.322.262.41.15.094.194-.013.103-.248-.175-.458-.365-.542-.365-.162zm-40.628.303c-.098.159-.056.41.092.558.184.184.366.092.569-.288.24-.45.223-.557-.092-.557-.215 0-.471.13-.569.287zm18.8.242c-.1.313-.121.629-.048.701.072.073.213-.123.312-.436.1-.313.121-.629.049-.702-.073-.073-.214.124-.313.437zm-1.653.926c.003.582.057.79.12.46s.061-.805-.005-1.058-.118.016-.115.598zm-49.809-.132a.265.265 0 0 0 .53 0 .265.265 0 0 0-.265-.265.265.265 0 0 0-.265.265zm36.777.48c0 .32.502.693.686.51.067-.067-.06-.272-.282-.456-.252-.208-.404-.229-.404-.053zm18.257.372c0 .508.692 1.113.896.783.082-.133-.086-.455-.373-.715-.44-.398-.523-.409-.523-.068zm-63.445.312c.188.203.383.33.434.282.157-.15-.24-.652-.515-.652-.143 0-.106.166.081.37zm7.353-.106c0 .146.387.256.86.246.72-.016.774-.055.33-.246-.73-.314-1.19-.314-1.19 0zm130.64.042c.169.169.699.339 1.178.378l.87.071-.793-.366c-1.02-.47-1.686-.514-1.255-.083zm15.697-.208c.272.244 1.83.96 1.83.841 0-.152-1.467-.94-1.751-.94-.104 0-.14.045-.08.1zm-139.199.57c-.51.615-.146.732.401.127.264-.292.358-.53.207-.53-.15 0-.423.18-.608.402zm45.911.202c-.19.229.068.659.905 1.51.644.656 1.052 1.013.908.795-.144-.219-.422-.903-.617-1.522-.359-1.137-.713-1.369-1.196-.783zm81.36.315c0 .07.476.37 1.058.667 1.312.669 1.389.512.117-.239-.97-.572-1.176-.647-1.176-.428zM71 10.385c-.028.671-.175 1.124-.365 1.124-.245 0-.246.072-.004.313.482.483.627.127.517-1.277l-.1-1.285zm-30.04-.26c-.076.124.343.353.931.51.872.233 1.004.223.712-.053-.485-.46-1.472-.734-1.643-.457zm115.475.951c.06.053.408.239.772.412.623.297.632.291.147-.097-.421-.337-1.282-.632-.92-.315zm-88.901.587c.012.309.075.371.16.16.076-.19.067-.419-.021-.507-.088-.088-.15.069-.14.347zm-33.359.375c0 .291.094.53.209.53.114 0 .226-.239.248-.53.022-.29-.072-.529-.208-.529-.137 0-.249.238-.249.53zm48.954-.366c.008.308 1.04 1.623 1.047 1.334.003-.123-.233-.526-.524-.896-.29-.37-.526-.567-.523-.438zm-13.632 1.425c.09.145.216.264.28.264.065 0 .117-.119.117-.264a.273.273 0 0 0-.28-.265c-.154 0-.207.12-.117.265z"/></svg>