<?xml version="1.0" encoding="UTF-8" standalone="no"?>
<!-- Created with Inkscape (http://www.inkscape.org/) -->

<svg
   width="270.97845mm"
   height="22.621651mm"
   viewBox="0 0 270.97846 22.621651"
   version="1.1"
   id="svg5"
   xml:space="preserve"
   inkscape:version="1.2 (dc2aedaf03, 2022-05-15)"
   sodipodi:docname="border.svg"
   xmlns:inkscape="http://www.inkscape.org/namespaces/inkscape"
   xmlns:sodipodi="http://sodipodi.sourceforge.net/DTD/sodipodi-0.dtd"
   xmlns="http://www.w3.org/2000/svg"
   xmlns:svg="http://www.w3.org/2000/svg"><sodipodi:namedview
   id="namedview7"
   pagecolor="#ffffff"
   bordercolor="#000000"
   borderopacity="0.25"
   inkscape:showpageshadow="2"
   inkscape:pageopacity="0.0"
   inkscape:pagecheckerboard="0"
   inkscape:deskcolor="#d1d1d1"
   inkscape:document-units="mm"
   showgrid="false"
   inkscape:zoom="4.3490241"
   inkscape:cx="680.72743"
   inkscape:cy="17.245248"
   inkscape:window-width="1920"
   inkscape:window-height="1017"
   inkscape:window-x="-8"
   inkscape:window-y="-8"
   inkscape:window-maximized="1"
   inkscape:current-layer="layer1" /><defs
   id="defs2" /><g
   inkscape:label="Layer 1"
   inkscape:groupmode="layer"
   id="layer1"
   transform="translate(91.243495,-138.91317)">  
	
  <path
  fill="#425e78"
   d="m 3.125125,140.36819 c 0.381294,0.80037 0.883425,1.8124 1.115846,2.24896 1.138914,2.13926 1.453255,2.93382 1.521224,3.84513 0.04064,0.54493 0.155668,1.1231 0.255611,1.28481 0.354092,0.57293 -0.260566,0.27149 -1.304723,-0.63986 -0.582084,-0.50804 -1.213345,-0.86431 -1.402805,-0.7917 -0.189458,0.0726 -0.280067,0.0278 -0.201351,-0.0996 0.07872,-0.12737 -0.03416,-0.3787 -0.250841,-0.55853 -0.487979,-0.40499 -0.534185,-0.95104 -0.05291,-0.62529 0.187577,0.12695 -0.02003,-0.0874 -0.461327,-0.47642 -0.867061,-0.76426 -1.279784,-0.77901 -0.61495,-0.022 0.22443,0.25556 0.49117,0.73719 0.592754,1.0703 0.169503,0.55582 0.123097,0.59091 -0.564018,0.42644 -0.411792,-0.0986 -0.867777,-0.24908 -1.013298,-0.33447 -0.145521,-0.0854 -0.480473,-0.1197 -0.744337,-0.0762 -0.263863,0.0434 -0.76569,-0.10834 -1.115171,-0.33733 -0.778637,-0.51018 -1.115028,-0.52231 -1.580361,-0.057 -0.282707,0.2827 -0.299516,0.59515 -0.0788,1.46471 0.32077,1.26374 0.16479,1.5874 -0.509834,1.0579 -0.426842,-0.33502 -0.43648,-0.32644 -0.106291,0.0946 0.424204,0.5409 0.989449,0.60398 1.185325,0.13229 0.09425,-0.22695 0.308716,-0.13474 0.683509,0.29389 0.682329,0.78035 0.746398,1.4981 0.101507,1.13721 -0.3069,-0.17175 -0.559421,-0.13409 -0.81508,0.12157 -0.203732,0.20373 -0.509651,0.28694 -0.679821,0.18491 -0.204634,-0.1227 -0.196627,-0.0462 0.02365,0.2259 0.287232,0.35483 0.242848,0.39418 -0.322649,0.28608 -0.360629,-0.0689 -0.792966,-0.29076 -0.960752,-0.49292 -0.167793,-0.20216 -0.480012,-0.36757 -0.69383,-0.36757 -0.217061,0 0.16188,0.53516 0.857988,1.2117 0.904462,0.87904 1.167083,1.29137 0.956575,1.50187 -0.210508,0.21051 -0.448411,0.15025 -0.866548,-0.21951 l -0.576376,-0.50968 0.460637,0.71596 c 0.253352,0.39379 0.395078,0.82205 0.314949,0.9517 -0.08013,0.12966 0.207264,0.57389 0.638654,0.98718 0.837642,0.80251 1.114007,1.56197 0.300488,0.82575 -0.266121,-0.24084 -0.68284,-0.43789 -0.926042,-0.43789 -0.243202,0 -0.442188,-0.11532 -0.442188,-0.25628 0,-0.14095 0.20836,-0.18925 0.463021,-0.10733 0.366652,0.11795 0.385413,0.0938 0.09014,-0.11612 -0.205083,-0.14578 -0.535455,-0.20267 -0.734157,-0.12642 -0.198702,0.0762 -0.82957,-0.17127 -1.401927,-0.55004 -0.959834,-0.63519 -1.060683,-0.65299 -1.29857,-0.22926 -0.237325,0.42273 -0.271428,0.42435 -0.427148,0.0203 -0.09307,-0.24153 -0.434438,-0.50571 -0.758582,-0.58706 -0.324141,-0.0813 -1.119155,-0.63703 -1.766697,-1.23484 -0.916183,-0.84581 -1.338767,-1.06323 -1.905044,-0.98012 -0.400236,0.0587 -0.7277,0.0159 -0.7277,-0.0953 0,-0.34412 -1.966137,0.0707 -2.297501,0.48469 -0.172217,0.21518 -0.452864,0.30488 -0.623657,0.19932 -0.218316,-0.13492 -0.263555,-0.005 -0.152337,0.43653 0.08701,0.34564 0.08984,0.47962 0.0063,0.29771 -0.247885,-0.53972 -0.710493,-0.37588 -0.560305,0.19844 0.141348,0.54052 -0.183965,0.73312 -0.466397,0.27614 -0.08601,-0.13916 -0.312084,-0.19328 -0.502391,-0.12025 -0.626623,0.24046 -0.97753,-0.50464 -0.589709,-1.25216 0.299951,-0.57816 0.281581,-0.79693 -0.132133,-1.57356 -0.264287,-0.49612 -0.498557,-1.31876 -0.520599,-1.82808 -0.03976,-0.91856 -0.04224,-0.91642 -0.307988,0.26458 -0.311404,1.38394 -0.320768,1.95143 -0.0502,3.04271 0.178141,0.71849 0.155128,0.75932 -0.242723,0.43062 -0.24174,-0.19972 -0.439526,-0.24406 -0.439526,-0.0985 0,0.14552 0.178594,0.4128 0.396875,0.59396 0.406543,0.3374 0.507381,0.99167 0.254431,1.65084 -0.09408,0.24518 -0.413872,0.33136 -0.94193,0.25386 -0.582181,-0.0854 -0.757565,-0.22659 -0.64525,-0.51928 0.127191,-0.33145 0.08417,-0.34378 -0.245324,-0.0703 -0.21976,0.18239 -0.609439,0.25171 -0.865955,0.15404 -0.373964,-0.14237 -0.400849,-0.11154 -0.13566,0.15561 0.181901,0.18325 0.33073,0.40797 0.33073,0.49938 0,0.27458 -1.891808,0.0915 -3.356041,-0.32472 -0.754415,-0.21447 -1.73668,-0.33637 -2.182813,-0.27089 -0.527097,0.0774 -0.811146,0.006 -0.811146,-0.20387 0,-0.17834 -0.177694,-0.25473 -0.396875,-0.17063 -0.299143,0.1148 -0.396875,-0.0458 -0.396875,-0.65204 0,-0.73123 -0.0378,-0.76655 -0.415774,-0.38858 -0.228674,0.22868 -0.53416,0.41578 -0.678852,0.41578 -0.536401,0 -1.262978,-0.54786 -1.145752,-0.86393 0.06664,-0.17969 0.01556,-0.68388 -0.113511,-1.12045 l -0.234678,-0.79375 -0.319098,0.8599 c -0.366109,0.98658 -0.908748,1.10976 -1.339892,0.30416 -0.233495,-0.43629 -0.477192,-0.5284 -1.133787,-0.42855 -1.003914,0.15267 -1.755799,-0.18982 -1.780313,-0.81095 -0.01386,-0.35132 -0.0827,-0.31937 -0.305014,0.1416 -0.31959,0.66266 -0.630907,0.72254 -1.680924,0.32333 -0.92148,-0.35035 -1.175002,-0.0982 -0.427588,0.42536 0.318643,0.22319 0.57935,0.58525 0.57935,0.80459 0,0.32112 -0.21423,0.27953 -1.099674,-0.21344 -0.796692,-0.44355 -1.130806,-0.52112 -1.212673,-0.28151 -0.06215,0.1819 -0.327316,0.33073 -0.589259,0.33073 -0.711475,0 -0.896501,1.07501 -0.261572,1.51973 1.018328,0.71326 0.510598,0.92516 -1.136301,0.47422 -0.400182,-0.10958 -0.727604,-0.30539 -0.727604,-0.43513 0,-0.12975 -0.0893,-0.217 -0.198438,-0.1939 -0.10914,0.0231 -0.394276,-0.0444 -0.633634,-0.14992 -0.239358,-0.10556 -0.894202,-0.15423 -1.455209,-0.10815 -0.842893,0.0692 -1.020011,0.183 -1.020011,0.65518 0,0.31427 -0.0893,0.66154 -0.198437,0.7717 -0.314889,0.31784 -0.231145,0.64127 0.166042,0.64127 0.200461,0 0.512696,0.17859 0.693854,0.39688 0.181157,0.21828 0.249089,0.39687 0.15096,0.39687 -0.338841,0 -2.386401,-1.19175 -2.683298,-1.56177 -0.16379,-0.20414 -0.430268,-0.28929 -0.592172,-0.18922 -0.349099,0.21575 -2.159156,-0.89427 -2.163881,-1.327 -0.0044,-0.40784 -1.120656,-0.67296 -1.449358,-0.34426 -0.176388,0.17639 -0.07842,0.31327 0.293915,0.41063 0.621151,0.16244 1.258265,1.30298 0.979664,1.75377 -0.107243,0.17352 -0.278386,0.0327 -0.426124,-0.35056 l -0.246902,-0.64055 -0.230169,0.59532 c -0.244062,0.63125 -0.63615,0.77168 -0.911344,0.32641 -0.0914,-0.1479 -0.297256,-0.1879 -0.457454,-0.0889 -0.187425,0.11583 -0.231031,0.023 -0.122311,-0.26027 0.09292,-0.24215 0.05362,-0.44028 -0.08733,-0.44028 -0.140954,0 -0.256281,0.10792 -0.256281,0.23982 0,0.13189 -0.238125,0.17754 -0.529166,0.10143 -0.291042,-0.0761 -0.529167,-0.30831 -0.529167,-0.516 0,-0.21286 -0.202017,-0.34369 -0.463021,-0.29987 -0.605962,0.10175 -0.598067,-0.57476 0.01111,-0.95175 0.38779,-0.23999 0.569,-0.17296 0.995083,0.36804 l 0.520951,0.66146 -0.229873,-0.66146 c -0.305162,-0.8781 -1.466046,-1.0459 -1.943761,-0.28096 -0.187386,0.30005 -0.550183,0.54554 -0.80622,0.54554 -0.256038,0 -0.465521,0.13364 -0.465521,0.29698 0,0.20519 -0.122672,0.19517 -0.396875,-0.0324 -0.247161,-0.20512 -0.396875,-0.22395 -0.396875,-0.0499 0,0.1537 -0.297657,0.22549 -0.661459,0.15952 -0.363802,-0.066 -0.661458,-0.0153 -0.661458,0.11268 0,0.12795 -1.089887,0.18751 -2.421974,0.13235 -1.905717,-0.0789 -2.496095,-0.1979 -2.769712,-0.55819 -0.329234,-0.43354 -0.348183,-0.43327 -0.35615,0.005 -0.0114,0.62706 -0.453691,0.58498 -0.807904,-0.0769 -0.288142,-0.5384 -0.290261,-0.53827 -0.765773,0.049 -0.415079,0.5126 -0.593021,0.55569 -1.374013,0.33273 -0.716097,-0.20443 -1.040975,-0.53969 -1.609602,-1.66102 -0.391831,-0.7727 -0.76257,-1.66174 -0.823864,-1.97566 -0.109681,-0.56173 -0.112014,-0.56134 -0.147476,0.0246 -0.03956,0.65356 -0.565198,0.83811 -0.565198,0.19844 0,-0.50596 -0.197185,-0.50207 -0.713336,0.0141 -0.475775,0.47578 -1.569629,0.40033 -1.464639,-0.10102 0.03904,-0.18642 -0.109787,-0.59704 -0.330729,-0.91248 -0.556456,-0.79446 -0.502125,-1.68097 0.163261,-2.6639 0.425248,-0.62819 0.294379,-0.54823 -0.529167,0.32332 -0.601777,0.63686 -1.09414,1.25735 -1.09414,1.37887 0,0.12152 -0.479842,0.35016 -1.066317,0.50808 -0.606074,0.1632 -0.994281,0.40368 -0.89942,0.55717 0.09179,0.14853 -0.06846,0.33159 -0.356109,0.40682 -0.287654,0.0752 -0.676844,0.42421 -0.864867,0.77554 -0.188024,0.35132 -0.391016,0.58962 -0.451094,0.52954 -0.06008,-0.0601 0.02912,-0.36775 0.198224,-0.68372 0.46598,-0.87069 0.1129,-0.94284 -0.639744,-0.13072 -0.662885,0.71527 -1.696806,0.76646 -1.34178,0.0664 0.09278,-0.18292 -0.0036,-0.12217 -0.214197,0.13502 -0.380413,0.46461 -1.243862,0.38708 -1.243862,-0.11168 0,-0.1369 -0.289696,-0.51739 -0.643768,-0.84553 -0.354072,-0.32815 -0.862033,-1.22811 -1.128801,-1.99991 -0.445094,-1.28773 -0.582714,-1.43588 -1.671336,-1.79918 -0.652467,-0.21775 -1.386799,-0.5736 -1.63185,-0.79078 -0.407949,-0.36156 -0.452604,-0.30903 -0.529167,0.6225 -0.07687,0.9353 -0.142324,1.01124 -0.811224,0.94122 -0.429663,-0.045 -0.727604,0.0531 -0.727604,0.23945 0,0.5302 -0.995724,-0.53927 -1.177908,-1.26515 -0.102836,-0.40973 -0.303221,-0.61383 -0.520721,-0.53037 -0.194456,0.0746 -0.487127,0.002 -0.65038,-0.16115 -0.512716,10.95149 -0.296824,5.4196 -0.296824,18.32978 H 44.268289 179.73495 v -7.93746 h -0.57832 c -0.63434,0 -3.60826,-2.88392 -4.27974,-4.15023 l -0.39484,-0.74456 -0.4059,0.92604 c -0.22325,0.50932 -0.41055,0.77721 -0.41627,0.59531 -0.0148,-0.47486 -0.80409,-0.40993 -0.80409,0.0662 0,0.21828 -0.11906,0.39688 -0.26458,0.39688 -0.14553,0 -0.26459,-0.24516 -0.26459,-0.54479 0,-0.37143 -0.10523,-0.47796 -0.33073,-0.33478 -0.67421,0.4281 -1.91857,0.25362 -2.5996,-0.3645 -0.76041,-0.69017 -2.28241,-1.21719 -2.72508,-0.94361 -0.15863,0.098 -0.4691,0.20382 -0.68994,0.23507 -1.0735,0.1519 -2.54581,0.88874 -2.77937,1.39098 -0.36525,0.78542 -0.88524,0.71427 -0.72962,-0.0998 0.10539,-0.55128 0.0246,-0.66146 -0.48523,-0.66146 -0.33643,0 -0.91585,0.28428 -1.28762,0.63173 -1.15424,1.07876 -1.69885,1.08799 -2.68219,0.0455 -0.48103,-0.50998 -0.93328,-0.86856 -1.005,-0.79683 -0.0717,0.0717 -0.58999,-0.31851 -1.1517,-0.86717 -1.00574,-0.98237 -1.05733,-0.99898 -3.38669,-1.08991 -2.31356,-0.0903 -2.37089,-0.0779 -2.61557,0.56566 -0.1376,0.3619 -0.76421,0.94073 -1.39248,1.28629 -0.94529,0.51993 -1.15694,0.78049 -1.22715,1.51083 -0.0746,0.77607 -0.1544,0.85934 -0.66146,0.69024 -0.31713,-0.10576 -1.11401,-0.2461 -1.77084,-0.31187 -1.08878,-0.10901 -1.28153,-0.0348 -2.18281,0.84053 -0.54372,0.52805 -0.98858,1.07242 -0.98858,1.2097 0,0.13728 -0.23813,0.39831 -0.52917,0.58007 -0.29104,0.18176 -0.52917,0.53022 -0.52917,0.77436 0,1.23167 -1.02112,1.77319 -1.55266,0.82339 -0.24076,-0.43022 -0.28856,-0.42807 -0.80138,0.036 -0.44579,0.40344 -0.57166,0.42495 -0.68951,0.11782 -0.0793,-0.20664 -0.45779,-0.40166 -0.84109,-0.43338 -0.71051,-0.0588 -1.81564,-0.78311 -3.5906,-2.3533 -1.16619,-1.03164 -1.5191,-1.09717 -1.52464,-0.28308 -0.003,0.49035 -0.0525,0.52534 -0.27881,0.19844 -0.2267,-0.32747 -0.2603,-0.30433 -0.19212,0.13229 0.0546,0.34941 0.32245,0.55698 0.78861,0.61102 0.93349,0.10823 1.32313,0.58719 0.92127,1.13245 -0.61559,0.83523 -1.29626,0.9901 -2.62396,0.597 -1.13365,-0.33565 -1.25677,-0.44908 -1.25677,-1.15785 0,-0.92341 -0.0935,-0.95679 -0.77412,-0.27621 -0.63365,0.63365 -1.44884,0.47363 -2.53317,-0.49727 -1.07529,-0.96279 -2.19256,-1.63416 -2.58591,-1.55386 -0.36207,0.0739 -2.42478,-1.17876 -2.71545,-1.64908 -0.13837,-0.22389 -0.0462,-0.22666 0.35724,-0.0107 0.73232,0.39193 0.97064,0.36662 0.61241,-0.065 -0.1625,-0.1958 -0.77239,-0.57107 -1.35531,-0.83393 -0.58292,-0.26286 -1.05986,-0.65332 -1.05986,-0.86769 0,-0.29394 -0.19971,-0.34983 -0.81228,-0.22731 -0.83822,0.16764 -1.06517,0.0458 -6.16318,-3.30874 -0.85333,-0.5615 -1.68948,-1.0209 -1.85812,-1.0209 -0.16863,0 -0.95352,-0.42604 -1.74419,-0.94676 -1.30206,-0.85752 -1.46783,-0.90538 -1.75854,-0.50781 -0.29602,0.40483 -0.36101,0.39891 -0.83605,-0.0761 -0.44718,-0.44718 -0.61566,-0.47278 -1.27823,-0.19419 -0.41973,0.17648 -0.9182,0.50771 -1.10771,0.73605 -0.2916,0.35135 -0.26164,0.44148 0.19492,0.58639 0.61199,0.19424 3.9863,3.38449 3.9863,3.76886 0,0.13812 -0.49395,0.24085 -1.09768,0.22829 -1.35371,-0.0282 -1.51665,0.33339 -0.57473,1.27531 l 0.72387,0.72387 -0.74181,-0.18618 -0.74182,-0.18619 0.70602,1.11841 c 0.68462,1.08451 0.70302,1.9336 0.0217,1.00184 -0.18603,-0.25443 -0.6059,-0.4626 -0.93303,-0.4626 -0.32712,0 -1.35579,-0.60557 -2.28593,-1.3457 -0.93014,-0.74013 -1.69116,-1.23484 -1.69116,-1.09934 0,0.1355 0.23812,0.46186 0.52916,0.72525 0.67985,0.61525 0.67812,1.19062 -0.004,1.19062 -0.29301,0 -0.76921,0.14767 -1.05821,0.32815 -0.454282,0.28371 -0.614622,0.232 -1.183762,-0.38179 -0.73851,-0.79646 -3.757694,-2.32761 -4.589664,-2.32761 -0.29803,0 -0.61666,0.12101 -0.70806,0.2689 -0.0914,0.14789 -0.27809,0.19974 -0.41486,0.11521 -0.13676,-0.0845 -0.49442,-0.0757 -0.79479,0.0197 -0.50929,0.16165 -0.51689,0.20563 -0.11268,0.65227 0.25845,0.28559 0.32826,0.54393 0.17294,0.63993 -0.27161,0.16786 -0.95099,-0.3844 -1.18542,-0.96363 -0.10372,-0.25624 -0.20185,-0.24173 -0.41557,0.0614 -0.20745,0.29427 -0.17391,0.47615 0.12977,0.70351 0.22526,0.16865 0.37186,0.36193 0.32579,0.42952 -0.10844,0.15908 2.05838,1.83209 4.4549,3.43963 1.03753,0.69595 1.954434,1.46986 2.037584,1.71979 0.0831,0.24994 0.34866,0.72232 0.59004,1.04974 0.42273,0.5734 0.41578,0.59531 -0.1887,0.59521 -0.39609,-6e-5 -1.213154,-0.54558 -2.215084,-1.47891 -1.92669,-1.79479 -2.67881,-2.16114 -2.91419,-1.41951 -0.19652,0.61917 -0.55417,0.65859 -1.09236,0.1204 -0.44392,-0.44392 -1.00975,-0.54294 -0.75595,-0.13229 0.29405,0.47578 -0.30318,0.27749 -0.79241,-0.2631 -0.6606,-0.72996 -2.06285,-1.07735 -3.11527,-0.77177 -1.15936,0.33663 -2.01912,0.10873 -3.11136,-0.82475 -0.50515,-0.43174 -1.07478,-0.78526 -1.26582,-0.7856 -0.19105,-3.4e-4 -0.32617,-0.20898 -0.30026,-0.46364 0.0887,-0.87218 -0.0151,-0.87691 -0.83509,-0.038 -0.4566,0.46709 -0.89716,0.72484 -0.99219,0.58048 -0.094,-0.14281 -0.7133,-0.44211 -1.3762,-0.66511 -1.40683,-0.47327 -6.07078,-3.2951 -6.07078,-3.67302 0,-0.15899 0.20291,-0.14927 0.52917,0.0253 0.29104,0.15576 0.52917,0.23074 0.52917,0.16661 0,-0.0641 -1.13107,-0.75293 -2.51348,-1.53067 -2.49136,-1.40162 -2.94435,-1.80345 -2.05059,-1.81898 0.42809,-0.007 0.42647,-0.0293 -0.0216,-0.2898 -0.26652,-0.15497 -0.73645,-0.2159 -1.04428,-0.1354 -0.30782,0.0805 -1.45567,-0.14628 -2.55077,-0.50395 -2.39515,-0.78228 -2.48193,-0.78774 -2.27743,-0.14341 0.17383,0.54767 -0.24649,0.99737 -0.51943,0.55575 -0.31368,-0.50754 -0.92871,-0.27925 -0.92871,0.34473 0,0.51115 0.21884,0.67322 1.31034,0.97045 0.97796,0.26631 1.3303,0.49565 1.38906,0.90416 0.0565,0.39293 0.33998,0.59525 1.00477,0.71714 0.50932,0.0934 1.46182,0.44537 2.11667,0.78221 0.65484,0.33683 1.40067,0.58168 1.6574,0.5441 0.57627,-0.0843 2.98316,1.25474 5.05843,2.81424 0.85605,0.6433 2.05415,1.38298 2.66244,1.64372 1.6364,0.70144 2.02359,1.16849 1.64511,1.98442 -0.16927,0.36491 -0.44956,0.6644 -0.62287,0.66554 -0.44317,0.003 -0.77038,-0.60625 -0.39319,-0.73198 0.43921,-0.14639 0.38821,-0.58886 -0.0679,-0.58886 -0.2171,0 -0.4151,0.31115 -0.46302,0.7276 l -0.0837,0.7276 -0.75188,-0.73985 c -0.61664,-0.60678 -0.82253,-0.68122 -1.14465,-0.41389 -0.31276,0.25957 -0.43676,0.25478 -0.60877,-0.0235 -0.16908,-0.27357 -0.39812,-0.28601 -1.05432,-0.0573 -0.76929,0.26818 -1.07122,0.17184 -3.66644,-1.16988 -1.55546,-0.80418 -2.67928,-1.31249 -2.49738,-1.12958 0.4178,0.4201 0.4331,0.85038 0.0212,0.5958 -0.20833,-0.12876 -0.25412,-0.0469 -0.14005,0.25039 0.18295,0.47675 -0.0587,0.38141 -3.51915,-1.38826 -0.80036,-0.40931 -2.15118,-0.95943 -3.00181,-1.22249 -0.85063,-0.26306 -1.60751,-0.63702 -1.68195,-0.83101 -0.0745,-0.19399 -0.36665,-0.35271 -0.64935,-0.35271 -0.2827,0 -0.87383,-0.18608 -1.31362,-0.4135 -0.61019,-0.31555 -0.88638,-0.34149 -1.16589,-0.10952 -0.20146,0.1672 -0.49533,0.22423 -0.65306,0.12675 -0.19069,-0.11785 -0.2323,0.0398 -0.1242,0.47053 0.22815,0.90904 -0.46174,1.10134 -1.694618,0.47238 -0.65908,-0.33624 -1.121473,-0.42584 -1.373756,-0.26621 -0.433147,0.27408 -1.596477,0.32384 -2.195621,0.0939 -0.31152,-0.11954 -0.346583,-0.30426 -0.153932,-0.81097 0.369263,-0.97124 0.283726,-1.12079 -0.166441,-0.291 -0.465852,0.8587 -1.166839,0.93458 -1.833042,0.19844 -0.532773,-0.58871 -2.778124,-0.77457 -2.778124,-0.22997 0,0.19388 -0.324269,0.24658 -0.921195,0.14972 -0.506656,-0.0822 -0.989933,-0.0383 -1.073946,0.0977 -0.08403,0.13594 -0.02668,0.24716 0.127431,0.24716 0.632336,0 0.208031,0.42497 -0.845272,0.8466 -1.125403,0.45049 -2.382282,0.4006 -3.041716,-0.12075 -0.230717,-0.18241 -0.333164,-0.15167 -0.338775,0.10165 -0.0055,0.24623 -0.09486,0.21407 -0.277731,-0.0999 -0.148325,-0.25466 -0.531659,-0.45465 -0.85185,-0.44442 -0.562268,0.018 -0.564078,0.0268 -0.053,0.25851 0.444076,0.20134 0.401529,0.23026 -0.264584,0.17984 -0.577657,-0.0437 -0.815147,-0.20978 -0.872347,-0.60998 -0.0713,-0.49883 -0.218726,-0.53956 -1.5875,-0.43853 -0.829897,0.0613 -2.163746,0.27339 -2.964111,0.47142 -1.317815,0.32607 -2.296858,0.40599 -4.233333,0.34557 -0.363802,-0.0113 -1.476769,0.123 -2.473261,0.29856 -1.808951,0.3187 -1.813015,0.31804 -2.579688,-0.41648 -0.422335,-0.40462 -0.767884,-0.63542 -0.767884,-0.51288 0,0.12254 -0.238125,0.007 -0.529167,-0.25609 -0.48433,-0.43831 -0.529166,-0.44099 -0.529166,-0.0317 0,0.24596 0.195765,0.74597 0.435036,1.11114 0.422166,0.64431 0.409344,0.68903 -0.43347,1.51204 -0.824817,0.80544 -0.883298,0.82254 -1.162637,0.33989 -0.548608,-0.94789 -2.073691,-2.5345 -2.436215,-2.5345 -0.198389,0 -0.599553,-0.46817 -0.891473,-1.04038 -0.700649,-1.37338 -1.16222,-1.63454 -0.633588,-0.35848 0.228301,0.55109 0.504529,1.12105 0.613839,1.26657 0.371332,0.49434 0.48482,1.42943 0.185592,1.52917 -0.78953,0.26318 -2.719713,-0.36772 -3.350001,-1.09498 -0.363802,-0.41977 -0.932521,-0.84704 -1.263819,-0.9495 -0.331298,-0.10245 -0.788389,-0.47019 -1.015756,-0.8172 -0.329573,-0.50299 -0.733129,-0.66709 -1.990299,-0.80933 -1.71812,-0.19438 -1.558682,-0.0668 -5.921229,-4.73732 l -1.482829,-1.5875 z m 111.738705,6.8101 c 0.91937,0.64885 1.60301,1.2483 1.5192,1.33211 -0.20443,0.20443 -4.64599,-2.82637 -4.64599,-3.17029 0,-0.29675 0.60945,0.0615 3.12679,1.83818 z m -0.48096,0.99511 c 0.42217,0.50867 -0.009,0.51403 -0.67703,0.008 -0.43147,-0.32635 -0.44473,-0.38981 -0.083,-0.39688 0.23684,-0.005 0.57884,0.17018 0.75999,0.38847 z m -88.767705,1.19062 c -0.08994,0.14553 -0.275558,0.26459 -0.412491,0.26459 -0.136932,0 -0.248967,-0.11906 -0.248967,-0.26459 0,-0.14552 0.185621,-0.26458 0.41249,-0.26458 0.22687,0 0.338905,0.11906 0.248968,0.26458 z m 29.847509,0.39287 c 0.97149,0.40591 1.5109,0.93005 0.95715,0.93005 -0.33067,0 -2.097369,-1.02109 -2.097369,-1.2122 0,-0.17182 0.131749,-0.13922 1.140219,0.28215 z m -32.890217,0.28421 c 0,0.22687 -0.119063,0.3389 -0.264584,0.24897 -0.14552,-0.0899 -0.264583,-0.27556 -0.264583,-0.41249 0,-0.13694 0.119063,-0.24897 0.264583,-0.24897 0.145521,0 0.264584,0.18562 0.264584,0.41249 z m 79.026333,0.28895 c -0.0948,0.0948 0.0342,0.32909 0.28663,0.52075 0.38814,0.29474 0.39567,0.34978 0.0488,0.35689 -0.43344,0.009 -1.0451,-0.48171 -1.0451,-0.83825 0,-0.11642 0.19843,-0.21167 0.44097,-0.21167 0.24253,0 0.36345,0.0775 0.26869,0.17228 z m 12.14662,1.08255 c -0.18348,0.18348 -0.68545,-0.18932 -0.68545,-0.50909 0,-0.17544 0.15181,-0.15537 0.40327,0.0533 0.2218,0.18408 0.34878,0.38917 0.28218,0.45577 z m 50.7571,-0.30989 c 0.22868,0.22868 0.41578,0.50788 0.41578,0.62046 0,0.47326 -1.09292,1.13543 -2.09613,1.26999 -1.41567,0.18988 -1.44825,-0.36564 -0.0867,-1.47793 1.15808,-0.94607 1.21921,-0.96034 1.76703,-0.41252 z m -179.105883,0.37495 c 0.09269,0.14998 -0.01352,0.19434 -0.248968,0.10398 -0.458369,-0.17589 -0.542234,-0.36553 -0.161649,-0.36553 0.136932,0 0.321712,0.1177 0.410617,0.26155 z m 87.706127,2.18584 c 0.0105,0.40802 -0.93768,0.17963 -1.23574,-0.29765 -0.17158,-0.27474 -0.61138,-0.4961 -0.98565,-0.4961 -0.83557,0 -2.00683,-0.73691 -2.00683,-1.26262 0,-0.28304 0.58125,-0.0811 2.11156,0.7337 1.16135,0.61833 2.11385,1.21353 2.11666,1.32267 z m 39.957206,-1.21593 c 0,0.31979 -0.13608,0.30557 -0.79375,-0.0829 -0.43656,-0.25788 -0.79375,-0.55607 -0.79375,-0.66265 0,-0.10657 0.35719,-0.0693 0.79375,0.0829 0.43656,0.15219 0.79375,0.45038 0.79375,0.66265 z m 1.05833,0.64062 c 0,0.12539 -0.17859,0.15944 -0.39687,0.0757 -0.21828,-0.0838 -0.39688,-0.25488 -0.39688,-0.38026 0,-0.12539 0.1786,-0.15944 0.39688,-0.0757 0.21828,0.0838 0.39687,0.25488 0.39687,0.38026 z m -51.593756,0.0967 c 0,0.0642 -0.11906,0.19027 -0.26458,0.2802 -0.14552,0.0899 -0.26458,0.0374 -0.26458,-0.11667 0,-0.15411 0.11906,-0.2802 0.26458,-0.2802 0.14552,0 0.26458,0.0525 0.26458,0.11667 z m 53.115116,0.40959 c 1.05138,0.64105 1.0979,0.86359 0.13229,0.63292 -0.81495,-0.19468 -1.38907,-0.57782 -1.38907,-0.927 0,-0.35407 0.31437,-0.28051 1.25678,0.29408 z m -50.336986,0.79665 c 0.0899,0.14553 0.0445,0.26459 -0.10106,0.26459 -0.14552,0 -0.33817,-0.11906 -0.42811,-0.26459 -0.0899,-0.14552 -0.0445,-0.26458 0.10107,-0.26458 0.14552,0 0.33816,0.11906 0.4281,0.26458 z m 30.2828,1.17618 c 0.25105,0.3025 0.25819,0.41132 0.027,0.41132 -0.57144,0 -1.33792,-0.54118 -1.33792,-0.94466 0,-0.4602 0.73429,-0.16146 1.31093,0.53334 z m 1.41211,0.17939 0.58425,0.56182 -0.58057,-0.29866 c -0.31932,-0.16426 -0.65377,-0.41708 -0.74322,-0.56181 -0.28009,-0.4532 0.12982,-0.28766 0.73954,0.29865 z m 3.468096,0.82725 c 0.28778,0.25466 0.61985,0.46302 0.73793,0.46302 0.11808,0 0.21469,0.17989 0.21469,0.39975 0,0.22164 0.64835,0.71773 1.45521,1.11345 1.10913,0.54397 1.45521,0.85266 1.45521,1.29799 0,0.32136 0.0893,0.63423 0.19844,0.69527 0.10914,0.061 0.0573,0.0776 -0.1152,0.0369 -0.1725,-0.0407 -0.3615,0.0681 -0.42,0.2418 -0.17653,0.52428 -0.96424,-0.30162 -0.85058,-0.89182 0.0797,-0.41373 -0.0525,-0.5121 -0.68824,-0.5121 -0.50621,0 -0.8494,-0.16515 -0.96219,-0.46302 -0.24666,-0.65141 -0.60788,-0.96293 -1.574992,-1.35832 -0.46249,-0.18908 -0.90629,-0.51423 -0.98623,-0.72255 -0.11944,-0.31125 -0.0403,-0.32474 0.44401,-0.0757 0.48618,0.25003 0.53146,0.24184 0.25862,-0.0468 -0.78609,-0.83163 -0.0766,-0.9831 0.833322,-0.17791 z m -3.016136,0.52891 c 0,0.11175 -0.23812,0.0545 -0.52916,-0.12729 -0.29105,-0.18176 -0.52917,-0.4219 -0.52917,-0.53365 0,-0.11175 0.23812,-0.0545 0.52917,0.12729 0.29104,0.18176 0.52916,0.4219 0.52916,0.53365 z m 1.577914,1.62946 c -0.28937,0.29879 -1.04874,-0.29065 -1.04874,-0.81406 0,-0.29892 0.13245,-0.27854 0.64066,0.0985 0.37398,0.27751 0.54385,0.57533 0.40808,0.71552 z M -57.463998,139.57447 c -0.08994,0.14552 -0.04446,0.26458 0.101063,0.26458 0.145521,0 0.338167,-0.11906 0.428104,-0.26458 0.08994,-0.14552 0.04446,-0.26458 -0.101063,-0.26458 -0.145521,0 -0.338166,0.11906 -0.428104,0.26458 z m 6.482292,0.42129 c 0,0.0862 0.228631,0.44736 0.508074,0.80262 0.32226,0.40968 0.573648,0.5398 0.687377,0.35578 0.09862,-0.15956 -0.02941,-0.52074 -0.284499,-0.80261 -0.449037,-0.49618 -0.910952,-0.67659 -0.910952,-0.35579 z m -4.630208,0.37246 c -0.08994,0.14552 0.02209,0.26458 0.248967,0.26458 0.22687,0 0.412491,-0.11906 0.412491,-0.26458 0,-0.14552 -0.112035,-0.26458 -0.248968,-0.26458 -0.136932,0 -0.322553,0.11906 -0.41249,0.26458 z m 162.189584,0.52914 c 0.0899,0.14552 0.34211,0.26458 0.56039,0.26458 0.21828,0 0.32329,-0.11906 0.23336,-0.26458 -0.0899,-0.14552 -0.34212,-0.26459 -0.5604,-0.26459 -0.21828,0 -0.32329,0.11907 -0.23335,0.26459 z m -154.907659,0.46302 c 0.0032,0.10914 0.238713,0.49609 0.523283,0.85989 0.340595,0.43543 0.516535,0.52584 0.514868,0.26459 -0.0013,-0.21828 -0.160697,-0.60524 -0.354015,-0.8599 -0.36504,-0.48088 -0.694325,-0.60823 -0.684136,-0.26458 z m -40.36572,0.34833 c -0.09592,0.1552 -0.117656,0.33893 -0.0483,0.40829 0.06936,0.0694 0.196603,-0.0576 0.282774,-0.28219 0.178907,-0.46622 0.02642,-0.54823 -0.234473,-0.1261 z m 44.504975,0.68795 c -0.333713,0.33372 -0.175445,0.61736 0.344475,0.61736 0.354285,0 0.472157,-0.12692 0.368567,-0.39687 -0.162885,-0.42447 -0.427299,-0.50623 -0.713042,-0.22049 z m 39.334462,0.0364 c -0.161485,0.10123 -0.425264,0.6603 -0.586173,1.24238 -0.360651,1.30464 -0.36385,1.45521 -0.03093,1.45521 0.145521,0 0.264583,-0.33069 0.264583,-0.73488 0,-0.40418 0.190738,-1.00719 0.423863,-1.34002 0.449283,-0.64145 0.416403,-0.92844 -0.07134,-0.62269 z m 38.71013,0.44863 c -0.111225,0.28985 0.03258,0.39688 0.533257,0.39688 0.57938,0 0.63454,-0.0615 0.356174,-0.39688 -0.181157,-0.21828 -0.421121,-0.39687 -0.533257,-0.39687 -0.112133,0 -0.272409,0.17859 -0.356174,0.39687 z m -76.103711,0.59532 c 2.64e-4,0.10914 0.357518,0.21111 0.79375,0.22661 0.436231,0.0155 0.793146,-0.0738 0.793146,-0.19844 0,-0.12464 -0.357187,-0.22661 -0.79375,-0.22661 -0.436562,0 -0.793477,0.0893 -0.793146,0.19844 z m 42.332728,-0.0755 c 0,0.0676 0.26789,0.26572 0.595312,0.44019 0.539808,0.28763 0.561456,0.27616 0.232188,-0.12299 -0.338093,-0.40984 -0.8275,-0.59745 -0.8275,-0.3172 z m -38.563019,0.84599 c -0.460685,0.18589 -0.41442,0.61852 0.06614,0.61852 0.218282,0 0.396875,-0.1786 0.396875,-0.39688 0,-0.21828 -0.02977,-0.38747 -0.06615,-0.37598 -0.03638,0.0115 -0.214974,0.0809 -0.396874,0.15434 z m 42.002602,0.6029 c 0,0.13693 0.1177,0.32171 0.261554,0.41062 0.149981,0.0927 0.194336,-0.0135 0.103983,-0.24897 -0.175892,-0.45837 -0.365537,-0.54223 -0.365537,-0.16165 z m -40.627788,0.30325 c -0.09777,0.15821 -0.0563,0.40911 0.09217,0.55758 0.183526,0.18352 0.365459,0.0915 0.568338,-0.28764 0.240832,-0.45 0.22305,-0.55757 -0.09217,-0.55757 -0.214812,0 -0.470564,0.12943 -0.568338,0.28763 z m 18.799664,0.24153 c -0.09933,0.31298 -0.121076,0.62858 -0.04832,0.70134 0.07276,0.0728 0.213564,-0.12378 0.312899,-0.43675 0.09933,-0.31298 0.121076,-0.62858 0.04832,-0.70134 -0.07276,-0.0728 -0.213564,0.12378 -0.312899,0.43675 z m -1.653069,0.92605 c 0.0029,0.58208 0.05712,0.78905 0.120406,0.45993 0.06329,-0.32912 0.06088,-0.80537 -0.0053,-1.05833 -0.06622,-0.25297 -0.118004,0.0163 -0.115068,0.5984 z m -49.808387,-0.1323 c 0,0.14553 0.119062,0.26459 0.264583,0.26459 0.145521,0 0.264584,-0.11906 0.264584,-0.26459 0,-0.14552 -0.119063,-0.26458 -0.264584,-0.26458 -0.145521,0 -0.264583,0.11906 -0.264583,0.26458 z m 36.777081,0.48116 c 0,0.31976 0.501968,0.69257 0.685456,0.50908 0.0666,-0.0666 -0.06039,-0.27169 -0.282186,-0.45576 -0.251457,-0.20869 -0.40327,-0.22877 -0.40327,-0.0533 z m 18.25625,0.37148 c 0,0.50799 0.692377,1.11294 0.896246,0.78307 0.08229,-0.13314 -0.08571,-0.45503 -0.373319,-0.71531 -0.440285,-0.39845 -0.522927,-0.40916 -0.522927,-0.0678 z m -63.444283,0.3113 c 0.187638,0.20361 0.382849,0.33059 0.433801,0.28219 0.156937,-0.14908 -0.240808,-0.65238 -0.515562,-0.65238 -0.14267,0 -0.105877,0.16659 0.08176,0.37019 z m 7.352619,-0.1056 c 0,0.14552 0.386953,0.25621 0.859895,0.24598 0.7206,-0.0156 0.774176,-0.0554 0.33073,-0.24598 -0.730965,-0.31411 -1.190625,-0.31411 -1.190625,0 z m 130.640299,0.042 c 0.1686,0.1686 0.69843,0.33867 1.17739,0.37793 l 0.87085,0.0714 -0.79375,-0.366 c -1.01918,-0.46994 -1.68537,-0.51419 -1.25449,-0.0833 z m 15.69632,-0.20791 c 0.27227,0.24362 1.83004,0.95948 1.83004,0.84098 0,-0.15239 -1.4668,-0.93963 -1.75075,-0.93963 -0.10424,0 -0.13992,0.0444 -0.0793,0.0986 z m -139.198177,0.56921 c -0.511273,0.61605 -0.14646,0.73214 0.400714,0.12752 0.264197,-0.29194 0.35742,-0.53079 0.207163,-0.53079 -0.150257,0 -0.423801,0.18147 -0.607877,0.40327 z m 45.910513,0.20211 c -0.189365,0.2295 0.06799,0.65915 0.905233,1.51128 0.6434,0.65485 1.051798,1.01204 0.907555,0.79375 -0.144243,-0.21828 -0.421828,-0.90289 -0.616852,-1.52135 -0.358471,-1.13678 -0.712941,-1.36906 -1.195936,-0.78368 z m 81.359374,0.31528 c 0,0.0698 0.47625,0.36988 1.05833,0.66684 1.31187,0.66926 1.38913,0.51202 0.11717,-0.23845 -0.96944,-0.57198 -1.1755,-0.64708 -1.1755,-0.42839 z m -83.825224,1.12986 c -0.02849,0.67171 -0.175533,1.12448 -0.365191,1.12448 -0.244459,0 -0.245475,0.072 -0.0044,0.31309 0.482672,0.48267 0.627028,0.12653 0.517552,-1.27684 l -0.100251,-1.28521 z m -30.040036,-0.2597 c -0.07643,0.12367 0.342506,0.35336 0.930971,0.51043 0.872,0.23275 1.00372,0.22287 0.712009,-0.0534 -0.484944,-0.45928 -1.471914,-0.73382 -1.64298,-0.45703 z m 115.47481,0.95146 c 0.0606,0.053 0.4079,0.23821 0.7717,0.41147 0.62369,0.29704 0.63213,0.29153 0.14786,-0.0965 -0.42148,-0.33767 -1.28266,-0.63269 -0.91956,-0.31501 z m -88.901159,0.58706 c 0.0127,0.30822 0.07539,0.37092 0.15985,0.15985 0.07643,-0.191 0.06703,-0.4192 -0.02088,-0.50712 -0.08792,-0.0879 -0.150453,0.0684 -0.138965,0.34727 z m -33.358388,0.37482 c 0,0.29105 0.09373,0.52917 0.20828,0.52917 0.114552,0 0.226216,-0.23812 0.24814,-0.52917 0.02193,-0.29104 -0.0718,-0.52916 -0.20828,-0.52916 -0.136478,0 -0.24814,0.23812 -0.24814,0.52916 z m 48.953799,-0.36641 c 0.0078,0.30856 1.038937,1.62313 1.046565,1.33419 0.0032,-0.12257 -0.232241,-0.52558 -0.523283,-0.89558 -0.291041,-0.37 -0.526518,-0.56737 -0.523282,-0.43861 z m -13.631925,1.42475 c 0.08994,0.14552 0.216027,0.26458 0.280199,0.26458 0.06417,0 0.116676,-0.11906 0.116676,-0.26458 0,-0.14552 -0.12609,-0.26459 -0.280199,-0.26459 -0.15411,0 -0.206614,0.11907 -0.116676,0.26459 z"
   sodipodi:nodetypes="csssssssscsscscssssssssssscssssscsssssssscssscscsssccsssssssssssscsscssccscssssscsssssscssssssssccssssssccscsccssscsscscsscsssssscsccsccssssscssssssscscssccscsscscssccccccsscscssssssssssssssssssssssssssssscsssssssssscssssssssssssssscccsssssssssssscssssssscsssssssssscssssssscsssssssssscssscssscssscsssssscssssssssssssscssscscssscscssscssssssssssssssccsssscccccsssssssssscssssscsssssssssssssssscsssssssssssssscscsssssssssscssscsssssscssssssssssssssssssssssssssscsssssssssssssssssssssscscscsccsssssssssssssssssscssscsssscsssccsssssscssscscscscccssssscssccssssscsscsccscscsccsssssssssssssssssscscsccsssssscsssscsssssssccscsssss"
   id="path192" /></g>
	
  
	   </svg>
